<svg width="640" height="943" viewBox="0 0 640 943" fill="none" xmlns="http://www.w3.org/2000/svg">
<rect x="0.5" y="0.5" width="639" height="942" rx="35.5" fill="#202637" stroke="#717171"/>
<path d="M534.06 431.068L521.974 365.193L476.653 83.7273H142.119H129.19L132.212 89.7159L141.276 95.7046L95.9546 571.801L101.965 816L110.5 808.352L125.5 811.347L140 819L142 802L144 787.392L149.287 775.415C153.5 763.5 155.5 758 168.469 754V768V787.392L171.49 808.352L183 819L192.64 829.312H203L214 827V820.5L227 816L231.5 806.5L237.961 802L231.5 794L228.897 786L233.5 763.5L219.833 751.5L204.726 733.5L208.5 715.528H218.586L552.188 712.534L540.103 682.591L546.146 643.665V613.722L540.103 586.773L546.146 550.841L555.21 535.869L567.296 517.903L555.21 505.926V481.972L534.06 431.068Z" fill="#97DCFF"/>
<path d="M476.653 86.7216V83.7273M476.653 83.7273L521.974 365.193L534.06 431.068L555.21 481.972V505.926L567.296 517.903L555.21 535.869L546.146 550.841L540.103 586.773L546.146 613.722V643.665L540.103 682.591L552.188 712.534L218.586 715.528H208.5L204.726 733.5L219.833 751.5L233.5 763.5L228.897 786L231.5 794L237.961 802L231.5 806.5L227 816L214 820.5V827L203 829.312H192.64L183 819L171.49 808.352L168.469 787.392V768V754C155.5 758 153.5 763.5 149.287 775.415L144 787.392L142 802L140 819L125.5 811.347L110.5 808.352L101.965 816L95.9546 571.801L141.276 95.7046L132.212 89.7159L129.19 83.7273H142.119H476.653Z" stroke="white" stroke-width="2"/>
<circle cx="211.148" cy="368.011" r="9.01136" fill="#FFE587" stroke="black"/>
<circle cx="335.511" cy="418.511" r="9.01136" fill="#FFE587" stroke="black"/>
<circle cx="312.602" cy="317.284" r="9.01136" fill="#FFE587" stroke="black"/>
<path d="M147.889 392.749V390.795H161.525V392.749H155.808V408.977H153.606V392.749H147.889ZM171.378 403.402V395.341H173.473V408.977H171.378V406.669H171.236C170.916 407.362 170.419 407.95 169.744 408.436C169.069 408.915 168.217 409.155 167.187 409.155C166.335 409.155 165.577 408.968 164.915 408.596C164.252 408.217 163.731 407.649 163.352 406.891C162.973 406.128 162.784 405.166 162.784 404.006V395.341H164.879V403.864C164.879 404.858 165.157 405.651 165.714 406.243C166.276 406.835 166.992 407.131 167.862 407.131C168.383 407.131 168.912 406.998 169.451 406.731C169.996 406.465 170.451 406.056 170.818 405.506C171.191 404.956 171.378 404.254 171.378 403.402ZM186.969 398.395L185.087 398.928C184.969 398.614 184.794 398.309 184.563 398.013C184.338 397.711 184.031 397.463 183.64 397.267C183.249 397.072 182.749 396.974 182.14 396.974C181.305 396.974 180.61 397.167 180.053 397.552C179.503 397.93 179.228 398.413 179.228 398.999C179.228 399.519 179.417 399.931 179.796 400.233C180.175 400.534 180.767 400.786 181.572 400.987L183.596 401.484C184.815 401.78 185.723 402.233 186.321 402.843C186.919 403.446 187.218 404.225 187.218 405.178C187.218 405.959 186.993 406.657 186.543 407.273C186.099 407.888 185.478 408.374 184.679 408.729C183.88 409.084 182.951 409.261 181.891 409.261C180.5 409.261 179.349 408.96 178.438 408.356C177.526 407.752 176.949 406.87 176.706 405.71L178.695 405.213C178.885 405.947 179.243 406.497 179.769 406.864C180.302 407.231 180.997 407.415 181.856 407.415C182.832 407.415 183.608 407.208 184.182 406.793C184.762 406.373 185.052 405.87 185.052 405.284C185.052 404.811 184.886 404.414 184.555 404.094C184.223 403.769 183.714 403.526 183.028 403.366L180.755 402.834C179.506 402.538 178.589 402.079 178.003 401.458C177.423 400.83 177.133 400.046 177.133 399.105C177.133 398.336 177.349 397.655 177.781 397.063C178.219 396.471 178.814 396.007 179.565 395.669C180.323 395.332 181.181 395.163 182.14 395.163C183.489 395.163 184.549 395.459 185.318 396.051C186.093 396.643 186.644 397.424 186.969 398.395ZM195.911 409.261C194.633 409.261 193.532 408.96 192.609 408.356C191.686 407.752 190.975 406.921 190.478 405.861C189.981 404.802 189.733 403.591 189.733 402.23C189.733 400.845 189.987 399.623 190.496 398.564C191.011 397.498 191.727 396.667 192.644 396.069C193.568 395.465 194.645 395.163 195.876 395.163C196.835 395.163 197.699 395.341 198.468 395.696C199.238 396.051 199.868 396.548 200.359 397.188C200.851 397.827 201.155 398.572 201.274 399.425H199.179C199.019 398.803 198.664 398.253 198.113 397.773C197.569 397.288 196.835 397.045 195.911 397.045C195.095 397.045 194.379 397.259 193.763 397.685C193.153 398.105 192.677 398.7 192.334 399.469C191.996 400.233 191.828 401.129 191.828 402.159C191.828 403.213 191.993 404.13 192.325 404.911C192.662 405.692 193.136 406.299 193.745 406.731C194.361 407.163 195.083 407.379 195.911 407.379C196.456 407.379 196.95 407.285 197.394 407.095C197.838 406.906 198.214 406.634 198.522 406.278C198.829 405.923 199.048 405.497 199.179 405H201.274C201.155 405.805 200.862 406.53 200.395 407.175C199.933 407.814 199.321 408.323 198.557 408.702C197.8 409.075 196.918 409.261 195.911 409.261ZM208.349 409.297C207.485 409.297 206.701 409.134 205.997 408.809C205.292 408.477 204.733 408.001 204.319 407.379C203.905 406.752 203.697 405.994 203.697 405.107C203.697 404.325 203.851 403.692 204.159 403.207C204.467 402.715 204.878 402.331 205.393 402.053C205.908 401.774 206.476 401.567 207.098 401.431C207.725 401.289 208.355 401.177 208.989 401.094C209.817 400.987 210.489 400.907 211.004 400.854C211.525 400.795 211.903 400.697 212.14 400.561C212.383 400.425 212.504 400.188 212.504 399.851V399.78C212.504 398.904 212.264 398.223 211.785 397.738C211.312 397.253 210.592 397.01 209.628 397.01C208.628 397.01 207.843 397.229 207.275 397.667C206.707 398.105 206.307 398.572 206.077 399.07L204.088 398.359C204.443 397.531 204.917 396.886 205.508 396.424C206.106 395.956 206.757 395.631 207.462 395.447C208.172 395.258 208.87 395.163 209.557 395.163C209.995 395.163 210.498 395.217 211.066 395.323C211.64 395.424 212.193 395.634 212.726 395.954C213.265 396.273 213.712 396.755 214.067 397.401C214.422 398.046 214.599 398.91 214.599 399.993V408.977H212.504V407.131H212.398C212.256 407.427 212.019 407.743 211.687 408.081C211.356 408.418 210.915 408.705 210.365 408.942C209.814 409.179 209.142 409.297 208.349 409.297ZM208.669 407.415C209.498 407.415 210.196 407.252 210.764 406.927C211.338 406.601 211.77 406.181 212.06 405.666C212.356 405.151 212.504 404.609 212.504 404.041V402.124C212.415 402.23 212.22 402.328 211.918 402.417C211.622 402.499 211.279 402.573 210.888 402.639C210.504 402.698 210.128 402.751 209.761 402.798C209.4 402.84 209.107 402.875 208.882 402.905C208.338 402.976 207.829 403.091 207.355 403.251C206.887 403.405 206.509 403.639 206.219 403.952C205.935 404.26 205.793 404.68 205.793 405.213C205.793 405.941 206.062 406.491 206.6 406.864C207.145 407.231 207.834 407.415 208.669 407.415ZM220.519 390.795V408.977H218.423V390.795H220.519ZM229.896 409.261C228.665 409.261 227.585 408.968 226.655 408.382C225.732 407.797 225.01 406.977 224.489 405.923C223.974 404.87 223.717 403.639 223.717 402.23C223.717 400.81 223.974 399.57 224.489 398.51C225.01 397.451 225.732 396.628 226.655 396.042C227.585 395.456 228.665 395.163 229.896 395.163C231.127 395.163 232.204 395.456 233.127 396.042C234.057 396.628 234.779 397.451 235.294 398.51C235.814 399.57 236.075 400.81 236.075 402.23C236.075 403.639 235.814 404.87 235.294 405.923C234.779 406.977 234.057 407.797 233.127 408.382C232.204 408.968 231.127 409.261 229.896 409.261ZM229.896 407.379C230.831 407.379 231.6 407.14 232.204 406.66C232.808 406.181 233.255 405.55 233.545 404.769C233.835 403.988 233.98 403.142 233.98 402.23C233.98 401.319 233.835 400.469 233.545 399.682C233.255 398.895 232.808 398.259 232.204 397.773C231.6 397.288 230.831 397.045 229.896 397.045C228.961 397.045 228.191 397.288 227.588 397.773C226.984 398.259 226.537 398.895 226.247 399.682C225.957 400.469 225.812 401.319 225.812 402.23C225.812 403.142 225.957 403.988 226.247 404.769C226.537 405.55 226.984 406.181 227.588 406.66C228.191 407.14 228.961 407.379 229.896 407.379ZM244.813 409.261C243.582 409.261 242.502 408.968 241.572 408.382C240.649 407.797 239.927 406.977 239.406 405.923C238.891 404.87 238.634 403.639 238.634 402.23C238.634 400.81 238.891 399.57 239.406 398.51C239.927 397.451 240.649 396.628 241.572 396.042C242.502 395.456 243.582 395.163 244.813 395.163C246.044 395.163 247.121 395.456 248.044 396.042C248.974 396.628 249.696 397.451 250.211 398.51C250.731 399.57 250.992 400.81 250.992 402.23C250.992 403.639 250.731 404.87 250.211 405.923C249.696 406.977 248.974 407.797 248.044 408.382C247.121 408.968 246.044 409.261 244.813 409.261ZM244.813 407.379C245.748 407.379 246.517 407.14 247.121 406.66C247.725 406.181 248.172 405.55 248.462 404.769C248.752 403.988 248.897 403.142 248.897 402.23C248.897 401.319 248.752 400.469 248.462 399.682C248.172 398.895 247.725 398.259 247.121 397.773C246.517 397.288 245.748 397.045 244.813 397.045C243.878 397.045 243.108 397.288 242.505 397.773C241.901 398.259 241.454 398.895 241.164 399.682C240.874 400.469 240.729 401.319 240.729 402.23C240.729 403.142 240.874 403.988 241.164 404.769C241.454 405.55 241.901 406.181 242.505 406.66C243.108 407.14 243.878 407.379 244.813 407.379ZM263.849 398.395L261.967 398.928C261.849 398.614 261.674 398.309 261.443 398.013C261.218 397.711 260.911 397.463 260.52 397.267C260.129 397.072 259.629 396.974 259.02 396.974C258.185 396.974 257.49 397.167 256.933 397.552C256.383 397.93 256.108 398.413 256.108 398.999C256.108 399.519 256.297 399.931 256.676 400.233C257.055 400.534 257.647 400.786 258.451 400.987L260.476 401.484C261.695 401.78 262.603 402.233 263.201 402.843C263.799 403.446 264.098 404.225 264.098 405.178C264.098 405.959 263.873 406.657 263.423 407.273C262.979 407.888 262.358 408.374 261.559 408.729C260.76 409.084 259.83 409.261 258.771 409.261C257.38 409.261 256.229 408.96 255.318 408.356C254.406 407.752 253.829 406.87 253.586 405.71L255.575 405.213C255.764 405.947 256.122 406.497 256.649 406.864C257.182 407.231 257.877 407.415 258.736 407.415C259.712 407.415 260.487 407.208 261.062 406.793C261.642 406.373 261.932 405.87 261.932 405.284C261.932 404.811 261.766 404.414 261.434 404.094C261.103 403.769 260.594 403.526 259.907 403.366L257.635 402.834C256.386 402.538 255.468 402.079 254.883 401.458C254.303 400.83 254.013 400.046 254.013 399.105C254.013 398.336 254.229 397.655 254.661 397.063C255.099 396.471 255.693 396.007 256.445 395.669C257.203 395.332 258.061 395.163 259.02 395.163C260.369 395.163 261.428 395.459 262.198 396.051C262.973 396.643 263.524 397.424 263.849 398.395ZM271.264 409.297C270.4 409.297 269.616 409.134 268.912 408.809C268.207 408.477 267.648 408.001 267.234 407.379C266.82 406.752 266.612 405.994 266.612 405.107C266.612 404.325 266.766 403.692 267.074 403.207C267.382 402.715 267.793 402.331 268.308 402.053C268.823 401.774 269.391 401.567 270.013 401.431C270.64 401.289 271.27 401.177 271.904 401.094C272.732 400.987 273.404 400.907 273.919 400.854C274.44 400.795 274.818 400.697 275.055 400.561C275.298 400.425 275.419 400.188 275.419 399.851V399.78C275.419 398.904 275.18 398.223 274.7 397.738C274.227 397.253 273.508 397.01 272.543 397.01C271.543 397.01 270.758 397.229 270.19 397.667C269.622 398.105 269.222 398.572 268.992 399.07L267.003 398.359C267.358 397.531 267.832 396.886 268.423 396.424C269.021 395.956 269.672 395.631 270.377 395.447C271.087 395.258 271.785 395.163 272.472 395.163C272.91 395.163 273.413 395.217 273.981 395.323C274.555 395.424 275.108 395.634 275.641 395.954C276.18 396.273 276.627 396.755 276.982 397.401C277.337 398.046 277.514 398.91 277.514 399.993V408.977H275.419V407.131H275.313C275.171 407.427 274.934 407.743 274.602 408.081C274.271 408.418 273.83 408.705 273.28 408.942C272.729 409.179 272.057 409.297 271.264 409.297ZM271.584 407.415C272.413 407.415 273.111 407.252 273.679 406.927C274.253 406.601 274.685 406.181 274.975 405.666C275.271 405.151 275.419 404.609 275.419 404.041V402.124C275.33 402.23 275.135 402.328 274.833 402.417C274.537 402.499 274.194 402.573 273.803 402.639C273.419 402.698 273.043 402.751 272.676 402.798C272.315 402.84 272.022 402.875 271.797 402.905C271.253 402.976 270.744 403.091 270.27 403.251C269.802 403.405 269.424 403.639 269.134 403.952C268.85 404.26 268.708 404.68 268.708 405.213C268.708 405.941 268.977 406.491 269.515 406.864C270.06 407.231 270.749 407.415 271.584 407.415Z" fill="black"/>
<path d="M287.832 439.5H285.631C285.5 438.867 285.273 438.31 284.947 437.831C284.627 437.352 284.237 436.949 283.775 436.624C283.319 436.292 282.813 436.044 282.257 435.878C281.701 435.712 281.121 435.629 280.517 435.629C279.416 435.629 278.419 435.907 277.525 436.464C276.637 437.02 275.93 437.84 275.403 438.923C274.883 440.006 274.622 441.335 274.622 442.909C274.622 444.483 274.883 445.812 275.403 446.895C275.93 447.978 276.637 448.798 277.525 449.354C278.419 449.911 279.416 450.189 280.517 450.189C281.121 450.189 281.701 450.106 282.257 449.94C282.813 449.775 283.319 449.529 283.775 449.203C284.237 448.872 284.627 448.467 284.947 447.987C285.273 447.502 285.5 446.946 285.631 446.318H287.832C287.667 447.247 287.365 448.079 286.927 448.813C286.489 449.547 285.944 450.171 285.293 450.686C284.642 451.195 283.911 451.583 283.1 451.849C282.296 452.115 281.434 452.249 280.517 452.249C278.966 452.249 277.587 451.87 276.38 451.112C275.173 450.355 274.223 449.277 273.53 447.881C272.838 446.484 272.491 444.827 272.491 442.909C272.491 440.991 272.838 439.334 273.53 437.938C274.223 436.541 275.173 435.464 276.38 434.706C277.587 433.948 278.966 433.57 280.517 433.57C281.434 433.57 282.296 433.703 283.1 433.969C283.911 434.235 284.642 434.626 285.293 435.141C285.944 435.65 286.489 436.271 286.927 437.005C287.365 437.733 287.667 438.565 287.832 439.5ZM293.201 433.818V452H291.106V433.818H293.201ZM301.051 452.32C300.187 452.32 299.403 452.157 298.699 451.831C297.995 451.5 297.435 451.023 297.021 450.402C296.607 449.775 296.4 449.017 296.4 448.129C296.4 447.348 296.553 446.715 296.861 446.229C297.169 445.738 297.58 445.353 298.095 445.075C298.61 444.797 299.178 444.59 299.8 444.454C300.427 444.312 301.057 444.199 301.691 444.116C302.519 444.01 303.191 443.93 303.706 443.877C304.227 443.818 304.606 443.72 304.842 443.584C305.085 443.448 305.206 443.211 305.206 442.874V442.803C305.206 441.927 304.967 441.246 304.487 440.761C304.014 440.275 303.295 440.033 302.33 440.033C301.33 440.033 300.545 440.252 299.977 440.69C299.409 441.128 299.01 441.595 298.779 442.092L296.79 441.382C297.145 440.554 297.619 439.908 298.211 439.447C298.808 438.979 299.459 438.654 300.164 438.47C300.874 438.281 301.572 438.186 302.259 438.186C302.697 438.186 303.2 438.239 303.768 438.346C304.342 438.446 304.896 438.657 305.428 438.976C305.967 439.296 306.414 439.778 306.769 440.423C307.124 441.068 307.301 441.933 307.301 443.016V452H305.206V450.153H305.1C304.958 450.449 304.721 450.766 304.39 451.103C304.058 451.441 303.617 451.728 303.067 451.964C302.516 452.201 301.845 452.32 301.051 452.32ZM301.371 450.438C302.2 450.438 302.898 450.275 303.466 449.949C304.04 449.624 304.472 449.203 304.762 448.689C305.058 448.174 305.206 447.632 305.206 447.064V445.146C305.118 445.253 304.922 445.35 304.62 445.439C304.324 445.522 303.981 445.596 303.591 445.661C303.206 445.72 302.83 445.774 302.463 445.821C302.102 445.862 301.809 445.898 301.584 445.928C301.04 445.999 300.531 446.114 300.057 446.274C299.59 446.428 299.211 446.661 298.921 446.975C298.637 447.283 298.495 447.703 298.495 448.236C298.495 448.964 298.764 449.514 299.303 449.887C299.847 450.254 300.537 450.438 301.371 450.438ZM313.221 443.797V452H311.126V438.364H313.15V440.494H313.327C313.647 439.802 314.132 439.246 314.783 438.825C315.434 438.399 316.275 438.186 317.305 438.186C318.228 438.186 319.036 438.375 319.728 438.754C320.421 439.127 320.959 439.695 321.344 440.459C321.729 441.216 321.921 442.175 321.921 443.335V452H319.826V443.477C319.826 442.406 319.548 441.571 318.991 440.974C318.435 440.37 317.672 440.068 316.701 440.068C316.032 440.068 315.434 440.213 314.908 440.503C314.387 440.793 313.975 441.216 313.674 441.773C313.372 442.329 313.221 443.004 313.221 443.797ZM331.68 438.364V440.139H324.613V438.364H331.68ZM326.673 435.097H328.768V448.094C328.768 448.686 328.854 449.129 329.026 449.425C329.203 449.715 329.428 449.911 329.7 450.011C329.978 450.106 330.271 450.153 330.579 450.153C330.81 450.153 330.999 450.142 331.147 450.118C331.295 450.088 331.414 450.065 331.502 450.047L331.929 451.929C331.787 451.982 331.588 452.036 331.334 452.089C331.079 452.148 330.757 452.178 330.366 452.178C329.774 452.178 329.194 452.05 328.626 451.796C328.064 451.541 327.596 451.154 327.223 450.633C326.856 450.112 326.673 449.455 326.673 448.662V435.097ZM340.225 452.284C338.994 452.284 337.914 451.991 336.985 451.405C336.061 450.819 335.339 450 334.818 448.946C334.303 447.893 334.046 446.661 334.046 445.253C334.046 443.832 334.303 442.592 334.818 441.533C335.339 440.474 336.061 439.651 336.985 439.065C337.914 438.479 338.994 438.186 340.225 438.186C341.456 438.186 342.533 438.479 343.456 439.065C344.386 439.651 345.108 440.474 345.623 441.533C346.144 442.592 346.404 443.832 346.404 445.253C346.404 446.661 346.144 447.893 345.623 448.946C345.108 450 344.386 450.819 343.456 451.405C342.533 451.991 341.456 452.284 340.225 452.284ZM340.225 450.402C341.16 450.402 341.93 450.162 342.533 449.683C343.137 449.203 343.584 448.573 343.874 447.792C344.164 447.011 344.309 446.164 344.309 445.253C344.309 444.341 344.164 443.492 343.874 442.705C343.584 441.918 343.137 441.281 342.533 440.796C341.93 440.311 341.16 440.068 340.225 440.068C339.29 440.068 338.52 440.311 337.917 440.796C337.313 441.281 336.866 441.918 336.576 442.705C336.286 443.492 336.141 444.341 336.141 445.253C336.141 446.164 336.286 447.011 336.576 447.792C336.866 448.573 337.313 449.203 337.917 449.683C338.52 450.162 339.29 450.402 340.225 450.402ZM351.697 443.797V452H349.602V438.364H351.626V440.494H351.804C352.123 439.802 352.609 439.246 353.26 438.825C353.911 438.399 354.751 438.186 355.781 438.186C356.704 438.186 357.512 438.375 358.205 438.754C358.897 439.127 359.436 439.695 359.821 440.459C360.205 441.216 360.398 442.175 360.398 443.335V452H358.302V443.477C358.302 442.406 358.024 441.571 357.468 440.974C356.912 440.37 356.148 440.068 355.177 440.068C354.509 440.068 353.911 440.213 353.384 440.503C352.863 440.793 352.452 441.216 352.15 441.773C351.848 442.329 351.697 443.004 351.697 443.797Z" fill="black"/>
<circle cx="151.511" cy="760.511" r="9.01136" fill="#FFE587" stroke="black"/>
<path d="M123.202 724.818H125.83L132.009 739.911H132.222L138.401 724.818H141.028V743H138.969V729.186H138.791L133.109 743H131.121L125.439 729.186H125.261V743H123.202V724.818ZM150.699 743.284C149.468 743.284 148.387 742.991 147.458 742.405C146.535 741.819 145.813 741 145.292 739.946C144.777 738.893 144.52 737.661 144.52 736.253C144.52 734.832 144.777 733.592 145.292 732.533C145.813 731.474 146.535 730.651 147.458 730.065C148.387 729.479 149.468 729.186 150.699 729.186C151.93 729.186 153.007 729.479 153.93 730.065C154.859 730.651 155.581 731.474 156.096 732.533C156.617 733.592 156.878 734.832 156.878 736.253C156.878 737.661 156.617 738.893 156.096 739.946C155.581 741 154.859 741.819 153.93 742.405C153.007 742.991 151.93 743.284 150.699 743.284ZM150.699 741.402C151.634 741.402 152.403 741.162 153.007 740.683C153.611 740.203 154.057 739.573 154.347 738.792C154.637 738.011 154.782 737.164 154.782 736.253C154.782 735.341 154.637 734.492 154.347 733.705C154.057 732.918 153.611 732.281 153.007 731.796C152.403 731.311 151.634 731.068 150.699 731.068C149.763 731.068 148.994 731.311 148.39 731.796C147.787 732.281 147.34 732.918 147.05 733.705C146.76 734.492 146.615 735.341 146.615 736.253C146.615 737.164 146.76 738.011 147.05 738.792C147.34 739.573 147.787 740.203 148.39 740.683C148.994 741.162 149.763 741.402 150.699 741.402ZM160.36 743V724.818H162.455V731.53H162.633C162.787 731.293 163 730.991 163.272 730.624C163.55 730.251 163.947 729.92 164.461 729.63C164.982 729.334 165.687 729.186 166.574 729.186C167.723 729.186 168.735 729.473 169.611 730.047C170.487 730.621 171.17 731.435 171.661 732.489C172.153 733.542 172.398 734.785 172.398 736.217C172.398 737.661 172.153 738.913 171.661 739.973C171.17 741.026 170.49 741.843 169.619 742.423C168.749 742.997 167.746 743.284 166.61 743.284C165.734 743.284 165.033 743.139 164.506 742.849C163.979 742.553 163.574 742.219 163.29 741.846C163.006 741.467 162.787 741.153 162.633 740.905H162.384V743H160.36ZM162.42 736.182C162.42 737.212 162.57 738.12 162.872 738.907C163.174 739.689 163.615 740.301 164.195 740.745C164.775 741.183 165.485 741.402 166.326 741.402C167.202 741.402 167.933 741.171 168.519 740.71C169.11 740.242 169.554 739.615 169.85 738.827C170.152 738.034 170.303 737.152 170.303 736.182C170.303 735.223 170.155 734.359 169.859 733.589C169.569 732.814 169.128 732.202 168.536 731.752C167.95 731.296 167.214 731.068 166.326 731.068C165.474 731.068 164.757 731.284 164.177 731.716C163.597 732.142 163.159 732.74 162.863 733.51C162.568 734.273 162.42 735.164 162.42 736.182ZM175.603 743V729.364H177.698V743H175.603ZM176.669 727.091C176.26 727.091 175.908 726.952 175.612 726.674C175.322 726.395 175.177 726.061 175.177 725.67C175.177 725.28 175.322 724.945 175.612 724.667C175.908 724.389 176.26 724.25 176.669 724.25C177.077 724.25 177.426 724.389 177.716 724.667C178.012 724.945 178.16 725.28 178.16 725.67C178.16 726.061 178.012 726.395 177.716 726.674C177.426 726.952 177.077 727.091 176.669 727.091ZM183.631 724.818V743H181.536V724.818H183.631ZM193.186 743.284C191.872 743.284 190.738 742.994 189.786 742.414C188.839 741.828 188.108 741.011 187.593 739.964C187.084 738.91 186.829 737.685 186.829 736.288C186.829 734.892 187.084 733.661 187.593 732.595C188.108 731.524 188.824 730.689 189.741 730.092C190.664 729.488 191.742 729.186 192.973 729.186C193.683 729.186 194.384 729.304 195.077 729.541C195.769 729.778 196.4 730.163 196.968 730.695C197.536 731.222 197.989 731.92 198.326 732.79C198.663 733.661 198.832 734.732 198.832 736.004V736.892H188.321V735.081H196.701C196.701 734.312 196.547 733.625 196.24 733.021C195.938 732.418 195.506 731.941 194.944 731.592C194.387 731.243 193.73 731.068 192.973 731.068C192.138 731.068 191.416 731.275 190.806 731.69C190.203 732.098 189.738 732.631 189.413 733.288C189.087 733.945 188.924 734.649 188.924 735.401V736.608C188.924 737.638 189.102 738.511 189.457 739.227C189.818 739.937 190.318 740.479 190.957 740.852C191.597 741.219 192.339 741.402 193.186 741.402C193.736 741.402 194.233 741.325 194.677 741.171C195.127 741.011 195.515 740.775 195.84 740.461C196.166 740.141 196.417 739.745 196.595 739.271L198.619 739.839C198.406 740.526 198.048 741.13 197.545 741.651C197.042 742.165 196.42 742.568 195.68 742.858C194.941 743.142 194.109 743.284 193.186 743.284Z" fill="black"/>
<path d="M256.202 355V336.818H262.558C263.825 336.818 264.869 337.037 265.692 337.475C266.515 337.907 267.127 338.49 267.53 339.224C267.932 339.952 268.134 340.76 268.134 341.648C268.134 342.429 267.994 343.074 267.716 343.583C267.444 344.092 267.083 344.495 266.633 344.79C266.189 345.086 265.707 345.305 265.186 345.447V345.625C265.742 345.661 266.302 345.856 266.864 346.211C267.426 346.566 267.897 347.075 268.276 347.738C268.654 348.401 268.844 349.212 268.844 350.17C268.844 351.082 268.637 351.902 268.222 352.63C267.808 353.358 267.154 353.935 266.26 354.361C265.367 354.787 264.204 355 262.771 355H256.202ZM258.403 353.047H262.771C264.21 353.047 265.23 352.769 265.834 352.212C266.444 351.65 266.749 350.969 266.749 350.17C266.749 349.555 266.592 348.987 266.278 348.466C265.964 347.939 265.518 347.519 264.938 347.205C264.357 346.886 263.671 346.726 262.878 346.726H258.403V353.047ZM258.403 344.808H262.487C263.15 344.808 263.748 344.678 264.281 344.418C264.819 344.157 265.245 343.79 265.559 343.317C265.879 342.843 266.038 342.287 266.038 341.648C266.038 340.849 265.76 340.171 265.204 339.615C264.647 339.052 263.766 338.771 262.558 338.771H258.403V344.808ZM272.177 355V341.364H274.273V355H272.177ZM273.243 339.091C272.834 339.091 272.482 338.952 272.186 338.674C271.896 338.395 271.751 338.061 271.751 337.67C271.751 337.28 271.896 336.945 272.186 336.667C272.482 336.389 272.834 336.25 273.243 336.25C273.651 336.25 274 336.389 274.29 336.667C274.586 336.945 274.734 337.28 274.734 337.67C274.734 338.061 274.586 338.395 274.29 338.674C274 338.952 273.651 339.091 273.243 339.091ZM278.11 355V341.364H280.134V343.423H280.276C280.525 342.749 280.975 342.201 281.626 341.781C282.277 341.361 283.011 341.151 283.827 341.151C283.981 341.151 284.174 341.154 284.404 341.159C284.635 341.165 284.81 341.174 284.928 341.186V343.317C284.857 343.299 284.694 343.272 284.44 343.237C284.191 343.195 283.928 343.175 283.65 343.175C282.987 343.175 282.395 343.314 281.874 343.592C281.359 343.864 280.951 344.243 280.649 344.728C280.353 345.208 280.205 345.755 280.205 346.371V355H278.11ZM287.412 355V341.364H289.436V343.494H289.613C289.898 342.766 290.356 342.201 290.99 341.799C291.623 341.39 292.383 341.186 293.271 341.186C294.171 341.186 294.919 341.39 295.517 341.799C296.121 342.201 296.591 342.766 296.929 343.494H297.071C297.42 342.79 297.944 342.231 298.642 341.816C299.341 341.396 300.178 341.186 301.155 341.186C302.374 341.186 303.371 341.568 304.146 342.331C304.922 343.089 305.309 344.27 305.309 345.874V355H303.214V345.874C303.214 344.867 302.939 344.148 302.389 343.716C301.838 343.284 301.19 343.068 300.444 343.068C299.486 343.068 298.743 343.358 298.216 343.938C297.689 344.512 297.426 345.24 297.426 346.122V355H295.295V345.661C295.295 344.885 295.044 344.261 294.541 343.787C294.038 343.308 293.39 343.068 292.596 343.068C292.052 343.068 291.543 343.213 291.069 343.503C290.602 343.793 290.223 344.196 289.933 344.711C289.649 345.22 289.507 345.808 289.507 346.477V355H287.412ZM309.14 355V341.364H311.235V355H309.14ZM310.206 339.091C309.797 339.091 309.445 338.952 309.149 338.674C308.859 338.395 308.714 338.061 308.714 337.67C308.714 337.28 308.859 336.945 309.149 336.667C309.445 336.389 309.797 336.25 310.206 336.25C310.614 336.25 310.963 336.389 311.253 336.667C311.549 336.945 311.697 337.28 311.697 337.67C311.697 338.061 311.549 338.395 311.253 338.674C310.963 338.952 310.614 339.091 310.206 339.091ZM317.168 346.797V355H315.073V341.364H317.097V343.494H317.275C317.594 342.802 318.08 342.246 318.731 341.825C319.382 341.399 320.222 341.186 321.252 341.186C322.175 341.186 322.983 341.375 323.676 341.754C324.368 342.127 324.907 342.695 325.291 343.459C325.676 344.216 325.868 345.175 325.868 346.335V355H323.773V346.477C323.773 345.406 323.495 344.571 322.939 343.974C322.382 343.37 321.619 343.068 320.648 343.068C319.979 343.068 319.382 343.213 318.855 343.503C318.334 343.793 317.923 344.216 317.621 344.773C317.319 345.329 317.168 346.004 317.168 346.797ZM335.201 360.398C334.189 360.398 333.319 360.268 332.591 360.007C331.863 359.753 331.256 359.415 330.771 358.995C330.292 358.581 329.91 358.137 329.626 357.663L331.295 356.491C331.484 356.74 331.724 357.024 332.014 357.344C332.304 357.669 332.701 357.95 333.204 358.187C333.713 358.43 334.378 358.551 335.201 358.551C336.302 358.551 337.211 358.285 337.927 357.752C338.643 357.219 339.001 356.385 339.001 355.249V352.479H338.823C338.669 352.727 338.45 353.035 338.166 353.402C337.888 353.763 337.486 354.086 336.959 354.37C336.438 354.648 335.734 354.787 334.846 354.787C333.745 354.787 332.757 354.527 331.881 354.006C331.011 353.485 330.321 352.727 329.812 351.733C329.309 350.739 329.058 349.531 329.058 348.111C329.058 346.714 329.303 345.498 329.795 344.462C330.286 343.42 330.969 342.615 331.845 342.047C332.721 341.473 333.733 341.186 334.882 341.186C335.769 341.186 336.474 341.334 336.994 341.63C337.521 341.92 337.924 342.251 338.202 342.624C338.486 342.991 338.705 343.293 338.859 343.53H339.072V341.364H341.096V355.391C341.096 356.562 340.83 357.515 340.297 358.249C339.77 358.989 339.06 359.531 338.166 359.874C337.279 360.223 336.29 360.398 335.201 360.398ZM335.13 352.905C335.971 352.905 336.681 352.712 337.261 352.328C337.841 351.943 338.282 351.39 338.584 350.668C338.885 349.946 339.036 349.081 339.036 348.075C339.036 347.093 338.888 346.226 338.593 345.474C338.297 344.722 337.859 344.134 337.279 343.707C336.699 343.281 335.982 343.068 335.13 343.068C334.242 343.068 333.503 343.293 332.911 343.743C332.325 344.193 331.884 344.796 331.588 345.554C331.298 346.312 331.153 347.152 331.153 348.075C331.153 349.022 331.301 349.86 331.597 350.588C331.899 351.31 332.343 351.878 332.928 352.292C333.52 352.701 334.254 352.905 335.13 352.905ZM347.026 346.797V355H344.931V336.818H347.026V343.494H347.204C347.524 342.79 348.003 342.231 348.642 341.816C349.287 341.396 350.146 341.186 351.217 341.186C352.146 341.186 352.96 341.373 353.658 341.745C354.357 342.112 354.898 342.678 355.283 343.441C355.673 344.199 355.869 345.163 355.869 346.335V355H353.774V346.477C353.774 345.394 353.492 344.557 352.93 343.965C352.374 343.367 351.602 343.068 350.613 343.068C349.927 343.068 349.311 343.213 348.767 343.503C348.228 343.793 347.802 344.216 347.488 344.773C347.18 345.329 347.026 346.004 347.026 346.797ZM363.715 355.32C362.85 355.32 362.066 355.157 361.362 354.831C360.658 354.5 360.098 354.023 359.684 353.402C359.27 352.775 359.063 352.017 359.063 351.129C359.063 350.348 359.216 349.715 359.524 349.229C359.832 348.738 360.243 348.353 360.758 348.075C361.273 347.797 361.841 347.59 362.463 347.454C363.09 347.312 363.72 347.199 364.354 347.116C365.182 347.01 365.854 346.93 366.369 346.877C366.89 346.818 367.269 346.72 367.505 346.584C367.748 346.448 367.869 346.211 367.869 345.874V345.803C367.869 344.927 367.63 344.246 367.15 343.761C366.677 343.275 365.958 343.033 364.993 343.033C363.993 343.033 363.209 343.252 362.64 343.69C362.072 344.128 361.673 344.595 361.442 345.092L359.453 344.382C359.808 343.554 360.282 342.908 360.874 342.447C361.471 341.979 362.122 341.654 362.827 341.47C363.537 341.281 364.235 341.186 364.922 341.186C365.36 341.186 365.863 341.239 366.431 341.346C367.005 341.446 367.559 341.657 368.091 341.976C368.63 342.296 369.077 342.778 369.432 343.423C369.787 344.068 369.965 344.933 369.965 346.016V355H367.869V353.153H367.763C367.621 353.449 367.384 353.766 367.053 354.103C366.721 354.441 366.28 354.728 365.73 354.964C365.179 355.201 364.508 355.32 363.715 355.32ZM364.034 353.438C364.863 353.438 365.561 353.275 366.129 352.949C366.703 352.624 367.136 352.203 367.426 351.689C367.721 351.174 367.869 350.632 367.869 350.064V348.146C367.781 348.253 367.585 348.35 367.283 348.439C366.988 348.522 366.644 348.596 366.254 348.661C365.869 348.72 365.493 348.774 365.126 348.821C364.765 348.862 364.472 348.898 364.247 348.928C363.703 348.999 363.194 349.114 362.72 349.274C362.253 349.428 361.874 349.661 361.584 349.975C361.3 350.283 361.158 350.703 361.158 351.236C361.158 351.964 361.427 352.514 361.966 352.887C362.51 353.254 363.2 353.438 364.034 353.438ZM373.789 355V341.364H375.813V343.494H375.99C376.275 342.766 376.733 342.201 377.366 341.799C378 341.39 378.76 341.186 379.648 341.186C380.548 341.186 381.296 341.39 381.894 341.799C382.498 342.201 382.968 342.766 383.306 343.494H383.448C383.797 342.79 384.321 342.231 385.019 341.816C385.718 341.396 386.555 341.186 387.532 341.186C388.751 341.186 389.748 341.568 390.523 342.331C391.299 343.089 391.686 344.27 391.686 345.874V355H389.591V345.874C389.591 344.867 389.316 344.148 388.766 343.716C388.215 343.284 387.567 343.068 386.821 343.068C385.863 343.068 385.12 343.358 384.593 343.938C384.066 344.512 383.803 345.24 383.803 346.122V355H381.672V345.661C381.672 344.885 381.421 344.261 380.918 343.787C380.415 343.308 379.766 343.068 378.973 343.068C378.429 343.068 377.92 343.213 377.446 343.503C376.979 343.793 376.6 344.196 376.31 344.711C376.026 345.22 375.884 345.808 375.884 346.477V355H373.789Z" fill="black"/>
<circle cx="380.238" cy="496.943" r="9.01136" fill="#FF8F87" stroke="black"/>
<path d="M304.671 513.273H309.412L314.419 525.489H314.632L319.639 513.273H324.38V531.455H320.651V519.62H320.5L315.795 531.366H313.256L308.551 519.576H308.4V531.455H304.671V513.273ZM333.637 531.721C332.258 531.721 331.066 531.428 330.059 530.842C329.059 530.25 328.287 529.427 327.742 528.374C327.198 527.315 326.926 526.086 326.926 524.69C326.926 523.281 327.198 522.05 327.742 520.996C328.287 519.937 329.059 519.114 330.059 518.528C331.066 517.937 332.258 517.641 333.637 517.641C335.016 517.641 336.206 517.937 337.206 518.528C338.212 519.114 338.988 519.937 339.532 520.996C340.077 522.05 340.349 523.281 340.349 524.69C340.349 526.086 340.077 527.315 339.532 528.374C338.988 529.427 338.212 530.25 337.206 530.842C336.206 531.428 335.016 531.721 333.637 531.721ZM333.655 528.791C334.282 528.791 334.806 528.614 335.226 528.259C335.647 527.898 335.963 527.406 336.176 526.785C336.395 526.163 336.505 525.456 336.505 524.663C336.505 523.87 336.395 523.163 336.176 522.541C335.963 521.92 335.647 521.429 335.226 521.068C334.806 520.706 334.282 520.526 333.655 520.526C333.022 520.526 332.489 520.706 332.057 521.068C331.631 521.429 331.308 521.92 331.089 522.541C330.876 523.163 330.77 523.87 330.77 524.663C330.77 525.456 330.876 526.163 331.089 526.785C331.308 527.406 331.631 527.898 332.057 528.259C332.489 528.614 333.022 528.791 333.655 528.791ZM346.59 523.571V531.455H342.808V517.818H346.412V520.224H346.572C346.874 519.431 347.38 518.804 348.09 518.342C348.801 517.874 349.662 517.641 350.674 517.641C351.621 517.641 352.446 517.848 353.151 518.262C353.855 518.676 354.403 519.268 354.793 520.038C355.184 520.801 355.379 521.713 355.379 522.772V531.455H351.597V523.447C351.603 522.612 351.39 521.961 350.958 521.494C350.526 521.02 349.931 520.783 349.173 520.783C348.664 520.783 348.215 520.893 347.824 521.112C347.439 521.331 347.137 521.65 346.919 522.071C346.705 522.485 346.596 522.985 346.59 523.571ZM365.613 517.818V520.659H357.401V517.818H365.613ZM359.265 514.551H363.047V527.264C363.047 527.613 363.101 527.886 363.207 528.081C363.314 528.27 363.462 528.404 363.651 528.481C363.846 528.557 364.071 528.596 364.326 528.596C364.503 528.596 364.681 528.581 364.858 528.552C365.036 528.516 365.172 528.489 365.267 528.472L365.862 531.286C365.672 531.345 365.406 531.413 365.063 531.49C364.719 531.573 364.302 531.623 363.811 531.641C362.899 531.677 362.1 531.555 361.414 531.277C360.733 530.999 360.203 530.567 359.825 529.981C359.446 529.395 359.259 528.655 359.265 527.761V514.551ZM374.074 536.852C372.848 536.852 371.798 536.684 370.922 536.346C370.052 536.015 369.359 535.562 368.845 534.988C368.33 534.414 367.995 533.769 367.841 533.053L371.339 532.582C371.446 532.854 371.614 533.109 371.845 533.346C372.076 533.582 372.381 533.772 372.76 533.914C373.144 534.062 373.612 534.136 374.162 534.136C374.985 534.136 375.663 533.934 376.195 533.532C376.734 533.135 377.003 532.47 377.003 531.534V529.04H376.843C376.678 529.419 376.429 529.777 376.098 530.114C375.766 530.451 375.34 530.727 374.819 530.94C374.299 531.153 373.677 531.259 372.955 531.259C371.931 531.259 370.999 531.023 370.158 530.549C369.324 530.07 368.658 529.339 368.161 528.356C367.67 527.368 367.424 526.119 367.424 524.61C367.424 523.065 367.676 521.775 368.179 520.739C368.682 519.703 369.351 518.928 370.185 518.413C371.026 517.898 371.946 517.641 372.946 517.641C373.71 517.641 374.349 517.771 374.864 518.031C375.379 518.286 375.793 518.605 376.107 518.99C376.426 519.369 376.672 519.742 376.843 520.109H376.986V517.818H380.741V531.588C380.741 532.748 380.457 533.718 379.889 534.5C379.32 535.281 378.533 535.867 377.527 536.258C376.527 536.654 375.376 536.852 374.074 536.852ZM374.153 528.418C374.763 528.418 375.278 528.267 375.698 527.966C376.124 527.658 376.45 527.22 376.675 526.652C376.906 526.078 377.021 525.391 377.021 524.592C377.021 523.793 376.909 523.101 376.684 522.515C376.459 521.923 376.133 521.464 375.707 521.139C375.281 520.813 374.763 520.65 374.153 520.65C373.532 520.65 373.008 520.819 372.582 521.156C372.156 521.488 371.833 521.949 371.614 522.541C371.395 523.133 371.286 523.817 371.286 524.592C371.286 525.379 371.395 526.06 371.614 526.634C371.839 527.202 372.162 527.643 372.582 527.957C373.008 528.264 373.532 528.418 374.153 528.418ZM389.912 531.721C388.533 531.721 387.34 531.428 386.334 530.842C385.334 530.25 384.561 529.427 384.017 528.374C383.472 527.315 383.2 526.086 383.2 524.69C383.2 523.281 383.472 522.05 384.017 520.996C384.561 519.937 385.334 519.114 386.334 518.528C387.34 517.937 388.533 517.641 389.912 517.641C391.291 517.641 392.48 517.937 393.481 518.528C394.487 519.114 395.262 519.937 395.807 520.996C396.351 522.05 396.623 523.281 396.623 524.69C396.623 526.086 396.351 527.315 395.807 528.374C395.262 529.427 394.487 530.25 393.481 530.842C392.48 531.428 391.291 531.721 389.912 531.721ZM389.929 528.791C390.557 528.791 391.081 528.614 391.501 528.259C391.921 527.898 392.238 527.406 392.451 526.785C392.67 526.163 392.779 525.456 392.779 524.663C392.779 523.87 392.67 523.163 392.451 522.541C392.238 521.92 391.921 521.429 391.501 521.068C391.081 520.706 390.557 520.526 389.929 520.526C389.296 520.526 388.763 520.706 388.331 521.068C387.905 521.429 387.583 521.92 387.364 522.541C387.151 523.163 387.044 523.87 387.044 524.663C387.044 525.456 387.151 526.163 387.364 526.785C387.583 527.406 387.905 527.898 388.331 528.259C388.763 528.614 389.296 528.791 389.929 528.791ZM399.082 531.455V517.818H402.687V520.224H402.847C403.131 519.425 403.604 518.795 404.267 518.333C404.93 517.871 405.723 517.641 406.646 517.641C407.582 517.641 408.378 517.874 409.035 518.342C409.691 518.804 410.129 519.431 410.348 520.224H410.491C410.769 519.443 411.272 518.818 412 518.351C412.734 517.877 413.601 517.641 414.601 517.641C415.873 517.641 416.906 518.046 417.699 518.857C418.498 519.662 418.898 520.804 418.898 522.284V531.455H415.125V523.03C415.125 522.272 414.924 521.704 414.521 521.325C414.119 520.946 413.616 520.757 413.012 520.757C412.325 520.757 411.79 520.976 411.405 521.414C411.02 521.846 410.828 522.417 410.828 523.127V531.455H407.161V522.95C407.161 522.281 406.969 521.748 406.584 521.352C406.205 520.955 405.705 520.757 405.084 520.757C404.664 520.757 404.285 520.863 403.948 521.076C403.616 521.284 403.353 521.577 403.157 521.955C402.962 522.328 402.864 522.766 402.864 523.269V531.455H399.082ZM428.1 531.721C426.697 531.721 425.49 531.437 424.478 530.869C423.471 530.295 422.696 529.484 422.152 528.436C421.607 527.383 421.335 526.137 421.335 524.699C421.335 523.296 421.607 522.065 422.152 521.005C422.696 519.946 423.463 519.12 424.451 518.528C425.445 517.937 426.611 517.641 427.949 517.641C428.848 517.641 429.686 517.786 430.461 518.076C431.242 518.36 431.923 518.789 432.503 519.363C433.089 519.937 433.545 520.659 433.87 521.529C434.196 522.393 434.359 523.405 434.359 524.565V525.604H422.844V523.26H430.799C430.799 522.716 430.68 522.233 430.443 521.813C430.207 521.393 429.878 521.065 429.458 520.828C429.044 520.585 428.561 520.464 428.011 520.464C427.437 520.464 426.928 520.597 426.484 520.863C426.046 521.124 425.703 521.476 425.454 521.92C425.206 522.358 425.078 522.846 425.072 523.385V525.613C425.072 526.288 425.197 526.871 425.445 527.362C425.7 527.853 426.058 528.232 426.519 528.498C426.981 528.765 427.529 528.898 428.162 528.898C428.582 528.898 428.967 528.839 429.316 528.72C429.665 528.602 429.964 528.424 430.213 528.188C430.461 527.951 430.651 527.661 430.781 527.318L434.279 527.548C434.101 528.389 433.737 529.123 433.187 529.75C432.642 530.371 431.938 530.857 431.074 531.206C430.216 531.549 429.224 531.721 428.1 531.721ZM436.827 531.455V517.818H440.493V520.197H440.635C440.884 519.351 441.301 518.712 441.887 518.28C442.473 517.842 443.148 517.623 443.911 517.623C444.101 517.623 444.305 517.635 444.524 517.658C444.743 517.682 444.935 517.715 445.101 517.756V521.112C444.923 521.059 444.678 521.011 444.364 520.97C444.05 520.928 443.763 520.908 443.503 520.908C442.946 520.908 442.449 521.029 442.011 521.272C441.579 521.508 441.236 521.84 440.981 522.266C440.733 522.692 440.609 523.183 440.609 523.74V531.455H436.827ZM449.806 536.568C449.327 536.568 448.877 536.53 448.457 536.453C448.042 536.382 447.699 536.29 447.427 536.178L448.279 533.354C448.723 533.491 449.122 533.565 449.478 533.576C449.839 533.588 450.149 533.505 450.41 533.328C450.676 533.15 450.892 532.848 451.058 532.422L451.28 531.845L446.388 517.818H450.365L453.188 527.832H453.331L456.18 517.818H460.184L454.884 532.928C454.63 533.662 454.283 534.301 453.845 534.846C453.413 535.396 452.866 535.82 452.203 536.115C451.54 536.417 450.741 536.568 449.806 536.568Z" fill="black"/>
<circle cx="380.238" cy="496.943" r="9.01136" fill="#FF8F87" stroke="black"/>
<path d="M304.671 513.273H309.412L314.419 525.489H314.632L319.639 513.273H324.38V531.455H320.651V519.62H320.5L315.795 531.366H313.256L308.551 519.576H308.4V531.455H304.671V513.273ZM333.637 531.721C332.258 531.721 331.066 531.428 330.059 530.842C329.059 530.25 328.287 529.427 327.742 528.374C327.198 527.315 326.926 526.086 326.926 524.69C326.926 523.281 327.198 522.05 327.742 520.996C328.287 519.937 329.059 519.114 330.059 518.528C331.066 517.937 332.258 517.641 333.637 517.641C335.016 517.641 336.206 517.937 337.206 518.528C338.212 519.114 338.988 519.937 339.532 520.996C340.077 522.05 340.349 523.281 340.349 524.69C340.349 526.086 340.077 527.315 339.532 528.374C338.988 529.427 338.212 530.25 337.206 530.842C336.206 531.428 335.016 531.721 333.637 531.721ZM333.655 528.791C334.282 528.791 334.806 528.614 335.226 528.259C335.647 527.898 335.963 527.406 336.176 526.785C336.395 526.163 336.505 525.456 336.505 524.663C336.505 523.87 336.395 523.163 336.176 522.541C335.963 521.92 335.647 521.429 335.226 521.068C334.806 520.706 334.282 520.526 333.655 520.526C333.022 520.526 332.489 520.706 332.057 521.068C331.631 521.429 331.308 521.92 331.089 522.541C330.876 523.163 330.77 523.87 330.77 524.663C330.77 525.456 330.876 526.163 331.089 526.785C331.308 527.406 331.631 527.898 332.057 528.259C332.489 528.614 333.022 528.791 333.655 528.791ZM346.59 523.571V531.455H342.808V517.818H346.412V520.224H346.572C346.874 519.431 347.38 518.804 348.09 518.342C348.801 517.874 349.662 517.641 350.674 517.641C351.621 517.641 352.446 517.848 353.151 518.262C353.855 518.676 354.403 519.268 354.793 520.038C355.184 520.801 355.379 521.713 355.379 522.772V531.455H351.597V523.447C351.603 522.612 351.39 521.961 350.958 521.494C350.526 521.02 349.931 520.783 349.173 520.783C348.664 520.783 348.215 520.893 347.824 521.112C347.439 521.331 347.137 521.65 346.919 522.071C346.705 522.485 346.596 522.985 346.59 523.571ZM365.613 517.818V520.659H357.401V517.818H365.613ZM359.265 514.551H363.047V527.264C363.047 527.613 363.101 527.886 363.207 528.081C363.314 528.27 363.462 528.404 363.651 528.481C363.846 528.557 364.071 528.596 364.326 528.596C364.503 528.596 364.681 528.581 364.858 528.552C365.036 528.516 365.172 528.489 365.267 528.472L365.862 531.286C365.672 531.345 365.406 531.413 365.063 531.49C364.719 531.573 364.302 531.623 363.811 531.641C362.899 531.677 362.1 531.555 361.414 531.277C360.733 530.999 360.203 530.567 359.825 529.981C359.446 529.395 359.259 528.655 359.265 527.761V514.551ZM374.074 536.852C372.848 536.852 371.798 536.684 370.922 536.346C370.052 536.015 369.359 535.562 368.845 534.988C368.33 534.414 367.995 533.769 367.841 533.053L371.339 532.582C371.446 532.854 371.614 533.109 371.845 533.346C372.076 533.582 372.381 533.772 372.76 533.914C373.144 534.062 373.612 534.136 374.162 534.136C374.985 534.136 375.663 533.934 376.195 533.532C376.734 533.135 377.003 532.47 377.003 531.534V529.04H376.843C376.678 529.419 376.429 529.777 376.098 530.114C375.766 530.451 375.34 530.727 374.819 530.94C374.299 531.153 373.677 531.259 372.955 531.259C371.931 531.259 370.999 531.023 370.158 530.549C369.324 530.07 368.658 529.339 368.161 528.356C367.67 527.368 367.424 526.119 367.424 524.61C367.424 523.065 367.676 521.775 368.179 520.739C368.682 519.703 369.351 518.928 370.185 518.413C371.026 517.898 371.946 517.641 372.946 517.641C373.71 517.641 374.349 517.771 374.864 518.031C375.379 518.286 375.793 518.605 376.107 518.99C376.426 519.369 376.672 519.742 376.843 520.109H376.986V517.818H380.741V531.588C380.741 532.748 380.457 533.718 379.889 534.5C379.32 535.281 378.533 535.867 377.527 536.258C376.527 536.654 375.376 536.852 374.074 536.852ZM374.153 528.418C374.763 528.418 375.278 528.267 375.698 527.966C376.124 527.658 376.45 527.22 376.675 526.652C376.906 526.078 377.021 525.391 377.021 524.592C377.021 523.793 376.909 523.101 376.684 522.515C376.459 521.923 376.133 521.464 375.707 521.139C375.281 520.813 374.763 520.65 374.153 520.65C373.532 520.65 373.008 520.819 372.582 521.156C372.156 521.488 371.833 521.949 371.614 522.541C371.395 523.133 371.286 523.817 371.286 524.592C371.286 525.379 371.395 526.06 371.614 526.634C371.839 527.202 372.162 527.643 372.582 527.957C373.008 528.264 373.532 528.418 374.153 528.418ZM389.912 531.721C388.533 531.721 387.34 531.428 386.334 530.842C385.334 530.25 384.561 529.427 384.017 528.374C383.472 527.315 383.2 526.086 383.2 524.69C383.2 523.281 383.472 522.05 384.017 520.996C384.561 519.937 385.334 519.114 386.334 518.528C387.34 517.937 388.533 517.641 389.912 517.641C391.291 517.641 392.48 517.937 393.481 518.528C394.487 519.114 395.262 519.937 395.807 520.996C396.351 522.05 396.623 523.281 396.623 524.69C396.623 526.086 396.351 527.315 395.807 528.374C395.262 529.427 394.487 530.25 393.481 530.842C392.48 531.428 391.291 531.721 389.912 531.721ZM389.929 528.791C390.557 528.791 391.081 528.614 391.501 528.259C391.921 527.898 392.238 527.406 392.451 526.785C392.67 526.163 392.779 525.456 392.779 524.663C392.779 523.87 392.67 523.163 392.451 522.541C392.238 521.92 391.921 521.429 391.501 521.068C391.081 520.706 390.557 520.526 389.929 520.526C389.296 520.526 388.763 520.706 388.331 521.068C387.905 521.429 387.583 521.92 387.364 522.541C387.151 523.163 387.044 523.87 387.044 524.663C387.044 525.456 387.151 526.163 387.364 526.785C387.583 527.406 387.905 527.898 388.331 528.259C388.763 528.614 389.296 528.791 389.929 528.791ZM399.082 531.455V517.818H402.687V520.224H402.847C403.131 519.425 403.604 518.795 404.267 518.333C404.93 517.871 405.723 517.641 406.646 517.641C407.582 517.641 408.378 517.874 409.035 518.342C409.691 518.804 410.129 519.431 410.348 520.224H410.491C410.769 519.443 411.272 518.818 412 518.351C412.734 517.877 413.601 517.641 414.601 517.641C415.873 517.641 416.906 518.046 417.699 518.857C418.498 519.662 418.898 520.804 418.898 522.284V531.455H415.125V523.03C415.125 522.272 414.924 521.704 414.521 521.325C414.119 520.946 413.616 520.757 413.012 520.757C412.325 520.757 411.79 520.976 411.405 521.414C411.02 521.846 410.828 522.417 410.828 523.127V531.455H407.161V522.95C407.161 522.281 406.969 521.748 406.584 521.352C406.205 520.955 405.705 520.757 405.084 520.757C404.664 520.757 404.285 520.863 403.948 521.076C403.616 521.284 403.353 521.577 403.157 521.955C402.962 522.328 402.864 522.766 402.864 523.269V531.455H399.082ZM428.1 531.721C426.697 531.721 425.49 531.437 424.478 530.869C423.471 530.295 422.696 529.484 422.152 528.436C421.607 527.383 421.335 526.137 421.335 524.699C421.335 523.296 421.607 522.065 422.152 521.005C422.696 519.946 423.463 519.12 424.451 518.528C425.445 517.937 426.611 517.641 427.949 517.641C428.848 517.641 429.686 517.786 430.461 518.076C431.242 518.36 431.923 518.789 432.503 519.363C433.089 519.937 433.545 520.659 433.87 521.529C434.196 522.393 434.359 523.405 434.359 524.565V525.604H422.844V523.26H430.799C430.799 522.716 430.68 522.233 430.443 521.813C430.207 521.393 429.878 521.065 429.458 520.828C429.044 520.585 428.561 520.464 428.011 520.464C427.437 520.464 426.928 520.597 426.484 520.863C426.046 521.124 425.703 521.476 425.454 521.92C425.206 522.358 425.078 522.846 425.072 523.385V525.613C425.072 526.288 425.197 526.871 425.445 527.362C425.7 527.853 426.058 528.232 426.519 528.498C426.981 528.765 427.529 528.898 428.162 528.898C428.582 528.898 428.967 528.839 429.316 528.72C429.665 528.602 429.964 528.424 430.213 528.188C430.461 527.951 430.651 527.661 430.781 527.318L434.279 527.548C434.101 528.389 433.737 529.123 433.187 529.75C432.642 530.371 431.938 530.857 431.074 531.206C430.216 531.549 429.224 531.721 428.1 531.721ZM436.827 531.455V517.818H440.493V520.197H440.635C440.884 519.351 441.301 518.712 441.887 518.28C442.473 517.842 443.148 517.623 443.911 517.623C444.101 517.623 444.305 517.635 444.524 517.658C444.743 517.682 444.935 517.715 445.101 517.756V521.112C444.923 521.059 444.678 521.011 444.364 520.97C444.05 520.928 443.763 520.908 443.503 520.908C442.946 520.908 442.449 521.029 442.011 521.272C441.579 521.508 441.236 521.84 440.981 522.266C440.733 522.692 440.609 523.183 440.609 523.74V531.455H436.827ZM449.806 536.568C449.327 536.568 448.877 536.53 448.457 536.453C448.042 536.382 447.699 536.29 447.427 536.178L448.279 533.354C448.723 533.491 449.122 533.565 449.478 533.576C449.839 533.588 450.149 533.505 450.41 533.328C450.676 533.15 450.892 532.848 451.058 532.422L451.28 531.845L446.388 517.818H450.365L453.188 527.832H453.331L456.18 517.818H460.184L454.884 532.928C454.63 533.662 454.283 534.301 453.845 534.846C453.413 535.396 452.866 535.82 452.203 536.115C451.54 536.417 450.741 536.568 449.806 536.568Z" fill="black"/>
<path d="M395.722 752V734.545H406.903V737.196H398.884V741.935H406.136V744.585H398.884V752H395.722ZM409.784 752V734.545H412.946V749.349H420.634V752H409.784Z" fill="#FFE587"/>
<path d="M556.415 359.119C556.273 358.659 556.077 358.247 555.827 357.884C555.582 357.514 555.287 357.199 554.94 356.938C554.599 356.676 554.207 356.48 553.764 356.349C553.321 356.213 552.838 356.145 552.315 356.145C551.378 356.145 550.543 356.381 549.81 356.852C549.077 357.324 548.5 358.017 548.08 358.932C547.665 359.841 547.457 360.949 547.457 362.256C547.457 363.574 547.665 364.69 548.08 365.605C548.494 366.52 549.071 367.216 549.81 367.693C550.548 368.165 551.406 368.401 552.384 368.401C553.27 368.401 554.037 368.23 554.685 367.889C555.338 367.548 555.841 367.065 556.193 366.44C556.545 365.81 556.722 365.071 556.722 364.224L557.438 364.335H552.699V361.864H559.781V363.96C559.781 365.455 559.463 366.747 558.827 367.838C558.19 368.929 557.315 369.77 556.202 370.361C555.088 370.946 553.81 371.239 552.366 371.239C550.759 371.239 549.347 370.878 548.131 370.156C546.92 369.429 545.974 368.398 545.293 367.062C544.616 365.722 544.278 364.131 544.278 362.29C544.278 360.881 544.477 359.622 544.875 358.514C545.278 357.406 545.841 356.466 546.562 355.693C547.284 354.915 548.131 354.324 549.102 353.92C550.074 353.511 551.131 353.307 552.273 353.307C553.239 353.307 554.139 353.449 554.974 353.733C555.81 354.011 556.551 354.409 557.199 354.926C557.852 355.443 558.389 356.057 558.81 356.767C559.23 357.477 559.506 358.261 559.636 359.119H556.415ZM564.541 371H561.166L567.311 353.545H571.214L577.368 371H573.993L569.331 357.125H569.195L564.541 371ZM564.652 364.156H573.857V366.696H564.652V364.156Z" fill="#FFE587"/>
<circle cx="344.307" cy="124.943" r="9.01136" fill="#FFE587" stroke="black"/>
<circle cx="300.511" cy="141.511" r="9.01136" fill="#FFE587" stroke="black"/>
<path d="M348.202 159V140.818H350.403V148.915H360.098V140.818H362.3V159H360.098V150.868H350.403V159H348.202ZM375.017 153.425V145.364H377.112V159H375.017V156.692H374.875C374.556 157.384 374.058 157.973 373.384 158.458C372.709 158.938 371.857 159.178 370.827 159.178C369.975 159.178 369.217 158.991 368.554 158.618C367.891 158.239 367.37 157.671 366.992 156.914C366.613 156.15 366.423 155.188 366.423 154.028V145.364H368.519V153.886C368.519 154.881 368.797 155.674 369.353 156.266C369.915 156.857 370.632 157.153 371.502 157.153C372.022 157.153 372.552 157.02 373.091 156.754C373.635 156.488 374.091 156.079 374.458 155.529C374.831 154.978 375.017 154.277 375.017 153.425ZM383.045 150.797V159H380.95V145.364H382.974V147.494H383.152C383.471 146.802 383.956 146.246 384.608 145.825C385.259 145.399 386.099 145.186 387.129 145.186C388.052 145.186 388.86 145.375 389.552 145.754C390.245 146.127 390.784 146.695 391.168 147.459C391.553 148.216 391.745 149.175 391.745 150.335V159H389.65V150.477C389.65 149.406 389.372 148.571 388.816 147.974C388.259 147.37 387.496 147.068 386.525 147.068C385.856 147.068 385.259 147.213 384.732 147.503C384.211 147.793 383.8 148.216 383.498 148.773C383.196 149.329 383.045 150.004 383.045 150.797ZM401.504 145.364V147.139H394.438V145.364H401.504ZM396.497 142.097H398.592V155.094C398.592 155.686 398.678 156.129 398.85 156.425C399.027 156.715 399.252 156.911 399.525 157.011C399.803 157.106 400.096 157.153 400.403 157.153C400.634 157.153 400.824 157.142 400.972 157.118C401.12 157.088 401.238 157.065 401.327 157.047L401.753 158.929C401.611 158.982 401.413 159.036 401.158 159.089C400.904 159.148 400.581 159.178 400.19 159.178C399.598 159.178 399.018 159.05 398.45 158.796C397.888 158.541 397.42 158.154 397.048 157.633C396.681 157.112 396.497 156.455 396.497 155.662V142.097ZM414.071 148.418L412.189 148.95C412.07 148.637 411.896 148.332 411.665 148.036C411.44 147.734 411.132 147.485 410.742 147.29C410.351 147.095 409.851 146.997 409.241 146.997C408.407 146.997 407.711 147.19 407.155 147.574C406.605 147.953 406.329 148.435 406.329 149.021C406.329 149.542 406.519 149.953 406.898 150.255C407.276 150.557 407.868 150.809 408.673 151.01L410.697 151.507C411.916 151.803 412.825 152.256 413.423 152.865C414.021 153.469 414.319 154.247 414.319 155.2C414.319 155.982 414.095 156.68 413.645 157.295C413.201 157.911 412.579 158.396 411.78 158.751C410.981 159.107 410.052 159.284 408.993 159.284C407.602 159.284 406.451 158.982 405.539 158.379C404.628 157.775 404.051 156.893 403.808 155.733L405.797 155.236C405.986 155.97 406.344 156.52 406.871 156.887C407.404 157.254 408.099 157.438 408.957 157.438C409.934 157.438 410.709 157.23 411.283 156.816C411.863 156.396 412.153 155.893 412.153 155.307C412.153 154.833 411.988 154.437 411.656 154.117C411.325 153.792 410.816 153.549 410.129 153.389L407.856 152.857C406.608 152.561 405.69 152.102 405.104 151.48C404.524 150.853 404.234 150.069 404.234 149.128C404.234 148.358 404.45 147.678 404.882 147.086C405.32 146.494 405.915 146.029 406.667 145.692C407.424 145.355 408.282 145.186 409.241 145.186C410.591 145.186 411.65 145.482 412.42 146.074C413.195 146.666 413.745 147.447 414.071 148.418ZM428.624 145.364L423.581 159H421.451L416.408 145.364H418.681L422.445 156.23H422.587L426.351 145.364H428.624ZM431.389 159V145.364H433.484V159H431.389ZM432.455 143.091C432.046 143.091 431.694 142.952 431.398 142.674C431.108 142.395 430.963 142.061 430.963 141.67C430.963 141.28 431.108 140.945 431.398 140.667C431.694 140.389 432.046 140.25 432.455 140.25C432.863 140.25 433.212 140.389 433.502 140.667C433.798 140.945 433.946 141.28 433.946 141.67C433.946 142.061 433.798 142.395 433.502 142.674C433.212 142.952 432.863 143.091 432.455 143.091ZM439.417 140.818V159H437.322V140.818H439.417ZM445.35 140.818V159H443.255V140.818H445.35ZM454.904 159.284C453.591 159.284 452.457 158.994 451.504 158.414C450.557 157.828 449.826 157.011 449.311 155.964C448.802 154.91 448.548 153.685 448.548 152.288C448.548 150.892 448.802 149.661 449.311 148.595C449.826 147.524 450.542 146.689 451.46 146.092C452.383 145.488 453.46 145.186 454.691 145.186C455.402 145.186 456.103 145.304 456.795 145.541C457.488 145.778 458.118 146.163 458.686 146.695C459.255 147.222 459.707 147.92 460.045 148.79C460.382 149.661 460.551 150.732 460.551 152.004V152.892H450.039V151.081H458.42C458.42 150.312 458.266 149.625 457.958 149.021C457.657 148.418 457.225 147.941 456.662 147.592C456.106 147.243 455.449 147.068 454.691 147.068C453.857 147.068 453.135 147.275 452.525 147.69C451.922 148.098 451.457 148.631 451.131 149.288C450.806 149.945 450.643 150.649 450.643 151.401V152.608C450.643 153.638 450.821 154.511 451.176 155.227C451.537 155.937 452.037 156.479 452.676 156.852C453.315 157.219 454.058 157.402 454.904 157.402C455.455 157.402 455.952 157.325 456.396 157.171C456.846 157.011 457.233 156.775 457.559 156.461C457.884 156.141 458.136 155.745 458.314 155.271L460.338 155.839C460.125 156.526 459.767 157.13 459.263 157.651C458.76 158.165 458.139 158.568 457.399 158.858C456.659 159.142 455.828 159.284 454.904 159.284Z" fill="black"/>
<path d="M206.812 175H201.202V156.818H207.061C208.825 156.818 210.334 157.182 211.589 157.91C212.844 158.632 213.805 159.671 214.474 161.026C215.143 162.376 215.477 163.991 215.477 165.874C215.477 167.768 215.14 169.398 214.465 170.765C213.79 172.127 212.808 173.174 211.518 173.908C210.228 174.636 208.659 175 206.812 175ZM203.403 173.047H206.67C208.174 173.047 209.42 172.757 210.408 172.177C211.396 171.597 212.133 170.771 212.619 169.7C213.104 168.629 213.347 167.353 213.347 165.874C213.347 164.406 213.107 163.142 212.627 162.083C212.148 161.017 211.432 160.201 210.479 159.632C209.526 159.058 208.339 158.771 206.919 158.771H203.403V173.047ZM224.604 175.284C223.29 175.284 222.156 174.994 221.203 174.414C220.257 173.828 219.526 173.011 219.011 171.964C218.502 170.91 218.247 169.685 218.247 168.288C218.247 166.892 218.502 165.661 219.011 164.595C219.526 163.524 220.242 162.689 221.159 162.092C222.082 161.488 223.16 161.186 224.391 161.186C225.101 161.186 225.802 161.304 226.495 161.541C227.187 161.778 227.817 162.163 228.386 162.695C228.954 163.222 229.407 163.92 229.744 164.79C230.081 165.661 230.25 166.732 230.25 168.004V168.892H219.739V167.081H228.119C228.119 166.312 227.965 165.625 227.658 165.021C227.356 164.418 226.924 163.941 226.362 163.592C225.805 163.243 225.148 163.068 224.391 163.068C223.556 163.068 222.834 163.275 222.224 163.69C221.621 164.098 221.156 164.631 220.831 165.288C220.505 165.945 220.342 166.649 220.342 167.401V168.608C220.342 169.638 220.52 170.511 220.875 171.227C221.236 171.937 221.736 172.479 222.375 172.852C223.015 173.219 223.757 173.402 224.604 173.402C225.154 173.402 225.651 173.325 226.095 173.171C226.545 173.011 226.933 172.775 227.258 172.461C227.584 172.141 227.835 171.745 228.013 171.271L230.037 171.839C229.824 172.526 229.466 173.13 228.963 173.651C228.46 174.165 227.838 174.568 227.098 174.858C226.359 175.142 225.527 175.284 224.604 175.284ZM238.977 175.284C237.699 175.284 236.598 174.982 235.674 174.379C234.751 173.775 234.041 172.943 233.544 171.884C233.047 170.824 232.798 169.614 232.798 168.253C232.798 166.868 233.052 165.646 233.561 164.586C234.076 163.521 234.792 162.689 235.71 162.092C236.633 161.488 237.71 161.186 238.941 161.186C239.9 161.186 240.764 161.364 241.534 161.719C242.303 162.074 242.933 162.571 243.425 163.21C243.916 163.849 244.221 164.595 244.339 165.447H242.244C242.084 164.826 241.729 164.276 241.179 163.796C240.634 163.311 239.9 163.068 238.977 163.068C238.16 163.068 237.444 163.281 236.828 163.707C236.219 164.128 235.742 164.722 235.399 165.492C235.062 166.255 234.893 167.152 234.893 168.182C234.893 169.235 235.059 170.153 235.39 170.934C235.728 171.715 236.201 172.322 236.811 172.754C237.426 173.186 238.148 173.402 238.977 173.402C239.521 173.402 240.016 173.307 240.46 173.118C240.903 172.929 241.279 172.656 241.587 172.301C241.895 171.946 242.114 171.52 242.244 171.023H244.339C244.221 171.828 243.928 172.553 243.46 173.198C242.999 173.837 242.386 174.346 241.623 174.725C240.865 175.098 239.983 175.284 238.977 175.284ZM251.415 175.32C250.551 175.32 249.766 175.157 249.062 174.831C248.358 174.5 247.799 174.023 247.384 173.402C246.97 172.775 246.763 172.017 246.763 171.129C246.763 170.348 246.917 169.715 247.224 169.229C247.532 168.738 247.944 168.353 248.458 168.075C248.973 167.797 249.542 167.59 250.163 167.454C250.79 167.312 251.421 167.199 252.054 167.116C252.883 167.01 253.554 166.93 254.069 166.877C254.59 166.818 254.969 166.72 255.206 166.584C255.448 166.448 255.57 166.211 255.57 165.874V165.803C255.57 164.927 255.33 164.246 254.85 163.761C254.377 163.275 253.658 163.033 252.693 163.033C251.693 163.033 250.909 163.252 250.341 163.69C249.772 164.128 249.373 164.595 249.142 165.092L247.153 164.382C247.509 163.554 247.982 162.908 248.574 162.447C249.172 161.979 249.823 161.654 250.527 161.47C251.237 161.281 251.936 161.186 252.622 161.186C253.06 161.186 253.563 161.239 254.131 161.346C254.705 161.446 255.259 161.657 255.792 161.976C256.33 162.296 256.777 162.778 257.132 163.423C257.487 164.068 257.665 164.933 257.665 166.016V175H255.57V173.153H255.463C255.321 173.449 255.084 173.766 254.753 174.103C254.421 174.441 253.98 174.728 253.43 174.964C252.88 175.201 252.208 175.32 251.415 175.32ZM251.734 173.438C252.563 173.438 253.261 173.275 253.83 172.949C254.404 172.624 254.836 172.203 255.126 171.689C255.422 171.174 255.57 170.632 255.57 170.064V168.146C255.481 168.253 255.286 168.35 254.984 168.439C254.688 168.522 254.344 168.596 253.954 168.661C253.569 168.72 253.193 168.774 252.826 168.821C252.465 168.862 252.172 168.898 251.947 168.928C251.403 168.999 250.894 169.114 250.42 169.274C249.953 169.428 249.574 169.661 249.284 169.975C249 170.283 248.858 170.703 248.858 171.236C248.858 171.964 249.127 172.514 249.666 172.887C250.21 173.254 250.9 173.438 251.734 173.438ZM267.419 161.364V163.139H260.353V161.364H267.419ZM262.412 158.097H264.507V171.094C264.507 171.686 264.593 172.129 264.765 172.425C264.942 172.715 265.167 172.911 265.44 173.011C265.718 173.106 266.011 173.153 266.318 173.153C266.549 173.153 266.739 173.142 266.887 173.118C267.035 173.088 267.153 173.065 267.242 173.047L267.668 174.929C267.526 174.982 267.328 175.036 267.073 175.089C266.819 175.148 266.496 175.178 266.105 175.178C265.514 175.178 264.934 175.05 264.365 174.796C263.803 174.541 263.335 174.154 262.963 173.633C262.596 173.112 262.412 172.455 262.412 171.662V158.097ZM279.165 169.425V161.364H281.26V175H279.165V172.692H279.023C278.703 173.384 278.206 173.973 277.531 174.458C276.856 174.938 276.004 175.178 274.974 175.178C274.122 175.178 273.364 174.991 272.702 174.618C272.039 174.239 271.518 173.671 271.139 172.914C270.76 172.15 270.571 171.188 270.571 170.028V161.364H272.666V169.886C272.666 170.881 272.944 171.674 273.501 172.266C274.063 172.857 274.779 173.153 275.649 173.153C276.17 173.153 276.7 173.02 277.238 172.754C277.783 172.488 278.238 172.079 278.605 171.529C278.978 170.978 279.165 170.277 279.165 169.425ZM285.097 175V161.364H287.121V163.423H287.263C287.512 162.749 287.962 162.201 288.613 161.781C289.264 161.361 289.998 161.151 290.815 161.151C290.969 161.151 291.161 161.154 291.392 161.159C291.623 161.165 291.797 161.174 291.915 161.186V163.317C291.844 163.299 291.682 163.272 291.427 163.237C291.179 163.195 290.915 163.175 290.637 163.175C289.974 163.175 289.382 163.314 288.862 163.592C288.347 163.864 287.938 164.243 287.636 164.728C287.34 165.208 287.192 165.755 287.192 166.371V175H285.097ZM299.701 175.284C298.387 175.284 297.254 174.994 296.301 174.414C295.354 173.828 294.623 173.011 294.108 171.964C293.599 170.91 293.345 169.685 293.345 168.288C293.345 166.892 293.599 165.661 294.108 164.595C294.623 163.524 295.339 162.689 296.257 162.092C297.18 161.488 298.257 161.186 299.488 161.186C300.199 161.186 300.9 161.304 301.592 161.541C302.285 161.778 302.915 162.163 303.483 162.695C304.051 163.222 304.504 163.92 304.842 164.79C305.179 165.661 305.348 166.732 305.348 168.004V168.892H294.836V167.081H303.217C303.217 166.312 303.063 165.625 302.755 165.021C302.453 164.418 302.021 163.941 301.459 163.592C300.903 163.243 300.246 163.068 299.488 163.068C298.654 163.068 297.932 163.275 297.322 163.69C296.718 164.098 296.254 164.631 295.928 165.288C295.603 165.945 295.44 166.649 295.44 167.401V168.608C295.44 169.638 295.618 170.511 295.973 171.227C296.334 171.937 296.834 172.479 297.473 172.852C298.112 173.219 298.855 173.402 299.701 173.402C300.252 173.402 300.749 173.325 301.193 173.171C301.643 173.011 302.03 172.775 302.356 172.461C302.681 172.141 302.933 171.745 303.11 171.271L305.135 171.839C304.922 172.526 304.563 173.13 304.06 173.651C303.557 174.165 302.936 174.568 302.196 174.858C301.456 175.142 300.625 175.284 299.701 175.284Z" fill="black"/>
<path d="M284.955 51.196V48.5455H298.881V51.196H293.486V66H290.349V51.196H284.955ZM315.909 48.5455V66H313.097L304.872 54.1108H304.727V66H301.565V48.5455H304.395L312.611 60.4432H312.764V48.5455H315.909Z" fill="#FFE587"/>
<path d="M60.7216 372.545H64.5909L69.7727 385.193H69.9773L75.1591 372.545H79.0284V390H75.9943V378.009H75.8324L71.0085 389.949H68.7415L63.9176 377.983H63.7557V390H60.7216V372.545ZM91.9574 377.344C91.8778 376.599 91.5426 376.02 90.9517 375.605C90.3665 375.19 89.6051 374.983 88.6676 374.983C88.0085 374.983 87.4432 375.082 86.9716 375.281C86.5 375.48 86.1392 375.75 85.8892 376.091C85.6392 376.432 85.5114 376.821 85.5057 377.259C85.5057 377.622 85.5881 377.937 85.7528 378.205C85.9233 378.472 86.1534 378.699 86.4432 378.886C86.733 379.068 87.054 379.222 87.4062 379.347C87.7585 379.472 88.1136 379.577 88.4716 379.662L90.108 380.071C90.767 380.224 91.4006 380.432 92.0085 380.693C92.6222 380.955 93.1705 381.284 93.6534 381.682C94.142 382.08 94.5284 382.56 94.8125 383.122C95.0966 383.685 95.2386 384.344 95.2386 385.099C95.2386 386.122 94.9773 387.023 94.4545 387.801C93.9318 388.574 93.1761 389.179 92.1875 389.616C91.2045 390.048 90.0142 390.264 88.6165 390.264C87.2585 390.264 86.0795 390.054 85.0795 389.634C84.0852 389.213 83.3068 388.599 82.7443 387.793C82.1875 386.986 81.8864 386.003 81.8409 384.844H84.9517C84.9972 385.452 85.1847 385.957 85.5142 386.361C85.8438 386.764 86.2727 387.065 86.8011 387.264C87.3352 387.463 87.9318 387.562 88.5909 387.562C89.2784 387.562 89.8807 387.46 90.3977 387.256C90.9205 387.045 91.3295 386.756 91.625 386.386C91.9205 386.011 92.071 385.574 92.0767 385.074C92.071 384.619 91.9375 384.244 91.6761 383.949C91.4148 383.648 91.0483 383.398 90.5767 383.199C90.1108 382.994 89.5653 382.812 88.9403 382.653L86.9545 382.142C85.517 381.773 84.3807 381.213 83.5455 380.463C82.7159 379.707 82.3011 378.705 82.3011 377.455C82.3011 376.426 82.5795 375.526 83.1364 374.753C83.6989 373.98 84.4631 373.381 85.429 372.955C86.3949 372.523 87.4886 372.307 88.7102 372.307C89.9489 372.307 91.0341 372.523 91.9659 372.955C92.9034 373.381 93.6392 373.974 94.1733 374.736C94.7074 375.491 94.983 376.361 95 377.344H91.9574Z" fill="#FFE587"/>
<path d="M136.855 859.099C136.736 858.716 136.573 858.373 136.365 858.07C136.161 857.762 135.915 857.499 135.626 857.281C135.342 857.063 135.015 856.9 134.646 856.791C134.277 856.678 133.874 856.621 133.439 856.621C132.657 856.621 131.961 856.817 131.35 857.21C130.74 857.603 130.259 858.181 129.909 858.943C129.563 859.701 129.39 860.624 129.39 861.713C129.39 862.812 129.563 863.742 129.909 864.504C130.254 865.267 130.735 865.847 131.35 866.244C131.966 866.637 132.681 866.834 133.495 866.834C134.234 866.834 134.873 866.692 135.413 866.408C135.958 866.124 136.377 865.721 136.67 865.2C136.964 864.675 137.11 864.059 137.11 863.354L137.707 863.446H133.758V861.386H139.66V863.134C139.66 864.379 139.395 865.456 138.865 866.365C138.334 867.274 137.605 867.975 136.677 868.467C135.749 868.955 134.684 869.199 133.481 869.199C132.141 869.199 130.965 868.898 129.951 868.297C128.943 867.691 128.154 866.831 127.586 865.719C127.023 864.601 126.741 863.276 126.741 861.741C126.741 860.567 126.907 859.518 127.238 858.595C127.574 857.672 128.043 856.888 128.645 856.244C129.246 855.596 129.951 855.103 130.761 854.767C131.571 854.426 132.451 854.256 133.403 854.256C134.208 854.256 134.958 854.374 135.654 854.611C136.35 854.843 136.968 855.174 137.508 855.605C138.053 856.036 138.5 856.547 138.85 857.139C139.201 857.731 139.431 858.384 139.539 859.099H136.855ZM149.048 864.412V858.091H151.619V869H149.126V867.061H149.012C148.766 867.672 148.361 868.171 147.798 868.56C147.239 868.948 146.55 869.142 145.731 869.142C145.016 869.142 144.384 868.983 143.835 868.666C143.29 868.344 142.864 867.878 142.556 867.267C142.248 866.652 142.094 865.908 142.094 865.037V858.091H144.665V864.639C144.665 865.33 144.855 865.88 145.234 866.287C145.612 866.694 146.11 866.898 146.725 866.898C147.104 866.898 147.471 866.805 147.826 866.621C148.181 866.436 148.472 866.161 148.7 865.797C148.932 865.428 149.048 864.966 149.048 864.412ZM156.833 854.455V869H154.262V854.455H156.833ZM165.003 858.091V860.08H158.554V858.091H165.003ZM160.166 869V857.061C160.166 856.327 160.318 855.716 160.621 855.229C160.929 854.741 161.34 854.376 161.857 854.135C162.373 853.893 162.946 853.773 163.575 853.773C164.02 853.773 164.416 853.808 164.761 853.879C165.107 853.95 165.363 854.014 165.528 854.071L165.017 856.06C164.908 856.027 164.771 855.993 164.605 855.96C164.439 855.922 164.255 855.903 164.051 855.903C163.573 855.903 163.234 856.019 163.036 856.251C162.841 856.479 162.744 856.805 162.744 857.232V869H160.166ZM176.736 869.213C175.67 869.213 174.747 868.979 173.966 868.51C173.185 868.041 172.579 867.385 172.148 866.543C171.722 865.7 171.509 864.715 171.509 863.588C171.509 862.461 171.722 861.474 172.148 860.626C172.579 859.779 173.185 859.121 173.966 858.652C174.747 858.183 175.67 857.949 176.736 857.949C177.801 857.949 178.724 858.183 179.506 858.652C180.287 859.121 180.891 859.779 181.317 860.626C181.748 861.474 181.963 862.461 181.963 863.588C181.963 864.715 181.748 865.7 181.317 866.543C180.891 867.385 180.287 868.041 179.506 868.51C178.724 868.979 177.801 869.213 176.736 869.213ZM176.75 867.153C177.328 867.153 177.811 866.995 178.199 866.678C178.587 866.356 178.876 865.925 179.065 865.385C179.259 864.845 179.357 864.244 179.357 863.581C179.357 862.913 179.259 862.31 179.065 861.77C178.876 861.225 178.587 860.792 178.199 860.47C177.811 860.148 177.328 859.987 176.75 859.987C176.158 859.987 175.666 860.148 175.273 860.47C174.884 860.792 174.593 861.225 174.399 861.77C174.21 862.31 174.115 862.913 174.115 863.581C174.115 864.244 174.21 864.845 174.399 865.385C174.593 865.925 174.884 866.356 175.273 866.678C175.666 866.995 176.158 867.153 176.75 867.153ZM189.671 858.091V860.08H183.222V858.091H189.671ZM184.834 869V857.061C184.834 856.327 184.986 855.716 185.289 855.229C185.596 854.741 186.008 854.376 186.525 854.135C187.041 853.893 187.614 853.773 188.243 853.773C188.688 853.773 189.084 853.808 189.429 853.879C189.775 853.95 190.031 854.014 190.196 854.071L189.685 856.06C189.576 856.027 189.439 855.993 189.273 855.96C189.107 855.922 188.923 855.903 188.719 855.903C188.241 855.903 187.902 856.019 187.703 856.251C187.509 856.479 187.412 856.805 187.412 857.232V869H184.834ZM77.9991 878.455H81.2235L85.5417 888.994H85.7122L90.0304 878.455H93.2548V893H90.7264V883.007H90.5914L86.5716 892.957H84.6824L80.6625 882.986H80.5275V893H77.9991V878.455ZM100.84 893.213C99.7463 893.213 98.8017 892.986 98.0062 892.531C97.2155 892.072 96.6071 891.423 96.1809 890.585C95.7548 889.742 95.5417 888.75 95.5417 887.609C95.5417 886.487 95.7548 885.502 96.1809 884.655C96.6118 883.803 97.2131 883.14 97.9849 882.666C98.7567 882.188 99.6634 881.949 100.705 881.949C101.377 881.949 102.012 882.058 102.608 882.276C103.21 882.489 103.74 882.82 104.199 883.27C104.663 883.72 105.028 884.293 105.293 884.989C105.558 885.68 105.691 886.504 105.691 887.46V888.249H96.7491V886.516H103.226C103.222 886.023 103.115 885.585 102.907 885.202C102.698 884.813 102.407 884.508 102.033 884.286C101.664 884.063 101.233 883.952 100.741 883.952C100.215 883.952 99.7534 884.08 99.3556 884.335C98.9579 884.586 98.6478 884.918 98.4252 885.33C98.2074 885.737 98.0962 886.184 98.0914 886.672V888.185C98.0914 888.819 98.2074 889.364 98.4395 889.818C98.6715 890.268 98.9958 890.614 99.4125 890.855C99.8291 891.092 100.317 891.21 100.876 891.21C101.25 891.21 101.588 891.158 101.891 891.054C102.194 890.945 102.457 890.786 102.68 890.578C102.902 890.37 103.07 890.112 103.184 889.804L105.584 890.074C105.433 890.708 105.144 891.262 104.718 891.736C104.296 892.205 103.757 892.569 103.099 892.83C102.44 893.085 101.688 893.213 100.84 893.213ZM109.734 882.091L111.936 886.118L114.173 882.091H116.893L113.605 887.545L116.95 893H114.244L111.936 889.072L109.649 893H106.921L110.245 887.545L107.007 882.091H109.734ZM118.882 893V882.091H121.453V893H118.882ZM120.174 880.543C119.767 880.543 119.417 880.408 119.123 880.138C118.829 879.863 118.683 879.534 118.683 879.151C118.683 878.762 118.829 878.433 119.123 878.163C119.417 877.889 119.767 877.751 120.174 877.751C120.586 877.751 120.936 877.889 121.225 878.163C121.519 878.433 121.666 878.762 121.666 879.151C121.666 879.534 121.519 879.863 121.225 880.138C120.936 880.408 120.586 880.543 120.174 880.543ZM128.855 893.213C127.766 893.213 126.831 892.974 126.05 892.496C125.273 892.018 124.674 891.357 124.253 890.514C123.836 889.667 123.628 888.691 123.628 887.588C123.628 886.48 123.841 885.502 124.267 884.655C124.693 883.803 125.294 883.14 126.071 882.666C126.852 882.188 127.775 881.949 128.841 881.949C129.726 881.949 130.51 882.112 131.192 882.439C131.878 882.761 132.425 883.218 132.832 883.81C133.239 884.397 133.471 885.083 133.528 885.869H131.071C130.971 885.344 130.735 884.906 130.361 884.555C129.991 884.2 129.497 884.023 128.876 884.023C128.351 884.023 127.889 884.165 127.491 884.449C127.094 884.728 126.783 885.131 126.561 885.656C126.343 886.182 126.234 886.812 126.234 887.545C126.234 888.289 126.343 888.928 126.561 889.463C126.779 889.993 127.084 890.403 127.477 890.692C127.875 890.976 128.341 891.118 128.876 891.118C129.255 891.118 129.594 891.047 129.892 890.905C130.195 890.758 130.448 890.547 130.652 890.273C130.855 889.998 130.995 889.664 131.071 889.271H133.528C133.467 890.043 133.239 890.727 132.846 891.324C132.453 891.916 131.918 892.38 131.241 892.716C130.564 893.047 129.769 893.213 128.855 893.213ZM140.398 893.213C139.333 893.213 138.409 892.979 137.628 892.51C136.847 892.041 136.241 891.385 135.81 890.543C135.384 889.7 135.171 888.715 135.171 887.588C135.171 886.461 135.384 885.474 135.81 884.626C136.241 883.779 136.847 883.121 137.628 882.652C138.409 882.183 139.333 881.949 140.398 881.949C141.463 881.949 142.387 882.183 143.168 882.652C143.949 883.121 144.553 883.779 144.979 884.626C145.41 885.474 145.625 886.461 145.625 887.588C145.625 888.715 145.41 889.7 144.979 890.543C144.553 891.385 143.949 892.041 143.168 892.51C142.387 892.979 141.463 893.213 140.398 893.213ZM140.412 891.153C140.99 891.153 141.473 890.995 141.861 890.678C142.249 890.356 142.538 889.925 142.727 889.385C142.922 888.845 143.019 888.244 143.019 887.581C143.019 886.913 142.922 886.31 142.727 885.77C142.538 885.225 142.249 884.792 141.861 884.47C141.473 884.148 140.99 883.987 140.412 883.987C139.82 883.987 139.328 884.148 138.935 884.47C138.547 884.792 138.255 885.225 138.061 885.77C137.872 886.31 137.777 886.913 137.777 887.581C137.777 888.244 137.872 888.845 138.061 889.385C138.255 889.925 138.547 890.356 138.935 890.678C139.328 890.995 139.82 891.153 140.412 891.153ZM158.706 877.773L154.018 895.188H151.767L156.454 877.773H158.706ZM167.289 893H164.476L169.597 878.455H172.85L177.978 893H175.165L171.28 881.438H171.167L167.289 893ZM167.381 887.297H175.052V889.413H167.381V887.297ZM179.78 893V882.091H182.237V883.945H182.365C182.593 883.32 182.969 882.832 183.494 882.482C184.02 882.126 184.647 881.949 185.377 881.949C186.115 881.949 186.738 882.129 187.244 882.489C187.756 882.844 188.116 883.329 188.324 883.945H188.438C188.679 883.339 189.086 882.856 189.659 882.496C190.237 882.131 190.921 881.949 191.712 881.949C192.716 881.949 193.535 882.266 194.169 882.901C194.804 883.535 195.121 884.461 195.121 885.678V893H192.543V886.075C192.543 885.398 192.363 884.903 192.003 884.591C191.643 884.274 191.203 884.115 190.682 884.115C190.062 884.115 189.576 884.309 189.226 884.697C188.88 885.081 188.708 885.58 188.708 886.196V893H186.186V885.969C186.186 885.405 186.016 884.955 185.675 884.619C185.339 884.283 184.898 884.115 184.354 884.115C183.985 884.115 183.648 884.21 183.345 884.399C183.042 884.584 182.801 884.847 182.621 885.188C182.441 885.524 182.351 885.917 182.351 886.366V893H179.78ZM202.559 893.213C201.465 893.213 200.52 892.986 199.725 892.531C198.934 892.072 198.326 891.423 197.9 890.585C197.474 889.742 197.26 888.75 197.26 887.609C197.26 886.487 197.474 885.502 197.9 884.655C198.331 883.803 198.932 883.14 199.704 882.666C200.475 882.188 201.382 881.949 202.424 881.949C203.096 881.949 203.731 882.058 204.327 882.276C204.929 882.489 205.459 882.82 205.918 883.27C206.382 883.72 206.747 884.293 207.012 884.989C207.277 885.68 207.41 886.504 207.41 887.46V888.249H198.468V886.516H204.945C204.94 886.023 204.834 885.585 204.626 885.202C204.417 884.813 204.126 884.508 203.752 884.286C203.383 884.063 202.952 883.952 202.459 883.952C201.934 883.952 201.472 884.08 201.074 884.335C200.677 884.586 200.367 884.918 200.144 885.33C199.926 885.737 199.815 886.184 199.81 886.672V888.185C199.81 888.819 199.926 889.364 200.158 889.818C200.39 890.268 200.715 890.614 201.131 890.855C201.548 891.092 202.036 891.21 202.594 891.21C202.968 891.21 203.307 891.158 203.61 891.054C203.913 890.945 204.176 890.786 204.398 890.578C204.621 890.37 204.789 890.112 204.903 889.804L207.303 890.074C207.152 890.708 206.863 891.262 206.437 891.736C206.015 892.205 205.475 892.569 204.817 892.83C204.159 893.085 203.406 893.213 202.559 893.213ZM209.585 893V882.091H212.078V883.909H212.191C212.39 883.279 212.731 882.794 213.214 882.453C213.702 882.107 214.258 881.935 214.883 881.935C215.025 881.935 215.184 881.942 215.359 881.956C215.539 881.965 215.688 881.982 215.806 882.006V884.371C215.697 884.333 215.525 884.3 215.288 884.271C215.056 884.238 214.831 884.222 214.613 884.222C214.144 884.222 213.723 884.323 213.349 884.527C212.98 884.726 212.688 885.003 212.475 885.358C212.262 885.713 212.156 886.123 212.156 886.587V893H209.585ZM217.514 893V882.091H220.085V893H217.514ZM218.807 880.543C218.4 880.543 218.049 880.408 217.756 880.138C217.462 879.863 217.316 879.534 217.316 879.151C217.316 878.762 217.462 878.433 217.756 878.163C218.049 877.889 218.4 877.751 218.807 877.751C219.219 877.751 219.569 877.889 219.858 878.163C220.152 878.433 220.298 878.762 220.298 879.151C220.298 879.534 220.152 879.863 219.858 880.138C219.569 880.408 219.219 880.543 218.807 880.543ZM227.488 893.213C226.399 893.213 225.464 892.974 224.682 892.496C223.906 892.018 223.307 891.357 222.885 890.514C222.469 889.667 222.26 888.691 222.26 887.588C222.26 886.48 222.474 885.502 222.9 884.655C223.326 883.803 223.927 883.14 224.704 882.666C225.485 882.188 226.408 881.949 227.474 881.949C228.359 881.949 229.143 882.112 229.824 882.439C230.511 882.761 231.058 883.218 231.465 883.81C231.872 884.397 232.104 885.083 232.161 885.869H229.704C229.604 885.344 229.367 884.906 228.993 884.555C228.624 884.2 228.129 884.023 227.509 884.023C226.983 884.023 226.522 884.165 226.124 884.449C225.726 884.728 225.416 885.131 225.194 885.656C224.976 886.182 224.867 886.812 224.867 887.545C224.867 888.289 224.976 888.928 225.194 889.463C225.412 889.993 225.717 890.403 226.11 890.692C226.508 890.976 226.974 891.118 227.509 891.118C227.888 891.118 228.226 891.047 228.525 890.905C228.828 890.758 229.081 890.547 229.285 890.273C229.488 889.998 229.628 889.664 229.704 889.271H232.161C232.099 890.043 231.872 890.727 231.479 891.324C231.086 891.916 230.551 892.38 229.874 892.716C229.197 893.047 228.402 893.213 227.488 893.213ZM237.411 893.22C236.72 893.22 236.097 893.097 235.544 892.851C234.994 892.6 234.559 892.231 234.237 891.743C233.919 891.255 233.761 890.654 233.761 889.939C233.761 889.323 233.874 888.814 234.102 888.412C234.329 888.009 234.639 887.688 235.032 887.446C235.425 887.205 235.868 887.022 236.36 886.899C236.857 886.771 237.371 886.679 237.901 886.622C238.541 886.556 239.059 886.497 239.457 886.445C239.855 886.388 240.143 886.303 240.323 886.189C240.508 886.071 240.6 885.888 240.6 885.642V885.599C240.6 885.064 240.442 884.65 240.124 884.357C239.807 884.063 239.35 883.916 238.754 883.916C238.124 883.916 237.624 884.054 237.255 884.328C236.891 884.603 236.644 884.927 236.517 885.301L234.116 884.96C234.305 884.297 234.618 883.743 235.053 883.298C235.489 882.848 236.022 882.512 236.651 882.29C237.281 882.062 237.977 881.949 238.74 881.949C239.265 881.949 239.788 882.01 240.309 882.134C240.83 882.257 241.306 882.46 241.737 882.744C242.168 883.024 242.513 883.405 242.774 883.888C243.039 884.371 243.171 884.974 243.171 885.699V893H240.7V891.501H240.615C240.458 891.804 240.238 892.089 239.954 892.354C239.675 892.614 239.322 892.825 238.896 892.986C238.474 893.142 237.98 893.22 237.411 893.22ZM238.079 891.331C238.595 891.331 239.043 891.229 239.421 891.026C239.8 890.817 240.091 890.543 240.295 890.202C240.503 889.861 240.607 889.489 240.607 889.087V887.801C240.527 887.867 240.39 887.929 240.195 887.986C240.006 888.043 239.793 888.092 239.556 888.135C239.32 888.178 239.085 888.215 238.853 888.249C238.621 888.282 238.42 888.31 238.249 888.334C237.866 888.386 237.523 888.471 237.22 888.589C236.917 888.708 236.677 888.874 236.502 889.087C236.327 889.295 236.24 889.565 236.24 889.896C236.24 890.37 236.412 890.727 236.758 890.969C237.104 891.21 237.544 891.331 238.079 891.331Z" fill="#00D9E4"/>
</svg>
