<svg width="388" height="289" viewBox="0 0 388 289" fill="none" xmlns="http://www.w3.org/2000/svg">
<rect x="0.5" y="0.5" width="387" height="288" rx="36" fill="#202637" stroke="#717171" stroke-dasharray="2 2"/>
<path d="M342.5 118L341.5 122L342.5 123L344 124L345.5 125L347 125.5L348 125L349 124L351 125.5L353 126L355 125.5L357 124.5L358.5 122.5L358 121L359 120V118.5L357 116.5L355.5 115.5L354 116L353 115L351 114L348.5 114.5L345 115.5L342.5 118Z" fill="#90DAEE" stroke="white"/>
<path d="M103 193.5V201L106.5 202.5L110.5 203.5L113.5 207H115.5L117.5 208L120.5 210V208L122 206H125.5L130.5 207L129 210L127.5 211.5V212.5L129 215V217.5L130.5 219L132 217.5V216.5L134.5 214L136 211.5L137 209L136 207V205L138.5 204L139 203.5H142L144 206L146 208L149 210H151L153 206C153.5 205.333 154.6 203.7 155 202.5C155.4 201.3 156.833 200.667 157.5 200.5L159.5 199.5L161.5 198.5V194H163.5L165.5 190C165.833 190.167 167 190.4 169 190C171 189.6 170.5 189.167 170 189L172 187C172 186.5 171.8 185.4 171 185C170.2 184.6 170.667 182.5 171 181.5L176 179.5L179 178C179.8 177.6 180.667 176.167 181 175.5C181.333 174.333 182 171.8 182 171V169L181 165.5L180 162.5L179 160.5L177 159L176 157L179.5 157.5L180 156V155L182.5 156L183.5 154.5L182 153H187V151L188.5 150.5L191.5 153.5V159V160.5H189.5L187.5 161.5L188.5 162.5H191.5L196 150.5L200 148V147L201.5 144.5H203.5L206 143V141L208.5 140H211V138L212.5 137L215 138L217.5 136L219 133L218.5 131.5L215 130L212.5 129L213.5 127C214.333 126.667 216 125.9 216 125.5C216 125.1 217.667 124.667 218.5 124.5L221 122.5V121L219 120.5L217.5 119H215L212.5 117L213.5 114L216 113L215 112H212H208.5L206 113L202.5 111L200 109H196L194.5 108.5V106.5L197.5 106L202.5 106.5H209.5L210.5 104.5L215 103.5L221 102.5L225.5 105.5L230.5 106L232 109L229.5 113L232 115.5L231.5 118V120L232 123L233 125.5L231.5 127L233 128.5L235 127L236.5 126L241.5 127L244 125.5H246H248L252 123.5H257L258 122C258.5 121.167 259.5 118.9 259.5 116.5C259.5 114.1 260.833 115.5 261.5 116.5H264.5L266.5 117.5L269 116.5L271 115.5L272 113L272.5 111L275.5 110V108.5L276.5 107L279.5 106.5L283.5 105.5L285.5 102.5L288 103.5L290 105.5L290.5 104.5H293.5L292.5 106L294 107L296 108.5L297 112.5L293.5 115.5L298.5 120L300.5 119.5L305 115.5H310C310.667 115.167 312 114.3 312 113.5C312 112.7 312.667 112.5 313 112.5L315.5 113L315 111L319 108.5H319.5L322 110H325C325.5 109.833 326.5 109.3 326.5 108.5C326.5 107.7 327.5 106.833 328 106.5H330L334.5 105.5L339 104.5V102L340 98.5L342.5 92.5L341 91C340.333 90.5 339.2 89.5 340 89.5C341 89.5 339 86 339 85C339 84.2 338.333 82.6667 338 82L340 79.5L343 77.5H341L338 79L336 80.5L334 81H329L325 79L323.5 81L321 84L319 85L317 84V85.5L315.5 88L315 90L317 93.5L315 94.5L312.5 96.5L310 95.5V91L307.5 92C306 91.1667 302.8 89.3 302 88.5C301.2 87.7 301 88.8333 301 89.5L299 88.5L296 87.5L295.5 92H294.5C293.833 91.1667 292.4 89.3 292 88.5C291.6 87.7 290.833 88.1667 290.5 88.5H287L285.5 85.5L283.5 87.5H280.5L278.5 91H275.5C274.5 91 272 92 271 91C270 90 269 91 268 90C267.2 89.2 267.333 88.6667 267.5 88.5L269 85.5L272 85L273.5 84L272.5 82H270L269 84H267L265.5 82L264.5 80.5H263.5L261.5 83H259.5L258 79L257 79.5V82L258 85L255.5 86.5L253.5 85L255 83L253 82L252 83L253 86L252.5 87.5L251 89.5H248L246 92H244L243 89.5L244 85.5L245.5 82L244 80.5L241.5 84H239.5L238 85.5L236 83V79V77L235 78L233 79.5L231.5 80.5H229L226.5 82L224 84H222L220 82L221 80.5L223.5 77L225 75V71.5L224 70.5L218.5 75L215 78L212 76.5V78L211 80.5H209.5L206.5 79L206 81L204 80.5V82L206.5 85.5V87.5L204 87L201.5 84H200L198.5 87.5H196H192.5V89.5L191 91L190.5 93.5L189.5 95.5L187.5 96.5H186L185 94.5H183.5V95.5H181V98.5H179.5V99.5V101H177V102L175.5 105.5L172 106.5L170 109L169 110L170 110.5V115.5L168 118L172 120V122.5L171 124.5H169L168 122.5L166.5 121H163.5L160.5 118L159 119V121H157.5L156 122.5H153.5L153 124L151.5 124.5L153 127.5L150.5 128.5L148.5 128L147 129L145 129.5L142.5 128.5L141 130L137.5 132V134L135 131L134.5 128.5L132.5 129L130 129.5L127.5 128L129.5 126.5V124.5H127.5L125.5 126.5L122.5 126L122 126.5H121L120 127.5H118V128.5H116.5L115.5 131L113.5 128L112.5 129H110V133L107 132V128L105.5 125.5L106 124.5H104.5L103 126.5L100.5 128H98.5L96.5 126.5L95.5 130L94.5 130.5L93 130L92.5 128.5L91.5 129L90 127.5L89 126L87 126.5L88 128.5L86 129V131H85L83.5 130.5H81.5H80L78.5 131V132L77.5 133L75 132L74.5 133L77.5 135L76.5 136.5H74V137.5L70.5 139L71.5 141L69.5 142H68L66.5 140L65 137.5L64 141H61.5L60.5 142.5L59 145.5L56 146.5V148L53 149L52 151L51 155.5L48.5 159H47.5L43.5 160.5H40.5L42.5 164H44.5L46.5 165L49.5 166H52L54.5 166.5L55.5 169L56 171.5L58.5 170L64 171.5L67.5 173.5L69.5 173L71.5 170L74.5 167.5L77.5 166L79.5 167.5V170L81.5 171.5L80.5 172.5L82.5 173.5L86 173L88.5 175L90.5 171.5L92.5 172.5V175L94.5 176L95.5 175L98 176V178.5L101 177.5L100.5 179.5L103 181.5L100.5 188.5L101.75 191L103 193.5Z" fill="#90DAEE"/>
<path d="M103 193.5V201L106.5 202.5L110.5 203.5L113.5 207H115.5L117.5 208L120.5 210V208L122 206H125.5L130.5 207L129 210L127.5 211.5V212.5L129 215V217.5L130.5 219L132 217.5V216.5L134.5 214L136 211.5L137 209L136 207V205L138.5 204L139 203.5H142L144 206L146 208L149 210H151L153 206C153.5 205.333 154.6 203.7 155 202.5C155.4 201.3 156.833 200.667 157.5 200.5L159.5 199.5L161.5 198.5V194H163.5L165.5 190C165.833 190.167 167 190.4 169 190C171 189.6 170.5 189.167 170 189L172 187C172 186.5 171.8 185.4 171 185C170.2 184.6 170.667 182.5 171 181.5L176 179.5C176.667 179.167 178.2 178.4 179 178C179.8 177.6 180.667 176.167 181 175.5C181.333 174.333 182 171.8 182 171C182 170.2 182 169.333 182 169L181 165.5L180 162.5L179 160.5L177 159L176 157L179.5 157.5L180 156V155L182.5 156L183.5 154.5L182 153H187V151L188.5 150.5L191.5 153.5V159V160.5H189.5L187.5 161.5L188.5 162.5H191.5L196 150.5L200 148V147L201.5 144.5H203.5L206 143V141L208.5 140H211V138L212.5 137L215 138L217.5 136L219 133L218.5 131.5L215 130L212.5 129L213.5 127C214.333 126.667 216 125.9 216 125.5C216 125.1 217.667 124.667 218.5 124.5L221 122.5V121L219 120.5L217.5 119H215L212.5 117L213.5 114L216 113L215 112H212H208.5L206 113L202.5 111L200 109H196L194.5 108.5V106.5L197.5 106L202.5 106.5H209.5L210.5 104.5L215 103.5L221 102.5L225.5 105.5L230.5 106L232 109L229.5 113L232 115.5L231.5 118V120L232 123L233 125.5L231.5 127L233 128.5L235 127L236.5 126L241.5 127L244 125.5H246H248L252 123.5H257L258 122C258.5 121.167 259.5 118.9 259.5 116.5C259.5 114.1 260.833 115.5 261.5 116.5H264.5L266.5 117.5L269 116.5L271 115.5L272 113L272.5 111L275.5 110V108.5L276.5 107L279.5 106.5L283.5 105.5L285.5 102.5L288 103.5L290 105.5L290.5 104.5H293.5L292.5 106L294 107L296 108.5L297 112.5L293.5 115.5L298.5 120L300.5 119.5L305 115.5H310C310.667 115.167 312 114.3 312 113.5C312 112.7 312.667 112.5 313 112.5L315.5 113L315 111L319 108.5H319.5L322 110H325C325.5 109.833 326.5 109.3 326.5 108.5C326.5 107.7 327.5 106.833 328 106.5H330L334.5 105.5L339 104.5V102L340 98.5L342.5 92.5L341 91C340.333 90.5 339.2 89.5 340 89.5C341 89.5 339 86 339 85C339 84.2 338.333 82.6667 338 82L340 79.5L343 77.5H341L338 79L336 80.5L334 81H329L325 79L323.5 81L321 84L319 85L317 84V85.5L315.5 88L315 90L317 93.5L315 94.5L312.5 96.5L310 95.5V91L307.5 92C306 91.1667 302.8 89.3 302 88.5C301.2 87.7 301 88.8333 301 89.5L299 88.5L296 87.5L295.5 92H294.5C293.833 91.1667 292.4 89.3 292 88.5C291.6 87.7 290.833 88.1667 290.5 88.5H287L285.5 85.5L283.5 87.5H280.5L278.5 91C277.833 91 276.3 91 275.5 91C274.5 91 272 92 271 91C270 90 269 91 268 90C267.2 89.2 267.333 88.6667 267.5 88.5L269 85.5L272 85L273.5 84L272.5 82H270L269 84H267L265.5 82L264.5 80.5H263.5L261.5 83H259.5L258 79L257 79.5V82L258 85L255.5 86.5L253.5 85L255 83L253 82L252 83L253 86L252.5 87.5L251 89.5H248L246 92H244L243 89.5L244 85.5L245.5 82L244 80.5L241.5 84H239.5L238 85.5L236 83V79V77L235 78L233 79.5L231.5 80.5H229L226.5 82L224 84H222L220 82L221 80.5L223.5 77L225 75V71.5L224 70.5L218.5 75L215 78L212 76.5V78L211 80.5H209.5L206.5 79L206 81L204 80.5V82L206.5 85.5V87.5L204 87L201.5 84H200L198.5 87.5H196H192.5V89.5L191 91L190.5 93.5L189.5 95.5L187.5 96.5H186L185 94.5H183.5V95.5H181V98.5H179.5V99.5V101H177V102L175.5 105.5L172 106.5L170 109L169 110L170 110.5V115.5L168 118L172 120V122.5L171 124.5H169L168 122.5L166.5 121H163.5L160.5 118L159 119V121H157.5L156 122.5H153.5L153 124L151.5 124.5L153 127.5L150.5 128.5L148.5 128L147 129L145 129.5L142.5 128.5L141 130L137.5 132V134L135 131L134.5 128.5L132.5 129L130 129.5L127.5 128L129.5 126.5V124.5H127.5L125.5 126.5L122.5 126L122 126.5H121L120 127.5H118V128.5H116.5L115.5 131L113.5 128L112.5 129H110V133L107 132V128L105.5 125.5L106 124.5H104.5L103 126.5L100.5 128H98.5L96.5 126.5L95.5 130L94.5 130.5L93 130L92.5 128.5L91.5 129L90 127.5L89 126L87 126.5L88 128.5L86 129V131H85L83.5 130.5H81.5H80L78.5 131V132L77.5 133L75 132L74.5 133L77.5 135L76.5 136.5H74V137.5L70.5 139L71.5 141L69.5 142H68L66.5 140L65 137.5L64 141H61.5L60.5 142.5L59 145.5L56 146.5V148L53 149L52 151L51 155.5L48.5 159H47.5L43.5 160.5H40.5L42.5 164H44.5L46.5 165L49.5 166H52L54.5 166.5L55.5 169L56 171.5L58.5 170L64 171.5L67.5 173.5L69.5 173L71.5 170L74.5 167.5L77.5 166L79.5 167.5V170L81.5 171.5L80.5 172.5L82.5 173.5L86 173L88.5 175L90.5 171.5L92.5 172.5V175L94.5 176L95.5 175L98 176V178.5L101 177.5L100.5 179.5L103 181.5L100.5 188.5L101.75 191L103 193.5ZM103 193.5L102.5 199" stroke="white"/>
<circle cx="169.5" cy="165" r="5" fill="#FFE587" stroke="black"/>
<circle cx="188.5" cy="109" r="5" fill="#FF8F87" stroke="black"/>
<path d="M121.724 169.763V168.591H129.906V169.763H126.476V179.5H125.155V169.763H121.724ZM133.069 179.692C132.551 179.692 132.08 179.594 131.657 179.399C131.235 179.2 130.899 178.914 130.651 178.541C130.402 178.165 130.278 177.71 130.278 177.178C130.278 176.709 130.37 176.329 130.555 176.038C130.739 175.743 130.986 175.512 131.295 175.345C131.604 175.178 131.945 175.054 132.318 174.972C132.694 174.887 133.073 174.82 133.453 174.77C133.95 174.706 134.353 174.658 134.662 174.626C134.974 174.591 135.201 174.532 135.343 174.45C135.489 174.369 135.562 174.227 135.562 174.024V173.982C135.562 173.456 135.418 173.048 135.13 172.756C134.846 172.465 134.415 172.32 133.836 172.32C133.236 172.32 132.765 172.451 132.424 172.714C132.084 172.977 131.844 173.257 131.705 173.555L130.512 173.129C130.725 172.632 131.009 172.245 131.364 171.968C131.723 171.687 132.114 171.492 132.536 171.382C132.962 171.268 133.381 171.212 133.793 171.212C134.056 171.212 134.358 171.244 134.699 171.308C135.043 171.368 135.375 171.494 135.695 171.686C136.018 171.877 136.286 172.167 136.499 172.554C136.712 172.941 136.819 173.46 136.819 174.109V179.5H135.562V178.392H135.498C135.413 178.57 135.271 178.76 135.072 178.962C134.873 179.164 134.608 179.337 134.278 179.479C133.948 179.621 133.545 179.692 133.069 179.692ZM133.261 178.562C133.758 178.562 134.177 178.465 134.518 178.27C134.862 178.074 135.122 177.822 135.296 177.513C135.473 177.204 135.562 176.879 135.562 176.538V175.388C135.509 175.452 135.391 175.51 135.21 175.564C135.033 175.613 134.827 175.658 134.592 175.697C134.362 175.732 134.136 175.764 133.916 175.793C133.699 175.817 133.524 175.839 133.389 175.857C133.062 175.899 132.756 175.968 132.472 176.064C132.192 176.157 131.965 176.297 131.791 176.485C131.62 176.67 131.535 176.922 131.535 177.241C131.535 177.678 131.696 178.009 132.02 178.232C132.346 178.452 132.76 178.562 133.261 178.562ZM142.757 171.318V172.384H138.346V171.318H142.757ZM139.667 179.5V170.189C139.667 169.72 139.778 169.33 139.998 169.017C140.218 168.705 140.504 168.47 140.855 168.314C141.207 168.158 141.578 168.08 141.969 168.08C142.278 168.08 142.53 168.104 142.725 168.154C142.92 168.204 143.066 168.25 143.162 168.293L142.8 169.379C142.736 169.358 142.647 169.331 142.533 169.299C142.423 169.267 142.278 169.251 142.096 169.251C141.681 169.251 141.381 169.356 141.196 169.566C141.015 169.775 140.925 170.082 140.925 170.487V179.5H139.667ZM149.675 176.155V171.318H150.932V179.5H149.675V178.115H149.59C149.398 178.531 149.1 178.884 148.695 179.175C148.29 179.463 147.779 179.607 147.161 179.607C146.649 179.607 146.195 179.495 145.797 179.271C145.399 179.044 145.087 178.703 144.86 178.248C144.632 177.79 144.519 177.213 144.519 176.517V171.318H145.776V176.432C145.776 177.028 145.943 177.504 146.277 177.859C146.614 178.214 147.044 178.392 147.566 178.392C147.878 178.392 148.196 178.312 148.519 178.152C148.846 177.993 149.119 177.748 149.339 177.417C149.563 177.087 149.675 176.666 149.675 176.155ZM154.492 174.578V179.5H153.235V171.318H154.449V172.597H154.556C154.747 172.181 155.039 171.847 155.429 171.595C155.82 171.339 156.324 171.212 156.942 171.212C157.496 171.212 157.981 171.325 158.396 171.553C158.812 171.776 159.135 172.117 159.366 172.575C159.596 173.03 159.712 173.605 159.712 174.301V179.5H158.455V174.386C158.455 173.744 158.288 173.243 157.954 172.884C157.62 172.522 157.162 172.341 156.58 172.341C156.178 172.341 155.82 172.428 155.504 172.602C155.191 172.776 154.944 173.03 154.763 173.364C154.582 173.697 154.492 174.102 154.492 174.578ZM164.417 179.692C163.898 179.692 163.428 179.594 163.005 179.399C162.582 179.2 162.247 178.914 161.998 178.541C161.75 178.165 161.625 177.71 161.625 177.178C161.625 176.709 161.718 176.329 161.902 176.038C162.087 175.743 162.334 175.512 162.643 175.345C162.952 175.178 163.293 175.054 163.666 174.972C164.042 174.887 164.42 174.82 164.8 174.77C165.297 174.706 165.7 174.658 166.009 174.626C166.322 174.591 166.549 174.532 166.691 174.45C166.837 174.369 166.91 174.227 166.91 174.024V173.982C166.91 173.456 166.766 173.048 166.478 172.756C166.194 172.465 165.763 172.32 165.184 172.32C164.584 172.32 164.113 172.451 163.772 172.714C163.431 172.977 163.191 173.257 163.053 173.555L161.86 173.129C162.073 172.632 162.357 172.245 162.712 171.968C163.071 171.687 163.461 171.492 163.884 171.382C164.31 171.268 164.729 171.212 165.141 171.212C165.404 171.212 165.706 171.244 166.047 171.308C166.391 171.368 166.723 171.494 167.043 171.686C167.366 171.877 167.634 172.167 167.847 172.554C168.06 172.941 168.167 173.46 168.167 174.109V179.5H166.91V178.392H166.846C166.76 178.57 166.618 178.76 166.419 178.962C166.221 179.164 165.956 179.337 165.626 179.479C165.296 179.621 164.892 179.692 164.417 179.692ZM164.608 178.562C165.106 178.562 165.525 178.465 165.866 178.27C166.21 178.074 166.469 177.822 166.643 177.513C166.821 177.204 166.91 176.879 166.91 176.538V175.388C166.856 175.452 166.739 175.51 166.558 175.564C166.38 175.613 166.174 175.658 165.94 175.697C165.709 175.732 165.484 175.764 165.264 175.793C165.047 175.817 164.871 175.839 164.736 175.857C164.41 175.899 164.104 175.968 163.82 176.064C163.54 176.157 163.312 176.297 163.138 176.485C162.968 176.67 162.883 176.922 162.883 177.241C162.883 177.678 163.044 178.009 163.367 178.232C163.694 178.452 164.108 178.562 164.608 178.562Z" fill="black"/>
<path d="M140.948 137.5V126.591H145.252C146.08 126.591 146.784 126.749 147.367 127.065C147.949 127.377 148.393 127.812 148.699 128.37C149.007 128.924 149.162 129.563 149.162 130.288C149.162 131.012 149.006 131.651 148.693 132.205C148.381 132.759 147.928 133.191 147.335 133.5C146.745 133.809 146.032 133.963 145.194 133.963H142.45V132.115H144.821C145.265 132.115 145.63 132.038 145.918 131.886C146.209 131.729 146.426 131.515 146.568 131.241C146.713 130.964 146.786 130.646 146.786 130.288C146.786 129.925 146.713 129.609 146.568 129.339C146.426 129.066 146.209 128.855 145.918 128.706C145.627 128.553 145.257 128.477 144.81 128.477H143.255V137.5H140.948ZM152.731 137.654C152.209 137.654 151.744 137.564 151.335 137.383C150.927 137.198 150.604 136.926 150.366 136.568C150.131 136.206 150.014 135.755 150.014 135.215C150.014 134.76 150.098 134.379 150.265 134.07C150.431 133.761 150.659 133.512 150.946 133.324C151.234 133.136 151.561 132.994 151.926 132.898C152.296 132.802 152.683 132.734 153.088 132.695C153.564 132.646 153.947 132.599 154.238 132.557C154.529 132.511 154.741 132.443 154.872 132.354C155.004 132.266 155.069 132.134 155.069 131.96V131.928C155.069 131.591 154.963 131.33 154.75 131.145C154.54 130.961 154.242 130.868 153.855 130.868C153.446 130.868 153.121 130.959 152.88 131.14C152.638 131.317 152.479 131.541 152.401 131.811L150.302 131.641C150.408 131.143 150.618 130.714 150.93 130.352C151.243 129.986 151.646 129.705 152.14 129.51C152.637 129.311 153.212 129.212 153.865 129.212C154.32 129.212 154.755 129.265 155.17 129.371C155.589 129.478 155.961 129.643 156.284 129.867C156.61 130.091 156.868 130.378 157.056 130.73C157.244 131.078 157.338 131.495 157.338 131.982V137.5H155.186V136.365H155.123C154.991 136.621 154.815 136.847 154.595 137.042C154.375 137.234 154.11 137.385 153.801 137.495C153.493 137.601 153.136 137.654 152.731 137.654ZM153.381 136.088C153.714 136.088 154.009 136.023 154.265 135.891C154.521 135.756 154.721 135.575 154.867 135.348C155.012 135.121 155.085 134.863 155.085 134.576V133.707C155.014 133.754 154.917 133.796 154.792 133.835C154.672 133.871 154.535 133.904 154.382 133.936C154.229 133.965 154.077 133.991 153.924 134.016C153.771 134.038 153.633 134.057 153.509 134.075C153.242 134.114 153.01 134.176 152.811 134.261C152.612 134.347 152.457 134.462 152.347 134.608C152.237 134.75 152.182 134.927 152.182 135.14C152.182 135.449 152.294 135.685 152.518 135.849C152.745 136.009 153.033 136.088 153.381 136.088ZM162.785 140.739C162.05 140.739 161.42 140.637 160.894 140.435C160.372 140.236 159.956 139.964 159.648 139.62C159.339 139.276 159.138 138.888 159.046 138.459L161.144 138.176C161.208 138.34 161.309 138.493 161.448 138.635C161.586 138.777 161.769 138.89 161.997 138.975C162.227 139.064 162.508 139.109 162.838 139.109C163.332 139.109 163.738 138.988 164.058 138.746C164.381 138.509 164.543 138.109 164.543 137.548V136.051H164.447C164.347 136.278 164.198 136.493 163.999 136.696C163.801 136.898 163.545 137.063 163.232 137.191C162.92 137.319 162.547 137.383 162.114 137.383C161.499 137.383 160.94 137.241 160.436 136.957C159.935 136.669 159.536 136.23 159.237 135.641C158.943 135.048 158.795 134.299 158.795 133.393C158.795 132.466 158.946 131.692 159.248 131.071C159.55 130.449 159.951 129.984 160.452 129.675C160.956 129.366 161.508 129.212 162.108 129.212C162.567 129.212 162.95 129.29 163.259 129.446C163.568 129.599 163.817 129.79 164.005 130.021C164.197 130.249 164.344 130.472 164.447 130.692H164.532V129.318H166.785V137.58C166.785 138.276 166.615 138.858 166.274 139.327C165.933 139.796 165.461 140.147 164.857 140.382C164.257 140.62 163.566 140.739 162.785 140.739ZM162.833 135.678C163.199 135.678 163.508 135.588 163.76 135.407C164.015 135.222 164.211 134.959 164.346 134.618C164.484 134.274 164.553 133.862 164.553 133.382C164.553 132.903 164.486 132.488 164.351 132.136C164.216 131.781 164.021 131.506 163.765 131.31C163.509 131.115 163.199 131.017 162.833 131.017C162.46 131.017 162.146 131.119 161.89 131.321C161.634 131.52 161.441 131.797 161.309 132.152C161.178 132.507 161.112 132.917 161.112 133.382C161.112 133.855 161.178 134.263 161.309 134.608C161.444 134.949 161.638 135.213 161.89 135.401C162.146 135.586 162.46 135.678 162.833 135.678ZM172.288 137.66C171.46 137.66 170.745 137.484 170.141 137.132C169.541 136.777 169.078 136.284 168.751 135.652C168.424 135.016 168.261 134.279 168.261 133.441C168.261 132.596 168.424 131.857 168.751 131.225C169.078 130.589 169.541 130.096 170.141 129.744C170.745 129.389 171.46 129.212 172.288 129.212C173.115 129.212 173.829 129.389 174.429 129.744C175.033 130.096 175.498 130.589 175.825 131.225C176.151 131.857 176.315 132.596 176.315 133.441C176.315 134.279 176.151 135.016 175.825 135.652C175.498 136.284 175.033 136.777 174.429 137.132C173.829 137.484 173.115 137.66 172.288 137.66ZM172.298 135.902C172.675 135.902 172.989 135.795 173.241 135.582C173.493 135.366 173.683 135.071 173.811 134.698C173.943 134.325 174.008 133.901 174.008 133.425C174.008 132.949 173.943 132.525 173.811 132.152C173.683 131.779 173.493 131.484 173.241 131.268C172.989 131.051 172.675 130.943 172.298 130.943C171.919 130.943 171.599 131.051 171.34 131.268C171.084 131.484 170.89 131.779 170.759 132.152C170.631 132.525 170.567 132.949 170.567 133.425C170.567 133.901 170.631 134.325 170.759 134.698C170.89 135.071 171.084 135.366 171.34 135.582C171.599 135.795 171.919 135.902 172.298 135.902ZM181.305 137.5V126.591H185.609C186.436 126.591 187.141 126.749 187.723 127.065C188.306 127.377 188.75 127.812 189.055 128.37C189.364 128.924 189.518 129.563 189.518 130.288C189.518 131.012 189.362 131.651 189.05 132.205C188.737 132.759 188.284 133.191 187.691 133.5C187.102 133.809 186.388 133.963 185.55 133.963H182.807V132.115H185.177C185.621 132.115 185.987 132.038 186.274 131.886C186.566 131.729 186.782 131.515 186.924 131.241C187.07 130.964 187.143 130.646 187.143 130.288C187.143 129.925 187.07 129.609 186.924 129.339C186.782 129.066 186.566 128.855 186.274 128.706C185.983 128.553 185.614 128.477 185.166 128.477H183.611V137.5H181.305ZM193.087 137.654C192.565 137.654 192.1 137.564 191.692 137.383C191.283 137.198 190.96 136.926 190.722 136.568C190.488 136.206 190.371 135.755 190.371 135.215C190.371 134.76 190.454 134.379 190.621 134.07C190.788 133.761 191.015 133.512 191.303 133.324C191.59 133.136 191.917 132.994 192.283 132.898C192.652 132.802 193.039 132.734 193.444 132.695C193.92 132.646 194.304 132.599 194.595 132.557C194.886 132.511 195.097 132.443 195.229 132.354C195.36 132.266 195.426 132.134 195.426 131.96V131.928C195.426 131.591 195.319 131.33 195.106 131.145C194.897 130.961 194.598 130.868 194.211 130.868C193.803 130.868 193.478 130.959 193.236 131.14C192.995 131.317 192.835 131.541 192.757 131.811L190.658 131.641C190.765 131.143 190.974 130.714 191.287 130.352C191.599 129.986 192.002 129.705 192.496 129.51C192.993 129.311 193.568 129.212 194.222 129.212C194.676 129.212 195.111 129.265 195.527 129.371C195.946 129.478 196.317 129.643 196.64 129.867C196.967 130.091 197.224 130.378 197.413 130.73C197.601 131.078 197.695 131.495 197.695 131.982V137.5H195.543V136.365H195.479C195.348 136.621 195.172 136.847 194.952 137.042C194.731 137.234 194.467 137.385 194.158 137.495C193.849 137.601 193.492 137.654 193.087 137.654ZM193.737 136.088C194.071 136.088 194.366 136.023 194.621 135.891C194.877 135.756 195.078 135.575 195.223 135.348C195.369 135.121 195.442 134.863 195.442 134.576V133.707C195.371 133.754 195.273 133.796 195.149 133.835C195.028 133.871 194.891 133.904 194.739 133.936C194.586 133.965 194.433 133.991 194.28 134.016C194.128 134.038 193.989 134.057 193.865 134.075C193.599 134.114 193.366 134.176 193.167 134.261C192.968 134.347 192.814 134.462 192.704 134.608C192.594 134.75 192.539 134.927 192.539 135.14C192.539 135.449 192.65 135.685 192.874 135.849C193.101 136.009 193.389 136.088 193.737 136.088ZM203.141 140.739C202.406 140.739 201.776 140.637 201.25 140.435C200.728 140.236 200.313 139.964 200.004 139.62C199.695 139.276 199.494 138.888 199.402 138.459L201.501 138.176C201.565 138.34 201.666 138.493 201.804 138.635C201.943 138.777 202.126 138.89 202.353 138.975C202.584 139.064 202.864 139.109 203.195 139.109C203.688 139.109 204.095 138.988 204.415 138.746C204.738 138.509 204.899 138.109 204.899 137.548V136.051H204.803C204.704 136.278 204.555 136.493 204.356 136.696C204.157 136.898 203.901 137.063 203.589 137.191C203.276 137.319 202.903 137.383 202.47 137.383C201.856 137.383 201.297 137.241 200.792 136.957C200.292 136.669 199.892 136.23 199.594 135.641C199.299 135.048 199.152 134.299 199.152 133.393C199.152 132.466 199.303 131.692 199.604 131.071C199.906 130.449 200.308 129.984 200.808 129.675C201.313 129.366 201.865 129.212 202.465 129.212C202.923 129.212 203.307 129.29 203.616 129.446C203.924 129.599 204.173 129.79 204.361 130.021C204.553 130.249 204.7 130.472 204.803 130.692H204.889V129.318H207.142V137.58C207.142 138.276 206.971 138.858 206.63 139.327C206.29 139.796 205.817 140.147 205.214 140.382C204.613 140.62 203.923 140.739 203.141 140.739ZM203.189 135.678C203.555 135.678 203.864 135.588 204.116 135.407C204.372 135.222 204.567 134.959 204.702 134.618C204.841 134.274 204.91 133.862 204.91 133.382C204.91 132.903 204.842 132.488 204.707 132.136C204.573 131.781 204.377 131.506 204.122 131.31C203.866 131.115 203.555 131.017 203.189 131.017C202.816 131.017 202.502 131.119 202.247 131.321C201.991 131.52 201.797 131.797 201.666 132.152C201.535 132.507 201.469 132.917 201.469 133.382C201.469 133.855 201.535 134.263 201.666 134.608C201.801 134.949 201.994 135.213 202.247 135.401C202.502 135.586 202.816 135.678 203.189 135.678ZM212.644 137.66C211.817 137.66 211.101 137.484 210.498 137.132C209.897 136.777 209.434 136.284 209.107 135.652C208.781 135.016 208.617 134.279 208.617 133.441C208.617 132.596 208.781 131.857 209.107 131.225C209.434 130.589 209.897 130.096 210.498 129.744C211.101 129.389 211.817 129.212 212.644 129.212C213.472 129.212 214.185 129.389 214.786 129.744C215.389 130.096 215.854 130.589 216.181 131.225C216.508 131.857 216.671 132.596 216.671 133.441C216.671 134.279 216.508 135.016 216.181 135.652C215.854 136.284 215.389 136.777 214.786 137.132C214.185 137.484 213.472 137.66 212.644 137.66ZM212.655 135.902C213.031 135.902 213.346 135.795 213.598 135.582C213.85 135.366 214.04 135.071 214.168 134.698C214.299 134.325 214.365 133.901 214.365 133.425C214.365 132.949 214.299 132.525 214.168 132.152C214.04 131.779 213.85 131.484 213.598 131.268C213.346 131.051 213.031 130.943 212.655 130.943C212.275 130.943 211.955 131.051 211.696 131.268C211.44 131.484 211.247 131.779 211.116 132.152C210.988 132.525 210.924 132.949 210.924 133.425C210.924 133.901 210.988 134.325 211.116 134.698C211.247 135.071 211.44 135.366 211.696 135.582C211.955 135.795 212.275 135.902 212.655 135.902Z" fill="black"/>
</svg>
