<svg width="410" height="311" viewBox="0 0 410 311" fill="none" xmlns="http://www.w3.org/2000/svg">
<g filter="url(#filter0_d_128_118)">
<rect x="6.5" y="6.5" width="387" height="288" rx="36" fill="#202637" stroke="#717171"/>
<path d="M348.5 124L347.5 128L348.5 129L350 130L351.5 131L353 131.5L354 131L355 130L357 131.5L359 132L361 131.5L363 130.5L364.5 128.5L364 127L365 126V124.5L363 122.5L361.5 121.5L360 122L359 121L357 120L354.5 120.5L351 121.5L348.5 124Z" fill="#90DAEE" stroke="white"/>
<path d="M109 199.5V207L112.5 208.5L116.5 209.5L119.5 213H121.5L123.5 214L126.5 216V214L128 212H131.5L136.5 213L135 216L133.5 217.5V218.5L135 221V223.5L136.5 225L138 223.5V222.5L140.5 220L142 217.5L143 215L142 213V211L144.5 210L145 209.5H148L150 212L152 214L155 216H157L159 212C159.5 211.333 160.6 209.7 161 208.5C161.4 207.3 162.833 206.667 163.5 206.5L165.5 205.5L167.5 204.5V200H169.5L171.5 196C171.833 196.167 173 196.4 175 196C177 195.6 176.5 195.167 176 195L178 193C178 192.5 177.8 191.4 177 191C176.2 190.6 176.667 188.5 177 187.5L182 185.5L185 184C185.8 183.6 186.667 182.167 187 181.5C187.333 180.333 188 177.8 188 177V175L187 171.5L186 168.5L185 166.5L183 165L182 163L185.5 163.5L186 162V161L188.5 162L189.5 160.5L188 159H193V157L194.5 156.5L197.5 159.5V165V166.5H195.5L193.5 167.5L194.5 168.5H197.5L202 156.5L206 154V153L207.5 150.5H209.5L212 149V147L214.5 146H217V144L218.5 143L221 144L223.5 142L225 139L224.5 137.5L221 136L218.5 135L219.5 133C220.333 132.667 222 131.9 222 131.5C222 131.1 223.667 130.667 224.5 130.5L227 128.5V127L225 126.5L223.5 125H221L218.5 123L219.5 120L222 119L221 118H218H214.5L212 119L208.5 117L206 115H202L200.5 114.5V112.5L203.5 112L208.5 112.5H215.5L216.5 110.5L221 109.5L227 108.5L231.5 111.5L236.5 112L238 115L235.5 119L238 121.5L237.5 124V126L238 129L239 131.5L237.5 133L239 134.5L241 133L242.5 132L247.5 133L250 131.5H252H254L258 129.5H263L264 128C264.5 127.167 265.5 124.9 265.5 122.5C265.5 120.1 266.833 121.5 267.5 122.5H270.5L272.5 123.5L275 122.5L277 121.5L278 119L278.5 117L281.5 116V114.5L282.5 113L285.5 112.5L289.5 111.5L291.5 108.5L294 109.5L296 111.5L296.5 110.5H299.5L298.5 112L300 113L302 114.5L303 118.5L299.5 121.5L304.5 126L306.5 125.5L311 121.5H316C316.667 121.167 318 120.3 318 119.5C318 118.7 318.667 118.5 319 118.5L321.5 119L321 117L325 114.5H325.5L328 116H331C331.5 115.833 332.5 115.3 332.5 114.5C332.5 113.7 333.5 112.833 334 112.5H336L340.5 111.5L345 110.5V108L346 104.5L348.5 98.5L347 97C346.333 96.5 345.2 95.5 346 95.5C347 95.5 345 92 345 91C345 90.2 344.333 88.6667 344 88L346 85.5L349 83.5H347L344 85L342 86.5L340 87H335L331 85L329.5 87L327 90L325 91L323 90V91.5L321.5 94L321 96L323 99.5L321 100.5L318.5 102.5L316 101.5V97L313.5 98C312 97.1667 308.8 95.3 308 94.5C307.2 93.7 307 94.8333 307 95.5L305 94.5L302 93.5L301.5 98H300.5C299.833 97.1667 298.4 95.3 298 94.5C297.6 93.7 296.833 94.1667 296.5 94.5H293L291.5 91.5L289.5 93.5H286.5L284.5 97H281.5C280.5 97 278 98 277 97C276 96 275 97 274 96C273.2 95.2 273.333 94.6667 273.5 94.5L275 91.5L278 91L279.5 90L278.5 88H276L275 90H273L271.5 88L270.5 86.5H269.5L267.5 89H265.5L264 85L263 85.5V88L264 91L261.5 92.5L259.5 91L261 89L259 88L258 89L259 92L258.5 93.5L257 95.5H254L252 98H250L249 95.5L250 91.5L251.5 88L250 86.5L247.5 90H245.5L244 91.5L242 89V85V83L241 84L239 85.5L237.5 86.5H235L232.5 88L230 90H228L226 88L227 86.5L229.5 83L231 81V77.5L230 76.5L224.5 81L221 84L218 82.5V84L217 86.5H215.5L212.5 85L212 87L210 86.5V88L212.5 91.5V93.5L210 93L207.5 90H206L204.5 93.5H202H198.5V95.5L197 97L196.5 99.5L195.5 101.5L193.5 102.5H192L191 100.5H189.5V101.5H187V104.5H185.5V105.5V107H183V108L181.5 111.5L178 112.5L176 115L175 116L176 116.5V121.5L174 124L178 126V128.5L177 130.5H175L174 128.5L172.5 127H169.5L166.5 124L165 125V127H163.5L162 128.5H159.5L159 130L157.5 130.5L159 133.5L156.5 134.5L154.5 134L153 135L151 135.5L148.5 134.5L147 136L143.5 138V140L141 137L140.5 134.5L138.5 135L136 135.5L133.5 134L135.5 132.5V130.5H133.5L131.5 132.5L128.5 132L128 132.5H127L126 133.5H124V134.5H122.5L121.5 137L119.5 134L118.5 135H116V139L113 138V134L111.5 131.5L112 130.5H110.5L109 132.5L106.5 134H104.5L102.5 132.5L101.5 136L100.5 136.5L99 136L98.5 134.5L97.5 135L96 133.5L95 132L93 132.5L94 134.5L92 135V137H91L89.5 136.5H87.5H86L84.5 137V138L83.5 139L81 138L80.5 139L83.5 141L82.5 142.5H80V143.5L76.5 145L77.5 147L75.5 148H74L72.5 146L71 143.5L70 147H67.5L66.5 148.5L65 151.5L62 152.5V154L59 155L58 157L57 161.5L54.5 165H53.5L49.5 166.5H46.5L48.5 170H50.5L52.5 171L55.5 172H58L60.5 172.5L61.5 175L62 177.5L64.5 176L70 177.5L73.5 179.5L75.5 179L77.5 176L80.5 173.5L83.5 172L85.5 173.5V176L87.5 177.5L86.5 178.5L88.5 179.5L92 179L94.5 181L96.5 177.5L98.5 178.5V181L100.5 182L101.5 181L104 182V184.5L107 183.5L106.5 185.5L109 187.5L106.5 194.5L107.75 197L109 199.5Z" fill="#90DAEE"/>
<path d="M109 199.5V207L112.5 208.5L116.5 209.5L119.5 213H121.5L123.5 214L126.5 216V214L128 212H131.5L136.5 213L135 216L133.5 217.5V218.5L135 221V223.5L136.5 225L138 223.5V222.5L140.5 220L142 217.5L143 215L142 213V211L144.5 210L145 209.5H148L150 212L152 214L155 216H157L159 212C159.5 211.333 160.6 209.7 161 208.5C161.4 207.3 162.833 206.667 163.5 206.5L165.5 205.5L167.5 204.5V200H169.5L171.5 196C171.833 196.167 173 196.4 175 196C177 195.6 176.5 195.167 176 195L178 193C178 192.5 177.8 191.4 177 191C176.2 190.6 176.667 188.5 177 187.5L182 185.5C182.667 185.167 184.2 184.4 185 184C185.8 183.6 186.667 182.167 187 181.5C187.333 180.333 188 177.8 188 177C188 176.2 188 175.333 188 175L187 171.5L186 168.5L185 166.5L183 165L182 163L185.5 163.5L186 162V161L188.5 162L189.5 160.5L188 159H193V157L194.5 156.5L197.5 159.5V165V166.5H195.5L193.5 167.5L194.5 168.5H197.5L202 156.5L206 154V153L207.5 150.5H209.5L212 149V147L214.5 146H217V144L218.5 143L221 144L223.5 142L225 139L224.5 137.5L221 136L218.5 135L219.5 133C220.333 132.667 222 131.9 222 131.5C222 131.1 223.667 130.667 224.5 130.5L227 128.5V127L225 126.5L223.5 125H221L218.5 123L219.5 120L222 119L221 118H218H214.5L212 119L208.5 117L206 115H202L200.5 114.5V112.5L203.5 112L208.5 112.5H215.5L216.5 110.5L221 109.5L227 108.5L231.5 111.5L236.5 112L238 115L235.5 119L238 121.5L237.5 124V126L238 129L239 131.5L237.5 133L239 134.5L241 133L242.5 132L247.5 133L250 131.5H252H254L258 129.5H263L264 128C264.5 127.167 265.5 124.9 265.5 122.5C265.5 120.1 266.833 121.5 267.5 122.5H270.5L272.5 123.5L275 122.5L277 121.5L278 119L278.5 117L281.5 116V114.5L282.5 113L285.5 112.5L289.5 111.5L291.5 108.5L294 109.5L296 111.5L296.5 110.5H299.5L298.5 112L300 113L302 114.5L303 118.5L299.5 121.5L304.5 126L306.5 125.5L311 121.5H316C316.667 121.167 318 120.3 318 119.5C318 118.7 318.667 118.5 319 118.5L321.5 119L321 117L325 114.5H325.5L328 116H331C331.5 115.833 332.5 115.3 332.5 114.5C332.5 113.7 333.5 112.833 334 112.5H336L340.5 111.5L345 110.5V108L346 104.5L348.5 98.5L347 97C346.333 96.5 345.2 95.5 346 95.5C347 95.5 345 92 345 91C345 90.2 344.333 88.6667 344 88L346 85.5L349 83.5H347L344 85L342 86.5L340 87H335L331 85L329.5 87L327 90L325 91L323 90V91.5L321.5 94L321 96L323 99.5L321 100.5L318.5 102.5L316 101.5V97L313.5 98C312 97.1667 308.8 95.3 308 94.5C307.2 93.7 307 94.8333 307 95.5L305 94.5L302 93.5L301.5 98H300.5C299.833 97.1667 298.4 95.3 298 94.5C297.6 93.7 296.833 94.1667 296.5 94.5H293L291.5 91.5L289.5 93.5H286.5L284.5 97C283.833 97 282.3 97 281.5 97C280.5 97 278 98 277 97C276 96 275 97 274 96C273.2 95.2 273.333 94.6667 273.5 94.5L275 91.5L278 91L279.5 90L278.5 88H276L275 90H273L271.5 88L270.5 86.5H269.5L267.5 89H265.5L264 85L263 85.5V88L264 91L261.5 92.5L259.5 91L261 89L259 88L258 89L259 92L258.5 93.5L257 95.5H254L252 98H250L249 95.5L250 91.5L251.5 88L250 86.5L247.5 90H245.5L244 91.5L242 89V85V83L241 84L239 85.5L237.5 86.5H235L232.5 88L230 90H228L226 88L227 86.5L229.5 83L231 81V77.5L230 76.5L224.5 81L221 84L218 82.5V84L217 86.5H215.5L212.5 85L212 87L210 86.5V88L212.5 91.5V93.5L210 93L207.5 90H206L204.5 93.5H202H198.5V95.5L197 97L196.5 99.5L195.5 101.5L193.5 102.5H192L191 100.5H189.5V101.5H187V104.5H185.5V105.5V107H183V108L181.5 111.5L178 112.5L176 115L175 116L176 116.5V121.5L174 124L178 126V128.5L177 130.5H175L174 128.5L172.5 127H169.5L166.5 124L165 125V127H163.5L162 128.5H159.5L159 130L157.5 130.5L159 133.5L156.5 134.5L154.5 134L153 135L151 135.5L148.5 134.5L147 136L143.5 138V140L141 137L140.5 134.5L138.5 135L136 135.5L133.5 134L135.5 132.5V130.5H133.5L131.5 132.5L128.5 132L128 132.5H127L126 133.5H124V134.5H122.5L121.5 137L119.5 134L118.5 135H116V139L113 138V134L111.5 131.5L112 130.5H110.5L109 132.5L106.5 134H104.5L102.5 132.5L101.5 136L100.5 136.5L99 136L98.5 134.5L97.5 135L96 133.5L95 132L93 132.5L94 134.5L92 135V137H91L89.5 136.5H87.5H86L84.5 137V138L83.5 139L81 138L80.5 139L83.5 141L82.5 142.5H80V143.5L76.5 145L77.5 147L75.5 148H74L72.5 146L71 143.5L70 147H67.5L66.5 148.5L65 151.5L62 152.5V154L59 155L58 157L57 161.5L54.5 165H53.5L49.5 166.5H46.5L48.5 170H50.5L52.5 171L55.5 172H58L60.5 172.5L61.5 175L62 177.5L64.5 176L70 177.5L73.5 179.5L75.5 179L77.5 176L80.5 173.5L83.5 172L85.5 173.5V176L87.5 177.5L86.5 178.5L88.5 179.5L92 179L94.5 181L96.5 177.5L98.5 178.5V181L100.5 182L101.5 181L104 182V184.5L107 183.5L106.5 185.5L109 187.5L106.5 194.5L107.75 197L109 199.5ZM109 199.5L108.5 205" stroke="white"/>
<circle cx="175.5" cy="171" r="5" fill="#FFE587" stroke="black"/>
<circle cx="194.5" cy="115" r="5" fill="#FF8F87" stroke="black"/>
<path d="M127.724 175.763V174.591H135.906V175.763H132.476V185.5H131.155V175.763H127.724ZM139.069 185.692C138.551 185.692 138.08 185.594 137.657 185.399C137.235 185.2 136.899 184.914 136.651 184.541C136.402 184.165 136.278 183.71 136.278 183.178C136.278 182.709 136.37 182.329 136.555 182.038C136.739 181.743 136.986 181.512 137.295 181.345C137.604 181.178 137.945 181.054 138.318 180.972C138.694 180.887 139.073 180.82 139.453 180.77C139.95 180.706 140.353 180.658 140.662 180.626C140.974 180.591 141.201 180.532 141.343 180.45C141.489 180.369 141.562 180.227 141.562 180.024V179.982C141.562 179.456 141.418 179.048 141.13 178.756C140.846 178.465 140.415 178.32 139.836 178.32C139.236 178.32 138.765 178.451 138.424 178.714C138.084 178.977 137.844 179.257 137.705 179.555L136.512 179.129C136.725 178.632 137.009 178.245 137.364 177.968C137.723 177.687 138.114 177.492 138.536 177.382C138.962 177.268 139.381 177.212 139.793 177.212C140.056 177.212 140.358 177.244 140.699 177.308C141.043 177.368 141.375 177.494 141.695 177.686C142.018 177.877 142.286 178.167 142.499 178.554C142.712 178.941 142.819 179.46 142.819 180.109V185.5H141.562V184.392H141.498C141.413 184.57 141.271 184.76 141.072 184.962C140.873 185.164 140.608 185.337 140.278 185.479C139.948 185.621 139.545 185.692 139.069 185.692ZM139.261 184.562C139.758 184.562 140.177 184.465 140.518 184.27C140.862 184.074 141.122 183.822 141.296 183.513C141.473 183.204 141.562 182.879 141.562 182.538V181.388C141.509 181.452 141.391 181.51 141.21 181.564C141.033 181.613 140.827 181.658 140.592 181.697C140.362 181.732 140.136 181.764 139.916 181.793C139.699 181.817 139.524 181.839 139.389 181.857C139.062 181.899 138.756 181.968 138.472 182.064C138.192 182.157 137.965 182.297 137.791 182.485C137.62 182.67 137.535 182.922 137.535 183.241C137.535 183.678 137.696 184.009 138.02 184.232C138.346 184.452 138.76 184.562 139.261 184.562ZM148.757 177.318V178.384H144.346V177.318H148.757ZM145.667 185.5V176.189C145.667 175.72 145.778 175.33 145.998 175.017C146.218 174.705 146.504 174.47 146.855 174.314C147.207 174.158 147.578 174.08 147.969 174.08C148.278 174.08 148.53 174.104 148.725 174.154C148.92 174.204 149.066 174.25 149.162 174.293L148.8 175.379C148.736 175.358 148.647 175.331 148.533 175.299C148.423 175.267 148.278 175.251 148.096 175.251C147.681 175.251 147.381 175.356 147.196 175.566C147.015 175.775 146.925 176.082 146.925 176.487V185.5H145.667ZM155.675 182.155V177.318H156.932V185.5H155.675V184.115H155.59C155.398 184.531 155.1 184.884 154.695 185.175C154.29 185.463 153.779 185.607 153.161 185.607C152.649 185.607 152.195 185.495 151.797 185.271C151.399 185.044 151.087 184.703 150.86 184.248C150.632 183.79 150.519 183.213 150.519 182.517V177.318H151.776V182.432C151.776 183.028 151.943 183.504 152.277 183.859C152.614 184.214 153.044 184.392 153.566 184.392C153.878 184.392 154.196 184.312 154.519 184.152C154.846 183.993 155.119 183.748 155.339 183.417C155.563 183.087 155.675 182.666 155.675 182.155ZM160.492 180.578V185.5H159.235V177.318H160.449V178.597H160.556C160.747 178.181 161.039 177.847 161.429 177.595C161.82 177.339 162.324 177.212 162.942 177.212C163.496 177.212 163.981 177.325 164.396 177.553C164.812 177.776 165.135 178.117 165.366 178.575C165.596 179.03 165.712 179.605 165.712 180.301V185.5H164.455V180.386C164.455 179.744 164.288 179.243 163.954 178.884C163.62 178.522 163.162 178.341 162.58 178.341C162.178 178.341 161.82 178.428 161.504 178.602C161.191 178.776 160.944 179.03 160.763 179.364C160.582 179.697 160.492 180.102 160.492 180.578ZM170.417 185.692C169.898 185.692 169.428 185.594 169.005 185.399C168.582 185.2 168.247 184.914 167.998 184.541C167.75 184.165 167.625 183.71 167.625 183.178C167.625 182.709 167.718 182.329 167.902 182.038C168.087 181.743 168.334 181.512 168.643 181.345C168.952 181.178 169.293 181.054 169.666 180.972C170.042 180.887 170.42 180.82 170.8 180.77C171.297 180.706 171.7 180.658 172.009 180.626C172.322 180.591 172.549 180.532 172.691 180.45C172.837 180.369 172.91 180.227 172.91 180.024V179.982C172.91 179.456 172.766 179.048 172.478 178.756C172.194 178.465 171.763 178.32 171.184 178.32C170.584 178.32 170.113 178.451 169.772 178.714C169.431 178.977 169.191 179.257 169.053 179.555L167.86 179.129C168.073 178.632 168.357 178.245 168.712 177.968C169.071 177.687 169.461 177.492 169.884 177.382C170.31 177.268 170.729 177.212 171.141 177.212C171.404 177.212 171.706 177.244 172.047 177.308C172.391 177.368 172.723 177.494 173.043 177.686C173.366 177.877 173.634 178.167 173.847 178.554C174.06 178.941 174.167 179.46 174.167 180.109V185.5H172.91V184.392H172.846C172.76 184.57 172.618 184.76 172.419 184.962C172.221 185.164 171.956 185.337 171.626 185.479C171.296 185.621 170.892 185.692 170.417 185.692ZM170.608 184.562C171.106 184.562 171.525 184.465 171.866 184.27C172.21 184.074 172.469 183.822 172.643 183.513C172.821 183.204 172.91 182.879 172.91 182.538V181.388C172.856 181.452 172.739 181.51 172.558 181.564C172.38 181.613 172.174 181.658 171.94 181.697C171.709 181.732 171.484 181.764 171.264 181.793C171.047 181.817 170.871 181.839 170.736 181.857C170.41 181.899 170.104 181.968 169.82 182.064C169.54 182.157 169.312 182.297 169.138 182.485C168.968 182.67 168.883 182.922 168.883 183.241C168.883 183.678 169.044 184.009 169.367 184.232C169.694 184.452 170.108 184.562 170.608 184.562Z" fill="black"/>
<path d="M146.948 143.5V132.591H151.252C152.08 132.591 152.784 132.749 153.367 133.065C153.949 133.377 154.393 133.812 154.699 134.37C155.007 134.924 155.162 135.563 155.162 136.288C155.162 137.012 155.006 137.651 154.693 138.205C154.381 138.759 153.928 139.191 153.335 139.5C152.745 139.809 152.032 139.963 151.194 139.963H148.45V138.115H150.821C151.265 138.115 151.63 138.038 151.918 137.886C152.209 137.729 152.426 137.515 152.568 137.241C152.713 136.964 152.786 136.646 152.786 136.288C152.786 135.925 152.713 135.609 152.568 135.339C152.426 135.066 152.209 134.855 151.918 134.706C151.627 134.553 151.257 134.477 150.81 134.477H149.255V143.5H146.948ZM158.731 143.654C158.209 143.654 157.744 143.564 157.335 143.383C156.927 143.198 156.604 142.926 156.366 142.568C156.131 142.206 156.014 141.755 156.014 141.215C156.014 140.76 156.098 140.379 156.265 140.07C156.431 139.761 156.659 139.512 156.946 139.324C157.234 139.136 157.561 138.994 157.926 138.898C158.296 138.802 158.683 138.734 159.088 138.695C159.564 138.646 159.947 138.599 160.238 138.557C160.529 138.511 160.741 138.443 160.872 138.354C161.004 138.266 161.069 138.134 161.069 137.96V137.928C161.069 137.591 160.963 137.33 160.75 137.145C160.54 136.961 160.242 136.868 159.855 136.868C159.446 136.868 159.121 136.959 158.88 137.14C158.638 137.317 158.479 137.541 158.401 137.811L156.302 137.641C156.408 137.143 156.618 136.714 156.93 136.352C157.243 135.986 157.646 135.705 158.14 135.51C158.637 135.311 159.212 135.212 159.865 135.212C160.32 135.212 160.755 135.265 161.17 135.371C161.589 135.478 161.961 135.643 162.284 135.867C162.61 136.091 162.868 136.378 163.056 136.73C163.244 137.078 163.338 137.495 163.338 137.982V143.5H161.186V142.365H161.123C160.991 142.621 160.815 142.847 160.595 143.042C160.375 143.234 160.11 143.385 159.801 143.495C159.493 143.601 159.136 143.654 158.731 143.654ZM159.381 142.088C159.714 142.088 160.009 142.023 160.265 141.891C160.521 141.756 160.721 141.575 160.867 141.348C161.012 141.121 161.085 140.863 161.085 140.576V139.707C161.014 139.754 160.917 139.796 160.792 139.835C160.672 139.871 160.535 139.904 160.382 139.936C160.229 139.965 160.077 139.991 159.924 140.016C159.771 140.038 159.633 140.057 159.509 140.075C159.242 140.114 159.01 140.176 158.811 140.261C158.612 140.347 158.457 140.462 158.347 140.608C158.237 140.75 158.182 140.927 158.182 141.14C158.182 141.449 158.294 141.685 158.518 141.849C158.745 142.009 159.033 142.088 159.381 142.088ZM168.785 146.739C168.05 146.739 167.42 146.637 166.894 146.435C166.372 146.236 165.956 145.964 165.648 145.62C165.339 145.276 165.138 144.888 165.046 144.459L167.144 144.176C167.208 144.34 167.309 144.493 167.448 144.635C167.586 144.777 167.769 144.89 167.997 144.975C168.227 145.064 168.508 145.109 168.838 145.109C169.332 145.109 169.738 144.988 170.058 144.746C170.381 144.509 170.543 144.109 170.543 143.548V142.051H170.447C170.347 142.278 170.198 142.493 169.999 142.696C169.801 142.898 169.545 143.063 169.232 143.191C168.92 143.319 168.547 143.383 168.114 143.383C167.499 143.383 166.94 143.241 166.436 142.957C165.935 142.669 165.536 142.23 165.237 141.641C164.943 141.048 164.795 140.299 164.795 139.393C164.795 138.466 164.946 137.692 165.248 137.071C165.55 136.449 165.951 135.984 166.452 135.675C166.956 135.366 167.508 135.212 168.108 135.212C168.567 135.212 168.95 135.29 169.259 135.446C169.568 135.599 169.817 135.79 170.005 136.021C170.197 136.249 170.344 136.472 170.447 136.692H170.532V135.318H172.785V143.58C172.785 144.276 172.615 144.858 172.274 145.327C171.933 145.796 171.461 146.147 170.857 146.382C170.257 146.62 169.566 146.739 168.785 146.739ZM168.833 141.678C169.199 141.678 169.508 141.588 169.76 141.407C170.015 141.222 170.211 140.959 170.346 140.618C170.484 140.274 170.553 139.862 170.553 139.382C170.553 138.903 170.486 138.488 170.351 138.136C170.216 137.781 170.021 137.506 169.765 137.31C169.509 137.115 169.199 137.017 168.833 137.017C168.46 137.017 168.146 137.119 167.89 137.321C167.634 137.52 167.441 137.797 167.309 138.152C167.178 138.507 167.112 138.917 167.112 139.382C167.112 139.855 167.178 140.263 167.309 140.608C167.444 140.949 167.638 141.213 167.89 141.401C168.146 141.586 168.46 141.678 168.833 141.678ZM178.288 143.66C177.46 143.66 176.745 143.484 176.141 143.132C175.541 142.777 175.078 142.284 174.751 141.652C174.424 141.016 174.261 140.279 174.261 139.441C174.261 138.596 174.424 137.857 174.751 137.225C175.078 136.589 175.541 136.096 176.141 135.744C176.745 135.389 177.46 135.212 178.288 135.212C179.115 135.212 179.829 135.389 180.429 135.744C181.033 136.096 181.498 136.589 181.825 137.225C182.151 137.857 182.315 138.596 182.315 139.441C182.315 140.279 182.151 141.016 181.825 141.652C181.498 142.284 181.033 142.777 180.429 143.132C179.829 143.484 179.115 143.66 178.288 143.66ZM178.298 141.902C178.675 141.902 178.989 141.795 179.241 141.582C179.493 141.366 179.683 141.071 179.811 140.698C179.943 140.325 180.008 139.901 180.008 139.425C180.008 138.949 179.943 138.525 179.811 138.152C179.683 137.779 179.493 137.484 179.241 137.268C178.989 137.051 178.675 136.943 178.298 136.943C177.919 136.943 177.599 137.051 177.34 137.268C177.084 137.484 176.89 137.779 176.759 138.152C176.631 138.525 176.567 138.949 176.567 139.425C176.567 139.901 176.631 140.325 176.759 140.698C176.89 141.071 177.084 141.366 177.34 141.582C177.599 141.795 177.919 141.902 178.298 141.902ZM187.305 143.5V132.591H191.609C192.436 132.591 193.141 132.749 193.723 133.065C194.306 133.377 194.75 133.812 195.055 134.37C195.364 134.924 195.518 135.563 195.518 136.288C195.518 137.012 195.362 137.651 195.05 138.205C194.737 138.759 194.284 139.191 193.691 139.5C193.102 139.809 192.388 139.963 191.55 139.963H188.807V138.115H191.177C191.621 138.115 191.987 138.038 192.274 137.886C192.566 137.729 192.782 137.515 192.924 137.241C193.07 136.964 193.143 136.646 193.143 136.288C193.143 135.925 193.07 135.609 192.924 135.339C192.782 135.066 192.566 134.855 192.274 134.706C191.983 134.553 191.614 134.477 191.166 134.477H189.611V143.5H187.305ZM199.087 143.654C198.565 143.654 198.1 143.564 197.692 143.383C197.283 143.198 196.96 142.926 196.722 142.568C196.488 142.206 196.371 141.755 196.371 141.215C196.371 140.76 196.454 140.379 196.621 140.07C196.788 139.761 197.015 139.512 197.303 139.324C197.59 139.136 197.917 138.994 198.283 138.898C198.652 138.802 199.039 138.734 199.444 138.695C199.92 138.646 200.304 138.599 200.595 138.557C200.886 138.511 201.097 138.443 201.229 138.354C201.36 138.266 201.426 138.134 201.426 137.96V137.928C201.426 137.591 201.319 137.33 201.106 137.145C200.897 136.961 200.598 136.868 200.211 136.868C199.803 136.868 199.478 136.959 199.236 137.14C198.995 137.317 198.835 137.541 198.757 137.811L196.658 137.641C196.765 137.143 196.974 136.714 197.287 136.352C197.599 135.986 198.002 135.705 198.496 135.51C198.993 135.311 199.568 135.212 200.222 135.212C200.676 135.212 201.111 135.265 201.527 135.371C201.946 135.478 202.317 135.643 202.64 135.867C202.967 136.091 203.224 136.378 203.413 136.73C203.601 137.078 203.695 137.495 203.695 137.982V143.5H201.543V142.365H201.479C201.348 142.621 201.172 142.847 200.952 143.042C200.731 143.234 200.467 143.385 200.158 143.495C199.849 143.601 199.492 143.654 199.087 143.654ZM199.737 142.088C200.071 142.088 200.366 142.023 200.621 141.891C200.877 141.756 201.078 141.575 201.223 141.348C201.369 141.121 201.442 140.863 201.442 140.576V139.707C201.371 139.754 201.273 139.796 201.149 139.835C201.028 139.871 200.891 139.904 200.739 139.936C200.586 139.965 200.433 139.991 200.28 140.016C200.128 140.038 199.989 140.057 199.865 140.075C199.599 140.114 199.366 140.176 199.167 140.261C198.968 140.347 198.814 140.462 198.704 140.608C198.594 140.75 198.539 140.927 198.539 141.14C198.539 141.449 198.65 141.685 198.874 141.849C199.101 142.009 199.389 142.088 199.737 142.088ZM209.141 146.739C208.406 146.739 207.776 146.637 207.25 146.435C206.728 146.236 206.313 145.964 206.004 145.62C205.695 145.276 205.494 144.888 205.402 144.459L207.501 144.176C207.565 144.34 207.666 144.493 207.804 144.635C207.943 144.777 208.126 144.89 208.353 144.975C208.584 145.064 208.864 145.109 209.195 145.109C209.688 145.109 210.095 144.988 210.415 144.746C210.738 144.509 210.899 144.109 210.899 143.548V142.051H210.803C210.704 142.278 210.555 142.493 210.356 142.696C210.157 142.898 209.901 143.063 209.589 143.191C209.276 143.319 208.903 143.383 208.47 143.383C207.856 143.383 207.297 143.241 206.792 142.957C206.292 142.669 205.892 142.23 205.594 141.641C205.299 141.048 205.152 140.299 205.152 139.393C205.152 138.466 205.303 137.692 205.604 137.071C205.906 136.449 206.308 135.984 206.808 135.675C207.313 135.366 207.865 135.212 208.465 135.212C208.923 135.212 209.307 135.29 209.616 135.446C209.924 135.599 210.173 135.79 210.361 136.021C210.553 136.249 210.7 136.472 210.803 136.692H210.889V135.318H213.142V143.58C213.142 144.276 212.971 144.858 212.63 145.327C212.29 145.796 211.817 146.147 211.214 146.382C210.613 146.62 209.923 146.739 209.141 146.739ZM209.189 141.678C209.555 141.678 209.864 141.588 210.116 141.407C210.372 141.222 210.567 140.959 210.702 140.618C210.841 140.274 210.91 139.862 210.91 139.382C210.91 138.903 210.842 138.488 210.707 138.136C210.573 137.781 210.377 137.506 210.122 137.31C209.866 137.115 209.555 137.017 209.189 137.017C208.816 137.017 208.502 137.119 208.247 137.321C207.991 137.52 207.797 137.797 207.666 138.152C207.535 138.507 207.469 138.917 207.469 139.382C207.469 139.855 207.535 140.263 207.666 140.608C207.801 140.949 207.994 141.213 208.247 141.401C208.502 141.586 208.816 141.678 209.189 141.678ZM218.644 143.66C217.817 143.66 217.101 143.484 216.498 143.132C215.897 142.777 215.434 142.284 215.107 141.652C214.781 141.016 214.617 140.279 214.617 139.441C214.617 138.596 214.781 137.857 215.107 137.225C215.434 136.589 215.897 136.096 216.498 135.744C217.101 135.389 217.817 135.212 218.644 135.212C219.472 135.212 220.185 135.389 220.786 135.744C221.389 136.096 221.854 136.589 222.181 137.225C222.508 137.857 222.671 138.596 222.671 139.441C222.671 140.279 222.508 141.016 222.181 141.652C221.854 142.284 221.389 142.777 220.786 143.132C220.185 143.484 219.472 143.66 218.644 143.66ZM218.655 141.902C219.031 141.902 219.346 141.795 219.598 141.582C219.85 141.366 220.04 141.071 220.168 140.698C220.299 140.325 220.365 139.901 220.365 139.425C220.365 138.949 220.299 138.525 220.168 138.152C220.04 137.779 219.85 137.484 219.598 137.268C219.346 137.051 219.031 136.943 218.655 136.943C218.275 136.943 217.955 137.051 217.696 137.268C217.44 137.484 217.247 137.779 217.116 138.152C216.988 138.525 216.924 138.949 216.924 139.425C216.924 139.901 216.988 140.325 217.116 140.698C217.247 141.071 217.44 141.366 217.696 141.582C217.955 141.795 218.275 141.902 218.655 141.902Z" fill="black"/>
</g>
<defs>
<filter id="filter0_d_128_118" x="0" y="0" width="410" height="311" filterUnits="userSpaceOnUse" color-interpolation-filters="sRGB">
<feFlood flood-opacity="0" result="BackgroundImageFix"/>
<feColorMatrix in="SourceAlpha" type="matrix" values="0 0 0 0 0 0 0 0 0 0 0 0 0 0 0 0 0 0 127 0" result="hardAlpha"/>
<feMorphology radius="1" operator="dilate" in="SourceAlpha" result="effect1_dropShadow_128_118"/>
<feOffset dx="5" dy="5"/>
<feGaussianBlur stdDeviation="5"/>
<feComposite in2="hardAlpha" operator="out"/>
<feColorMatrix type="matrix" values="0 0 0 0 0 0 0 0 0 0 0 0 0 0 0 0 0 0 0.25 0"/>
<feBlend mode="normal" in2="BackgroundImageFix" result="effect1_dropShadow_128_118"/>
<feBlend mode="normal" in="SourceGraphic" in2="effect1_dropShadow_128_118" result="shape"/>
</filter>
</defs>
</svg>
