<svg width="660" height="793" viewBox="0 0 660 793" fill="none" xmlns="http://www.w3.org/2000/svg">
<path d="M53.7216 518V500.545H60.267C61.608 500.545 62.733 500.795 63.642 501.295C64.5568 501.795 65.2472 502.483 65.7131 503.358C66.1847 504.227 66.4205 505.216 66.4205 506.324C66.4205 507.443 66.1847 508.437 65.7131 509.307C65.2415 510.176 64.5455 510.861 63.625 511.361C62.7045 511.855 61.571 512.102 60.2244 512.102H55.8864V509.503H59.7983C60.5824 509.503 61.2244 509.366 61.7244 509.094C62.2244 508.821 62.5938 508.446 62.8324 507.969C63.0767 507.491 63.1989 506.943 63.1989 506.324C63.1989 505.705 63.0767 505.159 62.8324 504.688C62.5938 504.216 62.2216 503.849 61.7159 503.588C61.2159 503.321 60.571 503.188 59.7812 503.188H56.8835V518H53.7216ZM72.5632 518.264C71.7337 518.264 70.9865 518.116 70.3217 517.821C69.6626 517.52 69.1399 517.077 68.7536 516.491C68.3729 515.906 68.1825 515.185 68.1825 514.327C68.1825 513.588 68.3189 512.977 68.5916 512.494C68.8643 512.011 69.2365 511.625 69.7081 511.335C70.1797 511.045 70.7109 510.827 71.3018 510.679C71.8984 510.526 72.5149 510.415 73.1513 510.347C73.9183 510.267 74.5405 510.196 75.0178 510.134C75.495 510.065 75.8416 509.963 76.0575 509.827C76.2791 509.685 76.3899 509.466 76.3899 509.17V509.119C76.3899 508.477 76.1996 507.98 75.8189 507.628C75.4382 507.276 74.8899 507.099 74.174 507.099C73.4183 507.099 72.8189 507.264 72.3757 507.594C71.9382 507.923 71.6428 508.312 71.4893 508.761L68.6087 508.352C68.8359 507.557 69.2109 506.892 69.7337 506.358C70.2564 505.818 70.8956 505.415 71.6513 505.148C72.407 504.875 73.2422 504.739 74.157 504.739C74.7876 504.739 75.4155 504.812 76.0405 504.96C76.6655 505.108 77.2365 505.352 77.7536 505.693C78.2706 506.028 78.6854 506.486 78.9979 507.065C79.3161 507.645 79.4751 508.369 79.4751 509.239V518H76.5092V516.202H76.407C76.2195 516.565 75.9553 516.906 75.6143 517.224C75.2791 517.537 74.8558 517.79 74.3445 517.983C73.8388 518.17 73.245 518.264 72.5632 518.264ZM73.3643 515.997C73.9837 515.997 74.5206 515.875 74.9751 515.631C75.4297 515.381 75.7791 515.051 76.0234 514.642C76.2734 514.233 76.3984 513.787 76.3984 513.304V511.761C76.3018 511.841 76.1371 511.915 75.9041 511.983C75.6768 512.051 75.4212 512.111 75.1371 512.162C74.853 512.213 74.5717 512.259 74.2933 512.298C74.0149 512.338 73.7734 512.372 73.5689 512.401C73.1087 512.463 72.6967 512.565 72.3331 512.707C71.9695 512.849 71.6825 513.048 71.4723 513.304C71.2621 513.554 71.157 513.878 71.157 514.276C71.157 514.844 71.3643 515.273 71.7791 515.562C72.1939 515.852 72.7223 515.997 73.3643 515.997ZM88.2876 518.256C86.9808 518.256 85.8587 517.969 84.9212 517.395C83.9893 516.821 83.2706 516.028 82.7649 515.017C82.2649 514 82.0149 512.83 82.0149 511.506C82.0149 510.176 82.2706 509.003 82.782 507.986C83.2933 506.963 84.0149 506.168 84.9467 505.599C85.8842 505.026 86.9922 504.739 88.2706 504.739C89.3331 504.739 90.2734 504.935 91.0916 505.327C91.9155 505.713 92.5717 506.261 93.0604 506.972C93.549 507.676 93.8274 508.5 93.8956 509.443H90.9467C90.8274 508.812 90.5433 508.287 90.0945 507.866C89.6513 507.44 89.0575 507.227 88.3132 507.227C87.6825 507.227 87.1286 507.398 86.6513 507.739C86.174 508.074 85.8018 508.557 85.5348 509.188C85.2734 509.818 85.1428 510.574 85.1428 511.455C85.1428 512.347 85.2734 513.114 85.5348 513.756C85.7962 514.392 86.1626 514.884 86.6342 515.23C87.1115 515.571 87.6712 515.741 88.3132 515.741C88.7678 515.741 89.174 515.656 89.532 515.486C89.8956 515.31 90.1996 515.057 90.4439 514.727C90.6882 514.398 90.8558 513.997 90.9467 513.526H93.8956C93.8217 514.452 93.549 515.273 93.0774 515.989C92.6058 516.699 91.9638 517.256 91.1513 517.659C90.3388 518.057 89.3842 518.256 88.2876 518.256ZM96.429 518V504.909H99.5142V518H96.429ZM97.9801 503.051C97.4915 503.051 97.071 502.889 96.7188 502.565C96.3665 502.236 96.1903 501.841 96.1903 501.381C96.1903 500.915 96.3665 500.52 96.7188 500.196C97.071 499.866 97.4915 499.702 97.9801 499.702C98.4744 499.702 98.8949 499.866 99.2415 500.196C99.5938 500.52 99.7699 500.915 99.7699 501.381C99.7699 501.841 99.5938 502.236 99.2415 502.565C98.8949 502.889 98.4744 503.051 97.9801 503.051ZM109.317 504.909V507.295H101.579V504.909H109.317ZM103.513 518V503.673C103.513 502.793 103.695 502.06 104.059 501.474C104.428 500.889 104.923 500.452 105.542 500.162C106.161 499.872 106.849 499.727 107.604 499.727C108.138 499.727 108.613 499.77 109.028 499.855C109.442 499.94 109.749 500.017 109.948 500.085L109.335 502.472C109.204 502.432 109.039 502.392 108.84 502.352C108.641 502.307 108.42 502.284 108.175 502.284C107.602 502.284 107.195 502.423 106.957 502.702C106.724 502.974 106.607 503.366 106.607 503.878V518H103.513ZM111.734 518V504.909H114.819V518H111.734ZM113.285 503.051C112.796 503.051 112.376 502.889 112.023 502.565C111.671 502.236 111.495 501.841 111.495 501.381C111.495 500.915 111.671 500.52 112.023 500.196C112.376 499.866 112.796 499.702 113.285 499.702C113.779 499.702 114.2 499.866 114.546 500.196C114.898 500.52 115.075 500.915 115.075 501.381C115.075 501.841 114.898 502.236 114.546 502.565C114.2 502.889 113.779 503.051 113.285 503.051ZM123.702 518.256C122.395 518.256 121.273 517.969 120.335 517.395C119.403 516.821 118.685 516.028 118.179 515.017C117.679 514 117.429 512.83 117.429 511.506C117.429 510.176 117.685 509.003 118.196 507.986C118.707 506.963 119.429 506.168 120.361 505.599C121.298 505.026 122.406 504.739 123.685 504.739C124.747 504.739 125.688 504.935 126.506 505.327C127.33 505.713 127.986 506.261 128.474 506.972C128.963 507.676 129.241 508.5 129.31 509.443H126.361C126.241 508.812 125.957 508.287 125.509 507.866C125.065 507.44 124.472 507.227 123.727 507.227C123.097 507.227 122.543 507.398 122.065 507.739C121.588 508.074 121.216 508.557 120.949 509.188C120.688 509.818 120.557 510.574 120.557 511.455C120.557 512.347 120.688 513.114 120.949 513.756C121.21 514.392 121.577 514.884 122.048 515.23C122.526 515.571 123.085 515.741 123.727 515.741C124.182 515.741 124.588 515.656 124.946 515.486C125.31 515.31 125.614 515.057 125.858 514.727C126.102 514.398 126.27 513.997 126.361 513.526H129.31C129.236 514.452 128.963 515.273 128.491 515.989C128.02 516.699 127.378 517.256 126.565 517.659C125.753 518.057 124.798 518.256 123.702 518.256ZM69.3182 538.273C69.3182 540.153 68.9659 541.764 68.2614 543.105C67.5625 544.44 66.608 545.463 65.3977 546.173C64.1932 546.884 62.8267 547.239 61.2983 547.239C59.7699 547.239 58.4006 546.884 57.1903 546.173C55.9858 545.457 55.0313 544.432 54.3267 543.097C53.6278 541.756 53.2784 540.148 53.2784 538.273C53.2784 536.392 53.6278 534.784 54.3267 533.449C55.0313 532.108 55.9858 531.082 57.1903 530.372C58.4006 529.662 59.7699 529.307 61.2983 529.307C62.8267 529.307 64.1932 529.662 65.3977 530.372C66.608 531.082 67.5625 532.108 68.2614 533.449C68.9659 534.784 69.3182 536.392 69.3182 538.273ZM66.1392 538.273C66.1392 536.949 65.9318 535.832 65.517 534.923C65.108 534.009 64.5398 533.318 63.8125 532.852C63.0852 532.381 62.2472 532.145 61.2983 532.145C60.3494 532.145 59.5114 532.381 58.7841 532.852C58.0568 533.318 57.4858 534.009 57.071 534.923C56.6619 535.832 56.4574 536.949 56.4574 538.273C56.4574 539.597 56.6619 540.716 57.071 541.631C57.4858 542.54 58.0568 543.23 58.7841 543.702C59.5114 544.168 60.3494 544.401 61.2983 544.401C62.2472 544.401 63.0852 544.168 63.8125 543.702C64.5398 543.23 65.108 542.54 65.517 541.631C65.9318 540.716 66.1392 539.597 66.1392 538.273ZM77.8814 547.256C76.5746 547.256 75.4524 546.969 74.5149 546.395C73.5831 545.821 72.8643 545.028 72.3587 544.017C71.8587 543 71.6087 541.83 71.6087 540.506C71.6087 539.176 71.8643 538.003 72.3757 536.986C72.8871 535.963 73.6087 535.168 74.5405 534.599C75.478 534.026 76.5859 533.739 77.8643 533.739C78.9268 533.739 79.8672 533.935 80.6854 534.327C81.5092 534.713 82.1655 535.261 82.6541 535.972C83.1428 536.676 83.4212 537.5 83.4893 538.443H80.5405C80.4212 537.812 80.1371 537.287 79.6882 536.866C79.245 536.44 78.6513 536.227 77.907 536.227C77.2763 536.227 76.7223 536.398 76.245 536.739C75.7678 537.074 75.3956 537.557 75.1286 538.188C74.8672 538.818 74.7365 539.574 74.7365 540.455C74.7365 541.347 74.8672 542.114 75.1286 542.756C75.3899 543.392 75.7564 543.884 76.228 544.23C76.7053 544.571 77.2649 544.741 77.907 544.741C78.3615 544.741 78.7678 544.656 79.1257 544.486C79.4893 544.31 79.7933 544.057 80.0376 543.727C80.282 543.398 80.4496 542.997 80.5405 542.526H83.4893C83.4155 543.452 83.1428 544.273 82.6712 544.989C82.1996 545.699 81.5575 546.256 80.745 546.659C79.9325 547.057 78.978 547.256 77.8814 547.256ZM91.8182 547.256C90.5057 547.256 89.3722 546.983 88.4176 546.438C87.4688 545.886 86.7386 545.108 86.2273 544.102C85.7159 543.091 85.4602 541.901 85.4602 540.531C85.4602 539.185 85.7159 538.003 86.2273 536.986C86.7443 535.963 87.4659 535.168 88.392 534.599C89.3182 534.026 90.4062 533.739 91.6562 533.739C92.4631 533.739 93.2244 533.869 93.9403 534.131C94.6619 534.386 95.2983 534.784 95.8494 535.324C96.4063 535.864 96.8438 536.551 97.1619 537.386C97.4801 538.216 97.6392 539.205 97.6392 540.352V541.298H86.9091V539.219H94.6818C94.6761 538.628 94.5483 538.102 94.2983 537.642C94.0483 537.176 93.6989 536.81 93.25 536.543C92.8068 536.276 92.2898 536.142 91.6989 536.142C91.0682 536.142 90.5142 536.295 90.0369 536.602C89.5597 536.903 89.1875 537.301 88.9205 537.795C88.6591 538.284 88.5256 538.821 88.5199 539.406V541.222C88.5199 541.983 88.6591 542.636 88.9375 543.182C89.2159 543.722 89.6051 544.136 90.1051 544.426C90.6051 544.71 91.1903 544.852 91.8608 544.852C92.3097 544.852 92.7159 544.79 93.0795 544.665C93.4432 544.534 93.7585 544.344 94.0256 544.094C94.2926 543.844 94.4943 543.534 94.6307 543.165L97.5114 543.489C97.3295 544.25 96.983 544.915 96.4716 545.483C95.9659 546.045 95.3182 546.483 94.5284 546.795C93.7386 547.102 92.8352 547.256 91.8182 547.256ZM104.016 547.264C103.187 547.264 102.44 547.116 101.775 546.821C101.116 546.52 100.593 546.077 100.207 545.491C99.826 544.906 99.6357 544.185 99.6357 543.327C99.6357 542.588 99.772 541.977 100.045 541.494C100.317 541.011 100.69 540.625 101.161 540.335C101.633 540.045 102.164 539.827 102.755 539.679C103.352 539.526 103.968 539.415 104.604 539.347C105.371 539.267 105.994 539.196 106.471 539.134C106.948 539.065 107.295 538.963 107.511 538.827C107.732 538.685 107.843 538.466 107.843 538.17V538.119C107.843 537.477 107.653 536.98 107.272 536.628C106.891 536.276 106.343 536.099 105.627 536.099C104.871 536.099 104.272 536.264 103.829 536.594C103.391 536.923 103.096 537.312 102.942 537.761L100.062 537.352C100.289 536.557 100.664 535.892 101.187 535.358C101.71 534.818 102.349 534.415 103.104 534.148C103.86 533.875 104.695 533.739 105.61 533.739C106.241 533.739 106.869 533.812 107.494 533.96C108.119 534.108 108.69 534.352 109.207 534.693C109.724 535.028 110.138 535.486 110.451 536.065C110.769 536.645 110.928 537.369 110.928 538.239V547H107.962V545.202H107.86C107.673 545.565 107.408 545.906 107.067 546.224C106.732 546.537 106.309 546.79 105.798 546.983C105.292 547.17 104.698 547.264 104.016 547.264ZM104.817 544.997C105.437 544.997 105.974 544.875 106.428 544.631C106.883 544.381 107.232 544.051 107.477 543.642C107.727 543.233 107.852 542.787 107.852 542.304V540.761C107.755 540.841 107.59 540.915 107.357 540.983C107.13 541.051 106.874 541.111 106.59 541.162C106.306 541.213 106.025 541.259 105.746 541.298C105.468 541.338 105.227 541.372 105.022 541.401C104.562 541.463 104.15 541.565 103.786 541.707C103.423 541.849 103.136 542.048 102.925 542.304C102.715 542.554 102.61 542.878 102.61 543.276C102.61 543.844 102.817 544.273 103.232 544.562C103.647 544.852 104.175 544.997 104.817 544.997ZM117.116 539.33V547H114.031V533.909H116.979V536.134H117.133C117.434 535.401 117.914 534.818 118.573 534.386C119.238 533.955 120.059 533.739 121.036 533.739C121.94 533.739 122.727 533.932 123.397 534.318C124.073 534.705 124.596 535.264 124.965 535.997C125.34 536.73 125.525 537.619 125.519 538.665V547H122.434V539.142C122.434 538.267 122.207 537.582 121.752 537.088C121.303 536.594 120.681 536.347 119.886 536.347C119.346 536.347 118.866 536.466 118.445 536.705C118.031 536.937 117.704 537.276 117.465 537.719C117.232 538.162 117.116 538.699 117.116 539.33Z" fill="#00D9E4"/>
<path d="M622.963 682H619.588L625.733 664.545H629.636L635.79 682H632.415L627.753 668.125H627.616L622.963 682ZM623.074 675.156H632.278V677.696H623.074V675.156ZM637.765 682V680.031L646.714 667.196H637.714V664.545H650.634V666.514L641.694 679.349H650.685V682H637.765Z" fill="#FFE587"/>
<path d="M408.065 316.545V334H405.253L397.028 322.111H396.884V334H393.722V316.545H396.551L404.767 328.443H404.92V316.545H408.065ZM411.511 334V316.545H422.863V319.196H414.673V323.935H422.275V326.585H414.673V331.349H422.931V334H411.511Z" fill="#FFE587"/>
<path d="M137.318 14.2727C137.318 16.1534 136.966 17.7642 136.261 19.1051C135.563 20.4403 134.608 21.4631 133.398 22.1733C132.193 22.8835 130.827 23.2386 129.298 23.2386C127.77 23.2386 126.401 22.8835 125.19 22.1733C123.986 21.4574 123.031 20.4318 122.327 19.0966C121.628 17.7557 121.278 16.1477 121.278 14.2727C121.278 12.392 121.628 10.7841 122.327 9.44886C123.031 8.10795 123.986 7.08239 125.19 6.37216C126.401 5.66193 127.77 5.30682 129.298 5.30682C130.827 5.30682 132.193 5.66193 133.398 6.37216C134.608 7.08239 135.563 8.10795 136.261 9.44886C136.966 10.7841 137.318 12.392 137.318 14.2727ZM134.139 14.2727C134.139 12.9489 133.932 11.8324 133.517 10.9233C133.108 10.0085 132.54 9.31818 131.812 8.85227C131.085 8.38068 130.247 8.14489 129.298 8.14489C128.349 8.14489 127.511 8.38068 126.784 8.85227C126.057 9.31818 125.486 10.0085 125.071 10.9233C124.662 11.8324 124.457 12.9489 124.457 14.2727C124.457 15.5966 124.662 16.7159 125.071 17.6307C125.486 18.5398 126.057 19.2301 126.784 19.7017C127.511 20.1676 128.349 20.4006 129.298 20.4006C130.247 20.4006 131.085 20.1676 131.812 19.7017C132.54 19.2301 133.108 18.5398 133.517 17.6307C133.932 16.7159 134.139 15.5966 134.139 14.2727ZM140.308 23V5.54545H146.853C148.194 5.54545 149.319 5.77841 150.228 6.24432C151.143 6.71023 151.833 7.36364 152.299 8.20454C152.771 9.03977 153.006 10.0142 153.006 11.1278C153.006 12.2472 152.768 13.2187 152.29 14.0426C151.819 14.8608 151.123 15.4943 150.202 15.9432C149.282 16.3864 148.151 16.608 146.81 16.608H142.148V13.983H146.384C147.168 13.983 147.81 13.875 148.31 13.6591C148.81 13.4375 149.18 13.1165 149.418 12.696C149.663 12.2699 149.785 11.7472 149.785 11.1278C149.785 10.5085 149.663 9.98011 149.418 9.54261C149.174 9.09943 148.802 8.7642 148.302 8.53693C147.802 8.30398 147.157 8.1875 146.367 8.1875H143.469V23H140.308ZM149.325 15.0909L153.646 23H150.117L145.873 15.0909H149.325Z" fill="#FFE587"/>
<path d="M476.722 774.545H480.591L485.773 787.193H485.977L491.159 774.545H495.028V792H491.994V780.009H491.832L487.009 791.949H484.741L479.918 779.983H479.756V792H476.722V774.545ZM504.131 792.256C502.818 792.256 501.685 791.983 500.73 791.438C499.781 790.886 499.051 790.108 498.54 789.102C498.028 788.091 497.773 786.901 497.773 785.531C497.773 784.185 498.028 783.003 498.54 781.986C499.057 780.963 499.778 780.168 500.705 779.599C501.631 779.026 502.719 778.739 503.969 778.739C504.776 778.739 505.537 778.869 506.253 779.131C506.974 779.386 507.611 779.784 508.162 780.324C508.719 780.864 509.156 781.551 509.474 782.386C509.793 783.216 509.952 784.205 509.952 785.352V786.298H499.222V784.219H506.994C506.989 783.628 506.861 783.102 506.611 782.642C506.361 782.176 506.011 781.81 505.562 781.543C505.119 781.276 504.602 781.142 504.011 781.142C503.381 781.142 502.827 781.295 502.349 781.602C501.872 781.903 501.5 782.301 501.233 782.795C500.972 783.284 500.838 783.821 500.832 784.406V786.222C500.832 786.983 500.972 787.636 501.25 788.182C501.528 788.722 501.918 789.136 502.418 789.426C502.918 789.71 503.503 789.852 504.173 789.852C504.622 789.852 505.028 789.79 505.392 789.665C505.756 789.534 506.071 789.344 506.338 789.094C506.605 788.844 506.807 788.534 506.943 788.165L509.824 788.489C509.642 789.25 509.295 789.915 508.784 790.483C508.278 791.045 507.631 791.483 506.841 791.795C506.051 792.102 505.148 792.256 504.131 792.256ZM514.803 778.909L517.445 783.741L520.13 778.909H523.394L519.448 785.455L523.462 792H520.215L517.445 787.287L514.701 792H511.428L515.417 785.455L511.531 778.909H514.803ZM525.781 792V778.909H528.866V792H525.781ZM527.332 777.051C526.843 777.051 526.423 776.889 526.07 776.565C525.718 776.236 525.542 775.841 525.542 775.381C525.542 774.915 525.718 774.52 526.07 774.196C526.423 773.866 526.843 773.702 527.332 773.702C527.826 773.702 528.246 773.866 528.593 774.196C528.945 774.52 529.121 774.915 529.121 775.381C529.121 775.841 528.945 776.236 528.593 776.565C528.246 776.889 527.826 777.051 527.332 777.051ZM537.749 792.256C536.442 792.256 535.32 791.969 534.382 791.395C533.45 790.821 532.732 790.028 532.226 789.017C531.726 788 531.476 786.83 531.476 785.506C531.476 784.176 531.732 783.003 532.243 781.986C532.754 780.963 533.476 780.168 534.408 779.599C535.345 779.026 536.453 778.739 537.732 778.739C538.794 778.739 539.734 778.935 540.553 779.327C541.376 779.713 542.033 780.261 542.521 780.972C543.01 781.676 543.288 782.5 543.357 783.443H540.408C540.288 782.812 540.004 782.287 539.555 781.866C539.112 781.44 538.518 781.227 537.774 781.227C537.143 781.227 536.589 781.398 536.112 781.739C535.635 782.074 535.263 782.557 534.996 783.188C534.734 783.818 534.604 784.574 534.604 785.455C534.604 786.347 534.734 787.114 534.996 787.756C535.257 788.392 535.624 788.884 536.095 789.23C536.572 789.571 537.132 789.741 537.774 789.741C538.229 789.741 538.635 789.656 538.993 789.486C539.357 789.31 539.661 789.057 539.905 788.727C540.149 788.398 540.317 787.997 540.408 787.526H543.357C543.283 788.452 543.01 789.273 542.538 789.989C542.067 790.699 541.425 791.256 540.612 791.659C539.8 792.057 538.845 792.256 537.749 792.256ZM551.6 792.256C550.322 792.256 549.214 791.974 548.276 791.412C547.339 790.849 546.612 790.062 546.094 789.051C545.583 788.04 545.327 786.858 545.327 785.506C545.327 784.153 545.583 782.969 546.094 781.952C546.612 780.935 547.339 780.145 548.276 779.582C549.214 779.02 550.322 778.739 551.6 778.739C552.879 778.739 553.987 779.02 554.924 779.582C555.862 780.145 556.586 780.935 557.097 781.952C557.614 782.969 557.873 784.153 557.873 785.506C557.873 786.858 557.614 788.04 557.097 789.051C556.586 790.062 555.862 790.849 554.924 791.412C553.987 791.974 552.879 792.256 551.6 792.256ZM551.617 789.784C552.31 789.784 552.89 789.594 553.356 789.213C553.822 788.827 554.168 788.31 554.396 787.662C554.629 787.014 554.745 786.293 554.745 785.497C554.745 784.696 554.629 783.972 554.396 783.324C554.168 782.67 553.822 782.151 553.356 781.764C552.89 781.378 552.31 781.185 551.617 781.185C550.907 781.185 550.316 781.378 549.844 781.764C549.379 782.151 549.029 782.67 548.796 783.324C548.569 783.972 548.455 784.696 548.455 785.497C548.455 786.293 548.569 787.014 548.796 787.662C549.029 788.31 549.379 788.827 549.844 789.213C550.316 789.594 550.907 789.784 551.617 789.784Z" fill="#00E45F"/>
<line x1="601.992" y1="561.129" x2="598.992" y2="584.129" stroke="#FFE587" stroke-width="2"/>
<line x1="293" y1="33" x2="270" y2="33" stroke="#FFE587" stroke-width="2"/>
<path d="M12.1822 55.3695V42.7867L10.7844 38.5924L12.1822 33H269.373L270 276.5L271 277.5L321 320.5L414.742 407.69L487 475.5L599.249 583.85V591.5L603.442 597.831L610.431 609.015L614.624 621.598L620 626L627 632L630 636.977L628 638L618 645.5L612 649L611 654L605.5 660L606.238 662.774V684.512L602.044 697.095L596.453 699.891L593.658 704.086L596.453 712.474L593.658 723L596.453 727.5H604.5L609 732L607.5 743L602.044 750.223L595 751L451 764H445.493V753.408L442.5 752L438.5 747.5L437.107 734.844L433 722.5L425.5 710.5L410.5 696L399 687.5L394 684L385 674.5L383.5 675.5L377 676.5L375.5 679L370 678L368.616 667.5L362.5 658.5L356.036 659.347H343.456L332.273 657.949L315 643V639.5L298.5 628.5L277 627.5L275.5 625.5L269 623C268.068 622.068 242.536 624.118 241.418 623C240.3 621.882 237.398 616.534 236 617H232.5L231.633 609.5V595.5L229 585.5L230.236 575.461L226 570L217 568V558.5L219.053 558L218 555L214 550L208.5 546.5L205.5 544.5L201 540L197.5 534.5L193.5 534L190 531V528L180 517L179.5 509.5L173 506.5L171 501.5L165.5 494.5L160 491L151.96 481.789L151.5 474V470L149.5 468V464L151.5 461.5L157.5 460.5V455L158.949 448.234L153.358 438.448C148.699 437.982 139.38 436.77 139.38 435.651C139.38 434.533 128.198 424.001 122.607 418.874V410.486L119.811 406.291L117.016 397.903L115.618 379.728V372.737L118.413 369.941L122.607 372.737L125.402 378.33V388.116L135.187 393.709L137.982 390.912L139.38 385.32L132.391 376.931L126.8 374.135L125.402 371.339L126.8 368.543L125.402 360.154L126.8 355.96L132.391 351.766V350.368L126.8 347.571H121.209L118.413 350.368L119.811 354.562L118.413 361.552L117.016 364.349V368.543V369.941H114.22L110.027 368.543L94.6511 357.358L87.6622 355.96L86.2644 346.173L89.06 344.775V343.377L87.6622 341.979L86.2644 334.989L83.4689 332.192V329.396L82.0711 326.6L79.2756 323.804L77.8778 319.61L75.0822 318.211H72.2867L69.4911 314.017L62.5022 308.425L61.1044 304.23L56.9111 300.036L51.32 298.638V294.444L48.5244 291.648L41.5356 284.657V281.001L44.3311 279.065L42.9333 274.87L41.5356 270.676L40.1378 263.686L38.74 259.491L35.9444 251.103V241.316L38.74 238.52L37.3422 223.141L35.9444 220.345L31.7511 210.558L21.9667 195.179L7.98889 182.596L2.39778 177.004L1 168.615L2.39778 154.634L3.79556 149.042L6.59111 142.051L13.58 137.857L16.3756 125.274V98.7105L19.1711 97.3124V73.5448L17.7733 69.3505L16.3756 65.1562L12.1822 55.3695Z" fill="#97DCFF" stroke="white" stroke-width="2"/>
<circle cx="177.511" cy="306.511" r="9.01136" fill="#FF8F87" stroke="black"/>
<path d="M121.444 276.047C121.373 275.331 121.068 274.775 120.529 274.378C119.991 273.982 119.26 273.783 118.336 273.783C117.709 273.783 117.179 273.872 116.747 274.05C116.315 274.221 115.984 274.461 115.753 274.769C115.528 275.077 115.415 275.426 115.415 275.816C115.404 276.142 115.472 276.426 115.62 276.669C115.774 276.911 115.984 277.121 116.25 277.299C116.516 277.471 116.824 277.622 117.173 277.752C117.522 277.876 117.895 277.983 118.292 278.071L119.925 278.462C120.719 278.64 121.446 278.876 122.109 279.172C122.772 279.468 123.346 279.832 123.832 280.264C124.317 280.696 124.693 281.205 124.959 281.791C125.231 282.377 125.371 283.049 125.376 283.806C125.371 284.919 125.086 285.884 124.524 286.701C123.968 287.511 123.163 288.142 122.109 288.592C121.062 289.036 119.798 289.257 118.319 289.257C116.851 289.257 115.572 289.033 114.483 288.583C113.4 288.133 112.554 287.467 111.944 286.585C111.341 285.697 111.024 284.6 110.994 283.292H114.714C114.756 283.901 114.93 284.41 115.238 284.819C115.552 285.221 115.969 285.526 116.49 285.733C117.016 285.934 117.611 286.035 118.274 286.035C118.925 286.035 119.49 285.94 119.97 285.751C120.455 285.561 120.831 285.298 121.097 284.961C121.364 284.623 121.497 284.236 121.497 283.798C121.497 283.389 121.375 283.046 121.133 282.768C120.896 282.49 120.547 282.253 120.085 282.058C119.629 281.862 119.07 281.685 118.407 281.525L116.428 281.028C114.895 280.655 113.684 280.072 112.797 279.279C111.909 278.486 111.468 277.417 111.474 276.074C111.468 274.973 111.761 274.011 112.353 273.189C112.95 272.366 113.77 271.724 114.812 271.262C115.853 270.8 117.037 270.57 118.363 270.57C119.712 270.57 120.89 270.8 121.896 271.262C122.908 271.724 123.696 272.366 124.258 273.189C124.82 274.011 125.11 274.964 125.128 276.047H121.444ZM131.78 289.257C130.91 289.257 130.134 289.107 129.454 288.805C128.773 288.497 128.234 288.044 127.838 287.446C127.447 286.843 127.252 286.091 127.252 285.191C127.252 284.434 127.391 283.798 127.669 283.283C127.947 282.768 128.326 282.353 128.805 282.04C129.285 281.726 129.829 281.489 130.439 281.33C131.055 281.17 131.7 281.057 132.374 280.992C133.167 280.909 133.807 280.832 134.292 280.761C134.777 280.684 135.129 280.572 135.348 280.424C135.567 280.276 135.677 280.057 135.677 279.767V279.714C135.677 279.152 135.499 278.717 135.144 278.409C134.795 278.101 134.298 277.947 133.653 277.947C132.972 277.947 132.431 278.098 132.028 278.4C131.626 278.696 131.359 279.069 131.229 279.518L127.731 279.234C127.909 278.406 128.258 277.69 128.779 277.086C129.3 276.476 129.971 276.009 130.794 275.683C131.623 275.352 132.582 275.186 133.671 275.186C134.428 275.186 135.153 275.275 135.846 275.452C136.544 275.63 137.162 275.905 137.701 276.278C138.246 276.651 138.675 277.13 138.988 277.716C139.302 278.296 139.459 278.992 139.459 279.803V289H135.872V287.109H135.766C135.547 287.535 135.254 287.911 134.887 288.237C134.52 288.556 134.079 288.808 133.564 288.991C133.049 289.169 132.454 289.257 131.78 289.257ZM132.863 286.647C133.419 286.647 133.91 286.538 134.336 286.319C134.763 286.094 135.097 285.792 135.34 285.413C135.582 285.035 135.704 284.605 135.704 284.126V282.679C135.585 282.756 135.422 282.827 135.215 282.892C135.014 282.951 134.786 283.007 134.532 283.061C134.277 283.108 134.023 283.152 133.768 283.194C133.514 283.229 133.283 283.262 133.076 283.292C132.632 283.357 132.244 283.46 131.913 283.602C131.581 283.744 131.324 283.937 131.14 284.179C130.957 284.416 130.865 284.712 130.865 285.067C130.865 285.582 131.052 285.976 131.424 286.248C131.803 286.514 132.283 286.647 132.863 286.647ZM148.554 289.266C147.157 289.266 145.956 288.97 144.95 288.379C143.95 287.781 143.18 286.952 142.642 285.893C142.109 284.833 141.843 283.614 141.843 282.235C141.843 280.838 142.112 279.613 142.65 278.56C143.195 277.5 143.967 276.675 144.968 276.083C145.968 275.485 147.157 275.186 148.536 275.186C149.726 275.186 150.768 275.402 151.661 275.834C152.555 276.266 153.262 276.873 153.783 277.654C154.304 278.435 154.591 279.353 154.644 280.406H151.076C150.975 279.726 150.709 279.178 150.277 278.764C149.85 278.344 149.291 278.134 148.599 278.134C148.013 278.134 147.501 278.293 147.063 278.613C146.631 278.927 146.293 279.385 146.051 279.989C145.808 280.593 145.687 281.324 145.687 282.182C145.687 283.052 145.805 283.792 146.042 284.401C146.284 285.011 146.625 285.475 147.063 285.795C147.501 286.115 148.013 286.275 148.599 286.275C149.031 286.275 149.418 286.186 149.762 286.008C150.111 285.831 150.398 285.573 150.623 285.236C150.854 284.893 151.005 284.481 151.076 284.002H154.644C154.585 285.043 154.301 285.961 153.792 286.754C153.289 287.541 152.594 288.157 151.706 288.6C150.818 289.044 149.768 289.266 148.554 289.266ZM157.066 289V275.364H160.732V277.743H160.874C161.123 276.897 161.54 276.257 162.126 275.825C162.712 275.387 163.387 275.168 164.15 275.168C164.34 275.168 164.544 275.18 164.763 275.204C164.982 275.228 165.174 275.26 165.34 275.301V278.657C165.162 278.604 164.917 278.557 164.603 278.515C164.289 278.474 164.002 278.453 163.742 278.453C163.186 278.453 162.689 278.574 162.251 278.817C161.818 279.054 161.475 279.385 161.221 279.811C160.972 280.238 160.848 280.729 160.848 281.285V289H157.066ZM170.793 289.257C169.923 289.257 169.148 289.107 168.467 288.805C167.787 288.497 167.248 288.044 166.851 287.446C166.461 286.843 166.266 286.091 166.266 285.191C166.266 284.434 166.405 283.798 166.683 283.283C166.961 282.768 167.34 282.353 167.819 282.04C168.299 281.726 168.843 281.489 169.453 281.33C170.068 281.17 170.713 281.057 171.388 280.992C172.181 280.909 172.82 280.832 173.306 280.761C173.791 280.684 174.143 280.572 174.362 280.424C174.581 280.276 174.691 280.057 174.691 279.767V279.714C174.691 279.152 174.513 278.717 174.158 278.409C173.809 278.101 173.312 277.947 172.666 277.947C171.986 277.947 171.444 278.098 171.042 278.4C170.639 278.696 170.373 279.069 170.243 279.518L166.745 279.234C166.922 278.406 167.272 277.69 167.793 277.086C168.313 276.476 168.985 276.009 169.808 275.683C170.636 275.352 171.595 275.186 172.684 275.186C173.442 275.186 174.167 275.275 174.859 275.452C175.558 275.63 176.176 275.905 176.715 276.278C177.259 276.651 177.688 277.13 178.002 277.716C178.316 278.296 178.473 278.992 178.473 279.803V289H174.886V287.109H174.779C174.56 287.535 174.267 287.911 173.9 288.237C173.534 288.556 173.093 288.808 172.578 288.991C172.063 289.169 171.468 289.257 170.793 289.257ZM171.876 286.647C172.433 286.647 172.924 286.538 173.35 286.319C173.776 286.094 174.111 285.792 174.353 285.413C174.596 285.035 174.717 284.605 174.717 284.126V282.679C174.599 282.756 174.436 282.827 174.229 282.892C174.028 282.951 173.8 283.007 173.545 283.061C173.291 283.108 173.036 283.152 172.782 283.194C172.527 283.229 172.297 283.262 172.089 283.292C171.646 283.357 171.258 283.46 170.926 283.602C170.595 283.744 170.338 283.937 170.154 284.179C169.971 284.416 169.879 284.712 169.879 285.067C169.879 285.582 170.065 285.976 170.438 286.248C170.817 286.514 171.296 286.647 171.876 286.647ZM181.407 289V275.364H185.011V277.77H185.171C185.455 276.971 185.928 276.34 186.591 275.879C187.254 275.417 188.047 275.186 188.971 275.186C189.906 275.186 190.702 275.42 191.359 275.887C192.016 276.349 192.454 276.976 192.673 277.77H192.815C193.093 276.988 193.596 276.364 194.324 275.896C195.058 275.423 195.925 275.186 196.925 275.186C198.198 275.186 199.23 275.592 200.024 276.402C200.823 277.207 201.222 278.35 201.222 279.829V289H197.449V280.575C197.449 279.817 197.248 279.249 196.845 278.87C196.443 278.492 195.94 278.302 195.336 278.302C194.649 278.302 194.114 278.521 193.729 278.959C193.344 279.391 193.152 279.962 193.152 280.673V289H189.486V280.495C189.486 279.826 189.293 279.294 188.908 278.897C188.53 278.5 188.03 278.302 187.408 278.302C186.988 278.302 186.609 278.409 186.272 278.622C185.94 278.829 185.677 279.122 185.482 279.501C185.286 279.874 185.189 280.312 185.189 280.815V289H181.407ZM210.424 289.266C209.021 289.266 207.814 288.982 206.802 288.414C205.796 287.84 205.02 287.029 204.476 285.982C203.931 284.928 203.659 283.682 203.659 282.244C203.659 280.841 203.931 279.61 204.476 278.551C205.02 277.491 205.787 276.666 206.775 276.074C207.769 275.482 208.935 275.186 210.273 275.186C211.173 275.186 212.01 275.331 212.785 275.621C213.567 275.905 214.247 276.334 214.827 276.908C215.413 277.482 215.869 278.205 216.195 279.075C216.52 279.939 216.683 280.951 216.683 282.111V283.15H205.168V280.806H213.123C213.123 280.261 213.004 279.779 212.768 279.359C212.531 278.938 212.202 278.61 211.782 278.373C211.368 278.131 210.886 278.009 210.335 278.009C209.761 278.009 209.252 278.142 208.808 278.409C208.37 278.669 208.027 279.021 207.778 279.465C207.53 279.903 207.402 280.391 207.397 280.93V283.158C207.397 283.833 207.521 284.416 207.769 284.907C208.024 285.399 208.382 285.777 208.844 286.044C209.305 286.31 209.853 286.443 210.486 286.443C210.906 286.443 211.291 286.384 211.64 286.266C211.989 286.147 212.288 285.97 212.537 285.733C212.785 285.496 212.975 285.206 213.105 284.863L216.603 285.094C216.425 285.934 216.061 286.668 215.511 287.295C214.966 287.917 214.262 288.402 213.398 288.751C212.54 289.095 211.548 289.266 210.424 289.266ZM222.933 281.116V289H219.151V275.364H222.755V277.77H222.915C223.217 276.976 223.723 276.349 224.433 275.887C225.143 275.42 226.005 275.186 227.017 275.186C227.964 275.186 228.789 275.393 229.494 275.808C230.198 276.222 230.745 276.814 231.136 277.583C231.527 278.347 231.722 279.258 231.722 280.317V289H227.94V280.992C227.946 280.158 227.733 279.507 227.301 279.039C226.869 278.566 226.274 278.329 225.516 278.329C225.007 278.329 224.557 278.438 224.167 278.657C223.782 278.876 223.48 279.196 223.261 279.616C223.048 280.03 222.939 280.531 222.933 281.116ZM241.956 275.364V278.205H233.744V275.364H241.956ZM235.608 272.097H239.39V284.81C239.39 285.159 239.443 285.431 239.55 285.626C239.656 285.816 239.804 285.949 239.994 286.026C240.189 286.103 240.414 286.141 240.669 286.141C240.846 286.141 241.024 286.127 241.201 286.097C241.379 286.061 241.515 286.035 241.61 286.017L242.204 288.831C242.015 288.891 241.749 288.959 241.405 289.036C241.062 289.118 240.645 289.169 240.154 289.186C239.242 289.222 238.443 289.101 237.757 288.822C237.076 288.544 236.546 288.112 236.167 287.526C235.789 286.94 235.602 286.201 235.608 285.307V272.097ZM250.434 289.266C249.055 289.266 247.863 288.973 246.856 288.387C245.856 287.796 245.084 286.973 244.539 285.919C243.995 284.86 243.722 283.632 243.722 282.235C243.722 280.826 243.995 279.595 244.539 278.542C245.084 277.482 245.856 276.66 246.856 276.074C247.863 275.482 249.055 275.186 250.434 275.186C251.813 275.186 253.003 275.482 254.003 276.074C255.009 276.66 255.785 277.482 256.329 278.542C256.874 279.595 257.146 280.826 257.146 282.235C257.146 283.632 256.874 284.86 256.329 285.919C255.785 286.973 255.009 287.796 254.003 288.387C253.003 288.973 251.813 289.266 250.434 289.266ZM250.452 286.337C251.079 286.337 251.603 286.159 252.023 285.804C252.443 285.443 252.76 284.952 252.973 284.33C253.192 283.709 253.302 283.002 253.302 282.208C253.302 281.415 253.192 280.708 252.973 280.087C252.76 279.465 252.443 278.974 252.023 278.613C251.603 278.252 251.079 278.071 250.452 278.071C249.819 278.071 249.286 278.252 248.854 278.613C248.428 278.974 248.105 279.465 247.886 280.087C247.673 280.708 247.567 281.415 247.567 282.208C247.567 283.002 247.673 283.709 247.886 284.33C248.105 284.952 248.428 285.443 248.854 285.804C249.286 286.159 249.819 286.337 250.452 286.337Z" fill="black"/>
<circle cx="19.5114" cy="51.5114" r="9.01136" fill="#FFE587" stroke="black"/>
<path d="M45.8324 66.5H43.6307C43.5005 65.8667 43.2726 65.3104 42.9471 64.831C42.6275 64.3516 42.2369 63.9491 41.7752 63.6236C41.3195 63.2921 40.8134 63.0436 40.2571 62.8778C39.7008 62.7121 39.1207 62.6293 38.517 62.6293C37.4162 62.6293 36.4189 62.9074 35.5252 63.4638C34.6374 64.0201 33.9302 64.8398 33.4034 65.9229C32.8826 67.006 32.6222 68.3348 32.6222 69.9091C32.6222 71.4834 32.8826 72.8121 33.4034 73.8952C33.9302 74.9783 34.6374 75.7981 35.5252 76.3544C36.4189 76.9107 37.4162 77.1889 38.517 77.1889C39.1207 77.1889 39.7008 77.1061 40.2571 76.9403C40.8134 76.7746 41.3195 76.529 41.7752 76.2035C42.2369 75.872 42.6275 75.4666 42.9471 74.9872C43.2726 74.5019 43.5005 73.9455 43.6307 73.3182H45.8324C45.6667 74.2474 45.3648 75.079 44.9268 75.8129C44.4889 76.5468 43.9444 77.1712 43.2933 77.6861C42.6423 78.1951 41.9113 78.5827 41.1005 78.8491C40.2956 79.1154 39.4344 79.2486 38.517 79.2486C36.9664 79.2486 35.5874 78.8698 34.38 78.1122C33.1726 77.3546 32.2227 76.2775 31.5302 74.8807C30.8377 73.4839 30.4915 71.8267 30.4915 69.9091C30.4915 67.9915 30.8377 66.3343 31.5302 64.9375C32.2227 63.5407 33.1726 62.4635 34.38 61.706C35.5874 60.9484 36.9664 60.5696 38.517 60.5696C39.4344 60.5696 40.2956 60.7028 41.1005 60.9691C41.9113 61.2354 42.6423 61.6261 43.2933 62.141C43.9444 62.65 44.4889 63.2714 44.9268 64.0053C45.3648 64.7333 45.6667 65.5649 45.8324 66.5ZM49.1061 79V65.3636H51.1302V67.4233H51.2723C51.5209 66.7486 51.9707 66.2011 52.6217 65.7809C53.2728 65.3607 54.0067 65.1506 54.8234 65.1506C54.9773 65.1506 55.1697 65.1535 55.4005 65.1594C55.6313 65.1654 55.8059 65.1742 55.9243 65.1861V67.3168C55.8532 67.299 55.6905 67.2724 55.436 67.2369C55.1874 67.1954 54.924 67.1747 54.6459 67.1747C53.983 67.1747 53.3911 67.3138 52.8703 67.592C52.3554 67.8642 51.947 68.243 51.6452 68.7283C51.3492 69.2077 51.2013 69.7552 51.2013 70.3707V79H49.1061ZM63.7101 79.2841C62.3962 79.2841 61.2628 78.9941 60.3099 78.4141C59.363 77.8281 58.632 77.0114 58.1171 75.9638C57.6081 74.9103 57.3536 73.6851 57.3536 72.2884C57.3536 70.8916 57.6081 69.6605 58.1171 68.5952C58.632 67.5239 59.3482 66.6894 60.2655 66.0916C61.1888 65.4879 62.266 65.1861 63.4971 65.1861C64.2073 65.1861 64.9086 65.3045 65.6011 65.5412C66.2936 65.7779 66.9239 66.1626 67.4921 66.6953C68.0603 67.2221 68.5131 67.9205 68.8504 68.7905C69.1878 69.6605 69.3564 70.7318 69.3564 72.0043V72.892H58.8451V71.081H67.2258C67.2258 70.3116 67.0719 69.625 66.7641 69.0213C66.4623 68.4176 66.0302 67.9412 65.468 67.592C64.9116 67.2428 64.2546 67.0682 63.4971 67.0682C62.6626 67.0682 61.9405 67.2753 61.3309 67.6896C60.7272 68.098 60.2626 68.6307 59.9371 69.2876C59.6115 69.9446 59.4488 70.6489 59.4488 71.4006V72.608C59.4488 73.6378 59.6263 74.5108 59.9814 75.2269C60.3425 75.9371 60.8426 76.4787 61.4818 76.8516C62.121 77.2185 62.8638 77.402 63.7101 77.402C64.2606 77.402 64.7577 77.325 65.2016 77.1712C65.6514 77.0114 66.0391 76.7746 66.3646 76.4609C66.6901 76.1413 66.9417 75.7448 67.1192 75.2713L69.1434 75.8395C68.9303 76.526 68.5722 77.1297 68.0692 77.6506C67.5661 78.1655 66.9446 78.5679 66.2048 78.858C65.465 79.142 64.6334 79.2841 63.7101 79.2841ZM82.2027 68.4176L80.3206 68.9503C80.2022 68.6366 80.0276 68.3318 79.7968 68.0359C79.5719 67.734 79.2641 67.4854 78.8735 67.2901C78.4829 67.0948 77.9827 66.9972 77.3731 66.9972C76.5386 66.9972 75.8432 67.1895 75.2868 67.5742C74.7364 67.953 74.4612 68.4354 74.4612 69.0213C74.4612 69.5421 74.6506 69.9535 75.0294 70.2553C75.4082 70.5572 76 70.8087 76.805 71.0099L78.8291 71.5071C80.0483 71.803 80.9568 72.2558 81.5546 72.8654C82.1524 73.4691 82.4513 74.2474 82.4513 75.2003C82.4513 75.9815 82.2264 76.6799 81.7765 77.2955C81.3327 77.911 80.7112 78.3963 79.9122 78.7514C79.1132 79.1065 78.184 79.2841 77.1246 79.2841C75.7337 79.2841 74.5825 78.9822 73.6711 78.3786C72.7596 77.7749 72.1826 76.893 71.9399 75.733L73.9285 75.2358C74.1179 75.9697 74.476 76.5201 75.0028 76.8871C75.5354 77.254 76.2309 77.4375 77.089 77.4375C78.0656 77.4375 78.8409 77.2304 79.415 76.8161C79.9951 76.3958 80.2851 75.8928 80.2851 75.3068C80.2851 74.8333 80.1193 74.4368 79.7879 74.1172C79.4565 73.7917 78.9475 73.549 78.2609 73.3892L75.9882 72.8565C74.7394 72.5606 73.822 72.1019 73.2361 71.4805C72.656 70.8531 72.366 70.0689 72.366 69.1278C72.366 68.3584 72.5821 67.6778 73.0141 67.0859C73.4521 66.4941 74.0469 66.0295 74.7986 65.6921C75.5561 65.3548 76.4143 65.1861 77.3731 65.1861C78.7226 65.1861 79.782 65.482 80.5514 66.0739C81.3267 66.6657 81.8772 67.447 82.2027 68.4176ZM91.1449 79.2841C89.8665 79.2841 88.7656 78.9822 87.8423 78.3786C86.919 77.7749 86.2088 76.9433 85.7116 75.8839C85.2145 74.8245 84.9659 73.6141 84.9659 72.2528C84.9659 70.8679 85.2204 69.6457 85.7294 68.5863C86.2443 67.521 86.9605 66.6894 87.8778 66.0916C88.8011 65.4879 89.8783 65.1861 91.1094 65.1861C92.0682 65.1861 92.9323 65.3636 93.7017 65.7188C94.4711 66.0739 95.1014 66.571 95.5927 67.2102C96.0839 67.8494 96.3887 68.5952 96.5071 69.4474H94.4119C94.2521 68.826 93.897 68.2756 93.3466 67.7962C92.8021 67.3108 92.0682 67.0682 91.1449 67.0682C90.3281 67.0682 89.612 67.2812 88.9964 67.7074C88.3868 68.1276 87.9104 68.7224 87.5671 69.4918C87.2298 70.2553 87.0611 71.152 87.0611 72.1818C87.0611 73.2353 87.2268 74.1527 87.5582 74.9339C87.8956 75.7152 88.3691 76.3219 88.9787 76.7539C89.5942 77.186 90.3163 77.402 91.1449 77.402C91.6894 77.402 92.1836 77.3073 92.6275 77.1179C93.0714 76.9285 93.4472 76.6562 93.755 76.3011C94.0627 75.946 94.2817 75.5199 94.4119 75.0227H96.5071C96.3887 75.8277 96.0958 76.5527 95.6282 77.1978C95.1665 77.837 94.554 78.346 93.7905 78.7248C93.0329 79.0977 92.151 79.2841 91.1449 79.2841ZM105.287 79.2841C103.973 79.2841 102.84 78.9941 101.887 78.4141C100.94 77.8281 100.209 77.0114 99.6942 75.9638C99.1853 74.9103 98.9308 73.6851 98.9308 72.2884C98.9308 70.8916 99.1853 69.6605 99.6942 68.5952C100.209 67.5239 100.925 66.6894 101.843 66.0916C102.766 65.4879 103.843 65.1861 105.074 65.1861C105.784 65.1861 106.486 65.3045 107.178 65.5412C107.871 65.7779 108.501 66.1626 109.069 66.6953C109.637 67.2221 110.09 67.9205 110.428 68.7905C110.765 69.6605 110.934 70.7318 110.934 72.0043V72.892H100.422V71.081H108.803C108.803 70.3116 108.649 69.625 108.341 69.0213C108.039 68.4176 107.607 67.9412 107.045 67.592C106.489 67.2428 105.832 67.0682 105.074 67.0682C104.24 67.0682 103.518 67.2753 102.908 67.6896C102.304 68.098 101.84 68.6307 101.514 69.2876C101.189 69.9446 101.026 70.6489 101.026 71.4006V72.608C101.026 73.6378 101.203 74.5108 101.559 75.2269C101.92 75.9371 102.42 76.4787 103.059 76.8516C103.698 77.2185 104.441 77.402 105.287 77.402C105.838 77.402 106.335 77.325 106.779 77.1712C107.229 77.0114 107.616 76.7746 107.942 76.4609C108.267 76.1413 108.519 75.7448 108.696 75.2713L110.721 75.8395C110.507 76.526 110.149 77.1297 109.646 77.6506C109.143 78.1655 108.522 78.5679 107.782 78.858C107.042 79.142 106.211 79.2841 105.287 79.2841ZM116.216 70.7969V79H114.121V65.3636H116.145V67.4943H116.322C116.642 66.8018 117.127 66.2455 117.778 65.8253C118.429 65.3991 119.27 65.1861 120.3 65.1861C121.223 65.1861 122.031 65.3755 122.723 65.7543C123.416 66.1271 123.954 66.6953 124.339 67.4588C124.724 68.2164 124.916 69.1752 124.916 70.3352V79H122.821V70.4773C122.821 69.406 122.543 68.5715 121.987 67.9737C121.43 67.37 120.667 67.0682 119.696 67.0682C119.027 67.0682 118.429 67.2132 117.903 67.5032C117.382 67.7932 116.971 68.2164 116.669 68.7727C116.367 69.3291 116.216 70.0038 116.216 70.7969ZM134.675 65.3636V67.1392H127.608V65.3636H134.675ZM129.668 62.0966H131.763V75.0938C131.763 75.6856 131.849 76.1295 132.021 76.4254C132.198 76.7154 132.423 76.9107 132.695 77.0114C132.974 77.1061 133.267 77.1534 133.574 77.1534C133.805 77.1534 133.995 77.1416 134.142 77.1179C134.29 77.0883 134.409 77.0646 134.498 77.0469L134.924 78.929C134.782 78.9822 134.583 79.0355 134.329 79.0888C134.074 79.148 133.752 79.1776 133.361 79.1776C132.769 79.1776 132.189 79.0503 131.621 78.7958C131.059 78.5413 130.591 78.1536 130.218 77.6328C129.852 77.112 129.668 76.455 129.668 75.6619V62.0966ZM159.773 66.5H157.571C157.441 65.8667 157.213 65.3104 156.888 64.831C156.568 64.3516 156.177 63.9491 155.716 63.6236C155.26 63.2921 154.754 63.0436 154.198 62.8778C153.641 62.7121 153.061 62.6293 152.457 62.6293C151.357 62.6293 150.359 62.9074 149.466 63.4638C148.578 64.0201 147.871 64.8398 147.344 65.9229C146.823 67.006 146.563 68.3348 146.563 69.9091C146.563 71.4834 146.823 72.8121 147.344 73.8952C147.871 74.9783 148.578 75.7981 149.466 76.3544C150.359 76.9107 151.357 77.1889 152.457 77.1889C153.061 77.1889 153.641 77.1061 154.198 76.9403C154.754 76.7746 155.26 76.529 155.716 76.2035C156.177 75.872 156.568 75.4666 156.888 74.9872C157.213 74.5019 157.441 73.9455 157.571 73.3182H159.773C159.607 74.2474 159.305 75.079 158.867 75.8129C158.429 76.5468 157.885 77.1712 157.234 77.6861C156.583 78.1951 155.852 78.5827 155.041 78.8491C154.236 79.1154 153.375 79.2486 152.457 79.2486C150.907 79.2486 149.528 78.8698 148.32 78.1122C147.113 77.3546 146.163 76.2775 145.471 74.8807C144.778 73.4839 144.432 71.8267 144.432 69.9091C144.432 67.9915 144.778 66.3343 145.471 64.9375C146.163 63.5407 147.113 62.4635 148.32 61.706C149.528 60.9484 150.907 60.5696 152.457 60.5696C153.375 60.5696 154.236 60.7028 155.041 60.9691C155.852 61.2354 156.583 61.6261 157.234 62.141C157.885 62.65 158.429 63.2714 158.867 64.0053C159.305 64.7333 159.607 65.5649 159.773 66.5ZM163.047 79V65.3636H165.142V79H163.047ZM164.112 63.0909C163.703 63.0909 163.351 62.9518 163.055 62.6737C162.765 62.3955 162.62 62.0611 162.62 61.6705C162.62 61.2798 162.765 60.9454 163.055 60.6673C163.351 60.3891 163.703 60.25 164.112 60.25C164.52 60.25 164.869 60.3891 165.159 60.6673C165.455 60.9454 165.603 61.2798 165.603 61.6705C165.603 62.0611 165.455 62.3955 165.159 62.6737C164.869 62.9518 164.52 63.0909 164.112 63.0909ZM174.91 65.3636V67.1392H167.843V65.3636H174.91ZM169.902 62.0966H171.998V75.0938C171.998 75.6856 172.083 76.1295 172.255 76.4254C172.433 76.7154 172.658 76.9107 172.93 77.0114C173.208 77.1061 173.501 77.1534 173.809 77.1534C174.04 77.1534 174.229 77.1416 174.377 77.1179C174.525 77.0883 174.643 77.0646 174.732 77.0469L175.158 78.929C175.016 78.9822 174.818 79.0355 174.563 79.0888C174.309 79.148 173.986 79.1776 173.596 79.1776C173.004 79.1776 172.424 79.0503 171.856 78.7958C171.293 78.5413 170.826 78.1536 170.453 77.6328C170.086 77.112 169.902 76.455 169.902 75.6619V62.0966ZM179.411 84.1136C179.055 84.1136 178.739 84.084 178.461 84.0249C178.182 83.9716 177.99 83.9183 177.884 83.8651L178.416 82.0185C178.925 82.1487 179.375 82.196 179.766 82.1605C180.156 82.125 180.503 81.9504 180.804 81.6367C181.112 81.329 181.393 80.8288 181.648 80.1364L182.038 79.071L176.996 65.3636H179.269L183.033 76.2301H183.175L186.939 65.3636H189.212L183.423 80.9886C183.163 81.6929 182.84 82.2759 182.456 82.7376C182.071 83.2051 181.624 83.5514 181.115 83.7763C180.612 84.0012 180.044 84.1136 179.411 84.1136Z" fill="black"/>
<circle cx="375.511" cy="653.511" r="9.01136" fill="#FFE587" stroke="black"/>
<path d="M323.202 634V615.818H325.403V632.047H333.855V634H323.202ZM342.52 634.284C341.289 634.284 340.209 633.991 339.279 633.405C338.356 632.819 337.634 632 337.113 630.946C336.598 629.893 336.341 628.661 336.341 627.253C336.341 625.832 336.598 624.592 337.113 623.533C337.634 622.474 338.356 621.651 339.279 621.065C340.209 620.479 341.289 620.186 342.52 620.186C343.751 620.186 344.828 620.479 345.751 621.065C346.681 621.651 347.403 622.474 347.918 623.533C348.438 624.592 348.699 625.832 348.699 627.253C348.699 628.661 348.438 629.893 347.918 630.946C347.403 632 346.681 632.819 345.751 633.405C344.828 633.991 343.751 634.284 342.52 634.284ZM342.52 632.402C343.455 632.402 344.224 632.162 344.828 631.683C345.432 631.203 345.879 630.573 346.169 629.792C346.459 629.011 346.604 628.164 346.604 627.253C346.604 626.341 346.459 625.492 346.169 624.705C345.879 623.918 345.432 623.281 344.828 622.796C344.224 622.311 343.455 622.068 342.52 622.068C341.585 622.068 340.815 622.311 340.212 622.796C339.608 623.281 339.161 623.918 338.871 624.705C338.581 625.492 338.436 626.341 338.436 627.253C338.436 628.164 338.581 629.011 338.871 629.792C339.161 630.573 339.608 631.203 340.212 631.683C340.815 632.162 341.585 632.402 342.52 632.402ZM361.556 623.418L359.674 623.95C359.556 623.637 359.381 623.332 359.15 623.036C358.925 622.734 358.618 622.485 358.227 622.29C357.836 622.095 357.336 621.997 356.727 621.997C355.892 621.997 355.197 622.19 354.64 622.574C354.09 622.953 353.815 623.435 353.815 624.021C353.815 624.542 354.004 624.953 354.383 625.255C354.762 625.557 355.354 625.809 356.158 626.01L358.183 626.507C359.402 626.803 360.31 627.256 360.908 627.865C361.506 628.469 361.805 629.247 361.805 630.2C361.805 630.982 361.58 631.68 361.13 632.295C360.686 632.911 360.065 633.396 359.266 633.751C358.467 634.107 357.537 634.284 356.478 634.284C355.087 634.284 353.936 633.982 353.025 633.379C352.113 632.775 351.536 631.893 351.293 630.733L353.282 630.236C353.471 630.97 353.83 631.52 354.356 631.887C354.889 632.254 355.584 632.438 356.443 632.438C357.419 632.438 358.194 632.23 358.769 631.816C359.349 631.396 359.639 630.893 359.639 630.307C359.639 629.833 359.473 629.437 359.141 629.117C358.81 628.792 358.301 628.549 357.614 628.389L355.342 627.857C354.093 627.561 353.176 627.102 352.59 626.48C352.01 625.853 351.72 625.069 351.72 624.128C351.72 623.358 351.936 622.678 352.368 622.086C352.806 621.494 353.4 621.029 354.152 620.692C354.91 620.355 355.768 620.186 356.727 620.186C358.076 620.186 359.136 620.482 359.905 621.074C360.68 621.666 361.231 622.447 361.556 623.418ZM373.02 634H370.711L377.388 615.818H379.66L386.336 634H384.028L378.595 618.695H378.453L373.02 634ZM373.872 626.898H383.176V628.851H373.872V626.898ZM390.98 625.797V634H388.884V620.364H390.909V622.494H391.086C391.406 621.802 391.891 621.246 392.542 620.825C393.193 620.399 394.034 620.186 395.063 620.186C395.987 620.186 396.795 620.375 397.487 620.754C398.18 621.127 398.718 621.695 399.103 622.459C399.488 623.216 399.68 624.175 399.68 625.335V634H397.585V625.477C397.585 624.406 397.307 623.571 396.75 622.974C396.194 622.37 395.43 622.068 394.46 622.068C393.791 622.068 393.193 622.213 392.666 622.503C392.146 622.793 391.734 623.216 391.432 623.773C391.131 624.329 390.98 625.004 390.98 625.797ZM409.013 639.398C408.001 639.398 407.131 639.268 406.403 639.007C405.675 638.753 405.068 638.415 404.583 637.995C404.103 637.581 403.722 637.137 403.437 636.663L405.106 635.491C405.296 635.74 405.536 636.024 405.826 636.344C406.116 636.669 406.512 636.95 407.015 637.187C407.524 637.43 408.19 637.551 409.013 637.551C410.114 637.551 411.022 637.285 411.738 636.752C412.454 636.219 412.812 635.385 412.812 634.249V631.479H412.635C412.481 631.727 412.262 632.035 411.978 632.402C411.7 632.763 411.297 633.086 410.771 633.37C410.25 633.648 409.545 633.787 408.658 633.787C407.557 633.787 406.568 633.527 405.692 633.006C404.822 632.485 404.133 631.727 403.624 630.733C403.121 629.739 402.869 628.531 402.869 627.111C402.869 625.714 403.115 624.498 403.606 623.462C404.097 622.42 404.781 621.615 405.657 621.047C406.533 620.473 407.545 620.186 408.693 620.186C409.581 620.186 410.285 620.334 410.806 620.63C411.333 620.92 411.735 621.251 412.013 621.624C412.297 621.991 412.516 622.293 412.67 622.53H412.883V620.364H414.908V634.391C414.908 635.562 414.641 636.515 414.109 637.249C413.582 637.989 412.872 638.531 411.978 638.874C411.09 639.223 410.102 639.398 409.013 639.398ZM408.942 631.905C409.782 631.905 410.492 631.712 411.072 631.328C411.652 630.943 412.093 630.39 412.395 629.668C412.697 628.946 412.848 628.081 412.848 627.075C412.848 626.093 412.7 625.226 412.404 624.474C412.108 623.722 411.67 623.134 411.09 622.707C410.51 622.281 409.794 622.068 408.942 622.068C408.054 622.068 407.314 622.293 406.722 622.743C406.136 623.193 405.695 623.796 405.399 624.554C405.109 625.312 404.964 626.152 404.964 627.075C404.964 628.022 405.112 628.86 405.408 629.588C405.71 630.31 406.154 630.878 406.74 631.292C407.332 631.701 408.066 631.905 408.942 631.905ZM424.46 634.284C423.146 634.284 422.013 633.994 421.06 633.414C420.113 632.828 419.382 632.011 418.867 630.964C418.358 629.91 418.104 628.685 418.104 627.288C418.104 625.892 418.358 624.661 418.867 623.595C419.382 622.524 420.098 621.689 421.016 621.092C421.939 620.488 423.016 620.186 424.247 620.186C424.957 620.186 425.659 620.304 426.351 620.541C427.044 620.778 427.674 621.163 428.242 621.695C428.81 622.222 429.263 622.92 429.6 623.79C429.938 624.661 430.106 625.732 430.106 627.004V627.892H419.595V626.081H427.976C427.976 625.312 427.822 624.625 427.514 624.021C427.212 623.418 426.78 622.941 426.218 622.592C425.662 622.243 425.005 622.068 424.247 622.068C423.413 622.068 422.69 622.275 422.081 622.69C421.477 623.098 421.013 623.631 420.687 624.288C420.362 624.945 420.199 625.649 420.199 626.401V627.608C420.199 628.638 420.376 629.511 420.731 630.227C421.092 630.937 421.593 631.479 422.232 631.852C422.871 632.219 423.614 632.402 424.46 632.402C425.011 632.402 425.508 632.325 425.952 632.171C426.401 632.011 426.789 631.775 427.115 631.461C427.44 631.141 427.692 630.745 427.869 630.271L429.893 630.839C429.68 631.526 429.322 632.13 428.819 632.651C428.316 633.165 427.695 633.568 426.955 633.858C426.215 634.142 425.383 634.284 424.46 634.284ZM435.389 615.818V634H433.294V615.818H435.389ZM444.944 634.284C443.63 634.284 442.496 633.994 441.543 633.414C440.596 632.828 439.865 632.011 439.35 630.964C438.842 629.91 438.587 628.685 438.587 627.288C438.587 625.892 438.842 624.661 439.35 623.595C439.865 622.524 440.582 621.689 441.499 621.092C442.422 620.488 443.499 620.186 444.73 620.186C445.441 620.186 446.142 620.304 446.835 620.541C447.527 620.778 448.157 621.163 448.725 621.695C449.294 622.222 449.746 622.92 450.084 623.79C450.421 624.661 450.59 625.732 450.59 627.004V627.892H440.078V626.081H448.459C448.459 625.312 448.305 624.625 447.998 624.021C447.696 623.418 447.264 622.941 446.701 622.592C446.145 622.243 445.488 622.068 444.73 622.068C443.896 622.068 443.174 622.275 442.564 622.69C441.961 623.098 441.496 623.631 441.17 624.288C440.845 624.945 440.682 625.649 440.682 626.401V627.608C440.682 628.638 440.86 629.511 441.215 630.227C441.576 630.937 442.076 631.479 442.715 631.852C443.354 632.219 444.097 632.402 444.944 632.402C445.494 632.402 445.991 632.325 446.435 632.171C446.885 632.011 447.272 631.775 447.598 631.461C447.924 631.141 448.175 630.745 448.353 630.271L450.377 630.839C450.164 631.526 449.806 632.13 449.303 632.651C448.799 633.165 448.178 633.568 447.438 633.858C446.698 634.142 445.867 634.284 444.944 634.284ZM463.436 623.418L461.554 623.95C461.436 623.637 461.261 623.332 461.03 623.036C460.805 622.734 460.498 622.485 460.107 622.29C459.716 622.095 459.216 621.997 458.607 621.997C457.772 621.997 457.077 622.19 456.52 622.574C455.97 622.953 455.695 623.435 455.695 624.021C455.695 624.542 455.884 624.953 456.263 625.255C456.642 625.557 457.233 625.809 458.038 626.01L460.062 626.507C461.282 626.803 462.19 627.256 462.788 627.865C463.386 628.469 463.685 629.247 463.685 630.2C463.685 630.982 463.46 631.68 463.01 632.295C462.566 632.911 461.945 633.396 461.146 633.751C460.347 634.107 459.417 634.284 458.358 634.284C456.967 634.284 455.816 633.982 454.904 633.379C453.993 632.775 453.416 631.893 453.173 630.733L455.162 630.236C455.351 630.97 455.709 631.52 456.236 631.887C456.769 632.254 457.464 632.438 458.322 632.438C459.299 632.438 460.074 632.23 460.648 631.816C461.228 631.396 461.518 630.893 461.518 630.307C461.518 629.833 461.353 629.437 461.021 629.117C460.69 628.792 460.181 628.549 459.494 628.389L457.222 627.857C455.973 627.561 455.055 627.102 454.469 626.48C453.889 625.853 453.599 625.069 453.599 624.128C453.599 623.358 453.815 622.678 454.248 622.086C454.685 621.494 455.28 621.029 456.032 620.692C456.79 620.355 457.648 620.186 458.607 620.186C459.956 620.186 461.015 620.482 461.785 621.074C462.56 621.666 463.111 622.447 463.436 623.418Z" fill="black"/>
<circle cx="326.511" cy="553.511" r="9.01136" fill="#FFE587" stroke="black"/>
<path d="M274.202 534V515.818H280.558C281.825 515.818 282.869 516.037 283.692 516.475C284.515 516.907 285.127 517.49 285.53 518.224C285.932 518.952 286.134 519.76 286.134 520.648C286.134 521.429 285.994 522.074 285.716 522.583C285.444 523.092 285.083 523.495 284.633 523.79C284.189 524.086 283.707 524.305 283.186 524.447V524.625C283.742 524.661 284.302 524.856 284.864 525.211C285.426 525.566 285.897 526.075 286.276 526.738C286.654 527.401 286.844 528.212 286.844 529.17C286.844 530.082 286.637 530.902 286.222 531.63C285.808 532.358 285.154 532.935 284.26 533.361C283.367 533.787 282.204 534 280.771 534H274.202ZM276.403 532.047H280.771C282.21 532.047 283.23 531.769 283.834 531.212C284.444 530.65 284.749 529.969 284.749 529.17C284.749 528.555 284.592 527.987 284.278 527.466C283.964 526.939 283.518 526.519 282.938 526.205C282.357 525.886 281.671 525.726 280.878 525.726H276.403V532.047ZM276.403 523.808H280.487C281.15 523.808 281.748 523.678 282.281 523.418C282.819 523.157 283.245 522.79 283.559 522.317C283.879 521.843 284.038 521.287 284.038 520.648C284.038 519.849 283.76 519.171 283.204 518.615C282.647 518.052 281.766 517.771 280.558 517.771H276.403V523.808ZM294.19 534.32C293.326 534.32 292.542 534.157 291.838 533.831C291.133 533.5 290.574 533.023 290.16 532.402C289.745 531.775 289.538 531.017 289.538 530.129C289.538 529.348 289.692 528.715 290 528.229C290.308 527.738 290.719 527.353 291.234 527.075C291.749 526.797 292.317 526.59 292.938 526.454C293.566 526.312 294.196 526.199 294.829 526.116C295.658 526.01 296.33 525.93 296.845 525.877C297.365 525.818 297.744 525.72 297.981 525.584C298.224 525.448 298.345 525.211 298.345 524.874V524.803C298.345 523.927 298.105 523.246 297.626 522.761C297.152 522.275 296.433 522.033 295.469 522.033C294.468 522.033 293.684 522.252 293.116 522.69C292.548 523.128 292.148 523.595 291.917 524.092L289.929 523.382C290.284 522.554 290.757 521.908 291.349 521.447C291.947 520.979 292.598 520.654 293.302 520.47C294.013 520.281 294.711 520.186 295.398 520.186C295.836 520.186 296.339 520.239 296.907 520.346C297.481 520.446 298.034 520.657 298.567 520.976C299.106 521.296 299.552 521.778 299.907 522.423C300.263 523.068 300.44 523.933 300.44 525.016V534H298.345V532.153H298.238C298.096 532.449 297.86 532.766 297.528 533.103C297.197 533.441 296.756 533.728 296.205 533.964C295.655 534.201 294.983 534.32 294.19 534.32ZM294.51 532.438C295.338 532.438 296.037 532.275 296.605 531.949C297.179 531.624 297.611 531.203 297.901 530.689C298.197 530.174 298.345 529.632 298.345 529.064V527.146C298.256 527.253 298.061 527.35 297.759 527.439C297.463 527.522 297.12 527.596 296.729 527.661C296.345 527.72 295.969 527.774 295.602 527.821C295.241 527.862 294.948 527.898 294.723 527.928C294.178 527.999 293.669 528.114 293.196 528.274C292.728 528.428 292.349 528.661 292.059 528.975C291.775 529.283 291.633 529.703 291.633 530.236C291.633 530.964 291.903 531.514 292.441 531.887C292.986 532.254 293.675 532.438 294.51 532.438ZM306.217 529.028L306.182 526.436H306.608L312.574 520.364H315.166L308.81 526.791H308.632L306.217 529.028ZM304.264 534V515.818H306.359V534H304.264ZM312.929 534L307.602 527.253L309.094 525.797L315.592 534H312.929ZM323.019 534.284C321.705 534.284 320.571 533.994 319.619 533.414C318.672 532.828 317.941 532.011 317.426 530.964C316.917 529.91 316.662 528.685 316.662 527.288C316.662 525.892 316.917 524.661 317.426 523.595C317.941 522.524 318.657 521.689 319.574 521.092C320.497 520.488 321.575 520.186 322.806 520.186C323.516 520.186 324.217 520.304 324.91 520.541C325.602 520.778 326.233 521.163 326.801 521.695C327.369 522.222 327.822 522.92 328.159 523.79C328.496 524.661 328.665 525.732 328.665 527.004V527.892H318.154V526.081H326.534C326.534 525.312 326.38 524.625 326.073 524.021C325.771 523.418 325.339 522.941 324.777 522.592C324.22 522.243 323.563 522.068 322.806 522.068C321.971 522.068 321.249 522.275 320.639 522.69C320.036 523.098 319.571 523.631 319.246 524.288C318.92 524.945 318.757 525.649 318.757 526.401V527.608C318.757 528.638 318.935 529.511 319.29 530.227C319.651 530.937 320.151 531.479 320.79 531.852C321.43 532.219 322.172 532.402 323.019 532.402C323.569 532.402 324.066 532.325 324.51 532.171C324.96 532.011 325.348 531.775 325.673 531.461C325.999 531.141 326.25 530.745 326.428 530.271L328.452 530.839C328.239 531.526 327.881 532.13 327.378 532.651C326.875 533.165 326.253 533.568 325.513 533.858C324.774 534.142 323.942 534.284 323.019 534.284ZM331.852 534V520.364H333.876V522.423H334.018C334.267 521.749 334.717 521.201 335.368 520.781C336.019 520.361 336.753 520.151 337.57 520.151C337.723 520.151 337.916 520.154 338.147 520.159C338.377 520.165 338.552 520.174 338.67 520.186V522.317C338.599 522.299 338.437 522.272 338.182 522.237C337.934 522.195 337.67 522.175 337.392 522.175C336.729 522.175 336.137 522.314 335.616 522.592C335.101 522.864 334.693 523.243 334.391 523.728C334.095 524.208 333.947 524.755 333.947 525.371V534H331.852ZM350.813 523.418L348.931 523.95C348.813 523.637 348.638 523.332 348.407 523.036C348.182 522.734 347.874 522.485 347.484 522.29C347.093 522.095 346.593 521.997 345.983 521.997C345.149 521.997 344.454 522.19 343.897 522.574C343.347 522.953 343.072 523.435 343.072 524.021C343.072 524.542 343.261 524.953 343.64 525.255C344.019 525.557 344.61 525.809 345.415 526.01L347.439 526.507C348.659 526.803 349.567 527.256 350.165 527.865C350.763 528.469 351.062 529.247 351.062 530.2C351.062 530.982 350.837 531.68 350.387 532.295C349.943 532.911 349.322 533.396 348.523 533.751C347.724 534.107 346.794 534.284 345.735 534.284C344.344 534.284 343.193 533.982 342.281 533.379C341.37 532.775 340.793 531.893 340.55 530.733L342.539 530.236C342.728 530.97 343.086 531.52 343.613 531.887C344.146 532.254 344.841 532.438 345.699 532.438C346.676 532.438 347.451 532.23 348.025 531.816C348.605 531.396 348.895 530.893 348.895 530.307C348.895 529.833 348.73 529.437 348.398 529.117C348.067 528.792 347.558 528.549 346.871 528.389L344.599 527.857C343.35 527.561 342.432 527.102 341.846 526.48C341.266 525.853 340.976 525.069 340.976 524.128C340.976 523.358 341.192 522.678 341.624 522.086C342.062 521.494 342.657 521.029 343.409 520.692C344.166 520.355 345.025 520.186 345.983 520.186C347.333 520.186 348.392 520.482 349.162 521.074C349.937 521.666 350.488 522.447 350.813 523.418ZM360.288 520.364V522.139H352.937V520.364H360.288ZM355.139 534V518.482C355.139 517.7 355.322 517.049 355.689 516.528C356.056 516.008 356.533 515.617 357.119 515.357C357.704 515.096 358.323 514.966 358.974 514.966C359.489 514.966 359.909 515.007 360.235 515.09C360.56 515.173 360.803 515.25 360.963 515.321L360.359 517.132C360.252 517.097 360.104 517.052 359.915 516.999C359.732 516.946 359.489 516.919 359.187 516.919C358.495 516.919 357.994 517.094 357.687 517.443C357.385 517.792 357.234 518.304 357.234 518.979V534H355.139ZM363.224 534V520.364H365.319V534H363.224ZM364.29 518.091C363.881 518.091 363.529 517.952 363.233 517.674C362.943 517.395 362.798 517.061 362.798 516.67C362.798 516.28 362.943 515.945 363.233 515.667C363.529 515.389 363.881 515.25 364.29 515.25C364.698 515.25 365.047 515.389 365.337 515.667C365.633 515.945 365.781 516.28 365.781 516.67C365.781 517.061 365.633 517.395 365.337 517.674C365.047 517.952 364.698 518.091 364.29 518.091ZM374.874 534.284C373.56 534.284 372.427 533.994 371.474 533.414C370.527 532.828 369.796 532.011 369.281 530.964C368.772 529.91 368.518 528.685 368.518 527.288C368.518 525.892 368.772 524.661 369.281 523.595C369.796 522.524 370.512 521.689 371.43 521.092C372.353 520.488 373.43 520.186 374.661 520.186C375.371 520.186 376.073 520.304 376.765 520.541C377.458 520.778 378.088 521.163 378.656 521.695C379.224 522.222 379.677 522.92 380.014 523.79C380.352 524.661 380.521 525.732 380.521 527.004V527.892H370.009V526.081H378.39C378.39 525.312 378.236 524.625 377.928 524.021C377.626 523.418 377.194 522.941 376.632 522.592C376.076 522.243 375.419 522.068 374.661 522.068C373.827 522.068 373.105 522.275 372.495 522.69C371.891 523.098 371.427 523.631 371.101 524.288C370.776 524.945 370.613 525.649 370.613 526.401V527.608C370.613 528.638 370.79 529.511 371.146 530.227C371.507 530.937 372.007 531.479 372.646 531.852C373.285 532.219 374.028 532.402 374.874 532.402C375.425 532.402 375.922 532.325 376.366 532.171C376.815 532.011 377.203 531.775 377.529 531.461C377.854 531.141 378.106 530.745 378.283 530.271L380.307 530.839C380.094 531.526 379.736 532.13 379.233 532.651C378.73 533.165 378.109 533.568 377.369 533.858C376.629 534.142 375.797 534.284 374.874 534.284ZM385.803 515.818V534H383.708V515.818H385.803ZM394.789 534.284C393.653 534.284 392.65 533.997 391.78 533.423C390.91 532.843 390.229 532.026 389.738 530.973C389.247 529.913 389.001 528.661 389.001 527.217C389.001 525.785 389.247 524.542 389.738 523.489C390.229 522.435 390.913 521.621 391.789 521.047C392.665 520.473 393.677 520.186 394.825 520.186C395.713 520.186 396.414 520.334 396.929 520.63C397.45 520.92 397.846 521.251 398.119 521.624C398.397 521.991 398.613 522.293 398.767 522.53H398.944V515.818H401.039V534H399.015V531.905H398.767C398.613 532.153 398.394 532.467 398.11 532.846C397.826 533.219 397.42 533.553 396.893 533.849C396.367 534.139 395.665 534.284 394.789 534.284ZM395.074 532.402C395.914 532.402 396.624 532.183 397.204 531.745C397.784 531.301 398.225 530.689 398.527 529.907C398.829 529.12 398.98 528.212 398.98 527.182C398.98 526.164 398.832 525.273 398.536 524.51C398.24 523.74 397.802 523.142 397.222 522.716C396.642 522.284 395.926 522.068 395.074 522.068C394.186 522.068 393.446 522.296 392.854 522.752C392.268 523.202 391.827 523.814 391.531 524.589C391.241 525.359 391.096 526.223 391.096 527.182C391.096 528.152 391.244 529.034 391.54 529.827C391.842 530.615 392.286 531.242 392.872 531.71C393.464 532.171 394.198 532.402 395.074 532.402Z" fill="black"/>
<circle cx="445.511" cy="747.511" r="9.01136" fill="#FFE587" stroke="black"/>
<path d="M451.145 716.364C451.038 715.464 450.606 714.766 449.849 714.268C449.091 713.771 448.162 713.523 447.061 713.523C446.256 713.523 445.552 713.653 444.948 713.913C444.35 714.174 443.883 714.532 443.545 714.988C443.214 715.443 443.048 715.961 443.048 716.541C443.048 717.027 443.164 717.444 443.395 717.793C443.631 718.136 443.933 718.423 444.3 718.654C444.667 718.879 445.052 719.065 445.454 719.213C445.857 719.355 446.227 719.471 446.564 719.56L448.411 720.057C448.884 720.181 449.411 720.353 449.991 720.572C450.577 720.791 451.136 721.09 451.669 721.468C452.207 721.841 452.651 722.321 453 722.907C453.35 723.493 453.524 724.212 453.524 725.064C453.524 726.046 453.267 726.934 452.752 727.727C452.243 728.52 451.497 729.151 450.515 729.618C449.538 730.086 448.351 730.32 446.955 730.32C445.652 730.32 444.525 730.109 443.572 729.689C442.625 729.269 441.879 728.683 441.335 727.931C440.796 727.18 440.491 726.307 440.42 725.312H442.693C442.752 725.999 442.983 726.567 443.386 727.017C443.794 727.461 444.309 727.792 444.93 728.011C445.558 728.224 446.232 728.331 446.955 728.331C447.795 728.331 448.55 728.195 449.218 727.923C449.887 727.644 450.417 727.26 450.808 726.768C451.198 726.271 451.393 725.691 451.393 725.028C451.393 724.425 451.225 723.933 450.887 723.555C450.55 723.176 450.106 722.868 449.556 722.631C449.005 722.395 448.411 722.187 447.771 722.01L445.534 721.371C444.114 720.962 442.989 720.379 442.161 719.622C441.332 718.864 440.918 717.873 440.918 716.648C440.918 715.63 441.193 714.742 441.743 713.984C442.3 713.221 443.045 712.629 443.98 712.209C444.922 711.783 445.972 711.57 447.132 711.57C448.304 711.57 449.346 711.78 450.257 712.2C451.169 712.614 451.891 713.182 452.423 713.904C452.962 714.627 453.246 715.446 453.276 716.364H451.145ZM460.873 730.32C460.009 730.32 459.224 730.157 458.52 729.831C457.816 729.5 457.257 729.023 456.842 728.402C456.428 727.775 456.221 727.017 456.221 726.129C456.221 725.348 456.375 724.715 456.682 724.229C456.99 723.738 457.402 723.353 457.916 723.075C458.431 722.797 459 722.59 459.621 722.454C460.248 722.312 460.879 722.199 461.512 722.116C462.341 722.01 463.012 721.93 463.527 721.877C464.048 721.818 464.427 721.72 464.664 721.584C464.906 721.448 465.028 721.211 465.028 720.874V720.803C465.028 719.927 464.788 719.246 464.309 718.761C463.835 718.275 463.116 718.033 462.151 718.033C461.151 718.033 460.367 718.252 459.799 718.69C459.23 719.128 458.831 719.595 458.6 720.092L456.611 719.382C456.967 718.554 457.44 717.908 458.032 717.447C458.63 716.979 459.281 716.654 459.985 716.47C460.695 716.281 461.394 716.186 462.08 716.186C462.518 716.186 463.021 716.239 463.589 716.346C464.164 716.446 464.717 716.657 465.25 716.976C465.788 717.296 466.235 717.778 466.59 718.423C466.945 719.068 467.123 719.933 467.123 721.016V730H465.028V728.153H464.921C464.779 728.449 464.542 728.766 464.211 729.103C463.879 729.441 463.438 729.728 462.888 729.964C462.338 730.201 461.666 730.32 460.873 730.32ZM461.192 728.438C462.021 728.438 462.719 728.275 463.288 727.949C463.862 727.624 464.294 727.203 464.584 726.689C464.88 726.174 465.028 725.632 465.028 725.064V723.146C464.939 723.253 464.744 723.35 464.442 723.439C464.146 723.522 463.802 723.596 463.412 723.661C463.027 723.72 462.651 723.774 462.284 723.821C461.923 723.862 461.63 723.898 461.405 723.928C460.861 723.999 460.352 724.114 459.878 724.274C459.411 724.428 459.032 724.661 458.742 724.975C458.458 725.283 458.316 725.703 458.316 726.236C458.316 726.964 458.585 727.514 459.124 727.887C459.668 728.254 460.358 728.438 461.192 728.438ZM473.042 721.797V730H470.947V716.364H472.971V718.494H473.149C473.468 717.802 473.954 717.246 474.605 716.825C475.256 716.399 476.096 716.186 477.126 716.186C478.049 716.186 478.857 716.375 479.55 716.754C480.242 717.127 480.781 717.695 481.165 718.459C481.55 719.216 481.742 720.175 481.742 721.335V730H479.647V721.477C479.647 720.406 479.369 719.571 478.813 718.974C478.256 718.37 477.493 718.068 476.522 718.068C475.853 718.068 475.256 718.213 474.729 718.503C474.208 718.793 473.797 719.216 473.495 719.773C473.193 720.329 473.042 721.004 473.042 721.797ZM498.497 730H492.886V711.818H498.746C500.509 711.818 502.019 712.182 503.273 712.91C504.528 713.632 505.49 714.671 506.159 716.026C506.827 717.376 507.162 718.991 507.162 720.874C507.162 722.768 506.824 724.398 506.15 725.765C505.475 727.127 504.493 728.174 503.202 728.908C501.912 729.636 500.344 730 498.497 730ZM495.088 728.047H498.355C499.858 728.047 501.104 727.757 502.093 727.177C503.081 726.597 503.818 725.771 504.303 724.7C504.789 723.629 505.031 722.353 505.031 720.874C505.031 719.406 504.791 718.142 504.312 717.083C503.833 716.017 503.117 715.201 502.164 714.632C501.211 714.058 500.024 713.771 498.604 713.771H495.088V728.047ZM510.571 730V716.364H512.666V730H510.571ZM511.636 714.091C511.228 714.091 510.876 713.952 510.58 713.674C510.29 713.395 510.145 713.061 510.145 712.67C510.145 712.28 510.29 711.945 510.58 711.667C510.876 711.389 511.228 711.25 511.636 711.25C512.045 711.25 512.394 711.389 512.684 711.667C512.98 711.945 513.128 712.28 513.128 712.67C513.128 713.061 512.98 713.395 512.684 713.674C512.394 713.952 512.045 714.091 511.636 714.091ZM522.221 730.284C520.907 730.284 519.774 729.994 518.821 729.414C517.874 728.828 517.143 728.011 516.628 726.964C516.119 725.91 515.864 724.685 515.864 723.288C515.864 721.892 516.119 720.661 516.628 719.595C517.143 718.524 517.859 717.689 518.776 717.092C519.7 716.488 520.777 716.186 522.008 716.186C522.718 716.186 523.419 716.304 524.112 716.541C524.804 716.778 525.435 717.163 526.003 717.695C526.571 718.222 527.024 718.92 527.361 719.79C527.699 720.661 527.867 721.732 527.867 723.004V723.892H517.356V722.081H525.737C525.737 721.312 525.583 720.625 525.275 720.021C524.973 719.418 524.541 718.941 523.979 718.592C523.422 718.243 522.765 718.068 522.008 718.068C521.173 718.068 520.451 718.275 519.842 718.69C519.238 719.098 518.773 719.631 518.448 720.288C518.122 720.945 517.96 721.649 517.96 722.401V723.608C517.96 724.638 518.137 725.511 518.492 726.227C518.853 726.937 519.353 727.479 519.993 727.852C520.632 728.219 521.375 728.402 522.221 728.402C522.771 728.402 523.268 728.325 523.712 728.171C524.162 728.011 524.55 727.775 524.875 727.461C525.201 727.141 525.452 726.745 525.63 726.271L527.654 726.839C527.441 727.526 527.083 728.13 526.58 728.651C526.077 729.165 525.455 729.568 524.716 729.858C523.976 730.142 523.144 730.284 522.221 730.284ZM536.559 735.398C535.547 735.398 534.676 735.268 533.949 735.007C533.221 734.753 532.614 734.415 532.129 733.995C531.649 733.581 531.267 733.137 530.983 732.663L532.652 731.491C532.842 731.74 533.081 732.024 533.371 732.344C533.661 732.669 534.058 732.95 534.561 733.187C535.07 733.43 535.736 733.551 536.559 733.551C537.659 733.551 538.568 733.285 539.284 732.752C540 732.219 540.358 731.385 540.358 730.249V727.479H540.181C540.027 727.727 539.808 728.035 539.524 728.402C539.246 728.763 538.843 729.086 538.316 729.37C537.796 729.648 537.091 729.787 536.203 729.787C535.103 729.787 534.114 729.527 533.238 729.006C532.368 728.485 531.679 727.727 531.17 726.733C530.667 725.739 530.415 724.531 530.415 723.111C530.415 721.714 530.661 720.498 531.152 719.462C531.643 718.42 532.327 717.615 533.203 717.047C534.079 716.473 535.091 716.186 536.239 716.186C537.127 716.186 537.831 716.334 538.352 716.63C538.879 716.92 539.281 717.251 539.559 717.624C539.843 717.991 540.062 718.293 540.216 718.53H540.429V716.364H542.453V730.391C542.453 731.562 542.187 732.515 541.654 733.249C541.128 733.989 540.417 734.531 539.524 734.874C538.636 735.223 537.648 735.398 536.559 735.398ZM536.488 727.905C537.328 727.905 538.038 727.712 538.618 727.328C539.198 726.943 539.639 726.39 539.941 725.668C540.243 724.946 540.394 724.081 540.394 723.075C540.394 722.093 540.246 721.226 539.95 720.474C539.654 719.722 539.216 719.134 538.636 718.707C538.056 718.281 537.34 718.068 536.488 718.068C535.6 718.068 534.86 718.293 534.268 718.743C533.682 719.193 533.241 719.796 532.945 720.554C532.655 721.312 532.51 722.152 532.51 723.075C532.51 724.022 532.658 724.86 532.954 725.588C533.256 726.31 533.7 726.878 534.286 727.292C534.878 727.701 535.612 727.905 536.488 727.905ZM551.828 730.284C550.597 730.284 549.517 729.991 548.588 729.405C547.665 728.819 546.943 728 546.422 726.946C545.907 725.893 545.65 724.661 545.65 723.253C545.65 721.832 545.907 720.592 546.422 719.533C546.943 718.474 547.665 717.651 548.588 717.065C549.517 716.479 550.597 716.186 551.828 716.186C553.06 716.186 554.137 716.479 555.06 717.065C555.989 717.651 556.711 718.474 557.226 719.533C557.747 720.592 558.007 721.832 558.007 723.253C558.007 724.661 557.747 725.893 557.226 726.946C556.711 728 555.989 728.819 555.06 729.405C554.137 729.991 553.06 730.284 551.828 730.284ZM551.828 728.402C552.764 728.402 553.533 728.162 554.137 727.683C554.74 727.203 555.187 726.573 555.477 725.792C555.767 725.011 555.912 724.164 555.912 723.253C555.912 722.341 555.767 721.492 555.477 720.705C555.187 719.918 554.74 719.281 554.137 718.796C553.533 718.311 552.764 718.068 551.828 718.068C550.893 718.068 550.124 718.311 549.52 718.796C548.917 719.281 548.47 719.918 548.18 720.705C547.89 721.492 547.745 722.341 547.745 723.253C547.745 724.164 547.89 725.011 548.18 725.792C548.47 726.573 548.917 727.203 549.52 727.683C550.124 728.162 550.893 728.402 551.828 728.402Z" fill="black"/>
<circle cx="115.511" cy="370.511" r="9.01136" fill="#FFE587" stroke="black"/>
<path d="M146.145 365.364C146.038 364.464 145.606 363.766 144.849 363.268C144.091 362.771 143.162 362.523 142.061 362.523C141.256 362.523 140.552 362.653 139.948 362.913C139.35 363.174 138.883 363.532 138.545 363.988C138.214 364.443 138.048 364.961 138.048 365.541C138.048 366.027 138.164 366.444 138.395 366.793C138.631 367.136 138.933 367.423 139.3 367.654C139.667 367.879 140.052 368.065 140.454 368.213C140.857 368.355 141.227 368.471 141.564 368.56L143.411 369.057C143.884 369.181 144.411 369.353 144.991 369.572C145.577 369.791 146.136 370.09 146.669 370.468C147.207 370.841 147.651 371.321 148 371.907C148.35 372.493 148.524 373.212 148.524 374.064C148.524 375.046 148.267 375.934 147.752 376.727C147.243 377.52 146.497 378.151 145.515 378.618C144.538 379.086 143.351 379.32 141.955 379.32C140.652 379.32 139.525 379.109 138.572 378.689C137.625 378.269 136.879 377.683 136.335 376.931C135.796 376.18 135.491 375.307 135.42 374.312H137.693C137.752 374.999 137.983 375.567 138.386 376.017C138.794 376.461 139.309 376.792 139.93 377.011C140.558 377.224 141.232 377.331 141.955 377.331C142.795 377.331 143.55 377.195 144.218 376.923C144.887 376.644 145.417 376.26 145.808 375.768C146.198 375.271 146.393 374.691 146.393 374.028C146.393 373.425 146.225 372.933 145.887 372.555C145.55 372.176 145.106 371.868 144.556 371.631C144.005 371.395 143.411 371.187 142.771 371.01L140.534 370.371C139.114 369.962 137.989 369.379 137.161 368.622C136.332 367.864 135.918 366.873 135.918 365.648C135.918 364.63 136.193 363.742 136.743 362.984C137.3 362.221 138.045 361.629 138.98 361.209C139.922 360.783 140.972 360.57 142.132 360.57C143.304 360.57 144.346 360.78 145.257 361.2C146.169 361.614 146.891 362.182 147.423 362.904C147.962 363.627 148.246 364.446 148.276 365.364H146.145ZM155.873 379.32C155.009 379.32 154.224 379.157 153.52 378.831C152.816 378.5 152.257 378.023 151.842 377.402C151.428 376.775 151.221 376.017 151.221 375.129C151.221 374.348 151.375 373.715 151.682 373.229C151.99 372.738 152.402 372.353 152.916 372.075C153.431 371.797 154 371.59 154.621 371.454C155.248 371.312 155.879 371.199 156.512 371.116C157.341 371.01 158.012 370.93 158.527 370.877C159.048 370.818 159.427 370.72 159.664 370.584C159.906 370.448 160.028 370.211 160.028 369.874V369.803C160.028 368.927 159.788 368.246 159.309 367.761C158.835 367.275 158.116 367.033 157.151 367.033C156.151 367.033 155.367 367.252 154.799 367.69C154.23 368.128 153.831 368.595 153.6 369.092L151.611 368.382C151.967 367.554 152.44 366.908 153.032 366.447C153.63 365.979 154.281 365.654 154.985 365.47C155.695 365.281 156.394 365.186 157.08 365.186C157.518 365.186 158.021 365.239 158.589 365.346C159.164 365.446 159.717 365.657 160.25 365.976C160.788 366.296 161.235 366.778 161.59 367.423C161.945 368.068 162.123 368.933 162.123 370.016V379H160.028V377.153H159.921C159.779 377.449 159.542 377.766 159.211 378.103C158.879 378.441 158.438 378.728 157.888 378.964C157.338 379.201 156.666 379.32 155.873 379.32ZM156.192 377.438C157.021 377.438 157.719 377.275 158.288 376.949C158.862 376.624 159.294 376.203 159.584 375.689C159.88 375.174 160.028 374.632 160.028 374.064V372.146C159.939 372.253 159.744 372.35 159.442 372.439C159.146 372.522 158.802 372.596 158.412 372.661C158.027 372.72 157.651 372.774 157.284 372.821C156.923 372.862 156.63 372.898 156.405 372.928C155.861 372.999 155.352 373.114 154.878 373.274C154.411 373.428 154.032 373.661 153.742 373.975C153.458 374.283 153.316 374.703 153.316 375.236C153.316 375.964 153.585 376.514 154.124 376.887C154.668 377.254 155.358 377.438 156.192 377.438ZM168.042 370.797V379H165.947V365.364H167.971V367.494H168.149C168.468 366.802 168.954 366.246 169.605 365.825C170.256 365.399 171.096 365.186 172.126 365.186C173.049 365.186 173.857 365.375 174.55 365.754C175.242 366.127 175.781 366.695 176.165 367.459C176.55 368.216 176.742 369.175 176.742 370.335V379H174.647V370.477C174.647 369.406 174.369 368.571 173.813 367.974C173.256 367.37 172.493 367.068 171.522 367.068C170.853 367.068 170.256 367.213 169.729 367.503C169.208 367.793 168.797 368.216 168.495 368.773C168.193 369.329 168.042 370.004 168.042 370.797ZM187.886 379V360.818H198.788V362.771H190.088V368.915H197.972V370.868H190.088V379H187.886ZM202.129 379V365.364H204.153V367.423H204.295C204.543 366.749 204.993 366.201 205.644 365.781C206.295 365.361 207.029 365.151 207.846 365.151C208 365.151 208.192 365.154 208.423 365.159C208.654 365.165 208.828 365.174 208.947 365.186V367.317C208.876 367.299 208.713 367.272 208.458 367.237C208.21 367.195 207.946 367.175 207.668 367.175C207.005 367.175 206.414 367.314 205.893 367.592C205.378 367.864 204.969 368.243 204.668 368.728C204.372 369.208 204.224 369.755 204.224 370.371V379H202.129ZM215.443 379.32C214.579 379.32 213.795 379.157 213.09 378.831C212.386 378.5 211.827 378.023 211.413 377.402C210.998 376.775 210.791 376.017 210.791 375.129C210.791 374.348 210.945 373.715 211.253 373.229C211.561 372.738 211.972 372.353 212.487 372.075C213.002 371.797 213.57 371.59 214.191 371.454C214.819 371.312 215.449 371.199 216.082 371.116C216.911 371.01 217.583 370.93 218.098 370.877C218.618 370.818 218.997 370.72 219.234 370.584C219.477 370.448 219.598 370.211 219.598 369.874V369.803C219.598 368.927 219.358 368.246 218.879 367.761C218.405 367.275 217.686 367.033 216.722 367.033C215.721 367.033 214.937 367.252 214.369 367.69C213.801 368.128 213.401 368.595 213.17 369.092L211.182 368.382C211.537 367.554 212.01 366.908 212.602 366.447C213.2 365.979 213.851 365.654 214.555 365.47C215.266 365.281 215.964 365.186 216.65 365.186C217.088 365.186 217.592 365.239 218.16 365.346C218.734 365.446 219.287 365.657 219.82 365.976C220.358 366.296 220.805 366.778 221.16 367.423C221.516 368.068 221.693 368.933 221.693 370.016V379H219.598V377.153H219.491C219.349 377.449 219.113 377.766 218.781 378.103C218.45 378.441 218.009 378.728 217.458 378.964C216.908 379.201 216.236 379.32 215.443 379.32ZM215.763 377.438C216.591 377.438 217.29 377.275 217.858 376.949C218.432 376.624 218.864 376.203 219.154 375.689C219.45 375.174 219.598 374.632 219.598 374.064V372.146C219.509 372.253 219.314 372.35 219.012 372.439C218.716 372.522 218.373 372.596 217.982 372.661C217.597 372.72 217.222 372.774 216.855 372.821C216.494 372.862 216.201 372.898 215.976 372.928C215.431 372.999 214.922 373.114 214.449 373.274C213.981 373.428 213.602 373.661 213.312 373.975C213.028 374.283 212.886 374.703 212.886 375.236C212.886 375.964 213.156 376.514 213.694 376.887C214.239 377.254 214.928 377.438 215.763 377.438ZM227.612 370.797V379H225.517V365.364H227.541V367.494H227.719C228.039 366.802 228.524 366.246 229.175 365.825C229.826 365.399 230.666 365.186 231.696 365.186C232.619 365.186 233.427 365.375 234.12 365.754C234.812 366.127 235.351 366.695 235.736 367.459C236.12 368.216 236.313 369.175 236.313 370.335V379H234.218V370.477C234.218 369.406 233.939 368.571 233.383 367.974C232.827 367.37 232.063 367.068 231.093 367.068C230.424 367.068 229.826 367.213 229.299 367.503C228.778 367.793 228.367 368.216 228.065 368.773C227.763 369.329 227.612 370.004 227.612 370.797ZM245.681 379.284C244.403 379.284 243.302 378.982 242.378 378.379C241.455 377.775 240.745 376.943 240.248 375.884C239.751 374.824 239.502 373.614 239.502 372.253C239.502 370.868 239.757 369.646 240.266 368.586C240.78 367.521 241.497 366.689 242.414 366.092C243.337 365.488 244.414 365.186 245.646 365.186C246.604 365.186 247.468 365.364 248.238 365.719C249.007 366.074 249.638 366.571 250.129 367.21C250.62 367.849 250.925 368.595 251.043 369.447H248.948C248.788 368.826 248.433 368.276 247.883 367.796C247.338 367.311 246.604 367.068 245.681 367.068C244.864 367.068 244.148 367.281 243.533 367.707C242.923 368.128 242.447 368.722 242.103 369.492C241.766 370.255 241.597 371.152 241.597 372.182C241.597 373.235 241.763 374.153 242.094 374.934C242.432 375.715 242.905 376.322 243.515 376.754C244.13 377.186 244.852 377.402 245.681 377.402C246.226 377.402 246.72 377.307 247.164 377.118C247.608 376.929 247.983 376.656 248.291 376.301C248.599 375.946 248.818 375.52 248.948 375.023H251.043C250.925 375.828 250.632 376.553 250.164 377.198C249.703 377.837 249.09 378.346 248.327 378.725C247.569 379.098 246.687 379.284 245.681 379.284ZM254.106 379V365.364H256.201V379H254.106ZM255.171 363.091C254.763 363.091 254.411 362.952 254.115 362.674C253.825 362.395 253.68 362.061 253.68 361.67C253.68 361.28 253.825 360.945 254.115 360.667C254.411 360.389 254.763 360.25 255.171 360.25C255.58 360.25 255.929 360.389 256.219 360.667C256.515 360.945 256.663 361.28 256.663 361.67C256.663 362.061 256.515 362.395 256.219 362.674C255.929 362.952 255.58 363.091 255.171 363.091ZM269.698 368.418L267.816 368.95C267.697 368.637 267.523 368.332 267.292 368.036C267.067 367.734 266.759 367.485 266.369 367.29C265.978 367.095 265.478 366.997 264.868 366.997C264.034 366.997 263.338 367.19 262.782 367.574C262.232 367.953 261.956 368.435 261.956 369.021C261.956 369.542 262.146 369.953 262.525 370.255C262.903 370.557 263.495 370.809 264.3 371.01L266.324 371.507C267.543 371.803 268.452 372.256 269.05 372.865C269.647 373.469 269.946 374.247 269.946 375.2C269.946 375.982 269.721 376.68 269.272 377.295C268.828 377.911 268.206 378.396 267.407 378.751C266.608 379.107 265.679 379.284 264.62 379.284C263.229 379.284 262.078 378.982 261.166 378.379C260.255 377.775 259.678 376.893 259.435 375.733L261.424 375.236C261.613 375.97 261.971 376.52 262.498 376.887C263.031 377.254 263.726 377.438 264.584 377.438C265.561 377.438 266.336 377.23 266.91 376.816C267.49 376.396 267.78 375.893 267.78 375.307C267.78 374.833 267.614 374.437 267.283 374.117C266.952 373.792 266.443 373.549 265.756 373.389L263.483 372.857C262.234 372.561 261.317 372.102 260.731 371.48C260.151 370.853 259.861 370.069 259.861 369.128C259.861 368.358 260.077 367.678 260.509 367.086C260.947 366.494 261.542 366.029 262.294 365.692C263.051 365.355 263.909 365.186 264.868 365.186C266.218 365.186 267.277 365.482 268.047 366.074C268.822 366.666 269.372 367.447 269.698 368.418ZM278.64 379.284C277.362 379.284 276.261 378.982 275.337 378.379C274.414 377.775 273.704 376.943 273.207 375.884C272.71 374.824 272.461 373.614 272.461 372.253C272.461 370.868 272.716 369.646 273.225 368.586C273.739 367.521 274.456 366.689 275.373 366.092C276.296 365.488 277.373 365.186 278.604 365.186C279.563 365.186 280.427 365.364 281.197 365.719C281.966 366.074 282.597 366.571 283.088 367.21C283.579 367.849 283.884 368.595 284.002 369.447H281.907C281.747 368.826 281.392 368.276 280.842 367.796C280.297 367.311 279.563 367.068 278.64 367.068C277.823 367.068 277.107 367.281 276.492 367.707C275.882 368.128 275.406 368.722 275.062 369.492C274.725 370.255 274.556 371.152 274.556 372.182C274.556 373.235 274.722 374.153 275.053 374.934C275.391 375.715 275.864 376.322 276.474 376.754C277.089 377.186 277.811 377.402 278.64 377.402C279.185 377.402 279.679 377.307 280.123 377.118C280.566 376.929 280.942 376.656 281.25 376.301C281.558 375.946 281.777 375.52 281.907 375.023H284.002C283.884 375.828 283.591 376.553 283.123 377.198C282.662 377.837 282.049 378.346 281.286 378.725C280.528 379.098 279.646 379.284 278.64 379.284ZM292.605 379.284C291.374 379.284 290.294 378.991 289.364 378.405C288.441 377.819 287.719 377 287.198 375.946C286.683 374.893 286.426 373.661 286.426 372.253C286.426 370.832 286.683 369.592 287.198 368.533C287.719 367.474 288.441 366.651 289.364 366.065C290.294 365.479 291.374 365.186 292.605 365.186C293.836 365.186 294.913 365.479 295.836 366.065C296.766 366.651 297.488 367.474 298.003 368.533C298.523 369.592 298.784 370.832 298.784 372.253C298.784 373.661 298.523 374.893 298.003 375.946C297.488 377 296.766 377.819 295.836 378.405C294.913 378.991 293.836 379.284 292.605 379.284ZM292.605 377.402C293.54 377.402 294.309 377.162 294.913 376.683C295.517 376.203 295.964 375.573 296.254 374.792C296.544 374.011 296.689 373.164 296.689 372.253C296.689 371.341 296.544 370.492 296.254 369.705C295.964 368.918 295.517 368.281 294.913 367.796C294.309 367.311 293.54 367.068 292.605 367.068C291.67 367.068 290.9 367.311 290.297 367.796C289.693 368.281 289.246 368.918 288.956 369.705C288.666 370.492 288.521 371.341 288.521 372.253C288.521 373.164 288.666 374.011 288.956 374.792C289.246 375.573 289.693 376.203 290.297 376.683C290.9 377.162 291.67 377.402 292.605 377.402Z" fill="black"/>
<path d="M276 654.5L277 658L278 659.5C278.833 659.667 280.6 660 281 660H287C288.667 660 292.1 659.9 292.5 659.5C292.9 659.1 293.333 658.333 293.5 658H296H300C300.4 658 301.167 656 301.5 655C301.5 654.167 301.4 652.4 301 652C300.6 651.6 299.833 651.5 299.5 651.5L296 652L295.5 653.5L294 655H290.5L287 654.5L285.5 652.5H280.5L278 652H275L276 654.5Z" fill="#97DCFF"/>
<path d="M259 657H255.5L255 657.5L257.5 659.5L258 662L261 664L265 665L268 664L270 662V658H267.5L266.5 657H264L262 655H259.5L259 657Z" fill="#97DCFF"/>
<path d="M362 701.5C362.5 702.5 363.6 704.5 364 704.5V708.5H368L373.5 707.5L371.5 703.5L367 699H362L360.5 697.647L358.5 697V699H360.5L362 701.5Z" fill="#97DCFF"/>
<path d="M358.5 731L356.5 729.5L357.5 735L360.5 737L362 740.5C363 741.167 365.2 742.5 366 742.5H369L368 739L365 737L362 733.5L358.5 731Z" fill="#97DCFF"/>
<path d="M302.5 713.5L299.5 710.5L297.5 711.5L298.5 714.5L302.5 713.5Z" fill="#97DCFF"/>
<path d="M276 654.5L277 658L278 659.5C278.833 659.667 280.6 660 281 660H287C288.667 660 292.1 659.9 292.5 659.5C292.9 659.1 293.333 658.333 293.5 658H296H300C300.4 658 301.167 656 301.5 655C301.5 654.167 301.4 652.4 301 652C300.6 651.6 299.833 651.5 299.5 651.5L296 652L295.5 653.5L294 655H290.5L287 654.5L285.5 652.5H280.5L278 652H275L276 654.5Z" stroke="white"/>
<path d="M259 657H255.5L255 657.5L257.5 659.5L258 662L261 664L265 665L268 664L270 662V658H267.5L266.5 657H264L262 655H259.5L259 657Z" stroke="white"/>
<path d="M362 701.5C362.5 702.5 363.6 704.5 364 704.5V708.5H368L373.5 707.5L371.5 703.5L367 699H362L360.5 697.647L358.5 697V699H360.5L362 701.5Z" stroke="white"/>
<path d="M358.5 731L356.5 729.5L357.5 735L360.5 737L362 740.5C363 741.167 365.2 742.5 366 742.5H369L368 739L365 737L362 733.5L358.5 731Z" stroke="white"/>
<path d="M302.5 713.5L299.5 710.5L297.5 711.5L298.5 714.5L302.5 713.5Z" stroke="white"/>
<line x1="586.019" y1="766.804" x2="589.019" y2="751.804" stroke="#00E45F" stroke-width="2"/>
<line x1="585.316" y1="766.051" x2="591.316" y2="768.051" stroke="#00E45F" stroke-width="2"/>
</svg>
