<svg width="1044" height="810" viewBox="0 0 1044 810" fill="none" xmlns="http://www.w3.org/2000/svg">
<rect x="0.5" y="0.5" width="1043" height="809" rx="35.5" fill="#202637" stroke="#717171"/>
<line x1="173" y1="96" x2="177" y2="96" stroke="#FFE587" stroke-width="2"/>
<line x1="171.976" y1="86.7831" x2="173.976" y2="95.7831" stroke="#FFE587" stroke-width="2"/>
<line x1="956" y1="122" x2="973.49" y2="122" stroke="#FFE587" stroke-width="2"/>
<path d="M531.722 52.5455H535.591L540.773 65.1932H540.977L546.159 52.5455H550.028V70H546.994V58.0085H546.832L542.009 69.9489H539.741L534.918 57.983H534.756V70H531.722V52.5455ZM555.713 70H552.338L558.483 52.5455H562.386L568.54 70H565.165L560.503 56.125H560.366L555.713 70ZM555.824 63.1562H565.028V65.696H555.824V63.1562Z" fill="#FFE587"/>
<path d="M88.0653 344.545V362H85.2528L77.0284 350.111H76.8835V362H73.7216V344.545H76.5511L84.767 356.443H84.9205V344.545H88.0653ZM90.3175 344.545H93.8885L98.1584 352.267H98.3288L102.599 344.545H106.17L99.8203 355.489V362H96.6669V355.489L90.3175 344.545Z" fill="#FFE587"/>
<path d="M974.722 345V327.545H981.267C982.608 327.545 983.733 327.778 984.642 328.244C985.557 328.71 986.247 329.364 986.713 330.205C987.185 331.04 987.42 332.014 987.42 333.128C987.42 334.247 987.182 335.219 986.705 336.043C986.233 336.861 985.537 337.494 984.616 337.943C983.696 338.386 982.565 338.608 981.224 338.608H976.562V335.983H980.798C981.582 335.983 982.224 335.875 982.724 335.659C983.224 335.437 983.594 335.116 983.832 334.696C984.077 334.27 984.199 333.747 984.199 333.128C984.199 332.509 984.077 331.98 983.832 331.543C983.588 331.099 983.216 330.764 982.716 330.537C982.216 330.304 981.571 330.188 980.781 330.188H977.884V345H974.722ZM983.739 337.091L988.06 345H984.531L980.287 337.091H983.739ZM993.493 327.545V345H990.331V327.545H993.493Z" fill="#FFE587"/>
<path d="M543.963 675H540.588L546.733 657.545H550.636L556.79 675H553.415L548.753 661.125H548.616L543.963 675ZM544.074 668.156H553.278V670.696H544.074V668.156ZM564.669 661.909V664.295H557.143V661.909H564.669ZM559.001 658.773H562.087V671.062C562.087 671.477 562.149 671.795 562.274 672.017C562.405 672.233 562.575 672.381 562.786 672.46C562.996 672.54 563.229 672.58 563.484 672.58C563.678 672.58 563.854 672.565 564.013 672.537C564.178 672.509 564.303 672.483 564.388 672.46L564.908 674.872C564.743 674.929 564.507 674.991 564.2 675.06C563.899 675.128 563.53 675.168 563.092 675.179C562.32 675.202 561.624 675.085 561.004 674.83C560.385 674.568 559.893 674.165 559.53 673.619C559.172 673.074 558.996 672.392 559.001 671.574V658.773ZM570.616 657.545V675H567.531V657.545H570.616ZM577.555 675.264C576.726 675.264 575.979 675.116 575.314 674.821C574.655 674.52 574.132 674.077 573.746 673.491C573.365 672.906 573.175 672.185 573.175 671.327C573.175 670.588 573.311 669.977 573.584 669.494C573.857 669.011 574.229 668.625 574.7 668.335C575.172 668.045 575.703 667.827 576.294 667.679C576.891 667.526 577.507 667.415 578.143 667.347C578.911 667.267 579.533 667.196 580.01 667.134C580.487 667.065 580.834 666.963 581.05 666.827C581.271 666.685 581.382 666.466 581.382 666.17V666.119C581.382 665.477 581.192 664.98 580.811 664.628C580.43 664.276 579.882 664.099 579.166 664.099C578.411 664.099 577.811 664.264 577.368 664.594C576.93 664.923 576.635 665.312 576.482 665.761L573.601 665.352C573.828 664.557 574.203 663.892 574.726 663.358C575.249 662.818 575.888 662.415 576.643 662.148C577.399 661.875 578.234 661.739 579.149 661.739C579.78 661.739 580.408 661.812 581.033 661.96C581.658 662.108 582.229 662.352 582.746 662.693C583.263 663.028 583.678 663.486 583.99 664.065C584.308 664.645 584.467 665.369 584.467 666.239V675H581.501V673.202H581.399C581.212 673.565 580.947 673.906 580.607 674.224C580.271 674.537 579.848 674.79 579.337 674.983C578.831 675.17 578.237 675.264 577.555 675.264ZM578.357 672.997C578.976 672.997 579.513 672.875 579.967 672.631C580.422 672.381 580.771 672.051 581.016 671.642C581.266 671.233 581.391 670.787 581.391 670.304V668.761C581.294 668.841 581.129 668.915 580.896 668.983C580.669 669.051 580.413 669.111 580.129 669.162C579.845 669.213 579.564 669.259 579.286 669.298C579.007 669.338 578.766 669.372 578.561 669.401C578.101 669.463 577.689 669.565 577.325 669.707C576.962 669.849 576.675 670.048 576.464 670.304C576.254 670.554 576.149 670.878 576.149 671.276C576.149 671.844 576.357 672.273 576.771 672.562C577.186 672.852 577.714 672.997 578.357 672.997ZM590.655 667.33V675H587.57V661.909H590.518V664.134H590.672C590.973 663.401 591.453 662.818 592.112 662.386C592.777 661.955 593.598 661.739 594.575 661.739C595.479 661.739 596.266 661.932 596.936 662.318C597.612 662.705 598.135 663.264 598.504 663.997C598.879 664.73 599.064 665.619 599.058 666.665V675H595.973V667.142C595.973 666.267 595.746 665.582 595.291 665.088C594.842 664.594 594.22 664.347 593.425 664.347C592.885 664.347 592.405 664.466 591.984 664.705C591.57 664.937 591.243 665.276 591.004 665.719C590.771 666.162 590.655 666.699 590.655 667.33ZM608.732 661.909V664.295H601.206V661.909H608.732ZM603.064 658.773H606.149V671.062C606.149 671.477 606.212 671.795 606.337 672.017C606.467 672.233 606.638 672.381 606.848 672.46C607.058 672.54 607.291 672.58 607.547 672.58C607.74 672.58 607.916 672.565 608.075 672.537C608.24 672.509 608.365 672.483 608.45 672.46L608.97 674.872C608.805 674.929 608.57 674.991 608.263 675.06C607.962 675.128 607.592 675.168 607.155 675.179C606.382 675.202 605.686 675.085 605.067 674.83C604.447 674.568 603.956 674.165 603.592 673.619C603.234 673.074 603.058 672.392 603.064 671.574V658.773ZM611.312 675V661.909H614.397V675H611.312ZM612.863 660.051C612.374 660.051 611.954 659.889 611.602 659.565C611.249 659.236 611.073 658.841 611.073 658.381C611.073 657.915 611.249 657.52 611.602 657.196C611.954 656.866 612.374 656.702 612.863 656.702C613.357 656.702 613.778 656.866 614.124 657.196C614.477 657.52 614.653 657.915 614.653 658.381C614.653 658.841 614.477 659.236 614.124 659.565C613.778 659.889 613.357 660.051 612.863 660.051ZM623.28 675.256C621.973 675.256 620.851 674.969 619.913 674.395C618.982 673.821 618.263 673.028 617.757 672.017C617.257 671 617.007 669.83 617.007 668.506C617.007 667.176 617.263 666.003 617.774 664.986C618.286 663.963 619.007 663.168 619.939 662.599C620.876 662.026 621.984 661.739 623.263 661.739C624.325 661.739 625.266 661.935 626.084 662.327C626.908 662.713 627.564 663.261 628.053 663.972C628.541 664.676 628.82 665.5 628.888 666.443H625.939C625.82 665.812 625.536 665.287 625.087 664.866C624.643 664.44 624.05 664.227 623.305 664.227C622.675 664.227 622.121 664.398 621.643 664.739C621.166 665.074 620.794 665.557 620.527 666.188C620.266 666.818 620.135 667.574 620.135 668.455C620.135 669.347 620.266 670.114 620.527 670.756C620.788 671.392 621.155 671.884 621.626 672.23C622.104 672.571 622.663 672.741 623.305 672.741C623.76 672.741 624.166 672.656 624.524 672.486C624.888 672.31 625.192 672.057 625.436 671.727C625.68 671.398 625.848 670.997 625.939 670.526H628.888C628.814 671.452 628.541 672.273 628.07 672.989C627.598 673.699 626.956 674.256 626.143 674.659C625.331 675.057 624.376 675.256 623.28 675.256ZM557.318 695.273C557.318 697.153 556.966 698.764 556.261 700.105C555.563 701.44 554.608 702.463 553.398 703.173C552.193 703.884 550.827 704.239 549.298 704.239C547.77 704.239 546.401 703.884 545.19 703.173C543.986 702.457 543.031 701.432 542.327 700.097C541.628 698.756 541.278 697.148 541.278 695.273C541.278 693.392 541.628 691.784 542.327 690.449C543.031 689.108 543.986 688.082 545.19 687.372C546.401 686.662 547.77 686.307 549.298 686.307C550.827 686.307 552.193 686.662 553.398 687.372C554.608 688.082 555.563 689.108 556.261 690.449C556.966 691.784 557.318 693.392 557.318 695.273ZM554.139 695.273C554.139 693.949 553.932 692.832 553.517 691.923C553.108 691.009 552.54 690.318 551.812 689.852C551.085 689.381 550.247 689.145 549.298 689.145C548.349 689.145 547.511 689.381 546.784 689.852C546.057 690.318 545.486 691.009 545.071 691.923C544.662 692.832 544.457 693.949 544.457 695.273C544.457 696.597 544.662 697.716 545.071 698.631C545.486 699.54 546.057 700.23 546.784 700.702C547.511 701.168 548.349 701.401 549.298 701.401C550.247 701.401 551.085 701.168 551.812 700.702C552.54 700.23 553.108 699.54 553.517 698.631C553.932 697.716 554.139 696.597 554.139 695.273ZM565.881 704.256C564.575 704.256 563.452 703.969 562.515 703.395C561.583 702.821 560.864 702.028 560.359 701.017C559.859 700 559.609 698.83 559.609 697.506C559.609 696.176 559.864 695.003 560.376 693.986C560.887 692.963 561.609 692.168 562.54 691.599C563.478 691.026 564.586 690.739 565.864 690.739C566.927 690.739 567.867 690.935 568.685 691.327C569.509 691.713 570.165 692.261 570.654 692.972C571.143 693.676 571.421 694.5 571.489 695.443H568.54C568.421 694.812 568.137 694.287 567.688 693.866C567.245 693.44 566.651 693.227 565.907 693.227C565.276 693.227 564.722 693.398 564.245 693.739C563.768 694.074 563.396 694.557 563.129 695.188C562.867 695.818 562.737 696.574 562.737 697.455C562.737 698.347 562.867 699.114 563.129 699.756C563.39 700.392 563.756 700.884 564.228 701.23C564.705 701.571 565.265 701.741 565.907 701.741C566.362 701.741 566.768 701.656 567.126 701.486C567.489 701.31 567.793 701.057 568.038 700.727C568.282 700.398 568.45 699.997 568.54 699.526H571.489C571.415 700.452 571.143 701.273 570.671 701.989C570.2 702.699 569.558 703.256 568.745 703.659C567.933 704.057 566.978 704.256 565.881 704.256ZM579.818 704.256C578.506 704.256 577.372 703.983 576.418 703.438C575.469 702.886 574.739 702.108 574.227 701.102C573.716 700.091 573.46 698.901 573.46 697.531C573.46 696.185 573.716 695.003 574.227 693.986C574.744 692.963 575.466 692.168 576.392 691.599C577.318 691.026 578.406 690.739 579.656 690.739C580.463 690.739 581.224 690.869 581.94 691.131C582.662 691.386 583.298 691.784 583.849 692.324C584.406 692.864 584.844 693.551 585.162 694.386C585.48 695.216 585.639 696.205 585.639 697.352V698.298H574.909V696.219H582.682C582.676 695.628 582.548 695.102 582.298 694.642C582.048 694.176 581.699 693.81 581.25 693.543C580.807 693.276 580.29 693.142 579.699 693.142C579.068 693.142 578.514 693.295 578.037 693.602C577.56 693.903 577.188 694.301 576.92 694.795C576.659 695.284 576.526 695.821 576.52 696.406V698.222C576.52 698.983 576.659 699.636 576.938 700.182C577.216 700.722 577.605 701.136 578.105 701.426C578.605 701.71 579.19 701.852 579.861 701.852C580.31 701.852 580.716 701.79 581.08 701.665C581.443 701.534 581.759 701.344 582.026 701.094C582.293 700.844 582.494 700.534 582.631 700.165L585.511 700.489C585.33 701.25 584.983 701.915 584.472 702.483C583.966 703.045 583.318 703.483 582.528 703.795C581.739 704.102 580.835 704.256 579.818 704.256ZM592.016 704.264C591.187 704.264 590.44 704.116 589.775 703.821C589.116 703.52 588.593 703.077 588.207 702.491C587.826 701.906 587.636 701.185 587.636 700.327C587.636 699.588 587.772 698.977 588.045 698.494C588.317 698.011 588.69 697.625 589.161 697.335C589.633 697.045 590.164 696.827 590.755 696.679C591.352 696.526 591.968 696.415 592.604 696.347C593.371 696.267 593.994 696.196 594.471 696.134C594.948 696.065 595.295 695.963 595.511 695.827C595.732 695.685 595.843 695.466 595.843 695.17V695.119C595.843 694.477 595.653 693.98 595.272 693.628C594.891 693.276 594.343 693.099 593.627 693.099C592.871 693.099 592.272 693.264 591.829 693.594C591.391 693.923 591.096 694.312 590.942 694.761L588.062 694.352C588.289 693.557 588.664 692.892 589.187 692.358C589.71 691.818 590.349 691.415 591.104 691.148C591.86 690.875 592.695 690.739 593.61 690.739C594.241 690.739 594.869 690.812 595.494 690.96C596.119 691.108 596.69 691.352 597.207 691.693C597.724 692.028 598.138 692.486 598.451 693.065C598.769 693.645 598.928 694.369 598.928 695.239V704H595.962V702.202H595.86C595.673 702.565 595.408 702.906 595.067 703.224C594.732 703.537 594.309 703.79 593.798 703.983C593.292 704.17 592.698 704.264 592.016 704.264ZM592.817 701.997C593.437 701.997 593.974 701.875 594.428 701.631C594.883 701.381 595.232 701.051 595.477 700.642C595.727 700.233 595.852 699.787 595.852 699.304V697.761C595.755 697.841 595.59 697.915 595.357 697.983C595.13 698.051 594.874 698.111 594.59 698.162C594.306 698.213 594.025 698.259 593.746 698.298C593.468 698.338 593.227 698.372 593.022 698.401C592.562 698.463 592.15 698.565 591.786 698.707C591.423 698.849 591.136 699.048 590.925 699.304C590.715 699.554 590.61 699.878 590.61 700.276C590.61 700.844 590.817 701.273 591.232 701.562C591.647 701.852 592.175 701.997 592.817 701.997ZM605.116 696.33V704H602.031V690.909H604.979V693.134H605.133C605.434 692.401 605.914 691.818 606.573 691.386C607.238 690.955 608.059 690.739 609.036 690.739C609.94 690.739 610.727 690.932 611.397 691.318C612.073 691.705 612.596 692.264 612.965 692.997C613.34 693.73 613.525 694.619 613.519 695.665V704H610.434V696.142C610.434 695.267 610.207 694.582 609.752 694.088C609.303 693.594 608.681 693.347 607.886 693.347C607.346 693.347 606.866 693.466 606.445 693.705C606.031 693.937 605.704 694.276 605.465 694.719C605.232 695.162 605.116 695.699 605.116 696.33Z" fill="#00D9E4"/>
<path d="M381 612.5L385.5 621L389 617L396 618L401.5 608L403 606H407.5L409.5 599.5H414L421.5 588.5L432.5 584.5L435.5 577.5L432.5 572L439 567L442.5 561L445 565L446.5 577.5L450 583.5L448 591L451 595L455.5 592.5L469.5 591L479.5 584.5L489 591L502 581L518.5 583.5L526.5 584.5H533L536 591L544.5 592.5L551 583.5L555.5 577.5L567 581L580.5 577.5H588H596L612 592.5L616 588.5L612 581L621 577.5L626.5 584.5L630 586L632 581L645 577.5L652.5 574.5L657 572.5L665.5 575.5L672.5 572.5L683.5 575.5L685.5 582.5L709.5 574.5L732 571L744.5 569.5L748 561L762 558L766 567.5L770 566L771.5 551.5L775 546.5H780.5L787 557L794.5 550L797 558L811 561L820 554L822 544L817 534L822 524.5L823 521L825 520L826.5 540.5L831.5 546.5L839.5 548H844.5L849.5 551.5L854.5 545.5L856 553L861.5 554L863.5 548L870 544L868 537L873.5 532.5L875 538.5L881.5 534L895 537H911.5L916 532.5L923 538.5L931.5 545.5L933 541.5L939 535.5L941 532L938.5 524V520L940 514.5V505L935.5 500V491.5L947 485L956.5 487L959.5 336L954.5 112.5L620 106.5L602.5 108L594 112H586L581 108L516.5 105V110.5L508.5 126.5L487 128L488.5 103.5L178.5 95L157.5 389L150.5 565L180.5 612.5L67 681.5L100 733.5V748.5L107.5 742H114.5L126.5 731L130 733.5L140 728V733.5L150.5 724.5H157.5V731H162L166.5 718.5L172 716H174L177.5 722.5L183 718.5L186 707.5L191 704.5L203.5 707.5L209 701L213.5 694.5L215 681.5L221 692.5L225 682.5L233.5 684.5V682.5L229.5 679L232 675.5L237.5 677L240.5 680L242 677L245 673.5L251 675.5L254.5 672L261 673.5L268.5 666.5L280.5 669.5L289 666.5L293.5 661L296.5 655L312 647L322 644L341 651H353.5V639L364.5 626L373.5 621L381 612.5Z" fill="#97DCFF" stroke="white" stroke-width="2"/>
<circle cx="554.511" cy="261.511" r="9.01136" fill="#FF8F87" stroke="black"/>
<path d="M510.58 244V225.818H514.424V233.32H522.228V225.818H526.063V244H522.228V236.489H514.424V244H510.58ZM533.05 244.257C532.18 244.257 531.405 244.107 530.724 243.805C530.043 243.497 529.505 243.044 529.108 242.446C528.718 241.843 528.522 241.091 528.522 240.191C528.522 239.434 528.661 238.798 528.94 238.283C529.218 237.768 529.597 237.353 530.076 237.04C530.555 236.726 531.1 236.489 531.71 236.33C532.325 236.17 532.97 236.057 533.645 235.992C534.438 235.909 535.077 235.832 535.562 235.761C536.048 235.684 536.4 235.572 536.619 235.424C536.838 235.276 536.947 235.057 536.947 234.767V234.714C536.947 234.152 536.77 233.717 536.415 233.409C536.066 233.101 535.568 232.947 534.923 232.947C534.243 232.947 533.701 233.098 533.299 233.4C532.896 233.696 532.63 234.069 532.5 234.518L529.002 234.234C529.179 233.406 529.529 232.69 530.049 232.086C530.57 231.476 531.242 231.009 532.065 230.683C532.893 230.352 533.852 230.186 534.941 230.186C535.699 230.186 536.424 230.275 537.116 230.452C537.815 230.63 538.433 230.905 538.972 231.278C539.516 231.651 539.945 232.13 540.259 232.716C540.573 233.296 540.729 233.992 540.729 234.803V244H537.143V242.109H537.036C536.817 242.535 536.524 242.911 536.157 243.237C535.79 243.556 535.349 243.808 534.835 243.991C534.32 244.169 533.725 244.257 533.05 244.257ZM534.133 241.647C534.69 241.647 535.181 241.538 535.607 241.319C536.033 241.094 536.367 240.792 536.61 240.413C536.853 240.035 536.974 239.605 536.974 239.126V237.679C536.856 237.756 536.693 237.827 536.486 237.892C536.285 237.951 536.057 238.007 535.802 238.061C535.548 238.108 535.293 238.152 535.039 238.194C534.784 238.229 534.553 238.262 534.346 238.292C533.902 238.357 533.515 238.46 533.183 238.602C532.852 238.744 532.594 238.937 532.411 239.179C532.227 239.416 532.136 239.712 532.136 240.067C532.136 240.582 532.322 240.976 532.695 241.248C533.074 241.514 533.553 241.647 534.133 241.647ZM543.664 244V230.364H547.33V232.743H547.472C547.721 231.897 548.138 231.257 548.724 230.825C549.31 230.387 549.985 230.168 550.748 230.168C550.937 230.168 551.142 230.18 551.361 230.204C551.58 230.228 551.772 230.26 551.938 230.301V233.657C551.76 233.604 551.515 233.557 551.201 233.515C550.887 233.474 550.6 233.453 550.34 233.453C549.783 233.453 549.286 233.574 548.848 233.817C548.416 234.054 548.073 234.385 547.818 234.811C547.57 235.238 547.445 235.729 547.445 236.285V244H543.664ZM561.83 230.364V233.205H553.618V230.364H561.83ZM555.482 227.097H559.264V239.81C559.264 240.159 559.317 240.431 559.424 240.626C559.53 240.816 559.678 240.949 559.868 241.026C560.063 241.103 560.288 241.141 560.543 241.141C560.72 241.141 560.898 241.127 561.075 241.097C561.253 241.061 561.389 241.035 561.484 241.017L562.078 243.831C561.889 243.891 561.623 243.959 561.279 244.036C560.936 244.118 560.519 244.169 560.028 244.186C559.116 244.222 558.317 244.101 557.631 243.822C556.95 243.544 556.42 243.112 556.041 242.526C555.663 241.94 555.476 241.201 555.482 240.307V227.097ZM571.627 230.364V233.205H563.21V230.364H571.627ZM565.137 244V229.378C565.137 228.39 565.329 227.57 565.714 226.919C566.104 226.268 566.637 225.78 567.312 225.454C567.987 225.129 568.753 224.966 569.611 224.966C570.191 224.966 570.721 225.01 571.2 225.099C571.686 225.188 572.047 225.268 572.283 225.339L571.609 228.18C571.461 228.132 571.277 228.088 571.058 228.047C570.845 228.005 570.626 227.984 570.401 227.984C569.845 227.984 569.457 228.115 569.238 228.375C569.019 228.629 568.91 228.988 568.91 229.449V244H565.137ZM579.61 244.266C578.231 244.266 577.038 243.973 576.032 243.387C575.032 242.796 574.26 241.973 573.715 240.919C573.171 239.86 572.898 238.632 572.898 237.235C572.898 235.826 573.171 234.595 573.715 233.542C574.26 232.482 575.032 231.66 576.032 231.074C577.038 230.482 578.231 230.186 579.61 230.186C580.989 230.186 582.179 230.482 583.179 231.074C584.185 231.66 584.96 232.482 585.505 233.542C586.049 234.595 586.322 235.826 586.322 237.235C586.322 238.632 586.049 239.86 585.505 240.919C584.96 241.973 584.185 242.796 583.179 243.387C582.179 243.973 580.989 244.266 579.61 244.266ZM579.628 241.337C580.255 241.337 580.779 241.159 581.199 240.804C581.619 240.443 581.936 239.952 582.149 239.33C582.368 238.709 582.477 238.002 582.477 237.208C582.477 236.415 582.368 235.708 582.149 235.087C581.936 234.465 581.619 233.974 581.199 233.613C580.779 233.252 580.255 233.071 579.628 233.071C578.994 233.071 578.462 233.252 578.03 233.613C577.604 233.974 577.281 234.465 577.062 235.087C576.849 235.708 576.742 236.415 576.742 237.208C576.742 238.002 576.849 238.709 577.062 239.33C577.281 239.952 577.604 240.443 578.03 240.804C578.462 241.159 578.994 241.337 579.628 241.337ZM588.781 244V230.364H592.447V232.743H592.589C592.838 231.897 593.255 231.257 593.841 230.825C594.427 230.387 595.102 230.168 595.865 230.168C596.055 230.168 596.259 230.18 596.478 230.204C596.697 230.228 596.889 230.26 597.055 230.301V233.657C596.877 233.604 596.632 233.557 596.318 233.515C596.004 233.474 595.717 233.453 595.457 233.453C594.901 233.453 594.403 233.574 593.965 233.817C593.533 234.054 593.19 234.385 592.936 234.811C592.687 235.238 592.563 235.729 592.563 236.285V244H588.781ZM603.4 244.222C602.365 244.222 601.426 243.956 600.586 243.423C599.752 242.884 599.089 242.094 598.597 241.053C598.112 240.005 597.869 238.721 597.869 237.2C597.869 235.637 598.121 234.338 598.624 233.302C599.127 232.261 599.796 231.482 600.63 230.967C601.471 230.446 602.391 230.186 603.391 230.186C604.155 230.186 604.791 230.316 605.3 230.577C605.815 230.831 606.229 231.151 606.543 231.536C606.863 231.914 607.105 232.287 607.271 232.654H607.386V225.818H611.16V244H607.431V241.816H607.271C607.093 242.195 606.842 242.571 606.516 242.944C606.197 243.31 605.78 243.615 605.265 243.858C604.756 244.101 604.134 244.222 603.4 244.222ZM604.599 241.212C605.208 241.212 605.723 241.047 606.144 240.715C606.57 240.378 606.895 239.907 607.12 239.304C607.351 238.7 607.466 237.993 607.466 237.182C607.466 236.371 607.354 235.667 607.129 235.069C606.904 234.471 606.579 234.009 606.152 233.684C605.726 233.358 605.208 233.196 604.599 233.196C603.977 233.196 603.454 233.364 603.027 233.702C602.601 234.039 602.279 234.507 602.06 235.104C601.841 235.702 601.731 236.395 601.731 237.182C601.731 237.975 601.841 238.676 602.06 239.286C602.285 239.89 602.607 240.363 603.027 240.706C603.454 241.044 603.977 241.212 604.599 241.212Z" fill="black"/>
<path d="M383.619 515.818V534H381.489L371.581 519.724H371.403V534H369.202V515.818H371.332L381.276 530.129H381.453V515.818H383.619ZM393.458 534.284C392.144 534.284 391.011 533.994 390.058 533.414C389.111 532.828 388.38 532.011 387.865 530.964C387.356 529.91 387.102 528.685 387.102 527.288C387.102 525.892 387.356 524.661 387.865 523.595C388.38 522.524 389.096 521.689 390.014 521.092C390.937 520.488 392.014 520.186 393.245 520.186C393.955 520.186 394.657 520.304 395.349 520.541C396.042 520.778 396.672 521.163 397.24 521.695C397.808 522.222 398.261 522.92 398.598 523.79C398.936 524.661 399.104 525.732 399.104 527.004V527.892H388.593V526.081H396.974C396.974 525.312 396.82 524.625 396.512 524.021C396.21 523.418 395.778 522.941 395.216 522.592C394.66 522.243 394.003 522.068 393.245 522.068C392.411 522.068 391.689 522.275 391.079 522.69C390.475 523.098 390.011 523.631 389.685 524.288C389.36 524.945 389.197 525.649 389.197 526.401V527.608C389.197 528.638 389.374 529.511 389.729 530.227C390.091 530.937 390.591 531.479 391.23 531.852C391.869 532.219 392.612 532.402 393.458 532.402C394.009 532.402 394.506 532.325 394.95 532.171C395.399 532.011 395.787 531.775 396.113 531.461C396.438 531.141 396.69 530.745 396.867 530.271L398.891 530.839C398.678 531.526 398.32 532.13 397.817 532.651C397.314 533.165 396.693 533.568 395.953 533.858C395.213 534.142 394.381 534.284 393.458 534.284ZM405.381 534L401.226 520.364H403.428L406.375 530.804H406.517L409.429 520.364H411.667L414.543 530.768H414.685L417.633 520.364H419.834L415.679 534H413.62L410.637 523.524H410.424L407.441 534H405.381ZM429.919 534V515.818H432.121V523.915H441.816V515.818H444.017V534H441.816V525.868H432.121V534H429.919ZM452.154 534.32C451.29 534.32 450.506 534.157 449.801 533.831C449.097 533.5 448.538 533.023 448.123 532.402C447.709 531.775 447.502 531.017 447.502 530.129C447.502 529.348 447.656 528.715 447.964 528.229C448.271 527.738 448.683 527.353 449.198 527.075C449.713 526.797 450.281 526.59 450.902 526.454C451.53 526.312 452.16 526.199 452.793 526.116C453.622 526.01 454.294 525.93 454.809 525.877C455.329 525.818 455.708 525.72 455.945 525.584C456.188 525.448 456.309 525.211 456.309 524.874V524.803C456.309 523.927 456.069 523.246 455.59 522.761C455.116 522.275 454.397 522.033 453.432 522.033C452.432 522.033 451.648 522.252 451.08 522.69C450.512 523.128 450.112 523.595 449.881 524.092L447.893 523.382C448.248 522.554 448.721 521.908 449.313 521.447C449.911 520.979 450.562 520.654 451.266 520.47C451.976 520.281 452.675 520.186 453.361 520.186C453.799 520.186 454.302 520.239 454.871 520.346C455.445 520.446 455.998 520.657 456.531 520.976C457.069 521.296 457.516 521.778 457.871 522.423C458.226 523.068 458.404 523.933 458.404 525.016V534H456.309V532.153H456.202C456.06 532.449 455.824 532.766 455.492 533.103C455.161 533.441 454.72 533.728 454.169 533.964C453.619 534.201 452.947 534.32 452.154 534.32ZM452.474 532.438C453.302 532.438 454.001 532.275 454.569 531.949C455.143 531.624 455.575 531.203 455.865 530.689C456.161 530.174 456.309 529.632 456.309 529.064V527.146C456.22 527.253 456.025 527.35 455.723 527.439C455.427 527.522 455.084 527.596 454.693 527.661C454.308 527.72 453.933 527.774 453.566 527.821C453.205 527.862 452.912 527.898 452.687 527.928C452.142 527.999 451.633 528.114 451.16 528.274C450.692 528.428 450.313 528.661 450.023 528.975C449.739 529.283 449.597 529.703 449.597 530.236C449.597 530.964 449.867 531.514 450.405 531.887C450.95 532.254 451.639 532.438 452.474 532.438ZM472.89 520.364L467.848 534H465.717L460.675 520.364H462.947L466.711 531.23H466.854L470.618 520.364H472.89ZM480.885 534.284C479.571 534.284 478.438 533.994 477.485 533.414C476.538 532.828 475.807 532.011 475.292 530.964C474.783 529.91 474.528 528.685 474.528 527.288C474.528 525.892 474.783 524.661 475.292 523.595C475.807 522.524 476.523 521.689 477.44 521.092C478.364 520.488 479.441 520.186 480.672 520.186C481.382 520.186 482.083 520.304 482.776 520.541C483.468 520.778 484.099 521.163 484.667 521.695C485.235 522.222 485.688 522.92 486.025 523.79C486.363 524.661 486.531 525.732 486.531 527.004V527.892H476.02V526.081H484.401C484.401 525.312 484.247 524.625 483.939 524.021C483.637 523.418 483.205 522.941 482.643 522.592C482.086 522.243 481.429 522.068 480.672 522.068C479.837 522.068 479.115 522.275 478.506 522.69C477.902 523.098 477.437 523.631 477.112 524.288C476.786 524.945 476.624 525.649 476.624 526.401V527.608C476.624 528.638 476.801 529.511 477.156 530.227C477.517 530.937 478.017 531.479 478.657 531.852C479.296 532.219 480.039 532.402 480.885 532.402C481.435 532.402 481.933 532.325 482.376 532.171C482.826 532.011 483.214 531.775 483.539 531.461C483.865 531.141 484.116 530.745 484.294 530.271L486.318 530.839C486.105 531.526 485.747 532.13 485.244 532.651C484.741 533.165 484.119 533.568 483.38 533.858C482.64 534.142 481.808 534.284 480.885 534.284ZM491.814 525.797V534H489.718V520.364H491.743V522.494H491.92C492.24 521.802 492.725 521.246 493.376 520.825C494.027 520.399 494.868 520.186 495.897 520.186C496.821 520.186 497.629 520.375 498.321 520.754C499.013 521.127 499.552 521.695 499.937 522.459C500.321 523.216 500.514 524.175 500.514 525.335V534H498.419V525.477C498.419 524.406 498.141 523.571 497.584 522.974C497.028 522.37 496.264 522.068 495.294 522.068C494.625 522.068 494.027 522.213 493.5 522.503C492.98 522.793 492.568 523.216 492.266 523.773C491.964 524.329 491.814 525.004 491.814 525.797Z" fill="black"/>
<path d="M488.202 352.818H490.83L497.009 367.911H497.222L503.401 352.818H506.028V371H503.969V357.186H503.791L498.109 371H496.121L490.439 357.186H490.261V371H488.202V352.818ZM510.159 371V357.364H512.254V371H510.159ZM511.224 355.091C510.816 355.091 510.464 354.952 510.168 354.674C509.878 354.395 509.733 354.061 509.733 353.67C509.733 353.28 509.878 352.945 510.168 352.667C510.464 352.389 510.816 352.25 511.224 352.25C511.633 352.25 511.982 352.389 512.272 352.667C512.568 352.945 512.716 353.28 512.716 353.67C512.716 354.061 512.568 354.395 512.272 354.674C511.982 354.952 511.633 355.091 511.224 355.091ZM521.241 371.284C520.104 371.284 519.101 370.997 518.231 370.423C517.361 369.843 516.68 369.026 516.189 367.973C515.698 366.913 515.452 365.661 515.452 364.217C515.452 362.785 515.698 361.542 516.189 360.489C516.68 359.435 517.364 358.621 518.24 358.047C519.116 357.473 520.128 357.186 521.276 357.186C522.164 357.186 522.865 357.334 523.38 357.63C523.901 357.92 524.298 358.251 524.57 358.624C524.848 358.991 525.064 359.293 525.218 359.53H525.395V352.818H527.491V371H525.466V368.905H525.218C525.064 369.153 524.845 369.467 524.561 369.846C524.277 370.219 523.871 370.553 523.345 370.849C522.818 371.139 522.117 371.284 521.241 371.284ZM521.525 369.402C522.365 369.402 523.075 369.183 523.655 368.745C524.235 368.301 524.676 367.689 524.978 366.907C525.28 366.12 525.431 365.212 525.431 364.182C525.431 363.164 525.283 362.273 524.987 361.51C524.691 360.74 524.253 360.142 523.673 359.716C523.093 359.284 522.377 359.068 521.525 359.068C520.637 359.068 519.897 359.296 519.305 359.752C518.719 360.202 518.278 360.814 517.982 361.589C517.692 362.359 517.547 363.223 517.547 364.182C517.547 365.152 517.695 366.034 517.991 366.827C518.293 367.615 518.737 368.242 519.323 368.71C519.915 369.171 520.649 369.402 521.525 369.402ZM536.768 371.284C535.632 371.284 534.628 370.997 533.758 370.423C532.888 369.843 532.208 369.026 531.716 367.973C531.225 366.913 530.98 365.661 530.98 364.217C530.98 362.785 531.225 361.542 531.716 360.489C532.208 359.435 532.891 358.621 533.767 358.047C534.643 357.473 535.655 357.186 536.803 357.186C537.691 357.186 538.393 357.334 538.907 357.63C539.428 357.92 539.825 358.251 540.097 358.624C540.375 358.991 540.591 359.293 540.745 359.53H540.923V352.818H543.018V371H540.994V368.905H540.745C540.591 369.153 540.372 369.467 540.088 369.846C539.804 370.219 539.399 370.553 538.872 370.849C538.345 371.139 537.644 371.284 536.768 371.284ZM537.052 369.402C537.892 369.402 538.603 369.183 539.183 368.745C539.763 368.301 540.204 367.689 540.506 366.907C540.807 366.12 540.958 365.212 540.958 364.182C540.958 363.164 540.81 362.273 540.514 361.51C540.218 360.74 539.78 360.142 539.2 359.716C538.62 359.284 537.904 359.068 537.052 359.068C536.164 359.068 535.424 359.296 534.833 359.752C534.247 360.202 533.806 360.814 533.51 361.589C533.22 362.359 533.075 363.223 533.075 364.182C533.075 365.152 533.223 366.034 533.519 366.827C533.82 367.615 534.264 368.242 534.85 368.71C535.442 369.171 536.176 369.402 537.052 369.402ZM549.241 352.818V371H547.146V352.818H549.241ZM558.796 371.284C557.482 371.284 556.349 370.994 555.396 370.414C554.449 369.828 553.718 369.011 553.203 367.964C552.694 366.91 552.44 365.685 552.44 364.288C552.44 362.892 552.694 361.661 553.203 360.595C553.718 359.524 554.434 358.689 555.351 358.092C556.275 357.488 557.352 357.186 558.583 357.186C559.293 357.186 559.995 357.304 560.687 357.541C561.38 357.778 562.01 358.163 562.578 358.695C563.146 359.222 563.599 359.92 563.936 360.79C564.274 361.661 564.442 362.732 564.442 364.004V364.892H553.931V363.081H562.312C562.312 362.312 562.158 361.625 561.85 361.021C561.548 360.418 561.116 359.941 560.554 359.592C559.998 359.243 559.341 359.068 558.583 359.068C557.748 359.068 557.026 359.275 556.417 359.69C555.813 360.098 555.349 360.631 555.023 361.288C554.697 361.945 554.535 362.649 554.535 363.401V364.608C554.535 365.638 554.712 366.511 555.067 367.227C555.428 367.937 555.929 368.479 556.568 368.852C557.207 369.219 557.95 369.402 558.796 369.402C559.347 369.402 559.844 369.325 560.288 369.171C560.737 369.011 561.125 368.775 561.451 368.461C561.776 368.141 562.028 367.745 562.205 367.271L564.229 367.839C564.016 368.526 563.658 369.13 563.155 369.651C562.652 370.165 562.031 370.568 561.291 370.858C560.551 371.142 559.719 371.284 558.796 371.284ZM573.56 357.364V359.139H566.493V357.364H573.56ZM568.553 354.097H570.648V367.094C570.648 367.686 570.734 368.129 570.905 368.425C571.083 368.715 571.308 368.911 571.58 369.011C571.858 369.106 572.151 369.153 572.459 369.153C572.69 369.153 572.879 369.142 573.027 369.118C573.175 369.088 573.294 369.065 573.382 369.047L573.809 370.929C573.666 370.982 573.468 371.036 573.214 371.089C572.959 371.148 572.637 371.178 572.246 371.178C571.654 371.178 571.074 371.05 570.506 370.796C569.944 370.541 569.476 370.154 569.103 369.633C568.736 369.112 568.553 368.455 568.553 367.662V354.097ZM582.105 371.284C580.874 371.284 579.794 370.991 578.864 370.405C577.941 369.819 577.219 369 576.698 367.946C576.183 366.893 575.926 365.661 575.926 364.253C575.926 362.832 576.183 361.592 576.698 360.533C577.219 359.474 577.941 358.651 578.864 358.065C579.794 357.479 580.874 357.186 582.105 357.186C583.336 357.186 584.413 357.479 585.336 358.065C586.266 358.651 586.988 359.474 587.503 360.533C588.023 361.592 588.284 362.832 588.284 364.253C588.284 365.661 588.023 366.893 587.503 367.946C586.988 369 586.266 369.819 585.336 370.405C584.413 370.991 583.336 371.284 582.105 371.284ZM582.105 369.402C583.04 369.402 583.809 369.162 584.413 368.683C585.017 368.203 585.464 367.573 585.754 366.792C586.044 366.011 586.189 365.164 586.189 364.253C586.189 363.341 586.044 362.492 585.754 361.705C585.464 360.918 585.017 360.281 584.413 359.796C583.809 359.311 583.04 359.068 582.105 359.068C581.17 359.068 580.4 359.311 579.797 359.796C579.193 360.281 578.746 360.918 578.456 361.705C578.166 362.492 578.021 363.341 578.021 364.253C578.021 365.164 578.166 366.011 578.456 366.792C578.746 367.573 579.193 368.203 579.797 368.683C580.4 369.162 581.17 369.402 582.105 369.402ZM594.108 371L589.953 357.364H592.155L595.102 367.804H595.244L598.156 357.364H600.393L603.27 367.768H603.412L606.359 357.364H608.561L604.406 371H602.346L599.363 360.524H599.15L596.167 371H594.108ZM613.426 362.797V371H611.331V357.364H613.355V359.494H613.532C613.852 358.802 614.337 358.246 614.988 357.825C615.639 357.399 616.48 357.186 617.51 357.186C618.433 357.186 619.241 357.375 619.933 357.754C620.626 358.127 621.164 358.695 621.549 359.459C621.934 360.216 622.126 361.175 622.126 362.335V371H620.031V362.477C620.031 361.406 619.753 360.571 619.196 359.974C618.64 359.37 617.877 359.068 616.906 359.068C616.237 359.068 615.639 359.213 615.113 359.503C614.592 359.793 614.18 360.216 613.879 360.773C613.577 361.329 613.426 362.004 613.426 362.797Z" fill="black"/>
<path d="M288.207 262.771V260.818H301.844V262.771H296.126V279H293.925V262.771H288.207ZM308.52 279.284C307.289 279.284 306.209 278.991 305.279 278.405C304.356 277.819 303.634 277 303.113 275.946C302.598 274.893 302.341 273.661 302.341 272.253C302.341 270.832 302.598 269.592 303.113 268.533C303.634 267.474 304.356 266.651 305.279 266.065C306.209 265.479 307.289 265.186 308.52 265.186C309.751 265.186 310.828 265.479 311.751 266.065C312.681 266.651 313.403 267.474 313.918 268.533C314.438 269.592 314.699 270.832 314.699 272.253C314.699 273.661 314.438 274.893 313.918 275.946C313.403 277 312.681 277.819 311.751 278.405C310.828 278.991 309.751 279.284 308.52 279.284ZM308.52 277.402C309.455 277.402 310.224 277.162 310.828 276.683C311.432 276.203 311.879 275.573 312.169 274.792C312.459 274.011 312.604 273.164 312.604 272.253C312.604 271.341 312.459 270.492 312.169 269.705C311.879 268.918 311.432 268.281 310.828 267.796C310.224 267.311 309.455 267.068 308.52 267.068C307.585 267.068 306.815 267.311 306.212 267.796C305.608 268.281 305.161 268.918 304.871 269.705C304.581 270.492 304.436 271.341 304.436 272.253C304.436 273.164 304.581 274.011 304.871 274.792C305.161 275.573 305.608 276.203 306.212 276.683C306.815 277.162 307.585 277.402 308.52 277.402ZM317.897 279V265.364H319.921V267.423H320.063C320.312 266.749 320.762 266.201 321.413 265.781C322.064 265.361 322.798 265.151 323.614 265.151C323.768 265.151 323.961 265.154 324.191 265.159C324.422 265.165 324.597 265.174 324.715 265.186V267.317C324.644 267.299 324.482 267.272 324.227 267.237C323.978 267.195 323.715 267.175 323.437 267.175C322.774 267.175 322.182 267.314 321.661 267.592C321.146 267.864 320.738 268.243 320.436 268.728C320.14 269.208 319.992 269.755 319.992 270.371V279H317.897ZM327.199 279V265.364H329.223V267.423H329.365C329.614 266.749 330.063 266.201 330.714 265.781C331.366 265.361 332.099 265.151 332.916 265.151C333.07 265.151 333.262 265.154 333.493 265.159C333.724 265.165 333.899 265.174 334.017 265.186V267.317C333.946 267.299 333.783 267.272 333.529 267.237C333.28 267.195 333.017 267.175 332.739 267.175C332.076 267.175 331.484 267.314 330.963 267.592C330.448 267.864 330.04 268.243 329.738 268.728C329.442 269.208 329.294 269.755 329.294 270.371V279H327.199ZM336.501 279V265.364H338.596V279H336.501ZM337.566 263.091C337.158 263.091 336.805 262.952 336.509 262.674C336.219 262.395 336.074 262.061 336.074 261.67C336.074 261.28 336.219 260.945 336.509 260.667C336.805 260.389 337.158 260.25 337.566 260.25C337.974 260.25 338.324 260.389 338.614 260.667C338.909 260.945 339.057 261.28 339.057 261.67C339.057 262.061 338.909 262.395 338.614 262.674C338.324 262.952 337.974 263.091 337.566 263.091ZM344.528 270.797V279H342.433V265.364H344.457V267.494H344.635C344.955 266.802 345.44 266.246 346.091 265.825C346.742 265.399 347.582 265.186 348.612 265.186C349.536 265.186 350.343 265.375 351.036 265.754C351.728 266.127 352.267 266.695 352.652 267.459C353.036 268.216 353.229 269.175 353.229 270.335V279H351.134V270.477C351.134 269.406 350.855 268.571 350.299 267.974C349.743 267.37 348.979 267.068 348.009 267.068C347.34 267.068 346.742 267.213 346.215 267.503C345.694 267.793 345.283 268.216 344.981 268.773C344.679 269.329 344.528 270.004 344.528 270.797ZM362.562 284.398C361.549 284.398 360.679 284.268 359.951 284.007C359.223 283.753 358.617 283.415 358.131 282.995C357.652 282.581 357.27 282.137 356.986 281.663L358.655 280.491C358.845 280.74 359.084 281.024 359.374 281.344C359.664 281.669 360.061 281.95 360.564 282.187C361.073 282.43 361.739 282.551 362.562 282.551C363.662 282.551 364.571 282.285 365.287 281.752C366.003 281.219 366.361 280.385 366.361 279.249V276.479H366.184C366.03 276.727 365.811 277.035 365.527 277.402C365.249 277.763 364.846 278.086 364.319 278.37C363.799 278.648 363.094 278.787 362.206 278.787C361.106 278.787 360.117 278.527 359.241 278.006C358.371 277.485 357.682 276.727 357.173 275.733C356.67 274.739 356.418 273.531 356.418 272.111C356.418 270.714 356.664 269.498 357.155 268.462C357.646 267.42 358.33 266.615 359.206 266.047C360.082 265.473 361.094 265.186 362.242 265.186C363.13 265.186 363.834 265.334 364.355 265.63C364.882 265.92 365.284 266.251 365.562 266.624C365.846 266.991 366.065 267.293 366.219 267.53H366.432V265.364H368.456V279.391C368.456 280.562 368.19 281.515 367.657 282.249C367.131 282.989 366.42 283.531 365.527 283.874C364.639 284.223 363.651 284.398 362.562 284.398ZM362.491 276.905C363.331 276.905 364.041 276.712 364.621 276.328C365.201 275.943 365.642 275.39 365.944 274.668C366.246 273.946 366.397 273.081 366.397 272.075C366.397 271.093 366.249 270.226 365.953 269.474C365.657 268.722 365.219 268.134 364.639 267.707C364.059 267.281 363.343 267.068 362.491 267.068C361.603 267.068 360.863 267.293 360.271 267.743C359.685 268.193 359.244 268.796 358.948 269.554C358.658 270.312 358.513 271.152 358.513 272.075C358.513 273.022 358.661 273.86 358.957 274.588C359.259 275.31 359.703 275.878 360.289 276.292C360.881 276.701 361.615 276.905 362.491 276.905ZM378.222 265.364V267.139H371.155V265.364H378.222ZM373.215 262.097H375.31V275.094C375.31 275.686 375.396 276.129 375.568 276.425C375.745 276.715 375.97 276.911 376.242 277.011C376.52 277.106 376.813 277.153 377.121 277.153C377.352 277.153 377.541 277.142 377.689 277.118C377.837 277.088 377.956 277.065 378.044 277.047L378.471 278.929C378.329 278.982 378.13 279.036 377.876 279.089C377.621 279.148 377.299 279.178 376.908 279.178C376.316 279.178 375.736 279.05 375.168 278.796C374.606 278.541 374.138 278.154 373.765 277.633C373.398 277.112 373.215 276.455 373.215 275.662V262.097ZM386.767 279.284C385.536 279.284 384.456 278.991 383.527 278.405C382.603 277.819 381.881 277 381.36 275.946C380.845 274.893 380.588 273.661 380.588 272.253C380.588 270.832 380.845 269.592 381.36 268.533C381.881 267.474 382.603 266.651 383.527 266.065C384.456 265.479 385.536 265.186 386.767 265.186C387.998 265.186 389.075 265.479 389.998 266.065C390.928 266.651 391.65 267.474 392.165 268.533C392.686 269.592 392.946 270.832 392.946 272.253C392.946 273.661 392.686 274.893 392.165 275.946C391.65 277 390.928 277.819 389.998 278.405C389.075 278.991 387.998 279.284 386.767 279.284ZM386.767 277.402C387.702 277.402 388.472 277.162 389.075 276.683C389.679 276.203 390.126 275.573 390.416 274.792C390.706 274.011 390.851 273.164 390.851 272.253C390.851 271.341 390.706 270.492 390.416 269.705C390.126 268.918 389.679 268.281 389.075 267.796C388.472 267.311 387.702 267.068 386.767 267.068C385.832 267.068 385.062 267.311 384.459 267.796C383.855 268.281 383.408 268.918 383.118 269.705C382.828 270.492 382.683 271.341 382.683 272.253C382.683 273.164 382.828 274.011 383.118 274.792C383.408 275.573 383.855 276.203 384.459 276.683C385.062 277.162 385.832 277.402 386.767 277.402ZM398.239 270.797V279H396.144V265.364H398.168V267.494H398.346C398.665 266.802 399.151 266.246 399.802 265.825C400.453 265.399 401.293 265.186 402.323 265.186C403.246 265.186 404.054 265.375 404.747 265.754C405.439 266.127 405.978 266.695 406.363 267.459C406.747 268.216 406.94 269.175 406.94 270.335V279H404.844V270.477C404.844 269.406 404.566 268.571 404.01 267.974C403.454 267.37 402.69 267.068 401.719 267.068C401.051 267.068 400.453 267.213 399.926 267.503C399.405 267.793 398.994 268.216 398.692 268.773C398.39 269.329 398.239 270.004 398.239 270.797Z" fill="black"/>
<path d="M171.812 466H166.202V447.818H172.061C173.825 447.818 175.334 448.182 176.589 448.91C177.844 449.632 178.805 450.671 179.474 452.026C180.143 453.376 180.477 454.991 180.477 456.874C180.477 458.768 180.14 460.398 179.465 461.765C178.79 463.127 177.808 464.174 176.518 464.908C175.228 465.636 173.659 466 171.812 466ZM168.403 464.047H171.67C173.174 464.047 174.42 463.757 175.408 463.177C176.396 462.597 177.133 461.771 177.619 460.7C178.104 459.629 178.347 458.353 178.347 456.874C178.347 455.406 178.107 454.142 177.627 453.083C177.148 452.017 176.432 451.201 175.479 450.632C174.526 450.058 173.339 449.771 171.919 449.771H168.403V464.047ZM187.899 466.32C187.035 466.32 186.251 466.157 185.547 465.831C184.842 465.5 184.283 465.023 183.869 464.402C183.454 463.775 183.247 463.017 183.247 462.129C183.247 461.348 183.401 460.715 183.709 460.229C184.017 459.738 184.428 459.353 184.943 459.075C185.458 458.797 186.026 458.59 186.647 458.454C187.275 458.312 187.905 458.199 188.538 458.116C189.367 458.01 190.039 457.93 190.554 457.877C191.074 457.818 191.453 457.72 191.69 457.584C191.933 457.448 192.054 457.211 192.054 456.874V456.803C192.054 455.927 191.814 455.246 191.335 454.761C190.861 454.275 190.142 454.033 189.178 454.033C188.177 454.033 187.393 454.252 186.825 454.69C186.257 455.128 185.857 455.595 185.626 456.092L183.638 455.382C183.993 454.554 184.466 453.908 185.058 453.447C185.656 452.979 186.307 452.654 187.011 452.47C187.722 452.281 188.42 452.186 189.107 452.186C189.545 452.186 190.048 452.239 190.616 452.346C191.19 452.446 191.743 452.657 192.276 452.976C192.815 453.296 193.261 453.778 193.616 454.423C193.972 455.068 194.149 455.933 194.149 457.016V466H192.054V464.153H191.947C191.805 464.449 191.569 464.766 191.237 465.103C190.906 465.441 190.465 465.728 189.914 465.964C189.364 466.201 188.692 466.32 187.899 466.32ZM188.219 464.438C189.047 464.438 189.746 464.275 190.314 463.949C190.888 463.624 191.32 463.203 191.61 462.689C191.906 462.174 192.054 461.632 192.054 461.064V459.146C191.965 459.253 191.77 459.35 191.468 459.439C191.172 459.522 190.829 459.596 190.438 459.661C190.054 459.72 189.678 459.774 189.311 459.821C188.95 459.862 188.657 459.898 188.432 459.928C187.887 459.999 187.378 460.114 186.905 460.274C186.437 460.428 186.058 460.661 185.768 460.975C185.484 461.283 185.342 461.703 185.342 462.236C185.342 462.964 185.612 463.514 186.15 463.887C186.695 464.254 187.384 464.438 188.219 464.438ZM200.068 457.797V466H197.973V452.364H199.997V454.494H200.175C200.495 453.802 200.98 453.246 201.631 452.825C202.282 452.399 203.122 452.186 204.152 452.186C205.076 452.186 205.883 452.375 206.576 452.754C207.268 453.127 207.807 453.695 208.192 454.459C208.576 455.216 208.769 456.175 208.769 457.335V466H206.674V457.477C206.674 456.406 206.395 455.571 205.839 454.974C205.283 454.37 204.519 454.068 203.549 454.068C202.88 454.068 202.282 454.213 201.755 454.503C201.234 454.793 200.823 455.216 200.521 455.773C200.219 456.329 200.068 457.004 200.068 457.797ZM212.881 466V447.818H214.977V454.53H215.154C215.308 454.293 215.521 453.991 215.793 453.624C216.071 453.251 216.468 452.92 216.983 452.63C217.504 452.334 218.208 452.186 219.096 452.186C220.244 452.186 221.256 452.473 222.132 453.047C223.008 453.621 223.692 454.435 224.183 455.489C224.674 456.542 224.92 457.785 224.92 459.217C224.92 460.661 224.674 461.913 224.183 462.973C223.692 464.026 223.011 464.843 222.141 465.423C221.271 465.997 220.268 466.284 219.131 466.284C218.255 466.284 217.554 466.139 217.027 465.849C216.501 465.553 216.095 465.219 215.811 464.846C215.527 464.467 215.308 464.153 215.154 463.905H214.906V466H212.881ZM214.941 459.182C214.941 460.212 215.092 461.12 215.394 461.907C215.696 462.689 216.137 463.301 216.717 463.745C217.297 464.183 218.007 464.402 218.847 464.402C219.723 464.402 220.454 464.171 221.04 463.71C221.632 463.242 222.076 462.615 222.372 461.827C222.674 461.034 222.825 460.152 222.825 459.182C222.825 458.223 222.677 457.359 222.381 456.589C222.091 455.814 221.65 455.202 221.058 454.752C220.472 454.296 219.735 454.068 218.847 454.068C217.995 454.068 217.279 454.284 216.699 454.716C216.119 455.142 215.681 455.74 215.385 456.51C215.089 457.273 214.941 458.164 214.941 459.182ZM236.718 460.425V452.364H238.814V466H236.718V463.692H236.576C236.257 464.384 235.76 464.973 235.085 465.458C234.41 465.938 233.558 466.178 232.528 466.178C231.676 466.178 230.918 465.991 230.255 465.618C229.592 465.239 229.072 464.671 228.693 463.914C228.314 463.15 228.125 462.188 228.125 461.028V452.364H230.22V460.886C230.22 461.881 230.498 462.674 231.054 463.266C231.617 463.857 232.333 464.153 233.203 464.153C233.724 464.153 234.253 464.02 234.792 463.754C235.336 463.488 235.792 463.079 236.159 462.529C236.532 461.978 236.718 461.277 236.718 460.425ZM242.651 466V452.364H244.675V454.423H244.817C245.066 453.749 245.516 453.201 246.167 452.781C246.818 452.361 247.552 452.151 248.368 452.151C248.522 452.151 248.715 452.154 248.945 452.159C249.176 452.165 249.351 452.174 249.469 452.186V454.317C249.398 454.299 249.235 454.272 248.981 454.237C248.732 454.195 248.469 454.175 248.191 454.175C247.528 454.175 246.936 454.314 246.415 454.592C245.9 454.864 245.492 455.243 245.19 455.728C244.894 456.208 244.746 456.755 244.746 457.371V466H242.651ZM253.717 471.114C253.362 471.114 253.045 471.084 252.767 471.025C252.489 470.972 252.297 470.918 252.19 470.865L252.723 469.018C253.232 469.149 253.682 469.196 254.072 469.161C254.463 469.125 254.809 468.95 255.111 468.637C255.419 468.329 255.7 467.829 255.954 467.136L256.345 466.071L251.302 452.364H253.575L257.339 463.23H257.481L261.246 452.364H263.518L257.73 467.989C257.47 468.693 257.147 469.276 256.762 469.738C256.378 470.205 255.931 470.551 255.422 470.776C254.919 471.001 254.351 471.114 253.717 471.114Z" fill="black"/>
<path d="M764.619 471.818V490H762.489L752.581 475.724H752.403V490H750.202V471.818H752.332L762.276 486.129H762.453V471.818H764.619ZM774.458 490.284C773.144 490.284 772.011 489.994 771.058 489.414C770.111 488.828 769.38 488.011 768.865 486.964C768.356 485.91 768.102 484.685 768.102 483.288C768.102 481.892 768.356 480.661 768.865 479.595C769.38 478.524 770.096 477.689 771.014 477.092C771.937 476.488 773.014 476.186 774.245 476.186C774.955 476.186 775.657 476.304 776.349 476.541C777.042 476.778 777.672 477.163 778.24 477.695C778.808 478.222 779.261 478.92 779.598 479.79C779.936 480.661 780.104 481.732 780.104 483.004V483.892H769.593V482.081H777.974C777.974 481.312 777.82 480.625 777.512 480.021C777.21 479.418 776.778 478.941 776.216 478.592C775.66 478.243 775.003 478.068 774.245 478.068C773.411 478.068 772.689 478.275 772.079 478.69C771.475 479.098 771.011 479.631 770.685 480.288C770.36 480.945 770.197 481.649 770.197 482.401V483.608C770.197 484.638 770.374 485.511 770.729 486.227C771.091 486.937 771.591 487.479 772.23 487.852C772.869 488.219 773.612 488.402 774.458 488.402C775.009 488.402 775.506 488.325 775.95 488.171C776.399 488.011 776.787 487.775 777.113 487.461C777.438 487.141 777.69 486.745 777.867 486.271L779.891 486.839C779.678 487.526 779.32 488.13 778.817 488.651C778.314 489.165 777.693 489.568 776.953 489.858C776.213 490.142 775.381 490.284 774.458 490.284ZM786.381 490L782.226 476.364H784.428L787.375 486.804H787.517L790.429 476.364H792.667L795.543 486.768H795.685L798.633 476.364H800.834L796.679 490H794.62L791.637 479.524H791.424L788.441 490H786.381ZM810.919 490V471.818H813.121V488.047H821.573V490H810.919ZM830.238 490.284C829.007 490.284 827.926 489.991 826.997 489.405C826.074 488.819 825.352 488 824.831 486.946C824.316 485.893 824.059 484.661 824.059 483.253C824.059 481.832 824.316 480.592 824.831 479.533C825.352 478.474 826.074 477.651 826.997 477.065C827.926 476.479 829.007 476.186 830.238 476.186C831.469 476.186 832.546 476.479 833.469 477.065C834.398 477.651 835.12 478.474 835.635 479.533C836.156 480.592 836.417 481.832 836.417 483.253C836.417 484.661 836.156 485.893 835.635 486.946C835.12 488 834.398 488.819 833.469 489.405C832.546 489.991 831.469 490.284 830.238 490.284ZM830.238 488.402C831.173 488.402 831.942 488.162 832.546 487.683C833.15 487.203 833.596 486.573 833.886 485.792C834.176 485.011 834.321 484.164 834.321 483.253C834.321 482.341 834.176 481.492 833.886 480.705C833.596 479.918 833.15 479.281 832.546 478.796C831.942 478.311 831.173 478.068 830.238 478.068C829.303 478.068 828.533 478.311 827.929 478.796C827.326 479.281 826.879 479.918 826.589 480.705C826.299 481.492 826.154 482.341 826.154 483.253C826.154 484.164 826.299 485.011 826.589 485.792C826.879 486.573 827.326 487.203 827.929 487.683C828.533 488.162 829.303 488.402 830.238 488.402ZM841.71 481.797V490H839.615V476.364H841.639V478.494H841.817C842.136 477.802 842.622 477.246 843.273 476.825C843.924 476.399 844.764 476.186 845.794 476.186C846.717 476.186 847.525 476.375 848.218 476.754C848.91 477.127 849.449 477.695 849.833 478.459C850.218 479.216 850.41 480.175 850.41 481.335V490H848.315V481.477C848.315 480.406 848.037 479.571 847.481 478.974C846.924 478.37 846.161 478.068 845.19 478.068C844.521 478.068 843.924 478.213 843.397 478.503C842.876 478.793 842.465 479.216 842.163 479.773C841.861 480.329 841.71 481.004 841.71 481.797ZM859.388 490.284C858.252 490.284 857.248 489.997 856.378 489.423C855.508 488.843 854.828 488.026 854.337 486.973C853.845 485.913 853.6 484.661 853.6 483.217C853.6 481.785 853.845 480.542 854.337 479.489C854.828 478.435 855.511 477.621 856.387 477.047C857.263 476.473 858.275 476.186 859.424 476.186C860.311 476.186 861.013 476.334 861.528 476.63C862.048 476.92 862.445 477.251 862.717 477.624C862.995 477.991 863.211 478.293 863.365 478.53H863.543V471.818H865.638V490H863.614V487.905H863.365C863.211 488.153 862.992 488.467 862.708 488.846C862.424 489.219 862.019 489.553 861.492 489.849C860.965 490.139 860.264 490.284 859.388 490.284ZM859.672 488.402C860.513 488.402 861.223 488.183 861.803 487.745C862.383 487.301 862.824 486.689 863.126 485.907C863.427 485.12 863.578 484.212 863.578 483.182C863.578 482.164 863.43 481.273 863.134 480.51C862.839 479.74 862.401 479.142 861.821 478.716C861.241 478.284 860.524 478.068 859.672 478.068C858.784 478.068 858.045 478.296 857.453 478.752C856.867 479.202 856.426 479.814 856.13 480.589C855.84 481.359 855.695 482.223 855.695 483.182C855.695 484.152 855.843 485.034 856.139 485.827C856.441 486.615 856.884 487.242 857.47 487.71C858.062 488.171 858.796 488.402 859.672 488.402ZM875.306 490.284C874.075 490.284 872.995 489.991 872.066 489.405C871.142 488.819 870.42 488 869.899 486.946C869.384 485.893 869.127 484.661 869.127 483.253C869.127 481.832 869.384 480.592 869.899 479.533C870.42 478.474 871.142 477.651 872.066 477.065C872.995 476.479 874.075 476.186 875.306 476.186C876.537 476.186 877.614 476.479 878.538 477.065C879.467 477.651 880.189 478.474 880.704 479.533C881.225 480.592 881.485 481.832 881.485 483.253C881.485 484.661 881.225 485.893 880.704 486.946C880.189 488 879.467 488.819 878.538 489.405C877.614 489.991 876.537 490.284 875.306 490.284ZM875.306 488.402C876.241 488.402 877.011 488.162 877.614 487.683C878.218 487.203 878.665 486.573 878.955 485.792C879.245 485.011 879.39 484.164 879.39 483.253C879.39 482.341 879.245 481.492 878.955 480.705C878.665 479.918 878.218 479.281 877.614 478.796C877.011 478.311 876.241 478.068 875.306 478.068C874.371 478.068 873.601 478.311 872.998 478.796C872.394 479.281 871.947 479.918 871.657 480.705C871.367 481.492 871.222 482.341 871.222 483.253C871.222 484.164 871.367 485.011 871.657 485.792C871.947 486.573 872.394 487.203 872.998 487.683C873.601 488.162 874.371 488.402 875.306 488.402ZM886.778 481.797V490H884.683V476.364H886.707V478.494H886.885C887.205 477.802 887.69 477.246 888.341 476.825C888.992 476.399 889.832 476.186 890.862 476.186C891.786 476.186 892.593 476.375 893.286 476.754C893.978 477.127 894.517 477.695 894.902 478.459C895.286 479.216 895.479 480.175 895.479 481.335V490H893.384V481.477C893.384 480.406 893.105 479.571 892.549 478.974C891.993 478.37 891.229 478.068 890.259 478.068C889.59 478.068 888.992 478.213 888.465 478.503C887.944 478.793 887.533 479.216 887.231 479.773C886.929 480.329 886.778 481.004 886.778 481.797Z" fill="black"/>
<path d="M238.202 609V590.818H244.558C245.825 590.818 246.869 591.037 247.692 591.475C248.515 591.907 249.127 592.49 249.53 593.224C249.932 593.952 250.134 594.76 250.134 595.648C250.134 596.429 249.994 597.074 249.716 597.583C249.444 598.092 249.083 598.495 248.633 598.79C248.189 599.086 247.707 599.305 247.186 599.447V599.625C247.742 599.661 248.302 599.856 248.864 600.211C249.426 600.566 249.897 601.075 250.276 601.738C250.654 602.401 250.844 603.212 250.844 604.17C250.844 605.082 250.637 605.902 250.222 606.63C249.808 607.358 249.154 607.935 248.26 608.361C247.367 608.787 246.204 609 244.771 609H238.202ZM240.403 607.047H244.771C246.21 607.047 247.23 606.769 247.834 606.212C248.444 605.65 248.749 604.969 248.749 604.17C248.749 603.555 248.592 602.987 248.278 602.466C247.964 601.939 247.518 601.519 246.938 601.205C246.357 600.886 245.671 600.726 244.878 600.726H240.403V607.047ZM240.403 598.808H244.487C245.15 598.808 245.748 598.678 246.281 598.418C246.819 598.157 247.245 597.79 247.559 597.317C247.879 596.843 248.038 596.287 248.038 595.648C248.038 594.849 247.76 594.171 247.204 593.615C246.647 593.052 245.766 592.771 244.558 592.771H240.403V598.808ZM254.177 609V595.364H256.202V597.423H256.344C256.592 596.749 257.042 596.201 257.693 595.781C258.344 595.361 259.078 595.151 259.895 595.151C260.049 595.151 260.241 595.154 260.472 595.159C260.703 595.165 260.877 595.174 260.996 595.186V597.317C260.925 597.299 260.762 597.272 260.507 597.237C260.259 597.195 259.995 597.175 259.717 597.175C259.054 597.175 258.462 597.314 257.942 597.592C257.427 597.864 257.018 598.243 256.716 598.728C256.421 599.208 256.273 599.755 256.273 600.371V609H254.177ZM263.479 609V595.364H265.574V609H263.479ZM264.544 593.091C264.136 593.091 263.784 592.952 263.488 592.674C263.198 592.395 263.053 592.061 263.053 591.67C263.053 591.28 263.198 590.945 263.488 590.667C263.784 590.389 264.136 590.25 264.544 590.25C264.953 590.25 265.302 590.389 265.592 590.667C265.888 590.945 266.036 591.28 266.036 591.67C266.036 592.061 265.888 592.395 265.592 592.674C265.302 592.952 264.953 593.091 264.544 593.091ZM274.561 609.284C273.425 609.284 272.421 608.997 271.551 608.423C270.681 607.843 270.001 607.026 269.509 605.973C269.018 604.913 268.773 603.661 268.773 602.217C268.773 600.785 269.018 599.542 269.509 598.489C270.001 597.435 270.684 596.621 271.56 596.047C272.436 595.473 273.448 595.186 274.596 595.186C275.484 595.186 276.186 595.334 276.7 595.63C277.221 595.92 277.618 596.251 277.89 596.624C278.168 596.991 278.384 597.293 278.538 597.53H278.716V590.818H280.811V609H278.787V606.905H278.538C278.384 607.153 278.165 607.467 277.881 607.846C277.597 608.219 277.192 608.553 276.665 608.849C276.138 609.139 275.437 609.284 274.561 609.284ZM274.845 607.402C275.685 607.402 276.396 607.183 276.976 606.745C277.556 606.301 277.997 605.689 278.298 604.907C278.6 604.12 278.751 603.212 278.751 602.182C278.751 601.164 278.603 600.273 278.307 599.51C278.011 598.74 277.573 598.142 276.993 597.716C276.413 597.284 275.697 597.068 274.845 597.068C273.957 597.068 273.217 597.296 272.626 597.752C272.04 598.202 271.599 598.814 271.303 599.589C271.013 600.359 270.868 601.223 270.868 602.182C270.868 603.152 271.016 604.034 271.312 604.827C271.613 605.615 272.057 606.242 272.643 606.71C273.235 607.171 273.969 607.402 274.845 607.402ZM290.443 614.398C289.431 614.398 288.561 614.268 287.833 614.007C287.105 613.753 286.499 613.415 286.013 612.995C285.534 612.581 285.152 612.137 284.868 611.663L286.537 610.491C286.727 610.74 286.966 611.024 287.256 611.344C287.546 611.669 287.943 611.95 288.446 612.187C288.955 612.43 289.621 612.551 290.443 612.551C291.544 612.551 292.453 612.285 293.169 611.752C293.885 611.219 294.243 610.385 294.243 609.249V606.479H294.066C293.912 606.727 293.693 607.035 293.409 607.402C293.13 607.763 292.728 608.086 292.201 608.37C291.68 608.648 290.976 608.787 290.088 608.787C288.987 608.787 287.999 608.527 287.123 608.006C286.253 607.485 285.564 606.727 285.055 605.733C284.551 604.739 284.3 603.531 284.3 602.111C284.3 600.714 284.546 599.498 285.037 598.462C285.528 597.42 286.212 596.615 287.088 596.047C287.963 595.473 288.976 595.186 290.124 595.186C291.012 595.186 291.716 595.334 292.237 595.63C292.763 595.92 293.166 596.251 293.444 596.624C293.728 596.991 293.947 597.293 294.101 597.53H294.314V595.364H296.338V609.391C296.338 610.562 296.072 611.515 295.539 612.249C295.012 612.989 294.302 613.531 293.409 613.874C292.521 614.223 291.532 614.398 290.443 614.398ZM290.372 606.905C291.213 606.905 291.923 606.712 292.503 606.328C293.083 605.943 293.524 605.39 293.826 604.668C294.128 603.946 294.279 603.081 294.279 602.075C294.279 601.093 294.131 600.226 293.835 599.474C293.539 598.722 293.101 598.134 292.521 597.707C291.941 597.281 291.225 597.068 290.372 597.068C289.485 597.068 288.745 597.293 288.153 597.743C287.567 598.193 287.126 598.796 286.83 599.554C286.54 600.312 286.395 601.152 286.395 602.075C286.395 603.022 286.543 603.86 286.839 604.588C287.141 605.31 287.585 605.878 288.171 606.292C288.762 606.701 289.496 606.905 290.372 606.905ZM305.891 609.284C304.577 609.284 303.443 608.994 302.491 608.414C301.544 607.828 300.813 607.011 300.298 605.964C299.789 604.91 299.534 603.685 299.534 602.288C299.534 600.892 299.789 599.661 300.298 598.595C300.813 597.524 301.529 596.689 302.446 596.092C303.369 595.488 304.447 595.186 305.678 595.186C306.388 595.186 307.089 595.304 307.782 595.541C308.474 595.778 309.105 596.163 309.673 596.695C310.241 597.222 310.694 597.92 311.031 598.79C311.368 599.661 311.537 600.732 311.537 602.004V602.892H301.026V601.081H309.406C309.406 600.312 309.253 599.625 308.945 599.021C308.643 598.418 308.211 597.941 307.649 597.592C307.092 597.243 306.435 597.068 305.678 597.068C304.843 597.068 304.121 597.275 303.512 597.69C302.908 598.098 302.443 598.631 302.118 599.288C301.792 599.945 301.629 600.649 301.629 601.401V602.608C301.629 603.638 301.807 604.511 302.162 605.227C302.523 605.937 303.023 606.479 303.662 606.852C304.302 607.219 305.044 607.402 305.891 607.402C306.441 607.402 306.938 607.325 307.382 607.171C307.832 607.011 308.22 606.775 308.545 606.461C308.871 606.141 309.122 605.745 309.3 605.271L311.324 605.839C311.111 606.526 310.753 607.13 310.25 607.651C309.747 608.165 309.125 608.568 308.385 608.858C307.646 609.142 306.814 609.284 305.891 609.284ZM314.724 614.114V595.364H316.748V597.53H316.997C317.151 597.293 317.364 596.991 317.636 596.624C317.914 596.251 318.311 595.92 318.826 595.63C319.347 595.334 320.051 595.186 320.939 595.186C322.087 595.186 323.099 595.473 323.975 596.047C324.851 596.621 325.535 597.435 326.026 598.489C326.517 599.542 326.763 600.785 326.763 602.217C326.763 603.661 326.517 604.913 326.026 605.973C325.535 607.026 324.854 607.843 323.984 608.423C323.114 608.997 322.111 609.284 320.974 609.284C320.098 609.284 319.397 609.139 318.87 608.849C318.343 608.553 317.938 608.219 317.654 607.846C317.37 607.467 317.151 607.153 316.997 606.905H316.819V614.114H314.724ZM316.784 602.182C316.784 603.212 316.935 604.12 317.237 604.907C317.539 605.689 317.979 606.301 318.559 606.745C319.14 607.183 319.85 607.402 320.69 607.402C321.566 607.402 322.297 607.171 322.883 606.71C323.475 606.242 323.919 605.615 324.215 604.827C324.517 604.034 324.667 603.152 324.667 602.182C324.667 601.223 324.519 600.359 324.224 599.589C323.934 598.814 323.493 598.202 322.901 597.752C322.315 597.296 321.578 597.068 320.69 597.068C319.838 597.068 319.122 597.284 318.542 597.716C317.962 598.142 317.524 598.74 317.228 599.51C316.932 600.273 316.784 601.164 316.784 602.182ZM335.498 609.284C334.267 609.284 333.187 608.991 332.258 608.405C331.335 607.819 330.613 607 330.092 605.946C329.577 604.893 329.319 603.661 329.319 602.253C329.319 600.832 329.577 599.592 330.092 598.533C330.613 597.474 331.335 596.651 332.258 596.065C333.187 595.479 334.267 595.186 335.498 595.186C336.729 595.186 337.807 595.479 338.73 596.065C339.659 596.651 340.381 597.474 340.896 598.533C341.417 599.592 341.677 600.832 341.677 602.253C341.677 603.661 341.417 604.893 340.896 605.946C340.381 607 339.659 607.819 338.73 608.405C337.807 608.991 336.729 609.284 335.498 609.284ZM335.498 607.402C336.434 607.402 337.203 607.162 337.807 606.683C338.41 606.203 338.857 605.573 339.147 604.792C339.437 604.011 339.582 603.164 339.582 602.253C339.582 601.341 339.437 600.492 339.147 599.705C338.857 598.918 338.41 598.281 337.807 597.796C337.203 597.311 336.434 597.068 335.498 597.068C334.563 597.068 333.794 597.311 333.19 597.796C332.586 598.281 332.14 598.918 331.85 599.705C331.56 600.492 331.415 601.341 331.415 602.253C331.415 603.164 331.56 604.011 331.85 604.792C332.14 605.573 332.586 606.203 333.19 606.683C333.794 607.162 334.563 607.402 335.498 607.402ZM344.876 609V595.364H346.9V597.423H347.042C347.29 596.749 347.74 596.201 348.391 595.781C349.042 595.361 349.776 595.151 350.593 595.151C350.747 595.151 350.939 595.154 351.17 595.159C351.401 595.165 351.575 595.174 351.694 595.186V597.317C351.623 597.299 351.46 597.272 351.206 597.237C350.957 597.195 350.694 597.175 350.415 597.175C349.753 597.175 349.161 597.314 348.64 597.592C348.125 597.864 347.717 598.243 347.415 598.728C347.119 599.208 346.971 599.755 346.971 600.371V609H344.876ZM360.962 595.364V597.139H353.896V595.364H360.962ZM355.955 592.097H358.05V605.094C358.05 605.686 358.136 606.129 358.308 606.425C358.485 606.715 358.71 606.911 358.983 607.011C359.261 607.106 359.554 607.153 359.861 607.153C360.092 607.153 360.282 607.142 360.43 607.118C360.578 607.088 360.696 607.065 360.785 607.047L361.211 608.929C361.069 608.982 360.871 609.036 360.616 609.089C360.362 609.148 360.039 609.178 359.648 609.178C359.056 609.178 358.476 609.05 357.908 608.796C357.346 608.541 356.878 608.154 356.506 607.633C356.139 607.112 355.955 606.455 355.955 605.662V592.097Z" fill="black"/>
<path d="M112.145 666.364C112.038 665.464 111.606 664.766 110.849 664.268C110.091 663.771 109.162 663.523 108.061 663.523C107.256 663.523 106.552 663.653 105.948 663.913C105.35 664.174 104.883 664.532 104.545 664.988C104.214 665.443 104.048 665.961 104.048 666.541C104.048 667.027 104.164 667.444 104.395 667.793C104.631 668.136 104.933 668.423 105.3 668.654C105.667 668.879 106.052 669.065 106.454 669.213C106.857 669.355 107.227 669.471 107.564 669.56L109.411 670.057C109.884 670.181 110.411 670.353 110.991 670.572C111.577 670.791 112.136 671.09 112.669 671.468C113.207 671.841 113.651 672.321 114 672.907C114.35 673.493 114.524 674.212 114.524 675.064C114.524 676.046 114.267 676.934 113.752 677.727C113.243 678.52 112.497 679.151 111.515 679.618C110.538 680.086 109.351 680.32 107.955 680.32C106.652 680.32 105.525 680.109 104.572 679.689C103.625 679.269 102.879 678.683 102.335 677.931C101.796 677.18 101.491 676.307 101.42 675.312H103.693C103.752 675.999 103.983 676.567 104.386 677.017C104.794 677.461 105.309 677.792 105.93 678.011C106.558 678.224 107.232 678.331 107.955 678.331C108.795 678.331 109.55 678.195 110.218 677.923C110.887 677.644 111.417 677.26 111.808 676.768C112.198 676.271 112.393 675.691 112.393 675.028C112.393 674.425 112.225 673.933 111.887 673.555C111.55 673.176 111.106 672.868 110.556 672.631C110.005 672.395 109.411 672.187 108.771 672.01L106.534 671.371C105.114 670.962 103.989 670.379 103.161 669.622C102.332 668.864 101.918 667.873 101.918 666.648C101.918 665.63 102.193 664.742 102.743 663.984C103.3 663.221 104.045 662.629 104.98 662.209C105.922 661.783 106.972 661.57 108.132 661.57C109.304 661.57 110.346 661.78 111.257 662.2C112.169 662.614 112.891 663.182 113.423 663.904C113.962 664.627 114.246 665.446 114.276 666.364H112.145ZM123.79 666.364V668.139H116.724V666.364H123.79ZM118.783 663.097H120.878V676.094C120.878 676.686 120.964 677.129 121.136 677.425C121.313 677.715 121.538 677.911 121.811 678.011C122.089 678.106 122.382 678.153 122.69 678.153C122.92 678.153 123.11 678.142 123.258 678.118C123.406 678.088 123.524 678.065 123.613 678.047L124.039 679.929C123.897 679.982 123.699 680.036 123.444 680.089C123.19 680.148 122.867 680.178 122.476 680.178C121.885 680.178 121.305 680.05 120.736 679.796C120.174 679.541 119.707 679.154 119.334 678.633C118.967 678.112 118.783 677.455 118.783 676.662V663.097ZM130.955 680.32C130.091 680.32 129.306 680.157 128.602 679.831C127.898 679.5 127.339 679.023 126.924 678.402C126.51 677.775 126.303 677.017 126.303 676.129C126.303 675.348 126.457 674.715 126.764 674.229C127.072 673.738 127.484 673.353 127.998 673.075C128.513 672.797 129.082 672.59 129.703 672.454C130.33 672.312 130.961 672.199 131.594 672.116C132.423 672.01 133.094 671.93 133.609 671.877C134.13 671.818 134.509 671.72 134.746 671.584C134.988 671.448 135.11 671.211 135.11 670.874V670.803C135.11 669.927 134.87 669.246 134.391 668.761C133.917 668.275 133.198 668.033 132.233 668.033C131.233 668.033 130.449 668.252 129.881 668.69C129.312 669.128 128.913 669.595 128.682 670.092L126.693 669.382C127.049 668.554 127.522 667.908 128.114 667.447C128.712 666.979 129.363 666.654 130.067 666.47C130.777 666.281 131.476 666.186 132.162 666.186C132.6 666.186 133.103 666.239 133.671 666.346C134.246 666.446 134.799 666.657 135.332 666.976C135.87 667.296 136.317 667.778 136.672 668.423C137.027 669.068 137.205 669.933 137.205 671.016V680H135.11V678.153H135.003C134.861 678.449 134.624 678.766 134.293 679.103C133.961 679.441 133.521 679.728 132.97 679.964C132.42 680.201 131.748 680.32 130.955 680.32ZM131.274 678.438C132.103 678.438 132.801 678.275 133.37 677.949C133.944 677.624 134.376 677.203 134.666 676.689C134.962 676.174 135.11 675.632 135.11 675.064V673.146C135.021 673.253 134.826 673.35 134.524 673.439C134.228 673.522 133.884 673.596 133.494 673.661C133.109 673.72 132.733 673.774 132.366 673.821C132.005 673.862 131.712 673.898 131.487 673.928C130.943 673.999 130.434 674.114 129.96 674.274C129.493 674.428 129.114 674.661 128.824 674.975C128.54 675.283 128.398 675.703 128.398 676.236C128.398 676.964 128.667 677.514 129.206 677.887C129.75 678.254 130.44 678.438 131.274 678.438ZM141.029 680V666.364H143.053V668.494H143.231C143.515 667.766 143.973 667.201 144.607 666.799C145.24 666.39 146.001 666.186 146.888 666.186C147.788 666.186 148.537 666.39 149.134 666.799C149.738 667.201 150.209 667.766 150.546 668.494H150.688C151.037 667.79 151.561 667.231 152.259 666.816C152.958 666.396 153.795 666.186 154.772 666.186C155.991 666.186 156.988 666.568 157.764 667.331C158.539 668.089 158.927 669.27 158.927 670.874V680H156.831V670.874C156.831 669.867 156.556 669.148 156.006 668.716C155.455 668.284 154.807 668.068 154.062 668.068C153.103 668.068 152.36 668.358 151.833 668.938C151.307 669.512 151.043 670.24 151.043 671.122V680H148.912V670.661C148.912 669.885 148.661 669.261 148.158 668.787C147.655 668.308 147.007 668.068 146.214 668.068C145.669 668.068 145.16 668.213 144.687 668.503C144.219 668.793 143.84 669.196 143.55 669.711C143.266 670.22 143.124 670.808 143.124 671.477V680H141.029ZM168.83 666.364V668.139H161.479V666.364H168.83ZM163.681 680V664.482C163.681 663.7 163.864 663.049 164.231 662.528C164.598 662.008 165.075 661.617 165.661 661.357C166.246 661.096 166.865 660.966 167.516 660.966C168.031 660.966 168.451 661.007 168.777 661.09C169.102 661.173 169.345 661.25 169.505 661.321L168.901 663.132C168.794 663.097 168.646 663.052 168.457 662.999C168.274 662.946 168.031 662.919 167.729 662.919C167.037 662.919 166.536 663.094 166.229 663.443C165.927 663.792 165.776 664.304 165.776 664.979V680H163.681ZM176.744 680.284C175.513 680.284 174.433 679.991 173.504 679.405C172.581 678.819 171.859 678 171.338 676.946C170.823 675.893 170.566 674.661 170.566 673.253C170.566 671.832 170.823 670.592 171.338 669.533C171.859 668.474 172.581 667.651 173.504 667.065C174.433 666.479 175.513 666.186 176.744 666.186C177.976 666.186 179.053 666.479 179.976 667.065C180.905 667.651 181.627 668.474 182.142 669.533C182.663 670.592 182.923 671.832 182.923 673.253C182.923 674.661 182.663 675.893 182.142 676.946C181.627 678 180.905 678.819 179.976 679.405C179.053 679.991 177.976 680.284 176.744 680.284ZM176.744 678.402C177.68 678.402 178.449 678.162 179.053 677.683C179.656 677.203 180.103 676.573 180.393 675.792C180.683 675.011 180.828 674.164 180.828 673.253C180.828 672.341 180.683 671.492 180.393 670.705C180.103 669.918 179.656 669.281 179.053 668.796C178.449 668.311 177.68 668.068 176.744 668.068C175.809 668.068 175.04 668.311 174.436 668.796C173.833 669.281 173.386 669.918 173.096 670.705C172.806 671.492 172.661 672.341 172.661 673.253C172.661 674.164 172.806 675.011 173.096 675.792C173.386 676.573 173.833 677.203 174.436 677.683C175.04 678.162 175.809 678.402 176.744 678.402ZM186.122 680V666.364H188.146V668.423H188.288C188.536 667.749 188.986 667.201 189.637 666.781C190.288 666.361 191.022 666.151 191.839 666.151C191.993 666.151 192.185 666.154 192.416 666.159C192.647 666.165 192.822 666.174 192.94 666.186V668.317C192.869 668.299 192.706 668.272 192.452 668.237C192.203 668.195 191.94 668.175 191.661 668.175C190.999 668.175 190.407 668.314 189.886 668.592C189.371 668.864 188.963 669.243 188.661 669.728C188.365 670.208 188.217 670.755 188.217 671.371V680H186.122ZM200.158 680.284C199.021 680.284 198.018 679.997 197.148 679.423C196.278 678.843 195.597 678.026 195.106 676.973C194.615 675.913 194.369 674.661 194.369 673.217C194.369 671.785 194.615 670.542 195.106 669.489C195.597 668.435 196.281 667.621 197.157 667.047C198.033 666.473 199.045 666.186 200.193 666.186C201.081 666.186 201.782 666.334 202.297 666.63C202.818 666.92 203.215 667.251 203.487 667.624C203.765 667.991 203.981 668.293 204.135 668.53H204.312V661.818H206.408V680H204.383V677.905H204.135C203.981 678.153 203.762 678.467 203.478 678.846C203.194 679.219 202.788 679.553 202.262 679.849C201.735 680.139 201.034 680.284 200.158 680.284ZM200.442 678.402C201.282 678.402 201.992 678.183 202.572 677.745C203.152 677.301 203.593 676.689 203.895 675.907C204.197 675.12 204.348 674.212 204.348 673.182C204.348 672.164 204.2 671.273 203.904 670.51C203.608 669.74 203.17 669.142 202.59 668.716C202.01 668.284 201.294 668.068 200.442 668.068C199.554 668.068 198.814 668.296 198.222 668.752C197.636 669.202 197.195 669.814 196.899 670.589C196.609 671.359 196.464 672.223 196.464 673.182C196.464 674.152 196.612 675.034 196.908 675.827C197.21 676.615 197.654 677.242 198.24 677.71C198.832 678.171 199.566 678.402 200.442 678.402Z" fill="black"/>
<circle cx="171.511" cy="703.511" r="9.01136" fill="#FFE587" stroke="black"/>
<circle cx="313.511" cy="627.511" r="9.01136" fill="#FFE587" stroke="black"/>
<circle cx="563.511" cy="388.511" r="9.01136" fill="#FFE587" stroke="black"/>
<circle cx="349.511" cy="238.511" r="9.01136" fill="#FFE587" stroke="black"/>
<circle cx="181.511" cy="488.511" r="9.01136" fill="#FFE587" stroke="black"/>
<circle cx="823.511" cy="511.511" r="9.01136" fill="#FFE587" stroke="black"/>
</svg>
