<svg width="313" height="347" viewBox="0 0 313 347" fill="none" xmlns="http://www.w3.org/2000/svg">
<rect x="0.5" y="0.5" width="312" height="346" rx="36" fill="#202637" stroke="#717171"/>
<path d="M56 247.5L61 242L64 233.5L66 224.5V221L72.5 214.5V211.5L74.5 206.5L72.5 204.5L70 200L68 198.5H64V196H61H58V188.5L53.5 185.5L48 183L46 180V177V175.5L50.5 177L56 180H61H66H72.5V183V185.5L71.5 190L77 196V193.5L80.5 190V185.5V183H77V180V177L83.5 180L86 177V175.5V172L83.5 170L80.5 172H77L74.5 170H77H83.5H86V167H80.5H77H72.5V164.5H80.5L88 162.5L92.5 164.5L100 162.5L103 160V158L108.5 160L113 156H116.5V153.5L123 156H129.5L136.5 153.5H143.5L146.5 150V146L144.5 144.5L143.5 141.5L144.5 137.5L151.5 136H154.5L157.5 137.5H161L167.5 130L165.5 126.5V116.5V114L167.5 112V109H171V104.5L174 101.5L177 96L179.5 91L184 88V83.5L188.5 77L186 67L188.5 56.5L193.5 49.5L196 43.5L199 38L204 35.5L212.5 40L219 47.5L227.5 56.5L231 62.5L233.5 70.5L248 73.5L250 72L252.5 73H261L263 72.5L265 73.5L266.5 74.5V76L265.5 78L263.5 80.5L262.5 84.5L262 88.5L259.5 92L255 95.5L254 101L255.5 105.5L250 114.5V118.5L247.5 122.5L246.5 125L244 128H242C241.6 128 239.167 129.667 238 130.5H235.5L233 132H230.5L228.5 134H227.5L226.5 136.5H224.5C224.333 136.5 223.9 136.6 223.5 137C223.1 137.4 223 138.833 223 139.5V142.5L222.5 143.5L220.5 145L218.5 147H216L214 147.5L213 148.5L209.5 150.5L209 151.5L206.5 154L203 158.5L201.5 160L199.5 162L196.5 165.5L194 166.5L192 167.5L190 168L189.5 169.5L188 170L186 172.5L184.5 175.5L182 177.5H181L179.5 180H175L171.5 184L169.5 187L168.5 189.5L167 190.5H165L161.5 189L159 191L155 191.5L153 193.5V196L154.5 198L155 198.5L155.5 199.5L155 200.5L153 201.5L152 203.5L151 205.5V208.5L148 211.5L146 212L145 212.5L145.5 214L146.5 214.5L147.5 217L147 219.5L145.5 223V226L145 228L143.5 231L144 232.5L145 234L144.5 239.5L145 246V248L144.5 250H143L140.5 249.5H139L138.5 250.5L139 251.5H141.5L143.5 252.5L144.5 253V255L145 256.5C145.167 258.333 145.5 262.1 145.5 262.5C145.5 262.9 144.833 264.333 144.5 265V267.5C144.667 268.667 145 271.1 145 271.5V274C145 274.4 144 276.167 143.5 277C143.667 277.667 143.9 279 143.5 279C143.1 279 140.667 281.333 139.5 282.5V285.5L138.5 287L137.5 287.5H136L136.5 288.5V290L136 291C135.167 291.667 133.4 293 133 293C132.6 293 131.167 291.667 130.5 291L129.5 290.5L129 291V291.5L130 292.5C130.4 292.9 130.833 293.667 131 294C130.667 294 130 294.1 130 294.5C130 294.9 128 295.667 127 296C126.5 296.333 125.4 297 125 297C124.5 297 122 297 122.5 297.5C122.9 297.9 123.667 298 124 298L125.5 298.5V299.5C125.5 300 124.5 300 124.5 300.5C124.5 300.9 123.167 301.667 122.5 302L121.5 303.5L120 306L118.5 308.5L116.5 309.5L114.5 312H112.5L111.5 311L110.5 309.5L109 310L107.5 311.5L104.5 312H102H98.5L95.5 311L92 309H90L89 308L88 306L86.5 306.5L86 307L83 306.5L81 305L80.5 304L80 302L78 300.5L74 297.5L73 296.5V294.5L73.5 292L73 290L72.5 289V286L71 285L70 281.5V280L72.5 278.5L73.5 276.5L73 275L72 272C71 271.5 69.3 269.9 68.5 269.5C67.7 269.1 66.5 268.333 66 268L67 266L69 265.5L67.5 264L65 261.5L66 259.5V257.5L64.5 256L62.5 253L60.5 250L58.5 249.5L56 249L55.5 248L56 247.5Z" fill="#90DAEE"/>
<path d="M56 247.5L61 242L64 233.5L66 224.5V221L72.5 214.5V211.5L74.5 206.5L72.5 204.5L70 200L68 198.5H64V196H61H58V188.5L53.5 185.5L48 183L46 180V177V175.5L50.5 177L56 180H61H66H72.5V183V185.5L71.5 190L77 196V193.5L80.5 190V185.5V183H77V180V177L83.5 180L86 177V175.5V172L83.5 170L80.5 172H77L74.5 170H77H86V167H80.5H77H72.5V164.5H80.5L88 162.5L92.5 164.5L100 162.5L103 160V158L108.5 160L113 156H116.5V153.5L123 156H129.5L136.5 153.5H143.5L146.5 150V146L144.5 144.5L143.5 141.5L144.5 137.5L151.5 136H154.5L157.5 137.5H161L167.5 130L165.5 126.5V116.5V114L167.5 112V109H171V104.5L174 101.5L177 96L179.5 91L184 88V83.5L188.5 77L186 67L188.5 56.5L193.5 49.5L196 43.5L199 38L204 35.5L212.5 40L219 47.5L227.5 56.5L231 62.5L233.5 70.5L248 73.5L250 72L252.5 73H261L263 72.5L265 73.5L266.5 74.5V76L265.5 78L263.5 80.5L262.5 84.5L262 88.5L259.5 92L255 95.5L254 101L255.5 105.5L250 114.5V118.5L247.5 122.5L246.5 125L244 128C243.5 128 242.4 128 242 128C241.6 128 239.167 129.667 238 130.5H235.5L233 132H230.5L228.5 134H227.5L226.5 136.5H224.5C224.333 136.5 223.9 136.6 223.5 137C223.1 137.4 223 138.833 223 139.5V142.5L222.5 143.5L220.5 145L218.5 147H216L214 147.5L213 148.5L209.5 150.5L209 151.5L206.5 154L203 158.5L201.5 160L199.5 162L196.5 165.5L194 166.5L192 167.5L190 168L189.5 169.5L188 170L186 172.5L184.5 175.5L182 177.5H181L179.5 180H175L171.5 184L169.5 187L168.5 189.5L167 190.5H165L161.5 189L159 191L155 191.5L153 193.5V196L154.5 198L155 198.5L155.5 199.5L155 200.5L153 201.5L152 203.5L151 205.5V208.5L148 211.5L146 212L145 212.5L145.5 214L146.5 214.5L147.5 217L147 219.5L145.5 223V226L145 228L143.5 231L144 232.5L145 234L144.5 239.5L145 246V248L144.5 250H143L140.5 249.5H139L138.5 250.5L139 251.5H141.5L143.5 252.5L144.5 253V255L145 256.5C145.167 258.333 145.5 262.1 145.5 262.5C145.5 262.9 144.833 264.333 144.5 265V267.5C144.667 268.667 145 271.1 145 271.5C145 272 145 273.5 145 274C145 274.4 144 276.167 143.5 277C143.667 277.667 143.9 279 143.5 279C143.1 279 140.667 281.333 139.5 282.5V285.5L138.5 287L137.5 287.5H136L136.5 288.5V290L136 291C135.167 291.667 133.4 293 133 293C132.6 293 131.167 291.667 130.5 291L129.5 290.5L129 291V291.5C129.167 291.667 129.6 292.1 130 292.5C130.4 292.9 130.833 293.667 131 294C130.667 294 130 294.1 130 294.5C130 294.9 128 295.667 127 296C126.5 296.333 125.4 297 125 297C124.5 297 122 297 122.5 297.5C122.9 297.9 123.667 298 124 298L125.5 298.5C125.5 298.667 125.5 299.1 125.5 299.5C125.5 300 124.5 300 124.5 300.5C124.5 300.9 123.167 301.667 122.5 302L121.5 303.5L120 306L118.5 308.5L116.5 309.5L114.5 312H112.5L111.5 311L110.5 309.5L109 310L107.5 311.5L104.5 312H102H98.5L95.5 311L92 309H90L89 308L88 306L86.5 306.5L86 307L83 306.5L81 305L80.5 304L80 302L78 300.5L74 297.5L73 296.5V294.5L73.5 292L73 290L72.5 289V286L71 285L70 281.5V280L72.5 278.5L73.5 276.5L73 275L72 272C71 271.5 69.3 269.9 68.5 269.5C67.7 269.1 66.5 268.333 66 268L67 266L69 265.5L67.5 264L65 261.5L66 259.5V257.5L64.5 256L62.5 253L60.5 250L58.5 249.5L56 249L55.5 248L56 247.5Z" stroke="white"/>
<circle cx="133" cy="157" r="5" fill="#FF8F87" stroke="black"/>
<path d="M178.188 122.5H174.821V111.591H178.337C179.395 111.591 180.3 111.809 181.053 112.246C181.806 112.679 182.383 113.303 182.784 114.116C183.186 114.925 183.386 115.895 183.386 117.024C183.386 118.161 183.184 119.139 182.779 119.959C182.374 120.776 181.785 121.404 181.011 121.845C180.237 122.282 179.295 122.5 178.188 122.5ZM176.142 121.328H178.102C179.004 121.328 179.752 121.154 180.345 120.806C180.938 120.458 181.38 119.963 181.671 119.32C181.962 118.677 182.108 117.912 182.108 117.024C182.108 116.143 181.964 115.385 181.676 114.75C181.389 114.11 180.959 113.62 180.387 113.279C179.816 112.935 179.104 112.763 178.251 112.763H176.142V121.328ZM188.862 122.67C188.074 122.67 187.394 122.496 186.822 122.148C186.254 121.797 185.815 121.307 185.506 120.678C185.201 120.046 185.048 119.311 185.048 118.473C185.048 117.635 185.201 116.896 185.506 116.257C185.815 115.614 186.245 115.114 186.795 114.755C187.349 114.393 187.996 114.212 188.734 114.212C189.161 114.212 189.581 114.283 189.997 114.425C190.412 114.567 190.79 114.798 191.131 115.117C191.472 115.433 191.744 115.852 191.946 116.374C192.149 116.896 192.25 117.539 192.25 118.303V118.835H185.943V117.749H190.972C190.972 117.287 190.879 116.875 190.695 116.513C190.513 116.151 190.254 115.865 189.917 115.655C189.583 115.446 189.189 115.341 188.734 115.341C188.234 115.341 187.8 115.465 187.435 115.714C187.072 115.959 186.794 116.278 186.598 116.673C186.403 117.067 186.305 117.489 186.305 117.94V118.665C186.305 119.283 186.412 119.806 186.625 120.236C186.842 120.662 187.142 120.987 187.525 121.211C187.909 121.431 188.354 121.541 188.862 121.541C189.192 121.541 189.491 121.495 189.757 121.403C190.027 121.307 190.26 121.165 190.455 120.977C190.65 120.785 190.801 120.547 190.908 120.263L192.122 120.604C191.994 121.016 191.779 121.378 191.478 121.69C191.176 121.999 190.803 122.241 190.359 122.415C189.915 122.585 189.416 122.67 188.862 122.67ZM197.252 122.67C196.57 122.67 195.968 122.498 195.446 122.154C194.924 121.806 194.516 121.316 194.221 120.684C193.926 120.048 193.779 119.297 193.779 118.43C193.779 117.571 193.926 116.825 194.221 116.193C194.516 115.561 194.926 115.073 195.451 114.728C195.977 114.384 196.584 114.212 197.273 114.212C197.806 114.212 198.227 114.3 198.536 114.478C198.848 114.652 199.086 114.851 199.249 115.075C199.416 115.295 199.546 115.476 199.638 115.618H199.745V111.591H201.002V122.5H199.787V121.243H199.638C199.546 121.392 199.414 121.58 199.244 121.808C199.074 122.031 198.83 122.232 198.514 122.409C198.198 122.583 197.777 122.67 197.252 122.67ZM197.422 121.541C197.926 121.541 198.353 121.41 198.701 121.147C199.049 120.881 199.313 120.513 199.494 120.044C199.675 119.572 199.766 119.027 199.766 118.409C199.766 117.798 199.677 117.264 199.5 116.806C199.322 116.344 199.059 115.985 198.711 115.73C198.363 115.471 197.934 115.341 197.422 115.341C196.89 115.341 196.446 115.478 196.091 115.751C195.739 116.021 195.474 116.388 195.297 116.854C195.123 117.315 195.036 117.834 195.036 118.409C195.036 118.991 195.125 119.521 195.302 119.996C195.483 120.469 195.75 120.845 196.101 121.126C196.456 121.403 196.897 121.541 197.422 121.541ZM206.909 122.67C206.121 122.67 205.441 122.496 204.869 122.148C204.301 121.797 203.862 121.307 203.553 120.678C203.248 120.046 203.095 119.311 203.095 118.473C203.095 117.635 203.248 116.896 203.553 116.257C203.862 115.614 204.292 115.114 204.842 114.755C205.396 114.393 206.043 114.212 206.781 114.212C207.207 114.212 207.628 114.283 208.044 114.425C208.459 114.567 208.837 114.798 209.178 115.117C209.519 115.433 209.791 115.852 209.993 116.374C210.196 116.896 210.297 117.539 210.297 118.303V118.835H203.99V117.749H209.018C209.018 117.287 208.926 116.875 208.741 116.513C208.56 116.151 208.301 115.865 207.964 115.655C207.63 115.446 207.236 115.341 206.781 115.341C206.281 115.341 205.847 115.465 205.482 115.714C205.119 115.959 204.841 116.278 204.645 116.673C204.45 117.067 204.352 117.489 204.352 117.94V118.665C204.352 119.283 204.459 119.806 204.672 120.236C204.888 120.662 205.189 120.987 205.572 121.211C205.956 121.431 206.401 121.541 206.909 121.541C207.239 121.541 207.538 121.495 207.804 121.403C208.074 121.307 208.306 121.165 208.502 120.977C208.697 120.785 208.848 120.547 208.955 120.263L210.169 120.604C210.041 121.016 209.826 121.378 209.525 121.69C209.223 121.999 208.85 122.241 208.406 122.415C207.962 122.585 207.463 122.67 206.909 122.67ZM215.299 122.67C214.617 122.67 214.015 122.498 213.493 122.154C212.971 121.806 212.563 121.316 212.268 120.684C211.973 120.048 211.826 119.297 211.826 118.43C211.826 117.571 211.973 116.825 212.268 116.193C212.563 115.561 212.973 115.073 213.498 114.728C214.024 114.384 214.631 114.212 215.32 114.212C215.853 114.212 216.273 114.3 216.582 114.478C216.895 114.652 217.133 114.851 217.296 115.075C217.463 115.295 217.593 115.476 217.685 115.618H217.792V111.591H219.049V122.5H217.834V121.243H217.685C217.593 121.392 217.461 121.58 217.291 121.808C217.12 122.031 216.877 122.232 216.561 122.409C216.245 122.583 215.824 122.67 215.299 122.67ZM215.469 121.541C215.973 121.541 216.4 121.41 216.748 121.147C217.096 120.881 217.36 120.513 217.541 120.044C217.722 119.572 217.813 119.027 217.813 118.409C217.813 117.798 217.724 117.264 217.547 116.806C217.369 116.344 217.106 115.985 216.758 115.73C216.41 115.471 215.98 115.341 215.469 115.341C214.936 115.341 214.493 115.478 214.137 115.751C213.786 116.021 213.521 116.388 213.344 116.854C213.17 117.315 213.083 117.834 213.083 118.409C213.083 118.991 213.172 119.521 213.349 119.996C213.53 120.469 213.797 120.845 214.148 121.126C214.503 121.403 214.944 121.541 215.469 121.541ZM224.849 122.67C224.111 122.67 223.463 122.495 222.905 122.143C222.351 121.792 221.918 121.3 221.605 120.668C221.297 120.036 221.142 119.297 221.142 118.452C221.142 117.599 221.297 116.855 221.605 116.22C221.918 115.584 222.351 115.091 222.905 114.739C223.463 114.387 224.111 114.212 224.849 114.212C225.588 114.212 226.234 114.387 226.788 114.739C227.346 115.091 227.779 115.584 228.088 116.22C228.401 116.855 228.557 117.599 228.557 118.452C228.557 119.297 228.401 120.036 228.088 120.668C227.779 121.3 227.346 121.792 226.788 122.143C226.234 122.495 225.588 122.67 224.849 122.67ZM224.849 121.541C225.411 121.541 225.872 121.397 226.234 121.11C226.597 120.822 226.865 120.444 227.039 119.975C227.213 119.506 227.3 118.999 227.3 118.452C227.3 117.905 227.213 117.395 227.039 116.923C226.865 116.451 226.597 116.069 226.234 115.778C225.872 115.487 225.411 115.341 224.849 115.341C224.288 115.341 223.827 115.487 223.464 115.778C223.102 116.069 222.834 116.451 222.66 116.923C222.486 117.395 222.399 117.905 222.399 118.452C222.399 118.999 222.486 119.506 222.66 119.975C222.834 120.444 223.102 120.822 223.464 121.11C223.827 121.397 224.288 121.541 224.849 121.541Z" fill="black"/>
<path d="M95.4482 179.5V168.591H97.7546V173.092H102.437V168.591H104.738V179.5H102.437V174.994H97.7546V179.5H95.4482ZM108.93 179.654C108.408 179.654 107.943 179.564 107.534 179.383C107.126 179.198 106.803 178.926 106.565 178.568C106.331 178.206 106.213 177.755 106.213 177.215C106.213 176.76 106.297 176.379 106.464 176.07C106.631 175.761 106.858 175.512 107.146 175.324C107.433 175.136 107.76 174.994 108.126 174.898C108.495 174.802 108.882 174.734 109.287 174.695C109.763 174.646 110.146 174.599 110.438 174.557C110.729 174.511 110.94 174.443 111.071 174.354C111.203 174.266 111.268 174.134 111.268 173.96V173.928C111.268 173.591 111.162 173.33 110.949 173.145C110.739 172.961 110.441 172.868 110.054 172.868C109.646 172.868 109.321 172.959 109.079 173.14C108.838 173.317 108.678 173.541 108.6 173.811L106.501 173.641C106.608 173.143 106.817 172.714 107.13 172.352C107.442 171.986 107.845 171.705 108.339 171.51C108.836 171.311 109.411 171.212 110.065 171.212C110.519 171.212 110.954 171.265 111.37 171.371C111.789 171.478 112.16 171.643 112.483 171.867C112.81 172.091 113.067 172.378 113.255 172.73C113.444 173.078 113.538 173.495 113.538 173.982V179.5H111.386V178.365H111.322C111.19 178.621 111.015 178.847 110.794 179.042C110.574 179.234 110.31 179.385 110.001 179.495C109.692 179.601 109.335 179.654 108.93 179.654ZM109.58 178.088C109.914 178.088 110.208 178.023 110.464 177.891C110.72 177.756 110.92 177.575 111.066 177.348C111.212 177.121 111.284 176.863 111.284 176.576V175.707C111.213 175.754 111.116 175.796 110.991 175.835C110.871 175.871 110.734 175.904 110.581 175.936C110.429 175.965 110.276 175.991 110.123 176.016C109.971 176.038 109.832 176.057 109.708 176.075C109.441 176.114 109.209 176.176 109.01 176.261C108.811 176.347 108.657 176.462 108.547 176.608C108.436 176.75 108.381 176.927 108.381 177.14C108.381 177.449 108.493 177.685 108.717 177.849C108.944 178.009 109.232 178.088 109.58 178.088ZM118.984 182.739C118.249 182.739 117.619 182.637 117.093 182.435C116.571 182.236 116.156 181.964 115.847 181.62C115.538 181.276 115.337 180.888 115.245 180.459L117.344 180.176C117.407 180.34 117.509 180.493 117.647 180.635C117.786 180.777 117.969 180.89 118.196 180.975C118.427 181.064 118.707 181.109 119.037 181.109C119.531 181.109 119.938 180.988 120.257 180.746C120.58 180.509 120.742 180.109 120.742 179.548V178.051H120.646C120.547 178.278 120.398 178.493 120.199 178.696C120 178.898 119.744 179.063 119.432 179.191C119.119 179.319 118.746 179.383 118.313 179.383C117.699 179.383 117.139 179.241 116.635 178.957C116.134 178.669 115.735 178.23 115.437 177.641C115.142 177.048 114.994 176.299 114.994 175.393C114.994 174.466 115.145 173.692 115.447 173.071C115.749 172.449 116.15 171.984 116.651 171.675C117.155 171.366 117.708 171.212 118.308 171.212C118.766 171.212 119.149 171.29 119.458 171.446C119.767 171.599 120.016 171.79 120.204 172.021C120.396 172.249 120.543 172.472 120.646 172.692H120.731V171.318H122.985V179.58C122.985 180.276 122.814 180.858 122.473 181.327C122.132 181.796 121.66 182.147 121.056 182.382C120.456 182.62 119.765 182.739 118.984 182.739ZM119.032 177.678C119.398 177.678 119.707 177.588 119.959 177.407C120.215 177.222 120.41 176.959 120.545 176.618C120.683 176.274 120.753 175.862 120.753 175.382C120.753 174.903 120.685 174.488 120.55 174.136C120.415 173.781 120.22 173.506 119.964 173.31C119.709 173.115 119.398 173.017 119.032 173.017C118.659 173.017 118.345 173.119 118.089 173.321C117.834 173.52 117.64 173.797 117.509 174.152C117.377 174.507 117.312 174.917 117.312 175.382C117.312 175.855 117.377 176.263 117.509 176.608C117.644 176.949 117.837 177.213 118.089 177.401C118.345 177.586 118.659 177.678 119.032 177.678ZM127.123 179.654C126.601 179.654 126.136 179.564 125.728 179.383C125.319 179.198 124.996 178.926 124.758 178.568C124.524 178.206 124.407 177.755 124.407 177.215C124.407 176.76 124.49 176.379 124.657 176.07C124.824 175.761 125.051 175.512 125.339 175.324C125.627 175.136 125.953 174.994 126.319 174.898C126.688 174.802 127.075 174.734 127.48 174.695C127.956 174.646 128.34 174.599 128.631 174.557C128.922 174.511 129.133 174.443 129.265 174.354C129.396 174.266 129.462 174.134 129.462 173.96V173.928C129.462 173.591 129.355 173.33 129.142 173.145C128.933 172.961 128.634 172.868 128.247 172.868C127.839 172.868 127.514 172.959 127.273 173.14C127.031 173.317 126.871 173.541 126.793 173.811L124.694 173.641C124.801 173.143 125.01 172.714 125.323 172.352C125.635 171.986 126.039 171.705 126.532 171.51C127.029 171.311 127.605 171.212 128.258 171.212C128.713 171.212 129.148 171.265 129.563 171.371C129.982 171.478 130.353 171.643 130.676 171.867C131.003 172.091 131.26 172.378 131.449 172.73C131.637 173.078 131.731 173.495 131.731 173.982V179.5H129.579V178.365H129.515C129.384 178.621 129.208 178.847 128.988 179.042C128.768 179.234 128.503 179.385 128.194 179.495C127.885 179.601 127.528 179.654 127.123 179.654ZM127.773 178.088C128.107 178.088 128.402 178.023 128.657 177.891C128.913 177.756 129.114 177.575 129.259 177.348C129.405 177.121 129.478 176.863 129.478 176.576V175.707C129.407 175.754 129.309 175.796 129.185 175.835C129.064 175.871 128.927 175.904 128.775 175.936C128.622 175.965 128.469 175.991 128.317 176.016C128.164 176.038 128.025 176.057 127.901 176.075C127.635 176.114 127.402 176.176 127.203 176.261C127.004 176.347 126.85 176.462 126.74 176.608C126.63 176.75 126.575 176.927 126.575 177.14C126.575 177.449 126.687 177.685 126.91 177.849C127.138 178.009 127.425 178.088 127.773 178.088ZM128.343 170.439C128.006 170.439 127.699 170.361 127.422 170.205C127.148 170.049 126.928 169.839 126.761 169.576C126.598 169.31 126.516 169.015 126.516 168.692C126.516 168.369 126.598 168.074 126.761 167.808C126.928 167.538 127.148 167.323 127.422 167.163C127.699 167 128.006 166.918 128.343 166.918C128.681 166.918 128.986 167 129.259 167.163C129.533 167.323 129.751 167.538 129.915 167.808C130.078 168.074 130.16 168.369 130.16 168.692C130.16 169.015 130.078 169.31 129.915 169.576C129.751 169.839 129.533 170.049 129.259 170.205C128.986 170.361 128.681 170.439 128.343 170.439ZM128.343 169.491C128.578 169.488 128.775 169.408 128.934 169.251C129.094 169.092 129.174 168.905 129.174 168.692C129.174 168.479 129.094 168.291 128.934 168.127C128.775 167.961 128.578 167.877 128.343 167.877C128.105 167.881 127.906 167.964 127.747 168.127C127.59 168.291 127.512 168.479 127.512 168.692C127.512 168.905 127.59 169.092 127.747 169.251C127.906 169.411 128.105 169.491 128.343 169.491ZM137.843 171.318V173.023H132.916V171.318H137.843ZM134.035 169.358H136.304V176.986C136.304 177.195 136.336 177.359 136.4 177.476C136.464 177.589 136.553 177.669 136.666 177.716C136.783 177.762 136.918 177.785 137.071 177.785C137.178 177.785 137.284 177.776 137.391 177.758C137.497 177.737 137.579 177.721 137.636 177.71L137.993 179.399C137.879 179.434 137.719 179.475 137.513 179.521C137.307 179.571 137.057 179.601 136.762 179.612C136.215 179.633 135.736 179.56 135.324 179.393C134.915 179.227 134.598 178.967 134.37 178.616C134.143 178.264 134.031 177.82 134.035 177.284V169.358ZM141.591 174.77V179.5H139.322V171.318H141.484V172.762H141.58C141.761 172.286 142.065 171.909 142.491 171.632C142.917 171.352 143.434 171.212 144.041 171.212C144.609 171.212 145.105 171.336 145.527 171.585C145.95 171.833 146.278 172.188 146.513 172.65C146.747 173.108 146.864 173.655 146.864 174.29V179.5H144.595V174.695C144.599 174.195 144.471 173.804 144.211 173.523C143.952 173.239 143.595 173.097 143.141 173.097C142.835 173.097 142.566 173.163 142.331 173.294C142.1 173.426 141.919 173.618 141.788 173.87C141.66 174.118 141.594 174.418 141.591 174.77ZM141.564 170.311L140.302 170.295C140.302 169.617 140.469 169.097 140.802 168.735C141.14 168.373 141.55 168.19 142.033 168.186C142.281 168.186 142.494 168.227 142.672 168.309C142.853 168.387 143.015 168.479 143.157 168.586C143.302 168.692 143.441 168.786 143.572 168.868C143.704 168.946 143.846 168.985 143.998 168.985C144.204 168.982 144.361 168.905 144.467 168.756C144.577 168.603 144.632 168.404 144.632 168.159L145.873 168.197C145.866 168.868 145.696 169.386 145.362 169.752C145.028 170.114 144.622 170.297 144.142 170.301C143.876 170.301 143.652 170.262 143.471 170.184C143.294 170.102 143.137 170.01 143.002 169.907C142.867 169.8 142.736 169.706 142.608 169.624C142.48 169.543 142.336 169.502 142.177 169.502C141.992 169.502 141.843 169.575 141.729 169.72C141.619 169.866 141.564 170.063 141.564 170.311ZM150.986 179.654C150.464 179.654 149.998 179.564 149.59 179.383C149.182 179.198 148.859 178.926 148.621 178.568C148.386 178.206 148.269 177.755 148.269 177.215C148.269 176.76 148.353 176.379 148.519 176.07C148.686 175.761 148.914 175.512 149.201 175.324C149.489 175.136 149.816 174.994 150.181 174.898C150.551 174.802 150.938 174.734 151.343 174.695C151.818 174.646 152.202 174.599 152.493 174.557C152.784 174.511 152.996 174.443 153.127 174.354C153.258 174.266 153.324 174.134 153.324 173.96V173.928C153.324 173.591 153.218 173.33 153.005 173.145C152.795 172.961 152.497 172.868 152.11 172.868C151.701 172.868 151.376 172.959 151.135 173.14C150.893 173.317 150.734 173.541 150.655 173.811L148.557 173.641C148.663 173.143 148.873 172.714 149.185 172.352C149.498 171.986 149.901 171.705 150.394 171.51C150.892 171.311 151.467 171.212 152.12 171.212C152.575 171.212 153.01 171.265 153.425 171.371C153.844 171.478 154.215 171.643 154.539 171.867C154.865 172.091 155.123 172.378 155.311 172.73C155.499 173.078 155.593 173.495 155.593 173.982V179.5H153.441V178.365H153.377C153.246 178.621 153.07 178.847 152.85 179.042C152.63 179.234 152.365 179.385 152.056 179.495C151.747 179.601 151.391 179.654 150.986 179.654ZM151.636 178.088C151.969 178.088 152.264 178.023 152.52 177.891C152.775 177.756 152.976 177.575 153.122 177.348C153.267 177.121 153.34 176.863 153.34 176.576V175.707C153.269 175.754 153.171 175.796 153.047 175.835C152.926 175.871 152.79 175.904 152.637 175.936C152.484 175.965 152.332 175.991 152.179 176.016C152.026 176.038 151.888 176.057 151.763 176.075C151.497 176.114 151.264 176.176 151.066 176.261C150.867 176.347 150.712 176.462 150.602 176.608C150.492 176.75 150.437 176.927 150.437 177.14C150.437 177.449 150.549 177.685 150.773 177.849C151 178.009 151.288 178.088 151.636 178.088Z" fill="black"/>
<circle cx="190" cy="131" r="5" fill="#FFE587" stroke="black"/>
<path d="M192.327 232.5V217.955H197.782C198.899 217.955 199.837 218.163 200.594 218.58C201.357 218.996 201.932 219.569 202.32 220.298C202.713 221.023 202.91 221.847 202.91 222.77C202.91 223.703 202.713 224.531 202.32 225.256C201.927 225.98 201.347 226.551 200.58 226.967C199.813 227.379 198.868 227.585 197.746 227.585H194.131V225.419H197.391C198.045 225.419 198.58 225.305 198.996 225.078C199.413 224.851 199.721 224.538 199.92 224.141C200.123 223.743 200.225 223.286 200.225 222.77C200.225 222.254 200.123 221.799 199.92 221.406C199.721 221.013 199.411 220.708 198.989 220.49C198.573 220.268 198.035 220.156 197.377 220.156H194.962V232.5H192.327ZM208.029 232.72C207.337 232.72 206.715 232.597 206.161 232.351C205.611 232.1 205.176 231.731 204.854 231.243C204.537 230.755 204.378 230.154 204.378 229.439C204.378 228.823 204.492 228.314 204.719 227.912C204.946 227.509 205.256 227.188 205.649 226.946C206.042 226.705 206.485 226.522 206.977 226.399C207.475 226.271 207.988 226.179 208.519 226.122C209.158 226.056 209.676 225.997 210.074 225.945C210.472 225.888 210.761 225.803 210.941 225.689C211.125 225.571 211.218 225.388 211.218 225.142V225.099C211.218 224.564 211.059 224.15 210.742 223.857C210.424 223.563 209.968 223.416 209.371 223.416C208.741 223.416 208.242 223.554 207.872 223.828C207.508 224.103 207.262 224.427 207.134 224.801L204.733 224.46C204.923 223.797 205.235 223.243 205.671 222.798C206.106 222.348 206.639 222.012 207.269 221.79C207.898 221.562 208.594 221.449 209.357 221.449C209.882 221.449 210.405 221.51 210.926 221.634C211.447 221.757 211.923 221.96 212.354 222.244C212.785 222.524 213.13 222.905 213.391 223.388C213.656 223.871 213.789 224.474 213.789 225.199V232.5H211.317V231.001H211.232C211.075 231.304 210.855 231.589 210.571 231.854C210.292 232.114 209.939 232.325 209.513 232.486C209.092 232.642 208.597 232.72 208.029 232.72ZM208.696 230.831C209.212 230.831 209.66 230.729 210.039 230.526C210.417 230.317 210.709 230.043 210.912 229.702C211.12 229.361 211.225 228.989 211.225 228.587V227.301C211.144 227.367 211.007 227.429 210.813 227.486C210.623 227.543 210.41 227.592 210.173 227.635C209.937 227.678 209.702 227.715 209.47 227.749C209.238 227.782 209.037 227.81 208.867 227.834C208.483 227.886 208.14 227.971 207.837 228.089C207.534 228.208 207.295 228.374 207.119 228.587C206.944 228.795 206.857 229.065 206.857 229.396C206.857 229.87 207.03 230.227 207.375 230.469C207.721 230.71 208.161 230.831 208.696 230.831ZM221.132 232.713C220.043 232.713 219.108 232.474 218.327 231.996C217.55 231.518 216.951 230.857 216.53 230.014C216.113 229.167 215.905 228.191 215.905 227.088C215.905 225.98 216.118 225.002 216.544 224.155C216.97 223.303 217.572 222.64 218.348 222.166C219.129 221.688 220.053 221.449 221.118 221.449C222.003 221.449 222.787 221.612 223.469 221.939C224.155 222.261 224.702 222.718 225.11 223.31C225.517 223.897 225.749 224.583 225.806 225.369H223.348C223.249 224.844 223.012 224.406 222.638 224.055C222.269 223.7 221.774 223.523 221.154 223.523C220.628 223.523 220.166 223.665 219.769 223.949C219.371 224.228 219.061 224.631 218.838 225.156C218.62 225.682 218.512 226.312 218.512 227.045C218.512 227.789 218.62 228.428 218.838 228.963C219.056 229.493 219.361 229.903 219.754 230.192C220.152 230.476 220.619 230.618 221.154 230.618C221.532 230.618 221.871 230.547 222.169 230.405C222.472 230.258 222.726 230.047 222.929 229.773C223.133 229.498 223.272 229.164 223.348 228.771H225.806C225.744 229.543 225.517 230.227 225.124 230.824C224.731 231.416 224.196 231.88 223.519 232.216C222.842 232.547 222.046 232.713 221.132 232.713ZM227.917 232.5V221.591H230.488V232.5H227.917ZM229.209 220.043C228.802 220.043 228.452 219.908 228.158 219.638C227.865 219.363 227.718 219.034 227.718 218.651C227.718 218.262 227.865 217.933 228.158 217.663C228.452 217.389 228.802 217.251 229.209 217.251C229.621 217.251 229.972 217.389 230.26 217.663C230.554 217.933 230.701 218.262 230.701 218.651C230.701 219.034 230.554 219.363 230.26 219.638C229.972 219.908 229.621 220.043 229.209 220.043ZM238.657 221.591V223.58H232.208V221.591H238.657ZM233.82 232.5V220.561C233.82 219.827 233.972 219.216 234.275 218.729C234.583 218.241 234.995 217.876 235.511 217.635C236.027 217.393 236.6 217.273 237.23 217.273C237.675 217.273 238.07 217.308 238.416 217.379C238.761 217.45 239.017 217.514 239.183 217.571L238.671 219.56C238.562 219.527 238.425 219.493 238.259 219.46C238.094 219.422 237.909 219.403 237.705 219.403C237.227 219.403 236.889 219.519 236.69 219.751C236.496 219.979 236.399 220.305 236.399 220.732V232.5H233.82ZM240.671 232.5V221.591H243.242V232.5H240.671ZM241.963 220.043C241.556 220.043 241.206 219.908 240.912 219.638C240.619 219.363 240.472 219.034 240.472 218.651C240.472 218.262 240.619 217.933 240.912 217.663C241.206 217.389 241.556 217.251 241.963 217.251C242.375 217.251 242.726 217.389 243.014 217.663C243.308 217.933 243.455 218.262 243.455 218.651C243.455 219.034 243.308 219.363 243.014 219.638C242.726 219.908 242.375 220.043 241.963 220.043ZM250.644 232.713C249.555 232.713 248.62 232.474 247.839 231.996C247.062 231.518 246.463 230.857 246.042 230.014C245.625 229.167 245.417 228.191 245.417 227.088C245.417 225.98 245.63 225.002 246.056 224.155C246.482 223.303 247.083 222.64 247.86 222.166C248.641 221.688 249.564 221.449 250.63 221.449C251.515 221.449 252.299 221.612 252.981 221.939C253.667 222.261 254.214 222.718 254.621 223.31C255.028 223.897 255.26 224.583 255.317 225.369H252.86C252.76 224.844 252.524 224.406 252.15 224.055C251.78 223.7 251.286 223.523 250.665 223.523C250.14 223.523 249.678 223.665 249.28 223.949C248.883 224.228 248.573 224.631 248.35 225.156C248.132 225.682 248.023 226.312 248.023 227.045C248.023 227.789 248.132 228.428 248.35 228.963C248.568 229.493 248.873 229.903 249.266 230.192C249.664 230.476 250.13 230.618 250.665 230.618C251.044 230.618 251.383 230.547 251.681 230.405C251.984 230.258 252.237 230.047 252.441 229.773C252.644 229.498 252.784 229.164 252.86 228.771H255.317C255.256 229.543 255.028 230.227 254.635 230.824C254.242 231.416 253.707 231.88 253.03 232.216C252.353 232.547 251.558 232.713 250.644 232.713ZM206.653 249.227C206.653 250.795 206.359 252.137 205.772 253.254C205.189 254.367 204.394 255.219 203.385 255.811C202.382 256.403 201.243 256.699 199.969 256.699C198.696 256.699 197.555 256.403 196.546 255.811C195.542 255.214 194.747 254.36 194.16 253.247C193.577 252.13 193.286 250.79 193.286 249.227C193.286 247.66 193.577 246.32 194.16 245.207C194.747 244.09 195.542 243.235 196.546 242.643C197.555 242.052 198.696 241.756 199.969 241.756C201.243 241.756 202.382 242.052 203.385 242.643C204.394 243.235 205.189 244.09 205.772 245.207C206.359 246.32 206.653 247.66 206.653 249.227ZM204.003 249.227C204.003 248.124 203.831 247.194 203.485 246.436C203.144 245.674 202.671 245.098 202.064 244.71C201.458 244.317 200.76 244.121 199.969 244.121C199.179 244.121 198.48 244.317 197.874 244.71C197.268 245.098 196.792 245.674 196.447 246.436C196.106 247.194 195.935 248.124 195.935 249.227C195.935 250.33 196.106 251.263 196.447 252.026C196.792 252.783 197.268 253.358 197.874 253.751C198.48 254.14 199.179 254.334 199.969 254.334C200.76 254.334 201.458 254.14 202.064 253.751C202.671 253.358 203.144 252.783 203.485 252.026C203.831 251.263 204.003 250.33 204.003 249.227ZM213.789 256.713C212.7 256.713 211.764 256.474 210.983 255.996C210.207 255.518 209.608 254.857 209.186 254.014C208.77 253.167 208.561 252.191 208.561 251.088C208.561 249.98 208.774 249.002 209.2 248.155C209.627 247.303 210.228 246.64 211.004 246.166C211.786 245.688 212.709 245.449 213.774 245.449C214.66 245.449 215.443 245.612 216.125 245.939C216.812 246.261 217.359 246.718 217.766 247.31C218.173 247.897 218.405 248.583 218.462 249.369H216.004C215.905 248.844 215.668 248.406 215.294 248.055C214.925 247.7 214.43 247.523 213.81 247.523C213.284 247.523 212.823 247.665 212.425 247.949C212.027 248.228 211.717 248.631 211.494 249.156C211.277 249.682 211.168 250.312 211.168 251.045C211.168 251.789 211.277 252.428 211.494 252.963C211.712 253.493 212.018 253.903 212.411 254.192C212.808 254.476 213.275 254.618 213.81 254.618C214.189 254.618 214.527 254.547 214.825 254.405C215.128 254.258 215.382 254.047 215.585 253.773C215.789 253.498 215.929 253.164 216.004 252.771H218.462C218.4 253.543 218.173 254.227 217.78 254.824C217.387 255.416 216.852 255.88 216.175 256.216C215.498 256.547 214.702 256.713 213.789 256.713ZM225.403 256.713C224.309 256.713 223.364 256.486 222.569 256.031C221.778 255.572 221.17 254.923 220.743 254.085C220.317 253.242 220.104 252.25 220.104 251.109C220.104 249.987 220.317 249.002 220.743 248.155C221.174 247.303 221.776 246.64 222.547 246.166C223.319 245.688 224.226 245.449 225.268 245.449C225.94 245.449 226.574 245.558 227.171 245.776C227.772 245.989 228.303 246.32 228.762 246.77C229.226 247.22 229.59 247.793 229.856 248.489C230.121 249.18 230.253 250.004 230.253 250.96V251.749H221.312V250.016H227.789C227.784 249.523 227.678 249.085 227.469 248.702C227.261 248.313 226.97 248.008 226.596 247.786C226.226 247.563 225.796 247.452 225.303 247.452C224.778 247.452 224.316 247.58 223.918 247.835C223.52 248.086 223.21 248.418 222.988 248.83C222.77 249.237 222.659 249.684 222.654 250.172V251.685C222.654 252.319 222.77 252.864 223.002 253.318C223.234 253.768 223.558 254.114 223.975 254.355C224.392 254.592 224.879 254.71 225.438 254.71C225.812 254.71 226.151 254.658 226.454 254.554C226.757 254.445 227.019 254.286 227.242 254.078C227.465 253.87 227.633 253.612 227.746 253.304L230.147 253.574C229.995 254.208 229.706 254.762 229.28 255.236C228.859 255.705 228.319 256.069 227.661 256.33C227.003 256.585 226.25 256.713 225.403 256.713ZM235.568 256.72C234.876 256.72 234.254 256.597 233.7 256.351C233.151 256.1 232.715 255.731 232.393 255.243C232.076 254.755 231.917 254.154 231.917 253.439C231.917 252.823 232.031 252.314 232.258 251.912C232.485 251.509 232.795 251.188 233.188 250.946C233.581 250.705 234.024 250.522 234.517 250.399C235.014 250.271 235.527 250.179 236.058 250.122C236.697 250.056 237.215 249.997 237.613 249.945C238.011 249.888 238.3 249.803 238.48 249.689C238.664 249.571 238.757 249.388 238.757 249.142V249.099C238.757 248.564 238.598 248.15 238.281 247.857C237.963 247.563 237.507 247.416 236.91 247.416C236.28 247.416 235.781 247.554 235.411 247.828C235.047 248.103 234.801 248.427 234.673 248.801L232.272 248.46C232.462 247.797 232.774 247.243 233.21 246.798C233.645 246.348 234.178 246.012 234.808 245.79C235.437 245.562 236.133 245.449 236.896 245.449C237.421 245.449 237.945 245.51 238.465 245.634C238.986 245.757 239.462 245.96 239.893 246.244C240.324 246.524 240.669 246.905 240.93 247.388C241.195 247.871 241.328 248.474 241.328 249.199V256.5H238.856V255.001H238.771C238.615 255.304 238.394 255.589 238.11 255.854C237.831 256.114 237.478 256.325 237.052 256.486C236.631 256.642 236.136 256.72 235.568 256.72ZM236.235 254.831C236.751 254.831 237.199 254.729 237.578 254.526C237.956 254.317 238.248 254.043 238.451 253.702C238.66 253.361 238.764 252.989 238.764 252.587V251.301C238.683 251.367 238.546 251.429 238.352 251.486C238.162 251.543 237.949 251.592 237.713 251.635C237.476 251.678 237.241 251.715 237.009 251.749C236.777 251.782 236.576 251.81 236.406 251.834C236.022 251.886 235.679 251.971 235.376 252.089C235.073 252.208 234.834 252.374 234.659 252.587C234.483 252.795 234.396 253.065 234.396 253.396C234.396 253.87 234.569 254.227 234.914 254.469C235.26 254.71 235.7 254.831 236.235 254.831ZM246.484 250.108V256.5H243.913V245.591H246.37V247.445H246.498C246.749 246.834 247.149 246.348 247.698 245.989C248.252 245.629 248.936 245.449 249.751 245.449C250.504 245.449 251.16 245.61 251.718 245.932C252.282 246.254 252.717 246.72 253.025 247.331C253.338 247.942 253.491 248.683 253.487 249.554V256.5H250.916V249.952C250.916 249.223 250.726 248.652 250.347 248.24C249.973 247.828 249.455 247.622 248.792 247.622C248.342 247.622 247.942 247.722 247.592 247.92C247.246 248.115 246.974 248.396 246.775 248.766C246.581 249.135 246.484 249.582 246.484 250.108Z" fill="#00D9E4"/>
</svg>
