<svg width="576" height="642" viewBox="0 0 576 642" fill="none" xmlns="http://www.w3.org/2000/svg">
<rect x="0.5" y="0.5" width="575" height="641" rx="35.5" fill="#97DCFF" stroke="#717171"/>
<g filter="url(#filter0_d_275_58)">
<path d="M103.02 447.837L112.572 437.33L118.302 421.093L122.123 403.901V397.215L134.54 384.798V379.067L138.36 369.516L134.54 365.695L129.764 357.099L125.943 354.233H118.302V349.458H112.572H106.841V335.131L98.2445 329.4L87.738 324.624L83.9175 318.893V313.163V310.297L92.5137 313.163L103.02 318.893H112.572H122.123H134.54V324.624V329.4L132.629 337.996L143.136 349.458V344.682L149.822 337.996V329.4V324.624H143.136V318.893V313.163L155.553 318.893L160.328 313.163V310.297V303.611L155.553 299.791L149.822 303.611H143.136L138.36 299.791H143.136H155.553H160.328V294.06H149.822H143.136H134.54V289.284H149.822L164.149 285.464L172.745 289.284L187.072 285.464L192.803 280.688V276.868L203.309 280.688L211.906 273.047H218.592V268.271L231.008 273.047H243.425L256.797 268.271H270.169L275.9 261.585V253.944L272.079 251.079L270.169 245.348L272.079 237.707L285.451 234.842H291.182L296.913 237.707H303.599L316.015 223.38L312.195 216.694V197.591V192.816L316.015 188.995V183.264H322.701V174.668L328.432 168.937L334.163 158.431L338.939 148.879L347.535 143.149V134.552L356.131 122.136L351.355 103.033L356.131 82.9751L365.682 69.6032L370.458 58.1415L376.189 47.6351L385.74 42.8594L401.978 51.4556L414.394 65.7826L430.632 82.9751L437.318 94.4367L442.093 109.719L469.792 115.45L473.613 112.584L478.388 114.495H494.626L498.446 113.539L502.267 115.45L505.132 117.36V120.225L503.222 124.046L499.401 128.822L497.491 136.463L496.536 144.104L491.76 150.79L483.164 157.476L481.254 167.982L484.119 176.578L473.613 193.771V201.412L468.837 209.053L466.927 213.829L462.151 219.559H458.331C457.566 219.559 452.918 222.743 450.689 224.335H445.914L441.138 227.2H436.362L432.542 231.021H430.632L428.721 235.797H424.901C424.582 235.797 423.755 235.988 422.991 236.752C422.226 237.516 422.035 240.254 422.035 241.528V247.258L421.08 249.169L417.26 252.034L413.439 255.855H408.664L404.843 256.81L402.933 258.72L396.247 262.54L395.292 264.451L390.516 269.226L383.83 277.823L380.965 280.688L377.144 284.509L371.413 291.195L366.638 293.105L362.817 295.015L358.996 295.97L358.041 298.836L355.176 299.791L351.355 304.566L348.49 310.297L343.714 314.118H341.804L338.939 318.893H330.342L323.656 326.535L319.836 332.265L317.926 337.041L315.06 338.951H311.24L304.554 336.086L299.778 339.906L292.137 340.862L288.316 344.682V349.458L291.182 353.278L292.137 354.233L293.092 356.144L292.137 358.054L288.316 359.964L286.406 363.785L284.496 367.605V373.336L278.765 379.067L274.945 380.022L273.034 380.977L273.989 383.843L275.9 384.798L277.81 389.573L276.855 394.349L273.989 401.035V406.766L273.034 410.586L270.169 416.317L271.124 419.183L273.034 422.048L272.079 432.555L273.034 444.971V448.792L272.079 452.612H269.214L264.438 451.657H261.573L260.618 453.568L261.573 455.478H266.348L270.169 457.388L272.079 458.343V462.164L273.034 465.029C273.353 468.531 273.989 475.727 273.989 476.491C273.989 477.255 272.716 479.993 272.079 481.266V486.042C272.398 488.271 273.034 492.919 273.034 493.683V498.459C273.034 499.223 271.124 502.598 270.169 504.19C270.487 505.463 270.933 508.01 270.169 508.01C269.405 508.01 264.756 512.468 262.528 514.696V520.427L260.618 523.292L258.707 524.248H255.842L256.797 526.158V529.023L255.842 530.934C254.25 532.207 250.875 534.754 250.111 534.754C249.347 534.754 246.609 532.207 245.335 530.934L243.425 529.978L242.47 530.934V531.889L244.38 533.799C245.144 534.563 245.972 536.028 246.29 536.664C245.654 536.664 244.38 536.855 244.38 537.619C244.38 538.384 240.56 539.848 238.649 540.485C237.694 541.122 235.593 542.395 234.829 542.395C233.874 542.395 229.098 542.395 230.053 543.35C230.817 544.114 232.282 544.305 232.919 544.305L235.784 545.261V547.171C235.784 548.126 233.874 548.126 233.874 549.081C233.874 549.845 231.327 551.31 230.053 551.946L228.143 554.812L225.278 559.588L222.412 564.363L218.592 566.273L214.771 571.049H210.95L209.04 569.139L207.13 566.273L204.265 567.229L201.399 570.094L195.668 571.049H190.893H184.207L178.476 569.139L171.79 565.318H167.969L166.059 563.408L164.149 559.588L161.283 560.543L160.328 561.498L154.597 560.543L150.777 557.677L149.822 555.767L148.867 551.946L145.046 549.081L137.405 543.35L135.495 541.44V537.619L136.45 532.844L135.495 529.023L134.54 527.113V521.382L131.674 519.472L129.764 512.786V509.921L134.54 507.055L136.45 503.235L135.495 500.369L133.585 494.638C131.674 493.683 128.427 490.627 126.899 489.863C125.37 489.099 123.078 487.634 122.123 486.997L124.033 483.177L127.854 482.222L124.988 479.356L120.213 474.581L122.123 470.76V466.939L119.257 464.074L115.437 458.343L111.616 452.612L107.796 451.657L103.02 450.702L102.065 448.792L103.02 447.837Z" fill="#FFD597"/>
<path d="M103.02 447.837L112.572 437.33L118.302 421.093L122.123 403.901V397.215L134.54 384.798V379.067L138.36 369.516L134.54 365.695L129.764 357.099L125.943 354.233H118.302V349.458H112.572H106.841V335.131L98.2445 329.4L87.738 324.624L83.9175 318.893V313.163V310.297L92.5137 313.163L103.02 318.893H112.572H122.123H134.54V324.624V329.4L132.629 337.996L143.136 349.458V344.682L149.822 337.996V329.4V324.624H143.136V318.893V313.163L155.553 318.893L160.328 313.163V310.297V303.611L155.553 299.791L149.822 303.611H143.136L138.36 299.791H143.136H155.553H160.328V294.06H149.822H143.136H134.54V289.284H149.822L164.149 285.464L172.745 289.284L187.072 285.464L192.803 280.688V276.868L203.309 280.688L211.906 273.047H218.592V268.271L231.008 273.047H243.425L256.797 268.271H270.169L275.9 261.585V253.944L272.079 251.079L270.169 245.348L272.079 237.707L285.451 234.842H291.182L296.913 237.707H303.599L316.015 223.38L312.195 216.694V197.591V192.816L316.015 188.995V183.264H322.701V174.668L328.432 168.937L334.163 158.431L338.939 148.879L347.535 143.149V134.552L356.131 122.136L351.355 103.033L356.131 82.9751L365.682 69.6032L370.458 58.1415L376.189 47.6351L385.74 42.8594L401.978 51.4556L414.394 65.7826L430.632 82.9751L437.318 94.4367L442.093 109.719L469.792 115.45L473.613 112.584L478.388 114.495H494.626L498.446 113.539L502.267 115.45L505.132 117.36V120.225L503.222 124.046L499.401 128.822L497.491 136.463L496.536 144.104L491.76 150.79L483.164 157.476L481.254 167.982L484.119 176.578L473.613 193.771V201.412L468.837 209.053L466.927 213.829L462.151 219.559H458.331C457.566 219.559 452.918 222.743 450.689 224.335H445.914L441.138 227.2H436.362L432.542 231.021H430.632L428.721 235.797H424.901C424.582 235.797 423.755 235.988 422.991 236.752C422.226 237.516 422.035 240.254 422.035 241.528V247.258L421.08 249.169L417.26 252.034L413.439 255.855H408.664L404.843 256.81L402.933 258.72L396.247 262.54L395.292 264.451L390.516 269.226L383.83 277.823L380.965 280.688L377.144 284.509L371.413 291.195L366.638 293.105L362.817 295.015L358.996 295.97L358.041 298.836L355.176 299.791L351.355 304.566L348.49 310.297L343.714 314.118H341.804L338.939 318.893H330.342L323.656 326.535L319.836 332.265L317.926 337.041L315.06 338.951H311.24L304.554 336.086L299.778 339.906L292.137 340.862L288.316 344.682V349.458L291.182 353.278L292.137 354.233L293.092 356.144L292.137 358.054L288.316 359.964L286.406 363.785L284.496 367.605V373.336L278.765 379.067L274.945 380.022L273.034 380.977L273.989 383.843L275.9 384.798L277.81 389.573L276.855 394.349L273.989 401.035V406.766L273.034 410.586L270.169 416.317L271.124 419.183L273.034 422.048L272.079 432.555L273.034 444.971V448.792L272.079 452.612H269.214L264.438 451.657H261.573L260.618 453.568L261.573 455.478H266.348L270.169 457.388L272.079 458.343V462.164L273.034 465.029C273.353 468.531 273.989 475.727 273.989 476.491C273.989 477.255 272.716 479.993 272.079 481.266V486.042C272.398 488.271 273.034 492.919 273.034 493.683V498.459C273.034 499.223 271.124 502.598 270.169 504.19C270.487 505.463 270.933 508.01 270.169 508.01C269.405 508.01 264.756 512.468 262.528 514.696V520.427L260.618 523.292L258.707 524.248H255.842L256.797 526.158V529.023L255.842 530.934C254.25 532.207 250.875 534.754 250.111 534.754C249.347 534.754 246.609 532.207 245.335 530.934L243.425 529.978L242.47 530.934V531.889L244.38 533.799C245.144 534.563 245.972 536.028 246.29 536.664C245.654 536.664 244.38 536.855 244.38 537.619C244.38 538.384 240.56 539.848 238.649 540.485C237.694 541.122 235.593 542.395 234.829 542.395C233.874 542.395 229.098 542.395 230.053 543.35C230.817 544.114 232.282 544.305 232.919 544.305L235.784 545.261V547.171C235.784 548.126 233.874 548.126 233.874 549.081C233.874 549.845 231.327 551.31 230.053 551.946L228.143 554.812L225.278 559.588L222.412 564.363L218.592 566.273L214.771 571.049H210.95L209.04 569.139L207.13 566.273L204.265 567.229L201.399 570.094L195.668 571.049H190.893H184.207L178.476 569.139L171.79 565.318H167.969L166.059 563.408L164.149 559.588L161.283 560.543L160.328 561.498L154.597 560.543L150.777 557.677L149.822 555.767L148.867 551.946L145.046 549.081L137.405 543.35L135.495 541.44V537.619L136.45 532.844L135.495 529.023L134.54 527.113V521.382L131.674 519.472L129.764 512.786V509.921L134.54 507.055L136.45 503.235L135.495 500.369L133.585 494.638C131.674 493.683 128.427 490.627 126.899 489.863C125.37 489.099 123.078 487.634 122.123 486.997L124.033 483.177L127.854 482.222L124.988 479.356L120.213 474.581L122.123 470.76V466.939L119.257 464.074L115.437 458.343L111.616 452.612L107.796 451.657L103.02 450.702L102.065 448.792L103.02 447.837Z" stroke="black"/>
</g>
<circle cx="250.111" cy="274.957" r="10.0065" fill="#FF8F87" stroke="black"/>
<path d="M334.977 205.309H329.59V187.855H335.215C336.908 187.855 338.357 188.204 339.562 188.903C340.766 189.596 341.69 190.593 342.332 191.894C342.974 193.19 343.295 194.741 343.295 196.548C343.295 198.366 342.971 199.931 342.323 201.244C341.675 202.551 340.732 203.556 339.494 204.261C338.255 204.96 336.749 205.309 334.977 205.309ZM331.704 203.434H334.84C336.283 203.434 337.479 203.156 338.428 202.599C339.377 202.042 340.085 201.25 340.55 200.221C341.016 199.193 341.249 197.968 341.249 196.548C341.249 195.139 341.019 193.926 340.559 192.909C340.099 191.886 339.411 191.102 338.496 190.556C337.582 190.005 336.442 189.73 335.079 189.73H331.704V203.434ZM352.056 205.582C350.795 205.582 349.707 205.304 348.792 204.747C347.883 204.184 347.181 203.4 346.687 202.394C346.198 201.383 345.954 200.207 345.954 198.866C345.954 197.525 346.198 196.343 346.687 195.321C347.181 194.292 347.869 193.491 348.749 192.917C349.636 192.338 350.67 192.048 351.852 192.048C352.533 192.048 353.207 192.161 353.871 192.389C354.536 192.616 355.141 192.985 355.687 193.497C356.232 194.002 356.667 194.673 356.991 195.508C357.315 196.343 357.477 197.372 357.477 198.593V199.446H347.386V197.707H355.431C355.431 196.968 355.283 196.309 354.988 195.73C354.698 195.15 354.283 194.693 353.744 194.357C353.21 194.022 352.579 193.855 351.852 193.855C351.05 193.855 350.357 194.054 349.772 194.451C349.192 194.843 348.746 195.355 348.434 195.985C348.121 196.616 347.965 197.292 347.965 198.014V199.173C347.965 200.161 348.136 201 348.477 201.687C348.823 202.369 349.303 202.889 349.917 203.247C350.531 203.599 351.244 203.775 352.056 203.775C352.585 203.775 353.062 203.701 353.488 203.554C353.92 203.4 354.292 203.173 354.604 202.872C354.917 202.565 355.158 202.184 355.329 201.73L357.272 202.275C357.067 202.934 356.724 203.514 356.241 204.014C355.758 204.508 355.161 204.894 354.451 205.173C353.741 205.446 352.942 205.582 352.056 205.582ZM365.479 205.582C364.388 205.582 363.425 205.306 362.59 204.755C361.755 204.198 361.102 203.414 360.63 202.403C360.158 201.386 359.923 200.184 359.923 198.798C359.923 197.423 360.158 196.23 360.63 195.218C361.102 194.207 361.758 193.426 362.599 192.875C363.44 192.323 364.411 192.048 365.513 192.048C366.366 192.048 367.039 192.19 367.533 192.474C368.033 192.752 368.414 193.071 368.675 193.429C368.942 193.781 369.15 194.071 369.298 194.298H369.468V187.855H371.479V205.309H369.536V203.298H369.298C369.15 203.536 368.94 203.838 368.667 204.201C368.394 204.559 368.005 204.88 367.499 205.164C366.994 205.443 366.32 205.582 365.479 205.582ZM365.752 203.775C366.559 203.775 367.241 203.565 367.798 203.144C368.354 202.718 368.778 202.13 369.067 201.38C369.357 200.625 369.502 199.752 369.502 198.764C369.502 197.786 369.36 196.931 369.076 196.198C368.792 195.46 368.371 194.886 367.815 194.477C367.258 194.062 366.57 193.855 365.752 193.855C364.9 193.855 364.19 194.073 363.621 194.511C363.059 194.943 362.636 195.531 362.352 196.275C362.073 197.014 361.934 197.843 361.934 198.764C361.934 199.696 362.076 200.542 362.36 201.304C362.65 202.059 363.076 202.661 363.638 203.11C364.207 203.554 364.911 203.775 365.752 203.775ZM380.931 205.582C379.67 205.582 378.582 205.304 377.667 204.747C376.758 204.184 376.056 203.4 375.562 202.394C375.073 201.383 374.829 200.207 374.829 198.866C374.829 197.525 375.073 196.343 375.562 195.321C376.056 194.292 376.744 193.491 377.624 192.917C378.511 192.338 379.545 192.048 380.727 192.048C381.408 192.048 382.082 192.161 382.746 192.389C383.411 192.616 384.016 192.985 384.562 193.497C385.107 194.002 385.542 194.673 385.866 195.508C386.19 196.343 386.352 197.372 386.352 198.593V199.446H376.261V197.707H384.306C384.306 196.968 384.158 196.309 383.863 195.73C383.573 195.15 383.158 194.693 382.619 194.357C382.085 194.022 381.454 193.855 380.727 193.855C379.925 193.855 379.232 194.054 378.647 194.451C378.067 194.843 377.621 195.355 377.309 195.985C376.996 196.616 376.84 197.292 376.84 198.014V199.173C376.84 200.161 377.011 201 377.352 201.687C377.698 202.369 378.178 202.889 378.792 203.247C379.406 203.599 380.119 203.775 380.931 203.775C381.46 203.775 381.937 203.701 382.363 203.554C382.795 203.4 383.167 203.173 383.479 202.872C383.792 202.565 384.033 202.184 384.204 201.73L386.147 202.275C385.942 202.934 385.599 203.514 385.116 204.014C384.633 204.508 384.036 204.894 383.326 205.173C382.616 205.446 381.817 205.582 380.931 205.582ZM394.354 205.582C393.263 205.582 392.3 205.306 391.465 204.755C390.63 204.198 389.977 203.414 389.505 202.403C389.033 201.386 388.798 200.184 388.798 198.798C388.798 197.423 389.033 196.23 389.505 195.218C389.977 194.207 390.633 193.426 391.474 192.875C392.315 192.323 393.286 192.048 394.388 192.048C395.241 192.048 395.914 192.19 396.408 192.474C396.908 192.752 397.289 193.071 397.55 193.429C397.817 193.781 398.025 194.071 398.173 194.298H398.343V187.855H400.354V205.309H398.411V203.298H398.173C398.025 203.536 397.815 203.838 397.542 204.201C397.269 204.559 396.88 204.88 396.374 205.164C395.869 205.443 395.195 205.582 394.354 205.582ZM394.627 203.775C395.434 203.775 396.116 203.565 396.673 203.144C397.229 202.718 397.653 202.13 397.942 201.38C398.232 200.625 398.377 199.752 398.377 198.764C398.377 197.786 398.235 196.931 397.951 196.198C397.667 195.46 397.246 194.886 396.69 194.477C396.133 194.062 395.445 193.855 394.627 193.855C393.775 193.855 393.065 194.073 392.496 194.511C391.934 194.943 391.511 195.531 391.227 196.275C390.948 197.014 390.809 197.843 390.809 198.764C390.809 199.696 390.951 200.542 391.235 201.304C391.525 202.059 391.951 202.661 392.513 203.11C393.082 203.554 393.786 203.775 394.627 203.775ZM409.636 205.582C408.454 205.582 407.417 205.301 406.525 204.738C405.638 204.176 404.945 203.389 404.445 202.377C403.951 201.366 403.704 200.184 403.704 198.832C403.704 197.468 403.951 196.278 404.445 195.261C404.945 194.244 405.638 193.454 406.525 192.892C407.417 192.329 408.454 192.048 409.636 192.048C410.817 192.048 411.852 192.329 412.738 192.892C413.63 193.454 414.323 194.244 414.817 195.261C415.317 196.278 415.567 197.468 415.567 198.832C415.567 200.184 415.317 201.366 414.817 202.377C414.323 203.389 413.63 204.176 412.738 204.738C411.852 205.301 410.817 205.582 409.636 205.582ZM409.636 203.775C410.533 203.775 411.272 203.545 411.852 203.085C412.431 202.625 412.86 202.019 413.138 201.269C413.417 200.519 413.556 199.707 413.556 198.832C413.556 197.957 413.417 197.142 413.138 196.386C412.86 195.63 412.431 195.019 411.852 194.554C411.272 194.088 410.533 193.855 409.636 193.855C408.738 193.855 407.999 194.088 407.42 194.554C406.84 195.019 406.411 195.63 406.133 196.386C405.854 197.142 405.715 197.957 405.715 198.832C405.715 199.707 405.854 200.519 406.133 201.269C406.411 202.019 406.84 202.625 407.42 203.085C407.999 203.545 408.738 203.775 409.636 203.775Z" fill="black"/>
<path d="M178.082 314.195V296.74H181.773V303.942H189.264V296.74H192.946V314.195H189.264V306.984H181.773V314.195H178.082ZM199.653 314.442C198.818 314.442 198.074 314.297 197.421 314.007C196.767 313.712 196.25 313.277 195.869 312.703C195.494 312.124 195.307 311.402 195.307 310.538C195.307 309.811 195.44 309.2 195.707 308.706C195.975 308.212 196.338 307.814 196.798 307.513C197.259 307.212 197.781 306.984 198.367 306.831C198.957 306.678 199.577 306.57 200.225 306.507C200.986 306.428 201.6 306.354 202.065 306.285C202.531 306.212 202.869 306.104 203.08 305.962C203.29 305.82 203.395 305.609 203.395 305.331V305.28C203.395 304.74 203.225 304.322 202.884 304.027C202.548 303.732 202.071 303.584 201.452 303.584C200.798 303.584 200.278 303.729 199.892 304.018C199.506 304.303 199.25 304.66 199.125 305.092L195.767 304.82C195.938 304.024 196.273 303.337 196.773 302.757C197.273 302.172 197.918 301.723 198.707 301.41C199.503 301.092 200.423 300.933 201.469 300.933C202.196 300.933 202.892 301.018 203.557 301.189C204.227 301.359 204.821 301.624 205.338 301.982C205.861 302.339 206.273 302.8 206.574 303.362C206.875 303.919 207.026 304.587 207.026 305.365V314.195H203.582V312.379H203.48C203.27 312.788 202.989 313.149 202.636 313.462C202.284 313.768 201.861 314.01 201.367 314.186C200.872 314.357 200.301 314.442 199.653 314.442ZM200.693 311.936C201.227 311.936 201.699 311.831 202.108 311.621C202.517 311.405 202.838 311.115 203.071 310.751C203.304 310.388 203.421 309.976 203.421 309.516V308.126C203.307 308.2 203.151 308.268 202.952 308.331C202.759 308.388 202.54 308.442 202.296 308.493C202.051 308.538 201.807 308.581 201.563 308.621C201.318 308.655 201.097 308.686 200.898 308.714C200.472 308.777 200.1 308.876 199.781 309.013C199.463 309.149 199.216 309.334 199.04 309.567C198.864 309.794 198.776 310.078 198.776 310.419C198.776 310.913 198.955 311.291 199.313 311.553C199.676 311.808 200.136 311.936 200.693 311.936ZM215.74 319.376C214.564 319.376 213.555 319.214 212.715 318.891C211.879 318.572 211.215 318.138 210.72 317.587C210.226 317.035 209.905 316.416 209.757 315.729L213.115 315.277C213.217 315.538 213.379 315.783 213.601 316.01C213.823 316.237 214.115 316.419 214.479 316.555C214.848 316.697 215.297 316.768 215.825 316.768C216.615 316.768 217.266 316.575 217.777 316.189C218.294 315.808 218.553 315.169 218.553 314.271V311.876H218.399C218.24 312.24 218.002 312.584 217.683 312.908C217.365 313.232 216.956 313.496 216.456 313.7C215.956 313.905 215.359 314.007 214.666 314.007C213.683 314.007 212.788 313.78 211.982 313.325C211.18 312.865 210.541 312.163 210.064 311.22C209.592 310.271 209.357 309.072 209.357 307.624C209.357 306.141 209.598 304.902 210.081 303.908C210.564 302.913 211.206 302.169 212.007 301.675C212.814 301.18 213.698 300.933 214.658 300.933C215.391 300.933 216.004 301.058 216.499 301.308C216.993 301.553 217.391 301.859 217.692 302.229C217.999 302.592 218.234 302.95 218.399 303.303H218.536V301.104H222.141V314.322C222.141 315.436 221.868 316.368 221.323 317.118C220.777 317.868 220.021 318.43 219.055 318.805C218.095 319.186 216.99 319.376 215.74 319.376ZM215.817 311.28C216.402 311.28 216.896 311.135 217.3 310.845C217.709 310.55 218.021 310.129 218.237 309.584C218.459 309.033 218.57 308.374 218.57 307.607C218.57 306.839 218.462 306.175 218.246 305.612C218.03 305.044 217.717 304.604 217.308 304.291C216.899 303.979 216.402 303.822 215.817 303.822C215.22 303.822 214.717 303.984 214.308 304.308C213.899 304.626 213.59 305.07 213.379 305.638C213.169 306.206 213.064 306.862 213.064 307.607C213.064 308.362 213.169 309.016 213.379 309.567C213.595 310.112 213.905 310.535 214.308 310.837C214.717 311.132 215.22 311.28 215.817 311.28ZM228.763 314.442C227.928 314.442 227.183 314.297 226.53 314.007C225.877 313.712 225.359 313.277 224.979 312.703C224.604 312.124 224.416 311.402 224.416 310.538C224.416 309.811 224.55 309.2 224.817 308.706C225.084 308.212 225.448 307.814 225.908 307.513C226.368 307.212 226.891 306.984 227.476 306.831C228.067 306.678 228.686 306.57 229.334 306.507C230.095 306.428 230.709 306.354 231.175 306.285C231.641 306.212 231.979 306.104 232.189 305.962C232.399 305.82 232.504 305.609 232.504 305.331V305.28C232.504 304.74 232.334 304.322 231.993 304.027C231.658 303.732 231.18 303.584 230.561 303.584C229.908 303.584 229.388 303.729 229.002 304.018C228.615 304.303 228.359 304.66 228.234 305.092L224.877 304.82C225.047 304.024 225.382 303.337 225.882 302.757C226.382 302.172 227.027 301.723 227.817 301.41C228.612 301.092 229.533 300.933 230.578 300.933C231.305 300.933 232.002 301.018 232.666 301.189C233.337 301.359 233.93 301.624 234.448 301.982C234.97 302.339 235.382 302.8 235.683 303.362C235.984 303.919 236.135 304.587 236.135 305.365V314.195H232.692V312.379H232.59C232.379 312.788 232.098 313.149 231.746 313.462C231.394 313.768 230.97 314.01 230.476 314.186C229.982 314.357 229.411 314.442 228.763 314.442ZM229.803 311.936C230.337 311.936 230.808 311.831 231.217 311.621C231.627 311.405 231.948 311.115 232.18 310.751C232.413 310.388 232.53 309.976 232.53 309.516V308.126C232.416 308.2 232.26 308.268 232.061 308.331C231.868 308.388 231.649 308.442 231.405 308.493C231.161 308.538 230.916 308.581 230.672 308.621C230.428 308.655 230.206 308.686 230.007 308.714C229.581 308.777 229.209 308.876 228.891 309.013C228.573 309.149 228.325 309.334 228.149 309.567C227.973 309.794 227.885 310.078 227.885 310.419C227.885 310.913 228.064 311.291 228.422 311.553C228.786 311.808 229.246 311.936 229.803 311.936ZM230.715 299.697C230.175 299.697 229.683 299.572 229.24 299.322C228.803 299.072 228.45 298.737 228.183 298.317C227.922 297.891 227.791 297.419 227.791 296.902C227.791 296.385 227.922 295.913 228.183 295.487C228.45 295.055 228.803 294.712 229.24 294.456C229.683 294.195 230.175 294.064 230.715 294.064C231.254 294.064 231.743 294.195 232.18 294.456C232.618 294.712 232.967 295.055 233.229 295.487C233.49 295.913 233.621 296.385 233.621 296.902C233.621 297.419 233.49 297.891 233.229 298.317C232.967 298.737 232.618 299.072 232.18 299.322C231.743 299.572 231.254 299.697 230.715 299.697ZM230.715 298.18C231.09 298.175 231.405 298.047 231.661 297.797C231.916 297.541 232.044 297.243 232.044 296.902C232.044 296.561 231.916 296.26 231.661 295.999C231.405 295.732 231.09 295.598 230.715 295.598C230.334 295.604 230.016 295.737 229.76 295.999C229.51 296.26 229.385 296.561 229.385 296.902C229.385 297.243 229.51 297.541 229.76 297.797C230.016 298.053 230.334 298.18 230.715 298.18ZM245.915 301.104V303.831H238.031V301.104H245.915ZM239.821 297.967H243.452V310.172C243.452 310.507 243.503 310.768 243.605 310.956C243.707 311.138 243.85 311.266 244.031 311.339C244.219 311.413 244.435 311.45 244.679 311.45C244.85 311.45 245.02 311.436 245.19 311.408C245.361 311.374 245.492 311.348 245.582 311.331L246.153 314.033C245.972 314.089 245.716 314.155 245.386 314.229C245.057 314.308 244.656 314.357 244.185 314.374C243.31 314.408 242.543 314.291 241.884 314.024C241.23 313.757 240.722 313.342 240.358 312.78C239.994 312.217 239.815 311.507 239.821 310.649V297.967ZM251.911 306.626V314.195H248.28V301.104H251.74V303.413H251.894C252.183 302.652 252.669 302.05 253.351 301.607C254.033 301.158 254.859 300.933 255.831 300.933C256.74 300.933 257.533 301.132 258.209 301.53C258.885 301.928 259.411 302.496 259.786 303.234C260.161 303.967 260.348 304.842 260.348 305.859V314.195H256.717V306.507C256.723 305.706 256.519 305.081 256.104 304.632C255.689 304.178 255.118 303.95 254.391 303.95C253.902 303.95 253.47 304.055 253.095 304.266C252.726 304.476 252.436 304.783 252.226 305.186C252.021 305.584 251.916 306.064 251.911 306.626ZM251.868 299.493L249.848 299.467C249.848 298.382 250.115 297.55 250.649 296.97C251.189 296.391 251.845 296.098 252.618 296.092C253.016 296.092 253.357 296.158 253.641 296.288C253.93 296.413 254.189 296.561 254.416 296.732C254.649 296.902 254.871 297.053 255.081 297.183C255.291 297.308 255.519 297.371 255.763 297.371C256.092 297.365 256.342 297.243 256.513 297.004C256.689 296.76 256.777 296.442 256.777 296.05L258.763 296.109C258.752 297.183 258.479 298.013 257.945 298.598C257.411 299.178 256.76 299.47 255.993 299.476C255.567 299.476 255.209 299.413 254.919 299.288C254.635 299.158 254.385 299.01 254.169 298.845C253.953 298.675 253.743 298.524 253.538 298.393C253.334 298.263 253.104 298.197 252.848 298.197C252.553 298.197 252.314 298.314 252.132 298.547C251.956 298.78 251.868 299.095 251.868 299.493ZM266.943 314.442C266.107 314.442 265.363 314.297 264.71 314.007C264.056 313.712 263.539 313.277 263.158 312.703C262.783 312.124 262.596 311.402 262.596 310.538C262.596 309.811 262.729 309.2 262.997 308.706C263.264 308.212 263.627 307.814 264.087 307.513C264.548 307.212 265.07 306.984 265.656 306.831C266.247 306.678 266.866 306.57 267.514 306.507C268.275 306.428 268.889 306.354 269.354 306.285C269.82 306.212 270.158 306.104 270.369 305.962C270.579 305.82 270.684 305.609 270.684 305.331V305.28C270.684 304.74 270.514 304.322 270.173 304.027C269.837 303.732 269.36 303.584 268.741 303.584C268.087 303.584 267.568 303.729 267.181 304.018C266.795 304.303 266.539 304.66 266.414 305.092L263.056 304.82C263.227 304.024 263.562 303.337 264.062 302.757C264.562 302.172 265.207 301.723 265.997 301.41C266.792 301.092 267.712 300.933 268.758 300.933C269.485 300.933 270.181 301.018 270.846 301.189C271.516 301.359 272.11 301.624 272.627 301.982C273.15 302.339 273.562 302.8 273.863 303.362C274.164 303.919 274.315 304.587 274.315 305.365V314.195H270.872V312.379H270.769C270.559 312.788 270.278 313.149 269.926 313.462C269.573 313.768 269.15 314.01 268.656 314.186C268.161 314.357 267.59 314.442 266.943 314.442ZM267.982 311.936C268.516 311.936 268.988 311.831 269.397 311.621C269.806 311.405 270.127 311.115 270.36 310.751C270.593 310.388 270.71 309.976 270.71 309.516V308.126C270.596 308.2 270.44 308.268 270.241 308.331C270.048 308.388 269.829 308.442 269.585 308.493C269.34 308.538 269.096 308.581 268.852 308.621C268.607 308.655 268.386 308.686 268.187 308.714C267.761 308.777 267.389 308.876 267.07 309.013C266.752 309.149 266.505 309.334 266.329 309.567C266.153 309.794 266.065 310.078 266.065 310.419C266.065 310.913 266.244 311.291 266.602 311.553C266.965 311.808 267.426 311.936 267.982 311.936Z" fill="black"/>
<circle cx="358.996" cy="225.29" r="10.0065" fill="#FFE587" stroke="black"/>
<path d="M390.909 401.888L393.324 387.342H398.778C399.895 387.342 400.8 387.55 401.491 387.967C402.182 388.379 402.663 388.95 402.933 389.679C403.203 390.403 403.26 391.229 403.103 392.157C402.952 393.09 402.618 393.919 402.102 394.643C401.591 395.368 400.916 395.938 400.078 396.355C399.24 396.767 398.26 396.973 397.137 396.973H393.522L393.885 394.807H397.145C397.798 394.807 398.352 394.693 398.806 394.466C399.266 394.238 399.628 393.926 399.893 393.528C400.158 393.13 400.333 392.674 400.419 392.157C400.499 391.641 400.473 391.187 400.341 390.794C400.208 390.401 399.95 390.095 399.566 389.878C399.188 389.655 398.669 389.544 398.011 389.544H395.596L393.544 401.888H390.909ZM406.562 402.108C405.871 402.108 405.27 401.985 404.758 401.738C404.247 401.487 403.87 401.118 403.629 400.63C403.392 400.143 403.333 399.541 403.451 398.826C403.556 398.211 403.754 397.702 404.048 397.3C404.346 396.897 404.711 396.575 405.142 396.334C405.577 396.087 406.051 395.903 406.562 395.78C407.078 395.657 407.604 395.567 408.139 395.51C408.792 395.443 409.32 395.382 409.723 395.325C410.13 395.268 410.435 395.183 410.639 395.069C410.842 394.951 410.966 394.771 411.008 394.53V394.487C411.093 393.952 411.008 393.538 410.752 393.244C410.497 392.951 410.071 392.804 409.474 392.804C408.849 392.804 408.324 392.941 407.897 393.216C407.471 393.49 407.161 393.815 406.967 394.189L404.637 393.848C404.931 393.185 405.333 392.631 405.845 392.186C406.356 391.736 406.946 391.4 407.613 391.177C408.286 390.95 409.003 390.836 409.765 390.836C410.286 390.836 410.795 390.898 411.292 391.021C411.794 391.144 412.237 391.348 412.62 391.632C413.009 391.911 413.293 392.292 413.473 392.775C413.657 393.258 413.688 393.862 413.565 394.586L412.351 401.888H409.879L410.135 400.389H410.049C409.846 400.692 409.581 400.976 409.254 401.241C408.927 401.502 408.539 401.712 408.089 401.873C407.639 402.03 407.13 402.108 406.562 402.108ZM407.535 400.219C408.051 400.219 408.515 400.117 408.927 399.913C409.339 399.705 409.678 399.43 409.943 399.089C410.208 398.748 410.374 398.377 410.44 397.974L410.653 396.689C410.558 396.755 410.412 396.817 410.213 396.873C410.014 396.93 409.791 396.98 409.545 397.023C409.304 397.065 409.065 397.103 408.828 397.136C408.591 397.169 408.387 397.198 408.217 397.221C407.824 397.273 407.464 397.359 407.137 397.477C406.815 397.595 406.548 397.761 406.335 397.974C406.127 398.183 405.996 398.452 405.944 398.784C405.869 399.253 405.98 399.61 406.278 399.856C406.576 400.098 406.995 400.219 407.535 400.219ZM419.666 402.101C418.577 402.101 417.682 401.862 416.981 401.383C416.28 400.905 415.79 400.245 415.511 399.402C415.236 398.554 415.191 397.579 415.376 396.476C415.556 395.368 415.928 394.39 416.491 393.542C417.059 392.69 417.774 392.027 418.636 391.554C419.498 391.076 420.461 390.836 421.527 390.836C422.412 390.836 423.167 391 423.792 391.326C424.422 391.648 424.891 392.105 425.199 392.697C425.511 393.284 425.632 393.971 425.561 394.757H423.096C423.087 394.231 422.923 393.793 422.606 393.443C422.289 393.088 421.825 392.91 421.214 392.91C420.684 392.91 420.196 393.052 419.751 393.336C419.306 393.616 418.93 394.018 418.622 394.544C418.314 395.069 418.101 395.699 417.983 396.433C417.86 397.176 417.862 397.816 417.99 398.351C418.122 398.881 418.361 399.291 418.707 399.579C419.057 399.863 419.5 400.005 420.035 400.005C420.414 400.005 420.767 399.934 421.093 399.792C421.42 399.646 421.707 399.435 421.953 399.16C422.204 398.886 422.4 398.552 422.542 398.159H425C424.806 398.931 424.46 399.615 423.963 400.211C423.47 400.803 422.86 401.267 422.13 401.603C421.401 401.935 420.58 402.101 419.666 402.101ZM426.479 401.888L428.297 390.978H430.868L429.05 401.888H426.479ZM429.959 389.416C429.547 389.416 429.206 389.279 428.936 389.004C428.666 388.729 428.548 388.4 428.581 388.017C428.614 387.633 428.787 387.304 429.099 387.03C429.417 386.755 429.779 386.618 430.186 386.618C430.598 386.618 430.937 386.755 431.202 387.03C431.472 387.304 431.59 387.633 431.557 388.017C431.528 388.4 431.356 388.729 431.038 389.004C430.726 389.279 430.366 389.416 429.959 389.416ZM439.044 390.978L438.711 392.967H432.262L432.596 390.978H439.044ZM432.382 401.888L434.378 389.949C434.492 389.215 434.74 388.604 435.124 388.116C435.512 387.629 435.983 387.264 436.537 387.023C437.096 386.781 437.69 386.66 438.32 386.66C438.77 386.66 439.16 386.696 439.492 386.767C439.823 386.838 440.065 386.902 440.216 386.959L439.385 388.947C439.276 388.914 439.144 388.881 438.988 388.848C438.836 388.81 438.659 388.791 438.455 388.791C437.977 388.791 437.619 388.907 437.382 389.139C437.146 389.366 436.989 389.693 436.914 390.119L434.961 401.888H432.382ZM439.252 401.888L441.07 390.978H443.641L441.823 401.888H439.252ZM442.732 389.416C442.32 389.416 441.979 389.279 441.71 389.004C441.44 388.729 441.321 388.4 441.354 388.017C441.388 387.633 441.56 387.304 441.873 387.03C442.19 386.755 442.552 386.618 442.96 386.618C443.371 386.618 443.71 386.755 443.975 387.03C444.245 387.304 444.363 387.633 444.33 388.017C444.302 388.4 444.129 388.729 443.812 389.004C443.499 389.279 443.139 389.416 442.732 389.416ZM449.197 402.101C448.108 402.101 447.213 401.862 446.512 401.383C445.812 400.905 445.322 400.245 445.042 399.402C444.768 398.554 444.723 397.579 444.907 396.476C445.087 395.368 445.459 394.39 446.022 393.542C446.591 392.69 447.306 392.027 448.167 391.554C449.029 391.076 449.993 390.836 451.058 390.836C451.943 390.836 452.699 391 453.324 391.326C453.953 391.648 454.422 392.105 454.73 392.697C455.042 393.284 455.163 393.971 455.092 394.757H452.627C452.618 394.231 452.455 393.793 452.137 393.443C451.82 393.088 451.356 392.91 450.745 392.91C450.215 392.91 449.727 393.052 449.282 393.336C448.837 393.616 448.461 394.018 448.153 394.544C447.845 395.069 447.632 395.699 447.514 396.433C447.391 397.176 447.393 397.816 447.521 398.351C447.654 398.881 447.893 399.291 448.238 399.579C448.589 399.863 449.031 400.005 449.566 400.005C449.945 400.005 450.298 399.934 450.625 399.792C450.951 399.646 451.238 399.435 451.484 399.16C451.735 398.886 451.931 398.552 452.074 398.159H454.531C454.337 398.931 453.991 399.615 453.494 400.211C453.002 400.803 452.391 401.267 451.662 401.603C450.932 401.935 450.111 402.101 449.197 402.101ZM406.403 418.785C406.148 420.329 405.643 421.645 404.89 422.734C404.142 423.818 403.229 424.649 402.149 425.227C401.074 425.8 399.917 426.086 398.676 426.086C397.374 426.086 396.256 425.783 395.324 425.177C394.391 424.567 393.719 423.693 393.307 422.557C392.899 421.42 392.828 420.057 393.094 418.466C393.349 416.927 393.851 415.611 394.599 414.517C395.347 413.423 396.264 412.587 397.348 412.01C398.432 411.432 399.602 411.143 400.856 411.143C402.149 411.143 403.257 411.449 404.18 412.059C405.108 412.666 405.776 413.539 406.183 414.68C406.595 415.821 406.668 417.19 406.403 418.785ZM403.811 418.466C403.986 417.391 403.97 416.484 403.761 415.746C403.558 415.007 403.195 414.451 402.675 414.076C402.154 413.698 401.512 413.508 400.75 413.508C399.926 413.508 399.164 413.714 398.463 414.126C397.767 414.533 397.175 415.13 396.687 415.916C396.204 416.702 395.873 417.658 395.693 418.785C395.504 419.865 395.515 420.772 395.729 421.505C395.942 422.239 396.311 422.793 396.836 423.167C397.362 423.537 398.004 423.721 398.761 423.721C399.58 423.721 400.338 423.518 401.034 423.111C401.73 422.703 402.319 422.109 402.802 421.328C403.29 420.547 403.626 419.593 403.811 418.466ZM412.332 426.101C411.243 426.101 410.348 425.862 409.647 425.383C408.946 424.905 408.456 424.245 408.177 423.402C407.902 422.554 407.857 421.579 408.042 420.476C408.222 419.368 408.594 418.39 409.157 417.542C409.725 416.69 410.44 416.027 411.302 415.554C412.164 415.076 413.127 414.836 414.193 414.836C415.078 414.836 415.833 415 416.458 415.326C417.088 415.648 417.557 416.105 417.865 416.697C418.177 417.284 418.298 417.971 418.227 418.757H415.762C415.753 418.231 415.589 417.793 415.272 417.443C414.955 417.088 414.491 416.91 413.88 416.91C413.35 416.91 412.862 417.052 412.417 417.336C411.972 417.616 411.596 418.018 411.288 418.544C410.98 419.069 410.767 419.699 410.649 420.433C410.526 421.176 410.528 421.816 410.656 422.351C410.788 422.881 411.027 423.291 411.373 423.579C411.723 423.863 412.166 424.005 412.701 424.005C413.08 424.005 413.433 423.934 413.759 423.792C414.086 423.646 414.373 423.435 414.619 423.16C414.87 422.886 415.066 422.552 415.208 422.159H417.666C417.472 422.931 417.126 423.615 416.629 424.211C416.136 424.803 415.526 425.267 414.796 425.603C414.067 425.935 413.246 426.101 412.332 426.101ZM423.946 426.101C422.852 426.101 421.948 425.873 421.233 425.419C420.518 424.96 420.016 424.311 419.727 423.473C419.443 422.63 419.396 421.638 419.585 420.497C419.77 419.375 420.146 418.39 420.714 417.542C421.283 416.69 421.993 416.027 422.845 415.554C423.702 415.076 424.649 414.836 425.686 414.836C426.358 414.836 426.976 414.945 427.54 415.163C428.103 415.376 428.579 415.708 428.967 416.157C429.355 416.607 429.623 417.18 429.77 417.876C429.917 418.567 429.909 419.391 429.748 420.348L429.628 421.136H420.679L420.956 419.403H427.433C427.518 418.911 427.49 418.473 427.348 418.089C427.206 417.701 426.969 417.396 426.638 417.173C426.306 416.951 425.892 416.839 425.395 416.839C424.888 416.839 424.415 416.969 423.974 417.23C423.539 417.486 423.172 417.817 422.873 418.224C422.575 418.631 422.386 419.06 422.305 419.51L422.014 421.172C421.91 421.853 421.934 422.41 422.085 422.841C422.237 423.272 422.502 423.589 422.881 423.792C423.259 423.996 423.738 424.098 424.315 424.098C424.694 424.098 425.044 424.046 425.366 423.942C425.688 423.837 425.975 423.681 426.226 423.473C426.481 423.26 426.694 422.999 426.865 422.692L429.216 422.961C428.955 423.596 428.574 424.15 428.072 424.623C427.57 425.092 426.969 425.457 426.268 425.717C425.572 425.973 424.798 426.101 423.946 426.101ZM434.131 426.108C433.439 426.108 432.838 425.985 432.327 425.738C431.815 425.487 431.439 425.118 431.197 424.63C430.961 424.143 430.901 423.541 431.02 422.826C431.124 422.211 431.323 421.702 431.616 421.3C431.915 420.897 432.279 420.575 432.71 420.334C433.146 420.087 433.619 419.903 434.131 419.78C434.647 419.657 435.172 419.567 435.707 419.51C436.361 419.443 436.889 419.382 437.291 419.325C437.698 419.268 438.004 419.183 438.207 419.069C438.411 418.951 438.534 418.771 438.577 418.53V418.487C438.662 417.952 438.577 417.538 438.321 417.244C438.065 416.951 437.639 416.804 437.042 416.804C436.417 416.804 435.892 416.941 435.466 417.216C435.04 417.49 434.729 417.815 434.535 418.189L432.206 417.848C432.499 417.185 432.902 416.631 433.413 416.186C433.925 415.736 434.514 415.4 435.182 415.177C435.854 414.95 436.571 414.836 437.334 414.836C437.854 414.836 438.363 414.898 438.861 415.021C439.363 415.144 439.805 415.348 440.189 415.632C440.577 415.911 440.861 416.292 441.041 416.775C441.226 417.258 441.256 417.862 441.133 418.586L439.919 425.888H437.447L437.703 424.389H437.618C437.414 424.692 437.149 424.976 436.822 425.241C436.496 425.502 436.107 425.712 435.658 425.873C435.208 426.03 434.699 426.108 434.131 426.108ZM435.104 424.219C435.62 424.219 436.084 424.117 436.496 423.913C436.908 423.705 437.246 423.43 437.511 423.089C437.776 422.748 437.942 422.377 438.008 421.974L438.221 420.689C438.127 420.755 437.98 420.817 437.781 420.873C437.582 420.93 437.36 420.98 437.113 421.023C436.872 421.065 436.633 421.103 436.396 421.136C436.159 421.169 435.956 421.198 435.785 421.221C435.392 421.273 435.033 421.359 434.706 421.477C434.384 421.595 434.116 421.761 433.903 421.974C433.695 422.183 433.565 422.452 433.513 422.784C433.437 423.253 433.548 423.61 433.846 423.856C434.145 424.098 434.564 424.219 435.104 424.219ZM446.14 419.496L445.089 425.888H442.511L444.329 414.978H446.794L446.481 416.832H446.616C446.957 416.221 447.435 415.736 448.051 415.376C448.667 415.016 449.384 414.836 450.203 414.836C450.946 414.836 451.571 414.997 452.078 415.319C452.585 415.637 452.944 416.103 453.158 416.719C453.371 417.329 453.404 418.07 453.257 418.942L452.092 425.888H449.521L450.608 419.339C450.731 418.615 450.639 418.047 450.331 417.635C450.028 417.218 449.54 417.01 448.868 417.01C448.418 417.01 448.004 417.109 447.625 417.308C447.246 417.502 446.926 417.784 446.666 418.153C446.41 418.523 446.235 418.97 446.14 419.496Z" fill="#017D83"/>
<defs>
<filter id="filter0_d_275_58" x="79.4175" y="42.2971" width="430.215" height="537.252" filterUnits="userSpaceOnUse" color-interpolation-filters="sRGB">
<feFlood flood-opacity="0" result="BackgroundImageFix"/>
<feColorMatrix in="SourceAlpha" type="matrix" values="0 0 0 0 0 0 0 0 0 0 0 0 0 0 0 0 0 0 127 0" result="hardAlpha"/>
<feOffset dy="4"/>
<feGaussianBlur stdDeviation="2"/>
<feComposite in2="hardAlpha" operator="out"/>
<feColorMatrix type="matrix" values="0 0 0 0 0 0 0 0 0 0 0 0 0 0 0 0 0 0 0.25 0"/>
<feBlend mode="normal" in2="BackgroundImageFix" result="effect1_dropShadow_275_58"/>
<feBlend mode="normal" in="SourceGraphic" in2="effect1_dropShadow_275_58" result="shape"/>
</filter>
</defs>
</svg>
