<svg width="522" height="732" viewBox="0 0 522 732" fill="none" xmlns="http://www.w3.org/2000/svg">
<path d="M67.6619 159.78H64.4744C64.3835 159.257 64.2159 158.794 63.9716 158.391C63.7273 157.982 63.4233 157.635 63.0597 157.351C62.696 157.067 62.2813 156.854 61.8153 156.712C61.3551 156.564 60.858 156.49 60.3239 156.49C59.375 156.49 58.5341 156.729 57.8011 157.206C57.0682 157.678 56.4943 158.371 56.0795 159.286C55.6648 160.195 55.4574 161.306 55.4574 162.618C55.4574 163.953 55.6648 165.078 56.0795 165.993C56.5 166.902 57.0739 167.59 57.8011 168.056C58.5341 168.516 59.3722 168.746 60.3153 168.746C60.8381 168.746 61.3267 168.678 61.7812 168.541C62.2415 168.399 62.6534 168.192 63.017 167.919C63.3864 167.646 63.696 167.311 63.946 166.914C64.2017 166.516 64.3778 166.061 64.4744 165.55L67.6619 165.567C67.5426 166.396 67.2841 167.175 66.8864 167.902C66.4943 168.629 65.9801 169.271 65.3438 169.828C64.7074 170.379 63.9631 170.811 63.1108 171.124C62.2585 171.431 61.3125 171.584 60.2727 171.584C58.7386 171.584 57.3693 171.229 56.1648 170.519C54.9602 169.808 54.0114 168.783 53.3182 167.442C52.625 166.101 52.2784 164.493 52.2784 162.618C52.2784 160.737 52.6278 159.129 53.3267 157.794C54.0256 156.453 54.9773 155.428 56.1818 154.717C57.3864 154.007 58.75 153.652 60.2727 153.652C61.2443 153.652 62.1477 153.789 62.983 154.061C63.8182 154.334 64.5625 154.735 65.2159 155.263C65.8693 155.786 66.4063 156.428 66.8267 157.189C67.2528 157.945 67.5313 158.808 67.6619 159.78ZM74.1882 171.61C73.3587 171.61 72.6115 171.462 71.9467 171.166C71.2876 170.865 70.7649 170.422 70.3786 169.837C69.9979 169.252 69.8075 168.53 69.8075 167.672C69.8075 166.933 69.9439 166.323 70.2166 165.84C70.4893 165.357 70.8615 164.97 71.3331 164.681C71.8047 164.391 72.3359 164.172 72.9268 164.024C73.5234 163.871 74.1399 163.76 74.7763 163.692C75.5433 163.612 76.1655 163.541 76.6428 163.479C77.12 163.411 77.4666 163.308 77.6825 163.172C77.9041 163.03 78.0149 162.811 78.0149 162.516V162.465C78.0149 161.823 77.8246 161.325 77.4439 160.973C77.0632 160.621 76.5149 160.445 75.799 160.445C75.0433 160.445 74.4439 160.61 74.0007 160.939C73.5632 161.269 73.2678 161.658 73.1143 162.107L70.2337 161.698C70.4609 160.902 70.8359 160.237 71.3587 159.703C71.8814 159.164 72.5206 158.76 73.2763 158.493C74.032 158.22 74.8672 158.084 75.782 158.084C76.4126 158.084 77.0405 158.158 77.6655 158.306C78.2905 158.453 78.8615 158.698 79.3786 159.039C79.8956 159.374 80.3104 159.831 80.6229 160.411C80.9411 160.99 81.1001 161.715 81.1001 162.584V171.345H78.1342V169.547H78.032C77.8445 169.911 77.5803 170.252 77.2393 170.57C76.9041 170.882 76.4808 171.135 75.9695 171.328C75.4638 171.516 74.87 171.61 74.1882 171.61ZM74.9893 169.342C75.6087 169.342 76.1456 169.22 76.6001 168.976C77.0547 168.726 77.4041 168.396 77.6484 167.987C77.8984 167.578 78.0234 167.132 78.0234 166.649V165.107C77.9268 165.186 77.7621 165.26 77.5291 165.328C77.3018 165.396 77.0462 165.456 76.7621 165.507C76.478 165.558 76.1967 165.604 75.9183 165.644C75.6399 165.683 75.3984 165.717 75.1939 165.746C74.7337 165.808 74.3217 165.911 73.9581 166.053C73.5945 166.195 73.3075 166.394 73.0973 166.649C72.8871 166.899 72.782 167.223 72.782 167.621C72.782 168.189 72.9893 168.618 73.4041 168.908C73.8189 169.198 74.3473 169.342 74.9893 169.342ZM87.2876 163.675V171.345H84.2024V158.254H87.1513V160.479H87.3047C87.6058 159.746 88.0859 159.164 88.745 158.732C89.4098 158.3 90.2308 158.084 91.2081 158.084C92.1115 158.084 92.8984 158.277 93.5689 158.664C94.245 159.05 94.7678 159.61 95.1371 160.342C95.5121 161.075 95.6967 161.965 95.6911 163.01V171.345H92.6058V163.487C92.6058 162.612 92.3786 161.928 91.924 161.433C91.4751 160.939 90.853 160.692 90.0575 160.692C89.5178 160.692 89.0376 160.811 88.6172 161.05C88.2024 161.283 87.8757 161.621 87.6371 162.064C87.4041 162.507 87.2876 163.044 87.2876 163.675ZM102.594 171.61C101.765 171.61 101.018 171.462 100.353 171.166C99.6939 170.865 99.1712 170.422 98.7848 169.837C98.4041 169.252 98.2138 168.53 98.2138 167.672C98.2138 166.933 98.3501 166.323 98.6229 165.84C98.8956 165.357 99.2678 164.97 99.7393 164.681C100.211 164.391 100.742 164.172 101.333 164.024C101.93 163.871 102.546 163.76 103.183 163.692C103.95 163.612 104.572 163.541 105.049 163.479C105.526 163.411 105.873 163.308 106.089 163.172C106.31 163.03 106.421 162.811 106.421 162.516V162.465C106.421 161.823 106.231 161.325 105.85 160.973C105.469 160.621 104.921 160.445 104.205 160.445C103.45 160.445 102.85 160.61 102.407 160.939C101.969 161.269 101.674 161.658 101.521 162.107L98.6399 161.698C98.8672 160.902 99.2422 160.237 99.7649 159.703C100.288 159.164 100.927 158.76 101.683 158.493C102.438 158.22 103.273 158.084 104.188 158.084C104.819 158.084 105.447 158.158 106.072 158.306C106.697 158.453 107.268 158.698 107.785 159.039C108.302 159.374 108.717 159.831 109.029 160.411C109.347 160.99 109.506 161.715 109.506 162.584V171.345H106.54V169.547H106.438C106.251 169.911 105.987 170.252 105.646 170.57C105.31 170.882 104.887 171.135 104.376 171.328C103.87 171.516 103.276 171.61 102.594 171.61ZM103.396 169.342C104.015 169.342 104.552 169.22 105.006 168.976C105.461 168.726 105.81 168.396 106.055 167.987C106.305 167.578 106.43 167.132 106.43 166.649V165.107C106.333 165.186 106.168 165.26 105.935 165.328C105.708 165.396 105.452 165.456 105.168 165.507C104.884 165.558 104.603 165.604 104.325 165.644C104.046 165.683 103.805 165.717 103.6 165.746C103.14 165.808 102.728 165.911 102.364 166.053C102.001 166.195 101.714 166.394 101.504 166.649C101.293 166.899 101.188 167.223 101.188 167.621C101.188 168.189 101.396 168.618 101.81 168.908C102.225 169.198 102.754 169.342 103.396 169.342ZM117.467 171.575C116.438 171.575 115.518 171.311 114.705 170.783C113.893 170.254 113.251 169.487 112.779 168.482C112.308 167.476 112.072 166.254 112.072 164.817C112.072 163.362 112.31 162.135 112.788 161.135C113.271 160.129 113.921 159.371 114.739 158.86C115.558 158.342 116.469 158.084 117.475 158.084C118.242 158.084 118.873 158.215 119.367 158.476C119.862 158.732 120.254 159.041 120.543 159.405C120.833 159.763 121.058 160.101 121.217 160.419H121.344V153.891H124.438V171.345H121.404V169.283H121.217C121.058 169.601 120.827 169.939 120.526 170.297C120.225 170.649 119.827 170.95 119.333 171.2C118.839 171.45 118.217 171.575 117.467 171.575ZM118.327 169.044C118.981 169.044 119.538 168.868 119.998 168.516C120.458 168.158 120.808 167.661 121.046 167.024C121.285 166.388 121.404 165.646 121.404 164.8C121.404 163.953 121.285 163.217 121.046 162.592C120.813 161.967 120.467 161.482 120.006 161.135C119.552 160.789 118.992 160.615 118.327 160.615C117.64 160.615 117.066 160.794 116.606 161.152C116.146 161.51 115.799 162.004 115.566 162.635C115.333 163.266 115.217 163.987 115.217 164.8C115.217 165.618 115.333 166.348 115.566 166.99C115.805 167.627 116.154 168.129 116.614 168.499C117.08 168.862 117.651 169.044 118.327 169.044ZM131.493 171.61C130.663 171.61 129.916 171.462 129.251 171.166C128.592 170.865 128.07 170.422 127.683 169.837C127.303 169.252 127.112 168.53 127.112 167.672C127.112 166.933 127.249 166.323 127.521 165.84C127.794 165.357 128.166 164.97 128.638 164.681C129.109 164.391 129.641 164.172 130.232 164.024C130.828 163.871 131.445 163.76 132.081 163.692C132.848 163.612 133.47 163.541 133.947 163.479C134.425 163.411 134.771 163.308 134.987 163.172C135.209 163.03 135.32 162.811 135.32 162.516V162.465C135.32 161.823 135.129 161.325 134.749 160.973C134.368 160.621 133.82 160.445 133.104 160.445C132.348 160.445 131.749 160.61 131.305 160.939C130.868 161.269 130.572 161.658 130.419 162.107L127.538 161.698C127.766 160.902 128.141 160.237 128.663 159.703C129.186 159.164 129.825 158.76 130.581 158.493C131.337 158.22 132.172 158.084 133.087 158.084C133.717 158.084 134.345 158.158 134.97 158.306C135.595 158.453 136.166 158.698 136.683 159.039C137.2 159.374 137.615 159.831 137.928 160.411C138.246 160.99 138.405 161.715 138.405 162.584V171.345H135.439V169.547H135.337C135.149 169.911 134.885 170.252 134.544 170.57C134.209 170.882 133.786 171.135 133.274 171.328C132.768 171.516 132.175 171.61 131.493 171.61ZM132.294 169.342C132.913 169.342 133.45 169.22 133.905 168.976C134.359 168.726 134.709 168.396 134.953 167.987C135.203 167.578 135.328 167.132 135.328 166.649V165.107C135.232 165.186 135.067 165.26 134.834 165.328C134.607 165.396 134.351 165.456 134.067 165.507C133.783 165.558 133.501 165.604 133.223 165.644C132.945 165.683 132.703 165.717 132.499 165.746C132.038 165.808 131.626 165.911 131.263 166.053C130.899 166.195 130.612 166.394 130.402 166.649C130.192 166.899 130.087 167.223 130.087 167.621C130.087 168.189 130.294 168.618 130.709 168.908C131.124 169.198 131.652 169.342 132.294 169.342Z" fill="#00E45F"/>
<path d="M307.963 621.345H304.588L310.733 603.891H314.636L320.79 621.345H317.415L312.753 607.47H312.616L307.963 621.345ZM308.074 614.502H317.278V617.041H308.074V614.502ZM328.669 608.254V610.641H321.143V608.254H328.669ZM323.001 605.118H326.087V617.408C326.087 617.823 326.149 618.141 326.274 618.362C326.405 618.578 326.575 618.726 326.786 618.806C326.996 618.885 327.229 618.925 327.484 618.925C327.678 618.925 327.854 618.911 328.013 618.882C328.178 618.854 328.303 618.828 328.388 618.806L328.908 621.217C328.743 621.274 328.507 621.337 328.2 621.405C327.899 621.473 327.53 621.513 327.092 621.524C326.32 621.547 325.624 621.431 325.004 621.175C324.385 620.914 323.893 620.51 323.53 619.965C323.172 619.419 322.996 618.737 323.001 617.919V605.118ZM334.616 603.891V621.345H331.531V603.891H334.616ZM341.555 621.61C340.726 621.61 339.979 621.462 339.314 621.166C338.655 620.865 338.132 620.422 337.746 619.837C337.365 619.252 337.175 618.53 337.175 617.672C337.175 616.933 337.311 616.323 337.584 615.84C337.857 615.357 338.229 614.97 338.7 614.681C339.172 614.391 339.703 614.172 340.294 614.024C340.891 613.871 341.507 613.76 342.143 613.692C342.911 613.612 343.533 613.541 344.01 613.479C344.487 613.411 344.834 613.308 345.05 613.172C345.271 613.03 345.382 612.811 345.382 612.516V612.465C345.382 611.823 345.192 611.325 344.811 610.973C344.43 610.621 343.882 610.445 343.166 610.445C342.411 610.445 341.811 610.61 341.368 610.939C340.93 611.269 340.635 611.658 340.482 612.107L337.601 611.698C337.828 610.902 338.203 610.237 338.726 609.703C339.249 609.164 339.888 608.76 340.643 608.493C341.399 608.22 342.234 608.084 343.149 608.084C343.78 608.084 344.408 608.158 345.033 608.306C345.658 608.453 346.229 608.698 346.746 609.039C347.263 609.374 347.678 609.831 347.99 610.411C348.308 610.99 348.467 611.715 348.467 612.584V621.345H345.501V619.547H345.399C345.212 619.911 344.947 620.252 344.607 620.57C344.271 620.882 343.848 621.135 343.337 621.328C342.831 621.516 342.237 621.61 341.555 621.61ZM342.357 619.342C342.976 619.342 343.513 619.22 343.967 618.976C344.422 618.726 344.771 618.396 345.016 617.987C345.266 617.578 345.391 617.132 345.391 616.649V615.107C345.294 615.186 345.129 615.26 344.896 615.328C344.669 615.396 344.413 615.456 344.129 615.507C343.845 615.558 343.564 615.604 343.286 615.644C343.007 615.683 342.766 615.717 342.561 615.746C342.101 615.808 341.689 615.911 341.325 616.053C340.962 616.195 340.675 616.394 340.464 616.649C340.254 616.899 340.149 617.223 340.149 617.621C340.149 618.189 340.357 618.618 340.771 618.908C341.186 619.198 341.714 619.342 342.357 619.342ZM354.655 613.675V621.345H351.57V608.254H354.518V610.479H354.672C354.973 609.746 355.453 609.164 356.112 608.732C356.777 608.3 357.598 608.084 358.575 608.084C359.479 608.084 360.266 608.277 360.936 608.664C361.612 609.05 362.135 609.61 362.504 610.342C362.879 611.075 363.064 611.965 363.058 613.01V621.345H359.973V613.487C359.973 612.612 359.746 611.928 359.291 611.433C358.842 610.939 358.22 610.692 357.425 610.692C356.885 610.692 356.405 610.811 355.984 611.05C355.57 611.283 355.243 611.621 355.004 612.064C354.771 612.507 354.655 613.044 354.655 613.675ZM372.732 608.254V610.641H365.206V608.254H372.732ZM367.064 605.118H370.149V617.408C370.149 617.823 370.212 618.141 370.337 618.362C370.467 618.578 370.638 618.726 370.848 618.806C371.058 618.885 371.291 618.925 371.547 618.925C371.74 618.925 371.916 618.911 372.075 618.882C372.24 618.854 372.365 618.828 372.45 618.806L372.97 621.217C372.805 621.274 372.57 621.337 372.263 621.405C371.962 621.473 371.592 621.513 371.155 621.524C370.382 621.547 369.686 621.431 369.067 621.175C368.447 620.914 367.956 620.51 367.592 619.965C367.234 619.419 367.058 618.737 367.064 617.919V605.118ZM375.312 621.345V608.254H378.397V621.345H375.312ZM376.863 606.396C376.374 606.396 375.954 606.235 375.602 605.911C375.249 605.581 375.073 605.186 375.073 604.726C375.073 604.26 375.249 603.865 375.602 603.541C375.954 603.212 376.374 603.047 376.863 603.047C377.357 603.047 377.778 603.212 378.124 603.541C378.477 603.865 378.653 604.26 378.653 604.726C378.653 605.186 378.477 605.581 378.124 605.911C377.778 606.235 377.357 606.396 376.863 606.396ZM387.28 621.601C385.973 621.601 384.851 621.314 383.913 620.74C382.982 620.166 382.263 619.374 381.757 618.362C381.257 617.345 381.007 616.175 381.007 614.851C381.007 613.521 381.263 612.348 381.774 611.331C382.286 610.308 383.007 609.513 383.939 608.945C384.876 608.371 385.984 608.084 387.263 608.084C388.325 608.084 389.266 608.28 390.084 608.672C390.908 609.058 391.564 609.607 392.053 610.317C392.541 611.021 392.82 611.845 392.888 612.789H389.939C389.82 612.158 389.536 611.632 389.087 611.212C388.643 610.786 388.05 610.573 387.305 610.573C386.675 610.573 386.121 610.743 385.643 611.084C385.166 611.419 384.794 611.902 384.527 612.533C384.266 613.164 384.135 613.919 384.135 614.8C384.135 615.692 384.266 616.459 384.527 617.101C384.788 617.737 385.155 618.229 385.626 618.575C386.104 618.916 386.663 619.087 387.305 619.087C387.76 619.087 388.166 619.002 388.524 618.831C388.888 618.655 389.192 618.402 389.436 618.073C389.68 617.743 389.848 617.342 389.939 616.871H392.888C392.814 617.797 392.541 618.618 392.07 619.334C391.598 620.044 390.956 620.601 390.143 621.004C389.331 621.402 388.376 621.601 387.28 621.601ZM321.318 641.618C321.318 643.499 320.966 645.11 320.261 646.45C319.563 647.786 318.608 648.808 317.398 649.519C316.193 650.229 314.827 650.584 313.298 650.584C311.77 650.584 310.401 650.229 309.19 649.519C307.986 648.803 307.031 647.777 306.327 646.442C305.628 645.101 305.278 643.493 305.278 641.618C305.278 639.737 305.628 638.129 306.327 636.794C307.031 635.453 307.986 634.428 309.19 633.717C310.401 633.007 311.77 632.652 313.298 632.652C314.827 632.652 316.193 633.007 317.398 633.717C318.608 634.428 319.563 635.453 320.261 636.794C320.966 638.129 321.318 639.737 321.318 641.618ZM318.139 641.618C318.139 640.294 317.932 639.178 317.517 638.269C317.108 637.354 316.54 636.664 315.812 636.198C315.085 635.726 314.247 635.49 313.298 635.49C312.349 635.49 311.511 635.726 310.784 636.198C310.057 636.664 309.486 637.354 309.071 638.269C308.662 639.178 308.457 640.294 308.457 641.618C308.457 642.942 308.662 644.061 309.071 644.976C309.486 645.885 310.057 646.575 310.784 647.047C311.511 647.513 312.349 647.746 313.298 647.746C314.247 647.746 315.085 647.513 315.812 647.047C316.54 646.575 317.108 645.885 317.517 644.976C317.932 644.061 318.139 642.942 318.139 641.618ZM329.881 650.601C328.575 650.601 327.452 650.314 326.515 649.74C325.583 649.166 324.864 648.374 324.359 647.362C323.859 646.345 323.609 645.175 323.609 643.851C323.609 642.521 323.864 641.348 324.376 640.331C324.887 639.308 325.609 638.513 326.54 637.945C327.478 637.371 328.586 637.084 329.864 637.084C330.927 637.084 331.867 637.28 332.685 637.672C333.509 638.058 334.165 638.607 334.654 639.317C335.143 640.021 335.421 640.845 335.489 641.789H332.54C332.421 641.158 332.137 640.632 331.688 640.212C331.245 639.786 330.651 639.573 329.907 639.573C329.276 639.573 328.722 639.743 328.245 640.084C327.768 640.419 327.396 640.902 327.129 641.533C326.867 642.164 326.737 642.919 326.737 643.8C326.737 644.692 326.867 645.459 327.129 646.101C327.39 646.737 327.756 647.229 328.228 647.575C328.705 647.916 329.265 648.087 329.907 648.087C330.362 648.087 330.768 648.002 331.126 647.831C331.489 647.655 331.793 647.402 332.038 647.073C332.282 646.743 332.45 646.342 332.54 645.871H335.489C335.415 646.797 335.143 647.618 334.671 648.334C334.2 649.044 333.558 649.601 332.745 650.004C331.933 650.402 330.978 650.601 329.881 650.601ZM343.818 650.601C342.506 650.601 341.372 650.328 340.418 649.783C339.469 649.232 338.739 648.453 338.227 647.448C337.716 646.436 337.46 645.246 337.46 643.877C337.46 642.53 337.716 641.348 338.227 640.331C338.744 639.308 339.466 638.513 340.392 637.945C341.318 637.371 342.406 637.084 343.656 637.084C344.463 637.084 345.224 637.215 345.94 637.476C346.662 637.732 347.298 638.129 347.849 638.669C348.406 639.209 348.844 639.896 349.162 640.732C349.48 641.561 349.639 642.55 349.639 643.698V644.644H338.909V642.564H346.682C346.676 641.973 346.548 641.448 346.298 640.987C346.048 640.521 345.699 640.155 345.25 639.888C344.807 639.621 344.29 639.487 343.699 639.487C343.068 639.487 342.514 639.641 342.037 639.948C341.56 640.249 341.188 640.646 340.92 641.141C340.659 641.629 340.526 642.166 340.52 642.752V644.567C340.52 645.328 340.659 645.982 340.938 646.527C341.216 647.067 341.605 647.482 342.105 647.771C342.605 648.056 343.19 648.198 343.861 648.198C344.31 648.198 344.716 648.135 345.08 648.01C345.443 647.879 345.759 647.689 346.026 647.439C346.293 647.189 346.494 646.879 346.631 646.51L349.511 646.834C349.33 647.595 348.983 648.26 348.472 648.828C347.966 649.391 347.318 649.828 346.528 650.141C345.739 650.448 344.835 650.601 343.818 650.601ZM356.016 650.61C355.187 650.61 354.44 650.462 353.775 650.166C353.116 649.865 352.593 649.422 352.207 648.837C351.826 648.252 351.636 647.53 351.636 646.672C351.636 645.933 351.772 645.323 352.045 644.84C352.317 644.357 352.69 643.97 353.161 643.681C353.633 643.391 354.164 643.172 354.755 643.024C355.352 642.871 355.968 642.76 356.604 642.692C357.371 642.612 357.994 642.541 358.471 642.479C358.948 642.411 359.295 642.308 359.511 642.172C359.732 642.03 359.843 641.811 359.843 641.516V641.465C359.843 640.823 359.653 640.325 359.272 639.973C358.891 639.621 358.343 639.445 357.627 639.445C356.871 639.445 356.272 639.61 355.829 639.939C355.391 640.269 355.096 640.658 354.942 641.107L352.062 640.698C352.289 639.902 352.664 639.237 353.187 638.703C353.71 638.164 354.349 637.76 355.104 637.493C355.86 637.22 356.695 637.084 357.61 637.084C358.241 637.084 358.869 637.158 359.494 637.306C360.119 637.453 360.69 637.698 361.207 638.039C361.724 638.374 362.138 638.831 362.451 639.411C362.769 639.99 362.928 640.715 362.928 641.584V650.345H359.962V648.547H359.86C359.673 648.911 359.408 649.252 359.067 649.57C358.732 649.882 358.309 650.135 357.798 650.328C357.292 650.516 356.698 650.61 356.016 650.61ZM356.817 648.342C357.437 648.342 357.974 648.22 358.428 647.976C358.883 647.726 359.232 647.396 359.477 646.987C359.727 646.578 359.852 646.132 359.852 645.649V644.107C359.755 644.186 359.59 644.26 359.357 644.328C359.13 644.396 358.874 644.456 358.59 644.507C358.306 644.558 358.025 644.604 357.746 644.644C357.468 644.683 357.227 644.717 357.022 644.746C356.562 644.808 356.15 644.911 355.786 645.053C355.423 645.195 355.136 645.394 354.925 645.649C354.715 645.899 354.61 646.223 354.61 646.621C354.61 647.189 354.817 647.618 355.232 647.908C355.647 648.198 356.175 648.342 356.817 648.342ZM369.116 642.675V650.345H366.031V637.254H368.979V639.479H369.133C369.434 638.746 369.914 638.164 370.573 637.732C371.238 637.3 372.059 637.084 373.036 637.084C373.94 637.084 374.727 637.277 375.397 637.664C376.073 638.05 376.596 638.61 376.965 639.342C377.34 640.075 377.525 640.965 377.519 642.01V650.345H374.434V642.487C374.434 641.612 374.207 640.928 373.752 640.433C373.303 639.939 372.681 639.692 371.886 639.692C371.346 639.692 370.866 639.811 370.445 640.05C370.031 640.283 369.704 640.621 369.465 641.064C369.232 641.507 369.116 642.044 369.116 642.675Z" fill="#00D9E4"/>
<line x1="29.2399" y1="377.696" x2="39.4981" y2="365.696" stroke="#00E45F" stroke-width="2"/>
<line x1="499.298" y1="390.711" x2="510.546" y2="379.633" stroke="#00E45F" stroke-width="2"/>
<path d="M118.041 286.382L121.5 295.345L116.5 299.345H112L106 305.345L102 305.845L98 311.845L86.5 321.845L87.5 325.345L82.5 330.845V336.345L93 346.345L92.5 348.845V352.845L89.5 353.845L87.5 351.345H84L79.5 346.345L75.5 344.845L70.5 349.845L72.5 353.845L70.5 360.845L72.5 364.345L67.5 372.845L69 377.845H66L62 376.345L59 370.845L59.5 364.345L56 360.845L52 361.345L49 359.345V364.345L40 365.845L53 650.345L54.5 672.345L51.5 677.584L53 685.345L60.5 691.845L62.5 696.845L71.5 705.845L70 712.345V719.845L77.5 727.845L82 729.845C82.9098 727.113 89 732.031 89 729.845C89 727.66 95.6832 717.652 97.5028 715.831V701.345L102.5 690.845L108 687.845L115 686.845L125 674.845L123.5 667.345V659.845L125 655.729L126 653.845L130 656.345L136 651.845L139.5 653.845L143.5 650.345L142 640.845L139.5 635.345L141 627.345L146 622.345L155.5 610.845L169.5 602.845L172.5 604.345L169 612.345L164 620.345L165 622.345L167.5 621.345L170.5 614.345L173.5 609.845L176 606.345L179.5 613.345V615.345L180.5 614.345L180 606.845V603.845L183 602.845V610.845L182 612.345V616.345L183.5 622.845L187 625.845L192.5 623.845L192 615.845L190 606.555L192 602.845L192.5 610.845L194 619.345L197 620.345L200 616.345L200.745 606.555L194 598.36L205 587.345L208.5 580.845L207 590.345V605.345L205 609.845L207.5 615.345L209.5 613.345V606.845L215 605.345L217 595.628L221 596.345L224 605.345L225.5 606.845L229 602.845L231.238 595.628L233.5 584.7L238.5 580.845L237 574.345L240.5 569.845L244 574.845L243 581.845L242.5 586.845L250 588.845L263 571.041L252.5 589.345L254 594.845L262 590.345L264 582.345L272.177 579.237L276.5 571.845L278 567.845H272C275.639 563.292 276.5 560.031 276.5 557.845C276.5 555.66 279.91 549.988 279 546.345L288.5 531.345L291 522.345L286 517.345L287 511.345L295.5 505.345H301H303.5L307.5 500.845L310 505.345L305 514.345L306.5 517.345L311 514.345L310 519.345L305 524.345V529.345H311L315 528.345C319.549 531.988 322.317 534.345 324.5 534.345C326.683 534.345 337.18 542.345 339 542.345V535.345L336 528.345L339 517.345L345 509.845L351 516.403L364 506.345V509.345L358.5 515.845L353 524.345L351 529.345L352 534.345L354.5 539.845L360 544.345L366.5 542.345L365 533.345L371.758 534.345H377L381.348 524.345L377 516.403L371.758 511.345L364.5 509.345V504.345L366.5 507.345L370.5 502.744L367.5 497.845L370 493.345L369.5 488.845L372.5 486.345L371.758 491.345L379.5 497.845V501.345L382 503.845L382.5 500.345L389.5 505.345L388.153 510.874L389 515.845L395 523.345L399 523.845V516.403L404 515.845L408.5 513.345L414 509.345L417.5 501.845L418.5 491.345L421 485.845L429.5 491.345L431 496.345L435 499.845L437.5 493.345C442.959 492.435 431.216 494.345 446.5 494.345C461.784 494.345 454.549 482.167 450 480.345L458.5 476.845L464 482.345L468.5 475.425L470.5 479.345L471 482.345L473.5 479.345L475 474.845L472.5 470.345L472 465.345L473.5 467.345L479 466.845L482.332 465.345V475.425L485.5 478.845H488.5L487 475.425L486.5 473.345L489.5 472.845L490.5 476.845L498.5 473.345L508 460.845L521 450.845L518.5 443.845L517 436.345L512 433.845L506.895 439.345H502L496.5 436.345L497.5 432.845L502 434.845L505.5 426.345L508 429.845H511L512 418.845L505.5 406.845L499.5 390.845L490 389.345L485 386.845L483 393.469L476.5 395.845L471 390.845L462.5 374.845L460.497 369.345L464 366.345L468.685 353.845L461.5 345.345L459.5 338.345V335.345L466 334.345L469 333.845L467 329.345V321.345L464 316.345H459.5V318.845L439.5 312.845L432.5 301.845V306.048L422.287 302.969L424 300.345L423 295.845L427 294.845L424 290.845V284.345L429.5 280.345L424 269.845L429.5 264.345L427 260.845L425 68.3453C407.715 51.0434 391 36.0308 391 33.8453C391 31.6598 386.549 22.4347 382 23.3453L374.5 20.3453L359 18.8453L356 22.3453V30.8453L348.5 31.3453L345 29.3453L333 30.8453L330 37.8453L315.5 39.3453L295 49.3453L290.5 44.8453H288.5L279.5 37.8453L277.635 32.8598V15.8453L280.5 9.84534L279.5 6.84534L273.5 5.84534L270.5 3.84534L257.5 0.845337L166 133.345L160.5 179.845L156 180.345L152 187.345L142 193.845L143 199.345L139 200.345L132.5 217.845L139 224.345L137.5 233.345H133.5L131.5 236.845L130.254 239.845L134 240.345L130.254 244.845V247.845L132.983 250.845L130.254 253.345V256.345H135.5L138 258.845L135.5 262.345L136.5 268.845L123.5 277.845L118.041 286.382Z" fill="#97DCFF" stroke="white" stroke-width="1.5"/>
<path d="M302 563.845H297.5H295L297.5 570.345L300.5 573.845L307 576.345L311 570.345L307 562.345L302 563.845Z" fill="#97DCFF"/>
<path d="M321.5 544.345V537.845H323L329 539.845V548.345H326V551.345V555.845H321.5L318 551.345L316.5 544.345H321.5Z" fill="#97DCFF"/>
<path d="M326 573.845L324.5 578.345H326L330.5 576.345V572.345V567.345L326 570.345V573.845Z" fill="#97DCFF"/>
<path d="M300.5 553.845L295 558.845H302L308.5 555.845L305 551.345L300.5 553.845Z" fill="#97DCFF"/>
<path d="M291.5 532.845L293.5 537.845V538.345L294 539.845L295 537.345L297.5 533.345L297 525.345L298.5 523.345L299 520.845H295L293.5 527.345L291.5 532.845Z" fill="#97DCFF"/>
<path d="M355 555.345H349L348.5 557.345L350.5 558.845L355 558.345V555.345Z" fill="#97DCFF"/>
<path d="M302 563.845H297.5H295L297.5 570.345L300.5 573.845L307 576.345L311 570.345L307 562.345L302 563.845Z" stroke="white"/>
<path d="M321.5 544.345V537.845H323L329 539.845V548.345H326V551.345V555.845H321.5L318 551.345L316.5 544.345H321.5Z" stroke="white"/>
<path d="M326 573.845L324.5 578.345H326L330.5 576.345V572.345V567.345L326 570.345V573.845Z" stroke="white"/>
<path d="M300.5 553.845L295 558.845H302L308.5 555.845L305 551.345L300.5 553.845Z" stroke="white"/>
<path d="M291.5 532.845L293.5 537.845V538.345L294 539.845L295 537.345L297.5 533.345L297 525.345L298.5 523.345L299 520.845H295L293.5 527.345L291.5 532.845Z" stroke="white"/>
<path d="M355 555.345H349L348.5 557.345L350.5 558.845L355 558.345V555.345Z" stroke="white"/>
<path d="M16.0653 538.891V556.345H13.2528L5.02841 544.456H4.88352V556.345H1.72159V538.891H4.55114L12.767 550.789H12.9205V538.891H16.0653ZM19.5107 556.345V538.891H22.6726V546.28H30.7607V538.891H33.9311V556.345H30.7607V548.931H22.6726V556.345H19.5107Z" fill="#FFE587"/>
<circle cx="134.511" cy="630.857" r="9.01136" fill="#FFE587" stroke="black"/>
<circle cx="374.511" cy="518.857" r="9.01136" fill="#FFE587" stroke="black"/>
<circle cx="214.511" cy="484.857" r="9.01136" fill="#FFE587" stroke="black"/>
<circle cx="313.511" cy="448.857" r="9.01136" fill="#FFE587" stroke="black"/>
<circle cx="416.511" cy="228.857" r="9.01136" fill="#FFE587" stroke="black"/>
<path d="M63.2017 613.345V595.164H69.3452C70.7715 595.164 71.9375 595.421 72.843 595.936C73.7545 596.445 74.4292 597.134 74.8672 598.004C75.3052 598.874 75.5241 599.845 75.5241 600.916C75.5241 601.988 75.3052 602.961 74.8672 603.837C74.4351 604.713 73.7663 605.412 72.8608 605.932C71.9553 606.447 70.7952 606.705 69.3807 606.705H64.9773V604.752H69.3097C70.2862 604.752 71.0704 604.583 71.6623 604.246C72.2541 603.908 72.6832 603.452 72.9496 602.878C73.2218 602.298 73.358 601.644 73.358 600.916C73.358 600.188 73.2218 599.537 72.9496 598.963C72.6832 598.389 72.2512 597.939 71.6534 597.614C71.0556 597.282 70.2625 597.117 69.2741 597.117H65.4034V613.345H63.2017ZM84.18 613.629C82.949 613.629 81.8688 613.336 80.9396 612.751C80.0163 612.165 79.2943 611.345 78.7734 610.291C78.2585 609.238 78.0011 608.007 78.0011 606.598C78.0011 605.178 78.2585 603.938 78.7734 602.878C79.2943 601.819 80.0163 600.996 80.9396 600.41C81.8688 599.824 82.949 599.531 84.18 599.531C85.4111 599.531 86.4883 599.824 87.4116 600.41C88.3408 600.996 89.0629 601.819 89.5778 602.878C90.0986 603.938 90.359 605.178 90.359 606.598C90.359 608.007 90.0986 609.238 89.5778 610.291C89.0629 611.345 88.3408 612.165 87.4116 612.751C86.4883 613.336 85.4111 613.629 84.18 613.629ZM84.18 611.747C85.1152 611.747 85.8846 611.508 86.4883 611.028C87.092 610.549 87.5388 609.918 87.8288 609.137C88.1188 608.356 88.2638 607.51 88.2638 606.598C88.2638 605.687 88.1188 604.837 87.8288 604.05C87.5388 603.263 87.092 602.627 86.4883 602.142C85.8846 601.656 85.1152 601.414 84.18 601.414C83.2449 601.414 82.4755 601.656 81.8718 602.142C81.2681 602.627 80.8213 603.263 80.5312 604.05C80.2412 604.837 80.0962 605.687 80.0962 606.598C80.0962 607.51 80.2412 608.356 80.5312 609.137C80.8213 609.918 81.2681 610.549 81.8718 611.028C82.4755 611.508 83.2449 611.747 84.18 611.747ZM93.5573 613.345V599.709H95.5814V601.769H95.7235C95.972 601.094 96.4218 600.546 97.0729 600.126C97.7239 599.706 98.4578 599.496 99.2746 599.496C99.4285 599.496 99.6208 599.499 99.8517 599.505C100.082 599.511 100.257 599.52 100.375 599.531V601.662C100.304 601.644 100.142 601.618 99.8872 601.582C99.6386 601.541 99.3752 601.52 99.097 601.52C98.4342 601.52 97.8423 601.659 97.3215 601.937C96.8066 602.21 96.3982 602.588 96.0963 603.074C95.8004 603.553 95.6524 604.101 95.6524 604.716V613.345H93.5573ZM109.644 599.709V601.485H102.577V599.709H109.644ZM104.637 596.442H106.732V609.439C106.732 610.031 106.818 610.475 106.989 610.771C107.167 611.061 107.392 611.256 107.664 611.357C107.942 611.451 108.235 611.499 108.543 611.499C108.774 611.499 108.963 611.487 109.111 611.463C109.259 611.434 109.378 611.41 109.466 611.392L109.892 613.274C109.75 613.328 109.552 613.381 109.298 613.434C109.043 613.493 108.721 613.523 108.33 613.523C107.738 613.523 107.158 613.396 106.59 613.141C106.028 612.887 105.56 612.499 105.187 611.978C104.82 611.457 104.637 610.8 104.637 610.007V596.442ZM115.184 595.164V613.345H113.089V595.164H115.184ZM123.034 613.665C122.17 613.665 121.386 613.502 120.681 613.177C119.977 612.845 119.418 612.369 119.003 611.747C118.589 611.12 118.382 610.362 118.382 609.475C118.382 608.693 118.536 608.06 118.844 607.575C119.151 607.083 119.563 606.699 120.078 606.421C120.593 606.142 121.161 605.935 121.782 605.799C122.41 605.657 123.04 605.545 123.673 605.462C124.502 605.355 125.173 605.275 125.688 605.222C126.209 605.163 126.588 605.065 126.825 604.929C127.067 604.793 127.189 604.556 127.189 604.219V604.148C127.189 603.272 126.949 602.591 126.47 602.106C125.996 601.621 125.277 601.378 124.312 601.378C123.312 601.378 122.528 601.597 121.96 602.035C121.392 602.473 120.992 602.941 120.761 603.438L118.773 602.727C119.128 601.899 119.601 601.254 120.193 600.792C120.791 600.325 121.442 599.999 122.146 599.816C122.856 599.626 123.555 599.531 124.241 599.531C124.679 599.531 125.182 599.585 125.751 599.691C126.325 599.792 126.878 600.002 127.411 600.322C127.949 600.641 128.396 601.124 128.751 601.769C129.106 602.414 129.284 603.278 129.284 604.361V613.345H127.189V611.499H127.082C126.94 611.795 126.703 612.111 126.372 612.449C126.041 612.786 125.6 613.073 125.049 613.31C124.499 613.547 123.827 613.665 123.034 613.665ZM123.354 611.783C124.182 611.783 124.881 611.62 125.449 611.295C126.023 610.969 126.455 610.549 126.745 610.034C127.041 609.519 127.189 608.977 127.189 608.409V606.492C127.1 606.598 126.905 606.696 126.603 606.785C126.307 606.867 125.964 606.941 125.573 607.007C125.188 607.066 124.812 607.119 124.445 607.166C124.084 607.208 123.791 607.243 123.567 607.273C123.022 607.344 122.513 607.459 122.04 607.619C121.572 607.773 121.193 608.007 120.903 608.32C120.619 608.628 120.477 609.048 120.477 609.581C120.477 610.309 120.746 610.86 121.285 611.232C121.829 611.599 122.519 611.783 123.354 611.783ZM135.203 605.142V613.345H133.108V599.709H135.132V601.84H135.31C135.629 601.147 136.115 600.591 136.766 600.171C137.417 599.744 138.257 599.531 139.287 599.531C140.21 599.531 141.018 599.721 141.711 600.1C142.403 600.472 142.942 601.041 143.326 601.804C143.711 602.562 143.903 603.521 143.903 604.681V613.345H141.808V604.823C141.808 603.751 141.53 602.917 140.974 602.319C140.417 601.715 139.654 601.414 138.683 601.414C138.015 601.414 137.417 601.559 136.89 601.849C136.369 602.139 135.958 602.562 135.656 603.118C135.354 603.674 135.203 604.349 135.203 605.142ZM152.881 613.629C151.745 613.629 150.742 613.342 149.872 612.768C149.002 612.188 148.321 611.371 147.83 610.318C147.338 609.259 147.093 608.007 147.093 606.563C147.093 605.13 147.338 603.887 147.83 602.834C148.321 601.78 149.005 600.967 149.881 600.393C150.756 599.818 151.769 599.531 152.917 599.531C153.805 599.531 154.506 599.679 155.021 599.975C155.542 600.265 155.938 600.597 156.21 600.97C156.489 601.337 156.705 601.638 156.858 601.875H157.036V595.164H159.131V613.345H157.107V611.25H156.858C156.705 611.499 156.486 611.812 156.202 612.191C155.917 612.564 155.512 612.898 154.985 613.194C154.459 613.484 153.757 613.629 152.881 613.629ZM153.165 611.747C154.006 611.747 154.716 611.528 155.296 611.09C155.876 610.646 156.317 610.034 156.619 609.253C156.921 608.465 157.072 607.557 157.072 606.527C157.072 605.509 156.924 604.618 156.628 603.855C156.332 603.086 155.894 602.488 155.314 602.062C154.734 601.63 154.018 601.414 153.165 601.414C152.278 601.414 151.538 601.641 150.946 602.097C150.36 602.547 149.919 603.159 149.623 603.935C149.333 604.704 149.188 605.568 149.188 606.527C149.188 607.498 149.336 608.38 149.632 609.173C149.934 609.96 150.378 610.587 150.964 611.055C151.555 611.517 152.289 611.747 153.165 611.747Z" fill="black"/>
<path d="M327.202 260.345V242.164H329.403V250.26H339.098V242.164H341.3V260.345H339.098V252.213H329.403V260.345H327.202ZM350.963 260.629C349.732 260.629 348.652 260.336 347.723 259.751C346.8 259.165 346.077 258.345 345.557 257.291C345.042 256.238 344.784 255.007 344.784 253.598C344.784 252.178 345.042 250.938 345.557 249.878C346.077 248.819 346.8 247.996 347.723 247.41C348.652 246.824 349.732 246.531 350.963 246.531C352.194 246.531 353.271 246.824 354.195 247.41C355.124 247.996 355.846 248.819 356.361 249.878C356.882 250.938 357.142 252.178 357.142 253.598C357.142 255.007 356.882 256.238 356.361 257.291C355.846 258.345 355.124 259.165 354.195 259.751C353.271 260.336 352.194 260.629 350.963 260.629ZM350.963 258.747C351.898 258.747 352.668 258.508 353.271 258.028C353.875 257.549 354.322 256.918 354.612 256.137C354.902 255.356 355.047 254.51 355.047 253.598C355.047 252.687 354.902 251.837 354.612 251.05C354.322 250.263 353.875 249.627 353.271 249.142C352.668 248.656 351.898 248.414 350.963 248.414C350.028 248.414 349.259 248.656 348.655 249.142C348.051 249.627 347.604 250.263 347.314 251.05C347.024 251.837 346.879 252.687 346.879 253.598C346.879 254.51 347.024 255.356 347.314 256.137C347.604 256.918 348.051 257.549 348.655 258.028C349.259 258.508 350.028 258.747 350.963 258.747ZM368.934 254.77V246.709H371.029V260.345H368.934V258.037H368.792C368.473 258.73 367.975 259.318 367.301 259.804C366.626 260.283 365.774 260.523 364.744 260.523C363.892 260.523 363.134 260.336 362.471 259.964C361.808 259.585 361.287 259.017 360.909 258.259C360.53 257.496 360.34 256.534 360.34 255.374V246.709H362.436V255.232C362.436 256.226 362.714 257.019 363.27 257.611C363.832 258.203 364.549 258.499 365.419 258.499C365.939 258.499 366.469 258.366 367.008 258.099C367.552 257.833 368.008 257.425 368.375 256.874C368.748 256.324 368.934 255.622 368.934 254.77ZM376.962 242.164V260.345H374.867V242.164H376.962ZM386.73 246.709V248.485H379.663V246.709H386.73ZM381.723 243.442H383.818V256.439C383.818 257.031 383.904 257.475 384.075 257.771C384.253 258.061 384.478 258.256 384.75 258.357C385.028 258.451 385.321 258.499 385.629 258.499C385.86 258.499 386.049 258.487 386.197 258.463C386.345 258.434 386.464 258.41 386.552 258.392L386.978 260.274C386.836 260.328 386.638 260.381 386.384 260.434C386.129 260.493 385.807 260.523 385.416 260.523C384.824 260.523 384.244 260.396 383.676 260.141C383.114 259.887 382.646 259.499 382.273 258.978C381.906 258.457 381.723 257.8 381.723 257.007V243.442ZM395.275 260.629C394.044 260.629 392.964 260.336 392.034 259.751C391.111 259.165 390.389 258.345 389.868 257.291C389.353 256.238 389.096 255.007 389.096 253.598C389.096 252.178 389.353 250.938 389.868 249.878C390.389 248.819 391.111 247.996 392.034 247.41C392.964 246.824 394.044 246.531 395.275 246.531C396.506 246.531 397.583 246.824 398.506 247.41C399.436 247.996 400.158 248.819 400.672 249.878C401.193 250.938 401.454 252.178 401.454 253.598C401.454 255.007 401.193 256.238 400.672 257.291C400.158 258.345 399.436 259.165 398.506 259.751C397.583 260.336 396.506 260.629 395.275 260.629ZM395.275 258.747C396.21 258.747 396.979 258.508 397.583 258.028C398.187 257.549 398.634 256.918 398.924 256.137C399.214 255.356 399.359 254.51 399.359 253.598C399.359 252.687 399.214 251.837 398.924 251.05C398.634 250.263 398.187 249.627 397.583 249.142C396.979 248.656 396.21 248.414 395.275 248.414C394.34 248.414 393.57 248.656 392.967 249.142C392.363 249.627 391.916 250.263 391.626 251.05C391.336 251.837 391.191 252.687 391.191 253.598C391.191 254.51 391.336 255.356 391.626 256.137C391.916 256.918 392.363 257.549 392.967 258.028C393.57 258.508 394.34 258.747 395.275 258.747ZM406.747 252.142V260.345H404.652V246.709H406.676V248.84H406.854C407.173 248.147 407.659 247.591 408.31 247.171C408.961 246.744 409.801 246.531 410.831 246.531C411.754 246.531 412.562 246.721 413.255 247.1C413.947 247.472 414.486 248.041 414.87 248.804C415.255 249.562 415.447 250.521 415.447 251.681V260.345H413.352V251.823C413.352 250.751 413.074 249.917 412.518 249.319C411.961 248.715 411.198 248.414 410.227 248.414C409.558 248.414 408.961 248.559 408.434 248.849C407.913 249.139 407.502 249.562 407.2 250.118C406.898 250.674 406.747 251.349 406.747 252.142Z" fill="black"/>
<path d="M325.202 499.345V481.164H331.558C332.825 481.164 333.869 481.383 334.692 481.82C335.515 482.253 336.127 482.836 336.53 483.569C336.932 484.297 337.134 485.105 337.134 485.993C337.134 486.774 336.994 487.419 336.716 487.928C336.444 488.437 336.083 488.84 335.633 489.136C335.189 489.432 334.707 489.651 334.186 489.793V489.97C334.742 490.006 335.302 490.201 335.864 490.556C336.426 490.911 336.897 491.42 337.276 492.083C337.654 492.746 337.844 493.557 337.844 494.516C337.844 495.427 337.637 496.247 337.222 496.975C336.808 497.703 336.154 498.28 335.26 498.706C334.367 499.132 333.204 499.345 331.771 499.345H325.202ZM327.403 497.392H331.771C333.21 497.392 334.23 497.114 334.834 496.558C335.444 495.995 335.749 495.315 335.749 494.516C335.749 493.9 335.592 493.332 335.278 492.811C334.964 492.284 334.518 491.864 333.938 491.551C333.357 491.231 332.671 491.071 331.878 491.071H327.403V497.392ZM327.403 489.154H331.487C332.15 489.154 332.748 489.023 333.281 488.763C333.819 488.503 334.245 488.136 334.559 487.662C334.879 487.189 335.038 486.632 335.038 485.993C335.038 485.194 334.76 484.516 334.204 483.96C333.647 483.398 332.766 483.117 331.558 483.117H327.403V489.154ZM345.19 499.665C344.326 499.665 343.542 499.502 342.838 499.177C342.133 498.845 341.574 498.369 341.16 497.747C340.745 497.12 340.538 496.362 340.538 495.475C340.538 494.693 340.692 494.06 341 493.575C341.308 493.083 341.719 492.699 342.234 492.421C342.749 492.142 343.317 491.935 343.938 491.799C344.566 491.657 345.196 491.545 345.829 491.462C346.658 491.355 347.33 491.275 347.845 491.222C348.365 491.163 348.744 491.065 348.981 490.929C349.224 490.793 349.345 490.556 349.345 490.219V490.148C349.345 489.272 349.105 488.591 348.626 488.106C348.152 487.621 347.433 487.378 346.469 487.378C345.468 487.378 344.684 487.597 344.116 488.035C343.548 488.473 343.148 488.941 342.917 489.438L340.929 488.727C341.284 487.899 341.757 487.254 342.349 486.792C342.947 486.325 343.598 485.999 344.302 485.816C345.013 485.626 345.711 485.531 346.398 485.531C346.836 485.531 347.339 485.585 347.907 485.691C348.481 485.792 349.034 486.002 349.567 486.322C350.106 486.641 350.552 487.124 350.907 487.769C351.263 488.414 351.44 489.278 351.44 490.361V499.345H349.345V497.499H349.238C349.096 497.795 348.86 498.111 348.528 498.449C348.197 498.786 347.756 499.073 347.205 499.31C346.655 499.547 345.983 499.665 345.19 499.665ZM345.51 497.783C346.338 497.783 347.037 497.62 347.605 497.295C348.179 496.969 348.611 496.549 348.901 496.034C349.197 495.519 349.345 494.977 349.345 494.409V492.492C349.256 492.598 349.061 492.696 348.759 492.785C348.463 492.867 348.12 492.941 347.729 493.007C347.345 493.066 346.969 493.119 346.602 493.166C346.241 493.208 345.948 493.243 345.723 493.273C345.178 493.344 344.669 493.459 344.196 493.619C343.728 493.773 343.349 494.007 343.059 494.32C342.775 494.628 342.633 495.048 342.633 495.581C342.633 496.309 342.903 496.86 343.441 497.232C343.986 497.599 344.675 497.783 345.51 497.783ZM355.264 499.345V485.709H357.288V487.769H357.43C357.679 487.094 358.129 486.546 358.78 486.126C359.431 485.706 360.165 485.496 360.982 485.496C361.136 485.496 361.328 485.499 361.559 485.505C361.79 485.511 361.964 485.52 362.082 485.531V487.662C362.011 487.644 361.849 487.618 361.594 487.582C361.346 487.541 361.082 487.52 360.804 487.52C360.141 487.52 359.549 487.659 359.028 487.937C358.514 488.21 358.105 488.588 357.803 489.074C357.507 489.553 357.359 490.101 357.359 490.716V499.345H355.264ZM371.881 499.345V481.164H374.083V489.26H383.778V481.164H385.979V499.345H383.778V491.213H374.083V499.345H371.881ZM394.116 499.665C393.252 499.665 392.468 499.502 391.763 499.177C391.059 498.845 390.5 498.369 390.085 497.747C389.671 497.12 389.464 496.362 389.464 495.475C389.464 494.693 389.618 494.06 389.926 493.575C390.233 493.083 390.645 492.699 391.16 492.421C391.675 492.142 392.243 491.935 392.864 491.799C393.492 491.657 394.122 491.545 394.755 491.462C395.584 491.355 396.256 491.275 396.77 491.222C397.291 491.163 397.67 491.065 397.907 490.929C398.149 490.793 398.271 490.556 398.271 490.219V490.148C398.271 489.272 398.031 488.591 397.552 488.106C397.078 487.621 396.359 487.378 395.394 487.378C394.394 487.378 393.61 487.597 393.042 488.035C392.474 488.473 392.074 488.941 391.843 489.438L389.855 488.727C390.21 487.899 390.683 487.254 391.275 486.792C391.873 486.325 392.524 485.999 393.228 485.816C393.938 485.626 394.637 485.531 395.323 485.531C395.761 485.531 396.264 485.585 396.833 485.691C397.407 485.792 397.96 486.002 398.493 486.322C399.031 486.641 399.478 487.124 399.833 487.769C400.188 488.414 400.366 489.278 400.366 490.361V499.345H398.271V497.499H398.164C398.022 497.795 397.785 498.111 397.454 498.449C397.123 498.786 396.682 499.073 396.131 499.31C395.581 499.547 394.909 499.665 394.116 499.665ZM394.436 497.783C395.264 497.783 395.963 497.62 396.531 497.295C397.105 496.969 397.537 496.549 397.827 496.034C398.123 495.519 398.271 494.977 398.271 494.409V492.492C398.182 492.598 397.987 492.696 397.685 492.785C397.389 492.867 397.046 492.941 396.655 493.007C396.27 493.066 395.894 493.119 395.528 493.166C395.166 493.208 394.874 493.243 394.649 493.273C394.104 493.344 393.595 493.459 393.122 493.619C392.654 493.773 392.275 494.007 391.985 494.32C391.701 494.628 391.559 495.048 391.559 495.581C391.559 496.309 391.828 496.86 392.367 497.232C392.912 497.599 393.601 497.783 394.436 497.783ZM404.19 499.345V485.709H406.214V487.769H406.356C406.605 487.094 407.055 486.546 407.706 486.126C408.357 485.706 409.091 485.496 409.907 485.496C410.061 485.496 410.254 485.499 410.484 485.505C410.715 485.511 410.89 485.52 411.008 485.531V487.662C410.937 487.644 410.774 487.618 410.52 487.582C410.271 487.541 410.008 487.52 409.73 487.52C409.067 487.52 408.475 487.659 407.954 487.937C407.439 488.21 407.031 488.588 406.729 489.074C406.433 489.553 406.285 490.101 406.285 490.716V499.345H404.19ZM413.776 499.345V481.164H415.871V487.875H416.049C416.203 487.638 416.416 487.337 416.688 486.97C416.966 486.597 417.363 486.265 417.877 485.975C418.398 485.679 419.103 485.531 419.99 485.531C421.139 485.531 422.151 485.818 423.027 486.393C423.903 486.967 424.586 487.78 425.077 488.834C425.569 489.887 425.814 491.13 425.814 492.563C425.814 494.007 425.569 495.259 425.077 496.318C424.586 497.371 423.906 498.188 423.036 498.768C422.165 499.342 421.162 499.629 420.026 499.629C419.15 499.629 418.449 499.484 417.922 499.194C417.395 498.898 416.99 498.564 416.706 498.191C416.422 497.812 416.203 497.499 416.049 497.25H415.8V499.345H413.776ZM415.836 492.527C415.836 493.557 415.987 494.465 416.288 495.253C416.59 496.034 417.031 496.646 417.611 497.09C418.191 497.528 418.901 497.747 419.742 497.747C420.618 497.747 421.349 497.517 421.935 497.055C422.527 496.587 422.97 495.96 423.266 495.173C423.568 494.38 423.719 493.498 423.719 492.527C423.719 491.568 423.571 490.704 423.275 489.935C422.985 489.159 422.544 488.547 421.952 488.097C421.366 487.641 420.63 487.414 419.742 487.414C418.89 487.414 418.173 487.63 417.593 488.062C417.013 488.488 416.575 489.086 416.279 489.855C415.984 490.618 415.836 491.509 415.836 492.527ZM434.559 499.629C433.328 499.629 432.248 499.336 431.319 498.751C430.395 498.165 429.673 497.345 429.152 496.291C428.637 495.238 428.38 494.007 428.38 492.598C428.38 491.178 428.637 489.938 429.152 488.878C429.673 487.819 430.395 486.996 431.319 486.41C432.248 485.824 433.328 485.531 434.559 485.531C435.79 485.531 436.867 485.824 437.79 486.41C438.72 486.996 439.442 487.819 439.957 488.878C440.478 489.938 440.738 491.178 440.738 492.598C440.738 494.007 440.478 495.238 439.957 496.291C439.442 497.345 438.72 498.165 437.79 498.751C436.867 499.336 435.79 499.629 434.559 499.629ZM434.559 497.747C435.494 497.747 436.263 497.508 436.867 497.028C437.471 496.549 437.918 495.918 438.208 495.137C438.498 494.356 438.643 493.51 438.643 492.598C438.643 491.687 438.498 490.837 438.208 490.05C437.918 489.263 437.471 488.627 436.867 488.142C436.263 487.656 435.494 487.414 434.559 487.414C433.624 487.414 432.854 487.656 432.251 488.142C431.647 488.627 431.2 489.263 430.91 490.05C430.62 490.837 430.475 491.687 430.475 492.598C430.475 493.51 430.62 494.356 430.91 495.137C431.2 495.918 431.647 496.549 432.251 497.028C432.854 497.508 433.624 497.747 434.559 497.747ZM443.936 499.345V485.709H445.96V487.769H446.102C446.351 487.094 446.801 486.546 447.452 486.126C448.103 485.706 448.837 485.496 449.653 485.496C449.807 485.496 450 485.499 450.231 485.505C450.461 485.511 450.636 485.52 450.754 485.531V487.662C450.683 487.644 450.521 487.618 450.266 487.582C450.017 487.541 449.754 487.52 449.476 487.52C448.813 487.52 448.221 487.659 447.7 487.937C447.185 488.21 446.777 488.588 446.475 489.074C446.179 489.553 446.031 490.101 446.031 490.716V499.345H443.936Z" fill="black"/>
<path d="M129.504 467.345L124.533 449.164H126.77L130.57 463.972H130.747L134.618 449.164H137.104L140.974 463.972H141.152L144.952 449.164H147.189L142.217 467.345H139.945L135.932 452.857H135.79L131.777 467.345H129.504ZM152.391 467.665C151.527 467.665 150.743 467.502 150.039 467.177C149.334 466.845 148.775 466.369 148.361 465.747C147.946 465.12 147.739 464.362 147.739 463.475C147.739 462.693 147.893 462.06 148.201 461.575C148.509 461.083 148.92 460.699 149.435 460.421C149.95 460.142 150.518 459.935 151.14 459.799C151.767 459.657 152.397 459.545 153.031 459.462C153.859 459.355 154.531 459.275 155.046 459.222C155.567 459.163 155.945 459.065 156.182 458.929C156.425 458.793 156.546 458.556 156.546 458.219V458.148C156.546 457.272 156.306 456.591 155.827 456.106C155.354 455.621 154.634 455.378 153.67 455.378C152.67 455.378 151.885 455.597 151.317 456.035C150.749 456.473 150.349 456.941 150.119 457.438L148.13 456.727C148.485 455.899 148.959 455.254 149.55 454.792C150.148 454.325 150.799 453.999 151.504 453.816C152.214 453.626 152.912 453.531 153.599 453.531C154.037 453.531 154.54 453.585 155.108 453.691C155.682 453.792 156.235 454.002 156.768 454.322C157.307 454.641 157.754 455.124 158.109 455.769C158.464 456.414 158.641 457.278 158.641 458.361V467.345H156.546V465.499H156.44C156.298 465.795 156.061 466.111 155.729 466.449C155.398 466.786 154.957 467.073 154.407 467.31C153.856 467.547 153.184 467.665 152.391 467.665ZM152.711 465.783C153.54 465.783 154.238 465.62 154.806 465.295C155.38 464.969 155.812 464.549 156.102 464.034C156.398 463.519 156.546 462.977 156.546 462.409V460.492C156.457 460.598 156.262 460.696 155.96 460.785C155.664 460.867 155.321 460.941 154.93 461.007C154.546 461.066 154.17 461.119 153.803 461.166C153.442 461.208 153.149 461.243 152.924 461.273C152.379 461.344 151.871 461.459 151.397 461.619C150.929 461.773 150.551 462.007 150.261 462.32C149.977 462.628 149.835 463.048 149.835 463.581C149.835 464.309 150.104 464.86 150.642 465.232C151.187 465.599 151.876 465.783 152.711 465.783ZM168.396 453.709V455.485H161.329V453.709H168.396ZM163.389 450.442H165.484V463.439C165.484 464.031 165.57 464.475 165.741 464.771C165.919 465.061 166.144 465.256 166.416 465.357C166.694 465.451 166.987 465.499 167.295 465.499C167.526 465.499 167.715 465.487 167.863 465.463C168.011 465.434 168.13 465.41 168.218 465.392L168.644 467.274C168.502 467.328 168.304 467.381 168.05 467.434C167.795 467.493 167.473 467.523 167.082 467.523C166.49 467.523 165.91 467.396 165.342 467.141C164.78 466.887 164.312 466.499 163.939 465.978C163.572 465.457 163.389 464.8 163.389 464.007V450.442ZM177.118 467.629C175.804 467.629 174.671 467.339 173.718 466.759C172.771 466.173 172.04 465.357 171.525 464.309C171.016 463.256 170.762 462.03 170.762 460.634C170.762 459.237 171.016 458.006 171.525 456.941C172.04 455.869 172.756 455.035 173.674 454.437C174.597 453.833 175.674 453.531 176.905 453.531C177.616 453.531 178.317 453.65 179.009 453.887C179.702 454.123 180.332 454.508 180.9 455.041C181.468 455.567 181.921 456.266 182.259 457.136C182.596 458.006 182.765 459.077 182.765 460.35V461.237H172.253V459.426H180.634C180.634 458.657 180.48 457.97 180.172 457.367C179.87 456.763 179.438 456.287 178.876 455.937C178.32 455.588 177.663 455.414 176.905 455.414C176.071 455.414 175.349 455.621 174.739 456.035C174.135 456.443 173.671 456.976 173.345 457.633C173.02 458.29 172.857 458.994 172.857 459.746V460.953C172.857 461.983 173.035 462.856 173.39 463.572C173.751 464.282 174.251 464.824 174.89 465.197C175.529 465.564 176.272 465.747 177.118 465.747C177.669 465.747 178.166 465.67 178.61 465.517C179.06 465.357 179.447 465.12 179.773 464.806C180.098 464.487 180.35 464.09 180.527 463.617L182.552 464.185C182.339 464.871 181.98 465.475 181.477 465.996C180.974 466.511 180.353 466.913 179.613 467.203C178.873 467.487 178.042 467.629 177.118 467.629ZM185.952 467.345V453.709H187.976V455.769H188.118C188.367 455.094 188.816 454.546 189.467 454.126C190.118 453.706 190.852 453.496 191.669 453.496C191.823 453.496 192.015 453.499 192.246 453.505C192.477 453.511 192.652 453.52 192.77 453.531V455.662C192.699 455.644 192.536 455.618 192.282 455.582C192.033 455.541 191.77 455.52 191.492 455.52C190.829 455.52 190.237 455.659 189.716 455.937C189.201 456.21 188.793 456.588 188.491 457.074C188.195 457.553 188.047 458.101 188.047 458.716V467.345H185.952ZM206.819 453.709L201.777 467.345H199.646L194.603 453.709H196.876L200.64 464.575H200.782L204.546 453.709H206.819ZM209.585 467.345V453.709H211.68V467.345H209.585ZM210.65 451.436C210.242 451.436 209.889 451.297 209.593 451.019C209.303 450.741 209.158 450.406 209.158 450.016C209.158 449.625 209.303 449.291 209.593 449.013C209.889 448.734 210.242 448.595 210.65 448.595C211.058 448.595 211.408 448.734 211.698 449.013C211.993 449.291 212.141 449.625 212.141 450.016C212.141 450.406 211.993 450.741 211.698 451.019C211.408 451.297 211.058 451.436 210.65 451.436ZM217.612 449.164V467.345H215.517V449.164H217.612ZM223.545 449.164V467.345H221.45V449.164H223.545ZM233.1 467.629C231.786 467.629 230.652 467.339 229.7 466.759C228.753 466.173 228.022 465.357 227.507 464.309C226.998 463.256 226.743 462.03 226.743 460.634C226.743 459.237 226.998 458.006 227.507 456.941C228.022 455.869 228.738 455.035 229.655 454.437C230.578 453.833 231.656 453.531 232.887 453.531C233.597 453.531 234.298 453.65 234.991 453.887C235.683 454.123 236.314 454.508 236.882 455.041C237.45 455.567 237.903 456.266 238.24 457.136C238.577 458.006 238.746 459.077 238.746 460.35V461.237H228.235V459.426H236.615C236.615 458.657 236.462 457.97 236.154 457.367C235.852 456.763 235.42 456.287 234.858 455.937C234.301 455.588 233.644 455.414 232.887 455.414C232.052 455.414 231.33 455.621 230.721 456.035C230.117 456.443 229.652 456.976 229.327 457.633C229.001 458.29 228.838 458.994 228.838 459.746V460.953C228.838 461.983 229.016 462.856 229.371 463.572C229.732 464.282 230.232 464.824 230.871 465.197C231.511 465.564 232.253 465.747 233.1 465.747C233.65 465.747 234.147 465.67 234.591 465.517C235.041 465.357 235.429 465.12 235.754 464.806C236.08 464.487 236.331 464.09 236.509 463.617L238.533 464.185C238.32 464.871 237.962 465.475 237.459 465.996C236.956 466.511 236.334 466.913 235.594 467.203C234.855 467.487 234.023 467.629 233.1 467.629Z" fill="black"/>
<path d="M273.202 431.345V413.164H279.558C280.825 413.164 281.869 413.383 282.692 413.82C283.515 414.253 284.127 414.836 284.53 415.569C284.932 416.297 285.134 417.105 285.134 417.993C285.134 418.774 284.994 419.419 284.716 419.928C284.444 420.437 284.083 420.84 283.633 421.136C283.189 421.432 282.707 421.651 282.186 421.793V421.97C282.742 422.006 283.302 422.201 283.864 422.556C284.426 422.911 284.897 423.42 285.276 424.083C285.654 424.746 285.844 425.557 285.844 426.516C285.844 427.427 285.637 428.247 285.222 428.975C284.808 429.703 284.154 430.28 283.26 430.706C282.367 431.132 281.204 431.345 279.771 431.345H273.202ZM275.403 429.392H279.771C281.21 429.392 282.23 429.114 282.834 428.558C283.444 427.995 283.749 427.315 283.749 426.516C283.749 425.9 283.592 425.332 283.278 424.811C282.964 424.284 282.518 423.864 281.938 423.551C281.357 423.231 280.671 423.071 279.878 423.071H275.403V429.392ZM275.403 421.154H279.487C280.15 421.154 280.748 421.023 281.281 420.763C281.819 420.503 282.245 420.136 282.559 419.662C282.879 419.189 283.038 418.632 283.038 417.993C283.038 417.194 282.76 416.516 282.204 415.96C281.647 415.398 280.766 415.117 279.558 415.117H275.403V421.154ZM293.19 431.665C292.326 431.665 291.542 431.502 290.838 431.177C290.133 430.845 289.574 430.369 289.16 429.747C288.745 429.12 288.538 428.362 288.538 427.475C288.538 426.693 288.692 426.06 289 425.575C289.308 425.083 289.719 424.699 290.234 424.421C290.749 424.142 291.317 423.935 291.938 423.799C292.566 423.657 293.196 423.545 293.829 423.462C294.658 423.355 295.33 423.275 295.845 423.222C296.365 423.163 296.744 423.065 296.981 422.929C297.224 422.793 297.345 422.556 297.345 422.219V422.148C297.345 421.272 297.105 420.591 296.626 420.106C296.152 419.621 295.433 419.378 294.469 419.378C293.468 419.378 292.684 419.597 292.116 420.035C291.548 420.473 291.148 420.941 290.917 421.438L288.929 420.727C289.284 419.899 289.757 419.254 290.349 418.792C290.947 418.325 291.598 417.999 292.302 417.816C293.013 417.626 293.711 417.531 294.398 417.531C294.836 417.531 295.339 417.585 295.907 417.691C296.481 417.792 297.034 418.002 297.567 418.322C298.106 418.641 298.552 419.124 298.907 419.769C299.263 420.414 299.44 421.278 299.44 422.361V431.345H297.345V429.499H297.238C297.096 429.795 296.86 430.111 296.528 430.449C296.197 430.786 295.756 431.073 295.205 431.31C294.655 431.547 293.983 431.665 293.19 431.665ZM293.51 429.783C294.338 429.783 295.037 429.62 295.605 429.295C296.179 428.969 296.611 428.549 296.901 428.034C297.197 427.519 297.345 426.977 297.345 426.409V424.492C297.256 424.598 297.061 424.696 296.759 424.785C296.463 424.867 296.12 424.941 295.729 425.007C295.345 425.066 294.969 425.119 294.602 425.166C294.241 425.208 293.948 425.243 293.723 425.273C293.178 425.344 292.669 425.459 292.196 425.619C291.728 425.773 291.349 426.007 291.059 426.32C290.775 426.628 290.633 427.048 290.633 427.581C290.633 428.309 290.903 428.86 291.441 429.232C291.986 429.599 292.675 429.783 293.51 429.783ZM305.359 423.142V431.345H303.264V417.709H305.288V419.84H305.466C305.786 419.147 306.271 418.591 306.922 418.171C307.573 417.744 308.413 417.531 309.443 417.531C310.367 417.531 311.174 417.721 311.867 418.1C312.559 418.472 313.098 419.041 313.483 419.804C313.867 420.562 314.06 421.521 314.06 422.681V431.345H311.965V422.823C311.965 421.751 311.686 420.917 311.13 420.319C310.574 419.715 309.81 419.414 308.84 419.414C308.171 419.414 307.573 419.559 307.046 419.849C306.525 420.139 306.114 420.562 305.812 421.118C305.51 421.674 305.359 422.349 305.359 423.142ZM323.393 436.743C322.381 436.743 321.51 436.613 320.782 436.352C320.055 436.098 319.448 435.761 318.963 435.34C318.483 434.926 318.101 434.482 317.817 434.009L319.486 432.837C319.676 433.085 319.915 433.369 320.205 433.689C320.495 434.015 320.892 434.296 321.395 434.532C321.904 434.775 322.57 434.896 323.393 434.896C324.493 434.896 325.402 434.63 326.118 434.097C326.834 433.565 327.192 432.73 327.192 431.594V428.824H327.015C326.861 429.073 326.642 429.38 326.358 429.747C326.08 430.108 325.677 430.431 325.15 430.715C324.63 430.993 323.925 431.132 323.037 431.132C321.937 431.132 320.948 430.872 320.072 430.351C319.202 429.83 318.513 429.073 318.004 428.078C317.501 427.084 317.249 425.877 317.249 424.456C317.249 423.059 317.495 421.843 317.986 420.807C318.477 419.766 319.161 418.961 320.037 418.393C320.913 417.818 321.925 417.531 323.073 417.531C323.961 417.531 324.665 417.679 325.186 417.975C325.713 418.265 326.115 418.597 326.393 418.97C326.677 419.337 326.896 419.638 327.05 419.875H327.263V417.709H329.287V431.736C329.287 432.908 329.021 433.861 328.488 434.595C327.962 435.334 327.251 435.876 326.358 436.219C325.47 436.568 324.482 436.743 323.393 436.743ZM323.322 429.25C324.162 429.25 324.872 429.058 325.452 428.673C326.032 428.288 326.473 427.735 326.775 427.013C327.077 426.291 327.228 425.427 327.228 424.421C327.228 423.438 327.08 422.571 326.784 421.819C326.488 421.068 326.05 420.479 325.47 420.053C324.89 419.627 324.174 419.414 323.322 419.414C322.434 419.414 321.694 419.638 321.102 420.088C320.516 420.538 320.075 421.142 319.779 421.899C319.489 422.657 319.344 423.497 319.344 424.421C319.344 425.368 319.492 426.205 319.788 426.933C320.09 427.655 320.534 428.223 321.12 428.638C321.712 429.046 322.446 429.25 323.322 429.25ZM338.662 431.629C337.431 431.629 336.351 431.336 335.422 430.751C334.499 430.165 333.777 429.345 333.256 428.291C332.741 427.238 332.483 426.007 332.483 424.598C332.483 423.178 332.741 421.938 333.256 420.878C333.777 419.819 334.499 418.996 335.422 418.41C336.351 417.824 337.431 417.531 338.662 417.531C339.894 417.531 340.971 417.824 341.894 418.41C342.823 418.996 343.545 419.819 344.06 420.878C344.581 421.938 344.841 423.178 344.841 424.598C344.841 426.007 344.581 427.238 344.06 428.291C343.545 429.345 342.823 430.165 341.894 430.751C340.971 431.336 339.894 431.629 338.662 431.629ZM338.662 429.747C339.598 429.747 340.367 429.508 340.971 429.028C341.574 428.549 342.021 427.918 342.311 427.137C342.601 426.356 342.746 425.51 342.746 424.598C342.746 423.687 342.601 422.837 342.311 422.05C342.021 421.263 341.574 420.627 340.971 420.142C340.367 419.656 339.598 419.414 338.662 419.414C337.727 419.414 336.958 419.656 336.354 420.142C335.751 420.627 335.304 421.263 335.014 422.05C334.724 422.837 334.579 423.687 334.579 424.598C334.579 425.51 334.724 426.356 335.014 427.137C335.304 427.918 335.751 428.549 336.354 429.028C336.958 429.508 337.727 429.747 338.662 429.747ZM348.04 431.345V417.709H350.064V419.769H350.206C350.454 419.094 350.904 418.546 351.555 418.126C352.206 417.706 352.94 417.496 353.757 417.496C353.911 417.496 354.103 417.499 354.334 417.505C354.565 417.511 354.739 417.52 354.858 417.531V419.662C354.787 419.644 354.624 419.618 354.37 419.582C354.121 419.541 353.858 419.52 353.579 419.52C352.917 419.52 352.325 419.659 351.804 419.937C351.289 420.21 350.881 420.588 350.579 421.074C350.283 421.553 350.135 422.101 350.135 422.716V431.345H348.04Z" fill="black"/>
<circle cx="195.511" cy="527.857" r="9.01136" fill="#FF8F87" stroke="black"/>
<path d="M155.714 557.345H151.595L157.871 539.164H162.825L169.093 557.345H164.974L160.419 543.318H160.277L155.714 557.345ZM155.457 550.199H165.187V553.199H155.457V550.199ZM179.955 551.539V543.709H183.737V557.345H180.106V554.868H179.964C179.656 555.667 179.144 556.31 178.428 556.795C177.718 557.28 176.851 557.523 175.827 557.523C174.915 557.523 174.113 557.316 173.421 556.901C172.729 556.487 172.187 555.898 171.796 555.135C171.412 554.371 171.216 553.457 171.21 552.392V543.709H174.992V551.717C174.998 552.522 175.214 553.158 175.64 553.626C176.067 554.093 176.638 554.327 177.354 554.327C177.81 554.327 178.236 554.223 178.632 554.016C179.029 553.803 179.348 553.489 179.591 553.075C179.84 552.661 179.961 552.149 179.955 551.539ZM192.906 562.743C191.68 562.743 190.63 562.574 189.754 562.237C188.884 561.906 188.191 561.453 187.677 560.879C187.162 560.305 186.827 559.659 186.673 558.943L190.171 558.473C190.278 558.745 190.446 559 190.677 559.236C190.908 559.473 191.213 559.662 191.592 559.804C191.976 559.952 192.444 560.026 192.994 560.026C193.817 560.026 194.495 559.825 195.027 559.423C195.566 559.026 195.835 558.36 195.835 557.425V554.931H195.676C195.51 555.309 195.261 555.667 194.93 556.005C194.598 556.342 194.172 556.617 193.651 556.83C193.131 557.043 192.509 557.15 191.787 557.15C190.763 557.15 189.831 556.913 188.991 556.44C188.156 555.96 187.49 555.229 186.993 554.247C186.502 553.259 186.256 552.01 186.256 550.501C186.256 548.956 186.508 547.666 187.011 546.63C187.514 545.594 188.183 544.819 189.017 544.304C189.858 543.789 190.778 543.531 191.778 543.531C192.542 543.531 193.181 543.662 193.696 543.922C194.211 544.177 194.625 544.496 194.939 544.881C195.258 545.26 195.504 545.633 195.676 545.999H195.818V543.709H199.573V557.479C199.573 558.639 199.289 559.609 198.721 560.39C198.152 561.172 197.365 561.758 196.359 562.148C195.359 562.545 194.208 562.743 192.906 562.743ZM192.986 554.309C193.595 554.309 194.11 554.158 194.53 553.856C194.956 553.549 195.282 553.111 195.507 552.542C195.738 551.968 195.853 551.282 195.853 550.483C195.853 549.684 195.741 548.991 195.516 548.405C195.291 547.813 194.965 547.355 194.539 547.029C194.113 546.704 193.595 546.541 192.986 546.541C192.364 546.541 191.84 546.71 191.414 547.047C190.988 547.378 190.665 547.84 190.446 548.432C190.227 549.024 190.118 549.707 190.118 550.483C190.118 551.27 190.227 551.951 190.446 552.525C190.671 553.093 190.994 553.534 191.414 553.847C191.84 554.155 192.364 554.309 192.986 554.309ZM211.327 551.539V543.709H215.109V557.345H211.478V554.868H211.336C211.028 555.667 210.516 556.31 209.8 556.795C209.09 557.28 208.223 557.523 207.199 557.523C206.287 557.523 205.486 557.316 204.793 556.901C204.101 556.487 203.559 555.898 203.168 555.135C202.784 554.371 202.588 553.457 202.582 552.392V543.709H206.364V551.717C206.37 552.522 206.586 553.158 207.013 553.626C207.439 554.093 208.01 554.327 208.726 554.327C209.182 554.327 209.608 554.223 210.004 554.016C210.401 553.803 210.72 553.489 210.963 553.075C211.212 552.661 211.333 552.149 211.327 551.539ZM229.48 547.597L226.018 547.811C225.959 547.515 225.831 547.248 225.636 547.012C225.441 546.769 225.183 546.577 224.864 546.434C224.55 546.287 224.174 546.213 223.736 546.213C223.15 546.213 222.656 546.337 222.254 546.585C221.851 546.828 221.65 547.154 221.65 547.562C221.65 547.887 221.78 548.163 222.04 548.388C222.301 548.613 222.748 548.793 223.381 548.929L225.849 549.426C227.175 549.699 228.163 550.137 228.814 550.74C229.465 551.344 229.791 552.137 229.791 553.119C229.791 554.013 229.527 554.797 229.001 555.472C228.48 556.147 227.764 556.674 226.852 557.052C225.947 557.425 224.902 557.612 223.718 557.612C221.913 557.612 220.475 557.236 219.404 556.484C218.338 555.727 217.714 554.697 217.531 553.395L221.25 553.199C221.363 553.75 221.635 554.17 222.067 554.46C222.499 554.744 223.053 554.886 223.727 554.886C224.39 554.886 224.923 554.759 225.325 554.504C225.734 554.244 225.941 553.91 225.947 553.501C225.941 553.158 225.796 552.877 225.512 552.658C225.228 552.433 224.79 552.261 224.198 552.143L221.836 551.672C220.505 551.406 219.513 550.944 218.862 550.287C218.217 549.63 217.895 548.793 217.895 547.775C217.895 546.899 218.131 546.144 218.605 545.511C219.084 544.878 219.756 544.39 220.62 544.046C221.49 543.703 222.508 543.531 223.674 543.531C225.396 543.531 226.752 543.895 227.74 544.623C228.734 545.351 229.314 546.343 229.48 547.597ZM239.426 543.709V546.55H231.214V543.709H239.426ZM233.078 540.442H236.86V553.155C236.86 553.504 236.913 553.776 237.02 553.972C237.126 554.161 237.274 554.294 237.464 554.371C237.659 554.448 237.884 554.487 238.138 554.487C238.316 554.487 238.493 554.472 238.671 554.442C238.848 554.407 238.985 554.38 239.079 554.362L239.674 557.177C239.485 557.236 239.218 557.304 238.875 557.381C238.532 557.464 238.115 557.514 237.623 557.532C236.712 557.567 235.913 557.446 235.226 557.168C234.546 556.89 234.016 556.458 233.637 555.872C233.258 555.286 233.072 554.546 233.078 553.652V540.442ZM245.778 557.603C244.908 557.603 244.132 557.452 243.452 557.15C242.771 556.842 242.232 556.389 241.836 555.792C241.445 555.188 241.25 554.436 241.25 553.537C241.25 552.779 241.389 552.143 241.667 551.628C241.945 551.113 242.324 550.699 242.804 550.385C243.283 550.071 243.827 549.835 244.437 549.675C245.053 549.515 245.698 549.403 246.372 549.338C247.166 549.255 247.805 549.178 248.29 549.107C248.775 549.03 249.128 548.917 249.347 548.769C249.565 548.621 249.675 548.402 249.675 548.112V548.059C249.675 547.497 249.497 547.062 249.142 546.754C248.793 546.446 248.296 546.292 247.651 546.292C246.97 546.292 246.429 546.443 246.026 546.745C245.624 547.041 245.357 547.414 245.227 547.864L241.729 547.58C241.907 546.751 242.256 546.035 242.777 545.431C243.298 544.822 243.969 544.354 244.792 544.029C245.621 543.697 246.58 543.531 247.669 543.531C248.426 543.531 249.151 543.62 249.844 543.798C250.542 543.975 251.161 544.251 251.699 544.623C252.244 544.996 252.673 545.476 252.986 546.062C253.3 546.642 253.457 547.337 253.457 548.148V557.345H249.87V555.454H249.764C249.545 555.88 249.252 556.256 248.885 556.582C248.518 556.901 248.077 557.153 247.562 557.336C247.047 557.514 246.452 557.603 245.778 557.603ZM246.861 554.993C247.417 554.993 247.908 554.883 248.334 554.664C248.761 554.439 249.095 554.137 249.338 553.759C249.58 553.38 249.702 552.951 249.702 552.471V551.024C249.583 551.101 249.42 551.172 249.213 551.237C249.012 551.297 248.784 551.353 248.53 551.406C248.275 551.453 248.021 551.498 247.766 551.539C247.512 551.575 247.281 551.607 247.074 551.637C246.63 551.702 246.242 551.806 245.911 551.948C245.579 552.09 245.322 552.282 245.138 552.525C244.955 552.761 244.863 553.057 244.863 553.412C244.863 553.927 245.05 554.321 245.422 554.593C245.801 554.86 246.281 554.993 246.861 554.993Z" fill="black"/>
</svg>
