<svg width="522" height="732" viewBox="0 0 522 732" fill="none" xmlns="http://www.w3.org/2000/svg">
<path d="M56.6619 165.435H53.4744C53.3835 164.912 53.2159 164.449 52.9716 164.045C52.7273 163.636 52.4233 163.29 52.0597 163.006C51.696 162.722 51.2813 162.509 50.8153 162.366C50.3551 162.219 49.858 162.145 49.3239 162.145C48.375 162.145 47.5341 162.384 46.8011 162.861C46.0682 163.332 45.4943 164.026 45.0795 164.94C44.6648 165.849 44.4574 166.96 44.4574 168.273C44.4574 169.608 44.6648 170.733 45.0795 171.648C45.5 172.557 46.0739 173.244 46.8011 173.71C47.5341 174.17 48.3722 174.401 49.3153 174.401C49.8381 174.401 50.3267 174.332 50.7812 174.196C51.2415 174.054 51.6534 173.847 52.017 173.574C52.3864 173.301 52.696 172.966 52.946 172.568C53.2017 172.17 53.3778 171.716 53.4744 171.205L56.6619 171.222C56.5426 172.051 56.2841 172.83 55.8864 173.557C55.4943 174.284 54.9801 174.926 54.3438 175.483C53.7074 176.034 52.9631 176.466 52.1108 176.778C51.2585 177.085 50.3125 177.239 49.2727 177.239C47.7386 177.239 46.3693 176.884 45.1648 176.173C43.9602 175.463 43.0114 174.438 42.3182 173.097C41.625 171.756 41.2784 170.148 41.2784 168.273C41.2784 166.392 41.6278 164.784 42.3267 163.449C43.0256 162.108 43.9773 161.082 45.1818 160.372C46.3864 159.662 47.75 159.307 49.2727 159.307C50.2443 159.307 51.1477 159.443 51.983 159.716C52.8182 159.989 53.5625 160.389 54.2159 160.918C54.8693 161.44 55.4063 162.082 55.8267 162.844C56.2528 163.599 56.5313 164.463 56.6619 165.435ZM63.1882 177.264C62.3587 177.264 61.6115 177.116 60.9467 176.821C60.2876 176.52 59.7649 176.077 59.3786 175.491C58.9979 174.906 58.8075 174.185 58.8075 173.327C58.8075 172.588 58.9439 171.977 59.2166 171.494C59.4893 171.011 59.8615 170.625 60.3331 170.335C60.8047 170.045 61.3359 169.827 61.9268 169.679C62.5234 169.526 63.1399 169.415 63.7763 169.347C64.5433 169.267 65.1655 169.196 65.6428 169.134C66.12 169.065 66.4666 168.963 66.6825 168.827C66.9041 168.685 67.0149 168.466 67.0149 168.17V168.119C67.0149 167.477 66.8246 166.98 66.4439 166.628C66.0632 166.276 65.5149 166.099 64.799 166.099C64.0433 166.099 63.4439 166.264 63.0007 166.594C62.5632 166.923 62.2678 167.312 62.1143 167.761L59.2337 167.352C59.4609 166.557 59.8359 165.892 60.3587 165.358C60.8814 164.818 61.5206 164.415 62.2763 164.148C63.032 163.875 63.8672 163.739 64.782 163.739C65.4126 163.739 66.0405 163.812 66.6655 163.96C67.2905 164.108 67.8615 164.352 68.3786 164.693C68.8956 165.028 69.3104 165.486 69.6229 166.065C69.9411 166.645 70.1001 167.369 70.1001 168.239V177H67.1342V175.202H67.032C66.8445 175.565 66.5803 175.906 66.2393 176.224C65.9041 176.537 65.4808 176.79 64.9695 176.983C64.4638 177.17 63.87 177.264 63.1882 177.264ZM63.9893 174.997C64.6087 174.997 65.1456 174.875 65.6001 174.631C66.0547 174.381 66.4041 174.051 66.6484 173.642C66.8984 173.233 67.0234 172.787 67.0234 172.304V170.761C66.9268 170.841 66.7621 170.915 66.5291 170.983C66.3018 171.051 66.0462 171.111 65.7621 171.162C65.478 171.213 65.1967 171.259 64.9183 171.298C64.6399 171.338 64.3984 171.372 64.1939 171.401C63.7337 171.463 63.3217 171.565 62.9581 171.707C62.5945 171.849 62.3075 172.048 62.0973 172.304C61.8871 172.554 61.782 172.878 61.782 173.276C61.782 173.844 61.9893 174.273 62.4041 174.562C62.8189 174.852 63.3473 174.997 63.9893 174.997ZM76.2876 169.33V177H73.2024V163.909H76.1513V166.134H76.3047C76.6058 165.401 77.0859 164.818 77.745 164.386C78.4098 163.955 79.2308 163.739 80.2081 163.739C81.1115 163.739 81.8984 163.932 82.5689 164.318C83.245 164.705 83.7678 165.264 84.1371 165.997C84.5121 166.73 84.6967 167.619 84.6911 168.665V177H81.6058V169.142C81.6058 168.267 81.3786 167.582 80.924 167.088C80.4751 166.594 79.853 166.347 79.0575 166.347C78.5178 166.347 78.0376 166.466 77.6172 166.705C77.2024 166.937 76.8757 167.276 76.6371 167.719C76.4041 168.162 76.2876 168.699 76.2876 169.33ZM91.5945 177.264C90.7649 177.264 90.0178 177.116 89.353 176.821C88.6939 176.52 88.1712 176.077 87.7848 175.491C87.4041 174.906 87.2138 174.185 87.2138 173.327C87.2138 172.588 87.3501 171.977 87.6229 171.494C87.8956 171.011 88.2678 170.625 88.7393 170.335C89.2109 170.045 89.7422 169.827 90.3331 169.679C90.9297 169.526 91.5462 169.415 92.1825 169.347C92.9496 169.267 93.5717 169.196 94.049 169.134C94.5263 169.065 94.8729 168.963 95.0888 168.827C95.3104 168.685 95.4212 168.466 95.4212 168.17V168.119C95.4212 167.477 95.2308 166.98 94.8501 166.628C94.4695 166.276 93.9212 166.099 93.2053 166.099C92.4496 166.099 91.8501 166.264 91.407 166.594C90.9695 166.923 90.674 167.312 90.5206 167.761L87.6399 167.352C87.8672 166.557 88.2422 165.892 88.7649 165.358C89.2876 164.818 89.9268 164.415 90.6825 164.148C91.4382 163.875 92.2734 163.739 93.1882 163.739C93.8189 163.739 94.4467 163.812 95.0717 163.96C95.6967 164.108 96.2678 164.352 96.7848 164.693C97.3018 165.028 97.7166 165.486 98.0291 166.065C98.3473 166.645 98.5064 167.369 98.5064 168.239V177H95.5405V175.202H95.4382C95.2507 175.565 94.9865 175.906 94.6456 176.224C94.3104 176.537 93.8871 176.79 93.3757 176.983C92.87 177.17 92.2763 177.264 91.5945 177.264ZM92.3956 174.997C93.0149 174.997 93.5518 174.875 94.0064 174.631C94.4609 174.381 94.8104 174.051 95.0547 173.642C95.3047 173.233 95.4297 172.787 95.4297 172.304V170.761C95.3331 170.841 95.1683 170.915 94.9354 170.983C94.7081 171.051 94.4524 171.111 94.1683 171.162C93.8842 171.213 93.603 171.259 93.3246 171.298C93.0462 171.338 92.8047 171.372 92.6001 171.401C92.1399 171.463 91.728 171.565 91.3643 171.707C91.0007 171.849 90.7138 172.048 90.5036 172.304C90.2933 172.554 90.1882 172.878 90.1882 173.276C90.1882 173.844 90.3956 174.273 90.8104 174.562C91.2251 174.852 91.7536 174.997 92.3956 174.997ZM106.467 177.23C105.438 177.23 104.518 176.966 103.705 176.438C102.893 175.909 102.251 175.142 101.779 174.136C101.308 173.131 101.072 171.909 101.072 170.472C101.072 169.017 101.31 167.79 101.788 166.79C102.271 165.784 102.921 165.026 103.739 164.514C104.558 163.997 105.469 163.739 106.475 163.739C107.242 163.739 107.873 163.869 108.367 164.131C108.862 164.386 109.254 164.696 109.543 165.06C109.833 165.418 110.058 165.756 110.217 166.074H110.344V159.545H113.438V177H110.404V174.938H110.217C110.058 175.256 109.827 175.594 109.526 175.952C109.225 176.304 108.827 176.605 108.333 176.855C107.839 177.105 107.217 177.23 106.467 177.23ZM107.327 174.699C107.981 174.699 108.538 174.523 108.998 174.17C109.458 173.812 109.808 173.315 110.046 172.679C110.285 172.043 110.404 171.301 110.404 170.455C110.404 169.608 110.285 168.872 110.046 168.247C109.813 167.622 109.467 167.136 109.006 166.79C108.552 166.443 107.992 166.27 107.327 166.27C106.64 166.27 106.066 166.449 105.606 166.807C105.146 167.165 104.799 167.659 104.566 168.29C104.333 168.92 104.217 169.642 104.217 170.455C104.217 171.273 104.333 172.003 104.566 172.645C104.805 173.281 105.154 173.784 105.614 174.153C106.08 174.517 106.651 174.699 107.327 174.699ZM120.493 177.264C119.663 177.264 118.916 177.116 118.251 176.821C117.592 176.52 117.07 176.077 116.683 175.491C116.303 174.906 116.112 174.185 116.112 173.327C116.112 172.588 116.249 171.977 116.521 171.494C116.794 171.011 117.166 170.625 117.638 170.335C118.109 170.045 118.641 169.827 119.232 169.679C119.828 169.526 120.445 169.415 121.081 169.347C121.848 169.267 122.47 169.196 122.947 169.134C123.425 169.065 123.771 168.963 123.987 168.827C124.209 168.685 124.32 168.466 124.32 168.17V168.119C124.32 167.477 124.129 166.98 123.749 166.628C123.368 166.276 122.82 166.099 122.104 166.099C121.348 166.099 120.749 166.264 120.305 166.594C119.868 166.923 119.572 167.312 119.419 167.761L116.538 167.352C116.766 166.557 117.141 165.892 117.663 165.358C118.186 164.818 118.825 164.415 119.581 164.148C120.337 163.875 121.172 163.739 122.087 163.739C122.717 163.739 123.345 163.812 123.97 163.96C124.595 164.108 125.166 164.352 125.683 164.693C126.2 165.028 126.615 165.486 126.928 166.065C127.246 166.645 127.405 167.369 127.405 168.239V177H124.439V175.202H124.337C124.149 175.565 123.885 175.906 123.544 176.224C123.209 176.537 122.786 176.79 122.274 176.983C121.768 177.17 121.175 177.264 120.493 177.264ZM121.294 174.997C121.913 174.997 122.45 174.875 122.905 174.631C123.359 174.381 123.709 174.051 123.953 173.642C124.203 173.233 124.328 172.787 124.328 172.304V170.761C124.232 170.841 124.067 170.915 123.834 170.983C123.607 171.051 123.351 171.111 123.067 171.162C122.783 171.213 122.501 171.259 122.223 171.298C121.945 171.338 121.703 171.372 121.499 171.401C121.038 171.463 120.626 171.565 120.263 171.707C119.899 171.849 119.612 172.048 119.402 172.304C119.192 172.554 119.087 172.878 119.087 173.276C119.087 173.844 119.294 174.273 119.709 174.562C120.124 174.852 120.652 174.997 121.294 174.997Z" fill="#00E45F"/>
<path d="M307.963 622H304.588L310.733 604.545H314.636L320.79 622H317.415L312.753 608.125H312.616L307.963 622ZM308.074 615.156H317.278V617.696H308.074V615.156ZM328.669 608.909V611.295H321.143V608.909H328.669ZM323.001 605.773H326.087V618.062C326.087 618.477 326.149 618.795 326.274 619.017C326.405 619.233 326.575 619.381 326.786 619.46C326.996 619.54 327.229 619.58 327.484 619.58C327.678 619.58 327.854 619.565 328.013 619.537C328.178 619.509 328.303 619.483 328.388 619.46L328.908 621.872C328.743 621.929 328.507 621.991 328.2 622.06C327.899 622.128 327.53 622.168 327.092 622.179C326.32 622.202 325.624 622.085 325.004 621.83C324.385 621.568 323.893 621.165 323.53 620.619C323.172 620.074 322.996 619.392 323.001 618.574V605.773ZM334.616 604.545V622H331.531V604.545H334.616ZM341.555 622.264C340.726 622.264 339.979 622.116 339.314 621.821C338.655 621.52 338.132 621.077 337.746 620.491C337.365 619.906 337.175 619.185 337.175 618.327C337.175 617.588 337.311 616.977 337.584 616.494C337.857 616.011 338.229 615.625 338.7 615.335C339.172 615.045 339.703 614.827 340.294 614.679C340.891 614.526 341.507 614.415 342.143 614.347C342.911 614.267 343.533 614.196 344.01 614.134C344.487 614.065 344.834 613.963 345.05 613.827C345.271 613.685 345.382 613.466 345.382 613.17V613.119C345.382 612.477 345.192 611.98 344.811 611.628C344.43 611.276 343.882 611.099 343.166 611.099C342.411 611.099 341.811 611.264 341.368 611.594C340.93 611.923 340.635 612.312 340.482 612.761L337.601 612.352C337.828 611.557 338.203 610.892 338.726 610.358C339.249 609.818 339.888 609.415 340.643 609.148C341.399 608.875 342.234 608.739 343.149 608.739C343.78 608.739 344.408 608.812 345.033 608.96C345.658 609.108 346.229 609.352 346.746 609.693C347.263 610.028 347.678 610.486 347.99 611.065C348.308 611.645 348.467 612.369 348.467 613.239V622H345.501V620.202H345.399C345.212 620.565 344.947 620.906 344.607 621.224C344.271 621.537 343.848 621.79 343.337 621.983C342.831 622.17 342.237 622.264 341.555 622.264ZM342.357 619.997C342.976 619.997 343.513 619.875 343.967 619.631C344.422 619.381 344.771 619.051 345.016 618.642C345.266 618.233 345.391 617.787 345.391 617.304V615.761C345.294 615.841 345.129 615.915 344.896 615.983C344.669 616.051 344.413 616.111 344.129 616.162C343.845 616.213 343.564 616.259 343.286 616.298C343.007 616.338 342.766 616.372 342.561 616.401C342.101 616.463 341.689 616.565 341.325 616.707C340.962 616.849 340.675 617.048 340.464 617.304C340.254 617.554 340.149 617.878 340.149 618.276C340.149 618.844 340.357 619.273 340.771 619.562C341.186 619.852 341.714 619.997 342.357 619.997ZM354.655 614.33V622H351.57V608.909H354.518V611.134H354.672C354.973 610.401 355.453 609.818 356.112 609.386C356.777 608.955 357.598 608.739 358.575 608.739C359.479 608.739 360.266 608.932 360.936 609.318C361.612 609.705 362.135 610.264 362.504 610.997C362.879 611.73 363.064 612.619 363.058 613.665V622H359.973V614.142C359.973 613.267 359.746 612.582 359.291 612.088C358.842 611.594 358.22 611.347 357.425 611.347C356.885 611.347 356.405 611.466 355.984 611.705C355.57 611.937 355.243 612.276 355.004 612.719C354.771 613.162 354.655 613.699 354.655 614.33ZM372.732 608.909V611.295H365.206V608.909H372.732ZM367.064 605.773H370.149V618.062C370.149 618.477 370.212 618.795 370.337 619.017C370.467 619.233 370.638 619.381 370.848 619.46C371.058 619.54 371.291 619.58 371.547 619.58C371.74 619.58 371.916 619.565 372.075 619.537C372.24 619.509 372.365 619.483 372.45 619.46L372.97 621.872C372.805 621.929 372.57 621.991 372.263 622.06C371.962 622.128 371.592 622.168 371.155 622.179C370.382 622.202 369.686 622.085 369.067 621.83C368.447 621.568 367.956 621.165 367.592 620.619C367.234 620.074 367.058 619.392 367.064 618.574V605.773ZM375.312 622V608.909H378.397V622H375.312ZM376.863 607.051C376.374 607.051 375.954 606.889 375.602 606.565C375.249 606.236 375.073 605.841 375.073 605.381C375.073 604.915 375.249 604.52 375.602 604.196C375.954 603.866 376.374 603.702 376.863 603.702C377.357 603.702 377.778 603.866 378.124 604.196C378.477 604.52 378.653 604.915 378.653 605.381C378.653 605.841 378.477 606.236 378.124 606.565C377.778 606.889 377.357 607.051 376.863 607.051ZM387.28 622.256C385.973 622.256 384.851 621.969 383.913 621.395C382.982 620.821 382.263 620.028 381.757 619.017C381.257 618 381.007 616.83 381.007 615.506C381.007 614.176 381.263 613.003 381.774 611.986C382.286 610.963 383.007 610.168 383.939 609.599C384.876 609.026 385.984 608.739 387.263 608.739C388.325 608.739 389.266 608.935 390.084 609.327C390.908 609.713 391.564 610.261 392.053 610.972C392.541 611.676 392.82 612.5 392.888 613.443H389.939C389.82 612.812 389.536 612.287 389.087 611.866C388.643 611.44 388.05 611.227 387.305 611.227C386.675 611.227 386.121 611.398 385.643 611.739C385.166 612.074 384.794 612.557 384.527 613.188C384.266 613.818 384.135 614.574 384.135 615.455C384.135 616.347 384.266 617.114 384.527 617.756C384.788 618.392 385.155 618.884 385.626 619.23C386.104 619.571 386.663 619.741 387.305 619.741C387.76 619.741 388.166 619.656 388.524 619.486C388.888 619.31 389.192 619.057 389.436 618.727C389.68 618.398 389.848 617.997 389.939 617.526H392.888C392.814 618.452 392.541 619.273 392.07 619.989C391.598 620.699 390.956 621.256 390.143 621.659C389.331 622.057 388.376 622.256 387.28 622.256ZM321.318 642.273C321.318 644.153 320.966 645.764 320.261 647.105C319.563 648.44 318.608 649.463 317.398 650.173C316.193 650.884 314.827 651.239 313.298 651.239C311.77 651.239 310.401 650.884 309.19 650.173C307.986 649.457 307.031 648.432 306.327 647.097C305.628 645.756 305.278 644.148 305.278 642.273C305.278 640.392 305.628 638.784 306.327 637.449C307.031 636.108 307.986 635.082 309.19 634.372C310.401 633.662 311.77 633.307 313.298 633.307C314.827 633.307 316.193 633.662 317.398 634.372C318.608 635.082 319.563 636.108 320.261 637.449C320.966 638.784 321.318 640.392 321.318 642.273ZM318.139 642.273C318.139 640.949 317.932 639.832 317.517 638.923C317.108 638.009 316.54 637.318 315.812 636.852C315.085 636.381 314.247 636.145 313.298 636.145C312.349 636.145 311.511 636.381 310.784 636.852C310.057 637.318 309.486 638.009 309.071 638.923C308.662 639.832 308.457 640.949 308.457 642.273C308.457 643.597 308.662 644.716 309.071 645.631C309.486 646.54 310.057 647.23 310.784 647.702C311.511 648.168 312.349 648.401 313.298 648.401C314.247 648.401 315.085 648.168 315.812 647.702C316.54 647.23 317.108 646.54 317.517 645.631C317.932 644.716 318.139 643.597 318.139 642.273ZM329.881 651.256C328.575 651.256 327.452 650.969 326.515 650.395C325.583 649.821 324.864 649.028 324.359 648.017C323.859 647 323.609 645.83 323.609 644.506C323.609 643.176 323.864 642.003 324.376 640.986C324.887 639.963 325.609 639.168 326.54 638.599C327.478 638.026 328.586 637.739 329.864 637.739C330.927 637.739 331.867 637.935 332.685 638.327C333.509 638.713 334.165 639.261 334.654 639.972C335.143 640.676 335.421 641.5 335.489 642.443H332.54C332.421 641.812 332.137 641.287 331.688 640.866C331.245 640.44 330.651 640.227 329.907 640.227C329.276 640.227 328.722 640.398 328.245 640.739C327.768 641.074 327.396 641.557 327.129 642.188C326.867 642.818 326.737 643.574 326.737 644.455C326.737 645.347 326.867 646.114 327.129 646.756C327.39 647.392 327.756 647.884 328.228 648.23C328.705 648.571 329.265 648.741 329.907 648.741C330.362 648.741 330.768 648.656 331.126 648.486C331.489 648.31 331.793 648.057 332.038 647.727C332.282 647.398 332.45 646.997 332.54 646.526H335.489C335.415 647.452 335.143 648.273 334.671 648.989C334.2 649.699 333.558 650.256 332.745 650.659C331.933 651.057 330.978 651.256 329.881 651.256ZM343.818 651.256C342.506 651.256 341.372 650.983 340.418 650.438C339.469 649.886 338.739 649.108 338.227 648.102C337.716 647.091 337.46 645.901 337.46 644.531C337.46 643.185 337.716 642.003 338.227 640.986C338.744 639.963 339.466 639.168 340.392 638.599C341.318 638.026 342.406 637.739 343.656 637.739C344.463 637.739 345.224 637.869 345.94 638.131C346.662 638.386 347.298 638.784 347.849 639.324C348.406 639.864 348.844 640.551 349.162 641.386C349.48 642.216 349.639 643.205 349.639 644.352V645.298H338.909V643.219H346.682C346.676 642.628 346.548 642.102 346.298 641.642C346.048 641.176 345.699 640.81 345.25 640.543C344.807 640.276 344.29 640.142 343.699 640.142C343.068 640.142 342.514 640.295 342.037 640.602C341.56 640.903 341.188 641.301 340.92 641.795C340.659 642.284 340.526 642.821 340.52 643.406V645.222C340.52 645.983 340.659 646.636 340.938 647.182C341.216 647.722 341.605 648.136 342.105 648.426C342.605 648.71 343.19 648.852 343.861 648.852C344.31 648.852 344.716 648.79 345.08 648.665C345.443 648.534 345.759 648.344 346.026 648.094C346.293 647.844 346.494 647.534 346.631 647.165L349.511 647.489C349.33 648.25 348.983 648.915 348.472 649.483C347.966 650.045 347.318 650.483 346.528 650.795C345.739 651.102 344.835 651.256 343.818 651.256ZM356.016 651.264C355.187 651.264 354.44 651.116 353.775 650.821C353.116 650.52 352.593 650.077 352.207 649.491C351.826 648.906 351.636 648.185 351.636 647.327C351.636 646.588 351.772 645.977 352.045 645.494C352.317 645.011 352.69 644.625 353.161 644.335C353.633 644.045 354.164 643.827 354.755 643.679C355.352 643.526 355.968 643.415 356.604 643.347C357.371 643.267 357.994 643.196 358.471 643.134C358.948 643.065 359.295 642.963 359.511 642.827C359.732 642.685 359.843 642.466 359.843 642.17V642.119C359.843 641.477 359.653 640.98 359.272 640.628C358.891 640.276 358.343 640.099 357.627 640.099C356.871 640.099 356.272 640.264 355.829 640.594C355.391 640.923 355.096 641.312 354.942 641.761L352.062 641.352C352.289 640.557 352.664 639.892 353.187 639.358C353.71 638.818 354.349 638.415 355.104 638.148C355.86 637.875 356.695 637.739 357.61 637.739C358.241 637.739 358.869 637.812 359.494 637.96C360.119 638.108 360.69 638.352 361.207 638.693C361.724 639.028 362.138 639.486 362.451 640.065C362.769 640.645 362.928 641.369 362.928 642.239V651H359.962V649.202H359.86C359.673 649.565 359.408 649.906 359.067 650.224C358.732 650.537 358.309 650.79 357.798 650.983C357.292 651.17 356.698 651.264 356.016 651.264ZM356.817 648.997C357.437 648.997 357.974 648.875 358.428 648.631C358.883 648.381 359.232 648.051 359.477 647.642C359.727 647.233 359.852 646.787 359.852 646.304V644.761C359.755 644.841 359.59 644.915 359.357 644.983C359.13 645.051 358.874 645.111 358.59 645.162C358.306 645.213 358.025 645.259 357.746 645.298C357.468 645.338 357.227 645.372 357.022 645.401C356.562 645.463 356.15 645.565 355.786 645.707C355.423 645.849 355.136 646.048 354.925 646.304C354.715 646.554 354.61 646.878 354.61 647.276C354.61 647.844 354.817 648.273 355.232 648.562C355.647 648.852 356.175 648.997 356.817 648.997ZM369.116 643.33V651H366.031V637.909H368.979V640.134H369.133C369.434 639.401 369.914 638.818 370.573 638.386C371.238 637.955 372.059 637.739 373.036 637.739C373.94 637.739 374.727 637.932 375.397 638.318C376.073 638.705 376.596 639.264 376.965 639.997C377.34 640.73 377.525 641.619 377.519 642.665V651H374.434V643.142C374.434 642.267 374.207 641.582 373.752 641.088C373.303 640.594 372.681 640.347 371.886 640.347C371.346 640.347 370.866 640.466 370.445 640.705C370.031 640.937 369.704 641.276 369.465 641.719C369.232 642.162 369.116 642.699 369.116 643.33Z" fill="#00D9E4"/>
<line x1="29.2399" y1="378.35" x2="39.4981" y2="366.35" stroke="#00E45F" stroke-width="2"/>
<line x1="499.298" y1="391.365" x2="510.546" y2="380.288" stroke="#00E45F" stroke-width="2"/>
<path d="M118.041 287.036L121.5 296L116.5 300H112L106 306L102 306.5L98 312.5L86.5 322.5L87.5 326L82.5 331.5V337L93 347L92.5 349.5V353.5L89.5 354.5L87.5 352H84L79.5 347L75.5 345.5L70.5 350.5L72.5 354.5L70.5 361.5L72.5 365L67.5 373.5L69 378.5H66L62 377L59 371.5L59.5 365L56 361.5L52 362L49 360V365L40 366.5L53 651L54.5 673L51.5 678.239L53 686L60.5 692.5L62.5 697.5L71.5 706.5L70 713V720.5L77.5 728.5L82 730.5C82.9098 727.768 89 732.685 89 730.5C89 728.315 95.6832 718.307 97.5028 716.485V702L102.5 691.5L108 688.5L115 687.5L125 675.5L123.5 668V660.5L125 656.384L126 654.5L130 657L136 652.5L139.5 654.5L143.5 651L142 641.5L139.5 636L141 628L146 623L155.5 611.5L169.5 603.5L172.5 605L169 613L164 621L165 623L167.5 622L170.5 615L173.5 610.5L176 607L179.5 614V616L180.5 615L180 607.5V604.5L183 603.5V611.5L182 613V617L183.5 623.5L187 626.5L192.5 624.5L192 616.5L190 607.21L192 603.5L192.5 611.5L194 620L197 621L200 617L200.745 607.21L194 599.014L205 588L208.5 581.5L207 591V606L205 610.5L207.5 616L209.5 614V607.5L215 606L217 596.283L221 597L224 606L225.5 607.5L229 603.5L231.238 596.283L233.5 585.355L238.5 581.5L237 575L240.5 570.5L244 575.5L243 582.5L242.5 587.5L250 589.5L263 571.696L252.5 590L254 595.5L262 591L264 583L272.177 579.891L276.5 572.5L278 568.5H272C275.639 563.947 276.5 560.685 276.5 558.5C276.5 556.315 279.91 550.643 279 547L288.5 532L291 523L286 518L287 512L295.5 506H301H303.5L307.5 501.5L310 506L305 515L306.5 518L311 515L310 520L305 525V530H311L315 529C319.549 532.643 322.317 535 324.5 535C326.683 535 337.18 543 339 543V536L336 529L339 518L345 510.5L351 517.058L364 507V510L358.5 516.5L353 525L351 530L352 535L354.5 540.5L360 545L366.5 543L365 534L371.758 535H377L381.348 525L377 517.058L371.758 512L364.5 510V505L366.5 508L370.5 503.399L367.5 498.5L370 494L369.5 489.5L372.5 487L371.758 492L379.5 498.5V502L382 504.5L382.5 501L389.5 506L388.153 511.529L389 516.5L395 524L399 524.5V517.058L404 516.5L408.5 514L414 510L417.5 502.5L418.5 492L421 486.5L429.5 492L431 497L435 500.5L437.5 494C442.959 493.089 431.216 495 446.5 495C461.784 495 454.549 482.821 450 481L458.5 477.5L464 483L468.5 476.08L470.5 480L471 483L473.5 480L475 475.5L472.5 471L472 466L473.5 468L479 467.5L482.332 466V476.08L485.5 479.5H488.5L487 476.08L486.5 474L489.5 473.5L490.5 477.5L498.5 474L508 461.5L521 451.5L518.5 444.5L517 437L512 434.5L506.895 440H502L496.5 437L497.5 433.5L502 435.5L505.5 427L508 430.5H511L512 419.5L505.5 407.5L499.5 391.5L490 390L485 387.5L483 394.123L476.5 396.5L471 391.5L462.5 375.5L460.497 370L464 367L468.685 354.5L461.5 346L459.5 339V336L466 335L469 334.5L467 330V322L464 317H459.5V319.5L439.5 313.5L432.5 302.5V306.703L422.287 303.623L424 301L423 296.5L427 295.5L424 291.5V285L429.5 281L424 270.5L429.5 265L427 261.5L425 69C407.715 51.6981 391 36.6855 391 34.5C391 32.3145 386.549 23.0894 382 24L374.5 21L359 19.5L356 23V31.5L348.5 32L345 30L333 31.5L330 38.5L315.5 40L295 50L290.5 45.5H288.5L279.5 38.5L277.635 33.5145V16.5L280.5 10.5L279.5 7.5L273.5 6.5L270.5 4.5L257.5 1.5L166 134L160.5 180.5L156 181L152 188L142 194.5L143 200L139 201L132.5 218.5L139 225L137.5 234H133.5L131.5 237.5L130.254 240.5L134 241L130.254 245.5V248.5L132.983 251.5L130.254 254V257H135.5L138 259.5L135.5 263L136.5 269.5L123.5 278.5L118.041 287.036Z" fill="#97DCFF" stroke="white" stroke-width="1.5"/>
<path d="M302 564.5H297.5H295L297.5 571L300.5 574.5L307 577L311 571L307 563L302 564.5Z" stroke="white"/>
<path d="M321.5 545V538.5H323L329 540.5V549H326V552V556.5H321.5L318 552L316.5 545H321.5Z" stroke="white"/>
<path d="M326 574.5L324.5 579H326L330.5 577V573V568L326 571V574.5Z" stroke="white"/>
<path d="M300.5 554.5L295 559.5H302L308.5 556.5L305 552L300.5 554.5Z" stroke="white"/>
<path d="M291.5 533.5L293.5 538.5V539L294 540.5L295 538L297.5 534L297 526L298.5 524L299 521.5H295L293.5 528L291.5 533.5Z" stroke="white"/>
<path d="M355 556H349L348.5 558L350.5 559.5L355 559V556Z" stroke="white"/>
<path d="M16.0653 539.545V557H13.2528L5.02841 545.111H4.88352V557H1.72159V539.545H4.55114L12.767 551.443H12.9205V539.545H16.0653ZM19.5107 557V539.545H22.6726V546.935H30.7607V539.545H33.9311V557H30.7607V549.585H22.6726V557H19.5107Z" fill="#FFE587"/>
<circle cx="134.511" cy="631.511" r="9.01136" fill="#FFE587" stroke="black"/>
<circle cx="374.511" cy="519.511" r="9.01136" fill="#FFE587" stroke="black"/>
<circle cx="214.511" cy="485.511" r="9.01136" fill="#FFE587" stroke="black"/>
<circle cx="313.511" cy="449.511" r="9.01136" fill="#FFE587" stroke="black"/>
<circle cx="416.511" cy="229.511" r="9.01136" fill="#FFE587" stroke="black"/>
<path d="M63.2017 614V595.818H69.3452C70.7715 595.818 71.9375 596.076 72.843 596.591C73.7545 597.1 74.4292 597.789 74.8672 598.659C75.3052 599.529 75.5241 600.5 75.5241 601.571C75.5241 602.642 75.3052 603.616 74.8672 604.492C74.4351 605.368 73.7663 606.066 72.8608 606.587C71.9553 607.102 70.7952 607.359 69.3807 607.359H64.9773V605.406H69.3097C70.2862 605.406 71.0704 605.238 71.6623 604.9C72.2541 604.563 72.6832 604.107 72.9496 603.533C73.2218 602.953 73.358 602.299 73.358 601.571C73.358 600.843 73.2218 600.192 72.9496 599.618C72.6832 599.044 72.2512 598.594 71.6534 598.268C71.0556 597.937 70.2625 597.771 69.2741 597.771H65.4034V614H63.2017ZM84.18 614.284C82.949 614.284 81.8688 613.991 80.9396 613.405C80.0163 612.819 79.2943 612 78.7734 610.946C78.2585 609.893 78.0011 608.661 78.0011 607.253C78.0011 605.832 78.2585 604.592 78.7734 603.533C79.2943 602.474 80.0163 601.651 80.9396 601.065C81.8688 600.479 82.949 600.186 84.18 600.186C85.4111 600.186 86.4883 600.479 87.4116 601.065C88.3408 601.651 89.0629 602.474 89.5778 603.533C90.0986 604.592 90.359 605.832 90.359 607.253C90.359 608.661 90.0986 609.893 89.5778 610.946C89.0629 612 88.3408 612.819 87.4116 613.405C86.4883 613.991 85.4111 614.284 84.18 614.284ZM84.18 612.402C85.1152 612.402 85.8846 612.162 86.4883 611.683C87.092 611.203 87.5388 610.573 87.8288 609.792C88.1188 609.011 88.2638 608.164 88.2638 607.253C88.2638 606.341 88.1188 605.492 87.8288 604.705C87.5388 603.918 87.092 603.281 86.4883 602.796C85.8846 602.311 85.1152 602.068 84.18 602.068C83.2449 602.068 82.4755 602.311 81.8718 602.796C81.2681 603.281 80.8213 603.918 80.5312 604.705C80.2412 605.492 80.0962 606.341 80.0962 607.253C80.0962 608.164 80.2412 609.011 80.5312 609.792C80.8213 610.573 81.2681 611.203 81.8718 611.683C82.4755 612.162 83.2449 612.402 84.18 612.402ZM93.5573 614V600.364H95.5814V602.423H95.7235C95.972 601.749 96.4218 601.201 97.0729 600.781C97.7239 600.361 98.4578 600.151 99.2746 600.151C99.4285 600.151 99.6208 600.154 99.8517 600.159C100.082 600.165 100.257 600.174 100.375 600.186V602.317C100.304 602.299 100.142 602.272 99.8872 602.237C99.6386 602.195 99.3752 602.175 99.097 602.175C98.4342 602.175 97.8423 602.314 97.3215 602.592C96.8066 602.864 96.3982 603.243 96.0963 603.728C95.8004 604.208 95.6524 604.755 95.6524 605.371V614H93.5573ZM109.644 600.364V602.139H102.577V600.364H109.644ZM104.637 597.097H106.732V610.094C106.732 610.686 106.818 611.129 106.989 611.425C107.167 611.715 107.392 611.911 107.664 612.011C107.942 612.106 108.235 612.153 108.543 612.153C108.774 612.153 108.963 612.142 109.111 612.118C109.259 612.088 109.378 612.065 109.466 612.047L109.892 613.929C109.75 613.982 109.552 614.036 109.298 614.089C109.043 614.148 108.721 614.178 108.33 614.178C107.738 614.178 107.158 614.05 106.59 613.796C106.028 613.541 105.56 613.154 105.187 612.633C104.82 612.112 104.637 611.455 104.637 610.662V597.097ZM115.184 595.818V614H113.089V595.818H115.184ZM123.034 614.32C122.17 614.32 121.386 614.157 120.681 613.831C119.977 613.5 119.418 613.023 119.003 612.402C118.589 611.775 118.382 611.017 118.382 610.129C118.382 609.348 118.536 608.715 118.844 608.229C119.151 607.738 119.563 607.353 120.078 607.075C120.593 606.797 121.161 606.59 121.782 606.454C122.41 606.312 123.04 606.199 123.673 606.116C124.502 606.01 125.173 605.93 125.688 605.877C126.209 605.818 126.588 605.72 126.825 605.584C127.067 605.448 127.189 605.211 127.189 604.874V604.803C127.189 603.927 126.949 603.246 126.47 602.761C125.996 602.275 125.277 602.033 124.312 602.033C123.312 602.033 122.528 602.252 121.96 602.69C121.392 603.128 120.992 603.595 120.761 604.092L118.773 603.382C119.128 602.554 119.601 601.908 120.193 601.447C120.791 600.979 121.442 600.654 122.146 600.47C122.856 600.281 123.555 600.186 124.241 600.186C124.679 600.186 125.182 600.239 125.751 600.346C126.325 600.446 126.878 600.657 127.411 600.976C127.949 601.296 128.396 601.778 128.751 602.423C129.106 603.068 129.284 603.933 129.284 605.016V614H127.189V612.153H127.082C126.94 612.449 126.703 612.766 126.372 613.103C126.041 613.441 125.6 613.728 125.049 613.964C124.499 614.201 123.827 614.32 123.034 614.32ZM123.354 612.438C124.182 612.438 124.881 612.275 125.449 611.949C126.023 611.624 126.455 611.203 126.745 610.689C127.041 610.174 127.189 609.632 127.189 609.064V607.146C127.1 607.253 126.905 607.35 126.603 607.439C126.307 607.522 125.964 607.596 125.573 607.661C125.188 607.72 124.812 607.774 124.445 607.821C124.084 607.862 123.791 607.898 123.567 607.928C123.022 607.999 122.513 608.114 122.04 608.274C121.572 608.428 121.193 608.661 120.903 608.975C120.619 609.283 120.477 609.703 120.477 610.236C120.477 610.964 120.746 611.514 121.285 611.887C121.829 612.254 122.519 612.438 123.354 612.438ZM135.203 605.797V614H133.108V600.364H135.132V602.494H135.31C135.629 601.802 136.115 601.246 136.766 600.825C137.417 600.399 138.257 600.186 139.287 600.186C140.21 600.186 141.018 600.375 141.711 600.754C142.403 601.127 142.942 601.695 143.326 602.459C143.711 603.216 143.903 604.175 143.903 605.335V614H141.808V605.477C141.808 604.406 141.53 603.571 140.974 602.974C140.417 602.37 139.654 602.068 138.683 602.068C138.015 602.068 137.417 602.213 136.89 602.503C136.369 602.793 135.958 603.216 135.656 603.773C135.354 604.329 135.203 605.004 135.203 605.797ZM152.881 614.284C151.745 614.284 150.742 613.997 149.872 613.423C149.002 612.843 148.321 612.026 147.83 610.973C147.338 609.913 147.093 608.661 147.093 607.217C147.093 605.785 147.338 604.542 147.83 603.489C148.321 602.435 149.005 601.621 149.881 601.047C150.756 600.473 151.769 600.186 152.917 600.186C153.805 600.186 154.506 600.334 155.021 600.63C155.542 600.92 155.938 601.251 156.21 601.624C156.489 601.991 156.705 602.293 156.858 602.53H157.036V595.818H159.131V614H157.107V611.905H156.858C156.705 612.153 156.486 612.467 156.202 612.846C155.917 613.219 155.512 613.553 154.985 613.849C154.459 614.139 153.757 614.284 152.881 614.284ZM153.165 612.402C154.006 612.402 154.716 612.183 155.296 611.745C155.876 611.301 156.317 610.689 156.619 609.907C156.921 609.12 157.072 608.212 157.072 607.182C157.072 606.164 156.924 605.273 156.628 604.51C156.332 603.74 155.894 603.142 155.314 602.716C154.734 602.284 154.018 602.068 153.165 602.068C152.278 602.068 151.538 602.296 150.946 602.752C150.36 603.202 149.919 603.814 149.623 604.589C149.333 605.359 149.188 606.223 149.188 607.182C149.188 608.152 149.336 609.034 149.632 609.827C149.934 610.615 150.378 611.242 150.964 611.71C151.555 612.171 152.289 612.402 153.165 612.402Z" fill="black"/>
<path d="M327.202 261V242.818H329.403V250.915H339.098V242.818H341.3V261H339.098V252.868H329.403V261H327.202ZM350.963 261.284C349.732 261.284 348.652 260.991 347.723 260.405C346.8 259.819 346.077 259 345.557 257.946C345.042 256.893 344.784 255.661 344.784 254.253C344.784 252.832 345.042 251.592 345.557 250.533C346.077 249.474 346.8 248.651 347.723 248.065C348.652 247.479 349.732 247.186 350.963 247.186C352.194 247.186 353.271 247.479 354.195 248.065C355.124 248.651 355.846 249.474 356.361 250.533C356.882 251.592 357.142 252.832 357.142 254.253C357.142 255.661 356.882 256.893 356.361 257.946C355.846 259 355.124 259.819 354.195 260.405C353.271 260.991 352.194 261.284 350.963 261.284ZM350.963 259.402C351.898 259.402 352.668 259.162 353.271 258.683C353.875 258.203 354.322 257.573 354.612 256.792C354.902 256.011 355.047 255.164 355.047 254.253C355.047 253.341 354.902 252.492 354.612 251.705C354.322 250.918 353.875 250.281 353.271 249.796C352.668 249.311 351.898 249.068 350.963 249.068C350.028 249.068 349.259 249.311 348.655 249.796C348.051 250.281 347.604 250.918 347.314 251.705C347.024 252.492 346.879 253.341 346.879 254.253C346.879 255.164 347.024 256.011 347.314 256.792C347.604 257.573 348.051 258.203 348.655 258.683C349.259 259.162 350.028 259.402 350.963 259.402ZM368.934 255.425V247.364H371.029V261H368.934V258.692H368.792C368.473 259.384 367.975 259.973 367.301 260.458C366.626 260.938 365.774 261.178 364.744 261.178C363.892 261.178 363.134 260.991 362.471 260.618C361.808 260.239 361.287 259.671 360.909 258.914C360.53 258.15 360.34 257.188 360.34 256.028V247.364H362.436V255.886C362.436 256.881 362.714 257.674 363.27 258.266C363.832 258.857 364.549 259.153 365.419 259.153C365.939 259.153 366.469 259.02 367.008 258.754C367.552 258.488 368.008 258.079 368.375 257.529C368.748 256.978 368.934 256.277 368.934 255.425ZM376.962 242.818V261H374.867V242.818H376.962ZM386.73 247.364V249.139H379.663V247.364H386.73ZM381.723 244.097H383.818V257.094C383.818 257.686 383.904 258.129 384.075 258.425C384.253 258.715 384.478 258.911 384.75 259.011C385.028 259.106 385.321 259.153 385.629 259.153C385.86 259.153 386.049 259.142 386.197 259.118C386.345 259.088 386.464 259.065 386.552 259.047L386.978 260.929C386.836 260.982 386.638 261.036 386.384 261.089C386.129 261.148 385.807 261.178 385.416 261.178C384.824 261.178 384.244 261.05 383.676 260.796C383.114 260.541 382.646 260.154 382.273 259.633C381.906 259.112 381.723 258.455 381.723 257.662V244.097ZM395.275 261.284C394.044 261.284 392.964 260.991 392.034 260.405C391.111 259.819 390.389 259 389.868 257.946C389.353 256.893 389.096 255.661 389.096 254.253C389.096 252.832 389.353 251.592 389.868 250.533C390.389 249.474 391.111 248.651 392.034 248.065C392.964 247.479 394.044 247.186 395.275 247.186C396.506 247.186 397.583 247.479 398.506 248.065C399.436 248.651 400.158 249.474 400.672 250.533C401.193 251.592 401.454 252.832 401.454 254.253C401.454 255.661 401.193 256.893 400.672 257.946C400.158 259 399.436 259.819 398.506 260.405C397.583 260.991 396.506 261.284 395.275 261.284ZM395.275 259.402C396.21 259.402 396.979 259.162 397.583 258.683C398.187 258.203 398.634 257.573 398.924 256.792C399.214 256.011 399.359 255.164 399.359 254.253C399.359 253.341 399.214 252.492 398.924 251.705C398.634 250.918 398.187 250.281 397.583 249.796C396.979 249.311 396.21 249.068 395.275 249.068C394.34 249.068 393.57 249.311 392.967 249.796C392.363 250.281 391.916 250.918 391.626 251.705C391.336 252.492 391.191 253.341 391.191 254.253C391.191 255.164 391.336 256.011 391.626 256.792C391.916 257.573 392.363 258.203 392.967 258.683C393.57 259.162 394.34 259.402 395.275 259.402ZM406.747 252.797V261H404.652V247.364H406.676V249.494H406.854C407.173 248.802 407.659 248.246 408.31 247.825C408.961 247.399 409.801 247.186 410.831 247.186C411.754 247.186 412.562 247.375 413.255 247.754C413.947 248.127 414.486 248.695 414.87 249.459C415.255 250.216 415.447 251.175 415.447 252.335V261H413.352V252.477C413.352 251.406 413.074 250.571 412.518 249.974C411.961 249.37 411.198 249.068 410.227 249.068C409.558 249.068 408.961 249.213 408.434 249.503C407.913 249.793 407.502 250.216 407.2 250.773C406.898 251.329 406.747 252.004 406.747 252.797Z" fill="black"/>
<path d="M325.202 500V481.818H331.558C332.825 481.818 333.869 482.037 334.692 482.475C335.515 482.907 336.127 483.49 336.53 484.224C336.932 484.952 337.134 485.76 337.134 486.648C337.134 487.429 336.994 488.074 336.716 488.583C336.444 489.092 336.083 489.495 335.633 489.79C335.189 490.086 334.707 490.305 334.186 490.447V490.625C334.742 490.661 335.302 490.856 335.864 491.211C336.426 491.566 336.897 492.075 337.276 492.738C337.654 493.401 337.844 494.212 337.844 495.17C337.844 496.082 337.637 496.902 337.222 497.63C336.808 498.358 336.154 498.935 335.26 499.361C334.367 499.787 333.204 500 331.771 500H325.202ZM327.403 498.047H331.771C333.21 498.047 334.23 497.769 334.834 497.212C335.444 496.65 335.749 495.969 335.749 495.17C335.749 494.555 335.592 493.987 335.278 493.466C334.964 492.939 334.518 492.519 333.938 492.205C333.357 491.886 332.671 491.726 331.878 491.726H327.403V498.047ZM327.403 489.808H331.487C332.15 489.808 332.748 489.678 333.281 489.418C333.819 489.157 334.245 488.79 334.559 488.317C334.879 487.843 335.038 487.287 335.038 486.648C335.038 485.849 334.76 485.171 334.204 484.615C333.647 484.052 332.766 483.771 331.558 483.771H327.403V489.808ZM345.19 500.32C344.326 500.32 343.542 500.157 342.838 499.831C342.133 499.5 341.574 499.023 341.16 498.402C340.745 497.775 340.538 497.017 340.538 496.129C340.538 495.348 340.692 494.715 341 494.229C341.308 493.738 341.719 493.353 342.234 493.075C342.749 492.797 343.317 492.59 343.938 492.454C344.566 492.312 345.196 492.199 345.829 492.116C346.658 492.01 347.33 491.93 347.845 491.877C348.365 491.818 348.744 491.72 348.981 491.584C349.224 491.448 349.345 491.211 349.345 490.874V490.803C349.345 489.927 349.105 489.246 348.626 488.761C348.152 488.275 347.433 488.033 346.469 488.033C345.468 488.033 344.684 488.252 344.116 488.69C343.548 489.128 343.148 489.595 342.917 490.092L340.929 489.382C341.284 488.554 341.757 487.908 342.349 487.447C342.947 486.979 343.598 486.654 344.302 486.47C345.013 486.281 345.711 486.186 346.398 486.186C346.836 486.186 347.339 486.239 347.907 486.346C348.481 486.446 349.034 486.657 349.567 486.976C350.106 487.296 350.552 487.778 350.907 488.423C351.263 489.068 351.44 489.933 351.44 491.016V500H349.345V498.153H349.238C349.096 498.449 348.86 498.766 348.528 499.103C348.197 499.441 347.756 499.728 347.205 499.964C346.655 500.201 345.983 500.32 345.19 500.32ZM345.51 498.438C346.338 498.438 347.037 498.275 347.605 497.949C348.179 497.624 348.611 497.203 348.901 496.689C349.197 496.174 349.345 495.632 349.345 495.064V493.146C349.256 493.253 349.061 493.35 348.759 493.439C348.463 493.522 348.12 493.596 347.729 493.661C347.345 493.72 346.969 493.774 346.602 493.821C346.241 493.862 345.948 493.898 345.723 493.928C345.178 493.999 344.669 494.114 344.196 494.274C343.728 494.428 343.349 494.661 343.059 494.975C342.775 495.283 342.633 495.703 342.633 496.236C342.633 496.964 342.903 497.514 343.441 497.887C343.986 498.254 344.675 498.438 345.51 498.438ZM355.264 500V486.364H357.288V488.423H357.43C357.679 487.749 358.129 487.201 358.78 486.781C359.431 486.361 360.165 486.151 360.982 486.151C361.136 486.151 361.328 486.154 361.559 486.159C361.79 486.165 361.964 486.174 362.082 486.186V488.317C362.011 488.299 361.849 488.272 361.594 488.237C361.346 488.195 361.082 488.175 360.804 488.175C360.141 488.175 359.549 488.314 359.028 488.592C358.514 488.864 358.105 489.243 357.803 489.728C357.507 490.208 357.359 490.755 357.359 491.371V500H355.264ZM371.881 500V481.818H374.083V489.915H383.778V481.818H385.979V500H383.778V491.868H374.083V500H371.881ZM394.116 500.32C393.252 500.32 392.468 500.157 391.763 499.831C391.059 499.5 390.5 499.023 390.085 498.402C389.671 497.775 389.464 497.017 389.464 496.129C389.464 495.348 389.618 494.715 389.926 494.229C390.233 493.738 390.645 493.353 391.16 493.075C391.675 492.797 392.243 492.59 392.864 492.454C393.492 492.312 394.122 492.199 394.755 492.116C395.584 492.01 396.256 491.93 396.77 491.877C397.291 491.818 397.67 491.72 397.907 491.584C398.149 491.448 398.271 491.211 398.271 490.874V490.803C398.271 489.927 398.031 489.246 397.552 488.761C397.078 488.275 396.359 488.033 395.394 488.033C394.394 488.033 393.61 488.252 393.042 488.69C392.474 489.128 392.074 489.595 391.843 490.092L389.855 489.382C390.21 488.554 390.683 487.908 391.275 487.447C391.873 486.979 392.524 486.654 393.228 486.47C393.938 486.281 394.637 486.186 395.323 486.186C395.761 486.186 396.264 486.239 396.833 486.346C397.407 486.446 397.96 486.657 398.493 486.976C399.031 487.296 399.478 487.778 399.833 488.423C400.188 489.068 400.366 489.933 400.366 491.016V500H398.271V498.153H398.164C398.022 498.449 397.785 498.766 397.454 499.103C397.123 499.441 396.682 499.728 396.131 499.964C395.581 500.201 394.909 500.32 394.116 500.32ZM394.436 498.438C395.264 498.438 395.963 498.275 396.531 497.949C397.105 497.624 397.537 497.203 397.827 496.689C398.123 496.174 398.271 495.632 398.271 495.064V493.146C398.182 493.253 397.987 493.35 397.685 493.439C397.389 493.522 397.046 493.596 396.655 493.661C396.27 493.72 395.894 493.774 395.528 493.821C395.166 493.862 394.874 493.898 394.649 493.928C394.104 493.999 393.595 494.114 393.122 494.274C392.654 494.428 392.275 494.661 391.985 494.975C391.701 495.283 391.559 495.703 391.559 496.236C391.559 496.964 391.828 497.514 392.367 497.887C392.912 498.254 393.601 498.438 394.436 498.438ZM404.19 500V486.364H406.214V488.423H406.356C406.605 487.749 407.055 487.201 407.706 486.781C408.357 486.361 409.091 486.151 409.907 486.151C410.061 486.151 410.254 486.154 410.484 486.159C410.715 486.165 410.89 486.174 411.008 486.186V488.317C410.937 488.299 410.774 488.272 410.52 488.237C410.271 488.195 410.008 488.175 409.73 488.175C409.067 488.175 408.475 488.314 407.954 488.592C407.439 488.864 407.031 489.243 406.729 489.728C406.433 490.208 406.285 490.755 406.285 491.371V500H404.19ZM413.776 500V481.818H415.871V488.53H416.049C416.203 488.293 416.416 487.991 416.688 487.624C416.966 487.251 417.363 486.92 417.877 486.63C418.398 486.334 419.103 486.186 419.99 486.186C421.139 486.186 422.151 486.473 423.027 487.047C423.903 487.621 424.586 488.435 425.077 489.489C425.569 490.542 425.814 491.785 425.814 493.217C425.814 494.661 425.569 495.913 425.077 496.973C424.586 498.026 423.906 498.843 423.036 499.423C422.165 499.997 421.162 500.284 420.026 500.284C419.15 500.284 418.449 500.139 417.922 499.849C417.395 499.553 416.99 499.219 416.706 498.846C416.422 498.467 416.203 498.153 416.049 497.905H415.8V500H413.776ZM415.836 493.182C415.836 494.212 415.987 495.12 416.288 495.907C416.59 496.689 417.031 497.301 417.611 497.745C418.191 498.183 418.901 498.402 419.742 498.402C420.618 498.402 421.349 498.171 421.935 497.71C422.527 497.242 422.97 496.615 423.266 495.827C423.568 495.034 423.719 494.152 423.719 493.182C423.719 492.223 423.571 491.359 423.275 490.589C422.985 489.814 422.544 489.202 421.952 488.752C421.366 488.296 420.63 488.068 419.742 488.068C418.89 488.068 418.173 488.284 417.593 488.716C417.013 489.142 416.575 489.74 416.279 490.51C415.984 491.273 415.836 492.164 415.836 493.182ZM434.559 500.284C433.328 500.284 432.248 499.991 431.319 499.405C430.395 498.819 429.673 498 429.152 496.946C428.637 495.893 428.38 494.661 428.38 493.253C428.38 491.832 428.637 490.592 429.152 489.533C429.673 488.474 430.395 487.651 431.319 487.065C432.248 486.479 433.328 486.186 434.559 486.186C435.79 486.186 436.867 486.479 437.79 487.065C438.72 487.651 439.442 488.474 439.957 489.533C440.478 490.592 440.738 491.832 440.738 493.253C440.738 494.661 440.478 495.893 439.957 496.946C439.442 498 438.72 498.819 437.79 499.405C436.867 499.991 435.79 500.284 434.559 500.284ZM434.559 498.402C435.494 498.402 436.263 498.162 436.867 497.683C437.471 497.203 437.918 496.573 438.208 495.792C438.498 495.011 438.643 494.164 438.643 493.253C438.643 492.341 438.498 491.492 438.208 490.705C437.918 489.918 437.471 489.281 436.867 488.796C436.263 488.311 435.494 488.068 434.559 488.068C433.624 488.068 432.854 488.311 432.251 488.796C431.647 489.281 431.2 489.918 430.91 490.705C430.62 491.492 430.475 492.341 430.475 493.253C430.475 494.164 430.62 495.011 430.91 495.792C431.2 496.573 431.647 497.203 432.251 497.683C432.854 498.162 433.624 498.402 434.559 498.402ZM443.936 500V486.364H445.96V488.423H446.102C446.351 487.749 446.801 487.201 447.452 486.781C448.103 486.361 448.837 486.151 449.653 486.151C449.807 486.151 450 486.154 450.231 486.159C450.461 486.165 450.636 486.174 450.754 486.186V488.317C450.683 488.299 450.521 488.272 450.266 488.237C450.017 488.195 449.754 488.175 449.476 488.175C448.813 488.175 448.221 488.314 447.7 488.592C447.185 488.864 446.777 489.243 446.475 489.728C446.179 490.208 446.031 490.755 446.031 491.371V500H443.936Z" fill="black"/>
<path d="M129.504 468L124.533 449.818H126.77L130.57 464.626H130.747L134.618 449.818H137.104L140.974 464.626H141.152L144.952 449.818H147.189L142.217 468H139.945L135.932 453.511H135.79L131.777 468H129.504ZM152.391 468.32C151.527 468.32 150.743 468.157 150.039 467.831C149.334 467.5 148.775 467.023 148.361 466.402C147.946 465.775 147.739 465.017 147.739 464.129C147.739 463.348 147.893 462.715 148.201 462.229C148.509 461.738 148.92 461.353 149.435 461.075C149.95 460.797 150.518 460.59 151.14 460.454C151.767 460.312 152.397 460.199 153.031 460.116C153.859 460.01 154.531 459.93 155.046 459.877C155.567 459.818 155.945 459.72 156.182 459.584C156.425 459.448 156.546 459.211 156.546 458.874V458.803C156.546 457.927 156.306 457.246 155.827 456.761C155.354 456.275 154.634 456.033 153.67 456.033C152.67 456.033 151.885 456.252 151.317 456.69C150.749 457.128 150.349 457.595 150.119 458.092L148.13 457.382C148.485 456.554 148.959 455.908 149.55 455.447C150.148 454.979 150.799 454.654 151.504 454.47C152.214 454.281 152.912 454.186 153.599 454.186C154.037 454.186 154.54 454.239 155.108 454.346C155.682 454.446 156.235 454.657 156.768 454.976C157.307 455.296 157.754 455.778 158.109 456.423C158.464 457.068 158.641 457.933 158.641 459.016V468H156.546V466.153H156.44C156.298 466.449 156.061 466.766 155.729 467.103C155.398 467.441 154.957 467.728 154.407 467.964C153.856 468.201 153.184 468.32 152.391 468.32ZM152.711 466.438C153.54 466.438 154.238 466.275 154.806 465.949C155.38 465.624 155.812 465.203 156.102 464.689C156.398 464.174 156.546 463.632 156.546 463.064V461.146C156.457 461.253 156.262 461.35 155.96 461.439C155.664 461.522 155.321 461.596 154.93 461.661C154.546 461.72 154.17 461.774 153.803 461.821C153.442 461.862 153.149 461.898 152.924 461.928C152.379 461.999 151.871 462.114 151.397 462.274C150.929 462.428 150.551 462.661 150.261 462.975C149.977 463.283 149.835 463.703 149.835 464.236C149.835 464.964 150.104 465.514 150.642 465.887C151.187 466.254 151.876 466.438 152.711 466.438ZM168.396 454.364V456.139H161.329V454.364H168.396ZM163.389 451.097H165.484V464.094C165.484 464.686 165.57 465.129 165.741 465.425C165.919 465.715 166.144 465.911 166.416 466.011C166.694 466.106 166.987 466.153 167.295 466.153C167.526 466.153 167.715 466.142 167.863 466.118C168.011 466.088 168.13 466.065 168.218 466.047L168.644 467.929C168.502 467.982 168.304 468.036 168.05 468.089C167.795 468.148 167.473 468.178 167.082 468.178C166.49 468.178 165.91 468.05 165.342 467.796C164.78 467.541 164.312 467.154 163.939 466.633C163.572 466.112 163.389 465.455 163.389 464.662V451.097ZM177.118 468.284C175.804 468.284 174.671 467.994 173.718 467.414C172.771 466.828 172.04 466.011 171.525 464.964C171.016 463.91 170.762 462.685 170.762 461.288C170.762 459.892 171.016 458.661 171.525 457.595C172.04 456.524 172.756 455.689 173.674 455.092C174.597 454.488 175.674 454.186 176.905 454.186C177.616 454.186 178.317 454.304 179.009 454.541C179.702 454.778 180.332 455.163 180.9 455.695C181.468 456.222 181.921 456.92 182.259 457.79C182.596 458.661 182.765 459.732 182.765 461.004V461.892H172.253V460.081H180.634C180.634 459.312 180.48 458.625 180.172 458.021C179.87 457.418 179.438 456.941 178.876 456.592C178.32 456.243 177.663 456.068 176.905 456.068C176.071 456.068 175.349 456.275 174.739 456.69C174.135 457.098 173.671 457.631 173.345 458.288C173.02 458.945 172.857 459.649 172.857 460.401V461.608C172.857 462.638 173.035 463.511 173.39 464.227C173.751 464.937 174.251 465.479 174.89 465.852C175.529 466.219 176.272 466.402 177.118 466.402C177.669 466.402 178.166 466.325 178.61 466.171C179.06 466.011 179.447 465.775 179.773 465.461C180.098 465.141 180.35 464.745 180.527 464.271L182.552 464.839C182.339 465.526 181.98 466.13 181.477 466.651C180.974 467.165 180.353 467.568 179.613 467.858C178.873 468.142 178.042 468.284 177.118 468.284ZM185.952 468V454.364H187.976V456.423H188.118C188.367 455.749 188.816 455.201 189.467 454.781C190.118 454.361 190.852 454.151 191.669 454.151C191.823 454.151 192.015 454.154 192.246 454.159C192.477 454.165 192.652 454.174 192.77 454.186V456.317C192.699 456.299 192.536 456.272 192.282 456.237C192.033 456.195 191.77 456.175 191.492 456.175C190.829 456.175 190.237 456.314 189.716 456.592C189.201 456.864 188.793 457.243 188.491 457.728C188.195 458.208 188.047 458.755 188.047 459.371V468H185.952ZM206.819 454.364L201.777 468H199.646L194.603 454.364H196.876L200.64 465.23H200.782L204.546 454.364H206.819ZM209.585 468V454.364H211.68V468H209.585ZM210.65 452.091C210.242 452.091 209.889 451.952 209.593 451.674C209.303 451.395 209.158 451.061 209.158 450.67C209.158 450.28 209.303 449.945 209.593 449.667C209.889 449.389 210.242 449.25 210.65 449.25C211.058 449.25 211.408 449.389 211.698 449.667C211.993 449.945 212.141 450.28 212.141 450.67C212.141 451.061 211.993 451.395 211.698 451.674C211.408 451.952 211.058 452.091 210.65 452.091ZM217.612 449.818V468H215.517V449.818H217.612ZM223.545 449.818V468H221.45V449.818H223.545ZM233.1 468.284C231.786 468.284 230.652 467.994 229.7 467.414C228.753 466.828 228.022 466.011 227.507 464.964C226.998 463.91 226.743 462.685 226.743 461.288C226.743 459.892 226.998 458.661 227.507 457.595C228.022 456.524 228.738 455.689 229.655 455.092C230.578 454.488 231.656 454.186 232.887 454.186C233.597 454.186 234.298 454.304 234.991 454.541C235.683 454.778 236.314 455.163 236.882 455.695C237.45 456.222 237.903 456.92 238.24 457.79C238.577 458.661 238.746 459.732 238.746 461.004V461.892H228.235V460.081H236.615C236.615 459.312 236.462 458.625 236.154 458.021C235.852 457.418 235.42 456.941 234.858 456.592C234.301 456.243 233.644 456.068 232.887 456.068C232.052 456.068 231.33 456.275 230.721 456.69C230.117 457.098 229.652 457.631 229.327 458.288C229.001 458.945 228.838 459.649 228.838 460.401V461.608C228.838 462.638 229.016 463.511 229.371 464.227C229.732 464.937 230.232 465.479 230.871 465.852C231.511 466.219 232.253 466.402 233.1 466.402C233.65 466.402 234.147 466.325 234.591 466.171C235.041 466.011 235.429 465.775 235.754 465.461C236.08 465.141 236.331 464.745 236.509 464.271L238.533 464.839C238.32 465.526 237.962 466.13 237.459 466.651C236.956 467.165 236.334 467.568 235.594 467.858C234.855 468.142 234.023 468.284 233.1 468.284Z" fill="black"/>
<path d="M273.202 432V413.818H279.558C280.825 413.818 281.869 414.037 282.692 414.475C283.515 414.907 284.127 415.49 284.53 416.224C284.932 416.952 285.134 417.76 285.134 418.648C285.134 419.429 284.994 420.074 284.716 420.583C284.444 421.092 284.083 421.495 283.633 421.79C283.189 422.086 282.707 422.305 282.186 422.447V422.625C282.742 422.661 283.302 422.856 283.864 423.211C284.426 423.566 284.897 424.075 285.276 424.738C285.654 425.401 285.844 426.212 285.844 427.17C285.844 428.082 285.637 428.902 285.222 429.63C284.808 430.358 284.154 430.935 283.26 431.361C282.367 431.787 281.204 432 279.771 432H273.202ZM275.403 430.047H279.771C281.21 430.047 282.23 429.769 282.834 429.212C283.444 428.65 283.749 427.969 283.749 427.17C283.749 426.555 283.592 425.987 283.278 425.466C282.964 424.939 282.518 424.519 281.938 424.205C281.357 423.886 280.671 423.726 279.878 423.726H275.403V430.047ZM275.403 421.808H279.487C280.15 421.808 280.748 421.678 281.281 421.418C281.819 421.157 282.245 420.79 282.559 420.317C282.879 419.843 283.038 419.287 283.038 418.648C283.038 417.849 282.76 417.171 282.204 416.615C281.647 416.052 280.766 415.771 279.558 415.771H275.403V421.808ZM293.19 432.32C292.326 432.32 291.542 432.157 290.838 431.831C290.133 431.5 289.574 431.023 289.16 430.402C288.745 429.775 288.538 429.017 288.538 428.129C288.538 427.348 288.692 426.715 289 426.229C289.308 425.738 289.719 425.353 290.234 425.075C290.749 424.797 291.317 424.59 291.938 424.454C292.566 424.312 293.196 424.199 293.829 424.116C294.658 424.01 295.33 423.93 295.845 423.877C296.365 423.818 296.744 423.72 296.981 423.584C297.224 423.448 297.345 423.211 297.345 422.874V422.803C297.345 421.927 297.105 421.246 296.626 420.761C296.152 420.275 295.433 420.033 294.469 420.033C293.468 420.033 292.684 420.252 292.116 420.69C291.548 421.128 291.148 421.595 290.917 422.092L288.929 421.382C289.284 420.554 289.757 419.908 290.349 419.447C290.947 418.979 291.598 418.654 292.302 418.47C293.013 418.281 293.711 418.186 294.398 418.186C294.836 418.186 295.339 418.239 295.907 418.346C296.481 418.446 297.034 418.657 297.567 418.976C298.106 419.296 298.552 419.778 298.907 420.423C299.263 421.068 299.44 421.933 299.44 423.016V432H297.345V430.153H297.238C297.096 430.449 296.86 430.766 296.528 431.103C296.197 431.441 295.756 431.728 295.205 431.964C294.655 432.201 293.983 432.32 293.19 432.32ZM293.51 430.438C294.338 430.438 295.037 430.275 295.605 429.949C296.179 429.624 296.611 429.203 296.901 428.689C297.197 428.174 297.345 427.632 297.345 427.064V425.146C297.256 425.253 297.061 425.35 296.759 425.439C296.463 425.522 296.12 425.596 295.729 425.661C295.345 425.72 294.969 425.774 294.602 425.821C294.241 425.862 293.948 425.898 293.723 425.928C293.178 425.999 292.669 426.114 292.196 426.274C291.728 426.428 291.349 426.661 291.059 426.975C290.775 427.283 290.633 427.703 290.633 428.236C290.633 428.964 290.903 429.514 291.441 429.887C291.986 430.254 292.675 430.438 293.51 430.438ZM305.359 423.797V432H303.264V418.364H305.288V420.494H305.466C305.786 419.802 306.271 419.246 306.922 418.825C307.573 418.399 308.413 418.186 309.443 418.186C310.367 418.186 311.174 418.375 311.867 418.754C312.559 419.127 313.098 419.695 313.483 420.459C313.867 421.216 314.06 422.175 314.06 423.335V432H311.965V423.477C311.965 422.406 311.686 421.571 311.13 420.974C310.574 420.37 309.81 420.068 308.84 420.068C308.171 420.068 307.573 420.213 307.046 420.503C306.525 420.793 306.114 421.216 305.812 421.773C305.51 422.329 305.359 423.004 305.359 423.797ZM323.393 437.398C322.381 437.398 321.51 437.268 320.782 437.007C320.055 436.753 319.448 436.415 318.963 435.995C318.483 435.581 318.101 435.137 317.817 434.663L319.486 433.491C319.676 433.74 319.915 434.024 320.205 434.344C320.495 434.669 320.892 434.95 321.395 435.187C321.904 435.43 322.57 435.551 323.393 435.551C324.493 435.551 325.402 435.285 326.118 434.752C326.834 434.219 327.192 433.385 327.192 432.249V429.479H327.015C326.861 429.727 326.642 430.035 326.358 430.402C326.08 430.763 325.677 431.086 325.15 431.37C324.63 431.648 323.925 431.787 323.037 431.787C321.937 431.787 320.948 431.527 320.072 431.006C319.202 430.485 318.513 429.727 318.004 428.733C317.501 427.739 317.249 426.531 317.249 425.111C317.249 423.714 317.495 422.498 317.986 421.462C318.477 420.42 319.161 419.615 320.037 419.047C320.913 418.473 321.925 418.186 323.073 418.186C323.961 418.186 324.665 418.334 325.186 418.63C325.713 418.92 326.115 419.251 326.393 419.624C326.677 419.991 326.896 420.293 327.05 420.53H327.263V418.364H329.287V432.391C329.287 433.562 329.021 434.515 328.488 435.249C327.962 435.989 327.251 436.531 326.358 436.874C325.47 437.223 324.482 437.398 323.393 437.398ZM323.322 429.905C324.162 429.905 324.872 429.712 325.452 429.328C326.032 428.943 326.473 428.39 326.775 427.668C327.077 426.946 327.228 426.081 327.228 425.075C327.228 424.093 327.08 423.226 326.784 422.474C326.488 421.722 326.05 421.134 325.47 420.707C324.89 420.281 324.174 420.068 323.322 420.068C322.434 420.068 321.694 420.293 321.102 420.743C320.516 421.193 320.075 421.796 319.779 422.554C319.489 423.312 319.344 424.152 319.344 425.075C319.344 426.022 319.492 426.86 319.788 427.588C320.09 428.31 320.534 428.878 321.12 429.292C321.712 429.701 322.446 429.905 323.322 429.905ZM338.662 432.284C337.431 432.284 336.351 431.991 335.422 431.405C334.499 430.819 333.777 430 333.256 428.946C332.741 427.893 332.483 426.661 332.483 425.253C332.483 423.832 332.741 422.592 333.256 421.533C333.777 420.474 334.499 419.651 335.422 419.065C336.351 418.479 337.431 418.186 338.662 418.186C339.894 418.186 340.971 418.479 341.894 419.065C342.823 419.651 343.545 420.474 344.06 421.533C344.581 422.592 344.841 423.832 344.841 425.253C344.841 426.661 344.581 427.893 344.06 428.946C343.545 430 342.823 430.819 341.894 431.405C340.971 431.991 339.894 432.284 338.662 432.284ZM338.662 430.402C339.598 430.402 340.367 430.162 340.971 429.683C341.574 429.203 342.021 428.573 342.311 427.792C342.601 427.011 342.746 426.164 342.746 425.253C342.746 424.341 342.601 423.492 342.311 422.705C342.021 421.918 341.574 421.281 340.971 420.796C340.367 420.311 339.598 420.068 338.662 420.068C337.727 420.068 336.958 420.311 336.354 420.796C335.751 421.281 335.304 421.918 335.014 422.705C334.724 423.492 334.579 424.341 334.579 425.253C334.579 426.164 334.724 427.011 335.014 427.792C335.304 428.573 335.751 429.203 336.354 429.683C336.958 430.162 337.727 430.402 338.662 430.402ZM348.04 432V418.364H350.064V420.423H350.206C350.454 419.749 350.904 419.201 351.555 418.781C352.206 418.361 352.94 418.151 353.757 418.151C353.911 418.151 354.103 418.154 354.334 418.159C354.565 418.165 354.739 418.174 354.858 418.186V420.317C354.787 420.299 354.624 420.272 354.37 420.237C354.121 420.195 353.858 420.175 353.579 420.175C352.917 420.175 352.325 420.314 351.804 420.592C351.289 420.864 350.881 421.243 350.579 421.728C350.283 422.208 350.135 422.755 350.135 423.371V432H348.04Z" fill="black"/>
<circle cx="195.511" cy="528.511" r="9.01136" fill="#FF8F87" stroke="black"/>
<path d="M155.714 558H151.595L157.871 539.818H162.825L169.093 558H164.974L160.419 543.973H160.277L155.714 558ZM155.457 550.853H165.187V553.854H155.457V550.853ZM179.955 552.194V544.364H183.737V558H180.106V555.523H179.964C179.656 556.322 179.144 556.964 178.428 557.45C177.718 557.935 176.851 558.178 175.827 558.178C174.915 558.178 174.113 557.97 173.421 557.556C172.729 557.142 172.187 556.553 171.796 555.789C171.412 555.026 171.216 554.112 171.21 553.046V544.364H174.992V552.371C174.998 553.176 175.214 553.813 175.64 554.28C176.067 554.748 176.638 554.982 177.354 554.982C177.81 554.982 178.236 554.878 178.632 554.671C179.029 554.458 179.348 554.144 179.591 553.73C179.84 553.315 179.961 552.804 179.955 552.194ZM192.906 563.398C191.68 563.398 190.63 563.229 189.754 562.892C188.884 562.56 188.191 562.107 187.677 561.533C187.162 560.959 186.827 560.314 186.673 559.598L190.171 559.127C190.278 559.4 190.446 559.654 190.677 559.891C190.908 560.128 191.213 560.317 191.592 560.459C191.976 560.607 192.444 560.681 192.994 560.681C193.817 560.681 194.495 560.48 195.027 560.077C195.566 559.681 195.835 559.015 195.835 558.08V555.585H195.676C195.51 555.964 195.261 556.322 194.93 556.659C194.598 556.997 194.172 557.272 193.651 557.485C193.131 557.698 192.509 557.805 191.787 557.805C190.763 557.805 189.831 557.568 188.991 557.094C188.156 556.615 187.49 555.884 186.993 554.902C186.502 553.913 186.256 552.664 186.256 551.155C186.256 549.61 186.508 548.32 187.011 547.284C187.514 546.249 188.183 545.473 189.017 544.958C189.858 544.444 190.778 544.186 191.778 544.186C192.542 544.186 193.181 544.316 193.696 544.577C194.211 544.831 194.625 545.151 194.939 545.536C195.258 545.914 195.504 546.287 195.676 546.654H195.818V544.364H199.573V558.133C199.573 559.293 199.289 560.264 198.721 561.045C198.152 561.826 197.365 562.412 196.359 562.803C195.359 563.199 194.208 563.398 192.906 563.398ZM192.986 554.964C193.595 554.964 194.11 554.813 194.53 554.511C194.956 554.203 195.282 553.765 195.507 553.197C195.738 552.623 195.853 551.936 195.853 551.137C195.853 550.338 195.741 549.646 195.516 549.06C195.291 548.468 194.965 548.009 194.539 547.684C194.113 547.358 193.595 547.196 192.986 547.196C192.364 547.196 191.84 547.364 191.414 547.702C190.988 548.033 190.665 548.495 190.446 549.087C190.227 549.679 190.118 550.362 190.118 551.137C190.118 551.925 190.227 552.605 190.446 553.179C190.671 553.748 190.994 554.188 191.414 554.502C191.84 554.81 192.364 554.964 192.986 554.964ZM211.327 552.194V544.364H215.109V558H211.478V555.523H211.336C211.028 556.322 210.516 556.964 209.8 557.45C209.09 557.935 208.223 558.178 207.199 558.178C206.287 558.178 205.486 557.97 204.793 557.556C204.101 557.142 203.559 556.553 203.168 555.789C202.784 555.026 202.588 554.112 202.582 553.046V544.364H206.364V552.371C206.37 553.176 206.586 553.813 207.013 554.28C207.439 554.748 208.01 554.982 208.726 554.982C209.182 554.982 209.608 554.878 210.004 554.671C210.401 554.458 210.72 554.144 210.963 553.73C211.212 553.315 211.333 552.804 211.327 552.194ZM229.48 548.252L226.018 548.465C225.959 548.169 225.831 547.903 225.636 547.666C225.441 547.424 225.183 547.231 224.864 547.089C224.55 546.941 224.174 546.867 223.736 546.867C223.15 546.867 222.656 546.991 222.254 547.24C221.851 547.483 221.65 547.808 221.65 548.217C221.65 548.542 221.78 548.817 222.04 549.042C222.301 549.267 222.748 549.448 223.381 549.584L225.849 550.081C227.175 550.353 228.163 550.791 228.814 551.395C229.465 551.999 229.791 552.792 229.791 553.774C229.791 554.668 229.527 555.452 229.001 556.127C228.48 556.801 227.764 557.328 226.852 557.707C225.947 558.08 224.902 558.266 223.718 558.266C221.913 558.266 220.475 557.891 219.404 557.139C218.338 556.381 217.714 555.351 217.531 554.049L221.25 553.854C221.363 554.404 221.635 554.825 222.067 555.115C222.499 555.399 223.053 555.541 223.727 555.541C224.39 555.541 224.923 555.414 225.325 555.159C225.734 554.899 225.941 554.564 225.947 554.156C225.941 553.813 225.796 553.531 225.512 553.312C225.228 553.088 224.79 552.916 224.198 552.798L221.836 552.327C220.505 552.061 219.513 551.599 218.862 550.942C218.217 550.285 217.895 549.448 217.895 548.43C217.895 547.554 218.131 546.799 218.605 546.166C219.084 545.533 219.756 545.044 220.62 544.701C221.49 544.358 222.508 544.186 223.674 544.186C225.396 544.186 226.752 544.55 227.74 545.278C228.734 546.006 229.314 546.997 229.48 548.252ZM239.426 544.364V547.205H231.214V544.364H239.426ZM233.078 541.097H236.86V553.81C236.86 554.159 236.913 554.431 237.02 554.626C237.126 554.816 237.274 554.949 237.464 555.026C237.659 555.103 237.884 555.141 238.138 555.141C238.316 555.141 238.493 555.127 238.671 555.097C238.848 555.061 238.985 555.035 239.079 555.017L239.674 557.831C239.485 557.891 239.218 557.959 238.875 558.036C238.532 558.118 238.115 558.169 237.623 558.186C236.712 558.222 235.913 558.101 235.226 557.822C234.546 557.544 234.016 557.112 233.637 556.526C233.258 555.94 233.072 555.201 233.078 554.307V541.097ZM245.778 558.257C244.908 558.257 244.132 558.107 243.452 557.805C242.771 557.497 242.232 557.044 241.836 556.446C241.445 555.843 241.25 555.091 241.25 554.191C241.25 553.434 241.389 552.798 241.667 552.283C241.945 551.768 242.324 551.353 242.804 551.04C243.283 550.726 243.827 550.489 244.437 550.33C245.053 550.17 245.698 550.057 246.372 549.992C247.166 549.909 247.805 549.832 248.29 549.761C248.775 549.684 249.128 549.572 249.347 549.424C249.565 549.276 249.675 549.057 249.675 548.767V548.714C249.675 548.152 249.497 547.717 249.142 547.409C248.793 547.101 248.296 546.947 247.651 546.947C246.97 546.947 246.429 547.098 246.026 547.4C245.624 547.696 245.357 548.069 245.227 548.518L241.729 548.234C241.907 547.406 242.256 546.69 242.777 546.086C243.298 545.476 243.969 545.009 244.792 544.683C245.621 544.352 246.58 544.186 247.669 544.186C248.426 544.186 249.151 544.275 249.844 544.452C250.542 544.63 251.161 544.905 251.699 545.278C252.244 545.651 252.673 546.13 252.986 546.716C253.3 547.296 253.457 547.992 253.457 548.803V558H249.87V556.109H249.764C249.545 556.535 249.252 556.911 248.885 557.237C248.518 557.556 248.077 557.808 247.562 557.991C247.047 558.169 246.452 558.257 245.778 558.257ZM246.861 555.647C247.417 555.647 247.908 555.538 248.334 555.319C248.761 555.094 249.095 554.792 249.338 554.413C249.58 554.035 249.702 553.605 249.702 553.126V551.679C249.583 551.756 249.42 551.827 249.213 551.892C249.012 551.951 248.784 552.007 248.53 552.061C248.275 552.108 248.021 552.152 247.766 552.194C247.512 552.229 247.281 552.262 247.074 552.292C246.63 552.357 246.242 552.46 245.911 552.602C245.579 552.744 245.322 552.937 245.138 553.179C244.955 553.416 244.863 553.712 244.863 554.067C244.863 554.582 245.05 554.976 245.422 555.248C245.801 555.514 246.281 555.647 246.861 555.647Z" fill="black"/>
</svg>
