<svg width="824" height="541" viewBox="0 0 824 541" fill="none" xmlns="http://www.w3.org/2000/svg">
<rect x="0.5" y="0.5" width="823" height="540" rx="35.5" fill="#202637" stroke="#717171"/>
<path d="M103.004 72.8826L104.151 83.5639L106.493 87.6354" stroke="#FFE587" stroke-width="2"/>
<path d="M177.057 50.5455L181.599 64.2841H181.778L186.312 50.5455H189.79L183.636 68H179.733L173.588 50.5455H177.057ZM191.322 53.196V50.5455H205.248V53.196H199.853V68H196.717V53.196H191.322Z" fill="#FFE587"/>
<path d="M433.065 51.5455V69H430.253L422.028 57.1108H421.884V69H418.722V51.5455H421.551L429.767 63.4432H429.92V51.5455H433.065ZM436.511 69V51.5455H439.673V58.9347H447.761V51.5455H450.931V69H447.761V61.5852H439.673V69H436.511Z" fill="#FFE587"/>
<path d="M430.722 340V322.545H437.267C438.608 322.545 439.733 322.778 440.642 323.244C441.557 323.71 442.247 324.364 442.713 325.205C443.185 326.04 443.42 327.014 443.42 328.128C443.42 329.247 443.182 330.219 442.705 331.043C442.233 331.861 441.537 332.494 440.616 332.943C439.696 333.386 438.565 333.608 437.224 333.608H432.562V330.983H436.798C437.582 330.983 438.224 330.875 438.724 330.659C439.224 330.437 439.594 330.116 439.832 329.696C440.077 329.27 440.199 328.747 440.199 328.128C440.199 327.509 440.077 326.98 439.832 326.543C439.588 326.099 439.216 325.764 438.716 325.537C438.216 325.304 437.571 325.188 436.781 325.188H433.884V340H430.722ZM439.739 332.091L444.06 340H440.531L436.287 332.091H439.739ZM449.493 322.545V340H446.331V322.545H449.493Z" fill="#FFE587"/>
<path d="M235.662 318.435H232.474C232.384 317.912 232.216 317.449 231.972 317.045C231.727 316.636 231.423 316.29 231.06 316.006C230.696 315.722 230.281 315.509 229.815 315.366C229.355 315.219 228.858 315.145 228.324 315.145C227.375 315.145 226.534 315.384 225.801 315.861C225.068 316.332 224.494 317.026 224.08 317.94C223.665 318.849 223.457 319.96 223.457 321.273C223.457 322.608 223.665 323.733 224.08 324.648C224.5 325.557 225.074 326.244 225.801 326.71C226.534 327.17 227.372 327.401 228.315 327.401C228.838 327.401 229.327 327.332 229.781 327.196C230.241 327.054 230.653 326.847 231.017 326.574C231.386 326.301 231.696 325.966 231.946 325.568C232.202 325.17 232.378 324.716 232.474 324.205L235.662 324.222C235.543 325.051 235.284 325.83 234.886 326.557C234.494 327.284 233.98 327.926 233.344 328.483C232.707 329.034 231.963 329.466 231.111 329.778C230.259 330.085 229.313 330.239 228.273 330.239C226.739 330.239 225.369 329.884 224.165 329.173C222.96 328.463 222.011 327.438 221.318 326.097C220.625 324.756 220.278 323.148 220.278 321.273C220.278 319.392 220.628 317.784 221.327 316.449C222.026 315.108 222.977 314.082 224.182 313.372C225.386 312.662 226.75 312.307 228.273 312.307C229.244 312.307 230.148 312.443 230.983 312.716C231.818 312.989 232.563 313.389 233.216 313.918C233.869 314.44 234.406 315.082 234.827 315.844C235.253 316.599 235.531 317.463 235.662 318.435ZM237.79 315.196V312.545H251.717V315.196H246.322V330H243.185V315.196H237.79Z" fill="#FFE587"/>
<path d="M43.0653 157.545V175H40.2528L32.0284 163.111H31.8835V175H28.7216V157.545H31.5511L39.767 169.443H39.9205V157.545H43.0653ZM45.3175 157.545H48.8885L53.1584 165.267H53.3288L57.5987 157.545H61.1697L54.8203 168.489V175H51.6669V168.489L45.3175 157.545Z" fill="#FFE587"/>
<path d="M598 63.5L598 52.5L591.5 54L575.576 47L567.5 52.5L556 54L552 57L548 69.5L535 65.5L527.5 68L522.5 74.5L522.5 87.5L515.5 85.5L510.5 87.5L501.5 99L106.5 86L57.5 267.5L61 275.5L197 279.5V289.5L206 288L209.5 279.5H234L240.5 282L247.5 279.5L400 282L402 286L484 283.5V318L490.5 316.5L494 320.5L492 337.5L495.848 347.723L505 353L511.5 360.5L521.5 367.5L523 377L534 380.5L532.5 386.5L531.5 394L536 401V424.5L542 422L552 424.5L559 422L565.5 420.5L567.5 414.5L571.5 416.5L575.5 412L573.5 402.5L577 396.5L581.5 398L580.266 389.5H585L588.5 401L592 399.5L597.5 398L592 389.5L601 387.5L599.025 382.5H610L611 370.5L619 377L617.5 360.5L631 364.5L636.544 360.5L633 373.5L638.5 380.5L631 383.5V394V401L626.5 414.5L629.5 418.205L636.544 412L655.5 409H666L671 398L677 394H686L692 389.5L706 387.5L712 389.5L725 383.5L771 382L769.5 368L764 362L769.5 360.5L768 349.5L775.5 357.5L773.5 341.5L769.5 340L773.5 335L769.5 318L760.5 293L750.5 277.5L734 266.5H719L712 270L716 274L720.962 281.5L730.342 272.5L740 280L744.5 288.5L746.5 313.5L753 310.5L760.5 315L759 323.5L759 344.5C754.31 346.066 747.504 352.422 740 352.422C732.496 352.422 722.253 354.301 716 359L706 366.518L703 360.5L671 355.5L661 347.723L653.5 337.5L655.5 328L655.5 318L650.614 306.5L644 302H631.855L622.5 294.5L620 286.639H625.127L628.5 280L631.855 274L633.5 265L617.5 244L616 232L610.5 225L609 220.5L605 222.5L600.5 217.5H596L591.5 216L587.5 211.5L585 203.5L583 207L585 220.5L578.5 217.5L576 220.5L572.5 217.5L569 214.5L567.5 217.5L562.5 216L559 211.5L556.5 207H552.5L554.5 200.5L559 198.5C560.563 193.801 561.969 175.571 567.5 170.5C573.5 165 577.5 164.5 580.5 164.5L593.5 152L591.5 148L583 152L585 144.5L591.5 141L609 135L621 133L625.5 125.5L629 124L629 131.578L636.5 122.5L642 116.5L642 111L638 108.5L638 103L633.5 101L617.5 111H610.5L610.5 103L598 94V83.5L603.715 95.5H607L602 80.5L599 66.5L598 73L588 68L598 63.5Z" fill="#97DCFF" stroke="white"/>
<circle cx="550.511" cy="193.511" r="9.01136" fill="#FF8F87" stroke="black"/>
<path d="M473.58 179V160.818H480.86C482.198 160.818 483.313 161.016 484.207 161.413C485.101 161.81 485.772 162.36 486.222 163.064C486.672 163.763 486.897 164.568 486.897 165.479C486.897 166.189 486.755 166.814 486.471 167.352C486.187 167.885 485.796 168.323 485.299 168.666C484.808 169.004 484.246 169.243 483.612 169.385V169.563C484.305 169.592 484.953 169.788 485.556 170.149C486.166 170.51 486.66 171.016 487.039 171.667C487.418 172.312 487.607 173.081 487.607 173.975C487.607 174.94 487.368 175.801 486.888 176.559C486.415 177.31 485.713 177.905 484.784 178.343C483.855 178.781 482.71 179 481.348 179H473.58ZM477.424 175.857H480.558C481.629 175.857 482.411 175.653 482.902 175.245C483.393 174.83 483.639 174.28 483.639 173.593C483.639 173.09 483.518 172.646 483.275 172.262C483.032 171.877 482.686 171.575 482.236 171.356C481.792 171.137 481.263 171.028 480.647 171.028H477.424V175.857ZM477.424 168.426H480.274C480.801 168.426 481.268 168.335 481.677 168.151C482.091 167.962 482.417 167.696 482.653 167.352C482.896 167.009 483.017 166.598 483.017 166.118C483.017 165.461 482.784 164.932 482.316 164.529C481.854 164.127 481.197 163.925 480.345 163.925H477.424V168.426ZM496.199 179.266C494.82 179.266 493.627 178.973 492.621 178.387C491.621 177.796 490.848 176.973 490.304 175.919C489.759 174.86 489.487 173.632 489.487 172.235C489.487 170.826 489.759 169.595 490.304 168.542C490.848 167.482 491.621 166.66 492.621 166.074C493.627 165.482 494.82 165.186 496.199 165.186C497.578 165.186 498.767 165.482 499.768 166.074C500.774 166.66 501.549 167.482 502.094 168.542C502.638 169.595 502.91 170.826 502.91 172.235C502.91 173.632 502.638 174.86 502.094 175.919C501.549 176.973 500.774 177.796 499.768 178.387C498.767 178.973 497.578 179.266 496.199 179.266ZM496.217 176.337C496.844 176.337 497.368 176.159 497.788 175.804C498.208 175.443 498.525 174.952 498.738 174.33C498.957 173.709 499.066 173.002 499.066 172.208C499.066 171.415 498.957 170.708 498.738 170.087C498.525 169.465 498.208 168.974 497.788 168.613C497.368 168.252 496.844 168.071 496.217 168.071C495.583 168.071 495.051 168.252 494.619 168.613C494.192 168.974 493.87 169.465 493.651 170.087C493.438 170.708 493.331 171.415 493.331 172.208C493.331 173.002 493.438 173.709 493.651 174.33C493.87 174.952 494.192 175.443 494.619 175.804C495.051 176.159 495.583 176.337 496.217 176.337ZM516.715 169.252L513.253 169.465C513.194 169.169 513.067 168.903 512.871 168.666C512.676 168.424 512.419 168.231 512.099 168.089C511.785 167.941 511.409 167.867 510.972 167.867C510.386 167.867 509.891 167.991 509.489 168.24C509.086 168.483 508.885 168.808 508.885 169.217C508.885 169.542 509.015 169.817 509.276 170.042C509.536 170.267 509.983 170.448 510.616 170.584L513.084 171.081C514.41 171.353 515.399 171.791 516.05 172.395C516.701 172.999 517.026 173.792 517.026 174.774C517.026 175.668 516.763 176.452 516.236 177.127C515.715 177.801 514.999 178.328 514.088 178.707C513.182 179.08 512.137 179.266 510.954 179.266C509.149 179.266 507.71 178.891 506.639 178.139C505.574 177.381 504.949 176.351 504.766 175.049L508.486 174.854C508.598 175.404 508.87 175.825 509.302 176.115C509.735 176.399 510.288 176.541 510.963 176.541C511.626 176.541 512.158 176.414 512.561 176.159C512.969 175.899 513.176 175.564 513.182 175.156C513.176 174.813 513.031 174.531 512.747 174.312C512.463 174.088 512.025 173.916 511.433 173.798L509.072 173.327C507.74 173.061 506.749 172.599 506.098 171.942C505.452 171.285 505.13 170.448 505.13 169.43C505.13 168.554 505.367 167.799 505.84 167.166C506.32 166.533 506.991 166.044 507.855 165.701C508.725 165.358 509.743 165.186 510.909 165.186C512.632 165.186 513.987 165.55 514.975 166.278C515.97 167.006 516.55 167.997 516.715 169.252ZM526.661 165.364V168.205H518.449V165.364H526.661ZM520.313 162.097H524.095V174.81C524.095 175.159 524.148 175.431 524.255 175.626C524.362 175.816 524.509 175.949 524.699 176.026C524.894 176.103 525.119 176.141 525.374 176.141C525.551 176.141 525.729 176.127 525.906 176.097C526.084 176.061 526.22 176.035 526.315 176.017L526.909 178.831C526.72 178.891 526.454 178.959 526.11 179.036C525.767 179.118 525.35 179.169 524.859 179.186C523.947 179.222 523.148 179.101 522.462 178.822C521.781 178.544 521.251 178.112 520.873 177.526C520.494 176.94 520.307 176.201 520.313 175.307V162.097ZM535.139 179.266C533.76 179.266 532.568 178.973 531.561 178.387C530.561 177.796 529.789 176.973 529.244 175.919C528.7 174.86 528.428 173.632 528.428 172.235C528.428 170.826 528.7 169.595 529.244 168.542C529.789 167.482 530.561 166.66 531.561 166.074C532.568 165.482 533.76 165.186 535.139 165.186C536.518 165.186 537.708 165.482 538.708 166.074C539.714 166.66 540.49 167.482 541.034 168.542C541.579 169.595 541.851 170.826 541.851 172.235C541.851 173.632 541.579 174.86 541.034 175.919C540.49 176.973 539.714 177.796 538.708 178.387C537.708 178.973 536.518 179.266 535.139 179.266ZM535.157 176.337C535.784 176.337 536.308 176.159 536.728 175.804C537.149 175.443 537.465 174.952 537.678 174.33C537.897 173.709 538.007 173.002 538.007 172.208C538.007 171.415 537.897 170.708 537.678 170.087C537.465 169.465 537.149 168.974 536.728 168.613C536.308 168.252 535.784 168.071 535.157 168.071C534.524 168.071 533.991 168.252 533.559 168.613C533.133 168.974 532.81 169.465 532.591 170.087C532.378 170.708 532.272 171.415 532.272 172.208C532.272 173.002 532.378 173.709 532.591 174.33C532.81 174.952 533.133 175.443 533.559 175.804C533.991 176.159 534.524 176.337 535.157 176.337ZM548.092 171.116V179H544.31V165.364H547.914V167.77H548.074C548.376 166.976 548.882 166.349 549.592 165.887C550.303 165.42 551.164 165.186 552.176 165.186C553.123 165.186 553.948 165.393 554.653 165.808C555.357 166.222 555.904 166.814 556.295 167.583C556.686 168.347 556.881 169.258 556.881 170.317V179H553.099V170.992C553.105 170.158 552.892 169.507 552.46 169.039C552.028 168.566 551.433 168.329 550.675 168.329C550.166 168.329 549.717 168.438 549.326 168.657C548.941 168.876 548.639 169.196 548.42 169.616C548.207 170.03 548.098 170.531 548.092 171.116Z" fill="black"/>
<path d="M160.145 232.364C160.038 231.464 159.606 230.766 158.849 230.268C158.091 229.771 157.162 229.523 156.061 229.523C155.256 229.523 154.552 229.653 153.948 229.913C153.35 230.174 152.883 230.532 152.545 230.988C152.214 231.443 152.048 231.961 152.048 232.541C152.048 233.027 152.164 233.444 152.395 233.793C152.631 234.136 152.933 234.423 153.3 234.654C153.667 234.879 154.052 235.065 154.454 235.213C154.857 235.355 155.227 235.471 155.564 235.56L157.411 236.057C157.884 236.181 158.411 236.353 158.991 236.572C159.577 236.791 160.136 237.09 160.669 237.468C161.207 237.841 161.651 238.321 162 238.907C162.35 239.493 162.524 240.212 162.524 241.064C162.524 242.046 162.267 242.934 161.752 243.727C161.243 244.52 160.497 245.151 159.515 245.618C158.538 246.086 157.351 246.32 155.955 246.32C154.652 246.32 153.525 246.109 152.572 245.689C151.625 245.269 150.879 244.683 150.335 243.931C149.796 243.18 149.491 242.307 149.42 241.312H151.693C151.752 241.999 151.983 242.567 152.386 243.017C152.794 243.461 153.309 243.792 153.93 244.011C154.558 244.224 155.232 244.331 155.955 244.331C156.795 244.331 157.55 244.195 158.218 243.923C158.887 243.644 159.417 243.26 159.808 242.768C160.198 242.271 160.393 241.691 160.393 241.028C160.393 240.425 160.225 239.933 159.887 239.555C159.55 239.176 159.106 238.868 158.556 238.631C158.005 238.395 157.411 238.187 156.771 238.01L154.534 237.371C153.114 236.962 151.989 236.379 151.161 235.622C150.332 234.864 149.918 233.873 149.918 232.648C149.918 231.63 150.193 230.742 150.743 229.984C151.3 229.221 152.045 228.629 152.98 228.209C153.922 227.783 154.972 227.57 156.132 227.57C157.304 227.57 158.346 227.78 159.257 228.2C160.169 228.614 160.891 229.182 161.423 229.904C161.962 230.627 162.246 231.446 162.276 232.364H160.145ZM165.86 251.114V232.364H167.884V234.53H168.133C168.287 234.293 168.5 233.991 168.772 233.624C169.05 233.251 169.447 232.92 169.962 232.63C170.482 232.334 171.187 232.186 172.074 232.186C173.223 232.186 174.235 232.473 175.111 233.047C175.987 233.621 176.67 234.435 177.161 235.489C177.653 236.542 177.898 237.785 177.898 239.217C177.898 240.661 177.653 241.913 177.161 242.973C176.67 244.026 175.99 244.843 175.12 245.423C174.25 245.997 173.246 246.284 172.11 246.284C171.234 246.284 170.533 246.139 170.006 245.849C169.479 245.553 169.074 245.219 168.79 244.846C168.506 244.467 168.287 244.153 168.133 243.905H167.955V251.114H165.86ZM167.92 239.182C167.92 240.212 168.071 241.12 168.372 241.907C168.674 242.689 169.115 243.301 169.695 243.745C170.275 244.183 170.985 244.402 171.826 244.402C172.702 244.402 173.433 244.171 174.019 243.71C174.611 243.242 175.054 242.615 175.35 241.827C175.652 241.034 175.803 240.152 175.803 239.182C175.803 238.223 175.655 237.359 175.359 236.589C175.069 235.814 174.628 235.202 174.036 234.752C173.451 234.296 172.714 234.068 171.826 234.068C170.974 234.068 170.257 234.284 169.677 234.716C169.097 235.142 168.659 235.74 168.364 236.51C168.068 237.273 167.92 238.164 167.92 239.182ZM181.094 246V232.364H183.119V234.423H183.261C183.509 233.749 183.959 233.201 184.61 232.781C185.261 232.361 185.995 232.151 186.812 232.151C186.966 232.151 187.158 232.154 187.389 232.159C187.62 232.165 187.794 232.174 187.913 232.186V234.317C187.842 234.299 187.679 234.272 187.424 234.237C187.176 234.195 186.912 234.175 186.634 234.175C185.971 234.175 185.379 234.314 184.859 234.592C184.344 234.864 183.935 235.243 183.633 235.728C183.338 236.208 183.19 236.755 183.19 237.371V246H181.094ZM190.396 246V232.364H192.491V246H190.396ZM191.461 230.091C191.053 230.091 190.701 229.952 190.405 229.674C190.115 229.395 189.97 229.061 189.97 228.67C189.97 228.28 190.115 227.945 190.405 227.667C190.701 227.389 191.053 227.25 191.461 227.25C191.87 227.25 192.219 227.389 192.509 227.667C192.805 227.945 192.953 228.28 192.953 228.67C192.953 229.061 192.805 229.395 192.509 229.674C192.219 229.952 191.87 230.091 191.461 230.091ZM198.424 237.797V246H196.329V232.364H198.353V234.494H198.53C198.85 233.802 199.335 233.246 199.986 232.825C200.637 232.399 201.478 232.186 202.508 232.186C203.431 232.186 204.239 232.375 204.931 232.754C205.624 233.127 206.162 233.695 206.547 234.459C206.932 235.216 207.124 236.175 207.124 237.335V246H205.029V237.477C205.029 236.406 204.751 235.571 204.195 234.974C203.638 234.37 202.875 234.068 201.904 234.068C201.235 234.068 200.637 234.213 200.111 234.503C199.59 234.793 199.179 235.216 198.877 235.773C198.575 236.329 198.424 237.004 198.424 237.797ZM216.457 251.398C215.445 251.398 214.575 251.268 213.847 251.007C213.119 250.753 212.512 250.415 212.027 249.995C211.548 249.581 211.166 249.137 210.882 248.663L212.551 247.491C212.74 247.74 212.98 248.024 213.27 248.344C213.56 248.669 213.956 248.95 214.46 249.187C214.969 249.43 215.634 249.551 216.457 249.551C217.558 249.551 218.466 249.285 219.183 248.752C219.899 248.219 220.257 247.385 220.257 246.249V243.479H220.079C219.925 243.727 219.706 244.035 219.422 244.402C219.144 244.763 218.742 245.086 218.215 245.37C217.694 245.648 216.99 245.787 216.102 245.787C215.001 245.787 214.013 245.527 213.137 245.006C212.267 244.485 211.577 243.727 211.068 242.733C210.565 241.739 210.314 240.531 210.314 239.111C210.314 237.714 210.559 236.498 211.05 235.462C211.542 234.42 212.225 233.615 213.101 233.047C213.977 232.473 214.989 232.186 216.137 232.186C217.025 232.186 217.73 232.334 218.25 232.63C218.777 232.92 219.18 233.251 219.458 233.624C219.742 233.991 219.961 234.293 220.115 234.53H220.328V232.364H222.352V246.391C222.352 247.562 222.086 248.515 221.553 249.249C221.026 249.989 220.316 250.531 219.422 250.874C218.534 251.223 217.546 251.398 216.457 251.398ZM216.386 243.905C217.226 243.905 217.937 243.712 218.517 243.328C219.097 242.943 219.538 242.39 219.839 241.668C220.141 240.946 220.292 240.081 220.292 239.075C220.292 238.093 220.144 237.226 219.848 236.474C219.552 235.722 219.114 235.134 218.534 234.707C217.954 234.281 217.238 234.068 216.386 234.068C215.498 234.068 214.758 234.293 214.167 234.743C213.581 235.193 213.14 235.796 212.844 236.554C212.554 237.312 212.409 238.152 212.409 239.075C212.409 240.022 212.557 240.86 212.853 241.588C213.154 242.31 213.598 242.878 214.184 243.292C214.776 243.701 215.51 243.905 216.386 243.905ZM232.26 232.364V234.139H224.909V232.364H232.26ZM227.11 246V230.482C227.11 229.7 227.294 229.049 227.661 228.528C228.028 228.008 228.504 227.617 229.09 227.357C229.676 227.096 230.295 226.966 230.946 226.966C231.461 226.966 231.881 227.007 232.206 227.09C232.532 227.173 232.775 227.25 232.934 227.321L232.331 229.132C232.224 229.097 232.076 229.052 231.887 228.999C231.703 228.946 231.461 228.919 231.159 228.919C230.466 228.919 229.966 229.094 229.658 229.443C229.357 229.792 229.206 230.304 229.206 230.979V246H227.11ZM235.196 246V232.364H237.291V246H235.196ZM236.261 230.091C235.853 230.091 235.501 229.952 235.205 229.674C234.915 229.395 234.77 229.061 234.77 228.67C234.77 228.28 234.915 227.945 235.205 227.667C235.501 227.389 235.853 227.25 236.261 227.25C236.67 227.25 237.019 227.389 237.309 227.667C237.605 227.945 237.753 228.28 237.753 228.67C237.753 229.061 237.605 229.395 237.309 229.674C237.019 229.952 236.67 230.091 236.261 230.091ZM246.846 246.284C245.532 246.284 244.399 245.994 243.446 245.414C242.499 244.828 241.768 244.011 241.253 242.964C240.744 241.91 240.489 240.685 240.489 239.288C240.489 237.892 240.744 236.661 241.253 235.595C241.768 234.524 242.484 233.689 243.401 233.092C244.325 232.488 245.402 232.186 246.633 232.186C247.343 232.186 248.044 232.304 248.737 232.541C249.429 232.778 250.06 233.163 250.628 233.695C251.196 234.222 251.649 234.92 251.986 235.79C252.324 236.661 252.492 237.732 252.492 239.004V239.892H241.981V238.081H250.362C250.362 237.312 250.208 236.625 249.9 236.021C249.598 235.418 249.166 234.941 248.604 234.592C248.047 234.243 247.39 234.068 246.633 234.068C245.798 234.068 245.076 234.275 244.467 234.69C243.863 235.098 243.398 235.631 243.073 236.288C242.747 236.945 242.585 237.649 242.585 238.401V239.608C242.585 240.638 242.762 241.511 243.117 242.227C243.478 242.937 243.978 243.479 244.618 243.852C245.257 244.219 246 244.402 246.846 244.402C247.396 244.402 247.893 244.325 248.337 244.171C248.787 244.011 249.175 243.775 249.5 243.461C249.826 243.141 250.077 242.745 250.255 242.271L252.279 242.839C252.066 243.526 251.708 244.13 251.205 244.651C250.702 245.165 250.08 245.568 249.341 245.858C248.601 246.142 247.769 246.284 246.846 246.284ZM257.775 227.818V246H255.679V227.818H257.775ZM266.761 246.284C265.625 246.284 264.622 245.997 263.752 245.423C262.881 244.843 262.201 244.026 261.71 242.973C261.218 241.913 260.973 240.661 260.973 239.217C260.973 237.785 261.218 236.542 261.71 235.489C262.201 234.435 262.884 233.621 263.76 233.047C264.636 232.473 265.648 232.186 266.797 232.186C267.684 232.186 268.386 232.334 268.901 232.63C269.421 232.92 269.818 233.251 270.09 233.624C270.368 233.991 270.584 234.293 270.738 234.53H270.916V227.818H273.011V246H270.987V243.905H270.738C270.584 244.153 270.366 244.467 270.081 244.846C269.797 245.219 269.392 245.553 268.865 245.849C268.338 246.139 267.637 246.284 266.761 246.284ZM267.045 244.402C267.886 244.402 268.596 244.183 269.176 243.745C269.756 243.301 270.197 242.689 270.499 241.907C270.801 241.12 270.951 240.212 270.951 239.182C270.951 238.164 270.803 237.273 270.508 236.51C270.212 235.74 269.774 235.142 269.194 234.716C268.614 234.284 267.897 234.068 267.045 234.068C266.157 234.068 265.418 234.296 264.826 234.752C264.24 235.202 263.799 235.814 263.503 236.589C263.213 237.359 263.068 238.223 263.068 239.182C263.068 240.152 263.216 241.034 263.512 241.827C263.814 242.615 264.258 243.242 264.843 243.71C265.435 244.171 266.169 244.402 267.045 244.402Z" fill="black"/>
<path d="M108.202 149V130.818H114.345C115.772 130.818 116.938 131.076 117.843 131.591C118.754 132.1 119.429 132.789 119.867 133.659C120.305 134.529 120.524 135.5 120.524 136.571C120.524 137.642 120.305 138.616 119.867 139.492C119.435 140.368 118.766 141.066 117.861 141.587C116.955 142.102 115.795 142.359 114.381 142.359H109.977V140.406H114.31C115.286 140.406 116.07 140.238 116.662 139.9C117.254 139.563 117.683 139.107 117.95 138.533C118.222 137.953 118.358 137.299 118.358 136.571C118.358 135.843 118.222 135.192 117.95 134.618C117.683 134.044 117.251 133.594 116.653 133.268C116.056 132.937 115.263 132.771 114.274 132.771H110.403V149H108.202ZM123.787 149V135.364H125.882V149H123.787ZM124.852 133.091C124.444 133.091 124.092 132.952 123.796 132.674C123.506 132.395 123.361 132.061 123.361 131.67C123.361 131.28 123.506 130.945 123.796 130.667C124.092 130.389 124.444 130.25 124.852 130.25C125.26 130.25 125.61 130.389 125.9 130.667C126.196 130.945 126.344 131.28 126.344 131.67C126.344 132.061 126.196 132.395 125.9 132.674C125.61 132.952 125.26 133.091 124.852 133.091ZM135.65 135.364V137.139H128.583V135.364H135.65ZM130.643 132.097H132.738V145.094C132.738 145.686 132.824 146.129 132.995 146.425C133.173 146.715 133.398 146.911 133.67 147.011C133.948 147.106 134.241 147.153 134.549 147.153C134.78 147.153 134.969 147.142 135.117 147.118C135.265 147.088 135.383 147.065 135.472 147.047L135.898 148.929C135.756 148.982 135.558 149.036 135.304 149.089C135.049 149.148 134.726 149.178 134.336 149.178C133.744 149.178 133.164 149.05 132.596 148.796C132.034 148.541 131.566 148.154 131.193 147.633C130.826 147.112 130.643 146.455 130.643 145.662V132.097ZM144.732 135.364V137.139H137.665V135.364H144.732ZM139.725 132.097H141.82V145.094C141.82 145.686 141.906 146.129 142.077 146.425C142.255 146.715 142.48 146.911 142.752 147.011C143.03 147.106 143.323 147.153 143.631 147.153C143.862 147.153 144.051 147.142 144.199 147.118C144.347 147.088 144.465 147.065 144.554 147.047L144.98 148.929C144.838 148.982 144.64 149.036 144.386 149.089C144.131 149.148 143.809 149.178 143.418 149.178C142.826 149.178 142.246 149.05 141.678 148.796C141.116 148.541 140.648 148.154 140.275 147.633C139.908 147.112 139.725 146.455 139.725 145.662V132.097ZM157.298 138.418L155.416 138.95C155.298 138.637 155.123 138.332 154.892 138.036C154.668 137.734 154.36 137.485 153.969 137.29C153.579 137.095 153.078 136.997 152.469 136.997C151.634 136.997 150.939 137.19 150.383 137.574C149.832 137.953 149.557 138.435 149.557 139.021C149.557 139.542 149.746 139.953 150.125 140.255C150.504 140.557 151.096 140.809 151.901 141.01L153.925 141.507C155.144 141.803 156.053 142.256 156.65 142.865C157.248 143.469 157.547 144.247 157.547 145.2C157.547 145.982 157.322 146.68 156.872 147.295C156.428 147.911 155.807 148.396 155.008 148.751C154.209 149.107 153.28 149.284 152.22 149.284C150.829 149.284 149.678 148.982 148.767 148.379C147.855 147.775 147.278 146.893 147.036 145.733L149.024 145.236C149.214 145.97 149.572 146.52 150.098 146.887C150.631 147.254 151.327 147.438 152.185 147.438C153.161 147.438 153.937 147.23 154.511 146.816C155.091 146.396 155.381 145.893 155.381 145.307C155.381 144.833 155.215 144.437 154.884 144.117C154.552 143.792 154.043 143.549 153.357 143.389L151.084 142.857C149.835 142.561 148.918 142.102 148.332 141.48C147.752 140.853 147.462 140.069 147.462 139.128C147.462 138.358 147.678 137.678 148.11 137.086C148.548 136.494 149.143 136.029 149.894 135.692C150.652 135.355 151.51 135.186 152.469 135.186C153.818 135.186 154.878 135.482 155.647 136.074C156.422 136.666 156.973 137.447 157.298 138.418ZM166.773 135.364V137.139H159.422V135.364H166.773ZM161.624 149V133.482C161.624 132.7 161.808 132.049 162.175 131.528C162.541 131.008 163.018 130.617 163.604 130.357C164.19 130.096 164.808 129.966 165.459 129.966C165.974 129.966 166.394 130.007 166.72 130.09C167.046 130.173 167.288 130.25 167.448 130.321L166.844 132.132C166.738 132.097 166.59 132.052 166.4 131.999C166.217 131.946 165.974 131.919 165.672 131.919C164.98 131.919 164.48 132.094 164.172 132.443C163.87 132.792 163.719 133.304 163.719 133.979V149H161.624ZM169.71 149V135.364H171.805V149H169.71ZM170.775 133.091C170.367 133.091 170.014 132.952 169.718 132.674C169.428 132.395 169.283 132.061 169.283 131.67C169.283 131.28 169.428 130.945 169.718 130.667C170.014 130.389 170.367 130.25 170.775 130.25C171.183 130.25 171.533 130.389 171.823 130.667C172.118 130.945 172.266 131.28 172.266 131.67C172.266 132.061 172.118 132.395 171.823 132.674C171.533 132.952 171.183 133.091 170.775 133.091ZM181.36 149.284C180.046 149.284 178.912 148.994 177.959 148.414C177.012 147.828 176.281 147.011 175.767 145.964C175.258 144.91 175.003 143.685 175.003 142.288C175.003 140.892 175.258 139.661 175.767 138.595C176.281 137.524 176.998 136.689 177.915 136.092C178.838 135.488 179.915 135.186 181.146 135.186C181.857 135.186 182.558 135.304 183.251 135.541C183.943 135.778 184.573 136.163 185.142 136.695C185.71 137.222 186.162 137.92 186.5 138.79C186.837 139.661 187.006 140.732 187.006 142.004V142.892H176.494V141.081H184.875C184.875 140.312 184.721 139.625 184.414 139.021C184.112 138.418 183.68 137.941 183.117 137.592C182.561 137.243 181.904 137.068 181.146 137.068C180.312 137.068 179.59 137.275 178.98 137.69C178.377 138.098 177.912 138.631 177.586 139.288C177.261 139.945 177.098 140.649 177.098 141.401V142.608C177.098 143.638 177.276 144.511 177.631 145.227C177.992 145.937 178.492 146.479 179.131 146.852C179.77 147.219 180.513 147.402 181.36 147.402C181.91 147.402 182.407 147.325 182.851 147.171C183.301 147.011 183.689 146.775 184.014 146.461C184.34 146.141 184.591 145.745 184.769 145.271L186.793 145.839C186.58 146.526 186.222 147.13 185.719 147.651C185.215 148.165 184.594 148.568 183.854 148.858C183.114 149.142 182.283 149.284 181.36 149.284ZM192.288 130.818V149H190.193V130.818H192.288ZM201.275 149.284C200.138 149.284 199.135 148.997 198.265 148.423C197.395 147.843 196.715 147.026 196.223 145.973C195.732 144.913 195.486 143.661 195.486 142.217C195.486 140.785 195.732 139.542 196.223 138.489C196.715 137.435 197.398 136.621 198.274 136.047C199.15 135.473 200.162 135.186 201.31 135.186C202.198 135.186 202.899 135.334 203.414 135.63C203.935 135.92 204.332 136.251 204.604 136.624C204.882 136.991 205.098 137.293 205.252 137.53H205.43V130.818H207.525V149H205.501V146.905H205.252C205.098 147.153 204.879 147.467 204.595 147.846C204.311 148.219 203.906 148.553 203.379 148.849C202.852 149.139 202.151 149.284 201.275 149.284ZM201.559 147.402C202.399 147.402 203.11 147.183 203.69 146.745C204.27 146.301 204.71 145.689 205.012 144.907C205.314 144.12 205.465 143.212 205.465 142.182C205.465 141.164 205.317 140.273 205.021 139.51C204.725 138.74 204.287 138.142 203.707 137.716C203.127 137.284 202.411 137.068 201.559 137.068C200.671 137.068 199.931 137.296 199.339 137.752C198.753 138.202 198.313 138.814 198.017 139.589C197.727 140.359 197.582 141.223 197.582 142.182C197.582 143.152 197.73 144.034 198.025 144.827C198.327 145.615 198.771 146.242 199.357 146.71C199.949 147.171 200.683 147.402 201.559 147.402Z" fill="black"/>
<path d="M341.504 203L336.533 184.818H338.77L342.57 199.626H342.747L346.618 184.818H349.104L352.974 199.626H353.152L356.952 184.818H359.189L354.217 203H351.945L347.932 188.511H347.79L343.777 203H341.504ZM365.918 203.284C364.687 203.284 363.607 202.991 362.678 202.405C361.755 201.819 361.033 201 360.512 199.946C359.997 198.893 359.739 197.661 359.739 196.253C359.739 194.832 359.997 193.592 360.512 192.533C361.033 191.474 361.755 190.651 362.678 190.065C363.607 189.479 364.687 189.186 365.918 189.186C367.149 189.186 368.227 189.479 369.15 190.065C370.079 190.651 370.801 191.474 371.316 192.533C371.837 193.592 372.097 194.832 372.097 196.253C372.097 197.661 371.837 198.893 371.316 199.946C370.801 201 370.079 201.819 369.15 202.405C368.227 202.991 367.149 203.284 365.918 203.284ZM365.918 201.402C366.853 201.402 367.623 201.162 368.227 200.683C368.83 200.203 369.277 199.573 369.567 198.792C369.857 198.011 370.002 197.164 370.002 196.253C370.002 195.341 369.857 194.492 369.567 193.705C369.277 192.918 368.83 192.281 368.227 191.796C367.623 191.311 366.853 191.068 365.918 191.068C364.983 191.068 364.214 191.311 363.61 191.796C363.006 192.281 362.56 192.918 362.27 193.705C361.98 194.492 361.835 195.341 361.835 196.253C361.835 197.164 361.98 198.011 362.27 198.792C362.56 199.573 363.006 200.203 363.61 200.683C364.214 201.162 364.983 201.402 365.918 201.402ZM375.296 203V189.364H377.32V191.423H377.462C377.71 190.749 378.16 190.201 378.811 189.781C379.462 189.361 380.196 189.151 381.013 189.151C381.167 189.151 381.359 189.154 381.59 189.159C381.821 189.165 381.995 189.174 382.114 189.186V191.317C382.043 191.299 381.88 191.272 381.625 191.237C381.377 191.195 381.113 191.175 380.835 191.175C380.172 191.175 379.581 191.314 379.06 191.592C378.545 191.864 378.136 192.243 377.835 192.728C377.539 193.208 377.391 193.755 377.391 194.371V203H375.296ZM389.722 203.284C388.444 203.284 387.343 202.982 386.419 202.379C385.496 201.775 384.786 200.943 384.289 199.884C383.792 198.824 383.543 197.614 383.543 196.253C383.543 194.868 383.798 193.646 384.307 192.586C384.821 191.521 385.538 190.689 386.455 190.092C387.378 189.488 388.455 189.186 389.687 189.186C390.645 189.186 391.509 189.364 392.279 189.719C393.048 190.074 393.679 190.571 394.17 191.21C394.661 191.849 394.966 192.595 395.084 193.447H392.989C392.829 192.826 392.474 192.276 391.924 191.796C391.379 191.311 390.645 191.068 389.722 191.068C388.905 191.068 388.189 191.281 387.574 191.707C386.964 192.128 386.488 192.722 386.144 193.492C385.807 194.255 385.638 195.152 385.638 196.182C385.638 197.235 385.804 198.153 386.135 198.934C386.473 199.715 386.946 200.322 387.556 200.754C388.171 201.186 388.893 201.402 389.722 201.402C390.267 201.402 390.761 201.307 391.205 201.118C391.649 200.929 392.024 200.656 392.332 200.301C392.64 199.946 392.859 199.52 392.989 199.023H395.084C394.966 199.828 394.673 200.553 394.205 201.198C393.744 201.837 393.131 202.346 392.368 202.725C391.61 203.098 390.728 203.284 389.722 203.284ZM403.864 203.284C402.551 203.284 401.417 202.994 400.464 202.414C399.517 201.828 398.786 201.011 398.271 199.964C397.762 198.91 397.508 197.685 397.508 196.288C397.508 194.892 397.762 193.661 398.271 192.595C398.786 191.524 399.502 190.689 400.42 190.092C401.343 189.488 402.42 189.186 403.651 189.186C404.362 189.186 405.063 189.304 405.755 189.541C406.448 189.778 407.078 190.163 407.646 190.695C408.215 191.222 408.667 191.92 409.005 192.79C409.342 193.661 409.511 194.732 409.511 196.004V196.892H398.999V195.081H407.38C407.38 194.312 407.226 193.625 406.918 193.021C406.617 192.418 406.185 191.941 405.622 191.592C405.066 191.243 404.409 191.068 403.651 191.068C402.817 191.068 402.095 191.275 401.485 191.69C400.881 192.098 400.417 192.631 400.091 193.288C399.766 193.945 399.603 194.649 399.603 195.401V196.608C399.603 197.638 399.781 198.511 400.136 199.227C400.497 199.937 400.997 200.479 401.636 200.852C402.275 201.219 403.018 201.402 403.864 201.402C404.415 201.402 404.912 201.325 405.356 201.171C405.806 201.011 406.193 200.775 406.519 200.461C406.844 200.141 407.096 199.745 407.274 199.271L409.298 199.839C409.085 200.526 408.727 201.13 408.223 201.651C407.72 202.165 407.099 202.568 406.359 202.858C405.619 203.142 404.788 203.284 403.864 203.284ZM422.357 192.418L420.475 192.95C420.357 192.637 420.182 192.332 419.951 192.036C419.726 191.734 419.418 191.485 419.028 191.29C418.637 191.095 418.137 190.997 417.527 190.997C416.693 190.997 415.997 191.19 415.441 191.574C414.891 191.953 414.616 192.435 414.616 193.021C414.616 193.542 414.805 193.953 415.184 194.255C415.562 194.557 416.154 194.809 416.959 195.01L418.983 195.507C420.203 195.803 421.111 196.256 421.709 196.865C422.307 197.469 422.606 198.247 422.606 199.2C422.606 199.982 422.381 200.68 421.931 201.295C421.487 201.911 420.866 202.396 420.066 202.751C419.267 203.107 418.338 203.284 417.279 203.284C415.888 203.284 414.737 202.982 413.825 202.379C412.914 201.775 412.337 200.893 412.094 199.733L414.083 199.236C414.272 199.97 414.63 200.52 415.157 200.887C415.69 201.254 416.385 201.438 417.243 201.438C418.22 201.438 418.995 201.23 419.569 200.816C420.149 200.396 420.439 199.893 420.439 199.307C420.439 198.833 420.274 198.437 419.942 198.117C419.611 197.792 419.102 197.549 418.415 197.389L416.142 196.857C414.894 196.561 413.976 196.102 413.39 195.48C412.81 194.853 412.52 194.069 412.52 193.128C412.52 192.358 412.736 191.678 413.168 191.086C413.606 190.494 414.201 190.029 414.953 189.692C415.71 189.355 416.569 189.186 417.527 189.186C418.877 189.186 419.936 189.482 420.706 190.074C421.481 190.666 422.031 191.447 422.357 192.418ZM431.69 189.364V191.139H424.623V189.364H431.69ZM426.683 186.097H428.778V199.094C428.778 199.686 428.864 200.129 429.035 200.425C429.213 200.715 429.438 200.911 429.71 201.011C429.988 201.106 430.281 201.153 430.589 201.153C430.82 201.153 431.009 201.142 431.157 201.118C431.305 201.088 431.423 201.065 431.512 201.047L431.938 202.929C431.796 202.982 431.598 203.036 431.344 203.089C431.089 203.148 430.767 203.178 430.376 203.178C429.784 203.178 429.204 203.05 428.636 202.796C428.074 202.541 427.606 202.154 427.233 201.633C426.866 201.112 426.683 200.455 426.683 199.662V186.097ZM440.412 203.284C439.098 203.284 437.965 202.994 437.012 202.414C436.065 201.828 435.334 201.011 434.819 199.964C434.31 198.91 434.056 197.685 434.056 196.288C434.056 194.892 434.31 193.661 434.819 192.595C435.334 191.524 436.05 190.689 436.968 190.092C437.891 189.488 438.968 189.186 440.199 189.186C440.909 189.186 441.611 189.304 442.303 189.541C442.996 189.778 443.626 190.163 444.194 190.695C444.762 191.222 445.215 191.92 445.553 192.79C445.89 193.661 446.059 194.732 446.059 196.004V196.892H435.547V195.081H443.928C443.928 194.312 443.774 193.625 443.466 193.021C443.164 192.418 442.732 191.941 442.17 191.592C441.614 191.243 440.957 191.068 440.199 191.068C439.365 191.068 438.643 191.275 438.033 191.69C437.429 192.098 436.965 192.631 436.639 193.288C436.314 193.945 436.151 194.649 436.151 195.401V196.608C436.151 197.638 436.328 198.511 436.684 199.227C437.045 199.937 437.545 200.479 438.184 200.852C438.823 201.219 439.566 201.402 440.412 201.402C440.963 201.402 441.46 201.325 441.904 201.171C442.354 201.011 442.741 200.775 443.067 200.461C443.392 200.141 443.644 199.745 443.821 199.271L445.846 199.839C445.632 200.526 445.274 201.13 444.771 201.651C444.268 202.165 443.647 202.568 442.907 202.858C442.167 203.142 441.336 203.284 440.412 203.284ZM449.246 203V189.364H451.27V191.423H451.412C451.661 190.749 452.11 190.201 452.761 189.781C453.412 189.361 454.146 189.151 454.963 189.151C455.117 189.151 455.309 189.154 455.54 189.159C455.771 189.165 455.946 189.174 456.064 189.186V191.317C455.993 191.299 455.83 191.272 455.576 191.237C455.327 191.195 455.064 191.175 454.786 191.175C454.123 191.175 453.531 191.314 453.01 191.592C452.495 191.864 452.087 192.243 451.785 192.728C451.489 193.208 451.341 193.755 451.341 194.371V203H449.246Z" fill="black"/>
<path d="M515.202 318V299.818H521.345C522.772 299.818 523.938 300.076 524.843 300.591C525.754 301.1 526.429 301.789 526.867 302.659C527.305 303.529 527.524 304.5 527.524 305.571C527.524 306.642 527.305 307.616 526.867 308.492C526.435 309.368 525.766 310.066 524.861 310.587C523.955 311.102 522.795 311.359 521.381 311.359H516.977V309.406H521.31C522.286 309.406 523.07 309.238 523.662 308.9C524.254 308.563 524.683 308.107 524.95 307.533C525.222 306.953 525.358 306.299 525.358 305.571C525.358 304.843 525.222 304.192 524.95 303.618C524.683 303.044 524.251 302.594 523.653 302.268C523.056 301.937 522.263 301.771 521.274 301.771H517.403V318H515.202ZM532.882 299.818V318H530.787V299.818H532.882ZM538.069 323.114C537.714 323.114 537.397 323.084 537.119 323.025C536.841 322.972 536.648 322.918 536.542 322.865L537.074 321.018C537.583 321.149 538.033 321.196 538.424 321.161C538.815 321.125 539.161 320.95 539.463 320.637C539.77 320.329 540.052 319.829 540.306 319.136L540.697 318.071L535.654 304.364H537.927L541.691 315.23H541.833L545.597 304.364H547.87L542.082 319.989C541.821 320.693 541.499 321.276 541.114 321.738C540.729 322.205 540.282 322.551 539.773 322.776C539.27 323.001 538.702 323.114 538.069 323.114ZM550.635 318V304.364H552.66V306.494H552.837C553.121 305.766 553.58 305.201 554.213 304.799C554.846 304.39 555.607 304.186 556.495 304.186C557.394 304.186 558.143 304.39 558.741 304.799C559.345 305.201 559.815 305.766 560.152 306.494H560.294C560.644 305.79 561.167 305.231 561.866 304.816C562.564 304.396 563.402 304.186 564.378 304.186C565.598 304.186 566.595 304.568 567.37 305.331C568.145 306.089 568.533 307.27 568.533 308.874V318H566.438V308.874C566.438 307.867 566.163 307.148 565.612 306.716C565.062 306.284 564.414 306.068 563.668 306.068C562.709 306.068 561.966 306.358 561.44 306.938C560.913 307.512 560.65 308.24 560.65 309.122V318H558.519V308.661C558.519 307.885 558.267 307.261 557.764 306.787C557.261 306.308 556.613 306.068 555.82 306.068C555.276 306.068 554.767 306.213 554.293 306.503C553.825 306.793 553.447 307.196 553.157 307.711C552.873 308.22 552.731 308.808 552.731 309.477V318H550.635ZM577.904 318.284C576.673 318.284 575.592 317.991 574.663 317.405C573.74 316.819 573.018 316 572.497 314.946C571.982 313.893 571.725 312.661 571.725 311.253C571.725 309.832 571.982 308.592 572.497 307.533C573.018 306.474 573.74 305.651 574.663 305.065C575.592 304.479 576.673 304.186 577.904 304.186C579.135 304.186 580.212 304.479 581.135 305.065C582.064 305.651 582.786 306.474 583.301 307.533C583.822 308.592 584.083 309.832 584.083 311.253C584.083 312.661 583.822 313.893 583.301 314.946C582.786 316 582.064 316.819 581.135 317.405C580.212 317.991 579.135 318.284 577.904 318.284ZM577.904 316.402C578.839 316.402 579.608 316.162 580.212 315.683C580.816 315.203 581.262 314.573 581.552 313.792C581.842 313.011 581.987 312.164 581.987 311.253C581.987 310.341 581.842 309.492 581.552 308.705C581.262 307.918 580.816 307.281 580.212 306.796C579.608 306.311 578.839 306.068 577.904 306.068C576.969 306.068 576.199 306.311 575.595 306.796C574.992 307.281 574.545 307.918 574.255 308.705C573.965 309.492 573.82 310.341 573.82 311.253C573.82 312.164 573.965 313.011 574.255 313.792C574.545 314.573 574.992 315.203 575.595 315.683C576.199 316.162 576.969 316.402 577.904 316.402ZM595.875 312.425V304.364H597.97V318H595.875V315.692H595.733C595.413 316.384 594.916 316.973 594.241 317.458C593.566 317.938 592.714 318.178 591.684 318.178C590.832 318.178 590.074 317.991 589.412 317.618C588.749 317.239 588.228 316.671 587.849 315.914C587.47 315.15 587.281 314.188 587.281 313.028V304.364H589.376V312.886C589.376 313.881 589.654 314.674 590.211 315.266C590.773 315.857 591.489 316.153 592.359 316.153C592.88 316.153 593.41 316.02 593.948 315.754C594.493 315.488 594.948 315.079 595.315 314.529C595.688 313.978 595.875 313.277 595.875 312.425ZM607.738 304.364V306.139H600.671V304.364H607.738ZM602.731 301.097H604.826V314.094C604.826 314.686 604.912 315.129 605.083 315.425C605.261 315.715 605.486 315.911 605.758 316.011C606.036 316.106 606.329 316.153 606.637 316.153C606.868 316.153 607.057 316.142 607.205 316.118C607.353 316.088 607.471 316.065 607.56 316.047L607.986 317.929C607.844 317.982 607.646 318.036 607.391 318.089C607.137 318.148 606.814 318.178 606.424 318.178C605.832 318.178 605.252 318.05 604.684 317.796C604.121 317.541 603.654 317.154 603.281 316.633C602.914 316.112 602.731 315.455 602.731 314.662V301.097ZM613.277 309.797V318H611.182V299.818H613.277V306.494H613.455C613.775 305.79 614.254 305.231 614.893 304.816C615.538 304.396 616.397 304.186 617.468 304.186C618.397 304.186 619.211 304.373 619.909 304.745C620.608 305.112 621.149 305.678 621.534 306.441C621.924 307.199 622.12 308.163 622.12 309.335V318H620.025V309.477C620.025 308.394 619.743 307.557 619.181 306.965C618.625 306.367 617.852 306.068 616.864 306.068C616.178 306.068 615.562 306.213 615.017 306.503C614.479 306.793 614.053 307.216 613.739 307.773C613.431 308.329 613.277 309.004 613.277 309.797Z" fill="black"/>
<circle cx="242.511" cy="260.511" r="9.01136" fill="#FFE587" stroke="black"/>
<circle cx="108.511" cy="166.511" r="9.01136" fill="#FFE587" stroke="black"/>
<circle cx="398.511" cy="216.511" r="9.01136" fill="#FFE587" stroke="black"/>
<circle cx="640.511" cy="309.511" r="9.01136" fill="#FFE587" stroke="black"/>
<path d="M725.5 478L721.5 484L725.5 488.5L738.5 492.5H745H761L766.5 490L770.5 484L762.5 468.5L759.5 471L755.5 468.5L761 464.5L757 459.5L753 471L754 472V478L748 479.5L725.5 478Z" fill="#97DCFF"/>
<path d="M616 449.5L607 461.5L605.5 464.5L599.5 460.5L594 461.5V466L598.5 471L605.5 476L611 471L616 466L626.5 464.5L646 463H660.5V457.5L663.5 459.5L672 461.5V455.5V449.5L668 452L663.5 453.5L660.5 449.5H655L648.5 445.5L650.5 439.5L648.5 429.5L644 436H641.5L640 428L628 436L622 439.5L616 449.5Z" fill="#97DCFF"/>
<path d="M605.5 428L598.5 434.5L594 436H588L581.5 441L576 439.5L572 442.5L573.5 445.5L577.5 442.5L580 444H588L592 439.5L599.5 438L607 434.5L611 428L620.5 426L622 419.5H616L609 426L605.5 428Z" fill="#97DCFF"/>
<path d="M762.5 397L766.5 391L769.5 391.5L766.5 394L764.5 400V407L762.5 412H759.5V407L762.5 403V397Z" fill="#97DCFF"/>
<path d="M725.5 478L721.5 484L725.5 488.5L738.5 492.5H745H761L766.5 490L770.5 484L762.5 468.5L759.5 471L755.5 468.5L761 464.5L757 459.5L753 471L754 472V478L748 479.5L725.5 478Z" stroke="white"/>
<path d="M616 449.5L607 461.5L605.5 464.5L599.5 460.5L594 461.5V466L598.5 471L605.5 476L611 471L616 466L626.5 464.5L646 463H660.5V457.5L663.5 459.5L672 461.5V455.5V449.5L668 452L663.5 453.5L660.5 449.5H655L648.5 445.5L650.5 439.5L648.5 429.5L644 436H641.5L640 428L628 436L622 439.5L616 449.5Z" stroke="white"/>
<path d="M605.5 428L598.5 434.5L594 436H588L581.5 441L576 439.5L572 442.5L573.5 445.5L577.5 442.5L580 444H588L592 439.5L599.5 438L607 434.5L611 428L620.5 426L622 419.5H616L609 426L605.5 428Z" stroke="white"/>
<path d="M762.5 397L766.5 391L769.5 391.5L766.5 394L764.5 400V407L762.5 412H759.5V407L762.5 403V397Z" stroke="white"/>
<line x1="262.882" y1="79.5281" x2="269.031" y2="91.0166" stroke="#FFE587" stroke-width="2"/>
<line x1="401" y1="285" x2="401" y2="300.264" stroke="#FFE587" stroke-width="2"/>
<line x1="62.6441" y1="276.113" x2="61.3486" y2="291.322" stroke="#FFE587" stroke-width="2"/>
<path d="M653.963 181H650.588L656.733 163.545H660.636L666.79 181H663.415L658.753 167.125H658.616L653.963 181ZM654.074 174.156H663.278V176.696H654.074V174.156ZM674.669 167.909V170.295H667.143V167.909H674.669ZM669.001 164.773H672.087V177.062C672.087 177.477 672.149 177.795 672.274 178.017C672.405 178.233 672.575 178.381 672.786 178.46C672.996 178.54 673.229 178.58 673.484 178.58C673.678 178.58 673.854 178.565 674.013 178.537C674.178 178.509 674.303 178.483 674.388 178.46L674.908 180.872C674.743 180.929 674.507 180.991 674.2 181.06C673.899 181.128 673.53 181.168 673.092 181.179C672.32 181.202 671.624 181.085 671.004 180.83C670.385 180.568 669.893 180.165 669.53 179.619C669.172 179.074 668.996 178.392 669.001 177.574V164.773ZM680.616 163.545V181H677.531V163.545H680.616ZM687.555 181.264C686.726 181.264 685.979 181.116 685.314 180.821C684.655 180.52 684.132 180.077 683.746 179.491C683.365 178.906 683.175 178.185 683.175 177.327C683.175 176.588 683.311 175.977 683.584 175.494C683.857 175.011 684.229 174.625 684.7 174.335C685.172 174.045 685.703 173.827 686.294 173.679C686.891 173.526 687.507 173.415 688.143 173.347C688.911 173.267 689.533 173.196 690.01 173.134C690.487 173.065 690.834 172.963 691.05 172.827C691.271 172.685 691.382 172.466 691.382 172.17V172.119C691.382 171.477 691.192 170.98 690.811 170.628C690.43 170.276 689.882 170.099 689.166 170.099C688.411 170.099 687.811 170.264 687.368 170.594C686.93 170.923 686.635 171.312 686.482 171.761L683.601 171.352C683.828 170.557 684.203 169.892 684.726 169.358C685.249 168.818 685.888 168.415 686.643 168.148C687.399 167.875 688.234 167.739 689.149 167.739C689.78 167.739 690.408 167.812 691.033 167.96C691.658 168.108 692.229 168.352 692.746 168.693C693.263 169.028 693.678 169.486 693.99 170.065C694.308 170.645 694.467 171.369 694.467 172.239V181H691.501V179.202H691.399C691.212 179.565 690.947 179.906 690.607 180.224C690.271 180.537 689.848 180.79 689.337 180.983C688.831 181.17 688.237 181.264 687.555 181.264ZM688.357 178.997C688.976 178.997 689.513 178.875 689.967 178.631C690.422 178.381 690.771 178.051 691.016 177.642C691.266 177.233 691.391 176.787 691.391 176.304V174.761C691.294 174.841 691.129 174.915 690.896 174.983C690.669 175.051 690.413 175.111 690.129 175.162C689.845 175.213 689.564 175.259 689.286 175.298C689.007 175.338 688.766 175.372 688.561 175.401C688.101 175.463 687.689 175.565 687.325 175.707C686.962 175.849 686.675 176.048 686.464 176.304C686.254 176.554 686.149 176.878 686.149 177.276C686.149 177.844 686.357 178.273 686.771 178.562C687.186 178.852 687.714 178.997 688.357 178.997ZM700.655 173.33V181H697.57V167.909H700.518V170.134H700.672C700.973 169.401 701.453 168.818 702.112 168.386C702.777 167.955 703.598 167.739 704.575 167.739C705.479 167.739 706.266 167.932 706.936 168.318C707.612 168.705 708.135 169.264 708.504 169.997C708.879 170.73 709.064 171.619 709.058 172.665V181H705.973V173.142C705.973 172.267 705.746 171.582 705.291 171.088C704.842 170.594 704.22 170.347 703.425 170.347C702.885 170.347 702.405 170.466 701.984 170.705C701.57 170.937 701.243 171.276 701.004 171.719C700.771 172.162 700.655 172.699 700.655 173.33ZM718.732 167.909V170.295H711.206V167.909H718.732ZM713.064 164.773H716.149V177.062C716.149 177.477 716.212 177.795 716.337 178.017C716.467 178.233 716.638 178.381 716.848 178.46C717.058 178.54 717.291 178.58 717.547 178.58C717.74 178.58 717.916 178.565 718.075 178.537C718.24 178.509 718.365 178.483 718.45 178.46L718.97 180.872C718.805 180.929 718.57 180.991 718.263 181.06C717.962 181.128 717.592 181.168 717.155 181.179C716.382 181.202 715.686 181.085 715.067 180.83C714.447 180.568 713.956 180.165 713.592 179.619C713.234 179.074 713.058 178.392 713.064 177.574V164.773ZM721.312 181V167.909H724.397V181H721.312ZM722.863 166.051C722.374 166.051 721.954 165.889 721.602 165.565C721.249 165.236 721.073 164.841 721.073 164.381C721.073 163.915 721.249 163.52 721.602 163.196C721.954 162.866 722.374 162.702 722.863 162.702C723.357 162.702 723.778 162.866 724.124 163.196C724.477 163.52 724.653 163.915 724.653 164.381C724.653 164.841 724.477 165.236 724.124 165.565C723.778 165.889 723.357 166.051 722.863 166.051ZM733.28 181.256C731.973 181.256 730.851 180.969 729.913 180.395C728.982 179.821 728.263 179.028 727.757 178.017C727.257 177 727.007 175.83 727.007 174.506C727.007 173.176 727.263 172.003 727.774 170.986C728.286 169.963 729.007 169.168 729.939 168.599C730.876 168.026 731.984 167.739 733.263 167.739C734.325 167.739 735.266 167.935 736.084 168.327C736.908 168.713 737.564 169.261 738.053 169.972C738.541 170.676 738.82 171.5 738.888 172.443H735.939C735.82 171.812 735.536 171.287 735.087 170.866C734.643 170.44 734.05 170.227 733.305 170.227C732.675 170.227 732.121 170.398 731.643 170.739C731.166 171.074 730.794 171.557 730.527 172.188C730.266 172.818 730.135 173.574 730.135 174.455C730.135 175.347 730.266 176.114 730.527 176.756C730.788 177.392 731.155 177.884 731.626 178.23C732.104 178.571 732.663 178.741 733.305 178.741C733.76 178.741 734.166 178.656 734.524 178.486C734.888 178.31 735.192 178.057 735.436 177.727C735.68 177.398 735.848 176.997 735.939 176.526H738.888C738.814 177.452 738.541 178.273 738.07 178.989C737.598 179.699 736.956 180.256 736.143 180.659C735.331 181.057 734.376 181.256 733.28 181.256ZM667.318 201.273C667.318 203.153 666.966 204.764 666.261 206.105C665.563 207.44 664.608 208.463 663.398 209.173C662.193 209.884 660.827 210.239 659.298 210.239C657.77 210.239 656.401 209.884 655.19 209.173C653.986 208.457 653.031 207.432 652.327 206.097C651.628 204.756 651.278 203.148 651.278 201.273C651.278 199.392 651.628 197.784 652.327 196.449C653.031 195.108 653.986 194.082 655.19 193.372C656.401 192.662 657.77 192.307 659.298 192.307C660.827 192.307 662.193 192.662 663.398 193.372C664.608 194.082 665.563 195.108 666.261 196.449C666.966 197.784 667.318 199.392 667.318 201.273ZM664.139 201.273C664.139 199.949 663.932 198.832 663.517 197.923C663.108 197.009 662.54 196.318 661.812 195.852C661.085 195.381 660.247 195.145 659.298 195.145C658.349 195.145 657.511 195.381 656.784 195.852C656.057 196.318 655.486 197.009 655.071 197.923C654.662 198.832 654.457 199.949 654.457 201.273C654.457 202.597 654.662 203.716 655.071 204.631C655.486 205.54 656.057 206.23 656.784 206.702C657.511 207.168 658.349 207.401 659.298 207.401C660.247 207.401 661.085 207.168 661.812 206.702C662.54 206.23 663.108 205.54 663.517 204.631C663.932 203.716 664.139 202.597 664.139 201.273ZM675.881 210.256C674.575 210.256 673.452 209.969 672.515 209.395C671.583 208.821 670.864 208.028 670.359 207.017C669.859 206 669.609 204.83 669.609 203.506C669.609 202.176 669.864 201.003 670.376 199.986C670.887 198.963 671.609 198.168 672.54 197.599C673.478 197.026 674.586 196.739 675.864 196.739C676.927 196.739 677.867 196.935 678.685 197.327C679.509 197.713 680.165 198.261 680.654 198.972C681.143 199.676 681.421 200.5 681.489 201.443H678.54C678.421 200.812 678.137 200.287 677.688 199.866C677.245 199.44 676.651 199.227 675.907 199.227C675.276 199.227 674.722 199.398 674.245 199.739C673.768 200.074 673.396 200.557 673.129 201.188C672.867 201.818 672.737 202.574 672.737 203.455C672.737 204.347 672.867 205.114 673.129 205.756C673.39 206.392 673.756 206.884 674.228 207.23C674.705 207.571 675.265 207.741 675.907 207.741C676.362 207.741 676.768 207.656 677.126 207.486C677.489 207.31 677.793 207.057 678.038 206.727C678.282 206.398 678.45 205.997 678.54 205.526H681.489C681.415 206.452 681.143 207.273 680.671 207.989C680.2 208.699 679.558 209.256 678.745 209.659C677.933 210.057 676.978 210.256 675.881 210.256ZM689.818 210.256C688.506 210.256 687.372 209.983 686.418 209.438C685.469 208.886 684.739 208.108 684.227 207.102C683.716 206.091 683.46 204.901 683.46 203.531C683.46 202.185 683.716 201.003 684.227 199.986C684.744 198.963 685.466 198.168 686.392 197.599C687.318 197.026 688.406 196.739 689.656 196.739C690.463 196.739 691.224 196.869 691.94 197.131C692.662 197.386 693.298 197.784 693.849 198.324C694.406 198.864 694.844 199.551 695.162 200.386C695.48 201.216 695.639 202.205 695.639 203.352V204.298H684.909V202.219H692.682C692.676 201.628 692.548 201.102 692.298 200.642C692.048 200.176 691.699 199.81 691.25 199.543C690.807 199.276 690.29 199.142 689.699 199.142C689.068 199.142 688.514 199.295 688.037 199.602C687.56 199.903 687.188 200.301 686.92 200.795C686.659 201.284 686.526 201.821 686.52 202.406V204.222C686.52 204.983 686.659 205.636 686.938 206.182C687.216 206.722 687.605 207.136 688.105 207.426C688.605 207.71 689.19 207.852 689.861 207.852C690.31 207.852 690.716 207.79 691.08 207.665C691.443 207.534 691.759 207.344 692.026 207.094C692.293 206.844 692.494 206.534 692.631 206.165L695.511 206.489C695.33 207.25 694.983 207.915 694.472 208.483C693.966 209.045 693.318 209.483 692.528 209.795C691.739 210.102 690.835 210.256 689.818 210.256ZM702.016 210.264C701.187 210.264 700.44 210.116 699.775 209.821C699.116 209.52 698.593 209.077 698.207 208.491C697.826 207.906 697.636 207.185 697.636 206.327C697.636 205.588 697.772 204.977 698.045 204.494C698.317 204.011 698.69 203.625 699.161 203.335C699.633 203.045 700.164 202.827 700.755 202.679C701.352 202.526 701.968 202.415 702.604 202.347C703.371 202.267 703.994 202.196 704.471 202.134C704.948 202.065 705.295 201.963 705.511 201.827C705.732 201.685 705.843 201.466 705.843 201.17V201.119C705.843 200.477 705.653 199.98 705.272 199.628C704.891 199.276 704.343 199.099 703.627 199.099C702.871 199.099 702.272 199.264 701.829 199.594C701.391 199.923 701.096 200.312 700.942 200.761L698.062 200.352C698.289 199.557 698.664 198.892 699.187 198.358C699.71 197.818 700.349 197.415 701.104 197.148C701.86 196.875 702.695 196.739 703.61 196.739C704.241 196.739 704.869 196.812 705.494 196.96C706.119 197.108 706.69 197.352 707.207 197.693C707.724 198.028 708.138 198.486 708.451 199.065C708.769 199.645 708.928 200.369 708.928 201.239V210H705.962V208.202H705.86C705.673 208.565 705.408 208.906 705.067 209.224C704.732 209.537 704.309 209.79 703.798 209.983C703.292 210.17 702.698 210.264 702.016 210.264ZM702.817 207.997C703.437 207.997 703.974 207.875 704.428 207.631C704.883 207.381 705.232 207.051 705.477 206.642C705.727 206.233 705.852 205.787 705.852 205.304V203.761C705.755 203.841 705.59 203.915 705.357 203.983C705.13 204.051 704.874 204.111 704.59 204.162C704.306 204.213 704.025 204.259 703.746 204.298C703.468 204.338 703.227 204.372 703.022 204.401C702.562 204.463 702.15 204.565 701.786 204.707C701.423 204.849 701.136 205.048 700.925 205.304C700.715 205.554 700.61 205.878 700.61 206.276C700.61 206.844 700.817 207.273 701.232 207.562C701.647 207.852 702.175 207.997 702.817 207.997ZM715.116 202.33V210H712.031V196.909H714.979V199.134H715.133C715.434 198.401 715.914 197.818 716.573 197.386C717.238 196.955 718.059 196.739 719.036 196.739C719.94 196.739 720.727 196.932 721.397 197.318C722.073 197.705 722.596 198.264 722.965 198.997C723.34 199.73 723.525 200.619 723.519 201.665V210H720.434V202.142C720.434 201.267 720.207 200.582 719.752 200.088C719.303 199.594 718.681 199.347 717.886 199.347C717.346 199.347 716.866 199.466 716.445 199.705C716.031 199.937 715.704 200.276 715.465 200.719C715.232 201.162 715.116 201.699 715.116 202.33Z" fill="#00D9E4"/>
</svg>
