<svg width="610" height="837" viewBox="0 0 610 837" fill="none" xmlns="http://www.w3.org/2000/svg">
<rect x="0.5" y="0.5" width="609" height="836" rx="35.5" fill="#202637" stroke="#8D8D8D"/>
<path d="M465.963 712H462.588L468.733 694.545H472.636L478.79 712H475.415L470.753 698.125H470.616L465.963 712ZM466.074 705.156H475.278V707.696H466.074V705.156ZM486.669 698.909V701.295H479.143V698.909H486.669ZM481.001 695.773H484.087V708.062C484.087 708.477 484.149 708.795 484.274 709.017C484.405 709.233 484.575 709.381 484.786 709.46C484.996 709.54 485.229 709.58 485.484 709.58C485.678 709.58 485.854 709.565 486.013 709.537C486.178 709.509 486.303 709.483 486.388 709.46L486.908 711.872C486.743 711.929 486.507 711.991 486.2 712.06C485.899 712.128 485.53 712.168 485.092 712.179C484.32 712.202 483.624 712.085 483.004 711.83C482.385 711.568 481.893 711.165 481.53 710.619C481.172 710.074 480.996 709.392 481.001 708.574V695.773ZM492.616 694.545V712H489.531V694.545H492.616ZM499.555 712.264C498.726 712.264 497.979 712.116 497.314 711.821C496.655 711.52 496.132 711.077 495.746 710.491C495.365 709.906 495.175 709.185 495.175 708.327C495.175 707.588 495.311 706.977 495.584 706.494C495.857 706.011 496.229 705.625 496.7 705.335C497.172 705.045 497.703 704.827 498.294 704.679C498.891 704.526 499.507 704.415 500.143 704.347C500.911 704.267 501.533 704.196 502.01 704.134C502.487 704.065 502.834 703.963 503.05 703.827C503.271 703.685 503.382 703.466 503.382 703.17V703.119C503.382 702.477 503.192 701.98 502.811 701.628C502.43 701.276 501.882 701.099 501.166 701.099C500.411 701.099 499.811 701.264 499.368 701.594C498.93 701.923 498.635 702.312 498.482 702.761L495.601 702.352C495.828 701.557 496.203 700.892 496.726 700.358C497.249 699.818 497.888 699.415 498.643 699.148C499.399 698.875 500.234 698.739 501.149 698.739C501.78 698.739 502.408 698.812 503.033 698.96C503.658 699.108 504.229 699.352 504.746 699.693C505.263 700.028 505.678 700.486 505.99 701.065C506.308 701.645 506.467 702.369 506.467 703.239V712H503.501V710.202H503.399C503.212 710.565 502.947 710.906 502.607 711.224C502.271 711.537 501.848 711.79 501.337 711.983C500.831 712.17 500.237 712.264 499.555 712.264ZM500.357 709.997C500.976 709.997 501.513 709.875 501.967 709.631C502.422 709.381 502.771 709.051 503.016 708.642C503.266 708.233 503.391 707.787 503.391 707.304V705.761C503.294 705.841 503.129 705.915 502.896 705.983C502.669 706.051 502.413 706.111 502.129 706.162C501.845 706.213 501.564 706.259 501.286 706.298C501.007 706.338 500.766 706.372 500.561 706.401C500.101 706.463 499.689 706.565 499.325 706.707C498.962 706.849 498.675 707.048 498.464 707.304C498.254 707.554 498.149 707.878 498.149 708.276C498.149 708.844 498.357 709.273 498.771 709.562C499.186 709.852 499.714 709.997 500.357 709.997ZM512.655 704.33V712H509.57V698.909H512.518V701.134H512.672C512.973 700.401 513.453 699.818 514.112 699.386C514.777 698.955 515.598 698.739 516.575 698.739C517.479 698.739 518.266 698.932 518.936 699.318C519.612 699.705 520.135 700.264 520.504 700.997C520.879 701.73 521.064 702.619 521.058 703.665V712H517.973V704.142C517.973 703.267 517.746 702.582 517.291 702.088C516.842 701.594 516.22 701.347 515.425 701.347C514.885 701.347 514.405 701.466 513.984 701.705C513.57 701.937 513.243 702.276 513.004 702.719C512.771 703.162 512.655 703.699 512.655 704.33ZM530.732 698.909V701.295H523.206V698.909H530.732ZM525.064 695.773H528.149V708.062C528.149 708.477 528.212 708.795 528.337 709.017C528.467 709.233 528.638 709.381 528.848 709.46C529.058 709.54 529.291 709.58 529.547 709.58C529.74 709.58 529.916 709.565 530.075 709.537C530.24 709.509 530.365 709.483 530.45 709.46L530.97 711.872C530.805 711.929 530.57 711.991 530.263 712.06C529.962 712.128 529.592 712.168 529.155 712.179C528.382 712.202 527.686 712.085 527.067 711.83C526.447 711.568 525.956 711.165 525.592 710.619C525.234 710.074 525.058 709.392 525.064 708.574V695.773ZM533.312 712V698.909H536.397V712H533.312ZM534.863 697.051C534.374 697.051 533.954 696.889 533.602 696.565C533.249 696.236 533.073 695.841 533.073 695.381C533.073 694.915 533.249 694.52 533.602 694.196C533.954 693.866 534.374 693.702 534.863 693.702C535.357 693.702 535.778 693.866 536.124 694.196C536.477 694.52 536.653 694.915 536.653 695.381C536.653 695.841 536.477 696.236 536.124 696.565C535.778 696.889 535.357 697.051 534.863 697.051ZM545.28 712.256C543.973 712.256 542.851 711.969 541.913 711.395C540.982 710.821 540.263 710.028 539.757 709.017C539.257 708 539.007 706.83 539.007 705.506C539.007 704.176 539.263 703.003 539.774 701.986C540.286 700.963 541.007 700.168 541.939 699.599C542.876 699.026 543.984 698.739 545.263 698.739C546.325 698.739 547.266 698.935 548.084 699.327C548.908 699.713 549.564 700.261 550.053 700.972C550.541 701.676 550.82 702.5 550.888 703.443H547.939C547.82 702.812 547.536 702.287 547.087 701.866C546.643 701.44 546.05 701.227 545.305 701.227C544.675 701.227 544.121 701.398 543.643 701.739C543.166 702.074 542.794 702.557 542.527 703.188C542.266 703.818 542.135 704.574 542.135 705.455C542.135 706.347 542.266 707.114 542.527 707.756C542.788 708.392 543.155 708.884 543.626 709.23C544.104 709.571 544.663 709.741 545.305 709.741C545.76 709.741 546.166 709.656 546.524 709.486C546.888 709.31 547.192 709.057 547.436 708.727C547.68 708.398 547.848 707.997 547.939 707.526H550.888C550.814 708.452 550.541 709.273 550.07 709.989C549.598 710.699 548.956 711.256 548.143 711.659C547.331 712.057 546.376 712.256 545.28 712.256ZM479.318 732.273C479.318 734.153 478.966 735.764 478.261 737.105C477.563 738.44 476.608 739.463 475.398 740.173C474.193 740.884 472.827 741.239 471.298 741.239C469.77 741.239 468.401 740.884 467.19 740.173C465.986 739.457 465.031 738.432 464.327 737.097C463.628 735.756 463.278 734.148 463.278 732.273C463.278 730.392 463.628 728.784 464.327 727.449C465.031 726.108 465.986 725.082 467.19 724.372C468.401 723.662 469.77 723.307 471.298 723.307C472.827 723.307 474.193 723.662 475.398 724.372C476.608 725.082 477.563 726.108 478.261 727.449C478.966 728.784 479.318 730.392 479.318 732.273ZM476.139 732.273C476.139 730.949 475.932 729.832 475.517 728.923C475.108 728.009 474.54 727.318 473.812 726.852C473.085 726.381 472.247 726.145 471.298 726.145C470.349 726.145 469.511 726.381 468.784 726.852C468.057 727.318 467.486 728.009 467.071 728.923C466.662 729.832 466.457 730.949 466.457 732.273C466.457 733.597 466.662 734.716 467.071 735.631C467.486 736.54 468.057 737.23 468.784 737.702C469.511 738.168 470.349 738.401 471.298 738.401C472.247 738.401 473.085 738.168 473.812 737.702C474.54 737.23 475.108 736.54 475.517 735.631C475.932 734.716 476.139 733.597 476.139 732.273ZM487.881 741.256C486.575 741.256 485.452 740.969 484.515 740.395C483.583 739.821 482.864 739.028 482.359 738.017C481.859 737 481.609 735.83 481.609 734.506C481.609 733.176 481.864 732.003 482.376 730.986C482.887 729.963 483.609 729.168 484.54 728.599C485.478 728.026 486.586 727.739 487.864 727.739C488.927 727.739 489.867 727.935 490.685 728.327C491.509 728.713 492.165 729.261 492.654 729.972C493.143 730.676 493.421 731.5 493.489 732.443H490.54C490.421 731.812 490.137 731.287 489.688 730.866C489.245 730.44 488.651 730.227 487.907 730.227C487.276 730.227 486.722 730.398 486.245 730.739C485.768 731.074 485.396 731.557 485.129 732.188C484.867 732.818 484.737 733.574 484.737 734.455C484.737 735.347 484.867 736.114 485.129 736.756C485.39 737.392 485.756 737.884 486.228 738.23C486.705 738.571 487.265 738.741 487.907 738.741C488.362 738.741 488.768 738.656 489.126 738.486C489.489 738.31 489.793 738.057 490.038 737.727C490.282 737.398 490.45 736.997 490.54 736.526H493.489C493.415 737.452 493.143 738.273 492.671 738.989C492.2 739.699 491.558 740.256 490.745 740.659C489.933 741.057 488.978 741.256 487.881 741.256ZM501.818 741.256C500.506 741.256 499.372 740.983 498.418 740.438C497.469 739.886 496.739 739.108 496.227 738.102C495.716 737.091 495.46 735.901 495.46 734.531C495.46 733.185 495.716 732.003 496.227 730.986C496.744 729.963 497.466 729.168 498.392 728.599C499.318 728.026 500.406 727.739 501.656 727.739C502.463 727.739 503.224 727.869 503.94 728.131C504.662 728.386 505.298 728.784 505.849 729.324C506.406 729.864 506.844 730.551 507.162 731.386C507.48 732.216 507.639 733.205 507.639 734.352V735.298H496.909V733.219H504.682C504.676 732.628 504.548 732.102 504.298 731.642C504.048 731.176 503.699 730.81 503.25 730.543C502.807 730.276 502.29 730.142 501.699 730.142C501.068 730.142 500.514 730.295 500.037 730.602C499.56 730.903 499.188 731.301 498.92 731.795C498.659 732.284 498.526 732.821 498.52 733.406V735.222C498.52 735.983 498.659 736.636 498.938 737.182C499.216 737.722 499.605 738.136 500.105 738.426C500.605 738.71 501.19 738.852 501.861 738.852C502.31 738.852 502.716 738.79 503.08 738.665C503.443 738.534 503.759 738.344 504.026 738.094C504.293 737.844 504.494 737.534 504.631 737.165L507.511 737.489C507.33 738.25 506.983 738.915 506.472 739.483C505.966 740.045 505.318 740.483 504.528 740.795C503.739 741.102 502.835 741.256 501.818 741.256ZM514.016 741.264C513.187 741.264 512.44 741.116 511.775 740.821C511.116 740.52 510.593 740.077 510.207 739.491C509.826 738.906 509.636 738.185 509.636 737.327C509.636 736.588 509.772 735.977 510.045 735.494C510.317 735.011 510.69 734.625 511.161 734.335C511.633 734.045 512.164 733.827 512.755 733.679C513.352 733.526 513.968 733.415 514.604 733.347C515.371 733.267 515.994 733.196 516.471 733.134C516.948 733.065 517.295 732.963 517.511 732.827C517.732 732.685 517.843 732.466 517.843 732.17V732.119C517.843 731.477 517.653 730.98 517.272 730.628C516.891 730.276 516.343 730.099 515.627 730.099C514.871 730.099 514.272 730.264 513.829 730.594C513.391 730.923 513.096 731.312 512.942 731.761L510.062 731.352C510.289 730.557 510.664 729.892 511.187 729.358C511.71 728.818 512.349 728.415 513.104 728.148C513.86 727.875 514.695 727.739 515.61 727.739C516.241 727.739 516.869 727.812 517.494 727.96C518.119 728.108 518.69 728.352 519.207 728.693C519.724 729.028 520.138 729.486 520.451 730.065C520.769 730.645 520.928 731.369 520.928 732.239V741H517.962V739.202H517.86C517.673 739.565 517.408 739.906 517.067 740.224C516.732 740.537 516.309 740.79 515.798 740.983C515.292 741.17 514.698 741.264 514.016 741.264ZM514.817 738.997C515.437 738.997 515.974 738.875 516.428 738.631C516.883 738.381 517.232 738.051 517.477 737.642C517.727 737.233 517.852 736.787 517.852 736.304V734.761C517.755 734.841 517.59 734.915 517.357 734.983C517.13 735.051 516.874 735.111 516.59 735.162C516.306 735.213 516.025 735.259 515.746 735.298C515.468 735.338 515.227 735.372 515.022 735.401C514.562 735.463 514.15 735.565 513.786 735.707C513.423 735.849 513.136 736.048 512.925 736.304C512.715 736.554 512.61 736.878 512.61 737.276C512.61 737.844 512.817 738.273 513.232 738.562C513.647 738.852 514.175 738.997 514.817 738.997ZM527.116 733.33V741H524.031V727.909H526.979V730.134H527.133C527.434 729.401 527.914 728.818 528.573 728.386C529.238 727.955 530.059 727.739 531.036 727.739C531.94 727.739 532.727 727.932 533.397 728.318C534.073 728.705 534.596 729.264 534.965 729.997C535.34 730.73 535.525 731.619 535.519 732.665V741H532.434V733.142C532.434 732.267 532.207 731.582 531.752 731.088C531.303 730.594 530.681 730.347 529.886 730.347C529.346 730.347 528.866 730.466 528.445 730.705C528.031 730.937 527.704 731.276 527.465 731.719C527.232 732.162 527.116 732.699 527.116 733.33Z" fill="#00D9E4"/>
<path d="M218.662 75.4347H215.474C215.384 74.9119 215.216 74.4489 214.972 74.0455C214.727 73.6364 214.423 73.2898 214.06 73.0057C213.696 72.7216 213.281 72.5085 212.815 72.3665C212.355 72.2188 211.858 72.1449 211.324 72.1449C210.375 72.1449 209.534 72.3835 208.801 72.8608C208.068 73.3324 207.494 74.0256 207.08 74.9403C206.665 75.8494 206.457 76.9602 206.457 78.2727C206.457 79.608 206.665 80.733 207.08 81.6477C207.5 82.5568 208.074 83.2443 208.801 83.7102C209.534 84.1705 210.372 84.4006 211.315 84.4006C211.838 84.4006 212.327 84.3324 212.781 84.196C213.241 84.054 213.653 83.8466 214.017 83.5739C214.386 83.3011 214.696 82.9659 214.946 82.5682C215.202 82.1705 215.378 81.7159 215.474 81.2045L218.662 81.2216C218.543 82.0511 218.284 82.8295 217.886 83.5568C217.494 84.2841 216.98 84.9261 216.344 85.483C215.707 86.0341 214.963 86.4659 214.111 86.7784C213.259 87.0852 212.313 87.2386 211.273 87.2386C209.739 87.2386 208.369 86.8835 207.165 86.1733C205.96 85.4631 205.011 84.4375 204.318 83.0966C203.625 81.7557 203.278 80.1477 203.278 78.2727C203.278 76.392 203.628 74.7841 204.327 73.4489C205.026 72.108 205.977 71.0824 207.182 70.3722C208.386 69.6619 209.75 69.3068 211.273 69.3068C212.244 69.3068 213.148 69.4432 213.983 69.7159C214.818 69.9886 215.563 70.3892 216.216 70.9176C216.869 71.4403 217.406 72.0824 217.827 72.8438C218.253 73.5994 218.531 74.4631 218.662 75.4347ZM225.188 87.2642C224.359 87.2642 223.612 87.1165 222.947 86.821C222.288 86.5199 221.765 86.0767 221.379 85.4915C220.998 84.9062 220.808 84.1847 220.808 83.3267C220.808 82.5881 220.944 81.9773 221.217 81.4943C221.489 81.0114 221.862 80.625 222.333 80.3352C222.805 80.0455 223.336 79.8267 223.927 79.679C224.523 79.5256 225.14 79.4148 225.776 79.3466C226.543 79.267 227.165 79.196 227.643 79.1335C228.12 79.0653 228.467 78.9631 228.683 78.8267C228.904 78.6847 229.015 78.4659 229.015 78.1705V78.1193C229.015 77.4773 228.825 76.9801 228.444 76.6278C228.063 76.2756 227.515 76.0994 226.799 76.0994C226.043 76.0994 225.444 76.2642 225.001 76.5938C224.563 76.9233 224.268 77.3125 224.114 77.7614L221.234 77.3523C221.461 76.5568 221.836 75.892 222.359 75.358C222.881 74.8182 223.521 74.4148 224.276 74.1477C225.032 73.875 225.867 73.7386 226.782 73.7386C227.413 73.7386 228.04 73.8125 228.665 73.9602C229.29 74.108 229.862 74.3523 230.379 74.6932C230.896 75.0284 231.31 75.4858 231.623 76.0653C231.941 76.6449 232.1 77.3693 232.1 78.2386V87H229.134V85.2017H229.032C228.844 85.5653 228.58 85.9062 228.239 86.2244C227.904 86.5369 227.481 86.7898 226.969 86.983C226.464 87.1705 225.87 87.2642 225.188 87.2642ZM225.989 84.9972C226.609 84.9972 227.146 84.875 227.6 84.6307C228.055 84.3807 228.404 84.0511 228.648 83.642C228.898 83.233 229.023 82.7869 229.023 82.304V80.7614C228.927 80.8409 228.762 80.9148 228.529 80.983C228.302 81.0511 228.046 81.1108 227.762 81.1619C227.478 81.2131 227.197 81.2585 226.918 81.2983C226.64 81.3381 226.398 81.3722 226.194 81.4006C225.734 81.4631 225.322 81.5653 224.958 81.7074C224.594 81.8494 224.308 82.0483 224.097 82.304C223.887 82.554 223.782 82.8778 223.782 83.2756C223.782 83.8438 223.989 84.2727 224.404 84.5625C224.819 84.8523 225.347 84.9972 225.989 84.9972ZM238.288 79.3295V87H235.202V73.9091H238.151V76.1335H238.305C238.606 75.4006 239.086 74.8182 239.745 74.3864C240.41 73.9545 241.231 73.7386 242.208 73.7386C243.112 73.7386 243.898 73.9318 244.569 74.3182C245.245 74.7045 245.768 75.2642 246.137 75.9972C246.512 76.7301 246.697 77.6193 246.691 78.6648V87H243.606V79.142C243.606 78.267 243.379 77.5824 242.924 77.0881C242.475 76.5937 241.853 76.3466 241.058 76.3466C240.518 76.3466 240.038 76.4659 239.617 76.7045C239.202 76.9375 238.876 77.2756 238.637 77.7188C238.404 78.1619 238.288 78.6989 238.288 79.3295ZM253.594 87.2642C252.765 87.2642 252.018 87.1165 251.353 86.821C250.694 86.5199 250.171 86.0767 249.785 85.4915C249.404 84.9062 249.214 84.1847 249.214 83.3267C249.214 82.5881 249.35 81.9773 249.623 81.4943C249.896 81.0114 250.268 80.625 250.739 80.3352C251.211 80.0455 251.742 79.8267 252.333 79.679C252.93 79.5256 253.546 79.4148 254.183 79.3466C254.95 79.267 255.572 79.196 256.049 79.1335C256.526 79.0653 256.873 78.9631 257.089 78.8267C257.31 78.6847 257.421 78.4659 257.421 78.1705V78.1193C257.421 77.4773 257.231 76.9801 256.85 76.6278C256.469 76.2756 255.921 76.0994 255.205 76.0994C254.45 76.0994 253.85 76.2642 253.407 76.5938C252.969 76.9233 252.674 77.3125 252.521 77.7614L249.64 77.3523C249.867 76.5568 250.242 75.892 250.765 75.358C251.288 74.8182 251.927 74.4148 252.683 74.1477C253.438 73.875 254.273 73.7386 255.188 73.7386C255.819 73.7386 256.447 73.8125 257.072 73.9602C257.697 74.108 258.268 74.3523 258.785 74.6932C259.302 75.0284 259.717 75.4858 260.029 76.0653C260.347 76.6449 260.506 77.3693 260.506 78.2386V87H257.54V85.2017H257.438C257.251 85.5653 256.987 85.9062 256.646 86.2244C256.31 86.5369 255.887 86.7898 255.376 86.983C254.87 87.1705 254.276 87.2642 253.594 87.2642ZM254.396 84.9972C255.015 84.9972 255.552 84.875 256.006 84.6307C256.461 84.3807 256.81 84.0511 257.055 83.642C257.305 83.233 257.43 82.7869 257.43 82.304V80.7614C257.333 80.8409 257.168 80.9148 256.935 80.983C256.708 81.0511 256.452 81.1108 256.168 81.1619C255.884 81.2131 255.603 81.2585 255.325 81.2983C255.046 81.3381 254.805 81.3722 254.6 81.4006C254.14 81.4631 253.728 81.5653 253.364 81.7074C253.001 81.8494 252.714 82.0483 252.504 82.304C252.293 82.554 252.188 82.8778 252.188 83.2756C252.188 83.8438 252.396 84.2727 252.81 84.5625C253.225 84.8523 253.754 84.9972 254.396 84.9972ZM268.467 87.2301C267.438 87.2301 266.518 86.9659 265.705 86.4375C264.893 85.9091 264.251 85.142 263.779 84.1364C263.308 83.1307 263.072 81.9091 263.072 80.4716C263.072 79.017 263.31 77.7898 263.788 76.7898C264.271 75.7841 264.921 75.0256 265.739 74.5142C266.558 73.9972 267.469 73.7386 268.475 73.7386C269.242 73.7386 269.873 73.8693 270.367 74.1307C270.862 74.3864 271.254 74.696 271.543 75.0597C271.833 75.4176 272.058 75.7557 272.217 76.0739H272.344V69.5455H275.438V87H272.404V84.9375H272.217C272.058 85.2557 271.827 85.5937 271.526 85.9517C271.225 86.304 270.827 86.6051 270.333 86.8551C269.839 87.1051 269.217 87.2301 268.467 87.2301ZM269.327 84.6989C269.981 84.6989 270.538 84.5227 270.998 84.1705C271.458 83.8125 271.808 83.3153 272.046 82.679C272.285 82.0426 272.404 81.3011 272.404 80.4545C272.404 79.608 272.285 78.8722 272.046 78.2472C271.813 77.6222 271.467 77.1364 271.006 76.7898C270.552 76.4432 269.992 76.2699 269.327 76.2699C268.64 76.2699 268.066 76.4489 267.606 76.8068C267.146 77.1648 266.799 77.6591 266.566 78.2898C266.333 78.9205 266.217 79.642 266.217 80.4545C266.217 81.2727 266.333 82.0028 266.566 82.6449C266.805 83.2812 267.154 83.7841 267.614 84.1534C268.08 84.517 268.651 84.6989 269.327 84.6989ZM282.493 87.2642C281.663 87.2642 280.916 87.1165 280.251 86.821C279.592 86.5199 279.07 86.0767 278.683 85.4915C278.303 84.9062 278.112 84.1847 278.112 83.3267C278.112 82.5881 278.249 81.9773 278.521 81.4943C278.794 81.0114 279.166 80.625 279.638 80.3352C280.109 80.0455 280.641 79.8267 281.232 79.679C281.828 79.5256 282.445 79.4148 283.081 79.3466C283.848 79.267 284.47 79.196 284.947 79.1335C285.425 79.0653 285.771 78.9631 285.987 78.8267C286.209 78.6847 286.32 78.4659 286.32 78.1705V78.1193C286.32 77.4773 286.129 76.9801 285.749 76.6278C285.368 76.2756 284.82 76.0994 284.104 76.0994C283.348 76.0994 282.749 76.2642 282.305 76.5938C281.868 76.9233 281.572 77.3125 281.419 77.7614L278.538 77.3523C278.766 76.5568 279.141 75.892 279.663 75.358C280.186 74.8182 280.825 74.4148 281.581 74.1477C282.337 73.875 283.172 73.7386 284.087 73.7386C284.717 73.7386 285.345 73.8125 285.97 73.9602C286.595 74.108 287.166 74.3523 287.683 74.6932C288.2 75.0284 288.615 75.4858 288.928 76.0653C289.246 76.6449 289.405 77.3693 289.405 78.2386V87H286.439V85.2017H286.337C286.149 85.5653 285.885 85.9062 285.544 86.2244C285.209 86.5369 284.786 86.7898 284.274 86.983C283.768 87.1705 283.175 87.2642 282.493 87.2642ZM283.294 84.9972C283.913 84.9972 284.45 84.875 284.905 84.6307C285.359 84.3807 285.709 84.0511 285.953 83.642C286.203 83.233 286.328 82.7869 286.328 82.304V80.7614C286.232 80.8409 286.067 80.9148 285.834 80.983C285.607 81.0511 285.351 81.1108 285.067 81.1619C284.783 81.2131 284.501 81.2585 284.223 81.2983C283.945 81.3381 283.703 81.3722 283.499 81.4006C283.038 81.4631 282.626 81.5653 282.263 81.7074C281.899 81.8494 281.612 82.0483 281.402 82.304C281.192 82.554 281.087 82.8778 281.087 83.2756C281.087 83.8438 281.294 84.2727 281.709 84.5625C282.124 84.8523 282.652 84.9972 283.294 84.9972Z" fill="#00E45F"/>
<path d="M325.5 69.5L318 86.5L319.5 92.5L316 95.5L312.5 102L306 108L304.5 114L308 116.5L304.5 125L297.235 130V134L302.5 136.5V149L306 151.5L304.5 157.5L295.5 168.5L291.5 184L280 198V204L287.5 224.5L293 232V241.5L295.5 246.5L293 251H287.5L285.5 254L289 257.5L285.5 262.5V271L280 273.5L269 290.5L254.5 295.5L245 299L237 312.5L232.5 316.5L223.5 312.5L219.5 315L208 316.5L194.5 324.5L191 333V358.5L194.5 369.5L192.5 381.5V386.5L178.5 410.5L180 432L170.5 441.5L166 450V462L161.5 473.5L144.5 491.5L136 522.5L128 527.5V539.5L124 546.5L126 552.5L124 578L118.5 585.5L122.5 590V596.5L124 602.5L116 619L112 646.5L116 654V663.5L112 673V682L114 685.5L112 688.5L110 695L98 700.5V713.5L93 720V731L95.5 742.5L101 748.5L98 753.5L105 752L114 764L346.5 772L355 760.5L361.5 758.5L369.5 759.5L369 746L373.5 740.5L380 738L392.5 741.5L399 729L417.5 722.5L424.5 720L436.5 727.208L443.5 723.5V715.5L446.5 711.5L450 703.5L464.5 677.5L454 664.5L440.5 652L441.5 630.5L438.5 619.5L435 617.5L426 609V605.5L423.5 600.5L419.5 596L415 595.5L410.5 591L408.5 582.5L409 573.5L414 567.5V560.5L411.5 557.5L415 547.5L414 544L413.5 539.5L416 536L411.5 531.5L405 353L398.5 196.5L389 40.5L384.5 44.0377L379 58L374 56.5L370 59.5L366.5 55L361 56.5L358 51.5L354 50V44.0377L349.5 42L339 50H333.5L330.5 58L325.5 59.5H316L325.5 69.5Z" fill="#97DCFF" stroke="white" stroke-width="2"/>
<path d="M427.722 388.545H431.591L436.773 401.193H436.977L442.159 388.545H446.028V406H442.994V394.009H442.832L438.009 405.949H435.741L430.918 393.983H430.756V406H427.722V388.545ZM449.472 406V388.545H460.824V391.196H452.634V395.935H460.236V398.585H452.634V403.349H460.892V406H449.472Z" fill="#FFE587"/>
<path d="M112.057 430.545L116.599 444.284H116.778L121.312 430.545H124.79L118.636 448H114.733L108.588 430.545H112.057ZM126.322 433.196V430.545H140.248V433.196H134.853V448H131.717V433.196H126.322Z" fill="#FFE587"/>
<path d="M285.722 786.545H289.591L294.773 799.193H294.977L300.159 786.545H304.028V804H300.994V792.009H300.832L296.009 803.949H293.741L288.918 791.983H288.756V804H285.722V786.545ZM309.713 804H306.338L312.483 786.545H316.386L322.54 804H319.165L314.503 790.125H314.366L309.713 804ZM309.824 797.156H319.028V799.696H309.824V797.156Z" fill="#FFE587"/>
<line x1="287" y1="124" x2="304" y2="124" stroke="#00E45F" stroke-width="2"/>
<line x1="389.836" y1="39.5042" x2="404.836" y2="37.0135" stroke="#00E45F" stroke-width="2"/>
<line x1="454.093" y1="664.004" x2="469.232" y2="665.422" stroke="#FFE587" stroke-width="2"/>
<line x1="443.489" y1="724.038" x2="442.999" y2="737.059" stroke="#FFE587" stroke-width="2"/>
<line x1="114.031" y1="764" x2="101" y2="764" stroke="#FFE587" stroke-width="2"/>
<circle cx="312.511" cy="754.511" r="9.01136" fill="#FFE587" stroke="black"/>
<circle cx="380.511" cy="415.511" r="9.01136" fill="#FFE587" stroke="black"/>
<circle cx="248.511" cy="324.511" r="9.01136" fill="#FFE587" stroke="black"/>
<circle cx="427.511" cy="636.511" r="9.01136" fill="#FFE587" stroke="black"/>
<circle cx="408.511" cy="604.511" r="9.01136" fill="#FFE587" stroke="black"/>
<circle cx="315.511" cy="688.511" r="9.01136" fill="#FFE587" stroke="black"/>
<path d="M221.619 740.818V759H219.489L209.581 744.724H209.403V759H207.202V740.818H209.332L219.276 755.129H219.453V740.818H221.619ZM229.754 759.32C228.89 759.32 228.105 759.157 227.401 758.831C226.697 758.5 226.137 758.023 225.723 757.402C225.309 756.775 225.102 756.017 225.102 755.129C225.102 754.348 225.256 753.715 225.563 753.229C225.871 752.738 226.282 752.353 226.797 752.075C227.312 751.797 227.88 751.59 228.502 751.454C229.129 751.312 229.76 751.199 230.393 751.116C231.221 751.01 231.893 750.93 232.408 750.877C232.929 750.818 233.308 750.72 233.544 750.584C233.787 750.448 233.908 750.211 233.908 749.874V749.803C233.908 748.927 233.669 748.246 233.189 747.761C232.716 747.275 231.997 747.033 231.032 747.033C230.032 747.033 229.248 747.252 228.679 747.69C228.111 748.128 227.712 748.595 227.481 749.092L225.492 748.382C225.847 747.554 226.321 746.908 226.913 746.447C227.511 745.979 228.162 745.654 228.866 745.47C229.576 745.281 230.274 745.186 230.961 745.186C231.399 745.186 231.902 745.239 232.47 745.346C233.044 745.446 233.598 745.657 234.13 745.976C234.669 746.296 235.116 746.778 235.471 747.423C235.826 748.068 236.004 748.933 236.004 750.016V759H233.908V757.153H233.802C233.66 757.449 233.423 757.766 233.092 758.103C232.76 758.441 232.319 758.728 231.769 758.964C231.218 759.201 230.547 759.32 229.754 759.32ZM230.073 757.438C230.902 757.438 231.6 757.275 232.168 756.949C232.743 756.624 233.175 756.203 233.465 755.689C233.761 755.174 233.908 754.632 233.908 754.064V752.146C233.82 752.253 233.624 752.35 233.323 752.439C233.027 752.522 232.683 752.596 232.293 752.661C231.908 752.72 231.532 752.774 231.165 752.821C230.804 752.862 230.511 752.898 230.286 752.928C229.742 752.999 229.233 753.114 228.759 753.274C228.292 753.428 227.913 753.661 227.623 753.975C227.339 754.283 227.197 754.703 227.197 755.236C227.197 755.964 227.466 756.514 228.005 756.887C228.549 757.254 229.239 757.438 230.073 757.438ZM249.487 748.418L247.605 748.95C247.486 748.637 247.312 748.332 247.081 748.036C246.856 747.734 246.548 747.485 246.158 747.29C245.767 747.095 245.267 746.997 244.657 746.997C243.823 746.997 243.127 747.19 242.571 747.574C242.021 747.953 241.745 748.435 241.745 749.021C241.745 749.542 241.935 749.953 242.314 750.255C242.692 750.557 243.284 750.809 244.089 751.01L246.113 751.507C247.333 751.803 248.241 752.256 248.839 752.865C249.437 753.469 249.735 754.247 249.735 755.2C249.735 755.982 249.511 756.68 249.061 757.295C248.617 757.911 247.995 758.396 247.196 758.751C246.397 759.107 245.468 759.284 244.409 759.284C243.018 759.284 241.867 758.982 240.955 758.379C240.044 757.775 239.467 756.893 239.224 755.733L241.213 755.236C241.402 755.97 241.76 756.52 242.287 756.887C242.82 757.254 243.515 757.438 244.373 757.438C245.35 757.438 246.125 757.23 246.699 756.816C247.279 756.396 247.569 755.893 247.569 755.307C247.569 754.833 247.404 754.437 247.072 754.117C246.741 753.792 246.232 753.549 245.545 753.389L243.272 752.857C242.024 752.561 241.106 752.102 240.52 751.48C239.94 750.853 239.65 750.069 239.65 749.128C239.65 748.358 239.866 747.678 240.298 747.086C240.736 746.494 241.331 746.029 242.083 745.692C242.84 745.355 243.699 745.186 244.657 745.186C246.007 745.186 247.066 745.482 247.836 746.074C248.611 746.666 249.161 747.447 249.487 748.418ZM254.984 750.797V759H252.889V740.818H254.984V747.494H255.162C255.482 746.79 255.961 746.231 256.6 745.816C257.245 745.396 258.104 745.186 259.175 745.186C260.104 745.186 260.918 745.373 261.616 745.745C262.315 746.112 262.856 746.678 263.241 747.441C263.631 748.199 263.827 749.163 263.827 750.335V759H261.732V750.477C261.732 749.394 261.45 748.557 260.888 747.965C260.332 747.367 259.56 747.068 258.571 747.068C257.885 747.068 257.269 747.213 256.725 747.503C256.186 747.793 255.76 748.216 255.446 748.773C255.138 749.329 254.984 750.004 254.984 750.797ZM276.254 753.425V745.364H278.349V759H276.254V756.692H276.112C275.792 757.384 275.295 757.973 274.62 758.458C273.945 758.938 273.093 759.178 272.063 759.178C271.211 759.178 270.453 758.991 269.79 758.618C269.128 758.239 268.607 757.671 268.228 756.914C267.849 756.15 267.66 755.188 267.66 754.028V745.364H269.755V753.886C269.755 754.881 270.033 755.674 270.589 756.266C271.152 756.857 271.868 757.153 272.738 757.153C273.259 757.153 273.788 757.02 274.327 756.754C274.872 756.488 275.327 756.079 275.694 755.529C276.067 754.978 276.254 754.277 276.254 753.425ZM286.199 759.32C285.335 759.32 284.551 759.157 283.846 758.831C283.142 758.5 282.583 758.023 282.168 757.402C281.754 756.775 281.547 756.017 281.547 755.129C281.547 754.348 281.701 753.715 282.009 753.229C282.316 752.738 282.728 752.353 283.243 752.075C283.758 751.797 284.326 751.59 284.947 751.454C285.575 751.312 286.205 751.199 286.838 751.116C287.667 751.01 288.339 750.93 288.853 750.877C289.374 750.818 289.753 750.72 289.99 750.584C290.232 750.448 290.354 750.211 290.354 749.874V749.803C290.354 748.927 290.114 748.246 289.635 747.761C289.161 747.275 288.442 747.033 287.477 747.033C286.477 747.033 285.693 747.252 285.125 747.69C284.557 748.128 284.157 748.595 283.926 749.092L281.938 748.382C282.293 747.554 282.766 746.908 283.358 746.447C283.956 745.979 284.607 745.654 285.311 745.47C286.021 745.281 286.72 745.186 287.406 745.186C287.844 745.186 288.347 745.239 288.916 745.346C289.49 745.446 290.043 745.657 290.576 745.976C291.114 746.296 291.561 746.778 291.916 747.423C292.271 748.068 292.449 748.933 292.449 750.016V759H290.354V757.153H290.247C290.105 757.449 289.868 757.766 289.537 758.103C289.206 758.441 288.765 758.728 288.214 758.964C287.664 759.201 286.992 759.32 286.199 759.32ZM286.519 757.438C287.347 757.438 288.046 757.275 288.614 756.949C289.188 756.624 289.62 756.203 289.91 755.689C290.206 755.174 290.354 754.632 290.354 754.064V752.146C290.265 752.253 290.07 752.35 289.768 752.439C289.472 752.522 289.129 752.596 288.738 752.661C288.353 752.72 287.977 752.774 287.611 752.821C287.249 752.862 286.957 752.898 286.732 752.928C286.187 752.999 285.678 753.114 285.205 753.274C284.737 753.428 284.358 753.661 284.068 753.975C283.784 754.283 283.642 754.703 283.642 755.236C283.642 755.964 283.911 756.514 284.45 756.887C284.995 757.254 285.684 757.438 286.519 757.438Z" fill="black"/>
<path d="M165.202 675.818H167.83L174.009 690.911H174.222L180.401 675.818H183.028V694H180.969V680.186H180.791L175.109 694H173.121L167.439 680.186H167.261V694H165.202V675.818ZM191.172 694.32C190.307 694.32 189.523 694.157 188.819 693.831C188.115 693.5 187.555 693.023 187.141 692.402C186.727 691.775 186.52 691.017 186.52 690.129C186.52 689.348 186.674 688.715 186.981 688.229C187.289 687.738 187.7 687.353 188.215 687.075C188.73 686.797 189.298 686.59 189.92 686.454C190.547 686.312 191.178 686.199 191.811 686.116C192.639 686.01 193.311 685.93 193.826 685.877C194.347 685.818 194.726 685.72 194.962 685.584C195.205 685.448 195.326 685.211 195.326 684.874V684.803C195.326 683.927 195.087 683.246 194.607 682.761C194.134 682.275 193.415 682.033 192.45 682.033C191.45 682.033 190.666 682.252 190.097 682.69C189.529 683.128 189.13 683.595 188.899 684.092L186.91 683.382C187.265 682.554 187.739 681.908 188.331 681.447C188.928 680.979 189.58 680.654 190.284 680.47C190.994 680.281 191.692 680.186 192.379 680.186C192.817 680.186 193.32 680.239 193.888 680.346C194.462 680.446 195.016 680.657 195.548 680.976C196.087 681.296 196.534 681.778 196.889 682.423C197.244 683.068 197.422 683.933 197.422 685.016V694H195.326V692.153H195.22C195.078 692.449 194.841 692.766 194.51 693.103C194.178 693.441 193.737 693.728 193.187 693.964C192.636 694.201 191.965 694.32 191.172 694.32ZM191.491 692.438C192.32 692.438 193.018 692.275 193.586 691.949C194.16 691.624 194.593 691.203 194.883 690.689C195.178 690.174 195.326 689.632 195.326 689.064V687.146C195.238 687.253 195.042 687.35 194.741 687.439C194.445 687.522 194.101 687.596 193.711 687.661C193.326 687.72 192.95 687.774 192.583 687.821C192.222 687.862 191.929 687.898 191.704 687.928C191.16 687.999 190.651 688.114 190.177 688.274C189.71 688.428 189.331 688.661 189.041 688.975C188.757 689.283 188.615 689.703 188.615 690.236C188.615 690.964 188.884 691.514 189.423 691.887C189.967 692.254 190.657 692.438 191.491 692.438ZM203.341 685.797V694H201.246V680.364H203.27V682.494H203.447C203.767 681.802 204.252 681.246 204.903 680.825C205.554 680.399 206.395 680.186 207.425 680.186C208.348 680.186 209.156 680.375 209.848 680.754C210.541 681.127 211.079 681.695 211.464 682.459C211.849 683.216 212.041 684.175 212.041 685.335V694H209.946V685.477C209.946 684.406 209.668 683.571 209.112 682.974C208.555 682.37 207.792 682.068 206.821 682.068C206.152 682.068 205.554 682.213 205.028 682.503C204.507 682.793 204.096 683.216 203.794 683.773C203.492 684.329 203.341 685.004 203.341 685.797ZM221.41 694.284C220.131 694.284 219.03 693.982 218.107 693.379C217.184 692.775 216.473 691.943 215.976 690.884C215.479 689.824 215.231 688.614 215.231 687.253C215.231 685.868 215.485 684.646 215.994 683.586C216.509 682.521 217.225 681.689 218.142 681.092C219.066 680.488 220.143 680.186 221.374 680.186C222.333 680.186 223.197 680.364 223.966 680.719C224.736 681.074 225.366 681.571 225.857 682.21C226.349 682.849 226.653 683.595 226.772 684.447H224.677C224.517 683.826 224.162 683.276 223.611 682.796C223.067 682.311 222.333 682.068 221.41 682.068C220.593 682.068 219.877 682.281 219.261 682.707C218.651 683.128 218.175 683.722 217.832 684.492C217.494 685.255 217.326 686.152 217.326 687.182C217.326 688.235 217.491 689.153 217.823 689.934C218.16 690.715 218.634 691.322 219.243 691.754C219.859 692.186 220.581 692.402 221.41 692.402C221.954 692.402 222.448 692.307 222.892 692.118C223.336 691.929 223.712 691.656 224.02 691.301C224.327 690.946 224.546 690.52 224.677 690.023H226.772C226.653 690.828 226.36 691.553 225.893 692.198C225.431 692.837 224.819 693.346 224.055 693.725C223.298 694.098 222.416 694.284 221.41 694.284ZM231.93 685.797V694H229.835V675.818H231.93V682.494H232.107C232.427 681.79 232.906 681.231 233.546 680.816C234.191 680.396 235.049 680.186 236.12 680.186C237.049 680.186 237.863 680.373 238.562 680.745C239.26 681.112 239.801 681.678 240.186 682.441C240.577 683.199 240.772 684.163 240.772 685.335V694H238.677V685.477C238.677 684.394 238.396 683.557 237.834 682.965C237.277 682.367 236.505 682.068 235.516 682.068C234.83 682.068 234.214 682.213 233.67 682.503C233.131 682.793 232.705 683.216 232.391 683.773C232.084 684.329 231.93 685.004 231.93 685.797ZM250.322 694.284C249.009 694.284 247.875 693.994 246.922 693.414C245.975 692.828 245.244 692.011 244.729 690.964C244.22 689.91 243.966 688.685 243.966 687.288C243.966 685.892 244.22 684.661 244.729 683.595C245.244 682.524 245.96 681.689 246.878 681.092C247.801 680.488 248.878 680.186 250.109 680.186C250.82 680.186 251.521 680.304 252.213 680.541C252.906 680.778 253.536 681.163 254.104 681.695C254.673 682.222 255.125 682.92 255.463 683.79C255.8 684.661 255.969 685.732 255.969 687.004V687.892H245.457V686.081H253.838C253.838 685.312 253.684 684.625 253.376 684.021C253.075 683.418 252.643 682.941 252.08 682.592C251.524 682.243 250.867 682.068 250.109 682.068C249.275 682.068 248.553 682.275 247.943 682.69C247.339 683.098 246.875 683.631 246.549 684.288C246.224 684.945 246.061 685.649 246.061 686.401V687.608C246.061 688.638 246.239 689.511 246.594 690.227C246.955 690.937 247.455 691.479 248.094 691.852C248.733 692.219 249.476 692.402 250.322 692.402C250.873 692.402 251.37 692.325 251.814 692.171C252.264 692.011 252.651 691.775 252.977 691.461C253.302 691.141 253.554 690.745 253.732 690.271L255.756 690.839C255.543 691.526 255.185 692.13 254.681 692.651C254.178 693.165 253.557 693.568 252.817 693.858C252.077 694.142 251.246 694.284 250.322 694.284ZM268.815 683.418L266.933 683.95C266.815 683.637 266.64 683.332 266.409 683.036C266.184 682.734 265.876 682.485 265.486 682.29C265.095 682.095 264.595 681.997 263.985 681.997C263.151 681.997 262.455 682.19 261.899 682.574C261.349 682.953 261.074 683.435 261.074 684.021C261.074 684.542 261.263 684.953 261.642 685.255C262.02 685.557 262.612 685.809 263.417 686.01L265.441 686.507C266.661 686.803 267.569 687.256 268.167 687.865C268.765 688.469 269.064 689.247 269.064 690.2C269.064 690.982 268.839 691.68 268.389 692.295C267.945 692.911 267.324 693.396 266.525 693.751C265.725 694.107 264.796 694.284 263.737 694.284C262.346 694.284 261.195 693.982 260.283 693.379C259.372 692.775 258.795 691.893 258.552 690.733L260.541 690.236C260.73 690.97 261.088 691.52 261.615 691.887C262.148 692.254 262.843 692.438 263.701 692.438C264.678 692.438 265.453 692.23 266.027 691.816C266.607 691.396 266.897 690.893 266.897 690.307C266.897 689.833 266.732 689.437 266.4 689.117C266.069 688.792 265.56 688.549 264.873 688.389L262.6 687.857C261.352 687.561 260.434 687.102 259.848 686.48C259.268 685.853 258.978 685.069 258.978 684.128C258.978 683.358 259.194 682.678 259.626 682.086C260.064 681.494 260.659 681.029 261.411 680.692C262.168 680.355 263.027 680.186 263.985 680.186C265.335 680.186 266.394 680.482 267.164 681.074C267.939 681.666 268.489 682.447 268.815 683.418ZM278.148 680.364V682.139H271.081V680.364H278.148ZM273.141 677.097H275.236V690.094C275.236 690.686 275.322 691.129 275.493 691.425C275.671 691.715 275.896 691.911 276.168 692.011C276.446 692.106 276.739 692.153 277.047 692.153C277.278 692.153 277.467 692.142 277.615 692.118C277.763 692.088 277.881 692.065 277.97 692.047L278.396 693.929C278.254 693.982 278.056 694.036 277.802 694.089C277.547 694.148 277.225 694.178 276.834 694.178C276.242 694.178 275.662 694.05 275.094 693.796C274.532 693.541 274.064 693.154 273.691 692.633C273.324 692.112 273.141 691.455 273.141 690.662V677.097ZM286.87 694.284C285.556 694.284 284.423 693.994 283.47 693.414C282.523 692.828 281.792 692.011 281.277 690.964C280.768 689.91 280.514 688.685 280.514 687.288C280.514 685.892 280.768 684.661 281.277 683.595C281.792 682.524 282.508 681.689 283.426 681.092C284.349 680.488 285.426 680.186 286.657 680.186C287.367 680.186 288.069 680.304 288.761 680.541C289.454 680.778 290.084 681.163 290.652 681.695C291.22 682.222 291.673 682.92 292.011 683.79C292.348 684.661 292.517 685.732 292.517 687.004V687.892H282.005V686.081H290.386C290.386 685.312 290.232 684.625 289.924 684.021C289.622 683.418 289.19 682.941 288.628 682.592C288.072 682.243 287.415 682.068 286.657 682.068C285.823 682.068 285.101 682.275 284.491 682.69C283.887 683.098 283.423 683.631 283.097 684.288C282.772 684.945 282.609 685.649 282.609 686.401V687.608C282.609 688.638 282.786 689.511 283.142 690.227C283.503 690.937 284.003 691.479 284.642 691.852C285.281 692.219 286.024 692.402 286.87 692.402C287.421 692.402 287.918 692.325 288.362 692.171C288.812 692.011 289.199 691.775 289.525 691.461C289.85 691.141 290.102 690.745 290.279 690.271L292.304 690.839C292.09 691.526 291.732 692.13 291.229 692.651C290.726 693.165 290.105 693.568 289.365 693.858C288.625 694.142 287.794 694.284 286.87 694.284ZM295.704 694V680.364H297.728V682.423H297.87C298.119 681.749 298.568 681.201 299.219 680.781C299.87 680.361 300.604 680.151 301.421 680.151C301.575 680.151 301.767 680.154 301.998 680.159C302.229 680.165 302.404 680.174 302.522 680.186V682.317C302.451 682.299 302.288 682.272 302.034 682.237C301.785 682.195 301.522 682.175 301.244 682.175C300.581 682.175 299.989 682.314 299.468 682.592C298.953 682.864 298.545 683.243 298.243 683.728C297.947 684.208 297.799 684.755 297.799 685.371V694H295.704Z" fill="black"/>
<path d="M319.832 436.5H317.631C317.5 435.867 317.273 435.31 316.947 434.831C316.627 434.352 316.237 433.949 315.775 433.624C315.319 433.292 314.813 433.044 314.257 432.878C313.701 432.712 313.121 432.629 312.517 432.629C311.416 432.629 310.419 432.907 309.525 433.464C308.637 434.02 307.93 434.84 307.403 435.923C306.883 437.006 306.622 438.335 306.622 439.909C306.622 441.483 306.883 442.812 307.403 443.895C307.93 444.978 308.637 445.798 309.525 446.354C310.419 446.911 311.416 447.189 312.517 447.189C313.121 447.189 313.701 447.106 314.257 446.94C314.813 446.775 315.319 446.529 315.775 446.203C316.237 445.872 316.627 445.467 316.947 444.987C317.273 444.502 317.5 443.946 317.631 443.318H319.832C319.667 444.247 319.365 445.079 318.927 445.813C318.489 446.547 317.944 447.171 317.293 447.686C316.642 448.195 315.911 448.583 315.1 448.849C314.296 449.115 313.434 449.249 312.517 449.249C310.966 449.249 309.587 448.87 308.38 448.112C307.173 447.355 306.223 446.277 305.53 444.881C304.838 443.484 304.491 441.827 304.491 439.909C304.491 437.991 304.838 436.334 305.53 434.938C306.223 433.541 307.173 432.464 308.38 431.706C309.587 430.948 310.966 430.57 312.517 430.57C313.434 430.57 314.296 430.703 315.1 430.969C315.911 431.235 316.642 431.626 317.293 432.141C317.944 432.65 318.489 433.271 318.927 434.005C319.365 434.733 319.667 435.565 319.832 436.5ZM328.646 449.284C327.415 449.284 326.335 448.991 325.405 448.405C324.482 447.819 323.76 447 323.239 445.946C322.724 444.893 322.467 443.661 322.467 442.253C322.467 440.832 322.724 439.592 323.239 438.533C323.76 437.474 324.482 436.651 325.405 436.065C326.335 435.479 327.415 435.186 328.646 435.186C329.877 435.186 330.954 435.479 331.877 436.065C332.807 436.651 333.529 437.474 334.044 438.533C334.564 439.592 334.825 440.832 334.825 442.253C334.825 443.661 334.564 444.893 334.044 445.946C333.529 447 332.807 447.819 331.877 448.405C330.954 448.991 329.877 449.284 328.646 449.284ZM328.646 447.402C329.581 447.402 330.35 447.162 330.954 446.683C331.558 446.203 332.005 445.573 332.295 444.792C332.585 444.011 332.73 443.164 332.73 442.253C332.73 441.341 332.585 440.492 332.295 439.705C332.005 438.918 331.558 438.281 330.954 437.796C330.35 437.311 329.581 437.068 328.646 437.068C327.711 437.068 326.941 437.311 326.338 437.796C325.734 438.281 325.287 438.918 324.997 439.705C324.707 440.492 324.562 441.341 324.562 442.253C324.562 443.164 324.707 444.011 324.997 444.792C325.287 445.573 325.734 446.203 326.338 446.683C326.941 447.162 327.711 447.402 328.646 447.402ZM340.118 440.797V449H338.023V435.364H340.047V437.494H340.225C340.544 436.802 341.03 436.246 341.681 435.825C342.332 435.399 343.172 435.186 344.202 435.186C345.125 435.186 345.933 435.375 346.626 435.754C347.318 436.127 347.857 436.695 348.241 437.459C348.626 438.216 348.819 439.175 348.819 440.335V449H346.723V440.477C346.723 439.406 346.445 438.571 345.889 437.974C345.333 437.37 344.569 437.068 343.598 437.068C342.93 437.068 342.332 437.213 341.805 437.503C341.284 437.793 340.873 438.216 340.571 438.773C340.269 439.329 340.118 440.004 340.118 440.797ZM355.737 449L351.582 435.364H353.783L356.731 445.804H356.873L359.785 435.364H362.022L364.899 445.768H365.041L367.988 435.364H370.19L366.035 449H363.975L360.992 438.524H360.779L357.796 449H355.737ZM376.972 449.32C376.108 449.32 375.324 449.157 374.62 448.831C373.915 448.5 373.356 448.023 372.942 447.402C372.528 446.775 372.32 446.017 372.32 445.129C372.32 444.348 372.474 443.715 372.782 443.229C373.09 442.738 373.501 442.353 374.016 442.075C374.531 441.797 375.099 441.59 375.721 441.454C376.348 441.312 376.978 441.199 377.612 441.116C378.44 441.01 379.112 440.93 379.627 440.877C380.148 440.818 380.526 440.72 380.763 440.584C381.006 440.448 381.127 440.211 381.127 439.874V439.803C381.127 438.927 380.888 438.246 380.408 437.761C379.935 437.275 379.216 437.033 378.251 437.033C377.251 437.033 376.466 437.252 375.898 437.69C375.33 438.128 374.93 438.595 374.7 439.092L372.711 438.382C373.066 437.554 373.54 436.908 374.131 436.447C374.729 435.979 375.38 435.654 376.085 435.47C376.795 435.281 377.493 435.186 378.18 435.186C378.618 435.186 379.121 435.239 379.689 435.346C380.263 435.446 380.816 435.657 381.349 435.976C381.888 436.296 382.335 436.778 382.69 437.423C383.045 438.068 383.222 438.933 383.222 440.016V449H381.127V447.153H381.021C380.879 447.449 380.642 447.766 380.31 448.103C379.979 448.441 379.538 448.728 378.988 448.964C378.437 449.201 377.765 449.32 376.972 449.32ZM377.292 447.438C378.121 447.438 378.819 447.275 379.387 446.949C379.961 446.624 380.393 446.203 380.683 445.689C380.979 445.174 381.127 444.632 381.127 444.064V442.146C381.038 442.253 380.843 442.35 380.541 442.439C380.245 442.522 379.902 442.596 379.511 442.661C379.127 442.72 378.751 442.774 378.384 442.821C378.023 442.862 377.73 442.898 377.505 442.928C376.961 442.999 376.452 443.114 375.978 443.274C375.511 443.428 375.132 443.661 374.842 443.975C374.558 444.283 374.416 444.703 374.416 445.236C374.416 445.964 374.685 446.514 375.223 446.887C375.768 447.254 376.457 447.438 377.292 447.438ZM387.908 454.114C387.553 454.114 387.236 454.084 386.958 454.025C386.68 453.972 386.487 453.918 386.381 453.865L386.913 452.018C387.422 452.149 387.872 452.196 388.263 452.161C388.653 452.125 389 451.95 389.301 451.637C389.609 451.329 389.89 450.829 390.145 450.136L390.536 449.071L385.493 435.364H387.766L391.53 446.23H391.672L395.436 435.364H397.709L391.92 450.989C391.66 451.693 391.337 452.276 390.953 452.738C390.568 453.205 390.121 453.551 389.612 453.776C389.109 454.001 388.541 454.114 387.908 454.114Z" fill="black"/>
<path d="M217.202 358V339.818H219.403V356.047H227.855V358H217.202ZM230.98 358V344.364H233.075V358H230.98ZM232.045 342.091C231.637 342.091 231.285 341.952 230.989 341.674C230.699 341.395 230.554 341.061 230.554 340.67C230.554 340.28 230.699 339.945 230.989 339.667C231.285 339.389 231.637 339.25 232.045 339.25C232.454 339.25 232.803 339.389 233.093 339.667C233.389 339.945 233.537 340.28 233.537 340.67C233.537 341.061 233.389 341.395 233.093 341.674C232.803 341.952 232.454 342.091 232.045 342.091ZM242.843 344.364V346.139H235.776V344.364H242.843ZM237.836 341.097H239.931V354.094C239.931 354.686 240.017 355.129 240.189 355.425C240.366 355.715 240.591 355.911 240.863 356.011C241.142 356.106 241.435 356.153 241.742 356.153C241.973 356.153 242.162 356.142 242.31 356.118C242.458 356.088 242.577 356.065 242.666 356.047L243.092 357.929C242.95 357.982 242.751 358.036 242.497 358.089C242.242 358.148 241.92 358.178 241.529 358.178C240.937 358.178 240.357 358.05 239.789 357.796C239.227 357.541 238.759 357.154 238.386 356.633C238.02 356.112 237.836 355.455 237.836 354.662V341.097ZM251.925 344.364V346.139H244.858V344.364H251.925ZM246.918 341.097H249.013V354.094C249.013 354.686 249.099 355.129 249.271 355.425C249.448 355.715 249.673 355.911 249.945 356.011C250.224 356.106 250.517 356.153 250.824 356.153C251.055 356.153 251.245 356.142 251.392 356.118C251.54 356.088 251.659 356.065 251.748 356.047L252.174 357.929C252.032 357.982 251.833 358.036 251.579 358.089C251.324 358.148 251.002 358.178 250.611 358.178C250.019 358.178 249.439 358.05 248.871 357.796C248.309 357.541 247.841 357.154 247.468 356.633C247.102 356.112 246.918 355.455 246.918 354.662V341.097ZM257.465 339.818V358H255.37V339.818H257.465ZM267.02 358.284C265.706 358.284 264.572 357.994 263.619 357.414C262.673 356.828 261.942 356.011 261.427 354.964C260.918 353.91 260.663 352.685 260.663 351.288C260.663 349.892 260.918 348.661 261.427 347.595C261.942 346.524 262.658 345.689 263.575 345.092C264.498 344.488 265.576 344.186 266.807 344.186C267.517 344.186 268.218 344.304 268.911 344.541C269.603 344.778 270.233 345.163 270.802 345.695C271.37 346.222 271.823 346.92 272.16 347.79C272.497 348.661 272.666 349.732 272.666 351.004V351.892H262.155V350.081H270.535C270.535 349.312 270.381 348.625 270.074 348.021C269.772 347.418 269.34 346.941 268.778 346.592C268.221 346.243 267.564 346.068 266.807 346.068C265.972 346.068 265.25 346.275 264.64 346.69C264.037 347.098 263.572 347.631 263.247 348.288C262.921 348.945 262.758 349.649 262.758 350.401V351.608C262.758 352.638 262.936 353.511 263.291 354.227C263.652 354.937 264.152 355.479 264.791 355.852C265.431 356.219 266.173 356.402 267.02 356.402C267.57 356.402 268.067 356.325 268.511 356.171C268.961 356.011 269.349 355.775 269.674 355.461C270 355.141 270.251 354.745 270.429 354.271L272.453 354.839C272.24 355.526 271.882 356.13 271.379 356.651C270.876 357.165 270.254 357.568 269.514 357.858C268.775 358.142 267.943 358.284 267.02 358.284ZM281.784 344.364V346.139H274.717V344.364H281.784ZM276.776 341.097H278.872V354.094C278.872 354.686 278.957 355.129 279.129 355.425C279.307 355.715 279.532 355.911 279.804 356.011C280.082 356.106 280.375 356.153 280.683 356.153C280.914 356.153 281.103 356.142 281.251 356.118C281.399 356.088 281.517 356.065 281.606 356.047L282.032 357.929C281.89 357.982 281.692 358.036 281.437 358.089C281.183 358.148 280.86 358.178 280.47 358.178C279.878 358.178 279.298 358.05 278.73 357.796C278.167 357.541 277.7 357.154 277.327 356.633C276.96 356.112 276.776 355.455 276.776 354.662V341.097ZM290.328 358.284C289.097 358.284 288.017 357.991 287.088 357.405C286.165 356.819 285.443 356 284.922 354.946C284.407 353.893 284.15 352.661 284.15 351.253C284.15 349.832 284.407 348.592 284.922 347.533C285.443 346.474 286.165 345.651 287.088 345.065C288.017 344.479 289.097 344.186 290.328 344.186C291.56 344.186 292.637 344.479 293.56 345.065C294.489 345.651 295.211 346.474 295.726 347.533C296.247 348.592 296.507 349.832 296.507 351.253C296.507 352.661 296.247 353.893 295.726 354.946C295.211 356 294.489 356.819 293.56 357.405C292.637 357.991 291.56 358.284 290.328 358.284ZM290.328 356.402C291.264 356.402 292.033 356.162 292.637 355.683C293.24 355.203 293.687 354.573 293.977 353.792C294.267 353.011 294.412 352.164 294.412 351.253C294.412 350.341 294.267 349.492 293.977 348.705C293.687 347.918 293.24 347.281 292.637 346.796C292.033 346.311 291.264 346.068 290.328 346.068C289.393 346.068 288.624 346.311 288.02 346.796C287.417 347.281 286.97 347.918 286.68 348.705C286.39 349.492 286.245 350.341 286.245 351.253C286.245 352.164 286.39 353.011 286.68 353.792C286.97 354.573 287.417 355.203 288.02 355.683C288.624 356.162 289.393 356.402 290.328 356.402ZM301.801 349.797V358H299.706V344.364H301.73V346.494H301.907C302.227 345.802 302.712 345.246 303.363 344.825C304.014 344.399 304.855 344.186 305.885 344.186C306.808 344.186 307.616 344.375 308.308 344.754C309.001 345.127 309.539 345.695 309.924 346.459C310.309 347.216 310.501 348.175 310.501 349.335V358H308.406V349.477C308.406 348.406 308.128 347.571 307.571 346.974C307.015 346.37 306.252 346.068 305.281 346.068C304.612 346.068 304.014 346.213 303.488 346.503C302.967 346.793 302.555 347.216 302.254 347.773C301.952 348.329 301.801 349.004 301.801 349.797Z" fill="black"/>
<path d="M374.812 670H369.202V651.818H375.061C376.825 651.818 378.334 652.182 379.589 652.91C380.844 653.632 381.805 654.671 382.474 656.026C383.143 657.376 383.477 658.991 383.477 660.874C383.477 662.768 383.14 664.398 382.465 665.765C381.79 667.127 380.808 668.174 379.518 668.908C378.228 669.636 376.659 670 374.812 670ZM371.403 668.047H374.67C376.174 668.047 377.42 667.757 378.408 667.177C379.396 666.597 380.133 665.771 380.619 664.7C381.104 663.629 381.347 662.353 381.347 660.874C381.347 659.406 381.107 658.142 380.627 657.083C380.148 656.017 379.432 655.201 378.479 654.632C377.526 654.058 376.339 653.771 374.919 653.771H371.403V668.047ZM392.426 670.284C391.195 670.284 390.115 669.991 389.186 669.405C388.262 668.819 387.54 668 387.02 666.946C386.505 665.893 386.247 664.661 386.247 663.253C386.247 661.832 386.505 660.592 387.02 659.533C387.54 658.474 388.262 657.651 389.186 657.065C390.115 656.479 391.195 656.186 392.426 656.186C393.657 656.186 394.734 656.479 395.658 657.065C396.587 657.651 397.309 658.474 397.824 659.533C398.345 660.592 398.605 661.832 398.605 663.253C398.605 664.661 398.345 665.893 397.824 666.946C397.309 668 396.587 668.819 395.658 669.405C394.734 669.991 393.657 670.284 392.426 670.284ZM392.426 668.402C393.361 668.402 394.131 668.162 394.734 667.683C395.338 667.203 395.785 666.573 396.075 665.792C396.365 665.011 396.51 664.164 396.51 663.253C396.51 662.341 396.365 661.492 396.075 660.705C395.785 659.918 395.338 659.281 394.734 658.796C394.131 658.311 393.361 658.068 392.426 658.068C391.491 658.068 390.722 658.311 390.118 658.796C389.514 659.281 389.067 659.918 388.777 660.705C388.487 661.492 388.342 662.341 388.342 663.253C388.342 664.164 388.487 665.011 388.777 665.792C389.067 666.573 389.514 667.203 390.118 667.683C390.722 668.162 391.491 668.402 392.426 668.402ZM412.466 656.364L407.423 670H405.292L400.25 656.364H402.522L406.287 667.23H406.429L410.193 656.364H412.466ZM420.46 670.284C419.146 670.284 418.013 669.994 417.06 669.414C416.113 668.828 415.382 668.011 414.867 666.964C414.358 665.91 414.104 664.685 414.104 663.288C414.104 661.892 414.358 660.661 414.867 659.595C415.382 658.524 416.098 657.689 417.016 657.092C417.939 656.488 419.016 656.186 420.247 656.186C420.957 656.186 421.659 656.304 422.351 656.541C423.044 656.778 423.674 657.163 424.242 657.695C424.81 658.222 425.263 658.92 425.6 659.79C425.938 660.661 426.106 661.732 426.106 663.004V663.892H415.595V662.081H423.976C423.976 661.312 423.822 660.625 423.514 660.021C423.212 659.418 422.78 658.941 422.218 658.592C421.662 658.243 421.005 658.068 420.247 658.068C419.413 658.068 418.69 658.275 418.081 658.69C417.477 659.098 417.013 659.631 416.687 660.288C416.362 660.945 416.199 661.649 416.199 662.401V663.608C416.199 664.638 416.376 665.511 416.731 666.227C417.092 666.937 417.593 667.479 418.232 667.852C418.871 668.219 419.614 668.402 420.46 668.402C421.011 668.402 421.508 668.325 421.952 668.171C422.401 668.011 422.789 667.775 423.115 667.461C423.44 667.141 423.692 666.745 423.869 666.271L425.893 666.839C425.68 667.526 425.322 668.13 424.819 668.651C424.316 669.165 423.695 669.568 422.955 669.858C422.215 670.142 421.383 670.284 420.46 670.284ZM429.294 670V656.364H431.318V658.423H431.46C431.708 657.749 432.158 657.201 432.809 656.781C433.46 656.361 434.194 656.151 435.011 656.151C435.165 656.151 435.357 656.154 435.588 656.159C435.819 656.165 435.993 656.174 436.112 656.186V658.317C436.041 658.299 435.878 658.272 435.623 658.237C435.375 658.195 435.112 658.175 434.833 658.175C434.17 658.175 433.579 658.314 433.058 658.592C432.543 658.864 432.134 659.243 431.833 659.728C431.537 660.208 431.389 660.755 431.389 661.371V670H429.294Z" fill="black"/>
<path d="M288.202 592V573.818H294.345C295.766 573.818 296.932 574.061 297.843 574.546C298.754 575.026 299.429 575.685 299.867 576.526C300.305 577.366 300.524 578.322 300.524 579.393C300.524 580.465 300.305 581.415 299.867 582.243C299.429 583.072 298.757 583.723 297.852 584.196C296.946 584.664 295.789 584.898 294.381 584.898H289.409V582.909H294.31C295.28 582.909 296.062 582.767 296.653 582.483C297.251 582.199 297.683 581.796 297.95 581.276C298.222 580.749 298.358 580.121 298.358 579.393C298.358 578.665 298.222 578.029 297.95 577.485C297.677 576.94 297.242 576.52 296.645 576.224C296.047 575.922 295.257 575.771 294.274 575.771H290.403V592H288.202ZM296.76 583.832L301.234 592H298.678L294.274 583.832H296.76ZM309.302 592.284C308.071 592.284 306.991 591.991 306.062 591.405C305.138 590.819 304.416 590 303.896 588.946C303.381 587.893 303.123 586.661 303.123 585.253C303.123 583.832 303.381 582.592 303.896 581.533C304.416 580.474 305.138 579.651 306.062 579.065C306.991 578.479 308.071 578.186 309.302 578.186C310.533 578.186 311.61 578.479 312.534 579.065C313.463 579.651 314.185 580.474 314.7 581.533C315.221 582.592 315.481 583.832 315.481 585.253C315.481 586.661 315.221 587.893 314.7 588.946C314.185 590 313.463 590.819 312.534 591.405C311.61 591.991 310.533 592.284 309.302 592.284ZM309.302 590.402C310.237 590.402 311.007 590.162 311.61 589.683C312.214 589.203 312.661 588.573 312.951 587.792C313.241 587.011 313.386 586.164 313.386 585.253C313.386 584.341 313.241 583.492 312.951 582.705C312.661 581.918 312.214 581.281 311.61 580.796C311.007 580.311 310.237 580.068 309.302 580.068C308.367 580.068 307.598 580.311 306.994 580.796C306.39 581.281 305.943 581.918 305.653 582.705C305.363 583.492 305.218 584.341 305.218 585.253C305.218 586.164 305.363 587.011 305.653 587.792C305.943 588.573 306.39 589.203 306.994 589.683C307.598 590.162 308.367 590.402 309.302 590.402ZM324.219 592.284C322.941 592.284 321.84 591.982 320.917 591.379C319.993 590.775 319.283 589.943 318.786 588.884C318.289 587.824 318.04 586.614 318.04 585.253C318.04 583.868 318.295 582.646 318.804 581.586C319.319 580.521 320.035 579.689 320.952 579.092C321.875 578.488 322.953 578.186 324.184 578.186C325.142 578.186 326.007 578.364 326.776 578.719C327.545 579.074 328.176 579.571 328.667 580.21C329.158 580.849 329.463 581.595 329.581 582.447H327.486C327.326 581.826 326.971 581.276 326.421 580.796C325.876 580.311 325.142 580.068 324.219 580.068C323.402 580.068 322.686 580.281 322.071 580.707C321.461 581.128 320.985 581.722 320.641 582.492C320.304 583.255 320.135 584.152 320.135 585.182C320.135 586.235 320.301 587.153 320.632 587.934C320.97 588.715 321.443 589.322 322.053 589.754C322.668 590.186 323.391 590.402 324.219 590.402C324.764 590.402 325.258 590.307 325.702 590.118C326.146 589.929 326.521 589.656 326.829 589.301C327.137 588.946 327.356 588.52 327.486 588.023H329.581C329.463 588.828 329.17 589.553 328.702 590.198C328.241 590.837 327.628 591.346 326.865 591.725C326.107 592.098 325.225 592.284 324.219 592.284ZM334.739 583.797V592H332.644V573.818H334.739V580.494H334.917C335.237 579.79 335.716 579.231 336.355 578.816C337 578.396 337.858 578.186 338.93 578.186C339.859 578.186 340.673 578.373 341.371 578.745C342.069 579.112 342.611 579.678 342.996 580.441C343.386 581.199 343.582 582.163 343.582 583.335V592H341.487V583.477C341.487 582.394 341.205 581.557 340.643 580.965C340.087 580.367 339.314 580.068 338.326 580.068C337.639 580.068 337.024 580.213 336.479 580.503C335.941 580.793 335.515 581.216 335.201 581.773C334.893 582.329 334.739 583.004 334.739 583.797ZM353.132 592.284C351.818 592.284 350.685 591.994 349.732 591.414C348.785 590.828 348.054 590.011 347.539 588.964C347.03 587.91 346.775 586.685 346.775 585.288C346.775 583.892 347.03 582.661 347.539 581.595C348.054 580.524 348.77 579.689 349.687 579.092C350.611 578.488 351.688 578.186 352.919 578.186C353.629 578.186 354.331 578.304 355.023 578.541C355.715 578.778 356.346 579.163 356.914 579.695C357.482 580.222 357.935 580.92 358.272 581.79C358.61 582.661 358.778 583.732 358.778 585.004V585.892H348.267V584.081H356.648C356.648 583.312 356.494 582.625 356.186 582.021C355.884 581.418 355.452 580.941 354.89 580.592C354.333 580.243 353.677 580.068 352.919 580.068C352.084 580.068 351.362 580.275 350.753 580.69C350.149 581.098 349.684 581.631 349.359 582.288C349.033 582.945 348.871 583.649 348.871 584.401V585.608C348.871 586.638 349.048 587.511 349.403 588.227C349.764 588.937 350.264 589.479 350.904 589.852C351.543 590.219 352.286 590.402 353.132 590.402C353.682 590.402 354.18 590.325 354.623 590.171C355.073 590.011 355.461 589.775 355.786 589.461C356.112 589.141 356.364 588.745 356.541 588.271L358.565 588.839C358.352 589.526 357.994 590.13 357.491 590.651C356.988 591.165 356.367 591.568 355.627 591.858C354.887 592.142 354.055 592.284 353.132 592.284ZM371.625 581.418L369.742 581.95C369.624 581.637 369.449 581.332 369.219 581.036C368.994 580.734 368.686 580.485 368.295 580.29C367.905 580.095 367.405 579.997 366.795 579.997C365.96 579.997 365.265 580.19 364.709 580.574C364.158 580.953 363.883 581.435 363.883 582.021C363.883 582.542 364.072 582.953 364.451 583.255C364.83 583.557 365.422 583.809 366.227 584.01L368.251 584.507C369.47 584.803 370.379 585.256 370.976 585.865C371.574 586.469 371.873 587.247 371.873 588.2C371.873 588.982 371.648 589.68 371.198 590.295C370.755 590.911 370.133 591.396 369.334 591.751C368.535 592.107 367.606 592.284 366.546 592.284C365.156 592.284 364.004 591.982 363.093 591.379C362.181 590.775 361.604 589.893 361.362 588.733L363.35 588.236C363.54 588.97 363.898 589.52 364.425 589.887C364.957 590.254 365.653 590.438 366.511 590.438C367.487 590.438 368.263 590.23 368.837 589.816C369.417 589.396 369.707 588.893 369.707 588.307C369.707 587.833 369.541 587.437 369.21 587.117C368.878 586.792 368.369 586.549 367.683 586.389L365.41 585.857C364.161 585.561 363.244 585.102 362.658 584.48C362.078 583.853 361.788 583.069 361.788 582.128C361.788 581.358 362.004 580.678 362.436 580.086C362.874 579.494 363.469 579.029 364.22 578.692C364.978 578.355 365.836 578.186 366.795 578.186C368.144 578.186 369.204 578.482 369.973 579.074C370.749 579.666 371.299 580.447 371.625 581.418ZM380.957 578.364V580.139H373.891V578.364H380.957ZM375.95 575.097H378.045V588.094C378.045 588.686 378.131 589.129 378.303 589.425C378.48 589.715 378.705 589.911 378.978 590.011C379.256 590.106 379.549 590.153 379.857 590.153C380.087 590.153 380.277 590.142 380.425 590.118C380.573 590.088 380.691 590.065 380.78 590.047L381.206 591.929C381.064 591.982 380.866 592.036 380.611 592.089C380.357 592.148 380.034 592.178 379.643 592.178C379.052 592.178 378.472 592.05 377.903 591.796C377.341 591.541 376.874 591.154 376.501 590.633C376.134 590.112 375.95 589.455 375.95 588.662V575.097ZM389.68 592.284C388.366 592.284 387.233 591.994 386.28 591.414C385.333 590.828 384.602 590.011 384.087 588.964C383.578 587.91 383.323 586.685 383.323 585.288C383.323 583.892 383.578 582.661 384.087 581.595C384.602 580.524 385.318 579.689 386.235 579.092C387.159 578.488 388.236 578.186 389.467 578.186C390.177 578.186 390.878 578.304 391.571 578.541C392.263 578.778 392.894 579.163 393.462 579.695C394.03 580.222 394.483 580.92 394.82 581.79C395.157 582.661 395.326 583.732 395.326 585.004V585.892H384.815V584.081H393.195C393.195 583.312 393.042 582.625 392.734 582.021C392.432 581.418 392 580.941 391.438 580.592C390.881 580.243 390.224 580.068 389.467 580.068C388.632 580.068 387.91 580.275 387.301 580.69C386.697 581.098 386.232 581.631 385.907 582.288C385.581 582.945 385.419 583.649 385.419 584.401V585.608C385.419 586.638 385.596 587.511 385.951 588.227C386.312 588.937 386.812 589.479 387.452 589.852C388.091 590.219 388.834 590.402 389.68 590.402C390.23 590.402 390.727 590.325 391.171 590.171C391.621 590.011 392.009 589.775 392.334 589.461C392.66 589.141 392.911 588.745 393.089 588.271L395.113 588.839C394.9 589.526 394.542 590.13 394.039 590.651C393.536 591.165 392.914 591.568 392.175 591.858C391.435 592.142 390.603 592.284 389.68 592.284ZM398.513 592V578.364H400.537V580.423H400.68C400.928 579.749 401.378 579.201 402.029 578.781C402.68 578.361 403.414 578.151 404.231 578.151C404.385 578.151 404.577 578.154 404.808 578.159C405.039 578.165 405.213 578.174 405.331 578.186V580.317C405.26 580.299 405.098 580.272 404.843 580.237C404.595 580.195 404.331 580.175 404.053 580.175C403.39 580.175 402.798 580.314 402.278 580.592C401.763 580.864 401.354 581.243 401.052 581.728C400.756 582.208 400.608 582.755 400.608 583.371V592H398.513Z" fill="black"/>
<circle cx="296.511" cy="630.511" r="9.01136" fill="#FF8F87" stroke="black"/>
<path d="M191.623 627.184H187.734C187.663 626.681 187.518 626.234 187.299 625.843C187.08 625.446 186.799 625.109 186.456 624.831C186.112 624.553 185.716 624.34 185.266 624.192C184.822 624.044 184.34 623.97 183.819 623.97C182.878 623.97 182.058 624.204 181.36 624.671C180.661 625.133 180.12 625.808 179.735 626.695C179.35 627.577 179.158 628.648 179.158 629.909C179.158 631.205 179.35 632.294 179.735 633.176C180.126 634.058 180.67 634.724 181.369 635.174C182.067 635.623 182.875 635.848 183.792 635.848C184.307 635.848 184.784 635.78 185.222 635.644C185.665 635.508 186.059 635.31 186.402 635.049C186.746 634.783 187.03 634.46 187.255 634.082C187.485 633.703 187.645 633.271 187.734 632.786L191.623 632.803C191.522 633.638 191.27 634.443 190.868 635.218C190.471 635.987 189.936 636.677 189.261 637.287C188.592 637.89 187.793 638.37 186.864 638.725C185.941 639.074 184.896 639.249 183.73 639.249C182.108 639.249 180.658 638.882 179.38 638.148C178.107 637.414 177.101 636.351 176.362 634.961C175.628 633.57 175.261 631.886 175.261 629.909C175.261 627.926 175.634 626.24 176.379 624.849C177.125 623.458 178.137 622.398 179.415 621.67C180.694 620.937 182.132 620.57 183.73 620.57C184.784 620.57 185.76 620.718 186.66 621.013C187.565 621.309 188.367 621.741 189.066 622.31C189.764 622.872 190.332 623.561 190.77 624.378C191.214 625.195 191.498 626.13 191.623 627.184ZM200.469 639.266C199.09 639.266 197.898 638.973 196.892 638.387C195.891 637.796 195.119 636.973 194.574 635.919C194.03 634.86 193.758 633.632 193.758 632.235C193.758 630.826 194.03 629.595 194.574 628.542C195.119 627.482 195.891 626.66 196.892 626.074C197.898 625.482 199.09 625.186 200.469 625.186C201.848 625.186 203.038 625.482 204.038 626.074C205.044 626.66 205.82 627.482 206.364 628.542C206.909 629.595 207.181 630.826 207.181 632.235C207.181 633.632 206.909 634.86 206.364 635.919C205.82 636.973 205.044 637.796 204.038 638.387C203.038 638.973 201.848 639.266 200.469 639.266ZM200.487 636.337C201.114 636.337 201.638 636.159 202.058 635.804C202.479 635.443 202.795 634.952 203.008 634.33C203.227 633.709 203.337 633.002 203.337 632.208C203.337 631.415 203.227 630.708 203.008 630.087C202.795 629.465 202.479 628.974 202.058 628.613C201.638 628.252 201.114 628.071 200.487 628.071C199.854 628.071 199.321 628.252 198.889 628.613C198.463 628.974 198.14 629.465 197.921 630.087C197.708 630.708 197.602 631.415 197.602 632.208C197.602 633.002 197.708 633.709 197.921 634.33C198.14 634.952 198.463 635.443 198.889 635.804C199.321 636.159 199.854 636.337 200.487 636.337ZM213.422 631.116V639H209.64V625.364H213.244V627.77H213.404C213.706 626.976 214.212 626.349 214.922 625.887C215.633 625.42 216.494 625.186 217.506 625.186C218.453 625.186 219.278 625.393 219.983 625.808C220.687 626.222 221.235 626.814 221.625 627.583C222.016 628.347 222.211 629.258 222.211 630.317V639H218.429V630.992C218.435 630.158 218.222 629.507 217.79 629.039C217.358 628.566 216.763 628.329 216.006 628.329C215.497 628.329 215.047 628.438 214.656 628.657C214.271 628.876 213.97 629.196 213.751 629.616C213.537 630.03 213.428 630.531 213.422 631.116ZM231.353 639.266C229.956 639.266 228.755 638.97 227.749 638.379C226.748 637.781 225.979 636.952 225.44 635.893C224.908 634.833 224.641 633.614 224.641 632.235C224.641 630.838 224.911 629.613 225.449 628.56C225.994 627.5 226.766 626.675 227.766 626.083C228.767 625.485 229.956 625.186 231.335 625.186C232.525 625.186 233.567 625.402 234.46 625.834C235.354 626.266 236.061 626.873 236.582 627.654C237.103 628.435 237.39 629.353 237.443 630.406H233.874C233.774 629.726 233.507 629.178 233.075 628.764C232.649 628.344 232.09 628.134 231.397 628.134C230.812 628.134 230.3 628.293 229.862 628.613C229.43 628.927 229.092 629.385 228.85 629.989C228.607 630.593 228.486 631.324 228.486 632.182C228.486 633.052 228.604 633.792 228.841 634.401C229.083 635.011 229.424 635.475 229.862 635.795C230.3 636.115 230.812 636.275 231.397 636.275C231.83 636.275 232.217 636.186 232.56 636.008C232.91 635.831 233.197 635.573 233.422 635.236C233.652 634.893 233.803 634.481 233.874 634.002H237.443C237.384 635.043 237.1 635.961 236.591 636.754C236.088 637.541 235.392 638.157 234.505 638.6C233.617 639.044 232.566 639.266 231.353 639.266ZM246.026 639.266C244.647 639.266 243.454 638.973 242.448 638.387C241.448 637.796 240.676 636.973 240.131 635.919C239.587 634.86 239.314 633.632 239.314 632.235C239.314 630.826 239.587 629.595 240.131 628.542C240.676 627.482 241.448 626.66 242.448 626.074C243.454 625.482 244.647 625.186 246.026 625.186C247.405 625.186 248.595 625.482 249.595 626.074C250.601 626.66 251.376 627.482 251.921 628.542C252.465 629.595 252.738 630.826 252.738 632.235C252.738 633.632 252.465 634.86 251.921 635.919C251.376 636.973 250.601 637.796 249.595 638.387C248.595 638.973 247.405 639.266 246.026 639.266ZM246.044 636.337C246.671 636.337 247.195 636.159 247.615 635.804C248.035 635.443 248.352 634.952 248.565 634.33C248.784 633.709 248.893 633.002 248.893 632.208C248.893 631.415 248.784 630.708 248.565 630.087C248.352 629.465 248.035 628.974 247.615 628.613C247.195 628.252 246.671 628.071 246.044 628.071C245.41 628.071 244.878 628.252 244.446 628.613C244.02 628.974 243.697 629.465 243.478 630.087C243.265 630.708 243.158 631.415 243.158 632.208C243.158 633.002 243.265 633.709 243.478 634.33C243.697 634.952 244.02 635.443 244.446 635.804C244.878 636.159 245.41 636.337 246.044 636.337ZM255.197 639V625.364H258.863V627.743H259.005C259.254 626.897 259.671 626.257 260.257 625.825C260.843 625.387 261.518 625.168 262.281 625.168C262.471 625.168 262.675 625.18 262.894 625.204C263.113 625.228 263.305 625.26 263.471 625.301V628.657C263.293 628.604 263.048 628.557 262.734 628.515C262.42 628.474 262.133 628.453 261.873 628.453C261.317 628.453 260.819 628.574 260.381 628.817C259.949 629.054 259.606 629.385 259.352 629.811C259.103 630.238 258.979 630.729 258.979 631.285V639H255.197ZM269.816 639.222C268.781 639.222 267.842 638.956 267.002 638.423C266.168 637.884 265.505 637.094 265.013 636.053C264.528 635.005 264.285 633.721 264.285 632.2C264.285 630.637 264.537 629.338 265.04 628.302C265.543 627.261 266.212 626.482 267.046 625.967C267.887 625.446 268.807 625.186 269.807 625.186C270.571 625.186 271.207 625.316 271.716 625.577C272.231 625.831 272.645 626.151 272.959 626.536C273.279 626.914 273.521 627.287 273.687 627.654H273.802V620.818H277.576V639H273.847V636.816H273.687C273.509 637.195 273.258 637.571 272.932 637.944C272.613 638.31 272.196 638.615 271.681 638.858C271.172 639.101 270.55 639.222 269.816 639.222ZM271.015 636.212C271.624 636.212 272.139 636.047 272.56 635.715C272.986 635.378 273.311 634.907 273.536 634.304C273.767 633.7 273.882 632.993 273.882 632.182C273.882 631.371 273.77 630.667 273.545 630.069C273.32 629.471 272.995 629.009 272.568 628.684C272.142 628.358 271.624 628.196 271.015 628.196C270.393 628.196 269.87 628.364 269.443 628.702C269.017 629.039 268.695 629.507 268.476 630.104C268.257 630.702 268.147 631.395 268.147 632.182C268.147 632.975 268.257 633.676 268.476 634.286C268.701 634.89 269.023 635.363 269.443 635.706C269.87 636.044 270.393 636.212 271.015 636.212Z" fill="black"/>
</svg>
