<svg width="471" height="769" viewBox="0 0 471 769" fill="none" xmlns="http://www.w3.org/2000/svg">
<path d="M373.963 675.973H370.588L376.733 658.518H380.636L386.79 675.973H383.415L378.753 662.098H378.616L373.963 675.973ZM374.074 669.129H383.278V671.669H374.074V669.129ZM394.669 662.882V665.268H387.143V662.882H394.669ZM389.001 659.746H392.087V672.035C392.087 672.45 392.149 672.768 392.274 672.99C392.405 673.206 392.575 673.354 392.786 673.433C392.996 673.513 393.229 673.553 393.484 673.553C393.678 673.553 393.854 673.538 394.013 673.51C394.178 673.482 394.303 673.456 394.388 673.433L394.908 675.845C394.743 675.902 394.507 675.964 394.2 676.033C393.899 676.101 393.53 676.141 393.092 676.152C392.32 676.175 391.624 676.058 391.004 675.803C390.385 675.541 389.893 675.138 389.53 674.592C389.172 674.047 388.996 673.365 389.001 672.547V659.746ZM400.616 658.518V675.973H397.531V658.518H400.616ZM407.555 676.237C406.726 676.237 405.979 676.089 405.314 675.794C404.655 675.493 404.132 675.05 403.746 674.464C403.365 673.879 403.175 673.158 403.175 672.3C403.175 671.561 403.311 670.95 403.584 670.467C403.857 669.984 404.229 669.598 404.7 669.308C405.172 669.018 405.703 668.8 406.294 668.652C406.891 668.499 407.507 668.388 408.143 668.32C408.911 668.24 409.533 668.169 410.01 668.107C410.487 668.038 410.834 667.936 411.05 667.8C411.271 667.658 411.382 667.439 411.382 667.143V667.092C411.382 666.45 411.192 665.953 410.811 665.601C410.43 665.249 409.882 665.072 409.166 665.072C408.411 665.072 407.811 665.237 407.368 665.567C406.93 665.896 406.635 666.285 406.482 666.734L403.601 666.325C403.828 665.53 404.203 664.865 404.726 664.331C405.249 663.791 405.888 663.388 406.643 663.121C407.399 662.848 408.234 662.712 409.149 662.712C409.78 662.712 410.408 662.785 411.033 662.933C411.658 663.081 412.229 663.325 412.746 663.666C413.263 664.001 413.678 664.459 413.99 665.038C414.308 665.618 414.467 666.342 414.467 667.212V675.973H411.501V674.175H411.399C411.212 674.538 410.947 674.879 410.607 675.197C410.271 675.51 409.848 675.763 409.337 675.956C408.831 676.143 408.237 676.237 407.555 676.237ZM408.357 673.97C408.976 673.97 409.513 673.848 409.967 673.604C410.422 673.354 410.771 673.024 411.016 672.615C411.266 672.206 411.391 671.76 411.391 671.277V669.734C411.294 669.814 411.129 669.888 410.896 669.956C410.669 670.024 410.413 670.084 410.129 670.135C409.845 670.186 409.564 670.232 409.286 670.271C409.007 670.311 408.766 670.345 408.561 670.374C408.101 670.436 407.689 670.538 407.325 670.68C406.962 670.822 406.675 671.021 406.464 671.277C406.254 671.527 406.149 671.851 406.149 672.249C406.149 672.817 406.357 673.246 406.771 673.535C407.186 673.825 407.714 673.97 408.357 673.97ZM420.655 668.303V675.973H417.57V662.882H420.518V665.107H420.672C420.973 664.374 421.453 663.791 422.112 663.359C422.777 662.928 423.598 662.712 424.575 662.712C425.479 662.712 426.266 662.905 426.936 663.291C427.612 663.678 428.135 664.237 428.504 664.97C428.879 665.703 429.064 666.592 429.058 667.638V675.973H425.973V668.115C425.973 667.24 425.746 666.555 425.291 666.061C424.842 665.567 424.22 665.32 423.425 665.32C422.885 665.32 422.405 665.439 421.984 665.678C421.57 665.91 421.243 666.249 421.004 666.692C420.771 667.135 420.655 667.672 420.655 668.303ZM438.732 662.882V665.268H431.206V662.882H438.732ZM433.064 659.746H436.149V672.035C436.149 672.45 436.212 672.768 436.337 672.99C436.467 673.206 436.638 673.354 436.848 673.433C437.058 673.513 437.291 673.553 437.547 673.553C437.74 673.553 437.916 673.538 438.075 673.51C438.24 673.482 438.365 673.456 438.45 673.433L438.97 675.845C438.805 675.902 438.57 675.964 438.263 676.033C437.962 676.101 437.592 676.141 437.155 676.152C436.382 676.175 435.686 676.058 435.067 675.803C434.447 675.541 433.956 675.138 433.592 674.592C433.234 674.047 433.058 673.365 433.064 672.547V659.746ZM441.312 675.973V662.882H444.397V675.973H441.312ZM442.863 661.024C442.374 661.024 441.954 660.862 441.602 660.538C441.249 660.209 441.073 659.814 441.073 659.354C441.073 658.888 441.249 658.493 441.602 658.169C441.954 657.839 442.374 657.675 442.863 657.675C443.357 657.675 443.778 657.839 444.124 658.169C444.477 658.493 444.653 658.888 444.653 659.354C444.653 659.814 444.477 660.209 444.124 660.538C443.778 660.862 443.357 661.024 442.863 661.024ZM453.28 676.229C451.973 676.229 450.851 675.942 449.913 675.368C448.982 674.794 448.263 674.001 447.757 672.99C447.257 671.973 447.007 670.803 447.007 669.479C447.007 668.149 447.263 666.976 447.774 665.959C448.286 664.936 449.007 664.141 449.939 663.572C450.876 662.999 451.984 662.712 453.263 662.712C454.325 662.712 455.266 662.908 456.084 663.3C456.908 663.686 457.564 664.234 458.053 664.945C458.541 665.649 458.82 666.473 458.888 667.416H455.939C455.82 666.785 455.536 666.26 455.087 665.839C454.643 665.413 454.05 665.2 453.305 665.2C452.675 665.2 452.121 665.371 451.643 665.712C451.166 666.047 450.794 666.53 450.527 667.16C450.266 667.791 450.135 668.547 450.135 669.428C450.135 670.32 450.266 671.087 450.527 671.729C450.788 672.365 451.155 672.857 451.626 673.203C452.104 673.544 452.663 673.714 453.305 673.714C453.76 673.714 454.166 673.629 454.524 673.459C454.888 673.283 455.192 673.03 455.436 672.7C455.68 672.371 455.848 671.97 455.939 671.499H458.888C458.814 672.425 458.541 673.246 458.07 673.962C457.598 674.672 456.956 675.229 456.143 675.632C455.331 676.03 454.376 676.229 453.28 676.229ZM387.318 696.246C387.318 698.126 386.966 699.737 386.261 701.078C385.563 702.413 384.608 703.436 383.398 704.146C382.193 704.857 380.827 705.212 379.298 705.212C377.77 705.212 376.401 704.857 375.19 704.146C373.986 703.43 373.031 702.405 372.327 701.07C371.628 699.729 371.278 698.121 371.278 696.246C371.278 694.365 371.628 692.757 372.327 691.422C373.031 690.081 373.986 689.055 375.19 688.345C376.401 687.635 377.77 687.28 379.298 687.28C380.827 687.28 382.193 687.635 383.398 688.345C384.608 689.055 385.563 690.081 386.261 691.422C386.966 692.757 387.318 694.365 387.318 696.246ZM384.139 696.246C384.139 694.922 383.932 693.805 383.517 692.896C383.108 691.982 382.54 691.291 381.812 690.825C381.085 690.354 380.247 690.118 379.298 690.118C378.349 690.118 377.511 690.354 376.784 690.825C376.057 691.291 375.486 691.982 375.071 692.896C374.662 693.805 374.457 694.922 374.457 696.246C374.457 697.57 374.662 698.689 375.071 699.604C375.486 700.513 376.057 701.203 376.784 701.675C377.511 702.141 378.349 702.374 379.298 702.374C380.247 702.374 381.085 702.141 381.812 701.675C382.54 701.203 383.108 700.513 383.517 699.604C383.932 698.689 384.139 697.57 384.139 696.246ZM395.881 705.229C394.575 705.229 393.452 704.942 392.515 704.368C391.583 703.794 390.864 703.001 390.359 701.99C389.859 700.973 389.609 699.803 389.609 698.479C389.609 697.149 389.864 695.976 390.376 694.959C390.887 693.936 391.609 693.141 392.54 692.572C393.478 691.999 394.586 691.712 395.864 691.712C396.927 691.712 397.867 691.908 398.685 692.3C399.509 692.686 400.165 693.234 400.654 693.945C401.143 694.649 401.421 695.473 401.489 696.416H398.54C398.421 695.785 398.137 695.26 397.688 694.839C397.245 694.413 396.651 694.2 395.907 694.2C395.276 694.2 394.722 694.371 394.245 694.712C393.768 695.047 393.396 695.53 393.129 696.16C392.867 696.791 392.737 697.547 392.737 698.428C392.737 699.32 392.867 700.087 393.129 700.729C393.39 701.365 393.756 701.857 394.228 702.203C394.705 702.544 395.265 702.714 395.907 702.714C396.362 702.714 396.768 702.629 397.126 702.459C397.489 702.283 397.793 702.03 398.038 701.7C398.282 701.371 398.45 700.97 398.54 700.499H401.489C401.415 701.425 401.143 702.246 400.671 702.962C400.2 703.672 399.558 704.229 398.745 704.632C397.933 705.03 396.978 705.229 395.881 705.229ZM409.818 705.229C408.506 705.229 407.372 704.956 406.418 704.41C405.469 703.859 404.739 703.081 404.227 702.075C403.716 701.064 403.46 699.874 403.46 698.504C403.46 697.158 403.716 695.976 404.227 694.959C404.744 693.936 405.466 693.141 406.392 692.572C407.318 691.999 408.406 691.712 409.656 691.712C410.463 691.712 411.224 691.842 411.94 692.104C412.662 692.359 413.298 692.757 413.849 693.297C414.406 693.837 414.844 694.524 415.162 695.359C415.48 696.189 415.639 697.178 415.639 698.325V699.271H404.909V697.192H412.682C412.676 696.601 412.548 696.075 412.298 695.615C412.048 695.149 411.699 694.783 411.25 694.516C410.807 694.249 410.29 694.115 409.699 694.115C409.068 694.115 408.514 694.268 408.037 694.575C407.56 694.876 407.188 695.274 406.92 695.768C406.659 696.257 406.526 696.794 406.52 697.379V699.195C406.52 699.956 406.659 700.609 406.938 701.155C407.216 701.695 407.605 702.109 408.105 702.399C408.605 702.683 409.19 702.825 409.861 702.825C410.31 702.825 410.716 702.763 411.08 702.638C411.443 702.507 411.759 702.317 412.026 702.067C412.293 701.817 412.494 701.507 412.631 701.138L415.511 701.462C415.33 702.223 414.983 702.888 414.472 703.456C413.966 704.018 413.318 704.456 412.528 704.768C411.739 705.075 410.835 705.229 409.818 705.229ZM422.016 705.237C421.187 705.237 420.44 705.089 419.775 704.794C419.116 704.493 418.593 704.05 418.207 703.464C417.826 702.879 417.636 702.158 417.636 701.3C417.636 700.561 417.772 699.95 418.045 699.467C418.317 698.984 418.69 698.598 419.161 698.308C419.633 698.018 420.164 697.8 420.755 697.652C421.352 697.499 421.968 697.388 422.604 697.32C423.371 697.24 423.994 697.169 424.471 697.107C424.948 697.038 425.295 696.936 425.511 696.8C425.732 696.658 425.843 696.439 425.843 696.143V696.092C425.843 695.45 425.653 694.953 425.272 694.601C424.891 694.249 424.343 694.072 423.627 694.072C422.871 694.072 422.272 694.237 421.829 694.567C421.391 694.896 421.096 695.285 420.942 695.734L418.062 695.325C418.289 694.53 418.664 693.865 419.187 693.331C419.71 692.791 420.349 692.388 421.104 692.121C421.86 691.848 422.695 691.712 423.61 691.712C424.241 691.712 424.869 691.785 425.494 691.933C426.119 692.081 426.69 692.325 427.207 692.666C427.724 693.001 428.138 693.459 428.451 694.038C428.769 694.618 428.928 695.342 428.928 696.212V704.973H425.962V703.175H425.86C425.673 703.538 425.408 703.879 425.067 704.197C424.732 704.51 424.309 704.763 423.798 704.956C423.292 705.143 422.698 705.237 422.016 705.237ZM422.817 702.97C423.437 702.97 423.974 702.848 424.428 702.604C424.883 702.354 425.232 702.024 425.477 701.615C425.727 701.206 425.852 700.76 425.852 700.277V698.734C425.755 698.814 425.59 698.888 425.357 698.956C425.13 699.024 424.874 699.084 424.59 699.135C424.306 699.186 424.025 699.232 423.746 699.271C423.468 699.311 423.227 699.345 423.022 699.374C422.562 699.436 422.15 699.538 421.786 699.68C421.423 699.822 421.136 700.021 420.925 700.277C420.715 700.527 420.61 700.851 420.61 701.249C420.61 701.817 420.817 702.246 421.232 702.535C421.647 702.825 422.175 702.97 422.817 702.97ZM435.116 697.303V704.973H432.031V691.882H434.979V694.107H435.133C435.434 693.374 435.914 692.791 436.573 692.359C437.238 691.928 438.059 691.712 439.036 691.712C439.94 691.712 440.727 691.905 441.397 692.291C442.073 692.678 442.596 693.237 442.965 693.97C443.34 694.703 443.525 695.592 443.519 696.638V704.973H440.434V697.115C440.434 696.24 440.207 695.555 439.752 695.061C439.303 694.567 438.681 694.32 437.886 694.32C437.346 694.32 436.866 694.439 436.445 694.678C436.031 694.91 435.704 695.249 435.465 695.692C435.232 696.135 435.116 696.672 435.116 697.303Z" fill="#00D9E4"/>
<path d="M126.662 39.4077H123.474C123.384 38.8849 123.216 38.4219 122.972 38.0184C122.727 37.6094 122.423 37.2628 122.06 36.9787C121.696 36.6946 121.281 36.4815 120.815 36.3395C120.355 36.1917 119.858 36.1179 119.324 36.1179C118.375 36.1179 117.534 36.3565 116.801 36.8338C116.068 37.3054 115.494 37.9986 115.08 38.9133C114.665 39.8224 114.457 40.9332 114.457 42.2457C114.457 43.5809 114.665 44.7059 115.08 45.6207C115.5 46.5298 116.074 47.2173 116.801 47.6832C117.534 48.1434 118.372 48.3736 119.315 48.3736C119.838 48.3736 120.327 48.3054 120.781 48.169C121.241 48.027 121.653 47.8196 122.017 47.5469C122.386 47.2741 122.696 46.9389 122.946 46.5412C123.202 46.1434 123.378 45.6889 123.474 45.1775L126.662 45.1946C126.543 46.0241 126.284 46.8025 125.886 47.5298C125.494 48.2571 124.98 48.8991 124.344 49.4559C123.707 50.0071 122.963 50.4389 122.111 50.7514C121.259 51.0582 120.313 51.2116 119.273 51.2116C117.739 51.2116 116.369 50.8565 115.165 50.1463C113.96 49.4361 113.011 48.4105 112.318 47.0696C111.625 45.7287 111.278 44.1207 111.278 42.2457C111.278 40.365 111.628 38.7571 112.327 37.4219C113.026 36.0809 113.977 35.0554 115.182 34.3451C116.386 33.6349 117.75 33.2798 119.273 33.2798C120.244 33.2798 121.148 33.4162 121.983 33.6889C122.818 33.9616 123.563 34.3622 124.216 34.8906C124.869 35.4133 125.406 36.0554 125.827 36.8167C126.253 37.5724 126.531 38.4361 126.662 39.4077ZM133.188 51.2372C132.359 51.2372 131.612 51.0895 130.947 50.794C130.288 50.4929 129.765 50.0497 129.379 49.4645C128.998 48.8792 128.808 48.1577 128.808 47.2997C128.808 46.5611 128.944 45.9503 129.217 45.4673C129.489 44.9844 129.862 44.598 130.333 44.3082C130.805 44.0184 131.336 43.7997 131.927 43.652C132.523 43.4986 133.14 43.3878 133.776 43.3196C134.543 43.24 135.165 43.169 135.643 43.1065C136.12 43.0383 136.467 42.9361 136.683 42.7997C136.904 42.6577 137.015 42.4389 137.015 42.1434V42.0923C137.015 41.4503 136.825 40.9531 136.444 40.6008C136.063 40.2486 135.515 40.0724 134.799 40.0724C134.043 40.0724 133.444 40.2372 133.001 40.5667C132.563 40.8963 132.268 41.2855 132.114 41.7344L129.234 41.3253C129.461 40.5298 129.836 39.865 130.359 39.3309C130.881 38.7912 131.521 38.3878 132.276 38.1207C133.032 37.848 133.867 37.7116 134.782 37.7116C135.413 37.7116 136.04 37.7855 136.665 37.9332C137.29 38.0809 137.862 38.3253 138.379 38.6662C138.896 39.0014 139.31 39.4588 139.623 40.0383C139.941 40.6179 140.1 41.3423 140.1 42.2116V50.973H137.134V49.1747H137.032C136.844 49.5383 136.58 49.8792 136.239 50.1974C135.904 50.5099 135.481 50.7628 134.969 50.9559C134.464 51.1434 133.87 51.2372 133.188 51.2372ZM133.989 48.9702C134.609 48.9702 135.146 48.848 135.6 48.6037C136.055 48.3537 136.404 48.0241 136.648 47.615C136.898 47.2059 137.023 46.7599 137.023 46.277V44.7344C136.927 44.8139 136.762 44.8878 136.529 44.9559C136.302 45.0241 136.046 45.0838 135.762 45.1349C135.478 45.1861 135.197 45.2315 134.918 45.2713C134.64 45.3111 134.398 45.3452 134.194 45.3736C133.734 45.4361 133.322 45.5383 132.958 45.6804C132.594 45.8224 132.308 46.0213 132.097 46.277C131.887 46.527 131.782 46.8508 131.782 47.2486C131.782 47.8167 131.989 48.2457 132.404 48.5355C132.819 48.8253 133.347 48.9702 133.989 48.9702ZM146.288 43.3025V50.973H143.202V37.8821H146.151V40.1065H146.305C146.606 39.3736 147.086 38.7912 147.745 38.3594C148.41 37.9275 149.231 37.7116 150.208 37.7116C151.112 37.7116 151.898 37.9048 152.569 38.2912C153.245 38.6775 153.768 39.2372 154.137 39.9702C154.512 40.7031 154.697 41.5923 154.691 42.6378V50.973H151.606V43.115C151.606 42.24 151.379 41.5554 150.924 41.0611C150.475 40.5667 149.853 40.3196 149.058 40.3196C148.518 40.3196 148.038 40.4389 147.617 40.6775C147.202 40.9105 146.876 41.2486 146.637 41.6917C146.404 42.1349 146.288 42.6719 146.288 43.3025ZM161.594 51.2372C160.765 51.2372 160.018 51.0895 159.353 50.794C158.694 50.4929 158.171 50.0497 157.785 49.4645C157.404 48.8792 157.214 48.1577 157.214 47.2997C157.214 46.5611 157.35 45.9503 157.623 45.4673C157.896 44.9844 158.268 44.598 158.739 44.3082C159.211 44.0184 159.742 43.7997 160.333 43.652C160.93 43.4986 161.546 43.3878 162.183 43.3196C162.95 43.24 163.572 43.169 164.049 43.1065C164.526 43.0383 164.873 42.9361 165.089 42.7997C165.31 42.6577 165.421 42.4389 165.421 42.1434V42.0923C165.421 41.4503 165.231 40.9531 164.85 40.6008C164.469 40.2486 163.921 40.0724 163.205 40.0724C162.45 40.0724 161.85 40.2372 161.407 40.5667C160.969 40.8963 160.674 41.2855 160.521 41.7344L157.64 41.3253C157.867 40.5298 158.242 39.865 158.765 39.3309C159.288 38.7912 159.927 38.3878 160.683 38.1207C161.438 37.848 162.273 37.7116 163.188 37.7116C163.819 37.7116 164.447 37.7855 165.072 37.9332C165.697 38.0809 166.268 38.3253 166.785 38.6662C167.302 39.0014 167.717 39.4588 168.029 40.0383C168.347 40.6179 168.506 41.3423 168.506 42.2116V50.973H165.54V49.1747H165.438C165.251 49.5383 164.987 49.8792 164.646 50.1974C164.31 50.5099 163.887 50.7628 163.376 50.9559C162.87 51.1434 162.276 51.2372 161.594 51.2372ZM162.396 48.9702C163.015 48.9702 163.552 48.848 164.006 48.6037C164.461 48.3537 164.81 48.0241 165.055 47.615C165.305 47.2059 165.43 46.7599 165.43 46.277V44.7344C165.333 44.8139 165.168 44.8878 164.935 44.9559C164.708 45.0241 164.452 45.0838 164.168 45.1349C163.884 45.1861 163.603 45.2315 163.325 45.2713C163.046 45.3111 162.805 45.3452 162.6 45.3736C162.14 45.4361 161.728 45.5383 161.364 45.6804C161.001 45.8224 160.714 46.0213 160.504 46.277C160.293 46.527 160.188 46.8508 160.188 47.2486C160.188 47.8167 160.396 48.2457 160.81 48.5355C161.225 48.8253 161.754 48.9702 162.396 48.9702ZM176.467 51.2031C175.438 51.2031 174.518 50.9389 173.705 50.4105C172.893 49.8821 172.251 49.115 171.779 48.1094C171.308 47.1037 171.072 45.8821 171.072 44.4446C171.072 42.99 171.31 41.7628 171.788 40.7628C172.271 39.7571 172.921 38.9986 173.739 38.4872C174.558 37.9702 175.469 37.7116 176.475 37.7116C177.242 37.7116 177.873 37.8423 178.367 38.1037C178.862 38.3594 179.254 38.669 179.543 39.0327C179.833 39.3906 180.058 39.7287 180.217 40.0469H180.344V33.5184H183.438V50.973H180.404V48.9105H180.217C180.058 49.2287 179.827 49.5667 179.526 49.9247C179.225 50.277 178.827 50.5781 178.333 50.8281C177.839 51.0781 177.217 51.2031 176.467 51.2031ZM177.327 48.6719C177.981 48.6719 178.538 48.4957 178.998 48.1434C179.458 47.7855 179.808 47.2883 180.046 46.652C180.285 46.0156 180.404 45.2741 180.404 44.4275C180.404 43.5809 180.285 42.8452 180.046 42.2202C179.813 41.5952 179.467 41.1094 179.006 40.7628C178.552 40.4162 177.992 40.2429 177.327 40.2429C176.64 40.2429 176.066 40.4219 175.606 40.7798C175.146 41.1378 174.799 41.6321 174.566 42.2628C174.333 42.8934 174.217 43.615 174.217 44.4275C174.217 45.2457 174.333 45.9758 174.566 46.6179C174.805 47.2542 175.154 47.7571 175.614 48.1264C176.08 48.49 176.651 48.6719 177.327 48.6719ZM190.493 51.2372C189.663 51.2372 188.916 51.0895 188.251 50.794C187.592 50.4929 187.07 50.0497 186.683 49.4645C186.303 48.8792 186.112 48.1577 186.112 47.2997C186.112 46.5611 186.249 45.9503 186.521 45.4673C186.794 44.9844 187.166 44.598 187.638 44.3082C188.109 44.0184 188.641 43.7997 189.232 43.652C189.828 43.4986 190.445 43.3878 191.081 43.3196C191.848 43.24 192.47 43.169 192.947 43.1065C193.425 43.0383 193.771 42.9361 193.987 42.7997C194.209 42.6577 194.32 42.4389 194.32 42.1434V42.0923C194.32 41.4503 194.129 40.9531 193.749 40.6008C193.368 40.2486 192.82 40.0724 192.104 40.0724C191.348 40.0724 190.749 40.2372 190.305 40.5667C189.868 40.8963 189.572 41.2855 189.419 41.7344L186.538 41.3253C186.766 40.5298 187.141 39.865 187.663 39.3309C188.186 38.7912 188.825 38.3878 189.581 38.1207C190.337 37.848 191.172 37.7116 192.087 37.7116C192.717 37.7116 193.345 37.7855 193.97 37.9332C194.595 38.0809 195.166 38.3253 195.683 38.6662C196.2 39.0014 196.615 39.4588 196.928 40.0383C197.246 40.6179 197.405 41.3423 197.405 42.2116V50.973H194.439V49.1747H194.337C194.149 49.5383 193.885 49.8792 193.544 50.1974C193.209 50.5099 192.786 50.7628 192.274 50.9559C191.768 51.1434 191.175 51.2372 190.493 51.2372ZM191.294 48.9702C191.913 48.9702 192.45 48.848 192.905 48.6037C193.359 48.3537 193.709 48.0241 193.953 47.615C194.203 47.2059 194.328 46.7599 194.328 46.277V44.7344C194.232 44.8139 194.067 44.8878 193.834 44.9559C193.607 45.0241 193.351 45.0838 193.067 45.1349C192.783 45.1861 192.501 45.2315 192.223 45.2713C191.945 45.3111 191.703 45.3452 191.499 45.3736C191.038 45.4361 190.626 45.5383 190.263 45.6804C189.899 45.8224 189.612 46.0213 189.402 46.277C189.192 46.527 189.087 46.8508 189.087 47.2486C189.087 47.8167 189.294 48.2457 189.709 48.5355C190.124 48.8253 190.652 48.9702 191.294 48.9702Z" fill="#00E45F"/>
<path d="M233.5 33.473L226 50.473L227.5 56.473L224 59.473L220.5 65.973L214 71.973L212.5 77.973L216 80.473L212.5 88.973L205.235 93.973V97.973L210.5 100.473V112.973L214 115.473L212.5 121.473L203.5 132.473L199.5 147.973L188 161.973V167.973L195.5 188.473L201 195.973V205.473L203.5 210.473L201 214.973H195.5L193.5 217.973L197 221.473L193.5 226.473V234.973L188 237.473L177 254.473L162.5 259.473L153 262.973L145 276.473L140.5 280.473L131.5 276.473L127.5 278.973L116 280.473L102.5 288.473L99 296.973V322.473L102.5 333.473L100.5 345.473V350.473L86.5 374.473L88 395.973L78.5 405.473L74 413.973V425.973L69.5 437.473L52.5 455.473L44 486.473L36 491.473V503.473L32 510.473L34 516.473L32 541.973L26.5 549.473L30.5 553.973V560.473L32 566.473L24 582.973L20 610.473L24 617.973V627.473L20 636.973V645.973L22 649.473L20 652.473L18 658.973L6 664.473V677.473L1 683.973V694.973L3.5 706.473L9 712.473L6 717.473L13 715.973L22 727.973L254.5 735.973L263 724.473L269.5 722.473L277.5 723.473L277 709.973L281.5 704.473L288 701.973L300.5 705.473L307 692.973L325.5 686.473L332.5 683.973L344.5 691.181L351.5 687.473V679.473L354.5 675.473L358 667.473L372.5 641.473L362 628.473L348.5 615.973L349.5 594.473L346.5 583.473L343 581.473L334 572.973V569.473L331.5 564.473L327.5 559.973L323 559.473L318.5 554.973L316.5 546.473L317 537.473L322 531.473V524.473L319.5 521.473L323 511.473L322 507.973L321.5 503.473L324 499.973L319.5 495.473L313 316.973L306.5 160.473L297 4.47299L292.5 8.01073L287 21.973L282 20.473L278 23.473L274.5 18.973L269 20.473L266 15.473L262 13.973V8.01073L257.5 5.97299L247 13.973H241.5L238.5 21.973L233.5 23.473H224L233.5 33.473Z" fill="#97DCFF" stroke="white" stroke-width="2"/>
<path d="M335.722 352.518H339.591L344.773 365.166H344.977L350.159 352.518H354.028V369.973H350.994V357.982H350.832L346.009 369.922H343.741L338.918 357.956H338.756V369.973H335.722V352.518ZM357.472 369.973V352.518H368.824V355.169H360.634V359.908H368.236V362.558H360.634V367.322H368.892V369.973H357.472Z" fill="#FFE587"/>
<path d="M20.0568 394.518L24.5994 408.257H24.7784L29.3125 394.518H32.7898L26.6364 411.973H22.733L16.5881 394.518H20.0568ZM34.3217 397.169V394.518H48.2479V397.169H42.853V411.973H39.7166V397.169H34.3217Z" fill="#FFE587"/>
<path d="M193.722 750.518H197.591L202.773 763.166H202.977L208.159 750.518H212.028V767.973H208.994V755.982H208.832L204.009 767.922H201.741L196.918 755.956H196.756V767.973H193.722V750.518ZM217.713 767.973H214.338L220.483 750.518H224.386L230.54 767.973H227.165L222.503 754.098H222.366L217.713 767.973ZM217.824 761.129H227.028V763.669H217.824V761.129Z" fill="#FFE587"/>
<line x1="195" y1="87.973" x2="212" y2="87.973" stroke="#00E45F" stroke-width="2"/>
<line x1="297.836" y1="3.47722" x2="312.836" y2="0.986499" stroke="#00E45F" stroke-width="2"/>
<line x1="362.093" y1="627.977" x2="377.232" y2="629.395" stroke="#FFE587" stroke-width="2"/>
<line x1="351.489" y1="688.011" x2="350.999" y2="701.032" stroke="#FFE587" stroke-width="2"/>
<line x1="22.0307" y1="727.973" x2="9.00001" y2="727.973" stroke="#FFE587" stroke-width="2"/>
<circle cx="220.511" cy="718.484" r="9.01136" fill="#FFE587" stroke="black"/>
<circle cx="288.511" cy="379.484" r="9.01136" fill="#FFE587" stroke="black"/>
<circle cx="156.511" cy="288.484" r="9.01136" fill="#FFE587" stroke="black"/>
<circle cx="335.511" cy="600.484" r="9.01136" fill="#FFE587" stroke="black"/>
<circle cx="316.511" cy="568.484" r="9.01136" fill="#FFE587" stroke="black"/>
<circle cx="223.511" cy="652.484" r="9.01136" fill="#FFE587" stroke="black"/>
<path d="M129.619 704.791V722.973H127.489L117.581 708.697H117.403V722.973H115.202V704.791H117.332L127.276 719.102H127.453V704.791H129.619ZM137.754 723.293C136.89 723.293 136.105 723.13 135.401 722.804C134.697 722.473 134.137 721.996 133.723 721.375C133.309 720.748 133.102 719.99 133.102 719.102C133.102 718.321 133.256 717.688 133.563 717.202C133.871 716.711 134.282 716.326 134.797 716.048C135.312 715.77 135.88 715.563 136.502 715.427C137.129 715.285 137.76 715.172 138.393 715.089C139.221 714.983 139.893 714.903 140.408 714.85C140.929 714.791 141.308 714.693 141.544 714.557C141.787 714.421 141.908 714.184 141.908 713.847V713.776C141.908 712.9 141.669 712.219 141.189 711.734C140.716 711.248 139.997 711.006 139.032 711.006C138.032 711.006 137.248 711.225 136.679 711.663C136.111 712.101 135.712 712.568 135.481 713.065L133.492 712.355C133.847 711.526 134.321 710.881 134.913 710.42C135.511 709.952 136.162 709.627 136.866 709.443C137.576 709.254 138.274 709.159 138.961 709.159C139.399 709.159 139.902 709.212 140.47 709.319C141.044 709.419 141.598 709.63 142.13 709.949C142.669 710.269 143.116 710.751 143.471 711.396C143.826 712.041 144.004 712.906 144.004 713.989V722.973H141.908V721.126H141.802C141.66 721.422 141.423 721.739 141.092 722.076C140.76 722.414 140.319 722.701 139.769 722.937C139.218 723.174 138.547 723.293 137.754 723.293ZM138.073 721.41C138.902 721.41 139.6 721.248 140.168 720.922C140.743 720.597 141.175 720.176 141.465 719.662C141.761 719.147 141.908 718.605 141.908 718.037V716.119C141.82 716.226 141.624 716.323 141.323 716.412C141.027 716.495 140.683 716.569 140.293 716.634C139.908 716.693 139.532 716.747 139.165 716.794C138.804 716.835 138.511 716.871 138.286 716.901C137.742 716.972 137.233 717.087 136.759 717.247C136.292 717.401 135.913 717.634 135.623 717.948C135.339 718.256 135.197 718.676 135.197 719.209C135.197 719.937 135.466 720.487 136.005 720.86C136.549 721.227 137.239 721.41 138.073 721.41ZM157.487 712.391L155.605 712.923C155.486 712.61 155.312 712.305 155.081 712.009C154.856 711.707 154.548 711.458 154.158 711.263C153.767 711.068 153.267 710.97 152.657 710.97C151.823 710.97 151.127 711.163 150.571 711.547C150.021 711.926 149.745 712.408 149.745 712.994C149.745 713.515 149.935 713.926 150.314 714.228C150.692 714.53 151.284 714.782 152.089 714.983L154.113 715.48C155.333 715.776 156.241 716.229 156.839 716.838C157.437 717.442 157.735 718.22 157.735 719.173C157.735 719.955 157.511 720.653 157.061 721.268C156.617 721.884 155.995 722.369 155.196 722.724C154.397 723.08 153.468 723.257 152.409 723.257C151.018 723.257 149.867 722.955 148.955 722.352C148.044 721.748 147.467 720.866 147.224 719.706L149.213 719.209C149.402 719.943 149.76 720.493 150.287 720.86C150.82 721.227 151.515 721.41 152.373 721.41C153.35 721.41 154.125 721.203 154.699 720.789C155.279 720.369 155.569 719.866 155.569 719.28C155.569 718.806 155.404 718.41 155.072 718.09C154.741 717.765 154.232 717.522 153.545 717.362L151.272 716.83C150.024 716.534 149.106 716.075 148.52 715.453C147.94 714.826 147.65 714.042 147.65 713.101C147.65 712.331 147.866 711.651 148.298 711.059C148.736 710.467 149.331 710.002 150.083 709.665C150.84 709.328 151.699 709.159 152.657 709.159C154.007 709.159 155.066 709.455 155.836 710.047C156.611 710.639 157.161 711.42 157.487 712.391ZM162.984 714.77V722.973H160.889V704.791H162.984V711.467H163.162C163.482 710.763 163.961 710.204 164.6 709.789C165.245 709.369 166.104 709.159 167.175 709.159C168.104 709.159 168.918 709.346 169.616 709.718C170.315 710.085 170.856 710.651 171.241 711.414C171.631 712.172 171.827 713.136 171.827 714.308V722.973H169.732V714.45C169.732 713.367 169.45 712.53 168.888 711.938C168.332 711.34 167.56 711.041 166.571 711.041C165.885 711.041 165.269 711.186 164.725 711.476C164.186 711.766 163.76 712.189 163.446 712.746C163.138 713.302 162.984 713.977 162.984 714.77ZM184.254 717.398V709.337H186.349V722.973H184.254V720.665H184.112C183.792 721.357 183.295 721.946 182.62 722.431C181.945 722.911 181.093 723.151 180.063 723.151C179.211 723.151 178.453 722.964 177.79 722.591C177.128 722.212 176.607 721.644 176.228 720.887C175.849 720.123 175.66 719.161 175.66 718.001V709.337H177.755V717.859C177.755 718.854 178.033 719.647 178.589 720.239C179.152 720.83 179.868 721.126 180.738 721.126C181.259 721.126 181.788 720.993 182.327 720.727C182.872 720.461 183.327 720.052 183.694 719.502C184.067 718.951 184.254 718.25 184.254 717.398ZM194.199 723.293C193.335 723.293 192.551 723.13 191.846 722.804C191.142 722.473 190.583 721.996 190.168 721.375C189.754 720.748 189.547 719.99 189.547 719.102C189.547 718.321 189.701 717.688 190.009 717.202C190.316 716.711 190.728 716.326 191.243 716.048C191.758 715.77 192.326 715.563 192.947 715.427C193.575 715.285 194.205 715.172 194.838 715.089C195.667 714.983 196.339 714.903 196.853 714.85C197.374 714.791 197.753 714.693 197.99 714.557C198.232 714.421 198.354 714.184 198.354 713.847V713.776C198.354 712.9 198.114 712.219 197.635 711.734C197.161 711.248 196.442 711.006 195.477 711.006C194.477 711.006 193.693 711.225 193.125 711.663C192.557 712.101 192.157 712.568 191.926 713.065L189.938 712.355C190.293 711.526 190.766 710.881 191.358 710.42C191.956 709.952 192.607 709.627 193.311 709.443C194.021 709.254 194.72 709.159 195.406 709.159C195.844 709.159 196.347 709.212 196.916 709.319C197.49 709.419 198.043 709.63 198.576 709.949C199.114 710.269 199.561 710.751 199.916 711.396C200.271 712.041 200.449 712.906 200.449 713.989V722.973H198.354V721.126H198.247C198.105 721.422 197.868 721.739 197.537 722.076C197.206 722.414 196.765 722.701 196.214 722.937C195.664 723.174 194.992 723.293 194.199 723.293ZM194.519 721.41C195.347 721.41 196.046 721.248 196.614 720.922C197.188 720.597 197.62 720.176 197.91 719.662C198.206 719.147 198.354 718.605 198.354 718.037V716.119C198.265 716.226 198.07 716.323 197.768 716.412C197.472 716.495 197.129 716.569 196.738 716.634C196.353 716.693 195.977 716.747 195.611 716.794C195.249 716.835 194.957 716.871 194.732 716.901C194.187 716.972 193.678 717.087 193.205 717.247C192.737 717.401 192.358 717.634 192.068 717.948C191.784 718.256 191.642 718.676 191.642 719.209C191.642 719.937 191.911 720.487 192.45 720.86C192.995 721.227 193.684 721.41 194.519 721.41Z" fill="black"/>
<path d="M73.2017 639.791H75.8295L82.0085 654.884H82.2216L88.4006 639.791H91.0284V657.973H88.9688V644.159H88.7912L83.1094 657.973H81.1207L75.4389 644.159H75.2614V657.973H73.2017V639.791ZM99.1716 658.293C98.3075 658.293 97.5233 658.13 96.819 657.804C96.1147 657.473 95.5554 656.996 95.1411 656.375C94.7268 655.748 94.5196 654.99 94.5196 654.102C94.5196 653.321 94.6735 652.688 94.9813 652.202C95.289 651.711 95.7004 651.326 96.2153 651.048C96.7302 650.77 97.2984 650.563 97.9198 650.427C98.5472 650.285 99.1775 650.172 99.8108 650.089C100.639 649.983 101.311 649.903 101.826 649.85C102.347 649.791 102.726 649.693 102.962 649.557C103.205 649.421 103.326 649.184 103.326 648.847V648.776C103.326 647.9 103.087 647.219 102.607 646.734C102.134 646.248 101.415 646.006 100.45 646.006C99.4498 646.006 98.6656 646.225 98.0974 646.663C97.5292 647.101 97.1297 647.568 96.8989 648.065L94.9102 647.355C95.2654 646.526 95.7388 645.881 96.3307 645.42C96.9285 644.952 97.5795 644.627 98.2838 644.443C98.9941 644.254 99.6924 644.159 100.379 644.159C100.817 644.159 101.32 644.212 101.888 644.319C102.462 644.419 103.016 644.63 103.548 644.949C104.087 645.269 104.534 645.751 104.889 646.396C105.244 647.041 105.422 647.906 105.422 648.989V657.973H103.326V656.126H103.22C103.078 656.422 102.841 656.739 102.51 657.076C102.178 657.414 101.737 657.701 101.187 657.937C100.636 658.174 99.9647 658.293 99.1716 658.293ZM99.4912 656.41C100.32 656.41 101.018 656.248 101.586 655.922C102.16 655.597 102.593 655.176 102.883 654.662C103.178 654.147 103.326 653.605 103.326 653.037V651.119C103.238 651.226 103.042 651.323 102.741 651.412C102.445 651.495 102.101 651.569 101.711 651.634C101.326 651.693 100.95 651.747 100.583 651.794C100.222 651.835 99.9292 651.871 99.7043 651.901C99.1598 651.972 98.6508 652.087 98.1773 652.247C97.7097 652.401 97.3309 652.634 97.0409 652.948C96.7568 653.256 96.6148 653.676 96.6148 654.209C96.6148 654.937 96.8841 655.487 97.4227 655.86C97.9672 656.227 98.6567 656.41 99.4912 656.41ZM111.341 649.77V657.973H109.246V644.337H111.27V646.467H111.447C111.767 645.775 112.252 645.218 112.903 644.798C113.554 644.372 114.395 644.159 115.425 644.159C116.348 644.159 117.156 644.348 117.848 644.727C118.541 645.1 119.079 645.668 119.464 646.432C119.849 647.189 120.041 648.148 120.041 649.308V657.973H117.946V649.45C117.946 648.379 117.668 647.544 117.112 646.947C116.555 646.343 115.792 646.041 114.821 646.041C114.152 646.041 113.554 646.186 113.028 646.476C112.507 646.766 112.096 647.189 111.794 647.746C111.492 648.302 111.341 648.977 111.341 649.77ZM129.41 658.257C128.131 658.257 127.03 657.955 126.107 657.352C125.184 656.748 124.473 655.916 123.976 654.857C123.479 653.797 123.231 652.587 123.231 651.226C123.231 649.841 123.485 648.619 123.994 647.559C124.509 646.494 125.225 645.662 126.142 645.065C127.066 644.461 128.143 644.159 129.374 644.159C130.333 644.159 131.197 644.337 131.966 644.692C132.736 645.047 133.366 645.544 133.857 646.183C134.349 646.822 134.653 647.568 134.772 648.42H132.677C132.517 647.799 132.162 647.249 131.611 646.769C131.067 646.284 130.333 646.041 129.41 646.041C128.593 646.041 127.877 646.254 127.261 646.68C126.651 647.101 126.175 647.695 125.832 648.465C125.494 649.228 125.326 650.125 125.326 651.155C125.326 652.208 125.491 653.126 125.823 653.907C126.16 654.688 126.634 655.295 127.243 655.727C127.859 656.159 128.581 656.375 129.41 656.375C129.954 656.375 130.448 656.28 130.892 656.091C131.336 655.901 131.712 655.629 132.02 655.274C132.327 654.919 132.546 654.493 132.677 653.996H134.772C134.653 654.801 134.36 655.526 133.893 656.171C133.431 656.81 132.819 657.319 132.055 657.698C131.298 658.071 130.416 658.257 129.41 658.257ZM139.93 649.77V657.973H137.835V639.791H139.93V646.467H140.107C140.427 645.763 140.906 645.204 141.546 644.789C142.191 644.369 143.049 644.159 144.12 644.159C145.049 644.159 145.863 644.346 146.562 644.718C147.26 645.085 147.801 645.651 148.186 646.414C148.577 647.172 148.772 648.136 148.772 649.308V657.973H146.677V649.45C146.677 648.367 146.396 647.53 145.834 646.938C145.277 646.34 144.505 646.041 143.516 646.041C142.83 646.041 142.214 646.186 141.67 646.476C141.131 646.766 140.705 647.189 140.391 647.746C140.084 648.302 139.93 648.977 139.93 649.77ZM158.322 658.257C157.009 658.257 155.875 657.967 154.922 657.387C153.975 656.801 153.244 655.984 152.729 654.937C152.22 653.883 151.966 652.658 151.966 651.261C151.966 649.865 152.22 648.634 152.729 647.568C153.244 646.497 153.96 645.662 154.878 645.065C155.801 644.461 156.878 644.159 158.109 644.159C158.82 644.159 159.521 644.277 160.213 644.514C160.906 644.751 161.536 645.136 162.104 645.668C162.673 646.195 163.125 646.893 163.463 647.763C163.8 648.634 163.969 649.705 163.969 650.977V651.865H153.457V650.054H161.838C161.838 649.285 161.684 648.598 161.376 647.994C161.075 647.391 160.643 646.914 160.08 646.565C159.524 646.216 158.867 646.041 158.109 646.041C157.275 646.041 156.553 646.248 155.943 646.663C155.339 647.071 154.875 647.604 154.549 648.261C154.224 648.918 154.061 649.622 154.061 650.374V651.581C154.061 652.611 154.239 653.484 154.594 654.2C154.955 654.91 155.455 655.452 156.094 655.825C156.733 656.192 157.476 656.375 158.322 656.375C158.873 656.375 159.37 656.298 159.814 656.144C160.264 655.984 160.651 655.748 160.977 655.434C161.302 655.114 161.554 654.718 161.732 654.244L163.756 654.812C163.543 655.499 163.185 656.103 162.681 656.624C162.178 657.138 161.557 657.541 160.817 657.831C160.077 658.115 159.246 658.257 158.322 658.257ZM176.815 647.391L174.933 647.923C174.815 647.61 174.64 647.305 174.409 647.009C174.184 646.707 173.876 646.458 173.486 646.263C173.095 646.068 172.595 645.97 171.985 645.97C171.151 645.97 170.455 646.163 169.899 646.547C169.349 646.926 169.074 647.408 169.074 647.994C169.074 648.515 169.263 648.926 169.642 649.228C170.02 649.53 170.612 649.782 171.417 649.983L173.441 650.48C174.661 650.776 175.569 651.229 176.167 651.838C176.765 652.442 177.064 653.22 177.064 654.173C177.064 654.955 176.839 655.653 176.389 656.268C175.945 656.884 175.324 657.369 174.525 657.724C173.725 658.08 172.796 658.257 171.737 658.257C170.346 658.257 169.195 657.955 168.283 657.352C167.372 656.748 166.795 655.866 166.552 654.706L168.541 654.209C168.73 654.943 169.088 655.493 169.615 655.86C170.148 656.227 170.843 656.41 171.701 656.41C172.678 656.41 173.453 656.203 174.027 655.789C174.607 655.369 174.897 654.866 174.897 654.28C174.897 653.806 174.732 653.41 174.4 653.09C174.069 652.765 173.56 652.522 172.873 652.362L170.6 651.83C169.352 651.534 168.434 651.075 167.848 650.453C167.268 649.826 166.978 649.042 166.978 648.101C166.978 647.331 167.194 646.651 167.626 646.059C168.064 645.467 168.659 645.002 169.411 644.665C170.168 644.328 171.027 644.159 171.985 644.159C173.335 644.159 174.394 644.455 175.164 645.047C175.939 645.639 176.489 646.42 176.815 647.391ZM186.148 644.337V646.112H179.081V644.337H186.148ZM181.141 641.07H183.236V654.067C183.236 654.659 183.322 655.102 183.493 655.398C183.671 655.688 183.896 655.884 184.168 655.984C184.446 656.079 184.739 656.126 185.047 656.126C185.278 656.126 185.467 656.115 185.615 656.091C185.763 656.061 185.881 656.038 185.97 656.02L186.396 657.902C186.254 657.955 186.056 658.009 185.802 658.062C185.547 658.121 185.225 658.151 184.834 658.151C184.242 658.151 183.662 658.023 183.094 657.769C182.532 657.514 182.064 657.127 181.691 656.606C181.324 656.085 181.141 655.428 181.141 654.635V641.07ZM194.87 658.257C193.556 658.257 192.423 657.967 191.47 657.387C190.523 656.801 189.792 655.984 189.277 654.937C188.768 653.883 188.514 652.658 188.514 651.261C188.514 649.865 188.768 648.634 189.277 647.568C189.792 646.497 190.508 645.662 191.426 645.065C192.349 644.461 193.426 644.159 194.657 644.159C195.367 644.159 196.069 644.277 196.761 644.514C197.454 644.751 198.084 645.136 198.652 645.668C199.22 646.195 199.673 646.893 200.011 647.763C200.348 648.634 200.517 649.705 200.517 650.977V651.865H190.005V650.054H198.386C198.386 649.285 198.232 648.598 197.924 647.994C197.622 647.391 197.19 646.914 196.628 646.565C196.072 646.216 195.415 646.041 194.657 646.041C193.823 646.041 193.101 646.248 192.491 646.663C191.887 647.071 191.423 647.604 191.097 648.261C190.772 648.918 190.609 649.622 190.609 650.374V651.581C190.609 652.611 190.786 653.484 191.142 654.2C191.503 654.91 192.003 655.452 192.642 655.825C193.281 656.192 194.024 656.375 194.87 656.375C195.421 656.375 195.918 656.298 196.362 656.144C196.812 655.984 197.199 655.748 197.525 655.434C197.85 655.114 198.102 654.718 198.279 654.244L200.304 654.812C200.09 655.499 199.732 656.103 199.229 656.624C198.726 657.138 198.105 657.541 197.365 657.831C196.625 658.115 195.794 658.257 194.87 658.257ZM203.704 657.973V644.337H205.728V646.396H205.87C206.119 645.722 206.568 645.174 207.219 644.754C207.87 644.334 208.604 644.124 209.421 644.124C209.575 644.124 209.767 644.127 209.998 644.132C210.229 644.138 210.404 644.147 210.522 644.159V646.29C210.451 646.272 210.288 646.245 210.034 646.21C209.785 646.168 209.522 646.148 209.244 646.148C208.581 646.148 207.989 646.287 207.468 646.565C206.953 646.837 206.545 647.216 206.243 647.701C205.947 648.181 205.799 648.728 205.799 649.344V657.973H203.704Z" fill="black"/>
<path d="M227.832 400.473H225.631C225.5 399.84 225.273 399.283 224.947 398.804C224.627 398.325 224.237 397.922 223.775 397.597C223.319 397.265 222.813 397.017 222.257 396.851C221.701 396.685 221.121 396.602 220.517 396.602C219.416 396.602 218.419 396.88 217.525 397.437C216.637 397.993 215.93 398.813 215.403 399.896C214.883 400.979 214.622 402.308 214.622 403.882C214.622 405.456 214.883 406.785 215.403 407.868C215.93 408.951 216.637 409.771 217.525 410.327C218.419 410.884 219.416 411.162 220.517 411.162C221.121 411.162 221.701 411.079 222.257 410.913C222.813 410.748 223.319 410.502 223.775 410.176C224.237 409.845 224.627 409.44 224.947 408.96C225.273 408.475 225.5 407.919 225.631 407.291H227.832C227.667 408.22 227.365 409.052 226.927 409.786C226.489 410.52 225.944 411.144 225.293 411.659C224.642 412.168 223.911 412.556 223.1 412.822C222.296 413.088 221.434 413.222 220.517 413.222C218.966 413.222 217.587 412.843 216.38 412.085C215.173 411.328 214.223 410.25 213.53 408.854C212.838 407.457 212.491 405.8 212.491 403.882C212.491 401.964 212.838 400.307 213.53 398.91C214.223 397.514 215.173 396.437 216.38 395.679C217.587 394.921 218.966 394.543 220.517 394.543C221.434 394.543 222.296 394.676 223.1 394.942C223.911 395.208 224.642 395.599 225.293 396.114C225.944 396.623 226.489 397.244 226.927 397.978C227.365 398.706 227.667 399.538 227.832 400.473ZM236.646 413.257C235.415 413.257 234.335 412.964 233.405 412.378C232.482 411.792 231.76 410.973 231.239 409.919C230.724 408.866 230.467 407.634 230.467 406.226C230.467 404.805 230.724 403.565 231.239 402.506C231.76 401.447 232.482 400.624 233.405 400.038C234.335 399.452 235.415 399.159 236.646 399.159C237.877 399.159 238.954 399.452 239.877 400.038C240.807 400.624 241.529 401.447 242.044 402.506C242.564 403.565 242.825 404.805 242.825 406.226C242.825 407.634 242.564 408.866 242.044 409.919C241.529 410.973 240.807 411.792 239.877 412.378C238.954 412.964 237.877 413.257 236.646 413.257ZM236.646 411.375C237.581 411.375 238.35 411.135 238.954 410.656C239.558 410.176 240.005 409.546 240.295 408.765C240.585 407.984 240.73 407.137 240.73 406.226C240.73 405.314 240.585 404.465 240.295 403.678C240.005 402.891 239.558 402.254 238.954 401.769C238.35 401.284 237.581 401.041 236.646 401.041C235.711 401.041 234.941 401.284 234.338 401.769C233.734 402.254 233.287 402.891 232.997 403.678C232.707 404.465 232.562 405.314 232.562 406.226C232.562 407.137 232.707 407.984 232.997 408.765C233.287 409.546 233.734 410.176 234.338 410.656C234.941 411.135 235.711 411.375 236.646 411.375ZM248.118 404.77V412.973H246.023V399.337H248.047V401.467H248.225C248.544 400.775 249.03 400.218 249.681 399.798C250.332 399.372 251.172 399.159 252.202 399.159C253.125 399.159 253.933 399.348 254.626 399.727C255.318 400.1 255.857 400.668 256.241 401.432C256.626 402.189 256.819 403.148 256.819 404.308V412.973H254.723V404.45C254.723 403.379 254.445 402.544 253.889 401.947C253.333 401.343 252.569 401.041 251.598 401.041C250.93 401.041 250.332 401.186 249.805 401.476C249.284 401.766 248.873 402.189 248.571 402.746C248.269 403.302 248.118 403.977 248.118 404.77ZM263.737 412.973L259.582 399.337H261.783L264.731 409.777H264.873L267.785 399.337H270.022L272.899 409.741H273.041L275.988 399.337H278.19L274.035 412.973H271.975L268.992 402.497H268.779L265.796 412.973H263.737ZM284.972 413.293C284.108 413.293 283.324 413.13 282.62 412.804C281.915 412.473 281.356 411.996 280.942 411.375C280.528 410.748 280.32 409.99 280.32 409.102C280.32 408.321 280.474 407.688 280.782 407.202C281.09 406.711 281.501 406.326 282.016 406.048C282.531 405.77 283.099 405.563 283.721 405.427C284.348 405.285 284.978 405.172 285.612 405.089C286.44 404.983 287.112 404.903 287.627 404.85C288.148 404.791 288.526 404.693 288.763 404.557C289.006 404.421 289.127 404.184 289.127 403.847V403.776C289.127 402.9 288.888 402.219 288.408 401.734C287.935 401.248 287.216 401.006 286.251 401.006C285.251 401.006 284.466 401.225 283.898 401.663C283.33 402.101 282.93 402.568 282.7 403.065L280.711 402.355C281.066 401.526 281.54 400.881 282.131 400.42C282.729 399.952 283.38 399.627 284.085 399.443C284.795 399.254 285.493 399.159 286.18 399.159C286.618 399.159 287.121 399.212 287.689 399.319C288.263 399.419 288.816 399.63 289.349 399.949C289.888 400.269 290.335 400.751 290.69 401.396C291.045 402.041 291.222 402.906 291.222 403.989V412.973H289.127V411.126H289.021C288.879 411.422 288.642 411.739 288.31 412.076C287.979 412.414 287.538 412.701 286.988 412.937C286.437 413.174 285.765 413.293 284.972 413.293ZM285.292 411.41C286.121 411.41 286.819 411.248 287.387 410.922C287.961 410.597 288.393 410.176 288.683 409.662C288.979 409.147 289.127 408.605 289.127 408.037V406.119C289.038 406.226 288.843 406.323 288.541 406.412C288.245 406.495 287.902 406.569 287.511 406.634C287.127 406.693 286.751 406.747 286.384 406.794C286.023 406.835 285.73 406.871 285.505 406.901C284.961 406.972 284.452 407.087 283.978 407.247C283.511 407.401 283.132 407.634 282.842 407.948C282.558 408.256 282.416 408.676 282.416 409.209C282.416 409.937 282.685 410.487 283.223 410.86C283.768 411.227 284.457 411.41 285.292 411.41ZM295.908 418.087C295.553 418.087 295.236 418.057 294.958 417.998C294.68 417.945 294.487 417.891 294.381 417.838L294.913 415.991C295.422 416.122 295.872 416.169 296.263 416.134C296.653 416.098 297 415.923 297.301 415.61C297.609 415.302 297.89 414.802 298.145 414.109L298.536 413.044L293.493 399.337H295.766L299.53 410.203H299.672L303.436 399.337H305.709L299.92 414.962C299.66 415.666 299.337 416.249 298.953 416.711C298.568 417.178 298.121 417.524 297.612 417.749C297.109 417.974 296.541 418.087 295.908 418.087Z" fill="black"/>
<path d="M125.202 321.973V303.791H127.403V320.02H135.855V321.973H125.202ZM138.98 321.973V308.337H141.075V321.973H138.98ZM140.045 306.064C139.637 306.064 139.285 305.925 138.989 305.647C138.699 305.368 138.554 305.034 138.554 304.643C138.554 304.253 138.699 303.918 138.989 303.64C139.285 303.362 139.637 303.223 140.045 303.223C140.454 303.223 140.803 303.362 141.093 303.64C141.389 303.918 141.537 304.253 141.537 304.643C141.537 305.034 141.389 305.368 141.093 305.647C140.803 305.925 140.454 306.064 140.045 306.064ZM150.843 308.337V310.112H143.776V308.337H150.843ZM145.836 305.07H147.931V318.067C147.931 318.659 148.017 319.102 148.189 319.398C148.366 319.688 148.591 319.884 148.863 319.984C149.142 320.079 149.435 320.126 149.742 320.126C149.973 320.126 150.162 320.115 150.31 320.091C150.458 320.061 150.577 320.038 150.666 320.02L151.092 321.902C150.95 321.955 150.751 322.009 150.497 322.062C150.242 322.121 149.92 322.151 149.529 322.151C148.937 322.151 148.357 322.023 147.789 321.769C147.227 321.514 146.759 321.127 146.386 320.606C146.02 320.085 145.836 319.428 145.836 318.635V305.07ZM159.925 308.337V310.112H152.858V308.337H159.925ZM154.918 305.07H157.013V318.067C157.013 318.659 157.099 319.102 157.271 319.398C157.448 319.688 157.673 319.884 157.945 319.984C158.224 320.079 158.517 320.126 158.824 320.126C159.055 320.126 159.245 320.115 159.392 320.091C159.54 320.061 159.659 320.038 159.748 320.02L160.174 321.902C160.032 321.955 159.833 322.009 159.579 322.062C159.324 322.121 159.002 322.151 158.611 322.151C158.019 322.151 157.439 322.023 156.871 321.769C156.309 321.514 155.841 321.127 155.468 320.606C155.102 320.085 154.918 319.428 154.918 318.635V305.07ZM165.465 303.791V321.973H163.37V303.791H165.465ZM175.02 322.257C173.706 322.257 172.572 321.967 171.619 321.387C170.673 320.801 169.942 319.984 169.427 318.937C168.918 317.883 168.663 316.658 168.663 315.261C168.663 313.865 168.918 312.634 169.427 311.568C169.942 310.497 170.658 309.662 171.575 309.065C172.498 308.461 173.576 308.159 174.807 308.159C175.517 308.159 176.218 308.277 176.911 308.514C177.603 308.751 178.233 309.136 178.802 309.668C179.37 310.195 179.823 310.893 180.16 311.763C180.497 312.634 180.666 313.705 180.666 314.977V315.865H170.155V314.054H178.535C178.535 313.285 178.381 312.598 178.074 311.994C177.772 311.391 177.34 310.914 176.778 310.565C176.221 310.216 175.564 310.041 174.807 310.041C173.972 310.041 173.25 310.248 172.64 310.663C172.037 311.071 171.572 311.604 171.247 312.261C170.921 312.918 170.758 313.622 170.758 314.374V315.581C170.758 316.611 170.936 317.484 171.291 318.2C171.652 318.91 172.152 319.452 172.791 319.825C173.431 320.192 174.173 320.375 175.02 320.375C175.57 320.375 176.067 320.298 176.511 320.144C176.961 319.984 177.349 319.748 177.674 319.434C178 319.114 178.251 318.718 178.429 318.244L180.453 318.812C180.24 319.499 179.882 320.103 179.379 320.624C178.876 321.138 178.254 321.541 177.514 321.831C176.775 322.115 175.943 322.257 175.02 322.257ZM189.784 308.337V310.112H182.717V308.337H189.784ZM184.776 305.07H186.872V318.067C186.872 318.659 186.957 319.102 187.129 319.398C187.307 319.688 187.532 319.884 187.804 319.984C188.082 320.079 188.375 320.126 188.683 320.126C188.914 320.126 189.103 320.115 189.251 320.091C189.399 320.061 189.517 320.038 189.606 320.02L190.032 321.902C189.89 321.955 189.692 322.009 189.437 322.062C189.183 322.121 188.86 322.151 188.47 322.151C187.878 322.151 187.298 322.023 186.73 321.769C186.167 321.514 185.7 321.127 185.327 320.606C184.96 320.085 184.776 319.428 184.776 318.635V305.07ZM198.328 322.257C197.097 322.257 196.017 321.964 195.088 321.378C194.165 320.792 193.443 319.973 192.922 318.919C192.407 317.866 192.15 316.634 192.15 315.226C192.15 313.805 192.407 312.565 192.922 311.506C193.443 310.447 194.165 309.624 195.088 309.038C196.017 308.452 197.097 308.159 198.328 308.159C199.56 308.159 200.637 308.452 201.56 309.038C202.489 309.624 203.211 310.447 203.726 311.506C204.247 312.565 204.507 313.805 204.507 315.226C204.507 316.634 204.247 317.866 203.726 318.919C203.211 319.973 202.489 320.792 201.56 321.378C200.637 321.964 199.56 322.257 198.328 322.257ZM198.328 320.375C199.264 320.375 200.033 320.135 200.637 319.656C201.24 319.176 201.687 318.546 201.977 317.765C202.267 316.984 202.412 316.137 202.412 315.226C202.412 314.314 202.267 313.465 201.977 312.678C201.687 311.891 201.24 311.254 200.637 310.769C200.033 310.284 199.264 310.041 198.328 310.041C197.393 310.041 196.624 310.284 196.02 310.769C195.417 311.254 194.97 311.891 194.68 312.678C194.39 313.465 194.245 314.314 194.245 315.226C194.245 316.137 194.39 316.984 194.68 317.765C194.97 318.546 195.417 319.176 196.02 319.656C196.624 320.135 197.393 320.375 198.328 320.375ZM209.801 313.77V321.973H207.706V308.337H209.73V310.467H209.907C210.227 309.775 210.712 309.218 211.363 308.798C212.014 308.372 212.855 308.159 213.885 308.159C214.808 308.159 215.616 308.348 216.308 308.727C217.001 309.1 217.539 309.668 217.924 310.432C218.309 311.189 218.501 312.148 218.501 313.308V321.973H216.406V313.45C216.406 312.379 216.128 311.544 215.571 310.947C215.015 310.343 214.252 310.041 213.281 310.041C212.612 310.041 212.014 310.186 211.488 310.476C210.967 310.766 210.555 311.189 210.254 311.746C209.952 312.302 209.801 312.977 209.801 313.77Z" fill="black"/>
<path d="M282.812 633.973H277.202V615.791H283.061C284.825 615.791 286.334 616.155 287.589 616.883C288.844 617.605 289.805 618.644 290.474 619.999C291.143 621.349 291.477 622.964 291.477 624.847C291.477 626.741 291.14 628.371 290.465 629.738C289.79 631.1 288.808 632.147 287.518 632.881C286.228 633.609 284.659 633.973 282.812 633.973ZM279.403 632.02H282.67C284.174 632.02 285.42 631.73 286.408 631.15C287.396 630.57 288.133 629.744 288.619 628.673C289.104 627.602 289.347 626.326 289.347 624.847C289.347 623.379 289.107 622.115 288.627 621.056C288.148 619.99 287.432 619.174 286.479 618.605C285.526 618.031 284.339 617.744 282.919 617.744H279.403V632.02ZM300.426 634.257C299.195 634.257 298.115 633.964 297.186 633.378C296.262 632.792 295.54 631.973 295.02 630.919C294.505 629.866 294.247 628.634 294.247 627.226C294.247 625.805 294.505 624.565 295.02 623.506C295.54 622.447 296.262 621.624 297.186 621.038C298.115 620.452 299.195 620.159 300.426 620.159C301.657 620.159 302.734 620.452 303.658 621.038C304.587 621.624 305.309 622.447 305.824 623.506C306.345 624.565 306.605 625.805 306.605 627.226C306.605 628.634 306.345 629.866 305.824 630.919C305.309 631.973 304.587 632.792 303.658 633.378C302.734 633.964 301.657 634.257 300.426 634.257ZM300.426 632.375C301.361 632.375 302.131 632.135 302.734 631.656C303.338 631.176 303.785 630.546 304.075 629.765C304.365 628.984 304.51 628.137 304.51 627.226C304.51 626.314 304.365 625.465 304.075 624.678C303.785 623.891 303.338 623.254 302.734 622.769C302.131 622.284 301.361 622.041 300.426 622.041C299.491 622.041 298.722 622.284 298.118 622.769C297.514 623.254 297.067 623.891 296.777 624.678C296.487 625.465 296.342 626.314 296.342 627.226C296.342 628.137 296.487 628.984 296.777 629.765C297.067 630.546 297.514 631.176 298.118 631.656C298.722 632.135 299.491 632.375 300.426 632.375ZM320.466 620.337L315.423 633.973H313.292L308.25 620.337H310.522L314.287 631.203H314.429L318.193 620.337H320.466ZM328.46 634.257C327.146 634.257 326.013 633.967 325.06 633.387C324.113 632.801 323.382 631.984 322.867 630.937C322.358 629.883 322.104 628.658 322.104 627.261C322.104 625.865 322.358 624.634 322.867 623.568C323.382 622.497 324.098 621.662 325.016 621.065C325.939 620.461 327.016 620.159 328.247 620.159C328.957 620.159 329.659 620.277 330.351 620.514C331.044 620.751 331.674 621.136 332.242 621.668C332.81 622.195 333.263 622.893 333.6 623.763C333.938 624.634 334.106 625.705 334.106 626.977V627.865H323.595V626.054H331.976C331.976 625.285 331.822 624.598 331.514 623.994C331.212 623.391 330.78 622.914 330.218 622.565C329.662 622.216 329.005 622.041 328.247 622.041C327.413 622.041 326.69 622.248 326.081 622.663C325.477 623.071 325.013 623.604 324.687 624.261C324.362 624.918 324.199 625.622 324.199 626.374V627.581C324.199 628.611 324.376 629.484 324.731 630.2C325.092 630.91 325.593 631.452 326.232 631.825C326.871 632.192 327.614 632.375 328.46 632.375C329.011 632.375 329.508 632.298 329.952 632.144C330.401 631.984 330.789 631.748 331.115 631.434C331.44 631.114 331.692 630.718 331.869 630.244L333.893 630.812C333.68 631.499 333.322 632.103 332.819 632.624C332.316 633.138 331.695 633.541 330.955 633.831C330.215 634.115 329.383 634.257 328.46 634.257ZM337.294 633.973V620.337H339.318V622.396H339.46C339.708 621.722 340.158 621.174 340.809 620.754C341.46 620.334 342.194 620.124 343.011 620.124C343.165 620.124 343.357 620.127 343.588 620.132C343.819 620.138 343.993 620.147 344.112 620.159V622.29C344.041 622.272 343.878 622.245 343.623 622.21C343.375 622.168 343.112 622.148 342.833 622.148C342.17 622.148 341.579 622.287 341.058 622.565C340.543 622.837 340.134 623.216 339.833 623.701C339.537 624.181 339.389 624.728 339.389 625.344V633.973H337.294Z" fill="black"/>
<path d="M196.202 555.973V537.791H202.345C203.766 537.791 204.932 538.034 205.843 538.519C206.754 538.999 207.429 539.658 207.867 540.499C208.305 541.339 208.524 542.295 208.524 543.366C208.524 544.438 208.305 545.388 207.867 546.216C207.429 547.045 206.757 547.696 205.852 548.169C204.946 548.637 203.789 548.871 202.381 548.871H197.409V546.882H202.31C203.28 546.882 204.062 546.74 204.653 546.456C205.251 546.172 205.683 545.769 205.95 545.249C206.222 544.722 206.358 544.094 206.358 543.366C206.358 542.638 206.222 542.002 205.95 541.458C205.677 540.913 205.242 540.493 204.645 540.197C204.047 539.895 203.257 539.744 202.274 539.744H198.403V555.973H196.202ZM204.76 547.805L209.234 555.973H206.678L202.274 547.805H204.76ZM217.302 556.257C216.071 556.257 214.991 555.964 214.062 555.378C213.138 554.792 212.416 553.973 211.896 552.919C211.381 551.866 211.123 550.634 211.123 549.226C211.123 547.805 211.381 546.565 211.896 545.506C212.416 544.447 213.138 543.624 214.062 543.038C214.991 542.452 216.071 542.159 217.302 542.159C218.533 542.159 219.61 542.452 220.534 543.038C221.463 543.624 222.185 544.447 222.7 545.506C223.221 546.565 223.481 547.805 223.481 549.226C223.481 550.634 223.221 551.866 222.7 552.919C222.185 553.973 221.463 554.792 220.534 555.378C219.61 555.964 218.533 556.257 217.302 556.257ZM217.302 554.375C218.237 554.375 219.007 554.135 219.61 553.656C220.214 553.176 220.661 552.546 220.951 551.765C221.241 550.984 221.386 550.137 221.386 549.226C221.386 548.314 221.241 547.465 220.951 546.678C220.661 545.891 220.214 545.254 219.61 544.769C219.007 544.284 218.237 544.041 217.302 544.041C216.367 544.041 215.598 544.284 214.994 544.769C214.39 545.254 213.943 545.891 213.653 546.678C213.363 547.465 213.218 548.314 213.218 549.226C213.218 550.137 213.363 550.984 213.653 551.765C213.943 552.546 214.39 553.176 214.994 553.656C215.598 554.135 216.367 554.375 217.302 554.375ZM232.219 556.257C230.941 556.257 229.84 555.955 228.917 555.352C227.993 554.748 227.283 553.916 226.786 552.857C226.289 551.797 226.04 550.587 226.04 549.226C226.04 547.841 226.295 546.619 226.804 545.559C227.319 544.494 228.035 543.662 228.952 543.065C229.875 542.461 230.953 542.159 232.184 542.159C233.142 542.159 234.007 542.337 234.776 542.692C235.545 543.047 236.176 543.544 236.667 544.183C237.158 544.822 237.463 545.568 237.581 546.42H235.486C235.326 545.799 234.971 545.249 234.421 544.769C233.876 544.284 233.142 544.041 232.219 544.041C231.402 544.041 230.686 544.254 230.071 544.68C229.461 545.101 228.985 545.695 228.641 546.465C228.304 547.228 228.135 548.125 228.135 549.155C228.135 550.208 228.301 551.126 228.632 551.907C228.97 552.688 229.443 553.295 230.053 553.727C230.668 554.159 231.391 554.375 232.219 554.375C232.764 554.375 233.258 554.28 233.702 554.091C234.146 553.901 234.521 553.629 234.829 553.274C235.137 552.919 235.356 552.493 235.486 551.996H237.581C237.463 552.801 237.17 553.526 236.702 554.171C236.241 554.81 235.628 555.319 234.865 555.698C234.107 556.071 233.225 556.257 232.219 556.257ZM242.739 547.77V555.973H240.644V537.791H242.739V544.467H242.917C243.237 543.763 243.716 543.204 244.355 542.789C245 542.369 245.858 542.159 246.93 542.159C247.859 542.159 248.673 542.346 249.371 542.718C250.069 543.085 250.611 543.651 250.996 544.414C251.386 545.172 251.582 546.136 251.582 547.308V555.973H249.487V547.45C249.487 546.367 249.205 545.53 248.643 544.938C248.087 544.34 247.314 544.041 246.326 544.041C245.639 544.041 245.024 544.186 244.479 544.476C243.941 544.766 243.515 545.189 243.201 545.746C242.893 546.302 242.739 546.977 242.739 547.77ZM261.132 556.257C259.818 556.257 258.685 555.967 257.732 555.387C256.785 554.801 256.054 553.984 255.539 552.937C255.03 551.883 254.775 550.658 254.775 549.261C254.775 547.865 255.03 546.634 255.539 545.568C256.054 544.497 256.77 543.662 257.687 543.065C258.611 542.461 259.688 542.159 260.919 542.159C261.629 542.159 262.331 542.277 263.023 542.514C263.715 542.751 264.346 543.136 264.914 543.668C265.482 544.195 265.935 544.893 266.272 545.763C266.61 546.634 266.778 547.705 266.778 548.977V549.865H256.267V548.054H264.648C264.648 547.285 264.494 546.598 264.186 545.994C263.884 545.391 263.452 544.914 262.89 544.565C262.333 544.216 261.677 544.041 260.919 544.041C260.084 544.041 259.362 544.248 258.753 544.663C258.149 545.071 257.684 545.604 257.359 546.261C257.033 546.918 256.871 547.622 256.871 548.374V549.581C256.871 550.611 257.048 551.484 257.403 552.2C257.764 552.91 258.264 553.452 258.904 553.825C259.543 554.192 260.286 554.375 261.132 554.375C261.682 554.375 262.18 554.298 262.623 554.144C263.073 553.984 263.461 553.748 263.786 553.434C264.112 553.114 264.364 552.718 264.541 552.244L266.565 552.812C266.352 553.499 265.994 554.103 265.491 554.624C264.988 555.138 264.367 555.541 263.627 555.831C262.887 556.115 262.055 556.257 261.132 556.257ZM279.625 545.391L277.742 545.923C277.624 545.61 277.449 545.305 277.219 545.009C276.994 544.707 276.686 544.458 276.295 544.263C275.905 544.068 275.405 543.97 274.795 543.97C273.96 543.97 273.265 544.163 272.709 544.547C272.158 544.926 271.883 545.408 271.883 545.994C271.883 546.515 272.072 546.926 272.451 547.228C272.83 547.53 273.422 547.782 274.227 547.983L276.251 548.48C277.47 548.776 278.379 549.229 278.976 549.838C279.574 550.442 279.873 551.22 279.873 552.173C279.873 552.955 279.648 553.653 279.198 554.268C278.755 554.884 278.133 555.369 277.334 555.724C276.535 556.08 275.606 556.257 274.546 556.257C273.156 556.257 272.004 555.955 271.093 555.352C270.181 554.748 269.604 553.866 269.362 552.706L271.35 552.209C271.54 552.943 271.898 553.493 272.425 553.86C272.957 554.227 273.653 554.41 274.511 554.41C275.487 554.41 276.263 554.203 276.837 553.789C277.417 553.369 277.707 552.866 277.707 552.28C277.707 551.806 277.541 551.41 277.21 551.09C276.878 550.765 276.369 550.522 275.683 550.362L273.41 549.83C272.161 549.534 271.244 549.075 270.658 548.453C270.078 547.826 269.788 547.042 269.788 546.101C269.788 545.331 270.004 544.651 270.436 544.059C270.874 543.467 271.469 543.002 272.22 542.665C272.978 542.328 273.836 542.159 274.795 542.159C276.144 542.159 277.204 542.455 277.973 543.047C278.749 543.639 279.299 544.42 279.625 545.391ZM288.957 542.337V544.112H281.891V542.337H288.957ZM283.95 539.07H286.045V552.067C286.045 552.659 286.131 553.102 286.303 553.398C286.48 553.688 286.705 553.884 286.978 553.984C287.256 554.079 287.549 554.126 287.857 554.126C288.087 554.126 288.277 554.115 288.425 554.091C288.573 554.061 288.691 554.038 288.78 554.02L289.206 555.902C289.064 555.955 288.866 556.009 288.611 556.062C288.357 556.121 288.034 556.151 287.643 556.151C287.052 556.151 286.472 556.023 285.903 555.769C285.341 555.514 284.874 555.127 284.501 554.606C284.134 554.085 283.95 553.428 283.95 552.635V539.07ZM297.68 556.257C296.366 556.257 295.233 555.967 294.28 555.387C293.333 554.801 292.602 553.984 292.087 552.937C291.578 551.883 291.323 550.658 291.323 549.261C291.323 547.865 291.578 546.634 292.087 545.568C292.602 544.497 293.318 543.662 294.235 543.065C295.159 542.461 296.236 542.159 297.467 542.159C298.177 542.159 298.878 542.277 299.571 542.514C300.263 542.751 300.894 543.136 301.462 543.668C302.03 544.195 302.483 544.893 302.82 545.763C303.157 546.634 303.326 547.705 303.326 548.977V549.865H292.815V548.054H301.195C301.195 547.285 301.042 546.598 300.734 545.994C300.432 545.391 300 544.914 299.438 544.565C298.881 544.216 298.224 544.041 297.467 544.041C296.632 544.041 295.91 544.248 295.301 544.663C294.697 545.071 294.232 545.604 293.907 546.261C293.581 546.918 293.419 547.622 293.419 548.374V549.581C293.419 550.611 293.596 551.484 293.951 552.2C294.312 552.91 294.812 553.452 295.452 553.825C296.091 554.192 296.834 554.375 297.68 554.375C298.23 554.375 298.727 554.298 299.171 554.144C299.621 553.984 300.009 553.748 300.334 553.434C300.66 553.114 300.911 552.718 301.089 552.244L303.113 552.812C302.9 553.499 302.542 554.103 302.039 554.624C301.536 555.138 300.914 555.541 300.175 555.831C299.435 556.115 298.603 556.257 297.68 556.257ZM306.513 555.973V542.337H308.537V544.396H308.68C308.928 543.722 309.378 543.174 310.029 542.754C310.68 542.334 311.414 542.124 312.231 542.124C312.385 542.124 312.577 542.127 312.808 542.132C313.039 542.138 313.213 542.147 313.331 542.159V544.29C313.26 544.272 313.098 544.245 312.843 544.21C312.595 544.168 312.331 544.148 312.053 544.148C311.39 544.148 310.798 544.287 310.278 544.565C309.763 544.837 309.354 545.216 309.052 545.701C308.756 546.181 308.608 546.728 308.608 547.344V555.973H306.513Z" fill="black"/>
<circle cx="204.511" cy="594.484" r="9.01136" fill="#FF8F87" stroke="black"/>
<path d="M99.6225 591.157H95.734C95.663 590.654 95.518 590.207 95.299 589.816C95.08 589.419 94.7989 589.082 94.4556 588.804C94.1123 588.526 93.7158 588.313 93.266 588.165C92.8221 588.017 92.3397 587.943 91.8189 587.943C90.8778 587.943 90.0581 588.177 89.3597 588.644C88.6613 589.106 88.1198 589.781 87.7351 590.668C87.3504 591.55 87.158 592.621 87.158 593.882C87.158 595.178 87.3504 596.267 87.7351 597.149C88.1257 598.031 88.6702 598.697 89.3686 599.147C90.067 599.596 90.8749 599.821 91.7923 599.821C92.3072 599.821 92.7836 599.753 93.2216 599.617C93.6655 599.481 94.0591 599.283 94.4023 599.022C94.7456 598.756 95.0297 598.433 95.2546 598.055C95.4854 597.676 95.6452 597.244 95.734 596.759L99.6225 596.776C99.5219 597.611 99.2704 598.416 98.8679 599.191C98.4714 599.96 97.9357 600.65 97.261 601.26C96.5922 601.863 95.7932 602.343 94.864 602.698C93.9407 603.047 92.8961 603.222 91.7301 603.222C90.1084 603.222 88.6584 602.855 87.38 602.121C86.1075 601.387 85.1013 600.324 84.3615 598.934C83.6276 597.543 83.2607 595.859 83.2607 593.882C83.2607 591.899 83.6335 590.213 84.3793 588.822C85.125 587.431 86.1371 586.371 87.4155 585.643C88.6939 584.91 90.1321 584.543 91.7301 584.543C92.7836 584.543 93.7602 584.691 94.6598 584.986C95.5653 585.282 96.3673 585.714 97.0657 586.283C97.7641 586.845 98.3323 587.534 98.7702 588.351C99.2141 589.168 99.4982 590.103 99.6225 591.157ZM108.469 603.239C107.09 603.239 105.898 602.946 104.892 602.36C103.891 601.769 103.119 600.946 102.574 599.892C102.03 598.833 101.758 597.605 101.758 596.208C101.758 594.799 102.03 593.568 102.574 592.515C103.119 591.455 103.891 590.633 104.892 590.047C105.898 589.455 107.09 589.159 108.469 589.159C109.848 589.159 111.038 589.455 112.038 590.047C113.044 590.633 113.82 591.455 114.364 592.515C114.909 593.568 115.181 594.799 115.181 596.208C115.181 597.605 114.909 598.833 114.364 599.892C113.82 600.946 113.044 601.769 112.038 602.36C111.038 602.946 109.848 603.239 108.469 603.239ZM108.487 600.31C109.114 600.31 109.638 600.132 110.058 599.777C110.479 599.416 110.795 598.925 111.008 598.303C111.227 597.682 111.337 596.975 111.337 596.181C111.337 595.388 111.227 594.681 111.008 594.06C110.795 593.438 110.479 592.947 110.058 592.586C109.638 592.225 109.114 592.044 108.487 592.044C107.854 592.044 107.321 592.225 106.889 592.586C106.463 592.947 106.14 593.438 105.921 594.06C105.708 594.681 105.602 595.388 105.602 596.181C105.602 596.975 105.708 597.682 105.921 598.303C106.14 598.925 106.463 599.416 106.889 599.777C107.321 600.132 107.854 600.31 108.487 600.31ZM121.422 595.089V602.973H117.64V589.337H121.244V591.743H121.404C121.706 590.949 122.212 590.322 122.922 589.86C123.633 589.393 124.494 589.159 125.506 589.159C126.453 589.159 127.278 589.366 127.983 589.781C128.687 590.195 129.235 590.787 129.625 591.556C130.016 592.32 130.211 593.231 130.211 594.29V602.973H126.429V594.965C126.435 594.131 126.222 593.48 125.79 593.012C125.358 592.539 124.763 592.302 124.006 592.302C123.497 592.302 123.047 592.411 122.656 592.63C122.271 592.849 121.97 593.169 121.751 593.589C121.537 594.003 121.428 594.504 121.422 595.089ZM139.353 603.239C137.956 603.239 136.755 602.943 135.749 602.352C134.748 601.754 133.979 600.925 133.44 599.866C132.908 598.806 132.641 597.587 132.641 596.208C132.641 594.811 132.911 593.586 133.449 592.533C133.994 591.473 134.766 590.648 135.766 590.056C136.767 589.458 137.956 589.159 139.335 589.159C140.525 589.159 141.567 589.375 142.46 589.807C143.354 590.239 144.061 590.846 144.582 591.627C145.103 592.408 145.39 593.326 145.443 594.379H141.874C141.774 593.699 141.507 593.151 141.075 592.737C140.649 592.317 140.09 592.107 139.397 592.107C138.812 592.107 138.3 592.266 137.862 592.586C137.43 592.9 137.092 593.358 136.85 593.962C136.607 594.566 136.486 595.297 136.486 596.155C136.486 597.025 136.604 597.765 136.841 598.374C137.083 598.984 137.424 599.448 137.862 599.768C138.3 600.088 138.812 600.247 139.397 600.247C139.83 600.247 140.217 600.159 140.56 599.981C140.91 599.804 141.197 599.546 141.422 599.209C141.652 598.866 141.803 598.454 141.874 597.975H145.443C145.384 599.016 145.1 599.934 144.591 600.727C144.088 601.514 143.392 602.13 142.505 602.573C141.617 603.017 140.566 603.239 139.353 603.239ZM154.026 603.239C152.647 603.239 151.454 602.946 150.448 602.36C149.448 601.769 148.676 600.946 148.131 599.892C147.587 598.833 147.314 597.605 147.314 596.208C147.314 594.799 147.587 593.568 148.131 592.515C148.676 591.455 149.448 590.633 150.448 590.047C151.454 589.455 152.647 589.159 154.026 589.159C155.405 589.159 156.595 589.455 157.595 590.047C158.601 590.633 159.376 591.455 159.921 592.515C160.465 593.568 160.738 594.799 160.738 596.208C160.738 597.605 160.465 598.833 159.921 599.892C159.376 600.946 158.601 601.769 157.595 602.36C156.595 602.946 155.405 603.239 154.026 603.239ZM154.044 600.31C154.671 600.31 155.195 600.132 155.615 599.777C156.035 599.416 156.352 598.925 156.565 598.303C156.784 597.682 156.893 596.975 156.893 596.181C156.893 595.388 156.784 594.681 156.565 594.06C156.352 593.438 156.035 592.947 155.615 592.586C155.195 592.225 154.671 592.044 154.044 592.044C153.41 592.044 152.878 592.225 152.446 592.586C152.02 592.947 151.697 593.438 151.478 594.06C151.265 594.681 151.158 595.388 151.158 596.181C151.158 596.975 151.265 597.682 151.478 598.303C151.697 598.925 152.02 599.416 152.446 599.777C152.878 600.132 153.41 600.31 154.044 600.31ZM163.197 602.973V589.337H166.863V591.716H167.005C167.254 590.87 167.671 590.23 168.257 589.798C168.843 589.36 169.518 589.141 170.281 589.141C170.471 589.141 170.675 589.153 170.894 589.177C171.113 589.201 171.305 589.233 171.471 589.274V592.63C171.293 592.577 171.048 592.53 170.734 592.488C170.42 592.447 170.133 592.426 169.873 592.426C169.317 592.426 168.819 592.547 168.381 592.79C167.949 593.027 167.606 593.358 167.352 593.784C167.103 594.211 166.979 594.702 166.979 595.258V602.973H163.197ZM177.816 603.195C176.781 603.195 175.842 602.929 175.002 602.396C174.168 601.857 173.505 601.067 173.013 600.026C172.528 598.978 172.285 597.694 172.285 596.173C172.285 594.61 172.537 593.311 173.04 592.275C173.543 591.234 174.212 590.455 175.046 589.94C175.887 589.419 176.807 589.159 177.807 589.159C178.571 589.159 179.207 589.289 179.716 589.55C180.231 589.804 180.645 590.124 180.959 590.509C181.279 590.887 181.521 591.26 181.687 591.627H181.802V584.791H185.576V602.973H181.847V600.789H181.687C181.509 601.168 181.258 601.544 180.932 601.917C180.613 602.283 180.196 602.588 179.681 602.831C179.172 603.074 178.55 603.195 177.816 603.195ZM179.015 600.185C179.624 600.185 180.139 600.02 180.56 599.688C180.986 599.351 181.311 598.88 181.536 598.277C181.767 597.673 181.882 596.966 181.882 596.155C181.882 595.344 181.77 594.64 181.545 594.042C181.32 593.444 180.995 592.982 180.568 592.657C180.142 592.331 179.624 592.169 179.015 592.169C178.393 592.169 177.87 592.337 177.443 592.675C177.017 593.012 176.695 593.48 176.476 594.077C176.257 594.675 176.147 595.368 176.147 596.155C176.147 596.948 176.257 597.649 176.476 598.259C176.701 598.863 177.023 599.336 177.443 599.679C177.87 600.017 178.393 600.185 179.015 600.185Z" fill="black"/>
</svg>
