<svg width="1233" height="3214" viewBox="0 0 1233 3214" fill="none" xmlns="http://www.w3.org/2000/svg">
<rect x="0.5" y="0.5" width="1232" height="3213" rx="35.5" fill="#97DCFF" stroke="#717171"/>
<path d="M380.978 1630L383.876 1612.55H390.422C391.762 1612.55 392.848 1612.8 393.677 1613.3C394.507 1613.79 395.083 1614.47 395.407 1615.35C395.731 1616.22 395.799 1617.21 395.612 1618.32C395.43 1619.44 395.029 1620.44 394.41 1621.31C393.797 1622.18 392.987 1622.86 391.981 1623.36C390.975 1623.86 389.799 1624.1 388.453 1624.1H384.115L384.549 1621.5H388.461C389.245 1621.5 389.91 1621.37 390.456 1621.09C391.007 1620.82 391.441 1620.45 391.76 1619.97C392.078 1619.49 392.288 1618.94 392.39 1618.32C392.487 1617.7 392.456 1617.16 392.297 1616.69C392.137 1616.22 391.828 1615.85 391.368 1615.59C390.913 1615.32 390.291 1615.19 389.501 1615.19H386.603L384.14 1630H380.978ZM399.762 1630.26C398.933 1630.26 398.211 1630.12 397.598 1629.82C396.984 1629.52 396.532 1629.08 396.243 1628.49C395.958 1627.91 395.887 1627.18 396.029 1626.33C396.154 1625.59 396.393 1624.98 396.745 1624.49C397.103 1624.01 397.541 1623.62 398.058 1623.34C398.581 1623.04 399.149 1622.82 399.762 1622.67C400.382 1622.52 401.012 1622.41 401.654 1622.35C402.439 1622.27 403.072 1622.19 403.555 1622.12C404.044 1622.06 404.41 1621.95 404.654 1621.82C404.899 1621.68 405.047 1621.46 405.098 1621.17V1621.12C405.2 1620.48 405.098 1619.98 404.791 1619.63C404.484 1619.28 403.973 1619.1 403.257 1619.1C402.507 1619.1 401.876 1619.26 401.365 1619.59C400.853 1619.92 400.481 1620.31 400.248 1620.76L397.453 1620.35C397.805 1619.56 398.288 1618.89 398.902 1618.36C399.515 1617.82 400.223 1617.41 401.024 1617.15C401.831 1616.88 402.691 1616.74 403.606 1616.74C404.231 1616.74 404.842 1616.81 405.439 1616.96C406.041 1617.11 406.572 1617.35 407.032 1617.69C407.498 1618.03 407.839 1618.49 408.055 1619.07C408.277 1619.64 408.314 1620.37 408.166 1621.24L406.708 1630H403.743L404.049 1628.2H403.947C403.703 1628.57 403.385 1628.91 402.993 1629.22C402.6 1629.54 402.135 1629.79 401.595 1629.98C401.055 1630.17 400.444 1630.26 399.762 1630.26ZM400.93 1628C401.549 1628 402.106 1627.87 402.6 1627.63C403.095 1627.38 403.501 1627.05 403.819 1626.64C404.137 1626.23 404.336 1625.79 404.416 1625.3L404.672 1623.76C404.558 1623.84 404.382 1623.91 404.143 1623.98C403.904 1624.05 403.637 1624.11 403.342 1624.16C403.052 1624.21 402.765 1624.26 402.481 1624.3C402.197 1624.34 401.953 1624.37 401.748 1624.4C401.277 1624.46 400.845 1624.57 400.453 1624.71C400.066 1624.85 399.745 1625.05 399.49 1625.3C399.24 1625.55 399.083 1625.88 399.021 1626.28C398.93 1626.84 399.064 1627.27 399.422 1627.56C399.779 1627.85 400.282 1628 400.93 1628ZM415.487 1630.26C414.18 1630.26 413.106 1629.97 412.265 1629.39C411.424 1628.82 410.836 1628.03 410.501 1627.02C410.172 1626 410.118 1624.83 410.339 1623.51C410.555 1622.18 411.001 1621 411.677 1619.99C412.359 1618.96 413.217 1618.17 414.251 1617.6C415.285 1617.03 416.441 1616.74 417.72 1616.74C418.782 1616.74 419.689 1616.93 420.439 1617.33C421.194 1617.71 421.757 1618.26 422.126 1618.97C422.501 1619.68 422.646 1620.5 422.561 1621.44H419.603C419.592 1620.81 419.396 1620.29 419.015 1619.87C418.635 1619.44 418.078 1619.23 417.345 1619.23C416.708 1619.23 416.123 1619.4 415.589 1619.74C415.055 1620.07 414.603 1620.56 414.234 1621.19C413.865 1621.82 413.609 1622.57 413.467 1623.45C413.319 1624.35 413.322 1625.11 413.475 1625.76C413.635 1626.39 413.922 1626.88 414.336 1627.23C414.757 1627.57 415.288 1627.74 415.93 1627.74C416.385 1627.74 416.808 1627.66 417.2 1627.49C417.592 1627.31 417.936 1627.06 418.231 1626.73C418.532 1626.4 418.768 1626 418.939 1625.53H421.887C421.654 1626.45 421.24 1627.27 420.643 1627.99C420.052 1628.7 419.319 1629.26 418.444 1629.66C417.569 1630.06 416.583 1630.26 415.487 1630.26ZM423.662 1630L425.844 1616.91H428.929L426.748 1630H423.662ZM427.838 1615.03C427.344 1615.03 426.935 1614.87 426.611 1614.54C426.287 1614.21 426.145 1613.82 426.185 1613.36C426.225 1612.89 426.432 1612.5 426.807 1612.17C427.188 1611.84 427.623 1611.68 428.111 1611.68C428.605 1611.68 429.012 1611.84 429.33 1612.17C429.654 1612.5 429.796 1612.89 429.756 1613.36C429.722 1613.82 429.515 1614.21 429.134 1614.54C428.759 1614.87 428.327 1615.03 427.838 1615.03ZM438.741 1616.91L438.341 1619.3H430.602L431.002 1616.91H438.741ZM430.747 1630L433.142 1615.67C433.278 1614.79 433.576 1614.06 434.037 1613.47C434.502 1612.89 435.068 1612.45 435.733 1612.16C436.403 1611.87 437.116 1611.73 437.872 1611.73C438.412 1611.73 438.88 1611.77 439.278 1611.86C439.676 1611.94 439.966 1612.02 440.147 1612.09L439.15 1614.47C439.02 1614.43 438.86 1614.39 438.673 1614.35C438.491 1614.31 438.278 1614.28 438.034 1614.28C437.46 1614.28 437.031 1614.42 436.747 1614.7C436.463 1614.97 436.275 1615.37 436.184 1615.88L433.841 1630H430.747ZM438.99 1630L441.172 1616.91H444.257L442.076 1630H438.99ZM443.167 1615.03C442.672 1615.03 442.263 1614.87 441.939 1614.54C441.615 1614.21 441.473 1613.82 441.513 1613.36C441.553 1612.89 441.76 1612.5 442.135 1612.17C442.516 1611.84 442.951 1611.68 443.439 1611.68C443.934 1611.68 444.34 1611.84 444.658 1612.17C444.982 1612.5 445.124 1612.89 445.084 1613.36C445.05 1613.82 444.843 1614.21 444.462 1614.54C444.087 1614.87 443.655 1615.03 443.167 1615.03ZM450.924 1630.26C449.618 1630.26 448.544 1629.97 447.703 1629.39C446.862 1628.82 446.274 1628.03 445.939 1627.02C445.609 1626 445.555 1624.83 445.777 1623.51C445.993 1622.18 446.439 1621 447.115 1619.99C447.797 1618.96 448.654 1618.17 449.689 1617.6C450.723 1617.03 451.879 1616.74 453.157 1616.74C454.22 1616.74 455.126 1616.93 455.876 1617.33C456.632 1617.71 457.194 1618.26 457.564 1618.97C457.939 1619.68 458.083 1620.5 457.998 1621.44H455.041C455.029 1620.81 454.833 1620.29 454.453 1619.87C454.072 1619.44 453.515 1619.23 452.782 1619.23C452.146 1619.23 451.561 1619.4 451.027 1619.74C450.493 1620.07 450.041 1620.56 449.672 1621.19C449.302 1621.82 449.047 1622.57 448.904 1623.45C448.757 1624.35 448.76 1625.11 448.913 1625.76C449.072 1626.39 449.359 1626.88 449.774 1627.23C450.194 1627.57 450.725 1627.74 451.368 1627.74C451.822 1627.74 452.245 1627.66 452.637 1627.49C453.029 1627.31 453.373 1627.06 453.669 1626.73C453.97 1626.4 454.206 1626 454.376 1625.53H457.325C457.092 1626.45 456.677 1627.27 456.081 1627.99C455.49 1628.7 454.757 1629.26 453.882 1629.66C453.007 1630.06 452.021 1630.26 450.924 1630.26ZM482.201 1621.48C481.894 1623.33 481.289 1624.91 480.385 1626.22C479.488 1627.52 478.391 1628.51 477.096 1629.21C475.806 1629.89 474.417 1630.24 472.928 1630.24C471.365 1630.24 470.025 1629.88 468.905 1629.15C467.786 1628.41 466.979 1627.37 466.485 1626C465.996 1624.64 465.911 1623 466.229 1621.09C466.536 1619.25 467.138 1617.67 468.036 1616.36C468.934 1615.04 470.033 1614.04 471.334 1613.35C472.635 1612.65 474.039 1612.31 475.544 1612.31C477.096 1612.31 478.425 1612.67 479.533 1613.41C480.647 1614.13 481.448 1615.18 481.936 1616.55C482.431 1617.92 482.519 1619.56 482.201 1621.48ZM479.09 1621.09C479.3 1619.8 479.28 1618.72 479.03 1617.83C478.786 1616.94 478.351 1616.28 477.726 1615.83C477.101 1615.37 476.331 1615.14 475.417 1615.14C474.428 1615.14 473.513 1615.39 472.672 1615.89C471.837 1616.37 471.127 1617.09 470.542 1618.03C469.962 1618.98 469.564 1620.12 469.348 1621.48C469.121 1622.77 469.135 1623.86 469.391 1624.74C469.647 1625.62 470.09 1626.29 470.721 1626.74C471.351 1627.18 472.121 1627.4 473.03 1627.4C474.013 1627.4 474.922 1627.16 475.757 1626.67C476.593 1626.18 477.3 1625.47 477.88 1624.53C478.465 1623.59 478.868 1622.45 479.09 1621.09ZM489.315 1630.26C488.008 1630.26 486.934 1629.97 486.093 1629.39C485.252 1628.82 484.664 1628.03 484.329 1627.02C484 1626 483.946 1624.83 484.167 1623.51C484.383 1622.18 484.829 1621 485.505 1619.99C486.187 1618.96 487.045 1618.17 488.079 1617.6C489.113 1617.03 490.27 1616.74 491.548 1616.74C492.61 1616.74 493.517 1616.93 494.267 1617.33C495.022 1617.71 495.585 1618.26 495.954 1618.97C496.329 1619.68 496.474 1620.5 496.389 1621.44H493.431C493.42 1620.81 493.224 1620.29 492.843 1619.87C492.463 1619.44 491.906 1619.23 491.173 1619.23C490.537 1619.23 489.951 1619.4 489.417 1619.74C488.883 1620.07 488.431 1620.56 488.062 1621.19C487.693 1621.82 487.437 1622.57 487.295 1623.45C487.147 1624.35 487.15 1625.11 487.304 1625.76C487.463 1626.39 487.75 1626.88 488.164 1627.23C488.585 1627.57 489.116 1627.74 489.758 1627.74C490.213 1627.74 490.636 1627.66 491.028 1627.49C491.42 1627.31 491.764 1627.06 492.059 1626.73C492.36 1626.4 492.596 1626 492.767 1625.53H495.716C495.483 1626.45 495.068 1627.27 494.471 1627.99C493.88 1628.7 493.147 1629.26 492.272 1629.66C491.397 1630.06 490.412 1630.26 489.315 1630.26ZM503.252 1630.26C501.939 1630.26 500.854 1629.98 499.996 1629.44C499.138 1628.89 498.536 1628.11 498.189 1627.1C497.848 1626.09 497.792 1624.9 498.019 1623.53C498.24 1622.18 498.692 1621 499.374 1619.99C500.056 1618.96 500.908 1618.17 501.931 1617.6C502.959 1617.03 504.096 1616.74 505.34 1616.74C506.147 1616.74 506.888 1616.87 507.564 1617.13C508.24 1617.39 508.811 1617.78 509.277 1618.32C509.743 1618.86 510.064 1619.55 510.24 1620.39C510.417 1621.22 510.408 1622.2 510.215 1623.35L510.07 1624.3H499.331L499.664 1622.22H507.436C507.539 1621.63 507.505 1621.1 507.334 1620.64C507.164 1620.18 506.88 1619.81 506.482 1619.54C506.084 1619.28 505.587 1619.14 504.99 1619.14C504.382 1619.14 503.814 1619.3 503.286 1619.61C502.763 1619.92 502.323 1620.32 501.965 1620.8C501.607 1621.29 501.38 1621.81 501.283 1622.35L500.934 1624.34C500.809 1625.16 500.837 1625.83 501.019 1626.34C501.201 1626.86 501.519 1627.24 501.973 1627.49C502.428 1627.73 503.002 1627.85 503.695 1627.85C504.15 1627.85 504.57 1627.79 504.956 1627.66C505.343 1627.54 505.686 1627.35 505.988 1627.1C506.294 1626.85 506.55 1626.53 506.755 1626.16L509.576 1626.49C509.263 1627.25 508.806 1627.91 508.203 1628.48C507.601 1629.05 506.88 1629.48 506.039 1629.8C505.203 1630.1 504.275 1630.26 503.252 1630.26ZM515.473 1630.26C514.644 1630.26 513.922 1630.12 513.309 1629.82C512.695 1629.52 512.243 1629.08 511.953 1628.49C511.669 1627.91 511.598 1627.18 511.74 1626.33C511.865 1625.59 512.104 1624.98 512.456 1624.49C512.814 1624.01 513.252 1623.62 513.769 1623.34C514.292 1623.04 514.86 1622.82 515.473 1622.67C516.093 1622.52 516.723 1622.41 517.365 1622.35C518.15 1622.27 518.783 1622.19 519.266 1622.12C519.755 1622.06 520.121 1621.95 520.365 1621.82C520.61 1621.68 520.757 1621.46 520.809 1621.17V1621.12C520.911 1620.48 520.809 1619.98 520.502 1619.63C520.195 1619.28 519.684 1619.1 518.968 1619.1C518.218 1619.1 517.587 1619.26 517.076 1619.59C516.564 1619.92 516.192 1620.31 515.959 1620.76L513.164 1620.35C513.516 1619.56 513.999 1618.89 514.613 1618.36C515.226 1617.82 515.934 1617.41 516.735 1617.15C517.542 1616.88 518.402 1616.74 519.317 1616.74C519.942 1616.74 520.553 1616.81 521.15 1616.96C521.752 1617.11 522.283 1617.35 522.743 1617.69C523.209 1618.03 523.55 1618.49 523.766 1619.07C523.988 1619.64 524.025 1620.37 523.877 1621.24L522.419 1630H519.453L519.76 1628.2H519.658C519.414 1628.57 519.096 1628.91 518.703 1629.22C518.311 1629.54 517.846 1629.79 517.306 1629.98C516.766 1630.17 516.155 1630.26 515.473 1630.26ZM516.641 1628C517.26 1628 517.817 1627.87 518.311 1627.63C518.806 1627.38 519.212 1627.05 519.53 1626.64C519.848 1626.23 520.047 1625.79 520.127 1625.3L520.382 1623.76C520.269 1623.84 520.093 1623.91 519.854 1623.98C519.615 1624.05 519.348 1624.11 519.053 1624.16C518.763 1624.21 518.476 1624.26 518.192 1624.3C517.908 1624.34 517.664 1624.37 517.459 1624.4C516.988 1624.46 516.556 1624.57 516.164 1624.71C515.777 1624.85 515.456 1625.05 515.201 1625.3C514.951 1625.55 514.794 1625.88 514.732 1626.28C514.641 1626.84 514.775 1627.27 515.132 1627.56C515.49 1627.85 515.993 1628 516.641 1628ZM529.885 1622.33L528.624 1630H525.53L527.712 1616.91H530.669L530.294 1619.13H530.456C530.865 1618.4 531.439 1617.82 532.178 1617.39C532.917 1616.95 533.777 1616.74 534.76 1616.74C535.652 1616.74 536.402 1616.93 537.01 1617.32C537.618 1617.7 538.05 1618.26 538.306 1619C538.561 1619.73 538.601 1620.62 538.425 1621.66L537.027 1630H533.942L535.246 1622.14C535.394 1621.27 535.283 1620.59 534.914 1620.1C534.55 1619.6 533.965 1619.35 533.158 1619.35C532.618 1619.35 532.121 1619.47 531.667 1619.7C531.212 1619.94 530.828 1620.28 530.516 1620.72C530.209 1621.16 529.999 1621.7 529.885 1622.33Z" fill="#017D83"/>
<path d="M700.207 2668.77V2666.82H713.844V2668.77H708.126V2685H705.925V2668.77H700.207ZM716.958 2685V2671.36H719.053V2685H716.958ZM718.023 2669.09C717.615 2669.09 717.262 2668.95 716.967 2668.67C716.677 2668.4 716.532 2668.06 716.532 2667.67C716.532 2667.28 716.677 2666.95 716.967 2666.67C717.262 2666.39 717.615 2666.25 718.023 2666.25C718.431 2666.25 718.781 2666.39 719.071 2666.67C719.367 2666.95 719.514 2667.28 719.514 2667.67C719.514 2668.06 719.367 2668.4 719.071 2668.67C718.781 2668.95 718.431 2669.09 718.023 2669.09ZM724.985 2676.8V2685H722.89V2671.36H724.914V2673.49H725.092C725.412 2672.8 725.897 2672.25 726.548 2671.83C727.199 2671.4 728.039 2671.19 729.069 2671.19C729.993 2671.19 730.8 2671.38 731.493 2671.75C732.185 2672.13 732.724 2672.7 733.109 2673.46C733.493 2674.22 733.686 2675.18 733.686 2676.34V2685H731.591V2676.48C731.591 2675.41 731.312 2674.57 730.756 2673.97C730.2 2673.37 729.436 2673.07 728.466 2673.07C727.797 2673.07 727.199 2673.21 726.672 2673.5C726.151 2673.79 725.74 2674.22 725.438 2674.77C725.136 2675.33 724.985 2676 724.985 2676.8ZM737.514 2685V2671.36H739.609V2685H737.514ZM738.58 2669.09C738.171 2669.09 737.819 2668.95 737.523 2668.67C737.233 2668.4 737.088 2668.06 737.088 2667.67C737.088 2667.28 737.233 2666.95 737.523 2666.67C737.819 2666.39 738.171 2666.25 738.58 2666.25C738.988 2666.25 739.337 2666.39 739.627 2666.67C739.923 2666.95 740.071 2667.28 740.071 2667.67C740.071 2668.06 739.923 2668.4 739.627 2668.67C739.337 2668.95 738.988 2669.09 738.58 2669.09ZM747.46 2685.32C746.596 2685.32 745.811 2685.16 745.107 2684.83C744.403 2684.5 743.843 2684.02 743.429 2683.4C743.015 2682.77 742.808 2682.02 742.808 2681.13C742.808 2680.35 742.962 2679.71 743.269 2679.23C743.577 2678.74 743.988 2678.35 744.503 2678.08C745.018 2677.8 745.586 2677.59 746.208 2677.45C746.835 2677.31 747.466 2677.2 748.099 2677.12C748.927 2677.01 749.599 2676.93 750.114 2676.88C750.635 2676.82 751.014 2676.72 751.251 2676.58C751.493 2676.45 751.615 2676.21 751.615 2675.87V2675.8C751.615 2674.93 751.375 2674.25 750.895 2673.76C750.422 2673.28 749.703 2673.03 748.738 2673.03C747.738 2673.03 746.954 2673.25 746.385 2673.69C745.817 2674.13 745.418 2674.6 745.187 2675.09L743.198 2674.38C743.553 2673.55 744.027 2672.91 744.619 2672.45C745.217 2671.98 745.868 2671.65 746.572 2671.47C747.282 2671.28 747.981 2671.19 748.667 2671.19C749.105 2671.19 749.608 2671.24 750.176 2671.35C750.75 2671.45 751.304 2671.66 751.836 2671.98C752.375 2672.3 752.822 2672.78 753.177 2673.42C753.532 2674.07 753.71 2674.93 753.71 2676.02V2685H751.615V2683.15H751.508C751.366 2683.45 751.129 2683.77 750.798 2684.1C750.466 2684.44 750.025 2684.73 749.475 2684.96C748.925 2685.2 748.253 2685.32 747.46 2685.32ZM747.779 2683.44C748.608 2683.44 749.306 2683.27 749.874 2682.95C750.449 2682.62 750.881 2682.2 751.171 2681.69C751.467 2681.17 751.615 2680.63 751.615 2680.06V2678.15C751.526 2678.25 751.33 2678.35 751.029 2678.44C750.733 2678.52 750.389 2678.6 749.999 2678.66C749.614 2678.72 749.238 2678.77 748.871 2678.82C748.51 2678.86 748.217 2678.9 747.992 2678.93C747.448 2679 746.939 2679.11 746.465 2679.27C745.998 2679.43 745.619 2679.66 745.329 2679.98C745.045 2680.28 744.903 2680.7 744.903 2681.24C744.903 2681.96 745.172 2682.51 745.711 2682.89C746.255 2683.25 746.945 2683.44 747.779 2683.44ZM759.629 2676.8V2685H757.534V2671.36H759.558V2673.49H759.736C760.055 2672.8 760.54 2672.25 761.191 2671.83C761.843 2671.4 762.683 2671.19 763.713 2671.19C764.636 2671.19 765.444 2671.38 766.136 2671.75C766.829 2672.13 767.368 2672.7 767.752 2673.46C768.137 2674.22 768.329 2675.18 768.329 2676.34V2685H766.234V2676.48C766.234 2675.41 765.956 2674.57 765.4 2673.97C764.843 2673.37 764.08 2673.07 763.109 2673.07C762.44 2673.07 761.843 2673.21 761.316 2673.5C760.795 2673.79 760.384 2674.22 760.082 2674.77C759.78 2675.33 759.629 2676 759.629 2676.8Z" fill="black"/>
<path d="M533.202 3024V3005.82H539.345C540.766 3005.82 541.932 3006.06 542.843 3006.55C543.754 3007.03 544.429 3007.69 544.867 3008.53C545.305 3009.37 545.524 3010.32 545.524 3011.39C545.524 3012.46 545.305 3013.41 544.867 3014.24C544.429 3015.07 543.757 3015.72 542.852 3016.2C541.946 3016.66 540.789 3016.9 539.381 3016.9H534.409V3014.91H539.31C540.28 3014.91 541.062 3014.77 541.653 3014.48C542.251 3014.2 542.683 3013.8 542.95 3013.28C543.222 3012.75 543.358 3012.12 543.358 3011.39C543.358 3010.67 543.222 3010.03 542.95 3009.48C542.677 3008.94 542.242 3008.52 541.645 3008.22C541.047 3007.92 540.257 3007.77 539.274 3007.77H535.403V3024H533.202ZM541.76 3015.83L546.234 3024H543.678L539.274 3015.83H541.76ZM554.302 3024.28C553.071 3024.28 551.991 3023.99 551.062 3023.41C550.138 3022.82 549.416 3022 548.896 3020.95C548.381 3019.89 548.123 3018.66 548.123 3017.25C548.123 3015.83 548.381 3014.59 548.896 3013.53C549.416 3012.47 550.138 3011.65 551.062 3011.06C551.991 3010.48 553.071 3010.19 554.302 3010.19C555.533 3010.19 556.61 3010.48 557.534 3011.06C558.463 3011.65 559.185 3012.47 559.7 3013.53C560.221 3014.59 560.481 3015.83 560.481 3017.25C560.481 3018.66 560.221 3019.89 559.7 3020.95C559.185 3022 558.463 3022.82 557.534 3023.41C556.61 3023.99 555.533 3024.28 554.302 3024.28ZM554.302 3022.4C555.237 3022.4 556.007 3022.16 556.61 3021.68C557.214 3021.2 557.661 3020.57 557.951 3019.79C558.241 3019.01 558.386 3018.16 558.386 3017.25C558.386 3016.34 558.241 3015.49 557.951 3014.7C557.661 3013.92 557.214 3013.28 556.61 3012.8C556.007 3012.31 555.237 3012.07 554.302 3012.07C553.367 3012.07 552.598 3012.31 551.994 3012.8C551.39 3013.28 550.943 3013.92 550.653 3014.7C550.363 3015.49 550.218 3016.34 550.218 3017.25C550.218 3018.16 550.363 3019.01 550.653 3019.79C550.943 3020.57 551.39 3021.2 551.994 3021.68C552.598 3022.16 553.367 3022.4 554.302 3022.4ZM569.61 3010.36V3012.14H562.543V3010.36H569.61ZM564.603 3007.1H566.698V3020.09C566.698 3020.69 566.784 3021.13 566.955 3021.43C567.133 3021.72 567.358 3021.91 567.63 3022.01C567.908 3022.11 568.201 3022.15 568.509 3022.15C568.74 3022.15 568.929 3022.14 569.077 3022.12C569.225 3022.09 569.343 3022.06 569.432 3022.05L569.858 3023.93C569.716 3023.98 569.518 3024.04 569.263 3024.09C569.009 3024.15 568.686 3024.18 568.296 3024.18C567.704 3024.18 567.124 3024.05 566.556 3023.8C565.993 3023.54 565.526 3023.15 565.153 3022.63C564.786 3022.11 564.603 3021.46 564.603 3020.66V3007.1ZM576.774 3024.32C575.91 3024.32 575.126 3024.16 574.422 3023.83C573.717 3023.5 573.158 3023.02 572.744 3022.4C572.329 3021.77 572.122 3021.02 572.122 3020.13C572.122 3019.35 572.276 3018.71 572.584 3018.23C572.892 3017.74 573.303 3017.35 573.818 3017.08C574.333 3016.8 574.901 3016.59 575.522 3016.45C576.15 3016.31 576.78 3016.2 577.413 3016.12C578.242 3016.01 578.914 3015.93 579.429 3015.88C579.949 3015.82 580.328 3015.72 580.565 3015.58C580.808 3015.45 580.929 3015.21 580.929 3014.87V3014.8C580.929 3013.93 580.689 3013.25 580.21 3012.76C579.736 3012.28 579.017 3012.03 578.053 3012.03C577.052 3012.03 576.268 3012.25 575.7 3012.69C575.132 3013.13 574.732 3013.6 574.501 3014.09L572.513 3013.38C572.868 3012.55 573.341 3011.91 573.933 3011.45C574.531 3010.98 575.182 3010.65 575.886 3010.47C576.597 3010.28 577.295 3010.19 577.982 3010.19C578.42 3010.19 578.923 3010.24 579.491 3010.35C580.065 3010.45 580.618 3010.66 581.151 3010.98C581.69 3011.3 582.136 3011.78 582.491 3012.42C582.847 3013.07 583.024 3013.93 583.024 3015.02V3024H580.929V3022.15H580.822C580.68 3022.45 580.444 3022.77 580.112 3023.1C579.781 3023.44 579.34 3023.73 578.789 3023.96C578.239 3024.2 577.567 3024.32 576.774 3024.32ZM577.094 3022.44C577.922 3022.44 578.621 3022.27 579.189 3021.95C579.763 3021.62 580.195 3021.2 580.485 3020.69C580.781 3020.17 580.929 3019.63 580.929 3019.06V3017.15C580.84 3017.25 580.645 3017.35 580.343 3017.44C580.047 3017.52 579.704 3017.6 579.313 3017.66C578.929 3017.72 578.553 3017.77 578.186 3017.82C577.825 3017.86 577.532 3017.9 577.307 3017.93C576.762 3018 576.253 3018.11 575.78 3018.27C575.312 3018.43 574.933 3018.66 574.643 3018.98C574.359 3019.28 574.217 3019.7 574.217 3020.24C574.217 3020.96 574.487 3021.51 575.025 3021.89C575.57 3022.25 576.259 3022.44 577.094 3022.44Z" fill="black"/>
<path d="M842.145 1895.36C842.038 1894.46 841.606 1893.77 840.849 1893.27C840.091 1892.77 839.162 1892.52 838.061 1892.52C837.256 1892.52 836.552 1892.65 835.948 1892.91C835.35 1893.17 834.883 1893.53 834.545 1893.99C834.214 1894.44 834.048 1894.96 834.048 1895.54C834.048 1896.03 834.164 1896.44 834.395 1896.79C834.631 1897.14 834.933 1897.42 835.3 1897.65C835.667 1897.88 836.052 1898.07 836.454 1898.21C836.857 1898.36 837.227 1898.47 837.564 1898.56L839.411 1899.06C839.884 1899.18 840.411 1899.35 840.991 1899.57C841.577 1899.79 842.136 1900.09 842.669 1900.47C843.207 1900.84 843.651 1901.32 844 1901.91C844.35 1902.49 844.524 1903.21 844.524 1904.06C844.524 1905.05 844.267 1905.93 843.752 1906.73C843.243 1907.52 842.497 1908.15 841.515 1908.62C840.538 1909.09 839.351 1909.32 837.955 1909.32C836.652 1909.32 835.525 1909.11 834.572 1908.69C833.625 1908.27 832.879 1907.68 832.335 1906.93C831.796 1906.18 831.491 1905.31 831.42 1904.31H833.693C833.752 1905 833.983 1905.57 834.386 1906.02C834.794 1906.46 835.309 1906.79 835.93 1907.01C836.558 1907.22 837.232 1907.33 837.955 1907.33C838.795 1907.33 839.55 1907.19 840.218 1906.92C840.887 1906.64 841.417 1906.26 841.808 1905.77C842.198 1905.27 842.393 1904.69 842.393 1904.03C842.393 1903.42 842.225 1902.93 841.887 1902.55C841.55 1902.18 841.106 1901.87 840.556 1901.63C840.005 1901.39 839.411 1901.19 838.771 1901.01L836.534 1900.37C835.114 1899.96 833.989 1899.38 833.161 1898.62C832.332 1897.86 831.918 1896.87 831.918 1895.65C831.918 1894.63 832.193 1893.74 832.743 1892.98C833.3 1892.22 834.045 1891.63 834.98 1891.21C835.922 1890.78 836.972 1890.57 838.132 1890.57C839.304 1890.57 840.346 1890.78 841.257 1891.2C842.169 1891.61 842.891 1892.18 843.423 1892.9C843.962 1893.63 844.246 1894.45 844.276 1895.36H842.145ZM851.873 1909.32C851.009 1909.32 850.224 1909.16 849.52 1908.83C848.816 1908.5 848.257 1908.02 847.842 1907.4C847.428 1906.77 847.221 1906.02 847.221 1905.13C847.221 1904.35 847.375 1903.71 847.682 1903.23C847.99 1902.74 848.402 1902.35 848.916 1902.08C849.431 1901.8 850 1901.59 850.621 1901.45C851.248 1901.31 851.879 1901.2 852.512 1901.12C853.341 1901.01 854.012 1900.93 854.527 1900.88C855.048 1900.82 855.427 1900.72 855.664 1900.58C855.906 1900.45 856.028 1900.21 856.028 1899.87V1899.8C856.028 1898.93 855.788 1898.25 855.309 1897.76C854.835 1897.28 854.116 1897.03 853.151 1897.03C852.151 1897.03 851.367 1897.25 850.799 1897.69C850.23 1898.13 849.831 1898.6 849.6 1899.09L847.611 1898.38C847.967 1897.55 848.44 1896.91 849.032 1896.45C849.63 1895.98 850.281 1895.65 850.985 1895.47C851.695 1895.28 852.394 1895.19 853.08 1895.19C853.518 1895.19 854.021 1895.24 854.589 1895.35C855.164 1895.45 855.717 1895.66 856.25 1895.98C856.788 1896.3 857.235 1896.78 857.59 1897.42C857.945 1898.07 858.123 1898.93 858.123 1900.02V1909H856.028V1907.15H855.921C855.779 1907.45 855.542 1907.77 855.211 1908.1C854.879 1908.44 854.438 1908.73 853.888 1908.96C853.338 1909.2 852.666 1909.32 851.873 1909.32ZM852.192 1907.44C853.021 1907.44 853.719 1907.27 854.288 1906.95C854.862 1906.62 855.294 1906.2 855.584 1905.69C855.88 1905.17 856.028 1904.63 856.028 1904.06V1902.15C855.939 1902.25 855.744 1902.35 855.442 1902.44C855.146 1902.52 854.802 1902.6 854.412 1902.66C854.027 1902.72 853.651 1902.77 853.284 1902.82C852.923 1902.86 852.63 1902.9 852.405 1902.93C851.861 1903 851.352 1903.11 850.878 1903.27C850.411 1903.43 850.032 1903.66 849.742 1903.98C849.458 1904.28 849.316 1904.7 849.316 1905.24C849.316 1905.96 849.585 1906.51 850.124 1906.89C850.668 1907.25 851.358 1907.44 852.192 1907.44ZM861.947 1909V1895.36H863.971V1897.42H864.113C864.362 1896.75 864.811 1896.2 865.463 1895.78C866.114 1895.36 866.847 1895.15 867.664 1895.15C867.818 1895.15 868.01 1895.15 868.241 1895.16C868.472 1895.17 868.647 1895.17 868.765 1895.19V1897.32C868.694 1897.3 868.531 1897.27 868.277 1897.24C868.028 1897.2 867.765 1897.17 867.487 1897.17C866.824 1897.17 866.232 1897.31 865.711 1897.59C865.196 1897.86 864.788 1898.24 864.486 1898.73C864.19 1899.21 864.042 1899.76 864.042 1900.37V1909H861.947ZM871.249 1909V1895.36H873.344V1909H871.249ZM872.314 1893.09C871.906 1893.09 871.553 1892.95 871.258 1892.67C870.968 1892.4 870.823 1892.06 870.823 1891.67C870.823 1891.28 870.968 1890.95 871.258 1890.67C871.553 1890.39 871.906 1890.25 872.314 1890.25C872.722 1890.25 873.072 1890.39 873.362 1890.67C873.658 1890.95 873.805 1891.28 873.805 1891.67C873.805 1892.06 873.658 1892.4 873.362 1892.67C873.072 1892.95 872.722 1893.09 872.314 1893.09ZM882.686 1914.4C881.673 1914.4 880.803 1914.27 880.075 1914.01C879.347 1913.75 878.741 1913.42 878.256 1913C877.776 1912.58 877.394 1912.14 877.11 1911.66L878.779 1910.49C878.969 1910.74 879.208 1911.02 879.498 1911.34C879.788 1911.67 880.185 1911.95 880.688 1912.19C881.197 1912.43 881.863 1912.55 882.686 1912.55C883.786 1912.55 884.695 1912.28 885.411 1911.75C886.127 1911.22 886.485 1910.38 886.485 1909.25V1906.48H886.308C886.154 1906.73 885.935 1907.04 885.651 1907.4C885.373 1907.76 884.97 1908.09 884.443 1908.37C883.923 1908.65 883.218 1908.79 882.33 1908.79C881.23 1908.79 880.241 1908.53 879.365 1908.01C878.495 1907.48 877.806 1906.73 877.297 1905.73C876.794 1904.74 876.542 1903.53 876.542 1902.11C876.542 1900.71 876.788 1899.5 877.279 1898.46C877.77 1897.42 878.454 1896.62 879.33 1896.05C880.206 1895.47 881.218 1895.19 882.366 1895.19C883.254 1895.19 883.958 1895.33 884.479 1895.63C885.006 1895.92 885.408 1896.25 885.686 1896.62C885.97 1896.99 886.189 1897.29 886.343 1897.53H886.556V1895.36H888.58V1909.39C888.58 1910.56 888.314 1911.52 887.781 1912.25C887.255 1912.99 886.544 1913.53 885.651 1913.87C884.763 1914.22 883.775 1914.4 882.686 1914.4ZM882.615 1906.9C883.455 1906.9 884.165 1906.71 884.745 1906.33C885.325 1905.94 885.766 1905.39 886.068 1904.67C886.37 1903.95 886.521 1903.08 886.521 1902.08C886.521 1901.09 886.373 1900.23 886.077 1899.47C885.781 1898.72 885.343 1898.13 884.763 1897.71C884.183 1897.28 883.467 1897.07 882.615 1897.07C881.727 1897.07 880.987 1897.29 880.395 1897.74C879.809 1898.19 879.368 1898.8 879.072 1899.55C878.782 1900.31 878.637 1901.15 878.637 1902.08C878.637 1903.02 878.785 1903.86 879.081 1904.59C879.383 1905.31 879.827 1905.88 880.413 1906.29C881.005 1906.7 881.739 1906.9 882.615 1906.9ZM896.428 1909.32C895.564 1909.32 894.78 1909.16 894.076 1908.83C893.372 1908.5 892.812 1908.02 892.398 1907.4C891.984 1906.77 891.776 1906.02 891.776 1905.13C891.776 1904.35 891.93 1903.71 892.238 1903.23C892.546 1902.74 892.957 1902.35 893.472 1902.08C893.987 1901.8 894.555 1901.59 895.177 1901.45C895.804 1901.31 896.434 1901.2 897.068 1901.12C897.896 1901.01 898.568 1900.93 899.083 1900.88C899.604 1900.82 899.983 1900.72 900.219 1900.58C900.462 1900.45 900.583 1900.21 900.583 1899.87V1899.8C900.583 1898.93 900.344 1898.25 899.864 1897.76C899.391 1897.28 898.672 1897.03 897.707 1897.03C896.707 1897.03 895.922 1897.25 895.354 1897.69C894.786 1898.13 894.387 1898.6 894.156 1899.09L892.167 1898.38C892.522 1897.55 892.996 1896.91 893.588 1896.45C894.185 1895.98 894.836 1895.65 895.541 1895.47C896.251 1895.28 896.949 1895.19 897.636 1895.19C898.074 1895.19 898.577 1895.24 899.145 1895.35C899.719 1895.45 900.273 1895.66 900.805 1895.98C901.344 1896.3 901.791 1896.78 902.146 1897.42C902.501 1898.07 902.678 1898.93 902.678 1900.02V1909H900.583V1907.15H900.477C900.335 1907.45 900.098 1907.77 899.767 1908.1C899.435 1908.44 898.994 1908.73 898.444 1908.96C897.893 1909.2 897.222 1909.32 896.428 1909.32ZM896.748 1907.44C897.577 1907.44 898.275 1907.27 898.843 1906.95C899.417 1906.62 899.849 1906.2 900.139 1905.69C900.435 1905.17 900.583 1904.63 900.583 1904.06V1902.15C900.494 1902.25 900.299 1902.35 899.997 1902.44C899.701 1902.52 899.358 1902.6 898.968 1902.66C898.583 1902.72 898.207 1902.77 897.84 1902.82C897.479 1902.86 897.186 1902.9 896.961 1902.93C896.417 1903 895.908 1903.11 895.434 1903.27C894.967 1903.43 894.588 1903.66 894.298 1903.98C894.014 1904.28 893.872 1904.7 893.872 1905.24C893.872 1905.96 894.141 1906.51 894.68 1906.89C895.224 1907.25 895.914 1907.44 896.748 1907.44ZM908.598 1900.8V1909H906.503V1895.36H908.527V1897.49H908.704C909.024 1896.8 909.509 1896.25 910.16 1895.83C910.811 1895.4 911.652 1895.19 912.682 1895.19C913.605 1895.19 914.413 1895.38 915.105 1895.75C915.798 1896.13 916.336 1896.7 916.721 1897.46C917.106 1898.22 917.298 1899.18 917.298 1900.34V1909H915.203V1900.48C915.203 1899.41 914.925 1898.57 914.368 1897.97C913.812 1897.37 913.049 1897.07 912.078 1897.07C911.409 1897.07 910.811 1897.21 910.285 1897.5C909.764 1897.79 909.352 1898.22 909.051 1898.77C908.749 1899.33 908.598 1900 908.598 1900.8Z" fill="black"/>
<a href="https://en.wikipedia.org/wiki/Bayam%C3%B3n">
<rect fill="black" fill-opacity="0" y="-0.12784" width="15.9446" height="30.2557"/>
</a>
<path d="M730.947 2075H728.639L735.315 2056.82H737.588L744.264 2075H741.956L736.523 2059.69H736.381L730.947 2075ZM731.8 2067.9H741.104V2069.85H731.8V2067.9ZM748.907 2066.8V2075H746.812V2061.36H748.836V2063.49H749.014C749.333 2062.8 749.819 2062.25 750.47 2061.83C751.121 2061.4 751.961 2061.19 752.991 2061.19C753.914 2061.19 754.722 2061.38 755.415 2061.75C756.107 2062.13 756.646 2062.7 757.031 2063.46C757.415 2064.22 757.608 2065.18 757.608 2066.34V2075H755.512V2066.48C755.512 2065.41 755.234 2064.57 754.678 2063.97C754.122 2063.37 753.358 2063.07 752.387 2063.07C751.719 2063.07 751.121 2063.21 750.594 2063.5C750.073 2063.79 749.662 2064.22 749.36 2064.77C749.058 2065.33 748.907 2066 748.907 2066.8ZM765.449 2075.32C764.585 2075.32 763.801 2075.16 763.096 2074.83C762.392 2074.5 761.833 2074.02 761.418 2073.4C761.004 2072.77 760.797 2072.02 760.797 2071.13C760.797 2070.35 760.951 2069.71 761.259 2069.23C761.566 2068.74 761.978 2068.35 762.493 2068.08C763.008 2067.8 763.576 2067.59 764.197 2067.45C764.825 2067.31 765.455 2067.2 766.088 2067.12C766.917 2067.01 767.589 2066.93 768.103 2066.88C768.624 2066.82 769.003 2066.72 769.24 2066.58C769.482 2066.45 769.604 2066.21 769.604 2065.87V2065.8C769.604 2064.93 769.364 2064.25 768.885 2063.76C768.411 2063.28 767.692 2063.03 766.727 2063.03C765.727 2063.03 764.943 2063.25 764.375 2063.69C763.807 2064.13 763.407 2064.6 763.176 2065.09L761.188 2064.38C761.543 2063.55 762.016 2062.91 762.608 2062.45C763.206 2061.98 763.857 2061.65 764.561 2061.47C765.271 2061.28 765.97 2061.19 766.656 2061.19C767.094 2061.19 767.597 2061.24 768.166 2061.35C768.74 2061.45 769.293 2061.66 769.826 2061.98C770.364 2062.3 770.811 2062.78 771.166 2063.42C771.521 2064.07 771.699 2064.93 771.699 2066.02V2075H769.604V2073.15H769.497C769.355 2073.45 769.118 2073.77 768.787 2074.1C768.456 2074.44 768.015 2074.73 767.464 2074.96C766.914 2075.2 766.242 2075.32 765.449 2075.32ZM765.769 2073.44C766.597 2073.44 767.296 2073.27 767.864 2072.95C768.438 2072.62 768.87 2072.2 769.16 2071.69C769.456 2071.17 769.604 2070.63 769.604 2070.06V2068.15C769.515 2068.25 769.32 2068.35 769.018 2068.44C768.722 2068.52 768.379 2068.6 767.988 2068.66C767.603 2068.72 767.227 2068.77 766.861 2068.82C766.499 2068.86 766.207 2068.9 765.982 2068.93C765.437 2069 764.928 2069.11 764.455 2069.27C763.987 2069.43 763.608 2069.66 763.318 2069.98C763.034 2070.28 762.892 2070.7 762.892 2071.24C762.892 2071.96 763.161 2072.51 763.7 2072.89C764.245 2073.25 764.934 2073.44 765.769 2073.44ZM781.453 2061.36V2063.14H774.387V2061.36H781.453ZM776.446 2058.1H778.542V2071.09C778.542 2071.69 778.627 2072.13 778.799 2072.43C778.977 2072.72 779.201 2072.91 779.474 2073.01C779.752 2073.11 780.045 2073.15 780.353 2073.15C780.583 2073.15 780.773 2073.14 780.921 2073.12C781.069 2073.09 781.187 2073.06 781.276 2073.05L781.702 2074.93C781.56 2074.98 781.362 2075.04 781.107 2075.09C780.853 2075.15 780.53 2075.18 780.14 2075.18C779.548 2075.18 778.968 2075.05 778.4 2074.8C777.837 2074.54 777.37 2074.15 776.997 2073.63C776.63 2073.11 776.446 2072.46 776.446 2071.66V2058.1ZM788.618 2075.32C787.754 2075.32 786.97 2075.16 786.265 2074.83C785.561 2074.5 785.002 2074.02 784.587 2073.4C784.173 2072.77 783.966 2072.02 783.966 2071.13C783.966 2070.35 784.12 2069.71 784.428 2069.23C784.735 2068.74 785.147 2068.35 785.662 2068.08C786.176 2067.8 786.745 2067.59 787.366 2067.45C787.993 2067.31 788.624 2067.2 789.257 2067.12C790.086 2067.01 790.757 2066.93 791.272 2066.88C791.793 2066.82 792.172 2066.72 792.409 2066.58C792.651 2066.45 792.773 2066.21 792.773 2065.87V2065.8C792.773 2064.93 792.533 2064.25 792.054 2063.76C791.58 2063.28 790.861 2063.03 789.896 2063.03C788.896 2063.03 788.112 2063.25 787.544 2063.69C786.975 2064.13 786.576 2064.6 786.345 2065.09L784.357 2064.38C784.712 2063.55 785.185 2062.91 785.777 2062.45C786.375 2061.98 787.026 2061.65 787.73 2061.47C788.44 2061.28 789.139 2061.19 789.825 2061.19C790.263 2061.19 790.766 2061.24 791.335 2061.35C791.909 2061.45 792.462 2061.66 792.995 2061.98C793.533 2062.3 793.98 2062.78 794.335 2063.42C794.69 2064.07 794.868 2064.93 794.868 2066.02V2075H792.773V2073.15H792.666C792.524 2073.45 792.287 2073.77 791.956 2074.1C791.625 2074.44 791.184 2074.73 790.633 2074.96C790.083 2075.2 789.411 2075.32 788.618 2075.32ZM788.938 2073.44C789.766 2073.44 790.464 2073.27 791.033 2072.95C791.607 2072.62 792.039 2072.2 792.329 2071.69C792.625 2071.17 792.773 2070.63 792.773 2070.06V2068.15C792.684 2068.25 792.489 2068.35 792.187 2068.44C791.891 2068.52 791.548 2068.6 791.157 2068.66C790.772 2068.72 790.396 2068.77 790.029 2068.82C789.668 2068.86 789.375 2068.9 789.151 2068.93C788.606 2069 788.097 2069.11 787.624 2069.27C787.156 2069.43 786.777 2069.66 786.487 2069.98C786.203 2070.28 786.061 2070.7 786.061 2071.24C786.061 2071.96 786.33 2072.51 786.869 2072.89C787.413 2073.25 788.103 2073.44 788.938 2073.44ZM800.787 2066.8V2075H798.692V2056.82H800.787V2063.49H800.965C801.284 2062.79 801.764 2062.23 802.403 2061.82C803.048 2061.4 803.906 2061.19 804.978 2061.19C805.907 2061.19 806.721 2061.37 807.419 2061.75C808.117 2062.11 808.659 2062.68 809.044 2063.44C809.434 2064.2 809.63 2065.16 809.63 2066.34V2075H807.534V2066.48C807.534 2065.39 807.253 2064.56 806.691 2063.96C806.135 2063.37 805.362 2063.07 804.374 2063.07C803.687 2063.07 803.072 2063.21 802.527 2063.5C801.989 2063.79 801.563 2064.22 801.249 2064.77C800.941 2065.33 800.787 2066 800.787 2066.8ZM817.475 2075.32C816.611 2075.32 815.827 2075.16 815.123 2074.83C814.418 2074.5 813.859 2074.02 813.445 2073.4C813.03 2072.77 812.823 2072.02 812.823 2071.13C812.823 2070.35 812.977 2069.71 813.285 2069.23C813.593 2068.74 814.004 2068.35 814.519 2068.08C815.034 2067.8 815.602 2067.59 816.224 2067.45C816.851 2067.31 817.481 2067.2 818.115 2067.12C818.943 2067.01 819.615 2066.93 820.13 2066.88C820.651 2066.82 821.029 2066.72 821.266 2066.58C821.509 2066.45 821.63 2066.21 821.63 2065.87V2065.8C821.63 2064.93 821.39 2064.25 820.911 2063.76C820.438 2063.28 819.718 2063.03 818.754 2063.03C817.753 2063.03 816.969 2063.25 816.401 2063.69C815.833 2064.13 815.433 2064.6 815.203 2065.09L813.214 2064.38C813.569 2063.55 814.043 2062.91 814.634 2062.45C815.232 2061.98 815.883 2061.65 816.588 2061.47C817.298 2061.28 817.996 2061.19 818.683 2061.19C819.121 2061.19 819.624 2061.24 820.192 2061.35C820.766 2061.45 821.319 2061.66 821.852 2061.98C822.391 2062.3 822.838 2062.78 823.193 2063.42C823.548 2064.07 823.725 2064.93 823.725 2066.02V2075H821.63V2073.15H821.524C821.382 2073.45 821.145 2073.77 820.813 2074.1C820.482 2074.44 820.041 2074.73 819.491 2074.96C818.94 2075.2 818.268 2075.32 817.475 2075.32ZM817.795 2073.44C818.624 2073.44 819.322 2073.27 819.89 2072.95C820.464 2072.62 820.896 2072.2 821.186 2071.69C821.482 2071.17 821.63 2070.63 821.63 2070.06V2068.15C821.541 2068.25 821.346 2068.35 821.044 2068.44C820.748 2068.52 820.405 2068.6 820.014 2068.66C819.63 2068.72 819.254 2068.77 818.887 2068.82C818.526 2068.86 818.233 2068.9 818.008 2068.93C817.463 2069 816.954 2069.11 816.481 2069.27C816.013 2069.43 815.635 2069.66 815.345 2069.98C815.061 2070.28 814.919 2070.7 814.919 2071.24C814.919 2071.96 815.188 2072.51 815.726 2072.89C816.271 2073.25 816.96 2073.44 817.795 2073.44ZM829.645 2066.8V2075H827.549V2061.36H829.574V2063.49H829.751C830.071 2062.8 830.556 2062.25 831.207 2061.83C831.858 2061.4 832.699 2061.19 833.728 2061.19C834.652 2061.19 835.46 2061.38 836.152 2061.75C836.845 2062.13 837.383 2062.7 837.768 2063.46C838.153 2064.22 838.345 2065.18 838.345 2066.34V2075H836.25V2066.48C836.25 2065.41 835.972 2064.57 835.415 2063.97C834.859 2063.37 834.095 2063.07 833.125 2063.07C832.456 2063.07 831.858 2063.21 831.331 2063.5C830.811 2063.79 830.399 2064.22 830.097 2064.77C829.796 2065.33 829.645 2066 829.645 2066.8Z" fill="black"/>
<path d="M867.947 1534H865.639L872.315 1515.82H874.588L881.264 1534H878.956L873.523 1518.69H873.381L867.947 1534ZM868.8 1526.9H878.104V1528.85H868.8V1526.9ZM885.907 1515.82V1534H883.812V1515.82H885.907ZM893.758 1534.32C892.893 1534.32 892.109 1534.16 891.405 1533.83C890.701 1533.5 890.141 1533.02 889.727 1532.4C889.313 1531.77 889.106 1531.02 889.106 1530.13C889.106 1529.35 889.259 1528.71 889.567 1528.23C889.875 1527.74 890.286 1527.35 890.801 1527.08C891.316 1526.8 891.884 1526.59 892.506 1526.45C893.133 1526.31 893.763 1526.2 894.397 1526.12C895.225 1526.01 895.897 1525.93 896.412 1525.88C896.933 1525.82 897.312 1525.72 897.548 1525.58C897.791 1525.45 897.912 1525.21 897.912 1524.87V1524.8C897.912 1523.93 897.673 1523.25 897.193 1522.76C896.72 1522.28 896.001 1522.03 895.036 1522.03C894.036 1522.03 893.252 1522.25 892.683 1522.69C892.115 1523.13 891.716 1523.6 891.485 1524.09L889.496 1523.38C889.851 1522.55 890.325 1521.91 890.917 1521.45C891.514 1520.98 892.165 1520.65 892.87 1520.47C893.58 1520.28 894.278 1520.19 894.965 1520.19C895.403 1520.19 895.906 1520.24 896.474 1520.35C897.048 1520.45 897.602 1520.66 898.134 1520.98C898.673 1521.3 899.12 1521.78 899.475 1522.42C899.83 1523.07 900.008 1523.93 900.008 1525.02V1534H897.912V1532.15H897.806C897.664 1532.45 897.427 1532.77 897.096 1533.1C896.764 1533.44 896.323 1533.73 895.773 1533.96C895.222 1534.2 894.551 1534.32 893.758 1534.32ZM894.077 1532.44C894.906 1532.44 895.604 1532.27 896.172 1531.95C896.746 1531.62 897.178 1531.2 897.468 1530.69C897.764 1530.17 897.912 1529.63 897.912 1529.06V1527.15C897.824 1527.25 897.628 1527.35 897.326 1527.44C897.031 1527.52 896.687 1527.6 896.297 1527.66C895.912 1527.72 895.536 1527.77 895.169 1527.82C894.808 1527.86 894.515 1527.9 894.29 1527.93C893.746 1528 893.237 1528.11 892.763 1528.27C892.296 1528.43 891.917 1528.66 891.627 1528.98C891.343 1529.28 891.201 1529.7 891.201 1530.24C891.201 1530.96 891.47 1531.51 892.009 1531.89C892.553 1532.25 893.243 1532.44 894.077 1532.44ZM903.832 1534V1520.36H905.856V1522.49H906.033C906.317 1521.77 906.776 1521.2 907.409 1520.8C908.043 1520.39 908.803 1520.19 909.691 1520.19C910.591 1520.19 911.339 1520.39 911.937 1520.8C912.541 1521.2 913.011 1521.77 913.349 1522.49H913.491C913.84 1521.79 914.364 1521.23 915.062 1520.82C915.761 1520.4 916.598 1520.19 917.575 1520.19C918.794 1520.19 919.791 1520.57 920.566 1521.33C921.342 1522.09 921.729 1523.27 921.729 1524.87V1534H919.634V1524.87C919.634 1523.87 919.359 1523.15 918.809 1522.72C918.258 1522.28 917.61 1522.07 916.864 1522.07C915.906 1522.07 915.163 1522.36 914.636 1522.94C914.109 1523.51 913.846 1524.24 913.846 1525.12V1534H911.715V1524.66C911.715 1523.89 911.464 1523.26 910.961 1522.79C910.458 1522.31 909.809 1522.07 909.016 1522.07C908.472 1522.07 907.963 1522.21 907.489 1522.5C907.022 1522.79 906.643 1523.2 906.353 1523.71C906.069 1524.22 905.927 1524.81 905.927 1525.48V1534H903.832ZM929.573 1534.32C928.709 1534.32 927.925 1534.16 927.22 1533.83C926.516 1533.5 925.957 1533.02 925.542 1532.4C925.128 1531.77 924.921 1531.02 924.921 1530.13C924.921 1529.35 925.075 1528.71 925.383 1528.23C925.69 1527.74 926.102 1527.35 926.617 1527.08C927.132 1526.8 927.7 1526.59 928.321 1526.45C928.949 1526.31 929.579 1526.2 930.212 1526.12C931.041 1526.01 931.713 1525.93 932.227 1525.88C932.748 1525.82 933.127 1525.72 933.364 1525.58C933.606 1525.45 933.728 1525.21 933.728 1524.87V1524.8C933.728 1523.93 933.488 1523.25 933.009 1522.76C932.535 1522.28 931.816 1522.03 930.851 1522.03C929.851 1522.03 929.067 1522.25 928.499 1522.69C927.931 1523.13 927.531 1523.6 927.3 1524.09L925.312 1523.38C925.667 1522.55 926.14 1521.91 926.732 1521.45C927.33 1520.98 927.981 1520.65 928.685 1520.47C929.395 1520.28 930.094 1520.19 930.78 1520.19C931.218 1520.19 931.721 1520.24 932.29 1520.35C932.864 1520.45 933.417 1520.66 933.95 1520.98C934.488 1521.3 934.935 1521.78 935.29 1522.42C935.645 1523.07 935.823 1523.93 935.823 1525.02V1534H933.728V1532.15H933.621C933.479 1532.45 933.242 1532.77 932.911 1533.1C932.58 1533.44 932.139 1533.73 931.588 1533.96C931.038 1534.2 930.366 1534.32 929.573 1534.32ZM929.893 1532.44C930.721 1532.44 931.42 1532.27 931.988 1531.95C932.562 1531.62 932.994 1531.2 933.284 1530.69C933.58 1530.17 933.728 1529.63 933.728 1529.06V1527.15C933.639 1527.25 933.444 1527.35 933.142 1527.44C932.846 1527.52 932.503 1527.6 932.112 1527.66C931.727 1527.72 931.352 1527.77 930.985 1527.82C930.624 1527.86 930.331 1527.9 930.106 1527.93C929.561 1528 929.052 1528.11 928.579 1528.27C928.111 1528.43 927.732 1528.66 927.442 1528.98C927.158 1529.28 927.016 1529.7 927.016 1530.24C927.016 1530.96 927.285 1531.51 927.824 1531.89C928.369 1532.25 929.058 1532.44 929.893 1532.44ZM941.742 1525.8V1534H939.647V1520.36H941.671V1522.49H941.849C942.168 1521.8 942.654 1521.25 943.305 1520.83C943.956 1520.4 944.796 1520.19 945.826 1520.19C946.749 1520.19 947.557 1520.38 948.25 1520.75C948.942 1521.13 949.481 1521.7 949.866 1522.46C950.25 1523.22 950.443 1524.18 950.443 1525.34V1534H948.347V1525.48C948.347 1524.41 948.069 1523.57 947.513 1522.97C946.957 1522.37 946.193 1522.07 945.222 1522.07C944.554 1522.07 943.956 1522.21 943.429 1522.5C942.908 1522.79 942.497 1523.22 942.195 1523.77C941.893 1524.33 941.742 1525 941.742 1525.8ZM959.775 1539.4C958.763 1539.4 957.893 1539.27 957.165 1539.01C956.437 1538.75 955.831 1538.42 955.345 1538C954.866 1537.58 954.484 1537.14 954.2 1536.66L955.869 1535.49C956.059 1535.74 956.298 1536.02 956.588 1536.34C956.878 1536.67 957.275 1536.95 957.778 1537.19C958.287 1537.43 958.953 1537.55 959.775 1537.55C960.876 1537.55 961.785 1537.28 962.501 1536.75C963.217 1536.22 963.575 1535.38 963.575 1534.25V1531.48H963.398C963.244 1531.73 963.025 1532.04 962.741 1532.4C962.462 1532.76 962.06 1533.09 961.533 1533.37C961.012 1533.65 960.308 1533.79 959.42 1533.79C958.319 1533.79 957.331 1533.53 956.455 1533.01C955.585 1532.48 954.896 1531.73 954.387 1530.73C953.883 1529.74 953.632 1528.53 953.632 1527.11C953.632 1525.71 953.878 1524.5 954.369 1523.46C954.86 1522.42 955.544 1521.62 956.42 1521.05C957.296 1520.47 958.308 1520.19 959.456 1520.19C960.344 1520.19 961.048 1520.33 961.569 1520.63C962.095 1520.92 962.498 1521.25 962.776 1521.62C963.06 1521.99 963.279 1522.29 963.433 1522.53H963.646V1520.36H965.67V1534.39C965.67 1535.56 965.404 1536.52 964.871 1537.25C964.345 1537.99 963.634 1538.53 962.741 1538.87C961.853 1539.22 960.864 1539.4 959.775 1539.4ZM959.704 1531.9C960.545 1531.9 961.255 1531.71 961.835 1531.33C962.415 1530.94 962.856 1530.39 963.158 1529.67C963.46 1528.95 963.611 1528.08 963.611 1527.08C963.611 1526.09 963.463 1525.23 963.167 1524.47C962.871 1523.72 962.433 1523.13 961.853 1522.71C961.273 1522.28 960.557 1522.07 959.704 1522.07C958.817 1522.07 958.077 1522.29 957.485 1522.74C956.899 1523.19 956.458 1523.8 956.162 1524.55C955.872 1525.31 955.727 1526.15 955.727 1527.08C955.727 1528.02 955.875 1528.86 956.171 1529.59C956.473 1530.31 956.917 1530.88 957.503 1531.29C958.095 1531.7 958.828 1531.9 959.704 1531.9ZM973.518 1534.32C972.654 1534.32 971.87 1534.16 971.166 1533.83C970.461 1533.5 969.902 1533.02 969.488 1532.4C969.073 1531.77 968.866 1531.02 968.866 1530.13C968.866 1529.35 969.02 1528.71 969.328 1528.23C969.636 1527.74 970.047 1527.35 970.562 1527.08C971.077 1526.8 971.645 1526.59 972.267 1526.45C972.894 1526.31 973.524 1526.2 974.157 1526.12C974.986 1526.01 975.658 1525.93 976.173 1525.88C976.694 1525.82 977.072 1525.72 977.309 1525.58C977.552 1525.45 977.673 1525.21 977.673 1524.87V1524.8C977.673 1523.93 977.433 1523.25 976.954 1522.76C976.481 1522.28 975.761 1522.03 974.797 1522.03C973.796 1522.03 973.012 1522.25 972.444 1522.69C971.876 1523.13 971.476 1523.6 971.246 1524.09L969.257 1523.38C969.612 1522.55 970.086 1521.91 970.677 1521.45C971.275 1520.98 971.926 1520.65 972.631 1520.47C973.341 1520.28 974.039 1520.19 974.726 1520.19C975.164 1520.19 975.667 1520.24 976.235 1520.35C976.809 1520.45 977.362 1520.66 977.895 1520.98C978.434 1521.3 978.881 1521.78 979.236 1522.42C979.591 1523.07 979.768 1523.93 979.768 1525.02V1534H977.673V1532.15H977.567C977.425 1532.45 977.188 1532.77 976.856 1533.1C976.525 1533.44 976.084 1533.73 975.534 1533.96C974.983 1534.2 974.311 1534.32 973.518 1534.32ZM973.838 1532.44C974.666 1532.44 975.365 1532.27 975.933 1531.95C976.507 1531.62 976.939 1531.2 977.229 1530.69C977.525 1530.17 977.673 1529.63 977.673 1529.06V1527.15C977.584 1527.25 977.389 1527.35 977.087 1527.44C976.791 1527.52 976.448 1527.6 976.057 1527.66C975.673 1527.72 975.297 1527.77 974.93 1527.82C974.569 1527.86 974.276 1527.9 974.051 1527.93C973.506 1528 972.997 1528.11 972.524 1528.27C972.056 1528.43 971.678 1528.66 971.388 1528.98C971.104 1529.28 970.961 1529.7 970.961 1530.24C970.961 1530.96 971.231 1531.51 971.769 1531.89C972.314 1532.25 973.003 1532.44 973.838 1532.44ZM985.688 1525.8V1534H983.592V1520.36H985.617V1522.49H985.794C986.114 1521.8 986.599 1521.25 987.25 1520.83C987.901 1520.4 988.742 1520.19 989.771 1520.19C990.695 1520.19 991.503 1520.38 992.195 1520.75C992.888 1521.13 993.426 1521.7 993.811 1522.46C994.196 1523.22 994.388 1524.18 994.388 1525.34V1534H992.293V1525.48C992.293 1524.41 992.015 1523.57 991.458 1522.97C990.902 1522.37 990.138 1522.07 989.168 1522.07C988.499 1522.07 987.901 1522.21 987.374 1522.5C986.854 1522.79 986.442 1523.22 986.14 1523.77C985.839 1524.33 985.688 1525 985.688 1525.8Z" fill="black"/>
<path d="M801.202 1335V1316.82H807.345C808.772 1316.82 809.938 1317.08 810.843 1317.59C811.754 1318.1 812.429 1318.79 812.867 1319.66C813.305 1320.53 813.524 1321.5 813.524 1322.57C813.524 1323.64 813.305 1324.62 812.867 1325.49C812.435 1326.37 811.766 1327.07 810.861 1327.59C809.955 1328.1 808.795 1328.36 807.381 1328.36H802.977V1326.41H807.31C808.286 1326.41 809.07 1326.24 809.662 1325.9C810.254 1325.56 810.683 1325.11 810.95 1324.53C811.222 1323.95 811.358 1323.3 811.358 1322.57C811.358 1321.84 811.222 1321.19 810.95 1320.62C810.683 1320.04 810.251 1319.59 809.653 1319.27C809.056 1318.94 808.263 1318.77 807.274 1318.77H803.403V1335H801.202ZM820.8 1335.32C819.935 1335.32 819.151 1335.16 818.447 1334.83C817.743 1334.5 817.183 1334.02 816.769 1333.4C816.355 1332.77 816.148 1332.02 816.148 1331.13C816.148 1330.35 816.301 1329.71 816.609 1329.23C816.917 1328.74 817.328 1328.35 817.843 1328.08C818.358 1327.8 818.926 1327.59 819.548 1327.45C820.175 1327.31 820.805 1327.2 821.439 1327.12C822.267 1327.01 822.939 1326.93 823.454 1326.88C823.975 1326.82 824.354 1326.72 824.59 1326.58C824.833 1326.45 824.954 1326.21 824.954 1325.87V1325.8C824.954 1324.93 824.715 1324.25 824.235 1323.76C823.762 1323.28 823.043 1323.03 822.078 1323.03C821.078 1323.03 820.294 1323.25 819.725 1323.69C819.157 1324.13 818.758 1324.6 818.527 1325.09L816.538 1324.38C816.893 1323.55 817.367 1322.91 817.959 1322.45C818.556 1321.98 819.207 1321.65 819.912 1321.47C820.622 1321.28 821.32 1321.19 822.007 1321.19C822.445 1321.19 822.948 1321.24 823.516 1321.35C824.09 1321.45 824.644 1321.66 825.176 1321.98C825.715 1322.3 826.162 1322.78 826.517 1323.42C826.872 1324.07 827.05 1324.93 827.05 1326.02V1335H824.954V1333.15H824.848C824.706 1333.45 824.469 1333.77 824.138 1334.1C823.806 1334.44 823.365 1334.73 822.815 1334.96C822.264 1335.2 821.593 1335.32 820.8 1335.32ZM821.119 1333.44C821.948 1333.44 822.646 1333.27 823.214 1332.95C823.788 1332.62 824.22 1332.2 824.51 1331.69C824.806 1331.17 824.954 1330.63 824.954 1330.06V1328.15C824.866 1328.25 824.67 1328.35 824.368 1328.44C824.073 1328.52 823.729 1328.6 823.339 1328.66C822.954 1328.72 822.578 1328.77 822.211 1328.82C821.85 1328.86 821.557 1328.9 821.332 1328.93C820.788 1329 820.279 1329.11 819.805 1329.27C819.338 1329.43 818.959 1329.66 818.669 1329.98C818.385 1330.28 818.243 1330.7 818.243 1331.24C818.243 1331.96 818.512 1332.51 819.051 1332.89C819.595 1333.25 820.285 1333.44 821.119 1333.44ZM836.378 1340.4C835.366 1340.4 834.496 1340.27 833.768 1340.01C833.04 1339.75 832.433 1339.42 831.948 1339C831.468 1338.58 831.087 1338.14 830.803 1337.66L832.472 1336.49C832.661 1336.74 832.901 1337.02 833.191 1337.34C833.481 1337.67 833.877 1337.95 834.38 1338.19C834.889 1338.43 835.555 1338.55 836.378 1338.55C837.479 1338.55 838.387 1338.28 839.103 1337.75C839.82 1337.22 840.178 1336.38 840.178 1335.25V1332.48H840C839.846 1332.73 839.627 1333.04 839.343 1333.4C839.065 1333.76 838.662 1334.09 838.136 1334.37C837.615 1334.65 836.911 1334.79 836.023 1334.79C834.922 1334.79 833.934 1334.53 833.058 1334.01C832.188 1333.48 831.498 1332.73 830.989 1331.73C830.486 1330.74 830.234 1329.53 830.234 1328.11C830.234 1326.71 830.48 1325.5 830.971 1324.46C831.463 1323.42 832.146 1322.62 833.022 1322.05C833.898 1321.47 834.91 1321.19 836.058 1321.19C836.946 1321.19 837.65 1321.33 838.171 1321.63C838.698 1321.92 839.1 1322.25 839.379 1322.62C839.663 1322.99 839.882 1323.29 840.036 1323.53H840.249V1321.36H842.273V1335.39C842.273 1336.56 842.006 1337.52 841.474 1338.25C840.947 1338.99 840.237 1339.53 839.343 1339.87C838.455 1340.22 837.467 1340.4 836.378 1340.4ZM836.307 1332.9C837.147 1332.9 837.858 1332.71 838.438 1332.33C839.018 1331.94 839.459 1331.39 839.76 1330.67C840.062 1329.95 840.213 1329.08 840.213 1328.08C840.213 1327.09 840.065 1326.23 839.769 1325.47C839.473 1324.72 839.035 1324.13 838.455 1323.71C837.875 1323.28 837.159 1323.07 836.307 1323.07C835.419 1323.07 834.679 1323.29 834.087 1323.74C833.502 1324.19 833.061 1324.8 832.765 1325.55C832.475 1326.31 832.33 1327.15 832.33 1328.08C832.33 1329.02 832.478 1329.86 832.774 1330.59C833.075 1331.31 833.519 1331.88 834.105 1332.29C834.697 1332.7 835.431 1332.9 836.307 1332.9ZM850.121 1335.32C849.257 1335.32 848.473 1335.16 847.768 1334.83C847.064 1334.5 846.505 1334.02 846.09 1333.4C845.676 1332.77 845.469 1332.02 845.469 1331.13C845.469 1330.35 845.623 1329.71 845.93 1329.23C846.238 1328.74 846.65 1328.35 847.165 1328.08C847.679 1327.8 848.248 1327.59 848.869 1327.45C849.496 1327.31 850.127 1327.2 850.76 1327.12C851.589 1327.01 852.26 1326.93 852.775 1326.88C853.296 1326.82 853.675 1326.72 853.912 1326.58C854.154 1326.45 854.276 1326.21 854.276 1325.87V1325.8C854.276 1324.93 854.036 1324.25 853.557 1323.76C853.083 1323.28 852.364 1323.03 851.399 1323.03C850.399 1323.03 849.615 1323.25 849.047 1323.69C848.478 1324.13 848.079 1324.6 847.848 1325.09L845.859 1324.38C846.215 1323.55 846.688 1322.91 847.28 1322.45C847.878 1321.98 848.529 1321.65 849.233 1321.47C849.943 1321.28 850.642 1321.19 851.328 1321.19C851.766 1321.19 852.269 1321.24 852.837 1321.35C853.412 1321.45 853.965 1321.66 854.498 1321.98C855.036 1322.3 855.483 1322.78 855.838 1323.42C856.193 1324.07 856.371 1324.93 856.371 1326.02V1335H854.276V1333.15H854.169C854.027 1333.45 853.79 1333.77 853.459 1334.1C853.127 1334.44 852.687 1334.73 852.136 1334.96C851.586 1335.2 850.914 1335.32 850.121 1335.32ZM850.44 1333.44C851.269 1333.44 851.967 1333.27 852.536 1332.95C853.11 1332.62 853.542 1332.2 853.832 1331.69C854.128 1331.17 854.276 1330.63 854.276 1330.06V1328.15C854.187 1328.25 853.992 1328.35 853.69 1328.44C853.394 1328.52 853.051 1328.6 852.66 1328.66C852.275 1328.72 851.899 1328.77 851.532 1328.82C851.171 1328.86 850.878 1328.9 850.653 1328.93C850.109 1329 849.6 1329.11 849.127 1329.27C848.659 1329.43 848.28 1329.66 847.99 1329.98C847.706 1330.28 847.564 1330.7 847.564 1331.24C847.564 1331.96 847.833 1332.51 848.372 1332.89C848.916 1333.25 849.606 1333.44 850.44 1333.44ZM862.29 1326.8V1335H860.195V1321.36H862.219V1323.49H862.397C862.716 1322.8 863.202 1322.25 863.853 1321.83C864.504 1321.4 865.344 1321.19 866.374 1321.19C867.297 1321.19 868.105 1321.38 868.798 1321.75C869.49 1322.13 870.029 1322.7 870.413 1323.46C870.798 1324.22 870.99 1325.18 870.99 1326.34V1335H868.895V1326.48C868.895 1325.41 868.617 1324.57 868.061 1323.97C867.504 1323.37 866.741 1323.07 865.77 1323.07C865.101 1323.07 864.504 1323.21 863.977 1323.5C863.456 1323.79 863.045 1324.22 862.743 1324.77C862.441 1325.33 862.29 1326 862.29 1326.8Z" fill="black"/>
<path d="M791.947 1048H789.639L796.315 1029.82H798.588L805.264 1048H802.956L797.523 1032.69H797.381L791.947 1048ZM792.8 1040.9H802.104V1042.85H792.8V1040.9ZM813.316 1053.4C812.304 1053.4 811.434 1053.27 810.706 1053.01C809.978 1052.75 809.372 1052.42 808.886 1052C808.407 1051.58 808.025 1051.14 807.741 1050.66L809.41 1049.49C809.6 1049.74 809.839 1050.02 810.129 1050.34C810.419 1050.67 810.816 1050.95 811.319 1051.19C811.828 1051.43 812.494 1051.55 813.316 1051.55C814.417 1051.55 815.326 1051.28 816.042 1050.75C816.758 1050.22 817.116 1049.38 817.116 1048.25V1045.48H816.939C816.785 1045.73 816.566 1046.04 816.282 1046.4C816.003 1046.76 815.601 1047.09 815.074 1047.37C814.553 1047.65 813.849 1047.79 812.961 1047.79C811.86 1047.79 810.872 1047.53 809.996 1047.01C809.126 1046.48 808.437 1045.73 807.928 1044.73C807.424 1043.74 807.173 1042.53 807.173 1041.11C807.173 1039.71 807.419 1038.5 807.91 1037.46C808.401 1036.42 809.085 1035.62 809.961 1035.05C810.837 1034.47 811.849 1034.19 812.997 1034.19C813.885 1034.19 814.589 1034.33 815.11 1034.63C815.636 1034.92 816.039 1035.25 816.317 1035.62C816.601 1035.99 816.82 1036.29 816.974 1036.53H817.187V1034.36H819.211V1048.39C819.211 1049.56 818.945 1050.52 818.412 1051.25C817.886 1051.99 817.175 1052.53 816.282 1052.87C815.394 1053.22 814.405 1053.4 813.316 1053.4ZM813.245 1045.9C814.086 1045.9 814.796 1045.71 815.376 1045.33C815.956 1044.94 816.397 1044.39 816.699 1043.67C817.001 1042.95 817.152 1042.08 817.152 1041.08C817.152 1040.09 817.004 1039.23 816.708 1038.47C816.412 1037.72 815.974 1037.13 815.394 1036.71C814.814 1036.28 814.098 1036.07 813.245 1036.07C812.358 1036.07 811.618 1036.29 811.026 1036.74C810.44 1037.19 809.999 1037.8 809.703 1038.55C809.413 1039.31 809.268 1040.15 809.268 1041.08C809.268 1042.02 809.416 1042.86 809.712 1043.59C810.014 1044.31 810.458 1044.88 811.044 1045.29C811.636 1045.7 812.369 1045.9 813.245 1045.9ZM823.047 1048V1034.36H825.071V1036.42H825.213C825.461 1035.75 825.911 1035.2 826.562 1034.78C827.213 1034.36 827.947 1034.15 828.764 1034.15C828.918 1034.15 829.11 1034.15 829.341 1034.16C829.572 1034.17 829.746 1034.17 829.865 1034.19V1036.32C829.794 1036.3 829.631 1036.27 829.376 1036.24C829.128 1036.2 828.864 1036.17 828.586 1036.17C827.923 1036.17 827.332 1036.31 826.811 1036.59C826.296 1036.86 825.887 1037.24 825.586 1037.73C825.29 1038.21 825.142 1038.76 825.142 1039.37V1048H823.047ZM832.348 1048V1034.36H834.443V1048H832.348ZM833.414 1032.09C833.005 1032.09 832.653 1031.95 832.357 1031.67C832.067 1031.4 831.922 1031.06 831.922 1030.67C831.922 1030.28 832.067 1029.95 832.357 1029.67C832.653 1029.39 833.005 1029.25 833.414 1029.25C833.822 1029.25 834.171 1029.39 834.461 1029.67C834.757 1029.95 834.905 1030.28 834.905 1030.67C834.905 1031.06 834.757 1031.4 834.461 1031.67C834.171 1031.95 833.822 1032.09 833.414 1032.09ZM840.376 1039.8V1048H838.281V1029.82H840.376V1036.49H840.554C840.873 1035.79 841.353 1035.23 841.992 1034.82C842.637 1034.4 843.495 1034.19 844.566 1034.19C845.496 1034.19 846.309 1034.37 847.008 1034.75C847.706 1035.11 848.248 1035.68 848.632 1036.44C849.023 1037.2 849.218 1038.16 849.218 1039.34V1048H847.123V1039.48C847.123 1038.39 846.842 1037.56 846.28 1036.96C845.723 1036.37 844.951 1036.07 843.963 1036.07C843.276 1036.07 842.661 1036.21 842.116 1036.5C841.578 1036.79 841.151 1037.22 840.838 1037.77C840.53 1038.33 840.376 1039 840.376 1039.8ZM857.064 1048.32C856.2 1048.32 855.416 1048.16 854.712 1047.83C854.007 1047.5 853.448 1047.02 853.034 1046.4C852.619 1045.77 852.412 1045.02 852.412 1044.13C852.412 1043.35 852.566 1042.71 852.874 1042.23C853.182 1041.74 853.593 1041.35 854.108 1041.08C854.623 1040.8 855.191 1040.59 855.812 1040.45C856.44 1040.31 857.07 1040.2 857.703 1040.12C858.532 1040.01 859.204 1039.93 859.719 1039.88C860.239 1039.82 860.618 1039.72 860.855 1039.58C861.098 1039.45 861.219 1039.21 861.219 1038.87V1038.8C861.219 1037.93 860.979 1037.25 860.5 1036.76C860.026 1036.28 859.307 1036.03 858.343 1036.03C857.342 1036.03 856.558 1036.25 855.99 1036.69C855.422 1037.13 855.022 1037.6 854.791 1038.09L852.803 1037.38C853.158 1036.55 853.631 1035.91 854.223 1035.45C854.821 1034.98 855.472 1034.65 856.176 1034.47C856.887 1034.28 857.585 1034.19 858.272 1034.19C858.71 1034.19 859.213 1034.24 859.781 1034.35C860.355 1034.45 860.908 1034.66 861.441 1034.98C861.98 1035.3 862.426 1035.78 862.782 1036.42C863.137 1037.07 863.314 1037.93 863.314 1039.02V1048H861.219V1046.15H861.112C860.97 1046.45 860.734 1046.77 860.402 1047.1C860.071 1047.44 859.63 1047.73 859.079 1047.96C858.529 1048.2 857.857 1048.32 857.064 1048.32ZM857.384 1046.44C858.212 1046.44 858.911 1046.27 859.479 1045.95C860.053 1045.62 860.485 1045.2 860.775 1044.69C861.071 1044.17 861.219 1043.63 861.219 1043.06V1041.15C861.13 1041.25 860.935 1041.35 860.633 1041.44C860.337 1041.52 859.994 1041.6 859.603 1041.66C859.219 1041.72 858.843 1041.77 858.476 1041.82C858.115 1041.86 857.822 1041.9 857.597 1041.93C857.052 1042 856.543 1042.11 856.07 1042.27C855.602 1042.43 855.224 1042.66 854.934 1042.98C854.649 1043.28 854.507 1043.7 854.507 1044.24C854.507 1044.96 854.777 1045.51 855.315 1045.89C855.86 1046.25 856.549 1046.44 857.384 1046.44ZM869.233 1039.8V1048H867.138V1034.36H869.162V1036.49H869.34C869.66 1035.8 870.145 1035.25 870.796 1034.83C871.447 1034.4 872.287 1034.19 873.317 1034.19C874.241 1034.19 875.048 1034.38 875.741 1034.75C876.433 1035.13 876.972 1035.7 877.357 1036.46C877.741 1037.22 877.934 1038.18 877.934 1039.34V1048H875.839V1039.48C875.839 1038.41 875.56 1037.57 875.004 1036.97C874.448 1036.37 873.684 1036.07 872.714 1036.07C872.045 1036.07 871.447 1036.21 870.92 1036.5C870.399 1036.79 869.988 1037.22 869.686 1037.77C869.384 1038.33 869.233 1039 869.233 1039.8Z" fill="black"/>
<path d="M661.947 632H659.639L666.315 613.818H668.588L675.264 632H672.956L667.523 616.695H667.381L661.947 632ZM662.8 624.898H672.104V626.851H662.8V624.898ZM687.471 621.418L685.589 621.95C685.471 621.637 685.296 621.332 685.065 621.036C684.84 620.734 684.533 620.485 684.142 620.29C683.751 620.095 683.251 619.997 682.642 619.997C681.807 619.997 681.112 620.19 680.555 620.574C680.005 620.953 679.73 621.435 679.73 622.021C679.73 622.542 679.919 622.953 680.298 623.255C680.677 623.557 681.269 623.809 682.074 624.01L684.098 624.507C685.317 624.803 686.225 625.256 686.823 625.865C687.421 626.469 687.72 627.247 687.72 628.2C687.72 628.982 687.495 629.68 687.045 630.295C686.601 630.911 685.98 631.396 685.181 631.751C684.382 632.107 683.453 632.284 682.393 632.284C681.002 632.284 679.851 631.982 678.94 631.379C678.028 630.775 677.451 629.893 677.208 628.733L679.197 628.236C679.386 628.97 679.745 629.52 680.271 629.887C680.804 630.254 681.499 630.438 682.358 630.438C683.334 630.438 684.109 630.23 684.684 629.816C685.264 629.396 685.554 628.893 685.554 628.307C685.554 627.833 685.388 627.437 685.056 627.117C684.725 626.792 684.216 626.549 683.529 626.389L681.257 625.857C680.008 625.561 679.091 625.102 678.505 624.48C677.925 623.853 677.635 623.069 677.635 622.128C677.635 621.358 677.851 620.678 678.283 620.086C678.721 619.494 679.315 619.029 680.067 618.692C680.825 618.355 681.683 618.186 682.642 618.186C683.991 618.186 685.051 618.482 685.82 619.074C686.595 619.666 687.146 620.447 687.471 621.418ZM699.467 626.425V618.364H701.563V632H699.467V629.692H699.325C699.006 630.384 698.509 630.973 697.834 631.458C697.159 631.938 696.307 632.178 695.277 632.178C694.425 632.178 693.667 631.991 693.004 631.618C692.341 631.239 691.821 630.671 691.442 629.914C691.063 629.15 690.874 628.188 690.874 627.028V618.364H692.969V626.886C692.969 627.881 693.247 628.674 693.803 629.266C694.366 629.857 695.082 630.153 695.952 630.153C696.473 630.153 697.002 630.02 697.541 629.754C698.085 629.488 698.541 629.079 698.908 628.529C699.281 627.978 699.467 627.277 699.467 626.425ZM707.495 623.797V632H705.4V618.364H707.424V620.494H707.602C707.921 619.802 708.407 619.246 709.058 618.825C709.709 618.399 710.549 618.186 711.579 618.186C712.502 618.186 713.31 618.375 714.003 618.754C714.695 619.127 715.234 619.695 715.618 620.459C716.003 621.216 716.195 622.175 716.195 623.335V632H714.1V623.477C714.1 622.406 713.822 621.571 713.266 620.974C712.709 620.37 711.946 620.068 710.975 620.068C710.307 620.068 709.709 620.213 709.182 620.503C708.661 620.793 708.25 621.216 707.948 621.773C707.646 622.329 707.495 623.004 707.495 623.797ZM725.564 632.284C724.285 632.284 723.185 631.982 722.261 631.379C721.338 630.775 720.628 629.943 720.131 628.884C719.633 627.824 719.385 626.614 719.385 625.253C719.385 623.868 719.639 622.646 720.148 621.586C720.663 620.521 721.379 619.689 722.297 619.092C723.22 618.488 724.297 618.186 725.528 618.186C726.487 618.186 727.351 618.364 728.121 618.719C728.89 619.074 729.52 619.571 730.012 620.21C730.503 620.849 730.808 621.595 730.926 622.447H728.831C728.671 621.826 728.316 621.276 727.766 620.796C727.221 620.311 726.487 620.068 725.564 620.068C724.747 620.068 724.031 620.281 723.415 620.707C722.806 621.128 722.329 621.722 721.986 622.492C721.649 623.255 721.48 624.152 721.48 625.182C721.48 626.235 721.646 627.153 721.977 627.934C722.315 628.715 722.788 629.322 723.398 629.754C724.013 630.186 724.735 630.402 725.564 630.402C726.108 630.402 726.603 630.307 727.046 630.118C727.49 629.929 727.866 629.656 728.174 629.301C728.482 628.946 728.701 628.52 728.831 628.023H730.926C730.808 628.828 730.515 629.553 730.047 630.198C729.585 630.837 728.973 631.346 728.209 631.725C727.452 632.098 726.57 632.284 725.564 632.284ZM733.989 632V618.364H736.084V632H733.989ZM735.054 616.091C734.646 616.091 734.294 615.952 733.998 615.674C733.708 615.395 733.563 615.061 733.563 614.67C733.563 614.28 733.708 613.945 733.998 613.667C734.294 613.389 734.646 613.25 735.054 613.25C735.463 613.25 735.812 613.389 736.102 613.667C736.398 613.945 736.546 614.28 736.546 614.67C736.546 615.061 736.398 615.395 736.102 615.674C735.812 615.952 735.463 616.091 735.054 616.091ZM745.461 632.284C744.23 632.284 743.15 631.991 742.221 631.405C741.298 630.819 740.576 630 740.055 628.946C739.54 627.893 739.282 626.661 739.282 625.253C739.282 623.832 739.54 622.592 740.055 621.533C740.576 620.474 741.298 619.651 742.221 619.065C743.15 618.479 744.23 618.186 745.461 618.186C746.692 618.186 747.77 618.479 748.693 619.065C749.622 619.651 750.344 620.474 750.859 621.533C751.38 622.592 751.64 623.832 751.64 625.253C751.64 626.661 751.38 627.893 750.859 628.946C750.344 630 749.622 630.819 748.693 631.405C747.77 631.991 746.692 632.284 745.461 632.284ZM745.461 630.402C746.396 630.402 747.166 630.162 747.77 629.683C748.373 629.203 748.82 628.573 749.11 627.792C749.4 627.011 749.545 626.164 749.545 625.253C749.545 624.341 749.4 623.492 749.11 622.705C748.82 621.918 748.373 621.281 747.77 620.796C747.166 620.311 746.396 620.068 745.461 620.068C744.526 620.068 743.757 620.311 743.153 620.796C742.549 621.281 742.103 621.918 741.812 622.705C741.522 623.492 741.377 624.341 741.377 625.253C741.377 626.164 741.522 627.011 741.812 627.792C742.103 628.573 742.549 629.203 743.153 629.683C743.757 630.162 744.526 630.402 745.461 630.402ZM756.934 623.797V632H754.839V618.364H756.863V620.494H757.04C757.36 619.802 757.845 619.246 758.496 618.825C759.147 618.399 759.988 618.186 761.017 618.186C761.941 618.186 762.749 618.375 763.441 618.754C764.134 619.127 764.672 619.695 765.057 620.459C765.442 621.216 765.634 622.175 765.634 623.335V632H763.539V623.477C763.539 622.406 763.261 621.571 762.704 620.974C762.148 620.37 761.384 620.068 760.414 620.068C759.745 620.068 759.147 620.213 758.62 620.503C758.1 620.793 757.688 621.216 757.386 621.773C757.085 622.329 756.934 623.004 756.934 623.797Z" fill="black"/>
<path d="M567.202 474.818H569.83L576.009 489.911H576.222L582.401 474.818H585.028V493H582.969V479.186H582.791L577.109 493H575.121L569.439 479.186H569.261V493H567.202V474.818ZM593.172 493.32C592.307 493.32 591.523 493.157 590.819 492.831C590.115 492.5 589.555 492.023 589.141 491.402C588.727 490.775 588.52 490.017 588.52 489.129C588.52 488.348 588.674 487.715 588.981 487.229C589.289 486.738 589.7 486.353 590.215 486.075C590.73 485.797 591.298 485.59 591.92 485.454C592.547 485.312 593.178 485.199 593.811 485.116C594.639 485.01 595.311 484.93 595.826 484.877C596.347 484.818 596.726 484.72 596.962 484.584C597.205 484.448 597.326 484.211 597.326 483.874V483.803C597.326 482.927 597.087 482.246 596.607 481.761C596.134 481.275 595.415 481.033 594.45 481.033C593.45 481.033 592.666 481.252 592.097 481.69C591.529 482.128 591.13 482.595 590.899 483.092L588.91 482.382C589.265 481.554 589.739 480.908 590.331 480.447C590.928 479.979 591.58 479.654 592.284 479.47C592.994 479.281 593.692 479.186 594.379 479.186C594.817 479.186 595.32 479.239 595.888 479.346C596.462 479.446 597.016 479.657 597.548 479.976C598.087 480.296 598.534 480.778 598.889 481.423C599.244 482.068 599.422 482.933 599.422 484.016V493H597.326V491.153H597.22C597.078 491.449 596.841 491.766 596.51 492.103C596.178 492.441 595.737 492.728 595.187 492.964C594.636 493.201 593.965 493.32 593.172 493.32ZM593.491 491.438C594.32 491.438 595.018 491.275 595.586 490.949C596.16 490.624 596.593 490.203 596.883 489.689C597.178 489.174 597.326 488.632 597.326 488.064V486.146C597.238 486.253 597.042 486.35 596.741 486.439C596.445 486.522 596.101 486.596 595.711 486.661C595.326 486.72 594.95 486.774 594.583 486.821C594.222 486.862 593.929 486.898 593.704 486.928C593.16 486.999 592.651 487.114 592.177 487.274C591.71 487.428 591.331 487.661 591.041 487.975C590.757 488.283 590.615 488.703 590.615 489.236C590.615 489.964 590.884 490.514 591.423 490.887C591.967 491.254 592.657 491.438 593.491 491.438ZM611.839 487.425V479.364H613.935V493H611.839V490.692H611.697C611.378 491.384 610.881 491.973 610.206 492.458C609.531 492.938 608.679 493.178 607.649 493.178C606.797 493.178 606.039 492.991 605.376 492.618C604.714 492.239 604.193 491.671 603.814 490.914C603.435 490.15 603.246 489.188 603.246 488.028V479.364H605.341V487.886C605.341 488.881 605.619 489.674 606.175 490.266C606.738 490.857 607.454 491.153 608.324 491.153C608.845 491.153 609.374 491.02 609.913 490.754C610.458 490.488 610.913 490.079 611.28 489.529C611.653 488.978 611.839 488.277 611.839 487.425ZM623.276 498.398C622.264 498.398 621.394 498.268 620.666 498.007C619.938 497.753 619.332 497.415 618.846 496.995C618.367 496.581 617.985 496.137 617.701 495.663L619.37 494.491C619.56 494.74 619.799 495.024 620.089 495.344C620.379 495.669 620.776 495.95 621.279 496.187C621.788 496.43 622.454 496.551 623.276 496.551C624.377 496.551 625.286 496.285 626.002 495.752C626.718 495.219 627.076 494.385 627.076 493.249V490.479H626.899C626.745 490.727 626.526 491.035 626.242 491.402C625.963 491.763 625.561 492.086 625.034 492.37C624.513 492.648 623.809 492.787 622.921 492.787C621.82 492.787 620.832 492.527 619.956 492.006C619.086 491.485 618.397 490.727 617.888 489.733C617.384 488.739 617.133 487.531 617.133 486.111C617.133 484.714 617.379 483.498 617.87 482.462C618.361 481.42 619.045 480.615 619.921 480.047C620.796 479.473 621.809 479.186 622.957 479.186C623.845 479.186 624.549 479.334 625.07 479.63C625.596 479.92 625.999 480.251 626.277 480.624C626.561 480.991 626.78 481.293 626.934 481.53H627.147V479.364H629.171V493.391C629.171 494.562 628.905 495.515 628.372 496.249C627.845 496.989 627.135 497.531 626.242 497.874C625.354 498.223 624.365 498.398 623.276 498.398ZM623.205 490.905C624.046 490.905 624.756 490.712 625.336 490.328C625.916 489.943 626.357 489.39 626.659 488.668C626.961 487.946 627.112 487.081 627.112 486.075C627.112 485.093 626.964 484.226 626.668 483.474C626.372 482.722 625.934 482.134 625.354 481.707C624.774 481.281 624.058 481.068 623.205 481.068C622.318 481.068 621.578 481.293 620.986 481.743C620.4 482.193 619.959 482.796 619.663 483.554C619.373 484.312 619.228 485.152 619.228 486.075C619.228 487.022 619.376 487.86 619.672 488.588C619.974 489.31 620.418 489.878 621.004 490.292C621.595 490.701 622.329 490.905 623.205 490.905Z" fill="black"/>
<path d="M398.134 239.818H400.335V251.857C400.335 253.099 400.042 254.209 399.456 255.186C398.876 256.156 398.057 256.923 396.997 257.485C395.938 258.041 394.695 258.32 393.268 258.32C391.842 258.32 390.599 258.041 389.54 257.485C388.48 256.923 387.658 256.156 387.072 255.186C386.492 254.209 386.202 253.099 386.202 251.857V239.818H388.403V251.679C388.403 252.567 388.599 253.357 388.989 254.049C389.38 254.736 389.936 255.277 390.658 255.674C391.386 256.065 392.256 256.26 393.268 256.26C394.281 256.26 395.151 256.065 395.879 255.674C396.607 255.277 397.163 254.736 397.548 254.049C397.938 253.357 398.134 252.567 398.134 251.679V239.818ZM404.448 258V244.364H406.472V246.423H406.614C406.863 245.749 407.312 245.201 407.964 244.781C408.615 244.361 409.348 244.151 410.165 244.151C410.319 244.151 410.511 244.154 410.742 244.159C410.973 244.165 411.148 244.174 411.266 244.186V246.317C411.195 246.299 411.032 246.272 410.778 246.237C410.529 246.195 410.266 246.175 409.988 246.175C409.325 246.175 408.733 246.314 408.212 246.592C407.697 246.864 407.289 247.243 406.987 247.728C406.691 248.208 406.543 248.755 406.543 249.371V258H404.448ZM417.762 258.32C416.898 258.32 416.114 258.157 415.41 257.831C414.705 257.5 414.146 257.023 413.732 256.402C413.318 255.775 413.11 255.017 413.11 254.129C413.11 253.348 413.264 252.715 413.572 252.229C413.88 251.738 414.291 251.353 414.806 251.075C415.321 250.797 415.889 250.59 416.511 250.454C417.138 250.312 417.768 250.199 418.402 250.116C419.23 250.01 419.902 249.93 420.417 249.877C420.938 249.818 421.317 249.72 421.553 249.584C421.796 249.448 421.917 249.211 421.917 248.874V248.803C421.917 247.927 421.678 247.246 421.198 246.761C420.725 246.275 420.006 246.033 419.041 246.033C418.041 246.033 417.256 246.252 416.688 246.69C416.12 247.128 415.721 247.595 415.49 248.092L413.501 247.382C413.856 246.554 414.33 245.908 414.922 245.447C415.519 244.979 416.17 244.654 416.875 244.47C417.585 244.281 418.283 244.186 418.97 244.186C419.408 244.186 419.911 244.239 420.479 244.346C421.053 244.446 421.607 244.657 422.139 244.976C422.678 245.296 423.125 245.778 423.48 246.423C423.835 247.068 424.012 247.933 424.012 249.016V258H421.917V256.153H421.811C421.669 256.449 421.432 256.766 421.1 257.103C420.769 257.441 420.328 257.728 419.778 257.964C419.227 258.201 418.556 258.32 417.762 258.32ZM418.082 256.438C418.911 256.438 419.609 256.275 420.177 255.949C420.751 255.624 421.183 255.203 421.473 254.689C421.769 254.174 421.917 253.632 421.917 253.064V251.146C421.828 251.253 421.633 251.35 421.331 251.439C421.035 251.522 420.692 251.596 420.301 251.661C419.917 251.72 419.541 251.774 419.174 251.821C418.813 251.862 418.52 251.898 418.295 251.928C417.751 251.999 417.242 252.114 416.768 252.274C416.301 252.428 415.922 252.661 415.632 252.975C415.348 253.283 415.206 253.703 415.206 254.236C415.206 254.964 415.475 255.514 416.013 255.887C416.558 256.254 417.248 256.438 418.082 256.438ZM433.376 258.284C432.098 258.284 430.997 257.982 430.074 257.379C429.15 256.775 428.44 255.943 427.943 254.884C427.446 253.824 427.197 252.614 427.197 251.253C427.197 249.868 427.452 248.646 427.961 247.586C428.476 246.521 429.192 245.689 430.109 245.092C431.033 244.488 432.11 244.186 433.341 244.186C434.3 244.186 435.164 244.364 435.933 244.719C436.703 245.074 437.333 245.571 437.824 246.21C438.315 246.849 438.62 247.595 438.739 248.447H436.643C436.484 247.826 436.128 247.276 435.578 246.796C435.034 246.311 434.3 246.068 433.376 246.068C432.56 246.068 431.843 246.281 431.228 246.707C430.618 247.128 430.142 247.722 429.799 248.492C429.461 249.255 429.293 250.152 429.293 251.182C429.293 252.235 429.458 253.153 429.79 253.934C430.127 254.715 430.601 255.322 431.21 255.754C431.826 256.186 432.548 256.402 433.376 256.402C433.921 256.402 434.415 256.307 434.859 256.118C435.303 255.929 435.679 255.656 435.986 255.301C436.294 254.946 436.513 254.52 436.643 254.023H438.739C438.62 254.828 438.327 255.553 437.86 256.198C437.398 256.837 436.785 257.346 436.022 257.725C435.264 258.098 434.382 258.284 433.376 258.284ZM450.395 252.425V244.364H452.49V258H450.395V255.692H450.253C449.934 256.384 449.436 256.973 448.762 257.458C448.087 257.938 447.235 258.178 446.205 258.178C445.353 258.178 444.595 257.991 443.932 257.618C443.269 257.239 442.748 256.671 442.37 255.914C441.991 255.15 441.801 254.188 441.801 253.028V244.364H443.897V252.886C443.897 253.881 444.175 254.674 444.731 255.266C445.293 255.857 446.009 256.153 446.88 256.153C447.4 256.153 447.93 256.02 448.469 255.754C449.013 255.488 449.469 255.079 449.836 254.529C450.209 253.978 450.395 253.277 450.395 252.425ZM465.987 247.418L464.105 247.95C463.986 247.637 463.812 247.332 463.581 247.036C463.356 246.734 463.048 246.485 462.658 246.29C462.267 246.095 461.767 245.997 461.157 245.997C460.323 245.997 459.627 246.19 459.071 246.574C458.521 246.953 458.245 247.435 458.245 248.021C458.245 248.542 458.435 248.953 458.814 249.255C459.192 249.557 459.784 249.809 460.589 250.01L462.613 250.507C463.833 250.803 464.741 251.256 465.339 251.865C465.937 252.469 466.235 253.247 466.235 254.2C466.235 254.982 466.011 255.68 465.561 256.295C465.117 256.911 464.495 257.396 463.696 257.751C462.897 258.107 461.968 258.284 460.909 258.284C459.518 258.284 458.367 257.982 457.455 257.379C456.544 256.775 455.967 255.893 455.724 254.733L457.713 254.236C457.902 254.97 458.26 255.52 458.787 255.887C459.32 256.254 460.015 256.438 460.873 256.438C461.85 256.438 462.625 256.23 463.199 255.816C463.779 255.396 464.069 254.893 464.069 254.307C464.069 253.833 463.904 253.437 463.572 253.117C463.241 252.792 462.732 252.549 462.045 252.389L459.772 251.857C458.524 251.561 457.606 251.102 457.02 250.48C456.44 249.853 456.15 249.069 456.15 248.128C456.15 247.358 456.366 246.678 456.798 246.086C457.236 245.494 457.831 245.029 458.583 244.692C459.34 244.355 460.199 244.186 461.157 244.186C462.507 244.186 463.566 244.482 464.336 245.074C465.111 245.666 465.661 246.447 465.987 247.418Z" fill="black"/>
<path d="M885.631 1656.5C885.435 1655.9 885.178 1655.37 884.858 1654.89C884.545 1654.41 884.169 1654.01 883.731 1653.67C883.299 1653.33 882.808 1653.07 882.257 1652.9C881.707 1652.72 881.103 1652.63 880.446 1652.63C879.369 1652.63 878.389 1652.91 877.507 1653.46C876.626 1654.02 875.924 1654.84 875.403 1655.92C874.883 1657.01 874.622 1658.33 874.622 1659.91C874.622 1661.48 874.886 1662.81 875.412 1663.9C875.939 1664.98 876.652 1665.8 877.552 1666.35C878.451 1666.91 879.464 1667.19 880.588 1667.19C881.63 1667.19 882.547 1666.97 883.34 1666.52C884.139 1666.07 884.761 1665.44 885.205 1664.62C885.654 1663.8 885.879 1662.83 885.879 1661.72L886.554 1661.86H881.085V1659.91H888.01V1661.86C888.01 1663.36 887.69 1664.66 887.051 1665.77C886.418 1666.88 885.542 1667.73 884.423 1668.34C883.311 1668.95 882.032 1669.25 880.588 1669.25C878.978 1669.25 877.564 1668.87 876.344 1668.11C875.131 1667.35 874.184 1666.28 873.504 1664.88C872.829 1663.48 872.491 1661.83 872.491 1659.91C872.491 1658.47 872.684 1657.18 873.069 1656.03C873.459 1654.88 874.01 1653.89 874.72 1653.08C875.43 1652.27 876.27 1651.65 877.241 1651.22C878.212 1650.79 879.28 1650.57 880.446 1650.57C881.405 1650.57 882.299 1650.71 883.127 1651C883.962 1651.29 884.704 1651.69 885.355 1652.22C886.012 1652.74 886.56 1653.37 886.998 1654.09C887.436 1654.82 887.738 1655.62 887.903 1656.5H885.631ZM900.09 1663.42V1655.36H902.186V1669H900.09V1666.69H899.948C899.629 1667.38 899.132 1667.97 898.457 1668.46C897.782 1668.94 896.93 1669.18 895.9 1669.18C895.048 1669.18 894.29 1668.99 893.627 1668.62C892.965 1668.24 892.444 1667.67 892.065 1666.91C891.686 1666.15 891.497 1665.19 891.497 1664.03V1655.36H893.592V1663.89C893.592 1664.88 893.87 1665.67 894.426 1666.27C894.989 1666.86 895.705 1667.15 896.575 1667.15C897.096 1667.15 897.625 1667.02 898.164 1666.75C898.708 1666.49 899.164 1666.08 899.531 1665.53C899.904 1664.98 900.09 1664.28 900.09 1663.42ZM911.527 1674.4C910.515 1674.4 909.645 1674.27 908.917 1674.01C908.189 1673.75 907.583 1673.42 907.097 1673C906.618 1672.58 906.236 1672.14 905.952 1671.66L907.621 1670.49C907.81 1670.74 908.05 1671.02 908.34 1671.34C908.63 1671.67 909.027 1671.95 909.53 1672.19C910.039 1672.43 910.705 1672.55 911.527 1672.55C912.628 1672.55 913.537 1672.28 914.253 1671.75C914.969 1671.22 915.327 1670.38 915.327 1669.25V1666.48H915.15C914.996 1666.73 914.777 1667.04 914.493 1667.4C914.214 1667.76 913.812 1668.09 913.285 1668.37C912.764 1668.65 912.06 1668.79 911.172 1668.79C910.071 1668.79 909.083 1668.53 908.207 1668.01C907.337 1667.48 906.647 1666.73 906.138 1665.73C905.635 1664.74 905.384 1663.53 905.384 1662.11C905.384 1660.71 905.629 1659.5 906.121 1658.46C906.612 1657.42 907.296 1656.62 908.172 1656.05C909.047 1655.47 910.06 1655.19 911.208 1655.19C912.096 1655.19 912.8 1655.33 913.321 1655.63C913.847 1655.92 914.25 1656.25 914.528 1656.62C914.812 1656.99 915.031 1657.29 915.185 1657.53H915.398V1655.36H917.422V1669.39C917.422 1670.56 917.156 1671.52 916.623 1672.25C916.096 1672.99 915.386 1673.53 914.493 1673.87C913.605 1674.22 912.616 1674.4 911.527 1674.4ZM911.456 1666.9C912.297 1666.9 913.007 1666.71 913.587 1666.33C914.167 1665.94 914.608 1665.39 914.91 1664.67C915.212 1663.95 915.363 1663.08 915.363 1662.08C915.363 1661.09 915.215 1660.23 914.919 1659.47C914.623 1658.72 914.185 1658.13 913.605 1657.71C913.025 1657.28 912.309 1657.07 911.456 1657.07C910.569 1657.07 909.829 1657.29 909.237 1657.74C908.651 1658.19 908.21 1658.8 907.914 1659.55C907.624 1660.31 907.479 1661.15 907.479 1662.08C907.479 1663.02 907.627 1663.86 907.923 1664.59C908.225 1665.31 908.669 1665.88 909.255 1666.29C909.846 1666.7 910.58 1666.9 911.456 1666.9ZM929.851 1663.42V1655.36H931.946V1669H929.851V1666.69H929.709C929.39 1667.38 928.892 1667.97 928.218 1668.46C927.543 1668.94 926.691 1669.18 925.661 1669.18C924.809 1669.18 924.051 1668.99 923.388 1668.62C922.725 1668.24 922.204 1667.67 921.826 1666.91C921.447 1666.15 921.257 1665.19 921.257 1664.03V1655.36H923.353V1663.89C923.353 1664.88 923.631 1665.67 924.187 1666.27C924.749 1666.86 925.466 1667.15 926.336 1667.15C926.856 1667.15 927.386 1667.02 927.925 1666.75C928.469 1666.49 928.925 1666.08 929.292 1665.53C929.665 1664.98 929.851 1664.28 929.851 1663.42ZM939.797 1669.32C938.932 1669.32 938.148 1669.16 937.444 1668.83C936.74 1668.5 936.18 1668.02 935.766 1667.4C935.352 1666.77 935.145 1666.02 935.145 1665.13C935.145 1664.35 935.299 1663.71 935.606 1663.23C935.914 1662.74 936.325 1662.35 936.84 1662.08C937.355 1661.8 937.923 1661.59 938.545 1661.45C939.172 1661.31 939.803 1661.2 940.436 1661.12C941.264 1661.01 941.936 1660.93 942.451 1660.88C942.972 1660.82 943.351 1660.72 943.587 1660.58C943.83 1660.45 943.951 1660.21 943.951 1659.87V1659.8C943.951 1658.93 943.712 1658.25 943.232 1657.76C942.759 1657.28 942.04 1657.03 941.075 1657.03C940.075 1657.03 939.291 1657.25 938.722 1657.69C938.154 1658.13 937.755 1658.6 937.524 1659.09L935.535 1658.38C935.89 1657.55 936.364 1656.91 936.956 1656.45C937.553 1655.98 938.205 1655.65 938.909 1655.47C939.619 1655.28 940.317 1655.19 941.004 1655.19C941.442 1655.19 941.945 1655.24 942.513 1655.35C943.087 1655.45 943.641 1655.66 944.173 1655.98C944.712 1656.3 945.159 1656.78 945.514 1657.42C945.869 1658.07 946.047 1658.93 946.047 1660.02V1669H943.951V1667.15H943.845C943.703 1667.45 943.466 1667.77 943.135 1668.1C942.803 1668.44 942.362 1668.73 941.812 1668.96C941.261 1669.2 940.59 1669.32 939.797 1669.32ZM940.116 1667.44C940.945 1667.44 941.643 1667.27 942.211 1666.95C942.785 1666.62 943.218 1666.2 943.508 1665.69C943.803 1665.17 943.951 1664.63 943.951 1664.06V1662.15C943.863 1662.25 943.667 1662.35 943.366 1662.44C943.07 1662.52 942.726 1662.6 942.336 1662.66C941.951 1662.72 941.575 1662.77 941.208 1662.82C940.847 1662.86 940.554 1662.9 940.329 1662.93C939.785 1663 939.276 1663.11 938.802 1663.27C938.335 1663.43 937.956 1663.66 937.666 1663.98C937.382 1664.28 937.24 1664.7 937.24 1665.24C937.24 1665.96 937.509 1666.51 938.048 1666.89C938.592 1667.25 939.282 1667.44 940.116 1667.44ZM951.966 1660.8V1669H949.871V1655.36H951.895V1657.49H952.072C952.392 1656.8 952.877 1656.25 953.528 1655.83C954.179 1655.4 955.02 1655.19 956.05 1655.19C956.973 1655.19 957.781 1655.38 958.473 1655.75C959.166 1656.13 959.704 1656.7 960.089 1657.46C960.474 1658.22 960.666 1659.18 960.666 1660.34V1669H958.571V1660.48C958.571 1659.41 958.293 1658.57 957.737 1657.97C957.18 1657.37 956.417 1657.07 955.446 1657.07C954.777 1657.07 954.179 1657.21 953.653 1657.5C953.132 1657.79 952.721 1658.22 952.419 1658.77C952.117 1659.33 951.966 1660 951.966 1660.8Z" fill="black"/>
<g filter="url(#filter0_d_281_39)">
<path d="M635.5 589L640.5 582.5L647 589L640.5 595L635.5 589Z" fill="#FFD597"/>
<path d="M564.5 450L568 440.5H574L579.5 444L572 450H564.5Z" fill="#FFD597"/>
<path d="M426 227.5L431.5 216L440.5 224L436.5 230L426 227.5Z" fill="#FFD597"/>
<path d="M635.5 589L640.5 582.5L647 589L640.5 595L635.5 589Z" stroke="black"/>
<path d="M564.5 450L568 440.5H574L579.5 444L572 450H564.5Z" stroke="black"/>
<path d="M426 227.5L431.5 216L440.5 224L436.5 230L426 227.5Z" stroke="black"/>
<path d="M552.5 2985.5V2974.5V2969.5L563 2966L561 2957L574.5 2954C577.833 2953.5 584.6 2952.5 585 2952.5H600C600.8 2952.5 605.333 2955.5 607.5 2957L605.5 2970.5L596.5 2973L588.5 2982L574.5 2988L557.5 2990L552.5 2985.5Z" fill="#FFD597"/>
<path d="M755 2590L758 2573L751.5 2569.5L749 2575C746.5 2578.17 741.5 2584.7 741.5 2585.5C741.5 2586.3 737.5 2588.83 735.5 2590L729.5 2602.5C730.333 2605.33 732 2611.3 732 2612.5C732 2614 741 2623.5 741.5 2627C741.9 2629.8 746.667 2639.17 749 2643.5C753.167 2641.5 761.9 2637.4 763.5 2637C765.1 2636.6 762.833 2623.5 761.5 2617C763 2611.5 766.4 2600.4 768 2600C769.6 2599.6 760 2593.17 755 2590Z" fill="#FFD597"/>
<path d="M799.5 2540.5C798.333 2546.67 796.4 2559.8 798 2563L791 2566C786.167 2563.5 776.1 2558.3 774.5 2557.5C772.9 2556.7 767.5 2552.5 765 2550.5C766 2546.67 768 2538.4 768 2536C768 2533 776.5 2528 776.5 2525.5C776.5 2523 781.5 2517.5 785.5 2516.5C788.7 2515.7 797.167 2506.5 801 2502C806 2496.5 816.2 2485.3 817 2484.5C817.8 2483.7 825 2481.5 828.5 2480.5V2496C828.5 2497 816 2513.5 814 2515C812.4 2516.2 806.333 2522.5 803.5 2525.5L799.5 2540.5Z" fill="#FFD597"/>
<path d="M747 2025.5L758.5 2021H769L778 2025.5V2032.5C773 2033.33 762.1 2034.9 758.5 2034.5C754.9 2034.1 749.333 2033 747 2032.5V2025.5Z" fill="#FFD597"/>
<path d="M794 1875L803.5 1866L812 1871L806 1879L794 1875Z" fill="#FFD597"/>
<path d="M825 1616.5L828.5 1606L835.5 1608.5L832.5 1618.5L825 1616.5Z" fill="#FFD597"/>
<path d="M819 1491L825 1481.5L832 1483.5L829.5 1495.5L819 1491Z" fill="#FFD597"/>
<path d="M789 1259.5L793 1251.5L795.5 1248.5C797.667 1247.83 802.2 1246.5 803 1246.5C803.8 1246.5 807.333 1248.83 809 1250C809.333 1254.67 810 1264.3 810 1265.5C810 1266.7 801.667 1271.33 797.5 1273.5L790.5 1278.5V1283.5C788.667 1286.67 784.9 1293 784.5 1293C784.1 1293 781 1290.67 779.5 1289.5L782.5 1282.5L789 1278.5L790.5 1273.5V1267L789 1259.5Z" fill="#FFD597"/>
<path d="M749.5 979L752 969.5C754.167 969 758.7 967.9 759.5 967.5C760.3 967.1 763.833 969.667 765.5 971C764.333 973.333 762 978.2 762 979C762 979.8 762.667 983.667 763 985.5L759.5 994V1001L752 1004V999L743.5 995L741.5 989.5L747.5 986.5L749.5 979Z" fill="#FFD597"/>
<path d="M552.5 2985.5V2974.5V2969.5L563 2966L561 2957L574.5 2954C577.833 2953.5 584.6 2952.5 585 2952.5H600C600.8 2952.5 605.333 2955.5 607.5 2957L605.5 2970.5L596.5 2973L588.5 2982L574.5 2988L557.5 2990L552.5 2985.5Z" stroke="black"/>
<path d="M755 2590L758 2573L751.5 2569.5L749 2575C746.5 2578.17 741.5 2584.7 741.5 2585.5C741.5 2586.3 737.5 2588.83 735.5 2590L729.5 2602.5C730.333 2605.33 732 2611.3 732 2612.5C732 2614 741 2623.5 741.5 2627C741.9 2629.8 746.667 2639.17 749 2643.5C753.167 2641.5 761.9 2637.4 763.5 2637C765.1 2636.6 762.833 2623.5 761.5 2617C763 2611.5 766.4 2600.4 768 2600C769.6 2599.6 760 2593.17 755 2590Z" stroke="black"/>
<path d="M799.5 2540.5C798.333 2546.67 796.4 2559.8 798 2563L791 2566C786.167 2563.5 776.1 2558.3 774.5 2557.5C772.9 2556.7 767.5 2552.5 765 2550.5C766 2546.67 768 2538.4 768 2536C768 2533 776.5 2528 776.5 2525.5C776.5 2523 781.5 2517.5 785.5 2516.5C788.7 2515.7 797.167 2506.5 801 2502C806 2496.5 816.2 2485.3 817 2484.5C817.8 2483.7 825 2481.5 828.5 2480.5V2496C828.5 2497 816 2513.5 814 2515C812.4 2516.2 806.333 2522.5 803.5 2525.5L799.5 2540.5Z" stroke="black"/>
<path d="M747 2025.5L758.5 2021H769L778 2025.5V2032.5C773 2033.33 762.1 2034.9 758.5 2034.5C754.9 2034.1 749.333 2033 747 2032.5V2025.5Z" stroke="black"/>
<path d="M794 1875L803.5 1866L812 1871L806 1879L794 1875Z" stroke="black"/>
<path d="M825 1616.5L828.5 1606L835.5 1608.5L832.5 1618.5L825 1616.5Z" stroke="black"/>
<path d="M819 1491L825 1481.5L832 1483.5L829.5 1495.5L819 1491Z" stroke="black"/>
<path d="M789 1259.5L793 1251.5L795.5 1248.5C797.667 1247.83 802.2 1246.5 803 1246.5C803.8 1246.5 807.333 1248.83 809 1250C809.333 1254.67 810 1264.3 810 1265.5C810 1266.7 801.667 1271.33 797.5 1273.5L790.5 1278.5V1283.5C788.667 1286.67 784.9 1293 784.5 1293C784.1 1293 781 1290.67 779.5 1289.5L782.5 1282.5L789 1278.5L790.5 1273.5V1267L789 1259.5Z" stroke="black"/>
<path d="M749.5 979L752 969.5C754.167 969 758.7 967.9 759.5 967.5C760.3 967.1 763.833 969.667 765.5 971C764.333 973.333 762 978.2 762 979C762 979.8 762.667 983.667 763 985.5L759.5 994V1001L752 1004V999L743.5 995L741.5 989.5L747.5 986.5L749.5 979Z" stroke="black"/>
</g>
<circle cx="797.511" cy="2520.51" r="9.01136" fill="#FF8F87" stroke="black"/>
<path d="M813.444 2560.05C813.373 2559.33 813.068 2558.77 812.529 2558.38C811.991 2557.98 811.26 2557.78 810.336 2557.78C809.709 2557.78 809.179 2557.87 808.747 2558.05C808.315 2558.22 807.984 2558.46 807.753 2558.77C807.528 2559.08 807.415 2559.43 807.415 2559.82C807.404 2560.14 807.472 2560.43 807.62 2560.67C807.774 2560.91 807.984 2561.12 808.25 2561.3C808.516 2561.47 808.824 2561.62 809.173 2561.75C809.522 2561.88 809.895 2561.98 810.292 2562.07L811.925 2562.46C812.719 2562.64 813.446 2562.88 814.109 2563.17C814.772 2563.47 815.346 2563.83 815.832 2564.26C816.317 2564.7 816.693 2565.21 816.959 2565.79C817.231 2566.38 817.371 2567.05 817.376 2567.81C817.371 2568.92 817.086 2569.88 816.524 2570.7C815.968 2571.51 815.163 2572.14 814.109 2572.59C813.062 2573.04 811.798 2573.26 810.319 2573.26C808.851 2573.26 807.572 2573.03 806.483 2572.58C805.4 2572.13 804.554 2571.47 803.944 2570.59C803.341 2569.7 803.024 2568.6 802.994 2567.29H806.714C806.756 2567.9 806.93 2568.41 807.238 2568.82C807.552 2569.22 807.969 2569.53 808.49 2569.73C809.016 2569.93 809.611 2570.03 810.274 2570.03C810.925 2570.03 811.49 2569.94 811.97 2569.75C812.455 2569.56 812.831 2569.3 813.097 2568.96C813.364 2568.62 813.497 2568.24 813.497 2567.8C813.497 2567.39 813.375 2567.05 813.133 2566.77C812.896 2566.49 812.547 2566.25 812.085 2566.06C811.629 2565.86 811.07 2565.68 810.407 2565.52L808.428 2565.03C806.895 2564.65 805.684 2564.07 804.797 2563.28C803.909 2562.49 803.468 2561.42 803.474 2560.07C803.468 2558.97 803.761 2558.01 804.353 2557.19C804.95 2556.37 805.77 2555.72 806.812 2555.26C807.853 2554.8 809.037 2554.57 810.363 2554.57C811.712 2554.57 812.89 2554.8 813.896 2555.26C814.908 2555.72 815.696 2556.37 816.258 2557.19C816.82 2558.01 817.11 2558.96 817.128 2560.05H813.444ZM823.78 2573.26C822.91 2573.26 822.134 2573.11 821.454 2572.8C820.773 2572.5 820.234 2572.04 819.838 2571.45C819.447 2570.84 819.252 2570.09 819.252 2569.19C819.252 2568.43 819.391 2567.8 819.669 2567.28C819.947 2566.77 820.326 2566.35 820.805 2566.04C821.285 2565.73 821.829 2565.49 822.439 2565.33C823.055 2565.17 823.7 2565.06 824.374 2564.99C825.167 2564.91 825.807 2564.83 826.292 2564.76C826.777 2564.68 827.129 2564.57 827.348 2564.42C827.567 2564.28 827.677 2564.06 827.677 2563.77V2563.71C827.677 2563.15 827.499 2562.72 827.144 2562.41C826.795 2562.1 826.298 2561.95 825.653 2561.95C824.972 2561.95 824.431 2562.1 824.028 2562.4C823.626 2562.7 823.359 2563.07 823.229 2563.52L819.731 2563.23C819.909 2562.41 820.258 2561.69 820.779 2561.09C821.3 2560.48 821.971 2560.01 822.794 2559.68C823.623 2559.35 824.582 2559.19 825.671 2559.19C826.428 2559.19 827.153 2559.27 827.846 2559.45C828.544 2559.63 829.162 2559.91 829.701 2560.28C830.246 2560.65 830.675 2561.13 830.988 2561.72C831.302 2562.3 831.459 2562.99 831.459 2563.8V2573H827.872V2571.11H827.766C827.547 2571.54 827.254 2571.91 826.887 2572.24C826.52 2572.56 826.079 2572.81 825.564 2572.99C825.049 2573.17 824.454 2573.26 823.78 2573.26ZM824.863 2570.65C825.419 2570.65 825.91 2570.54 826.336 2570.32C826.763 2570.09 827.097 2569.79 827.34 2569.41C827.582 2569.03 827.704 2568.61 827.704 2568.13V2566.68C827.585 2566.76 827.422 2566.83 827.215 2566.89C827.014 2566.95 826.786 2567.01 826.532 2567.06C826.277 2567.11 826.023 2567.15 825.768 2567.19C825.514 2567.23 825.283 2567.26 825.076 2567.29C824.632 2567.36 824.244 2567.46 823.913 2567.6C823.581 2567.74 823.324 2567.94 823.14 2568.18C822.957 2568.42 822.865 2568.71 822.865 2569.07C822.865 2569.58 823.052 2569.98 823.424 2570.25C823.803 2570.51 824.283 2570.65 824.863 2570.65ZM834.393 2573V2559.36H838.175V2573H834.393ZM836.293 2557.61C835.731 2557.61 835.248 2557.42 834.846 2557.05C834.449 2556.67 834.251 2556.21 834.251 2555.69C834.251 2555.17 834.449 2554.72 834.846 2554.35C835.248 2553.97 835.731 2553.78 836.293 2553.78C836.855 2553.78 837.335 2553.97 837.731 2554.35C838.134 2554.72 838.335 2555.17 838.335 2555.69C838.335 2556.21 838.134 2556.67 837.731 2557.05C837.335 2557.42 836.855 2557.61 836.293 2557.61ZM841.205 2578.11V2559.36H844.933V2561.65H845.102C845.268 2561.29 845.507 2560.91 845.821 2560.54C846.141 2560.15 846.555 2559.83 847.064 2559.58C847.579 2559.32 848.218 2559.19 848.982 2559.19C849.976 2559.19 850.893 2559.45 851.734 2559.97C852.574 2560.48 853.246 2561.26 853.749 2562.3C854.252 2563.34 854.504 2564.64 854.504 2566.2C854.504 2567.72 854.258 2569 853.767 2570.05C853.281 2571.09 852.618 2571.88 851.778 2572.42C850.944 2572.96 850.008 2573.22 848.973 2573.22C848.239 2573.22 847.614 2573.1 847.099 2572.86C846.59 2572.62 846.173 2572.31 845.848 2571.94C845.522 2571.57 845.274 2571.19 845.102 2570.82H844.987V2578.11H841.205ZM844.907 2566.18C844.907 2566.99 845.019 2567.7 845.244 2568.3C845.469 2568.91 845.794 2569.38 846.221 2569.72C846.647 2570.05 847.165 2570.21 847.774 2570.21C848.39 2570.21 848.911 2570.04 849.337 2569.71C849.763 2569.36 850.085 2568.89 850.304 2568.29C850.529 2567.68 850.642 2566.97 850.642 2566.18C850.642 2565.39 850.532 2564.7 850.313 2564.1C850.094 2563.51 849.772 2563.04 849.346 2562.7C848.919 2562.36 848.396 2562.2 847.774 2562.2C847.159 2562.2 846.638 2562.36 846.212 2562.68C845.791 2563.01 845.469 2563.47 845.244 2564.07C845.019 2564.67 844.907 2565.37 844.907 2566.18ZM860.913 2573.26C860.043 2573.26 859.268 2573.11 858.587 2572.8C857.907 2572.5 857.368 2572.04 856.972 2571.45C856.581 2570.84 856.386 2570.09 856.386 2569.19C856.386 2568.43 856.525 2567.8 856.803 2567.28C857.081 2566.77 857.46 2566.35 857.939 2566.04C858.419 2565.73 858.963 2565.49 859.573 2565.33C860.188 2565.17 860.833 2565.06 861.508 2564.99C862.301 2564.91 862.94 2564.83 863.426 2564.76C863.911 2564.68 864.263 2564.57 864.482 2564.42C864.701 2564.28 864.811 2564.06 864.811 2563.77V2563.71C864.811 2563.15 864.633 2562.72 864.278 2562.41C863.929 2562.1 863.432 2561.95 862.787 2561.95C862.106 2561.95 861.564 2562.1 861.162 2562.4C860.759 2562.7 860.493 2563.07 860.363 2563.52L856.865 2563.23C857.043 2562.41 857.392 2561.69 857.913 2561.09C858.433 2560.48 859.105 2560.01 859.928 2559.68C860.757 2559.35 861.715 2559.19 862.804 2559.19C863.562 2559.19 864.287 2559.27 864.979 2559.45C865.678 2559.63 866.296 2559.91 866.835 2560.28C867.379 2560.65 867.808 2561.13 868.122 2561.72C868.436 2562.3 868.593 2562.99 868.593 2563.8V2573H865.006V2571.11H864.9C864.681 2571.54 864.388 2571.91 864.021 2572.24C863.654 2572.56 863.213 2572.81 862.698 2572.99C862.183 2573.17 861.588 2573.26 860.913 2573.26ZM861.996 2570.65C862.553 2570.65 863.044 2570.54 863.47 2570.32C863.896 2570.09 864.231 2569.79 864.473 2569.41C864.716 2569.03 864.837 2568.61 864.837 2568.13V2566.68C864.719 2566.76 864.556 2566.83 864.349 2566.89C864.148 2566.95 863.92 2567.01 863.665 2567.06C863.411 2567.11 863.156 2567.15 862.902 2567.19C862.647 2567.23 862.417 2567.26 862.21 2567.29C861.766 2567.36 861.378 2567.46 861.047 2567.6C860.715 2567.74 860.458 2567.94 860.274 2568.18C860.091 2568.42 859.999 2568.71 859.999 2569.07C859.999 2569.58 860.185 2569.98 860.558 2570.25C860.937 2570.51 861.416 2570.65 861.996 2570.65ZM875.309 2565.12V2573H871.527V2559.36H875.131V2561.77H875.291C875.593 2560.98 876.099 2560.35 876.809 2559.89C877.519 2559.42 878.381 2559.19 879.393 2559.19C880.34 2559.19 881.165 2559.39 881.869 2559.81C882.574 2560.22 883.121 2560.81 883.512 2561.58C883.903 2562.35 884.098 2563.26 884.098 2564.32V2573H880.316V2564.99C880.322 2564.16 880.109 2563.51 879.677 2563.04C879.245 2562.57 878.65 2562.33 877.892 2562.33C877.383 2562.33 876.933 2562.44 876.543 2562.66C876.158 2562.88 875.856 2563.2 875.637 2563.62C875.424 2564.03 875.315 2564.53 875.309 2565.12Z" fill="black"/>
<defs>
<filter id="filter0_d_281_39" x="421.282" y="215.185" width="418.834" height="2783.34" filterUnits="userSpaceOnUse" color-interpolation-filters="sRGB">
<feFlood flood-opacity="0" result="BackgroundImageFix"/>
<feColorMatrix in="SourceAlpha" type="matrix" values="0 0 0 0 0 0 0 0 0 0 0 0 0 0 0 0 0 0 127 0" result="hardAlpha"/>
<feOffset dy="4"/>
<feGaussianBlur stdDeviation="2"/>
<feComposite in2="hardAlpha" operator="out"/>
<feColorMatrix type="matrix" values="0 0 0 0 0 0 0 0 0 0 0 0 0 0 0 0 0 0 0.25 0"/>
<feBlend mode="normal" in2="BackgroundImageFix" result="effect1_dropShadow_281_39"/>
<feBlend mode="normal" in="SourceGraphic" in2="effect1_dropShadow_281_39" result="shape"/>
</filter>
</defs>
</svg>
