<svg width="1197" height="722" viewBox="0 0 1197 722" fill="none" xmlns="http://www.w3.org/2000/svg">
<rect x="0.5" y="0.5" width="1196" height="721" rx="35.5" fill="#97DCFF" stroke="#717171"/>
<g filter="url(#filter0_d_275_2)">
<path d="M335 338.5L341.5 351L346 354L357.5 356L359 358.5L361.5 366.5L366 375L367.5 382L374 389.5L370.5 399L361.5 409.5L366 414.5L361.5 421L364 436L359 438.5H357.5V446.5H359L361.5 448L357.5 450V458L355 462.5L361.5 466L367.5 468.5L366 474.5L355 478.5L353.5 481L350.5 487.5L352 498L359 500V507H364L361.5 504V500V496L364 495L369 493.5L372.5 498H380.5L388 500H395.5L399 498L400.5 493.5L406.5 489.5H421L430.5 492L437 495L436 492H441.5L443 496L447.5 500L455 507L459.5 505.5C461.5 506.833 465.8 509.5 467 509.5C468.2 509.5 467.5 506.833 467 505.5L464 502.5L473 498V496L476.5 500L488 498L489.5 502.5L492.5 498H500.5H507.5C508.7 498 511.333 495 512.5 493.5L522.5 489.5V484.5L517.5 489.5L514 487.5V484.5H517.5V481H520L528.5 476.5L534.5 478.5V487.5L537 483H549L554 487.5L566 489.5L569 492L578.5 487.5L584 486L588.5 489.5V492L591 493.5L593 492H599.5L602.5 493.5L612.5 492L616 489.5H621.5L636 483H639.5H644H651L657 487.5L664.5 495.5H668.5L674 500.5L680.5 504.5L687 498L699.5 489.5L708.5 487.5L713.5 493.5L720.5 495.5V502.5L724 500.5L728.5 502.5L736 506L753 495.5L764.5 500.5L760 504.5L751 502.5L753 509.5L757.5 506H762L774 508L785.5 500.5H791L797.5 495.5L802 493.5H805.5L815.5 498L819.5 495.5C821.833 493.5 826.5 489.1 826.5 487.5C826.5 485.9 833.5 486.833 837 487.5L845.5 491H847H852.5L869 487.5L879 483H881.5L887 476H892L897.5 471.5L902 464V455.5L907.5 452.5L910 455.5L917 452.5L915.5 447.5L919 442.5V438.5L923.5 428.5C925 424.5 928.1 416.3 928.5 415.5C928.9 414.7 935.667 409.833 939 407.5L945.5 400.5L958.5 404L956.5 398L970 392L977 395L985 392L980.5 388.456L989 389L993 384L998 382L993 377.5L996 375L1000 372L993 369L987.5 372L983 369L985 362.5L983 356.5L985 353V343.5L983 333.5L987.5 323L989 317H985L980.5 323L977 320L972 326H964L961.5 323H956.5C954.333 322 949.7 320 948.5 320C947.3 320 940.667 318 937.5 317L926.5 309.5V304.5L919 306.5V302L913.5 306.5L907.5 304.5L903 299L894 296.5L884.5 294.5L874.5 288.5L869 290L864.5 291L854 289.5L845 285.5H839.5L838.5 288.5L834 291L827.5 292.5L822.5 291L819.5 287H809.5C808.3 287 804 285.333 802 284.5L800.5 283L787.5 282L789.5 285.5H795.5L793.5 287L796.5 288.5L803 292.5C801.333 293.667 797.9 296.1 797.5 296.5C797.1 296.9 793 294.333 791 293L781 288.5L779 284.5L772 288.5H767L762 285.5V280L754.5 283C750.833 282.667 743.3 282 742.5 282C741.7 282 738.167 280 736.5 279L732 278H725L721.5 280L717.5 278L711.5 279L700.5 275L685 273.5L683 276L680.5 273.5L676 272L659.5 275L655.5 281L652 282L635 279L626 275L620.5 276L617 274L602 275L587 271.5H580.5L578.5 272.5H567.5L561 276H557L550 283.5L522 272.5H498.5L476 275C473.167 275.167 467.1 274.9 465.5 272.5C463.9 270.1 452.833 271.5 447.5 272.5L434 263.5H406H383.5L375 272.5L370.5 277.5V283.5L375 300L363 311L349.5 317.5L329 324V327.5L335 338.5Z" fill="#FFD597"/>
<path d="M64 432.5L62 439.5V445.5L67 448.5L78.5 456L89 453.5L92.5 448.5L96 445.5L100.5 439.5L97.5 430.5L92.5 427.5L86.5 430.5L77 429L72.5 427.5L64 432.5Z" fill="#FFD597"/>
<path d="M1004 428.5V435.5L1006 438.5L1009.5 441.5L1015 443L1022 444.5L1035 439.5L1043.5 438.5L1052.5 439.5L1054.5 441.5L1059 438L1060 439.5L1066.5 437L1062.5 434V433L1068.5 435L1078 431.5L1081.5 431L1084.5 434L1088.5 427H1095L1093 431H1097.5L1099 428.5L1107 425.5L1112 424V422L1117.5 424L1125.5 422L1119 416.5L1113.5 419.5L1104 416.5L1093 413L1083 411.5H1077H1069.5L1064.5 413L1061 411.5L1057.5 413L1055.5 416.5L1043.5 419.5L1037.5 422H1029.5V424L1016 428.5H1004Z" fill="#FFD597"/>
<path d="M1109 349.5L1119 359H1121V355L1115 351V348H1119C1120.5 348.5 1123.9 349.8 1125.5 351C1127.5 352.5 1129.5 353 1131.5 353C1133.1 353 1132.17 349.667 1131.5 348C1132.17 348.5 1134.4 349.2 1138 348C1139.2 346.8 1140.5 347.5 1141 348L1138 343.5L1133.5 339L1129.5 341.5L1125.5 339H1107L1101 332L1098 333.5L1101 337L1102.5 341.5L1099.5 343.5H1093L1098 345.5L1102.5 353L1104 349.5V345.5L1109 349.5Z" fill="#FFD597"/>
<path d="M335 338.5L341.5 351L346 354L357.5 356L359 358.5L361.5 366.5L366 375L367.5 382L374 389.5L370.5 399L361.5 409.5L366 414.5L361.5 421L364 436L359 438.5H357.5V446.5H359L361.5 448L357.5 450V458L355 462.5L361.5 466L367.5 468.5L366 474.5L355 478.5L353.5 481L350.5 487.5L352 498L359 500V507H364L361.5 504V500V496L364 495L369 493.5L372.5 498H380.5L388 500H395.5L399 498L400.5 493.5L406.5 489.5H421L430.5 492L437 495L436 492H441.5L443 496L447.5 500L455 507L459.5 505.5C461.5 506.833 465.8 509.5 467 509.5C468.2 509.5 467.5 506.833 467 505.5L464 502.5L473 498V496L476.5 500L488 498L489.5 502.5L492.5 498H500.5H507.5C508.7 498 511.333 495 512.5 493.5L522.5 489.5V484.5L517.5 489.5L514 487.5V484.5H517.5V481H520L528.5 476.5L534.5 478.5V487.5L537 483H549L554 487.5L566 489.5L569 492L578.5 487.5L584 486L588.5 489.5V492L591 493.5L593 492H599.5L602.5 493.5L612.5 492L616 489.5H621.5L636 483H639.5H644H651L657 487.5L664.5 495.5H668.5L674 500.5L680.5 504.5L687 498L699.5 489.5L708.5 487.5L713.5 493.5L720.5 495.5V502.5L724 500.5L728.5 502.5L736 506L753 495.5L764.5 500.5L760 504.5L751 502.5L753 509.5L757.5 506H762L774 508L785.5 500.5H791L797.5 495.5L802 493.5H805.5L815.5 498L819.5 495.5C821.833 493.5 826.5 489.1 826.5 487.5C826.5 485.9 833.5 486.833 837 487.5L845.5 491H847H852.5L869 487.5L879 483H881.5L887 476H892L897.5 471.5L902 464V455.5L907.5 452.5L910 455.5L917 452.5L915.5 447.5L919 442.5V438.5L923.5 428.5C925 424.5 928.1 416.3 928.5 415.5C928.9 414.7 935.667 409.833 939 407.5L945.5 400.5L958.5 404L956.5 398L970 392L977 395L985 392L980.5 388.456L989 389L993 384L998 382L993 377.5L996 375L1000 372L993 369L987.5 372L983 369L985 362.5L983 356.5L985 353V343.5L983 333.5L987.5 323L989 317H985L980.5 323L977 320L972 326H964L961.5 323H956.5C954.333 322 949.7 320 948.5 320C947.3 320 940.667 318 937.5 317L926.5 309.5V304.5L919 306.5V302L913.5 306.5L907.5 304.5L903 299L894 296.5L884.5 294.5L874.5 288.5L869 290L864.5 291L854 289.5L845 285.5H839.5L838.5 288.5L834 291L827.5 292.5L822.5 291L819.5 287H809.5C808.3 287 804 285.333 802 284.5L800.5 283L787.5 282L789.5 285.5H795.5L793.5 287L796.5 288.5L803 292.5C801.333 293.667 797.9 296.1 797.5 296.5C797.1 296.9 793 294.333 791 293L781 288.5L779 284.5L772 288.5H767L762 285.5V280L754.5 283C750.833 282.667 743.3 282 742.5 282C741.7 282 738.167 280 736.5 279L732 278H725L721.5 280L717.5 278L711.5 279L700.5 275L685 273.5L683 276L680.5 273.5L676 272L659.5 275L655.5 281L652 282L635 279L626 275L620.5 276L617 274L602 275L587 271.5H580.5L578.5 272.5H567.5L561 276H557L550 283.5L522 272.5H498.5L476 275C473.167 275.167 467.1 274.9 465.5 272.5C463.9 270.1 452.833 271.5 447.5 272.5L434 263.5H406H383.5L375 272.5L370.5 277.5V283.5L375 300L363 311L349.5 317.5L329 324V327.5L335 338.5Z" stroke="black"/>
<path d="M64 432.5L62 439.5V445.5L67 448.5L78.5 456L89 453.5L92.5 448.5L96 445.5L100.5 439.5L97.5 430.5L92.5 427.5L86.5 430.5L77 429L72.5 427.5L64 432.5Z" stroke="black"/>
<path d="M1004 428.5V435.5L1006 438.5L1009.5 441.5L1015 443L1022 444.5L1035 439.5L1043.5 438.5L1052.5 439.5L1054.5 441.5L1059 438L1060 439.5L1066.5 437L1062.5 434V433L1068.5 435L1078 431.5L1081.5 431L1084.5 434L1088.5 427H1095L1093 431H1097.5L1099 428.5L1107 425.5L1112 424V422L1117.5 424L1125.5 422L1119 416.5L1113.5 419.5L1104 416.5L1093 413L1083 411.5H1077H1069.5L1064.5 413L1061 411.5L1057.5 413L1055.5 416.5L1043.5 419.5L1037.5 422H1029.5V424L1016 428.5H1004Z" stroke="black"/>
<path d="M1109 349.5L1119 359H1121V355L1115 351V348H1119C1120.5 348.5 1123.9 349.8 1125.5 351C1127.5 352.5 1129.5 353 1131.5 353C1133.1 353 1132.17 349.667 1131.5 348C1132.17 348.5 1134.4 349.2 1138 348C1139.2 346.8 1140.5 347.5 1141 348L1138 343.5L1133.5 339L1129.5 341.5L1125.5 339H1107L1101 332L1098 333.5L1101 337L1102.5 341.5L1099.5 343.5H1093L1098 345.5L1102.5 353L1104 349.5V345.5L1109 349.5Z" stroke="black"/>
</g>
<circle cx="810.011" cy="301.511" r="9.01136" fill="#FF8F87" stroke="black"/>
<path d="M763.944 261.047C763.873 260.331 763.568 259.775 763.029 259.378C762.491 258.982 761.76 258.783 760.836 258.783C760.209 258.783 759.679 258.872 759.247 259.05C758.815 259.221 758.484 259.461 758.253 259.769C758.028 260.077 757.915 260.426 757.915 260.816C757.904 261.142 757.972 261.426 758.12 261.669C758.274 261.911 758.484 262.121 758.75 262.299C759.016 262.471 759.324 262.622 759.673 262.752C760.022 262.876 760.395 262.983 760.792 263.071L762.425 263.462C763.219 263.64 763.946 263.876 764.609 264.172C765.272 264.468 765.846 264.832 766.332 265.264C766.817 265.696 767.193 266.205 767.459 266.791C767.731 267.377 767.871 268.049 767.876 268.806C767.871 269.919 767.586 270.884 767.024 271.701C766.468 272.511 765.663 273.142 764.609 273.592C763.562 274.036 762.298 274.257 760.819 274.257C759.351 274.257 758.072 274.033 756.983 273.583C755.9 273.133 755.054 272.467 754.444 271.585C753.841 270.697 753.524 269.6 753.494 268.292H757.214C757.256 268.901 757.43 269.41 757.738 269.819C758.052 270.221 758.469 270.526 758.99 270.733C759.516 270.934 760.111 271.035 760.774 271.035C761.425 271.035 761.99 270.94 762.47 270.751C762.955 270.561 763.331 270.298 763.597 269.961C763.864 269.623 763.997 269.236 763.997 268.798C763.997 268.389 763.875 268.046 763.633 267.768C763.396 267.49 763.047 267.253 762.585 267.058C762.129 266.862 761.57 266.685 760.907 266.525L758.928 266.028C757.395 265.655 756.184 265.072 755.297 264.279C754.409 263.486 753.968 262.417 753.974 261.074C753.968 259.973 754.261 259.011 754.853 258.189C755.45 257.366 756.27 256.724 757.312 256.262C758.353 255.8 759.537 255.57 760.863 255.57C762.212 255.57 763.39 255.8 764.396 256.262C765.408 256.724 766.196 257.366 766.758 258.189C767.32 259.011 767.61 259.964 767.628 261.047H763.944ZM774.28 274.257C773.41 274.257 772.634 274.107 771.954 273.805C771.273 273.497 770.734 273.044 770.338 272.446C769.947 271.843 769.752 271.091 769.752 270.191C769.752 269.434 769.891 268.798 770.169 268.283C770.447 267.768 770.826 267.353 771.305 267.04C771.785 266.726 772.329 266.489 772.939 266.33C773.555 266.17 774.2 266.057 774.874 265.992C775.667 265.909 776.307 265.832 776.792 265.761C777.277 265.684 777.629 265.572 777.848 265.424C778.067 265.276 778.177 265.057 778.177 264.767V264.714C778.177 264.152 777.999 263.717 777.644 263.409C777.295 263.101 776.798 262.947 776.153 262.947C775.472 262.947 774.931 263.098 774.528 263.4C774.126 263.696 773.859 264.069 773.729 264.518L770.231 264.234C770.409 263.406 770.758 262.69 771.279 262.086C771.8 261.476 772.471 261.009 773.294 260.683C774.123 260.352 775.082 260.186 776.171 260.186C776.928 260.186 777.653 260.275 778.346 260.452C779.044 260.63 779.662 260.905 780.201 261.278C780.746 261.651 781.175 262.13 781.488 262.716C781.802 263.296 781.959 263.992 781.959 264.803V274H778.372V272.109H778.266C778.047 272.535 777.754 272.911 777.387 273.237C777.02 273.556 776.579 273.808 776.064 273.991C775.549 274.169 774.954 274.257 774.28 274.257ZM775.363 271.647C775.919 271.647 776.41 271.538 776.836 271.319C777.263 271.094 777.597 270.792 777.84 270.413C778.082 270.035 778.204 269.605 778.204 269.126V267.679C778.085 267.756 777.922 267.827 777.715 267.892C777.514 267.951 777.286 268.007 777.032 268.061C776.777 268.108 776.523 268.152 776.268 268.194C776.014 268.229 775.783 268.262 775.576 268.292C775.132 268.357 774.744 268.46 774.413 268.602C774.081 268.744 773.824 268.937 773.64 269.179C773.457 269.416 773.365 269.712 773.365 270.067C773.365 270.582 773.552 270.976 773.924 271.248C774.303 271.514 774.783 271.647 775.363 271.647ZM788.675 266.116V274H784.893V260.364H788.497V262.77H788.657C788.959 261.976 789.465 261.349 790.175 260.887C790.886 260.42 791.747 260.186 792.759 260.186C793.706 260.186 794.531 260.393 795.236 260.808C795.94 261.222 796.487 261.814 796.878 262.583C797.269 263.347 797.464 264.258 797.464 265.317V274H793.682V265.992C793.688 265.158 793.475 264.507 793.043 264.039C792.611 263.566 792.016 263.329 791.258 263.329C790.749 263.329 790.3 263.438 789.909 263.657C789.524 263.876 789.222 264.196 789.003 264.616C788.79 265.03 788.681 265.531 788.675 266.116ZM813.582 255.818H817.381V268.496C817.381 269.668 817.118 270.686 816.591 271.55C816.071 272.414 815.345 273.08 814.416 273.547C813.487 274.015 812.407 274.249 811.176 274.249C810.081 274.249 809.087 274.056 808.193 273.672C807.305 273.281 806.601 272.689 806.08 271.896C805.559 271.097 805.302 270.094 805.308 268.886H809.134C809.146 269.366 809.243 269.777 809.427 270.12C809.616 270.458 809.874 270.718 810.199 270.902C810.531 271.079 810.921 271.168 811.371 271.168C811.845 271.168 812.244 271.067 812.57 270.866C812.901 270.659 813.153 270.357 813.324 269.961C813.496 269.564 813.582 269.076 813.582 268.496V255.818ZM829.233 268.194V260.364H833.015V274H829.384V271.523H829.242C828.935 272.322 828.423 272.964 827.706 273.45C826.996 273.935 826.129 274.178 825.105 274.178C824.194 274.178 823.392 273.97 822.699 273.556C822.007 273.142 821.465 272.553 821.075 271.789C820.69 271.026 820.495 270.112 820.489 269.046V260.364H824.271V268.371C824.277 269.176 824.493 269.813 824.919 270.28C825.345 270.748 825.916 270.982 826.632 270.982C827.088 270.982 827.514 270.878 827.911 270.671C828.307 270.458 828.627 270.144 828.869 269.73C829.118 269.315 829.239 268.804 829.233 268.194ZM839.929 274.257C839.059 274.257 838.284 274.107 837.603 273.805C836.922 273.497 836.384 273.044 835.987 272.446C835.597 271.843 835.401 271.091 835.401 270.191C835.401 269.434 835.54 268.798 835.819 268.283C836.097 267.768 836.475 267.353 836.955 267.04C837.434 266.726 837.979 266.489 838.588 266.33C839.204 266.17 839.849 266.057 840.524 265.992C841.317 265.909 841.956 265.832 842.441 265.761C842.927 265.684 843.279 265.572 843.498 265.424C843.717 265.276 843.826 265.057 843.826 264.767V264.714C843.826 264.152 843.649 263.717 843.294 263.409C842.944 263.101 842.447 262.947 841.802 262.947C841.122 262.947 840.58 263.098 840.178 263.4C839.775 263.696 839.509 264.069 839.379 264.518L835.881 264.234C836.058 263.406 836.407 262.69 836.928 262.086C837.449 261.476 838.121 261.009 838.944 260.683C839.772 260.352 840.731 260.186 841.82 260.186C842.578 260.186 843.303 260.275 843.995 260.452C844.693 260.63 845.312 260.905 845.85 261.278C846.395 261.651 846.824 262.13 847.138 262.716C847.451 263.296 847.608 263.992 847.608 264.803V274H844.022V272.109H843.915C843.696 272.535 843.403 272.911 843.036 273.237C842.669 273.556 842.228 273.808 841.713 273.991C841.199 274.169 840.604 274.257 839.929 274.257ZM841.012 271.647C841.568 271.647 842.06 271.538 842.486 271.319C842.912 271.094 843.246 270.792 843.489 270.413C843.732 270.035 843.853 269.605 843.853 269.126V267.679C843.735 267.756 843.572 267.827 843.365 267.892C843.163 267.951 842.936 268.007 842.681 268.061C842.427 268.108 842.172 268.152 841.918 268.194C841.663 268.229 841.432 268.262 841.225 268.292C840.781 268.357 840.394 268.46 840.062 268.602C839.731 268.744 839.473 268.937 839.29 269.179C839.106 269.416 839.015 269.712 839.015 270.067C839.015 270.582 839.201 270.976 839.574 271.248C839.953 271.514 840.432 271.647 841.012 271.647ZM854.324 266.116V274H850.542V260.364H854.147V262.77H854.307C854.608 261.976 855.115 261.349 855.825 260.887C856.535 260.42 857.396 260.186 858.408 260.186C859.355 260.186 860.181 260.393 860.885 260.808C861.589 261.222 862.137 261.814 862.528 262.583C862.918 263.347 863.113 264.258 863.113 265.317V274H859.331V265.992C859.337 265.158 859.124 264.507 858.692 264.039C858.26 263.566 857.665 263.329 856.908 263.329C856.399 263.329 855.949 263.438 855.558 263.657C855.174 263.876 854.872 264.196 854.653 264.616C854.44 265.03 854.33 265.531 854.324 266.116Z" fill="black"/>
<path d="M688.702 349V330.818H695.058C696.325 330.818 697.369 331.037 698.192 331.475C699.015 331.907 699.627 332.49 700.03 333.224C700.432 333.952 700.634 334.76 700.634 335.648C700.634 336.429 700.494 337.074 700.216 337.583C699.944 338.092 699.583 338.495 699.133 338.79C698.689 339.086 698.207 339.305 697.686 339.447V339.625C698.242 339.661 698.802 339.856 699.364 340.211C699.926 340.566 700.397 341.075 700.776 341.738C701.154 342.401 701.344 343.212 701.344 344.17C701.344 345.082 701.137 345.902 700.722 346.63C700.308 347.358 699.654 347.935 698.76 348.361C697.867 348.787 696.704 349 695.271 349H688.702ZM690.903 347.047H695.271C696.71 347.047 697.73 346.769 698.334 346.212C698.944 345.65 699.249 344.969 699.249 344.17C699.249 343.555 699.092 342.987 698.778 342.466C698.464 341.939 698.018 341.519 697.438 341.205C696.857 340.886 696.171 340.726 695.378 340.726H690.903V347.047ZM690.903 338.808H694.987C695.65 338.808 696.248 338.678 696.781 338.418C697.319 338.157 697.745 337.79 698.059 337.317C698.379 336.843 698.538 336.287 698.538 335.648C698.538 334.849 698.26 334.171 697.704 333.615C697.147 333.052 696.266 332.771 695.058 332.771H690.903V338.808ZM708.69 349.32C707.826 349.32 707.042 349.157 706.338 348.831C705.633 348.5 705.074 348.023 704.66 347.402C704.245 346.775 704.038 346.017 704.038 345.129C704.038 344.348 704.192 343.715 704.5 343.229C704.808 342.738 705.219 342.353 705.734 342.075C706.249 341.797 706.817 341.59 707.438 341.454C708.066 341.312 708.696 341.199 709.329 341.116C710.158 341.01 710.83 340.93 711.345 340.877C711.865 340.818 712.244 340.72 712.481 340.584C712.724 340.448 712.845 340.211 712.845 339.874V339.803C712.845 338.927 712.605 338.246 712.126 337.761C711.652 337.275 710.933 337.033 709.969 337.033C708.968 337.033 708.184 337.252 707.616 337.69C707.048 338.128 706.648 338.595 706.417 339.092L704.429 338.382C704.784 337.554 705.257 336.908 705.849 336.447C706.447 335.979 707.098 335.654 707.802 335.47C708.513 335.281 709.211 335.186 709.898 335.186C710.336 335.186 710.839 335.239 711.407 335.346C711.981 335.446 712.534 335.657 713.067 335.976C713.606 336.296 714.052 336.778 714.407 337.423C714.763 338.068 714.94 338.933 714.94 340.016V349H712.845V347.153H712.738C712.596 347.449 712.36 347.766 712.028 348.103C711.697 348.441 711.256 348.728 710.705 348.964C710.155 349.201 709.483 349.32 708.69 349.32ZM709.01 347.438C709.838 347.438 710.537 347.275 711.105 346.949C711.679 346.624 712.111 346.203 712.401 345.689C712.697 345.174 712.845 344.632 712.845 344.064V342.146C712.756 342.253 712.561 342.35 712.259 342.439C711.963 342.522 711.62 342.596 711.229 342.661C710.845 342.72 710.469 342.774 710.102 342.821C709.741 342.862 709.448 342.898 709.223 342.928C708.678 342.999 708.169 343.114 707.696 343.274C707.228 343.428 706.849 343.661 706.559 343.975C706.275 344.283 706.133 344.703 706.133 345.236C706.133 345.964 706.403 346.514 706.941 346.887C707.486 347.254 708.175 347.438 709.01 347.438ZM719.625 354.114C719.27 354.114 718.954 354.084 718.676 354.025C718.397 353.972 718.205 353.918 718.098 353.865L718.631 352.018C719.14 352.149 719.59 352.196 719.981 352.161C720.371 352.125 720.717 351.95 721.019 351.637C721.327 351.329 721.608 350.829 721.863 350.136L722.253 349.071L717.211 335.364H719.483L723.248 346.23H723.39L727.154 335.364H729.427L723.638 350.989C723.378 351.693 723.055 352.276 722.671 352.738C722.286 353.205 721.839 353.551 721.33 353.776C720.827 354.001 720.259 354.114 719.625 354.114ZM735.79 349.32C734.926 349.32 734.141 349.157 733.437 348.831C732.733 348.5 732.174 348.023 731.759 347.402C731.345 346.775 731.138 346.017 731.138 345.129C731.138 344.348 731.292 343.715 731.599 343.229C731.907 342.738 732.319 342.353 732.833 342.075C733.348 341.797 733.917 341.59 734.538 341.454C735.165 341.312 735.796 341.199 736.429 341.116C737.258 341.01 737.929 340.93 738.444 340.877C738.965 340.818 739.344 340.72 739.581 340.584C739.823 340.448 739.945 340.211 739.945 339.874V339.803C739.945 338.927 739.705 338.246 739.225 337.761C738.752 337.275 738.033 337.033 737.068 337.033C736.068 337.033 735.284 337.252 734.716 337.69C734.147 338.128 733.748 338.595 733.517 339.092L731.528 338.382C731.884 337.554 732.357 336.908 732.949 336.447C733.547 335.979 734.198 335.654 734.902 335.47C735.612 335.281 736.311 335.186 736.997 335.186C737.435 335.186 737.938 335.239 738.506 335.346C739.08 335.446 739.634 335.657 740.167 335.976C740.705 336.296 741.152 336.778 741.507 337.423C741.862 338.068 742.04 338.933 742.04 340.016V349H739.945V347.153H739.838C739.696 347.449 739.459 347.766 739.128 348.103C738.796 348.441 738.355 348.728 737.805 348.964C737.255 349.201 736.583 349.32 735.79 349.32ZM736.109 347.438C736.938 347.438 737.636 347.275 738.205 346.949C738.779 346.624 739.211 346.203 739.501 345.689C739.797 345.174 739.945 344.632 739.945 344.064V342.146C739.856 342.253 739.661 342.35 739.359 342.439C739.063 342.522 738.719 342.596 738.329 342.661C737.944 342.72 737.568 342.774 737.201 342.821C736.84 342.862 736.547 342.898 736.322 342.928C735.778 342.999 735.269 343.114 734.795 343.274C734.328 343.428 733.949 343.661 733.659 343.975C733.375 344.283 733.233 344.703 733.233 345.236C733.233 345.964 733.502 346.514 734.041 346.887C734.585 347.254 735.275 347.438 736.109 347.438ZM745.864 349V335.364H747.888V337.494H748.066C748.35 336.766 748.808 336.201 749.442 335.799C750.075 335.39 750.835 335.186 751.723 335.186C752.623 335.186 753.372 335.39 753.969 335.799C754.573 336.201 755.044 336.766 755.381 337.494H755.523C755.872 336.79 756.396 336.231 757.094 335.816C757.793 335.396 758.63 335.186 759.607 335.186C760.826 335.186 761.823 335.568 762.599 336.331C763.374 337.089 763.762 338.27 763.762 339.874V349H761.666V339.874C761.666 338.867 761.391 338.148 760.841 337.716C760.29 337.284 759.642 337.068 758.897 337.068C757.938 337.068 757.195 337.358 756.668 337.938C756.141 338.512 755.878 339.24 755.878 340.122V349H753.747V339.661C753.747 338.885 753.496 338.261 752.993 337.787C752.49 337.308 751.842 337.068 751.049 337.068C750.504 337.068 749.995 337.213 749.522 337.503C749.054 337.793 748.675 338.196 748.385 338.711C748.101 339.22 747.959 339.808 747.959 340.477V349H745.864ZM773.132 349.284C771.901 349.284 770.821 348.991 769.892 348.405C768.968 347.819 768.246 347 767.726 345.946C767.211 344.893 766.953 343.661 766.953 342.253C766.953 340.832 767.211 339.592 767.726 338.533C768.246 337.474 768.968 336.651 769.892 336.065C770.821 335.479 771.901 335.186 773.132 335.186C774.363 335.186 775.44 335.479 776.364 336.065C777.293 336.651 778.015 337.474 778.53 338.533C779.051 339.592 779.311 340.832 779.311 342.253C779.311 343.661 779.051 344.893 778.53 345.946C778.015 347 777.293 347.819 776.364 348.405C775.44 348.991 774.363 349.284 773.132 349.284ZM773.132 347.402C774.067 347.402 774.837 347.162 775.44 346.683C776.044 346.203 776.491 345.573 776.781 344.792C777.071 344.011 777.216 343.164 777.216 342.253C777.216 341.341 777.071 340.492 776.781 339.705C776.491 338.918 776.044 338.281 775.44 337.796C774.837 337.311 774.067 337.068 773.132 337.068C772.197 337.068 771.428 337.311 770.824 337.796C770.22 338.281 769.773 338.918 769.483 339.705C769.193 340.492 769.048 341.341 769.048 342.253C769.048 343.164 769.193 344.011 769.483 344.792C769.773 345.573 770.22 346.203 770.824 346.683C771.428 347.162 772.197 347.402 773.132 347.402ZM772.173 333.517L774.34 329.398H776.79L774.02 333.517H772.173ZM784.605 340.797V349H782.509V335.364H784.534V337.494H784.711C785.031 336.802 785.516 336.246 786.167 335.825C786.818 335.399 787.659 335.186 788.688 335.186C789.612 335.186 790.42 335.375 791.112 335.754C791.805 336.127 792.343 336.695 792.728 337.459C793.113 338.216 793.305 339.175 793.305 340.335V349H791.21V340.477C791.21 339.406 790.932 338.571 790.375 337.974C789.819 337.37 789.055 337.068 788.085 337.068C787.416 337.068 786.818 337.213 786.291 337.503C785.771 337.793 785.359 338.216 785.057 338.773C784.756 339.329 784.605 340.004 784.605 340.797Z" fill="black"/>
<path d="M551.702 454V435.818H557.845C559.272 435.818 560.438 436.076 561.343 436.591C562.254 437.1 562.929 437.789 563.367 438.659C563.805 439.529 564.024 440.5 564.024 441.571C564.024 442.642 563.805 443.616 563.367 444.492C562.935 445.368 562.266 446.066 561.361 446.587C560.455 447.102 559.295 447.359 557.881 447.359H553.477V445.406H557.81C558.786 445.406 559.57 445.238 560.162 444.9C560.754 444.563 561.183 444.107 561.45 443.533C561.722 442.953 561.858 442.299 561.858 441.571C561.858 440.843 561.722 440.192 561.45 439.618C561.183 439.044 560.751 438.594 560.153 438.268C559.556 437.937 558.763 437.771 557.774 437.771H553.903V454H551.702ZM572.68 454.284C571.449 454.284 570.369 453.991 569.44 453.405C568.516 452.819 567.794 452 567.273 450.946C566.759 449.893 566.501 448.661 566.501 447.253C566.501 445.832 566.759 444.592 567.273 443.533C567.794 442.474 568.516 441.651 569.44 441.065C570.369 440.479 571.449 440.186 572.68 440.186C573.911 440.186 574.988 440.479 575.912 441.065C576.841 441.651 577.563 442.474 578.078 443.533C578.599 444.592 578.859 445.832 578.859 447.253C578.859 448.661 578.599 449.893 578.078 450.946C577.563 452 576.841 452.819 575.912 453.405C574.988 453.991 573.911 454.284 572.68 454.284ZM572.68 452.402C573.615 452.402 574.385 452.162 574.988 451.683C575.592 451.203 576.039 450.573 576.329 449.792C576.619 449.011 576.764 448.164 576.764 447.253C576.764 446.341 576.619 445.492 576.329 444.705C576.039 443.918 575.592 443.281 574.988 442.796C574.385 442.311 573.615 442.068 572.68 442.068C571.745 442.068 570.975 442.311 570.372 442.796C569.768 443.281 569.321 443.918 569.031 444.705C568.741 445.492 568.596 446.341 568.596 447.253C568.596 448.164 568.741 449.011 569.031 449.792C569.321 450.573 569.768 451.203 570.372 451.683C570.975 452.162 571.745 452.402 572.68 452.402ZM584.152 445.797V454H582.057V440.364H584.081V442.494H584.259C584.579 441.802 585.064 441.246 585.715 440.825C586.366 440.399 587.206 440.186 588.236 440.186C589.16 440.186 589.967 440.375 590.66 440.754C591.352 441.127 591.891 441.695 592.276 442.459C592.66 443.216 592.853 444.175 592.853 445.335V454H590.758V445.477C590.758 444.406 590.479 443.571 589.923 442.974C589.367 442.37 588.603 442.068 587.633 442.068C586.964 442.068 586.366 442.213 585.839 442.503C585.318 442.793 584.907 443.216 584.605 443.773C584.303 444.329 584.152 445.004 584.152 445.797ZM602.221 454.284C600.943 454.284 599.842 453.982 598.919 453.379C597.995 452.775 597.285 451.943 596.788 450.884C596.291 449.824 596.042 448.614 596.042 447.253C596.042 445.868 596.297 444.646 596.806 443.586C597.32 442.521 598.037 441.689 598.954 441.092C599.877 440.488 600.954 440.186 602.186 440.186C603.144 440.186 604.008 440.364 604.778 440.719C605.547 441.074 606.178 441.571 606.669 442.21C607.16 442.849 607.465 443.595 607.583 444.447H605.488C605.328 443.826 604.973 443.276 604.423 442.796C603.878 442.311 603.144 442.068 602.221 442.068C601.404 442.068 600.688 442.281 600.073 442.707C599.463 443.128 598.987 443.722 598.643 444.492C598.306 445.255 598.137 446.152 598.137 447.182C598.137 448.235 598.303 449.153 598.634 449.934C598.972 450.715 599.445 451.322 600.055 451.754C600.67 452.186 601.392 452.402 602.221 452.402C602.766 452.402 603.26 452.307 603.704 452.118C604.148 451.929 604.523 451.656 604.831 451.301C605.139 450.946 605.358 450.52 605.488 450.023H607.583C607.465 450.828 607.172 451.553 606.704 452.198C606.243 452.837 605.63 453.346 604.867 453.725C604.109 454.098 603.227 454.284 602.221 454.284ZM616.363 454.284C615.05 454.284 613.916 453.994 612.963 453.414C612.016 452.828 611.285 452.011 610.77 450.964C610.261 449.91 610.007 448.685 610.007 447.288C610.007 445.892 610.261 444.661 610.77 443.595C611.285 442.524 612.001 441.689 612.919 441.092C613.842 440.488 614.919 440.186 616.15 440.186C616.861 440.186 617.562 440.304 618.254 440.541C618.947 440.778 619.577 441.163 620.145 441.695C620.714 442.222 621.166 442.92 621.504 443.79C621.841 444.661 622.01 445.732 622.01 447.004V447.892H611.498V446.081H619.879C619.879 445.312 619.725 444.625 619.417 444.021C619.116 443.418 618.684 442.941 618.121 442.592C617.565 442.243 616.908 442.068 616.15 442.068C615.316 442.068 614.594 442.275 613.984 442.69C613.381 443.098 612.916 443.631 612.59 444.288C612.265 444.945 612.102 445.649 612.102 446.401V447.608C612.102 448.638 612.28 449.511 612.635 450.227C612.996 450.937 613.496 451.479 614.135 451.852C614.774 452.219 615.517 452.402 616.363 452.402C616.914 452.402 617.411 452.325 617.855 452.171C618.305 452.011 618.692 451.775 619.018 451.461C619.343 451.141 619.595 450.745 619.773 450.271L621.797 450.839C621.584 451.526 621.226 452.13 620.722 452.651C620.219 453.165 619.598 453.568 618.858 453.858C618.118 454.142 617.287 454.284 616.363 454.284Z" fill="black"/>
<path d="M551.702 454V435.818H557.845C559.272 435.818 560.438 436.076 561.343 436.591C562.254 437.1 562.929 437.789 563.367 438.659C563.805 439.529 564.024 440.5 564.024 441.571C564.024 442.642 563.805 443.616 563.367 444.492C562.935 445.368 562.266 446.066 561.361 446.587C560.455 447.102 559.295 447.359 557.881 447.359H553.477V445.406H557.81C558.786 445.406 559.57 445.238 560.162 444.9C560.754 444.563 561.183 444.107 561.45 443.533C561.722 442.953 561.858 442.299 561.858 441.571C561.858 440.843 561.722 440.192 561.45 439.618C561.183 439.044 560.751 438.594 560.153 438.268C559.556 437.937 558.763 437.771 557.774 437.771H553.903V454H551.702ZM572.68 454.284C571.449 454.284 570.369 453.991 569.44 453.405C568.516 452.819 567.794 452 567.273 450.946C566.759 449.893 566.501 448.661 566.501 447.253C566.501 445.832 566.759 444.592 567.273 443.533C567.794 442.474 568.516 441.651 569.44 441.065C570.369 440.479 571.449 440.186 572.68 440.186C573.911 440.186 574.988 440.479 575.912 441.065C576.841 441.651 577.563 442.474 578.078 443.533C578.599 444.592 578.859 445.832 578.859 447.253C578.859 448.661 578.599 449.893 578.078 450.946C577.563 452 576.841 452.819 575.912 453.405C574.988 453.991 573.911 454.284 572.68 454.284ZM572.68 452.402C573.615 452.402 574.385 452.162 574.988 451.683C575.592 451.203 576.039 450.573 576.329 449.792C576.619 449.011 576.764 448.164 576.764 447.253C576.764 446.341 576.619 445.492 576.329 444.705C576.039 443.918 575.592 443.281 574.988 442.796C574.385 442.311 573.615 442.068 572.68 442.068C571.745 442.068 570.975 442.311 570.372 442.796C569.768 443.281 569.321 443.918 569.031 444.705C568.741 445.492 568.596 446.341 568.596 447.253C568.596 448.164 568.741 449.011 569.031 449.792C569.321 450.573 569.768 451.203 570.372 451.683C570.975 452.162 571.745 452.402 572.68 452.402ZM584.152 445.797V454H582.057V440.364H584.081V442.494H584.259C584.579 441.802 585.064 441.246 585.715 440.825C586.366 440.399 587.206 440.186 588.236 440.186C589.16 440.186 589.967 440.375 590.66 440.754C591.352 441.127 591.891 441.695 592.276 442.459C592.66 443.216 592.853 444.175 592.853 445.335V454H590.758V445.477C590.758 444.406 590.479 443.571 589.923 442.974C589.367 442.37 588.603 442.068 587.633 442.068C586.964 442.068 586.366 442.213 585.839 442.503C585.318 442.793 584.907 443.216 584.605 443.773C584.303 444.329 584.152 445.004 584.152 445.797ZM602.221 454.284C600.943 454.284 599.842 453.982 598.919 453.379C597.995 452.775 597.285 451.943 596.788 450.884C596.291 449.824 596.042 448.614 596.042 447.253C596.042 445.868 596.297 444.646 596.806 443.586C597.32 442.521 598.037 441.689 598.954 441.092C599.877 440.488 600.954 440.186 602.186 440.186C603.144 440.186 604.008 440.364 604.778 440.719C605.547 441.074 606.178 441.571 606.669 442.21C607.16 442.849 607.465 443.595 607.583 444.447H605.488C605.328 443.826 604.973 443.276 604.423 442.796C603.878 442.311 603.144 442.068 602.221 442.068C601.404 442.068 600.688 442.281 600.073 442.707C599.463 443.128 598.987 443.722 598.643 444.492C598.306 445.255 598.137 446.152 598.137 447.182C598.137 448.235 598.303 449.153 598.634 449.934C598.972 450.715 599.445 451.322 600.055 451.754C600.67 452.186 601.392 452.402 602.221 452.402C602.766 452.402 603.26 452.307 603.704 452.118C604.148 451.929 604.523 451.656 604.831 451.301C605.139 450.946 605.358 450.52 605.488 450.023H607.583C607.465 450.828 607.172 451.553 606.704 452.198C606.243 452.837 605.63 453.346 604.867 453.725C604.109 454.098 603.227 454.284 602.221 454.284ZM616.363 454.284C615.05 454.284 613.916 453.994 612.963 453.414C612.016 452.828 611.285 452.011 610.77 450.964C610.261 449.91 610.007 448.685 610.007 447.288C610.007 445.892 610.261 444.661 610.77 443.595C611.285 442.524 612.001 441.689 612.919 441.092C613.842 440.488 614.919 440.186 616.15 440.186C616.861 440.186 617.562 440.304 618.254 440.541C618.947 440.778 619.577 441.163 620.145 441.695C620.714 442.222 621.166 442.92 621.504 443.79C621.841 444.661 622.01 445.732 622.01 447.004V447.892H611.498V446.081H619.879C619.879 445.312 619.725 444.625 619.417 444.021C619.116 443.418 618.684 442.941 618.121 442.592C617.565 442.243 616.908 442.068 616.15 442.068C615.316 442.068 614.594 442.275 613.984 442.69C613.381 443.098 612.916 443.631 612.59 444.288C612.265 444.945 612.102 445.649 612.102 446.401V447.608C612.102 448.638 612.28 449.511 612.635 450.227C612.996 450.937 613.496 451.479 614.135 451.852C614.774 452.219 615.517 452.402 616.363 452.402C616.914 452.402 617.411 452.325 617.855 452.171C618.305 452.011 618.692 451.775 619.018 451.461C619.343 451.141 619.595 450.745 619.773 450.271L621.797 450.839C621.584 451.526 621.226 452.13 620.722 452.651C620.219 453.165 619.598 453.568 618.858 453.858C618.118 454.142 617.287 454.284 616.363 454.284Z" fill="black"/>
<path d="M551.702 454V435.818H557.845C559.272 435.818 560.438 436.076 561.343 436.591C562.254 437.1 562.929 437.789 563.367 438.659C563.805 439.529 564.024 440.5 564.024 441.571C564.024 442.642 563.805 443.616 563.367 444.492C562.935 445.368 562.266 446.066 561.361 446.587C560.455 447.102 559.295 447.359 557.881 447.359H553.477V445.406H557.81C558.786 445.406 559.57 445.238 560.162 444.9C560.754 444.563 561.183 444.107 561.45 443.533C561.722 442.953 561.858 442.299 561.858 441.571C561.858 440.843 561.722 440.192 561.45 439.618C561.183 439.044 560.751 438.594 560.153 438.268C559.556 437.937 558.763 437.771 557.774 437.771H553.903V454H551.702ZM572.68 454.284C571.449 454.284 570.369 453.991 569.44 453.405C568.516 452.819 567.794 452 567.273 450.946C566.759 449.893 566.501 448.661 566.501 447.253C566.501 445.832 566.759 444.592 567.273 443.533C567.794 442.474 568.516 441.651 569.44 441.065C570.369 440.479 571.449 440.186 572.68 440.186C573.911 440.186 574.988 440.479 575.912 441.065C576.841 441.651 577.563 442.474 578.078 443.533C578.599 444.592 578.859 445.832 578.859 447.253C578.859 448.661 578.599 449.893 578.078 450.946C577.563 452 576.841 452.819 575.912 453.405C574.988 453.991 573.911 454.284 572.68 454.284ZM572.68 452.402C573.615 452.402 574.385 452.162 574.988 451.683C575.592 451.203 576.039 450.573 576.329 449.792C576.619 449.011 576.764 448.164 576.764 447.253C576.764 446.341 576.619 445.492 576.329 444.705C576.039 443.918 575.592 443.281 574.988 442.796C574.385 442.311 573.615 442.068 572.68 442.068C571.745 442.068 570.975 442.311 570.372 442.796C569.768 443.281 569.321 443.918 569.031 444.705C568.741 445.492 568.596 446.341 568.596 447.253C568.596 448.164 568.741 449.011 569.031 449.792C569.321 450.573 569.768 451.203 570.372 451.683C570.975 452.162 571.745 452.402 572.68 452.402ZM584.152 445.797V454H582.057V440.364H584.081V442.494H584.259C584.579 441.802 585.064 441.246 585.715 440.825C586.366 440.399 587.206 440.186 588.236 440.186C589.16 440.186 589.967 440.375 590.66 440.754C591.352 441.127 591.891 441.695 592.276 442.459C592.66 443.216 592.853 444.175 592.853 445.335V454H590.758V445.477C590.758 444.406 590.479 443.571 589.923 442.974C589.367 442.37 588.603 442.068 587.633 442.068C586.964 442.068 586.366 442.213 585.839 442.503C585.318 442.793 584.907 443.216 584.605 443.773C584.303 444.329 584.152 445.004 584.152 445.797ZM602.221 454.284C600.943 454.284 599.842 453.982 598.919 453.379C597.995 452.775 597.285 451.943 596.788 450.884C596.291 449.824 596.042 448.614 596.042 447.253C596.042 445.868 596.297 444.646 596.806 443.586C597.32 442.521 598.037 441.689 598.954 441.092C599.877 440.488 600.954 440.186 602.186 440.186C603.144 440.186 604.008 440.364 604.778 440.719C605.547 441.074 606.178 441.571 606.669 442.21C607.16 442.849 607.465 443.595 607.583 444.447H605.488C605.328 443.826 604.973 443.276 604.423 442.796C603.878 442.311 603.144 442.068 602.221 442.068C601.404 442.068 600.688 442.281 600.073 442.707C599.463 443.128 598.987 443.722 598.643 444.492C598.306 445.255 598.137 446.152 598.137 447.182C598.137 448.235 598.303 449.153 598.634 449.934C598.972 450.715 599.445 451.322 600.055 451.754C600.67 452.186 601.392 452.402 602.221 452.402C602.766 452.402 603.26 452.307 603.704 452.118C604.148 451.929 604.523 451.656 604.831 451.301C605.139 450.946 605.358 450.52 605.488 450.023H607.583C607.465 450.828 607.172 451.553 606.704 452.198C606.243 452.837 605.63 453.346 604.867 453.725C604.109 454.098 603.227 454.284 602.221 454.284ZM616.363 454.284C615.05 454.284 613.916 453.994 612.963 453.414C612.016 452.828 611.285 452.011 610.77 450.964C610.261 449.91 610.007 448.685 610.007 447.288C610.007 445.892 610.261 444.661 610.77 443.595C611.285 442.524 612.001 441.689 612.919 441.092C613.842 440.488 614.919 440.186 616.15 440.186C616.861 440.186 617.562 440.304 618.254 440.541C618.947 440.778 619.577 441.163 620.145 441.695C620.714 442.222 621.166 442.92 621.504 443.79C621.841 444.661 622.01 445.732 622.01 447.004V447.892H611.498V446.081H619.879C619.879 445.312 619.725 444.625 619.417 444.021C619.116 443.418 618.684 442.941 618.121 442.592C617.565 442.243 616.908 442.068 616.15 442.068C615.316 442.068 614.594 442.275 613.984 442.69C613.381 443.098 612.916 443.631 612.59 444.288C612.265 444.945 612.102 445.649 612.102 446.401V447.608C612.102 448.638 612.28 449.511 612.635 450.227C612.996 450.937 613.496 451.479 614.135 451.852C614.774 452.219 615.517 452.402 616.363 452.402C616.914 452.402 617.411 452.325 617.855 452.171C618.305 452.011 618.692 451.775 619.018 451.461C619.343 451.141 619.595 450.745 619.773 450.271L621.797 450.839C621.584 451.526 621.226 452.13 620.722 452.651C620.219 453.165 619.598 453.568 618.858 453.858C618.118 454.142 617.287 454.284 616.363 454.284Z" fill="black"/>
<path d="M790.332 398.5H788.131C788 397.867 787.773 397.31 787.447 396.831C787.127 396.352 786.737 395.949 786.275 395.624C785.819 395.292 785.313 395.044 784.757 394.878C784.201 394.712 783.621 394.629 783.017 394.629C781.916 394.629 780.919 394.907 780.025 395.464C779.137 396.02 778.43 396.84 777.903 397.923C777.383 399.006 777.122 400.335 777.122 401.909C777.122 403.483 777.383 404.812 777.903 405.895C778.43 406.978 779.137 407.798 780.025 408.354C780.919 408.911 781.916 409.189 783.017 409.189C783.621 409.189 784.201 409.106 784.757 408.94C785.313 408.775 785.819 408.529 786.275 408.203C786.737 407.872 787.127 407.467 787.447 406.987C787.773 406.502 788 405.946 788.131 405.318H790.332C790.167 406.247 789.865 407.079 789.427 407.813C788.989 408.547 788.444 409.171 787.793 409.686C787.142 410.195 786.411 410.583 785.6 410.849C784.796 411.115 783.934 411.249 783.017 411.249C781.466 411.249 780.087 410.87 778.88 410.112C777.673 409.355 776.723 408.277 776.03 406.881C775.338 405.484 774.991 403.827 774.991 401.909C774.991 399.991 775.338 398.334 776.03 396.938C776.723 395.541 777.673 394.464 778.88 393.706C780.087 392.948 781.466 392.57 783.017 392.57C783.934 392.57 784.796 392.703 785.6 392.969C786.411 393.235 787.142 393.626 787.793 394.141C788.444 394.65 788.989 395.271 789.427 396.005C789.865 396.733 790.167 397.565 790.332 398.5ZM797.619 411.32C796.755 411.32 795.971 411.157 795.266 410.831C794.562 410.5 794.003 410.023 793.588 409.402C793.174 408.775 792.967 408.017 792.967 407.129C792.967 406.348 793.121 405.715 793.429 405.229C793.736 404.738 794.148 404.353 794.663 404.075C795.177 403.797 795.746 403.59 796.367 403.454C796.994 403.312 797.625 403.199 798.258 403.116C799.087 403.01 799.758 402.93 800.273 402.877C800.794 402.818 801.173 402.72 801.41 402.584C801.652 402.448 801.774 402.211 801.774 401.874V401.803C801.774 400.927 801.534 400.246 801.055 399.761C800.581 399.275 799.862 399.033 798.897 399.033C797.897 399.033 797.113 399.252 796.545 399.69C795.976 400.128 795.577 400.595 795.346 401.092L793.358 400.382C793.713 399.554 794.186 398.908 794.778 398.447C795.376 397.979 796.027 397.654 796.731 397.47C797.441 397.281 798.14 397.186 798.826 397.186C799.264 397.186 799.767 397.239 800.335 397.346C800.91 397.446 801.463 397.657 801.996 397.976C802.534 398.296 802.981 398.778 803.336 399.423C803.691 400.068 803.869 400.933 803.869 402.016V411H801.774V409.153H801.667C801.525 409.449 801.288 409.766 800.957 410.103C800.626 410.441 800.185 410.728 799.634 410.964C799.084 411.201 798.412 411.32 797.619 411.32ZM797.938 409.438C798.767 409.438 799.465 409.275 800.034 408.949C800.608 408.624 801.04 408.203 801.33 407.689C801.626 407.174 801.774 406.632 801.774 406.064V404.146C801.685 404.253 801.49 404.35 801.188 404.439C800.892 404.522 800.549 404.596 800.158 404.661C799.773 404.72 799.397 404.774 799.03 404.821C798.669 404.862 798.376 404.898 798.152 404.928C797.607 404.999 797.098 405.114 796.625 405.274C796.157 405.428 795.778 405.661 795.488 405.975C795.204 406.283 795.062 406.703 795.062 407.236C795.062 407.964 795.331 408.514 795.87 408.887C796.414 409.254 797.104 409.438 797.938 409.438ZM813.197 416.398C812.185 416.398 811.315 416.268 810.587 416.007C809.859 415.753 809.253 415.415 808.767 414.995C808.288 414.581 807.906 414.137 807.622 413.663L809.291 412.491C809.48 412.74 809.72 413.024 810.01 413.344C810.3 413.669 810.697 413.95 811.2 414.187C811.709 414.43 812.375 414.551 813.197 414.551C814.298 414.551 815.207 414.285 815.923 413.752C816.639 413.219 816.997 412.385 816.997 411.249V408.479H816.819C816.666 408.727 816.447 409.035 816.162 409.402C815.884 409.763 815.482 410.086 814.955 410.37C814.434 410.648 813.73 410.787 812.842 410.787C811.741 410.787 810.753 410.527 809.877 410.006C809.007 409.485 808.317 408.727 807.808 407.733C807.305 406.739 807.054 405.531 807.054 404.111C807.054 402.714 807.299 401.498 807.791 400.462C808.282 399.42 808.965 398.615 809.841 398.047C810.717 397.473 811.729 397.186 812.878 397.186C813.765 397.186 814.47 397.334 814.991 397.63C815.517 397.92 815.92 398.251 816.198 398.624C816.482 398.991 816.701 399.293 816.855 399.53H817.068V397.364H819.092V411.391C819.092 412.562 818.826 413.515 818.293 414.249C817.766 414.989 817.056 415.531 816.162 415.874C815.275 416.223 814.286 416.398 813.197 416.398ZM813.126 408.905C813.967 408.905 814.677 408.712 815.257 408.328C815.837 407.943 816.278 407.39 816.58 406.668C816.882 405.946 817.032 405.081 817.032 404.075C817.032 403.093 816.885 402.226 816.589 401.474C816.293 400.722 815.855 400.134 815.275 399.707C814.695 399.281 813.979 399.068 813.126 399.068C812.238 399.068 811.499 399.293 810.907 399.743C810.321 400.193 809.88 400.796 809.584 401.554C809.294 402.312 809.149 403.152 809.149 404.075C809.149 405.022 809.297 405.86 809.593 406.588C809.895 407.31 810.339 407.878 810.925 408.292C811.516 408.701 812.25 408.905 813.126 408.905ZM831.521 405.425V397.364H833.616V411H831.521V408.692H831.379C831.059 409.384 830.562 409.973 829.888 410.458C829.213 410.938 828.361 411.178 827.331 411.178C826.479 411.178 825.721 410.991 825.058 410.618C824.395 410.239 823.874 409.671 823.496 408.914C823.117 408.15 822.927 407.188 822.927 406.028V397.364H825.023V405.886C825.023 406.881 825.301 407.674 825.857 408.266C826.419 408.857 827.135 409.153 828.006 409.153C828.526 409.153 829.056 409.02 829.595 408.754C830.139 408.488 830.595 408.079 830.962 407.529C831.335 406.978 831.521 406.277 831.521 405.425ZM841.467 411.32C840.602 411.32 839.818 411.157 839.114 410.831C838.41 410.5 837.85 410.023 837.436 409.402C837.022 408.775 836.815 408.017 836.815 407.129C836.815 406.348 836.968 405.715 837.276 405.229C837.584 404.738 837.995 404.353 838.51 404.075C839.025 403.797 839.593 403.59 840.215 403.454C840.842 403.312 841.472 403.199 842.106 403.116C842.934 403.01 843.606 402.93 844.121 402.877C844.642 402.818 845.021 402.72 845.257 402.584C845.5 402.448 845.621 402.211 845.621 401.874V401.803C845.621 400.927 845.382 400.246 844.902 399.761C844.429 399.275 843.71 399.033 842.745 399.033C841.745 399.033 840.96 399.252 840.392 399.69C839.824 400.128 839.425 400.595 839.194 401.092L837.205 400.382C837.56 399.554 838.034 398.908 838.626 398.447C839.223 397.979 839.874 397.654 840.579 397.47C841.289 397.281 841.987 397.186 842.674 397.186C843.112 397.186 843.615 397.239 844.183 397.346C844.757 397.446 845.311 397.657 845.843 397.976C846.382 398.296 846.829 398.778 847.184 399.423C847.539 400.068 847.717 400.933 847.717 402.016V411H845.621V409.153H845.515C845.373 409.449 845.136 409.766 844.805 410.103C844.473 410.441 844.032 410.728 843.482 410.964C842.931 411.201 842.26 411.32 841.467 411.32ZM841.786 409.438C842.615 409.438 843.313 409.275 843.881 408.949C844.455 408.624 844.887 408.203 845.177 407.689C845.473 407.174 845.621 406.632 845.621 406.064V404.146C845.533 404.253 845.337 404.35 845.035 404.439C844.739 404.522 844.396 404.596 844.006 404.661C843.621 404.72 843.245 404.774 842.878 404.821C842.517 404.862 842.224 404.898 841.999 404.928C841.455 404.999 840.946 405.114 840.472 405.274C840.005 405.428 839.626 405.661 839.336 405.975C839.052 406.283 838.91 406.703 838.91 407.236C838.91 407.964 839.179 408.514 839.718 408.887C840.262 409.254 840.952 409.438 841.786 409.438ZM861.2 400.418L859.318 400.95C859.199 400.637 859.025 400.332 858.794 400.036C858.569 399.734 858.261 399.485 857.871 399.29C857.48 399.095 856.98 398.997 856.37 398.997C855.536 398.997 854.84 399.19 854.284 399.574C853.733 399.953 853.458 400.435 853.458 401.021C853.458 401.542 853.648 401.953 854.026 402.255C854.405 402.557 854.997 402.809 855.802 403.01L857.826 403.507C859.045 403.803 859.954 404.256 860.552 404.865C861.149 405.469 861.448 406.247 861.448 407.2C861.448 407.982 861.223 408.68 860.774 409.295C860.33 409.911 859.708 410.396 858.909 410.751C858.11 411.107 857.181 411.284 856.122 411.284C854.731 411.284 853.58 410.982 852.668 410.379C851.757 409.775 851.18 408.893 850.937 407.733L852.926 407.236C853.115 407.97 853.473 408.52 854 408.887C854.532 409.254 855.228 409.438 856.086 409.438C857.063 409.438 857.838 409.23 858.412 408.816C858.992 408.396 859.282 407.893 859.282 407.307C859.282 406.833 859.116 406.437 858.785 406.117C858.454 405.792 857.945 405.549 857.258 405.389L854.985 404.857C853.736 404.561 852.819 404.102 852.233 403.48C851.653 402.853 851.363 402.069 851.363 401.128C851.363 400.358 851.579 399.678 852.011 399.086C852.449 398.494 853.044 398.029 853.796 397.692C854.553 397.355 855.411 397.186 856.37 397.186C857.72 397.186 858.779 397.482 859.548 398.074C860.324 398.666 860.874 399.447 861.2 400.418Z" fill="black"/>
<path d="M846.332 339.5H844.131C844 338.867 843.773 338.31 843.447 337.831C843.127 337.352 842.737 336.949 842.275 336.624C841.819 336.292 841.313 336.044 840.757 335.878C840.201 335.712 839.621 335.629 839.017 335.629C837.916 335.629 836.919 335.907 836.025 336.464C835.137 337.02 834.43 337.84 833.903 338.923C833.383 340.006 833.122 341.335 833.122 342.909C833.122 344.483 833.383 345.812 833.903 346.895C834.43 347.978 835.137 348.798 836.025 349.354C836.919 349.911 837.916 350.189 839.017 350.189C839.621 350.189 840.201 350.106 840.757 349.94C841.313 349.775 841.819 349.529 842.275 349.203C842.737 348.872 843.127 348.467 843.447 347.987C843.773 347.502 844 346.946 844.131 346.318H846.332C846.167 347.247 845.865 348.079 845.427 348.813C844.989 349.547 844.444 350.171 843.793 350.686C843.142 351.195 842.411 351.583 841.6 351.849C840.796 352.115 839.934 352.249 839.017 352.249C837.466 352.249 836.087 351.87 834.88 351.112C833.673 350.355 832.723 349.277 832.03 347.881C831.338 346.484 830.991 344.827 830.991 342.909C830.991 340.991 831.338 339.334 832.03 337.938C832.723 336.541 833.673 335.464 834.88 334.706C836.087 333.948 837.466 333.57 839.017 333.57C839.934 333.57 840.796 333.703 841.6 333.969C842.411 334.235 843.142 334.626 843.793 335.141C844.444 335.65 844.989 336.271 845.427 337.005C845.865 337.733 846.167 338.565 846.332 339.5ZM853.619 352.32C852.755 352.32 851.971 352.157 851.266 351.831C850.562 351.5 850.003 351.023 849.588 350.402C849.174 349.775 848.967 349.017 848.967 348.129C848.967 347.348 849.121 346.715 849.429 346.229C849.736 345.738 850.148 345.353 850.663 345.075C851.177 344.797 851.746 344.59 852.367 344.454C852.994 344.312 853.625 344.199 854.258 344.116C855.087 344.01 855.758 343.93 856.273 343.877C856.794 343.818 857.173 343.72 857.41 343.584C857.652 343.448 857.774 343.211 857.774 342.874V342.803C857.774 341.927 857.534 341.246 857.055 340.761C856.581 340.275 855.862 340.033 854.897 340.033C853.897 340.033 853.113 340.252 852.545 340.69C851.976 341.128 851.577 341.595 851.346 342.092L849.358 341.382C849.713 340.554 850.186 339.908 850.778 339.447C851.376 338.979 852.027 338.654 852.731 338.47C853.441 338.281 854.14 338.186 854.826 338.186C855.264 338.186 855.767 338.239 856.335 338.346C856.91 338.446 857.463 338.657 857.996 338.976C858.534 339.296 858.981 339.778 859.336 340.423C859.691 341.068 859.869 341.933 859.869 343.016V352H857.774V350.153H857.667C857.525 350.449 857.288 350.766 856.957 351.103C856.626 351.441 856.185 351.728 855.634 351.964C855.084 352.201 854.412 352.32 853.619 352.32ZM853.938 350.438C854.767 350.438 855.465 350.275 856.034 349.949C856.608 349.624 857.04 349.203 857.33 348.689C857.626 348.174 857.774 347.632 857.774 347.064V345.146C857.685 345.253 857.49 345.35 857.188 345.439C856.892 345.522 856.549 345.596 856.158 345.661C855.773 345.72 855.397 345.774 855.03 345.821C854.669 345.862 854.376 345.898 854.152 345.928C853.607 345.999 853.098 346.114 852.625 346.274C852.157 346.428 851.778 346.661 851.488 346.975C851.204 347.283 851.062 347.703 851.062 348.236C851.062 348.964 851.331 349.514 851.87 349.887C852.414 350.254 853.104 350.438 853.938 350.438ZM863.693 352V338.364H865.717V340.423H865.859C866.108 339.749 866.558 339.201 867.209 338.781C867.86 338.361 868.594 338.151 869.41 338.151C869.564 338.151 869.757 338.154 869.987 338.159C870.218 338.165 870.393 338.174 870.511 338.186V340.317C870.44 340.299 870.277 340.272 870.023 340.237C869.774 340.195 869.511 340.175 869.233 340.175C868.57 340.175 867.978 340.314 867.457 340.592C866.942 340.864 866.534 341.243 866.232 341.728C865.936 342.208 865.788 342.755 865.788 343.371V352H863.693ZM878.119 352.284C876.888 352.284 875.808 351.991 874.879 351.405C873.956 350.819 873.234 350 872.713 348.946C872.198 347.893 871.941 346.661 871.941 345.253C871.941 343.832 872.198 342.592 872.713 341.533C873.234 340.474 873.956 339.651 874.879 339.065C875.808 338.479 876.888 338.186 878.119 338.186C879.351 338.186 880.428 338.479 881.351 339.065C882.28 339.651 883.002 340.474 883.517 341.533C884.038 342.592 884.298 343.832 884.298 345.253C884.298 346.661 884.038 347.893 883.517 348.946C883.002 350 882.28 350.819 881.351 351.405C880.428 351.991 879.351 352.284 878.119 352.284ZM878.119 350.402C879.055 350.402 879.824 350.162 880.428 349.683C881.031 349.203 881.478 348.573 881.768 347.792C882.058 347.011 882.203 346.164 882.203 345.253C882.203 344.341 882.058 343.492 881.768 342.705C881.478 341.918 881.031 341.281 880.428 340.796C879.824 340.311 879.055 340.068 878.119 340.068C877.184 340.068 876.415 340.311 875.811 340.796C875.208 341.281 874.761 341.918 874.471 342.705C874.181 343.492 874.036 344.341 874.036 345.253C874.036 346.164 874.181 347.011 874.471 347.792C874.761 348.573 875.208 349.203 875.811 349.683C876.415 350.162 877.184 350.402 878.119 350.402ZM889.592 333.818V352H887.497V333.818H889.592ZM893.429 352V338.364H895.525V352H893.429ZM894.495 336.091C894.086 336.091 893.734 335.952 893.438 335.674C893.148 335.395 893.003 335.061 893.003 334.67C893.003 334.28 893.148 333.945 893.438 333.667C893.734 333.389 894.086 333.25 894.495 333.25C894.903 333.25 895.252 333.389 895.542 333.667C895.838 333.945 895.986 334.28 895.986 334.67C895.986 335.061 895.838 335.395 895.542 335.674C895.252 335.952 894.903 336.091 894.495 336.091ZM901.457 343.797V352H899.362V338.364H901.386V340.494H901.564C901.883 339.802 902.369 339.246 903.02 338.825C903.671 338.399 904.511 338.186 905.541 338.186C906.464 338.186 907.272 338.375 907.965 338.754C908.657 339.127 909.196 339.695 909.58 340.459C909.965 341.216 910.157 342.175 910.157 343.335V352H908.062V343.477C908.062 342.406 907.784 341.571 907.228 340.974C906.671 340.37 905.908 340.068 904.937 340.068C904.268 340.068 903.671 340.213 903.144 340.503C902.623 340.793 902.212 341.216 901.91 341.773C901.608 342.329 901.457 343.004 901.457 343.797ZM917.999 352.32C917.135 352.32 916.35 352.157 915.646 351.831C914.942 351.5 914.383 351.023 913.968 350.402C913.554 349.775 913.347 349.017 913.347 348.129C913.347 347.348 913.501 346.715 913.808 346.229C914.116 345.738 914.528 345.353 915.042 345.075C915.557 344.797 916.126 344.59 916.747 344.454C917.374 344.312 918.005 344.199 918.638 344.116C919.467 344.01 920.138 343.93 920.653 343.877C921.174 343.818 921.553 343.72 921.79 343.584C922.032 343.448 922.154 343.211 922.154 342.874V342.803C922.154 341.927 921.914 341.246 921.434 340.761C920.961 340.275 920.242 340.033 919.277 340.033C918.277 340.033 917.493 340.252 916.925 340.69C916.356 341.128 915.957 341.595 915.726 342.092L913.737 341.382C914.093 340.554 914.566 339.908 915.158 339.447C915.756 338.979 916.407 338.654 917.111 338.47C917.821 338.281 918.52 338.186 919.206 338.186C919.644 338.186 920.147 338.239 920.715 338.346C921.289 338.446 921.843 338.657 922.376 338.976C922.914 339.296 923.361 339.778 923.716 340.423C924.071 341.068 924.249 341.933 924.249 343.016V352H922.154V350.153H922.047C921.905 350.449 921.668 350.766 921.337 351.103C921.005 351.441 920.564 351.728 920.014 351.964C919.464 352.201 918.792 352.32 917.999 352.32ZM918.318 350.438C919.147 350.438 919.845 350.275 920.414 349.949C920.988 349.624 921.42 349.203 921.71 348.689C922.006 348.174 922.154 347.632 922.154 347.064V345.146C922.065 345.253 921.869 345.35 921.568 345.439C921.272 345.522 920.928 345.596 920.538 345.661C920.153 345.72 919.777 345.774 919.41 345.821C919.049 345.862 918.756 345.898 918.531 345.928C917.987 345.999 917.478 346.114 917.004 346.274C916.537 346.428 916.158 346.661 915.868 346.975C915.584 347.283 915.442 347.703 915.442 348.236C915.442 348.964 915.711 349.514 916.25 349.887C916.794 350.254 917.484 350.438 918.318 350.438Z" fill="black"/>
<circle cx="773.011" cy="311.511" r="9.01136" fill="#FFE587" stroke="black"/>
<circle cx="840.011" cy="315.511" r="9.01136" fill="#FFE587" stroke="black"/>
<circle cx="588.011" cy="471.511" r="9.01136" fill="#FFE587" stroke="black"/>
<circle cx="819.011" cy="380.511" r="9.01136" fill="#FFE587" stroke="black"/>
<path d="M498.431 163H495.056L504.098 145.545H508.002L511.257 163H507.882L505.539 149.125H505.402L498.431 163ZM499.675 156.156H508.88L508.453 158.696H499.249L499.675 156.156ZM521.319 149.909L520.918 152.295H513.401L513.793 149.909H521.319ZM516.162 146.773H519.248L517.202 159.062C517.14 159.477 517.151 159.795 517.236 160.017C517.327 160.233 517.472 160.381 517.671 160.46C517.875 160.54 518.105 160.58 518.361 160.58C518.549 160.58 518.725 160.565 518.89 160.537C519.054 160.503 519.185 160.477 519.282 160.46L519.418 162.872C519.23 162.929 518.978 162.991 518.659 163.06C518.347 163.128 517.972 163.168 517.534 163.179C516.75 163.196 516.069 163.077 515.489 162.821C514.915 162.56 514.495 162.159 514.228 161.619C513.966 161.074 513.907 160.392 514.049 159.574L516.162 146.773ZM527.981 145.545L525.083 163H521.998L524.896 145.545H527.981ZM531.989 163.264C531.159 163.264 530.438 163.116 529.824 162.821C529.211 162.52 528.759 162.077 528.469 161.491C528.185 160.906 528.114 160.185 528.256 159.327C528.381 158.588 528.62 157.977 528.972 157.494C529.33 157.011 529.767 156.625 530.284 156.335C530.807 156.04 531.375 155.818 531.989 155.67C532.608 155.523 533.239 155.415 533.881 155.347C534.665 155.267 535.299 155.193 535.782 155.125C536.27 155.057 536.637 154.955 536.881 154.818C537.125 154.676 537.273 154.46 537.324 154.17V154.119C537.426 153.477 537.324 152.98 537.017 152.628C536.711 152.276 536.199 152.099 535.483 152.099C534.733 152.099 534.103 152.264 533.591 152.594C533.08 152.923 532.708 153.312 532.475 153.761L529.679 153.352C530.032 152.557 530.515 151.892 531.128 151.358C531.742 150.818 532.449 150.415 533.25 150.148C534.057 149.875 534.918 149.739 535.833 149.739C536.458 149.739 537.069 149.812 537.665 149.96C538.267 150.108 538.799 150.352 539.259 150.693C539.725 151.028 540.066 151.486 540.282 152.065C540.503 152.645 540.54 153.369 540.392 154.239L538.935 163H535.969L536.276 161.202H536.174C535.929 161.565 535.611 161.906 535.219 162.224C534.827 162.537 534.361 162.79 533.821 162.983C533.282 163.17 532.671 163.264 531.989 163.264ZM533.157 160.997C533.776 160.997 534.333 160.875 534.827 160.631C535.321 160.381 535.728 160.051 536.046 159.642C536.364 159.233 536.563 158.787 536.642 158.304L536.898 156.761C536.784 156.841 536.608 156.915 536.37 156.983C536.131 157.051 535.864 157.111 535.569 157.162C535.279 157.213 534.992 157.259 534.708 157.298C534.424 157.338 534.179 157.372 533.975 157.401C533.503 157.463 533.071 157.565 532.679 157.707C532.293 157.849 531.972 158.048 531.716 158.304C531.466 158.554 531.31 158.878 531.248 159.276C531.157 159.838 531.29 160.267 531.648 160.562C532.006 160.852 532.509 160.997 533.157 160.997ZM546.401 155.33L545.14 163H542.046L544.228 149.909H547.185L546.81 152.134H546.972C547.381 151.401 547.955 150.818 548.694 150.386C549.432 149.955 550.293 149.739 551.276 149.739C552.168 149.739 552.918 149.932 553.526 150.318C554.134 150.699 554.566 151.259 554.821 151.997C555.077 152.73 555.117 153.619 554.941 154.665L553.543 163H550.458L551.762 155.142C551.909 154.273 551.799 153.591 551.429 153.097C551.066 152.597 550.48 152.347 549.674 152.347C549.134 152.347 548.637 152.466 548.182 152.705C547.728 152.937 547.344 153.276 547.032 153.719C546.725 154.162 546.515 154.699 546.401 155.33ZM565.381 149.909L564.98 152.295H557.463L557.855 149.909H565.381ZM560.225 146.773H563.31L561.265 159.062C561.202 159.477 561.213 159.795 561.299 160.017C561.39 160.233 561.534 160.381 561.733 160.46C561.938 160.54 562.168 160.58 562.424 160.58C562.611 160.58 562.787 160.565 562.952 160.537C563.117 160.503 563.248 160.477 563.344 160.46L563.48 162.872C563.293 162.929 563.04 162.991 562.722 163.06C562.409 163.128 562.034 163.168 561.597 163.179C560.813 163.196 560.131 163.077 559.551 162.821C558.978 162.56 558.557 162.159 558.29 161.619C558.029 161.074 557.969 160.392 558.111 159.574L560.225 146.773ZM565.779 163L567.961 149.909H571.047L568.865 163H565.779ZM569.956 148.034C569.461 148.034 569.052 147.869 568.728 147.54C568.404 147.21 568.262 146.815 568.302 146.355C568.342 145.895 568.549 145.5 568.924 145.17C569.305 144.841 569.74 144.676 570.228 144.676C570.723 144.676 571.129 144.841 571.447 145.17C571.771 145.5 571.913 145.895 571.873 146.355C571.839 146.815 571.632 147.21 571.251 147.54C570.876 147.869 570.444 148.034 569.956 148.034ZM577.713 163.256C576.407 163.256 575.333 162.969 574.492 162.395C573.651 161.821 573.063 161.028 572.728 160.017C572.398 159 572.344 157.83 572.566 156.506C572.782 155.176 573.228 154.003 573.904 152.986C574.586 151.963 575.444 151.168 576.478 150.599C577.512 150.026 578.668 149.739 579.946 149.739C581.009 149.739 581.915 149.935 582.665 150.327C583.421 150.713 583.983 151.261 584.353 151.972C584.728 152.676 584.873 153.5 584.787 154.443H581.83C581.819 153.812 581.623 153.287 581.242 152.866C580.861 152.44 580.304 152.227 579.571 152.227C578.935 152.227 578.35 152.398 577.816 152.739C577.282 153.074 576.83 153.557 576.461 154.188C576.091 154.818 575.836 155.574 575.694 156.455C575.546 157.347 575.549 158.114 575.702 158.756C575.861 159.392 576.148 159.884 576.563 160.23C576.983 160.571 577.515 160.741 578.157 160.741C578.611 160.741 579.034 160.656 579.426 160.486C579.819 160.31 580.162 160.057 580.458 159.727C580.759 159.398 580.995 158.997 581.165 158.526H584.114C583.881 159.452 583.466 160.273 582.87 160.989C582.279 161.699 581.546 162.256 580.671 162.659C579.796 163.057 578.81 163.256 577.713 163.256ZM608.99 154.477C608.683 156.33 608.078 157.909 607.174 159.216C606.277 160.517 605.18 161.514 603.885 162.207C602.595 162.895 601.206 163.239 599.717 163.239C598.154 163.239 596.814 162.875 595.694 162.148C594.575 161.415 593.768 160.366 593.274 159.003C592.785 157.639 592.7 156.003 593.018 154.094C593.325 152.247 593.927 150.668 594.825 149.355C595.723 148.043 596.822 147.04 598.123 146.347C599.424 145.653 600.828 145.307 602.333 145.307C603.885 145.307 605.214 145.673 606.322 146.406C607.436 147.134 608.237 148.182 608.725 149.551C609.22 150.92 609.308 152.562 608.99 154.477ZM605.879 154.094C606.089 152.804 606.069 151.716 605.819 150.83C605.575 149.943 605.14 149.276 604.515 148.827C603.89 148.372 603.12 148.145 602.206 148.145C601.217 148.145 600.302 148.392 599.461 148.886C598.626 149.375 597.916 150.091 597.331 151.034C596.751 151.977 596.353 153.125 596.137 154.477C595.91 155.773 595.924 156.861 596.18 157.741C596.436 158.622 596.879 159.287 597.51 159.736C598.14 160.179 598.91 160.401 599.819 160.401C600.802 160.401 601.711 160.156 602.547 159.668C603.382 159.179 604.089 158.466 604.669 157.528C605.254 156.591 605.657 155.446 605.879 154.094ZM616.104 163.256C614.797 163.256 613.723 162.969 612.882 162.395C612.042 161.821 611.453 161.028 611.118 160.017C610.789 159 610.735 157.83 610.956 156.506C611.172 155.176 611.618 154.003 612.294 152.986C612.976 151.963 613.834 151.168 614.868 150.599C615.902 150.026 617.059 149.739 618.337 149.739C619.4 149.739 620.306 149.935 621.056 150.327C621.811 150.713 622.374 151.261 622.743 151.972C623.118 152.676 623.263 153.5 623.178 154.443H620.221C620.209 153.812 620.013 153.287 619.632 152.866C619.252 152.44 618.695 152.227 617.962 152.227C617.326 152.227 616.74 152.398 616.206 152.739C615.672 153.074 615.221 153.557 614.851 154.188C614.482 154.818 614.226 155.574 614.084 156.455C613.936 157.347 613.939 158.114 614.093 158.756C614.252 159.392 614.539 159.884 614.953 160.23C615.374 160.571 615.905 160.741 616.547 160.741C617.002 160.741 617.425 160.656 617.817 160.486C618.209 160.31 618.553 160.057 618.848 159.727C619.15 159.398 619.385 158.997 619.556 158.526H622.505C622.272 159.452 621.857 160.273 621.26 160.989C620.669 161.699 619.936 162.256 619.061 162.659C618.186 163.057 617.201 163.256 616.104 163.256ZM630.041 163.256C628.728 163.256 627.643 162.983 626.785 162.438C625.927 161.886 625.325 161.108 624.978 160.102C624.637 159.091 624.581 157.901 624.808 156.531C625.029 155.185 625.481 154.003 626.163 152.986C626.845 151.963 627.697 151.168 628.72 150.599C629.748 150.026 630.885 149.739 632.129 149.739C632.936 149.739 633.677 149.869 634.353 150.131C635.029 150.386 635.6 150.784 636.066 151.324C636.532 151.864 636.853 152.551 637.029 153.386C637.206 154.216 637.197 155.205 637.004 156.352L636.859 157.298H626.12L626.453 155.219H634.225C634.328 154.628 634.294 154.102 634.123 153.642C633.953 153.176 633.669 152.81 633.271 152.543C632.873 152.276 632.376 152.142 631.779 152.142C631.172 152.142 630.603 152.298 630.075 152.611C629.552 152.918 629.112 153.315 628.754 153.804C628.396 154.293 628.169 154.807 628.072 155.347L627.723 157.341C627.598 158.159 627.626 158.827 627.808 159.344C627.99 159.861 628.308 160.241 628.762 160.486C629.217 160.73 629.791 160.852 630.484 160.852C630.939 160.852 631.359 160.79 631.745 160.665C632.132 160.54 632.475 160.352 632.777 160.102C633.083 159.847 633.339 159.534 633.544 159.165L636.365 159.489C636.052 160.25 635.595 160.915 634.993 161.483C634.39 162.045 633.669 162.483 632.828 162.795C631.993 163.102 631.064 163.256 630.041 163.256ZM642.262 163.264C641.433 163.264 640.711 163.116 640.098 162.821C639.484 162.52 639.032 162.077 638.743 161.491C638.458 160.906 638.387 160.185 638.529 159.327C638.654 158.588 638.893 157.977 639.245 157.494C639.603 157.011 640.041 156.625 640.558 156.335C641.081 156.04 641.649 155.818 642.262 155.67C642.882 155.523 643.512 155.415 644.154 155.347C644.939 155.267 645.572 155.193 646.055 155.125C646.544 155.057 646.91 154.955 647.154 154.818C647.399 154.676 647.547 154.46 647.598 154.17V154.119C647.7 153.477 647.598 152.98 647.291 152.628C646.984 152.276 646.473 152.099 645.757 152.099C645.007 152.099 644.376 152.264 643.865 152.594C643.353 152.923 642.981 153.312 642.748 153.761L639.953 153.352C640.305 152.557 640.788 151.892 641.402 151.358C642.015 150.818 642.723 150.415 643.524 150.148C644.331 149.875 645.191 149.739 646.106 149.739C646.731 149.739 647.342 149.812 647.939 149.96C648.541 150.108 649.072 150.352 649.532 150.693C649.998 151.028 650.339 151.486 650.555 152.065C650.777 152.645 650.814 153.369 650.666 154.239L649.208 163H646.243L646.549 161.202H646.447C646.203 161.565 645.885 161.906 645.493 162.224C645.1 162.537 644.635 162.79 644.095 162.983C643.555 163.17 642.944 163.264 642.262 163.264ZM643.43 160.997C644.049 160.997 644.606 160.875 645.1 160.631C645.595 160.381 646.001 160.051 646.319 159.642C646.637 159.233 646.836 158.787 646.916 158.304L647.172 156.761C647.058 156.841 646.882 156.915 646.643 156.983C646.404 157.051 646.137 157.111 645.842 157.162C645.552 157.213 645.265 157.259 644.981 157.298C644.697 157.338 644.453 157.372 644.248 157.401C643.777 157.463 643.345 157.565 642.953 157.707C642.566 157.849 642.245 158.048 641.99 158.304C641.74 158.554 641.583 158.878 641.521 159.276C641.43 159.838 641.564 160.267 641.922 160.562C642.279 160.852 642.782 160.997 643.43 160.997ZM656.674 155.33L655.413 163H652.319L654.501 149.909H657.458L657.083 152.134H657.245C657.654 151.401 658.228 150.818 658.967 150.386C659.706 149.955 660.566 149.739 661.549 149.739C662.441 149.739 663.191 149.932 663.799 150.318C664.407 150.699 664.839 151.259 665.095 151.997C665.35 152.73 665.39 153.619 665.214 154.665L663.816 163H660.731L662.035 155.142C662.183 154.273 662.072 153.591 661.703 153.097C661.339 152.597 660.754 152.347 659.947 152.347C659.407 152.347 658.91 152.466 658.456 152.705C658.001 152.937 657.618 153.276 657.305 153.719C656.998 154.162 656.788 154.699 656.674 155.33Z" fill="#017D83"/>
<path d="M417.741 619.435H414.605C414.605 618.912 414.52 618.449 414.349 618.045C414.179 617.636 413.94 617.29 413.633 617.006C413.326 616.722 412.963 616.509 412.542 616.366C412.122 616.219 411.656 616.145 411.145 616.145C410.167 616.145 409.258 616.392 408.417 616.886C407.576 617.381 406.863 618.099 406.278 619.043C405.693 619.98 405.287 621.119 405.059 622.46C404.849 623.767 404.869 624.861 405.119 625.741C405.375 626.622 405.818 627.287 406.449 627.736C407.079 628.179 407.846 628.401 408.75 628.401C409.301 628.401 409.829 628.332 410.335 628.196C410.841 628.054 411.306 627.847 411.733 627.574C412.164 627.295 412.542 626.957 412.866 626.56C413.196 626.162 413.451 625.71 413.633 625.205H416.812C416.551 626.034 416.167 626.815 415.662 627.548C415.156 628.276 414.548 628.918 413.838 629.474C413.127 630.026 412.332 630.457 411.451 630.77C410.571 631.082 409.622 631.239 408.605 631.239C407.042 631.239 405.704 630.875 404.591 630.148C403.483 629.415 402.687 628.366 402.204 627.003C401.721 625.634 401.636 623.994 401.949 622.085C402.261 620.227 402.863 618.645 403.755 617.338C404.653 616.031 405.747 615.034 407.037 614.347C408.332 613.653 409.727 613.307 411.221 613.307C412.21 613.307 413.108 613.443 413.914 613.716C414.727 613.989 415.423 614.389 416.002 614.918C416.582 615.44 417.022 616.082 417.324 616.844C417.63 617.599 417.77 618.463 417.741 619.435ZM422.333 631.264C421.503 631.264 420.782 631.116 420.168 630.821C419.554 630.52 419.103 630.077 418.813 629.491C418.529 628.906 418.458 628.185 418.6 627.327C418.725 626.588 418.963 625.977 419.316 625.494C419.674 625.011 420.111 624.625 420.628 624.335C421.151 624.04 421.719 623.818 422.333 623.67C422.952 623.523 423.583 623.415 424.225 623.347C425.009 623.267 425.642 623.193 426.125 623.125C426.614 623.057 426.98 622.955 427.225 622.818C427.469 622.676 427.617 622.46 427.668 622.17V622.119C427.77 621.477 427.668 620.98 427.361 620.628C427.054 620.276 426.543 620.099 425.827 620.099C425.077 620.099 424.446 620.264 423.935 620.594C423.424 620.923 423.051 621.312 422.819 621.761L420.023 621.352C420.375 620.557 420.858 619.892 421.472 619.358C422.086 618.818 422.793 618.415 423.594 618.148C424.401 617.875 425.262 617.739 426.176 617.739C426.801 617.739 427.412 617.812 428.009 617.96C428.611 618.108 429.142 618.352 429.603 618.693C430.069 619.028 430.409 619.486 430.625 620.065C430.847 620.645 430.884 621.369 430.736 622.239L429.279 631H426.313L426.62 629.202H426.517C426.273 629.565 425.955 629.906 425.563 630.224C425.171 630.537 424.705 630.79 424.165 630.983C423.625 631.17 423.015 631.264 422.333 631.264ZM423.5 628.997C424.12 628.997 424.676 628.875 425.171 628.631C425.665 628.381 426.071 628.051 426.39 627.642C426.708 627.233 426.907 626.787 426.986 626.304L427.242 624.761C427.128 624.841 426.952 624.915 426.713 624.983C426.475 625.051 426.208 625.111 425.912 625.162C425.623 625.213 425.336 625.259 425.051 625.298C424.767 625.338 424.523 625.372 424.319 625.401C423.847 625.463 423.415 625.565 423.023 625.707C422.637 625.849 422.316 626.048 422.06 626.304C421.81 626.554 421.654 626.878 421.591 627.276C421.5 627.838 421.634 628.267 421.992 628.562C422.35 628.852 422.853 628.997 423.5 628.997ZM432.381 631L434.563 617.909H437.554L437.188 620.091H437.324C437.682 619.335 438.188 618.753 438.841 618.344C439.5 617.929 440.205 617.722 440.955 617.722C441.131 617.722 441.321 617.73 441.526 617.747C441.73 617.759 441.907 617.778 442.054 617.807L441.577 620.645C441.446 620.599 441.242 620.56 440.963 620.526C440.691 620.486 440.421 620.466 440.154 620.466C439.591 620.466 439.069 620.588 438.586 620.832C438.108 621.071 437.705 621.403 437.375 621.83C437.046 622.256 436.833 622.747 436.736 623.304L435.466 631H432.381ZM441.92 631L444.102 617.909H447.187L445.005 631H441.92ZM446.096 616.034C445.602 616.034 445.193 615.869 444.869 615.54C444.545 615.21 444.403 614.815 444.443 614.355C444.483 613.895 444.69 613.5 445.065 613.17C445.446 612.841 445.88 612.676 446.369 612.676C446.863 612.676 447.27 612.841 447.588 613.17C447.912 613.5 448.054 613.895 448.014 614.355C447.98 614.815 447.772 615.21 447.392 615.54C447.017 615.869 446.585 616.034 446.096 616.034ZM448.314 631L451.212 613.545H454.297L453.223 620.074H453.36C453.564 619.756 453.84 619.418 454.186 619.06C454.539 618.696 454.985 618.386 455.525 618.131C456.064 617.869 456.718 617.739 457.485 617.739C458.496 617.739 459.365 617.997 460.093 618.514C460.82 619.026 461.34 619.784 461.652 620.79C461.965 621.79 462.002 623.017 461.763 624.472C461.525 625.909 461.087 627.131 460.451 628.136C459.814 629.142 459.044 629.909 458.141 630.438C457.238 630.966 456.272 631.23 455.243 631.23C454.493 631.23 453.891 631.105 453.436 630.855C452.988 630.605 452.644 630.304 452.405 629.952C452.167 629.594 451.993 629.256 451.885 628.938H451.689L451.348 631H448.314ZM452.431 624.455C452.294 625.301 452.292 626.043 452.422 626.679C452.559 627.315 452.826 627.812 453.223 628.17C453.627 628.523 454.158 628.699 454.817 628.699C455.493 628.699 456.09 628.517 456.607 628.153C457.13 627.784 457.561 627.281 457.902 626.645C458.243 626.003 458.482 625.273 458.618 624.455C458.749 623.642 458.749 622.92 458.618 622.29C458.493 621.659 458.229 621.165 457.826 620.807C457.428 620.449 456.888 620.27 456.206 620.27C455.542 620.27 454.951 620.443 454.434 620.79C453.917 621.136 453.488 621.622 453.147 622.247C452.806 622.872 452.567 623.608 452.431 624.455ZM463.431 631L466.329 613.545H469.414L468.341 620.074H468.477C468.681 619.756 468.957 619.418 469.304 619.06C469.656 618.696 470.102 618.386 470.642 618.131C471.181 617.869 471.835 617.739 472.602 617.739C473.613 617.739 474.483 617.997 475.21 618.514C475.937 619.026 476.457 619.784 476.77 620.79C477.082 621.79 477.119 623.017 476.88 624.472C476.642 625.909 476.204 627.131 475.568 628.136C474.931 629.142 474.162 629.909 473.258 630.438C472.355 630.966 471.389 631.23 470.36 631.23C469.61 631.23 469.008 631.105 468.554 630.855C468.105 630.605 467.761 630.304 467.522 629.952C467.284 629.594 467.11 629.256 467.002 628.938H466.806L466.466 631H463.431ZM467.548 624.455C467.412 625.301 467.409 626.043 467.539 626.679C467.676 627.315 467.943 627.812 468.341 628.17C468.744 628.523 469.275 628.699 469.934 628.699C470.61 628.699 471.207 628.517 471.724 628.153C472.247 627.784 472.679 627.281 473.02 626.645C473.36 626.003 473.599 625.273 473.735 624.455C473.866 623.642 473.866 622.92 473.735 622.29C473.61 621.659 473.346 621.165 472.943 620.807C472.545 620.449 472.005 620.27 471.324 620.27C470.659 620.27 470.068 620.443 469.551 620.79C469.034 621.136 468.605 621.622 468.264 622.247C467.923 622.872 467.684 623.608 467.548 624.455ZM484.174 631.256C482.861 631.256 481.776 630.983 480.918 630.438C480.06 629.886 479.458 629.108 479.111 628.102C478.77 627.091 478.713 625.901 478.941 624.531C479.162 623.185 479.614 622.003 480.296 620.986C480.978 619.963 481.83 619.168 482.853 618.599C483.881 618.026 485.017 617.739 486.262 617.739C487.069 617.739 487.81 617.869 488.486 618.131C489.162 618.386 489.733 618.784 490.199 619.324C490.665 619.864 490.986 620.551 491.162 621.386C491.338 622.216 491.33 623.205 491.137 624.352L490.992 625.298H480.253L480.586 623.219H488.358C488.461 622.628 488.426 622.102 488.256 621.642C488.086 621.176 487.801 620.81 487.404 620.543C487.006 620.276 486.509 620.142 485.912 620.142C485.304 620.142 484.736 620.298 484.208 620.611C483.685 620.918 483.245 621.315 482.887 621.804C482.529 622.293 482.301 622.807 482.205 623.347L481.855 625.341C481.73 626.159 481.759 626.827 481.941 627.344C482.123 627.861 482.441 628.241 482.895 628.486C483.35 628.73 483.924 628.852 484.617 628.852C485.071 628.852 485.492 628.79 485.878 628.665C486.265 628.54 486.608 628.352 486.909 628.102C487.216 627.847 487.472 627.534 487.676 627.165L490.498 627.489C490.185 628.25 489.728 628.915 489.125 629.483C488.523 630.045 487.801 630.483 486.961 630.795C486.125 631.102 485.196 631.256 484.174 631.256ZM496.395 631.264C495.566 631.264 494.844 631.116 494.23 630.821C493.617 630.52 493.165 630.077 492.875 629.491C492.591 628.906 492.52 628.185 492.662 627.327C492.787 626.588 493.026 625.977 493.378 625.494C493.736 625.011 494.174 624.625 494.691 624.335C495.213 624.04 495.782 623.818 496.395 623.67C497.015 623.523 497.645 623.415 498.287 623.347C499.071 623.267 499.705 623.193 500.188 623.125C500.676 623.057 501.043 622.955 501.287 622.818C501.532 622.676 501.679 622.46 501.73 622.17V622.119C501.833 621.477 501.73 620.98 501.424 620.628C501.117 620.276 500.605 620.099 499.89 620.099C499.14 620.099 498.509 620.264 497.998 620.594C497.486 620.923 497.114 621.312 496.881 621.761L494.086 621.352C494.438 620.557 494.921 619.892 495.534 619.358C496.148 618.818 496.855 618.415 497.657 618.148C498.463 617.875 499.324 617.739 500.239 617.739C500.864 617.739 501.475 617.812 502.071 617.96C502.674 618.108 503.205 618.352 503.665 618.693C504.131 619.028 504.472 619.486 504.688 620.065C504.909 620.645 504.946 621.369 504.799 622.239L503.341 631H500.375L500.682 629.202H500.58C500.336 629.565 500.017 629.906 499.625 630.224C499.233 630.537 498.767 630.79 498.228 630.983C497.688 631.17 497.077 631.264 496.395 631.264ZM497.563 628.997C498.182 628.997 498.739 628.875 499.233 628.631C499.728 628.381 500.134 628.051 500.452 627.642C500.77 627.233 500.969 626.787 501.049 626.304L501.304 624.761C501.191 624.841 501.015 624.915 500.776 624.983C500.537 625.051 500.27 625.111 499.975 625.162C499.685 625.213 499.398 625.259 499.114 625.298C498.83 625.338 498.586 625.372 498.381 625.401C497.909 625.463 497.478 625.565 497.086 625.707C496.699 625.849 496.378 626.048 496.123 626.304C495.873 626.554 495.716 626.878 495.654 627.276C495.563 627.838 495.696 628.267 496.054 628.562C496.412 628.852 496.915 628.997 497.563 628.997ZM510.807 623.33L509.546 631H506.452L508.634 617.909H511.591L511.216 620.134H511.378C511.787 619.401 512.361 618.818 513.1 618.386C513.838 617.955 514.699 617.739 515.682 617.739C516.574 617.739 517.324 617.932 517.932 618.318C518.54 618.699 518.972 619.259 519.228 619.997C519.483 620.73 519.523 621.619 519.347 622.665L517.949 631H514.864L516.168 623.142C516.316 622.273 516.205 621.591 515.836 621.097C515.472 620.597 514.887 620.347 514.08 620.347C513.54 620.347 513.043 620.466 512.588 620.705C512.134 620.937 511.75 621.276 511.438 621.719C511.131 622.162 510.921 622.699 510.807 623.33ZM538.962 621.369L536.124 621.676C536.096 621.386 536.007 621.116 535.86 620.866C535.712 620.616 535.49 620.418 535.195 620.27C534.905 620.116 534.53 620.04 534.07 620.04C533.4 620.04 532.811 620.19 532.306 620.491C531.8 620.793 531.513 621.179 531.445 621.651C531.382 622.003 531.468 622.29 531.701 622.511C531.934 622.733 532.365 622.92 532.996 623.074L535.161 623.551C536.354 623.818 537.212 624.25 537.735 624.847C538.263 625.443 538.448 626.224 538.289 627.19C538.152 627.997 537.8 628.707 537.232 629.321C536.664 629.929 535.936 630.403 535.05 630.744C534.169 631.085 533.192 631.256 532.118 631.256C530.488 631.256 529.232 630.918 528.351 630.241C527.476 629.56 527.042 628.622 527.047 627.429L530.081 627.139C530.115 627.73 530.323 628.176 530.703 628.477C531.084 628.773 531.613 628.923 532.289 628.929C533.05 628.935 533.692 628.776 534.215 628.452C534.743 628.122 535.042 627.722 535.11 627.25C535.167 626.898 535.078 626.611 534.846 626.389C534.618 626.168 534.212 625.991 533.627 625.861L531.479 625.392C530.263 625.125 529.397 624.673 528.88 624.037C528.368 623.395 528.195 622.585 528.36 621.608C528.496 620.812 528.828 620.128 529.357 619.554C529.891 618.974 530.576 618.528 531.411 618.216C532.246 617.898 533.181 617.739 534.215 617.739C535.772 617.739 536.945 618.065 537.735 618.719C538.525 619.372 538.934 620.256 538.962 621.369ZM545.955 631.256C544.642 631.256 543.557 630.983 542.699 630.438C541.841 629.886 541.239 629.108 540.892 628.102C540.551 627.091 540.495 625.901 540.722 624.531C540.944 623.185 541.395 622.003 542.077 620.986C542.759 619.963 543.611 619.168 544.634 618.599C545.662 618.026 546.799 617.739 548.043 617.739C548.85 617.739 549.591 617.869 550.267 618.131C550.944 618.386 551.515 618.784 551.98 619.324C552.446 619.864 552.767 620.551 552.944 621.386C553.12 622.216 553.111 623.205 552.918 624.352L552.773 625.298H542.034L542.367 623.219H550.14C550.242 622.628 550.208 622.102 550.037 621.642C549.867 621.176 549.583 620.81 549.185 620.543C548.787 620.276 548.29 620.142 547.694 620.142C547.086 620.142 546.517 620.298 545.989 620.611C545.466 620.918 545.026 621.315 544.668 621.804C544.31 622.293 544.083 622.807 543.986 623.347L543.637 625.341C543.512 626.159 543.54 626.827 543.722 627.344C543.904 627.861 544.222 628.241 544.676 628.486C545.131 628.73 545.705 628.852 546.398 628.852C546.853 628.852 547.273 628.79 547.659 628.665C548.046 628.54 548.39 628.352 548.691 628.102C548.998 627.847 549.253 627.534 549.458 627.165L552.279 627.489C551.966 628.25 551.509 628.915 550.907 629.483C550.304 630.045 549.583 630.483 548.742 630.795C547.907 631.102 546.978 631.256 545.955 631.256ZM558.176 631.264C557.347 631.264 556.625 631.116 556.012 630.821C555.398 630.52 554.946 630.077 554.657 629.491C554.373 628.906 554.301 628.185 554.444 627.327C554.569 626.588 554.807 625.977 555.159 625.494C555.517 625.011 555.955 624.625 556.472 624.335C556.995 624.04 557.563 623.818 558.176 623.67C558.796 623.523 559.426 623.415 560.069 623.347C560.853 623.267 561.486 623.193 561.969 623.125C562.458 623.057 562.824 622.955 563.069 622.818C563.313 622.676 563.461 622.46 563.512 622.17V622.119C563.614 621.477 563.512 620.98 563.205 620.628C562.898 620.276 562.387 620.099 561.671 620.099C560.921 620.099 560.29 620.264 559.779 620.594C559.267 620.923 558.895 621.312 558.662 621.761L555.867 621.352C556.219 620.557 556.702 619.892 557.316 619.358C557.929 618.818 558.637 618.415 559.438 618.148C560.245 617.875 561.105 617.739 562.02 617.739C562.645 617.739 563.256 617.812 563.853 617.96C564.455 618.108 564.986 618.352 565.446 618.693C565.912 619.028 566.253 619.486 566.469 620.065C566.691 620.645 566.728 621.369 566.58 622.239L565.123 631H562.157L562.463 629.202H562.361C562.117 629.565 561.799 629.906 561.407 630.224C561.015 630.537 560.549 630.79 560.009 630.983C559.469 631.17 558.858 631.264 558.176 631.264ZM559.344 628.997C559.963 628.997 560.52 628.875 561.015 628.631C561.509 628.381 561.915 628.051 562.233 627.642C562.551 627.233 562.75 626.787 562.83 626.304L563.086 624.761C562.972 624.841 562.796 624.915 562.557 624.983C562.319 625.051 562.051 625.111 561.756 625.162C561.466 625.213 561.179 625.259 560.895 625.298C560.611 625.338 560.367 625.372 560.162 625.401C559.691 625.463 559.259 625.565 558.867 625.707C558.48 625.849 558.159 626.048 557.904 626.304C557.654 626.554 557.498 626.878 557.435 627.276C557.344 627.838 557.478 628.267 557.836 628.562C558.194 628.852 558.696 628.997 559.344 628.997Z" fill="#017D83"/>
<defs>
<filter id="filter0_d_275_2" x="57.5" y="263" width="1087.92" height="255.349" filterUnits="userSpaceOnUse" color-interpolation-filters="sRGB">
<feFlood flood-opacity="0" result="BackgroundImageFix"/>
<feColorMatrix in="SourceAlpha" type="matrix" values="0 0 0 0 0 0 0 0 0 0 0 0 0 0 0 0 0 0 127 0" result="hardAlpha"/>
<feOffset dy="4"/>
<feGaussianBlur stdDeviation="2"/>
<feComposite in2="hardAlpha" operator="out"/>
<feColorMatrix type="matrix" values="0 0 0 0 0 0 0 0 0 0 0 0 0 0 0 0 0 0 0.25 0"/>
<feBlend mode="normal" in2="BackgroundImageFix" result="effect1_dropShadow_275_2"/>
<feBlend mode="normal" in="SourceGraphic" in2="effect1_dropShadow_275_2" result="shape"/>
</filter>
</defs>
</svg>
