<svg width="923" height="600" viewBox="0 0 923 600" fill="none" xmlns="http://www.w3.org/2000/svg">
<rect x="0.5" y="0.5" width="922" height="599" rx="35.5" fill="#202637" stroke="#717171"/>
<path d="M808.465 92.5731L109.049 91L109.573 217.371H108V476.93L627.582 477.455L630.728 483.223L632.825 485.32L635.971 486.369L645.408 491.613L650.127 493.186L656.418 497.381H660.088L663.234 499.478L666.38 503.148L670.05 506.295L673.196 506.819C674.594 506.644 677.6 506.19 678.439 505.77C679.278 505.351 681.235 503.848 682.109 503.148L685.255 498.954L686.303 494.759L688.925 494.234L692.595 495.807L704.654 497.381C706.576 496.856 710.631 495.807 711.47 495.807C712.309 495.807 715.664 496.507 717.237 496.856L721.432 495.807L727.723 496.856L729.82 494.234L731.393 494.759L735.063 495.807L739.258 494.234L742.404 495.807L747.122 496.856L748.695 501.051L753.414 503.148L754.462 504.722L756.035 506.295L765.997 507.343L770.191 508.392L772.289 512.063C772.638 512.237 773.442 512.692 773.862 513.111C774.281 513.531 776.134 511.888 777.007 511.014L785.92 514.684L787.493 519.404L795.358 520.452L796.931 521.501V522.026L795.358 526.22L795.882 527.794L797.455 530.94L801.125 533.561L802.698 535.659L804.271 539.854L810.563 538.805L813.184 541.427L815.281 543L817.379 541.951V539.329L816.33 531.464L813.708 524.647L810.038 520.977L806.368 517.306L803.222 513.111V508.392L805.844 503.148L807.417 498.429L810.563 496.856L811.611 486.369L814.233 482.174L812.66 480.077L815.281 475.882L814.233 473.26L813.708 471.687L817.903 468.541L819.476 463.297L820 460.675C819.476 459.626 818.322 457.424 817.903 457.005C817.483 456.585 817.379 454.732 817.379 453.858V450.188L815.806 448.615H811.087L808.99 448.091L810.038 446.517V444.42L806.893 442.323V439.701L808.99 439.176L811.611 438.128L812.66 431.311V427.64L811.611 426.067L808.465 423.445L806.368 420.824V418.726L806.893 416.104L805.844 415.056V412.434C805.844 412.014 807.242 411.91 807.941 411.91L810.038 412.434H813.184L819.476 412.958V178.044L815.806 169.654L803.747 162.838L799.552 162.313L796.931 161.265L793.261 154.972L788.018 143.961L781.202 137.668L782.25 135.571V132.425L788.018 127.705L799.028 118.791L801.649 116.694C802.174 115.645 803.118 113.443 802.698 113.023C802.279 112.604 804.97 110.401 806.368 109.353L807.941 107.255L808.465 92.5731Z" fill="#97DCFF" stroke="white"/>
<path d="M841.722 234.545H845.591L850.773 247.193H850.977L856.159 234.545H860.028V252H856.994V240.009H856.832L852.009 251.949H849.741L844.918 239.983H844.756V252H841.722V234.545ZM877.815 234.545V252H875.003L866.778 240.111H866.634V252H863.472V234.545H866.301L874.517 246.443H874.67V234.545H877.815Z" fill="#FFE587"/>
<path d="M429.065 46.5455V64H426.253L418.028 52.1108H417.884V64H414.722V46.5455H417.551L425.767 58.4432H425.92V46.5455H429.065ZM438.425 64H432.511V46.5455H438.545C440.278 46.5455 441.766 46.8949 443.011 47.5938C444.261 48.2869 445.221 49.2841 445.891 50.5852C446.562 51.8864 446.897 53.4432 446.897 55.2557C446.897 57.0739 446.559 58.6364 445.883 59.9432C445.212 61.25 444.244 62.2528 442.977 62.9517C441.715 63.6506 440.198 64 438.425 64ZM435.673 61.2642H438.272C439.488 61.2642 440.502 61.0426 441.315 60.5994C442.127 60.1506 442.738 59.483 443.147 58.5966C443.556 57.7045 443.761 56.5909 443.761 55.2557C443.761 53.9205 443.556 52.8125 443.147 51.9318C442.738 51.0455 442.133 50.3835 441.332 49.946C440.536 49.5028 439.548 49.2812 438.366 49.2812H435.673V61.2642Z" fill="#FFE587"/>
<path d="M851.884 433.545V451H848.722V433.545H851.884ZM857.549 451H854.174L860.319 433.545H864.222L870.376 451H867.001L862.339 437.125H862.202L857.549 451ZM857.66 444.156H866.864V446.696H857.66V444.156Z" fill="#FFE587"/>
<path d="M433.065 508.545V526H430.253L422.028 514.111H421.884V526H418.722V508.545H421.551L429.767 520.443H429.92V508.545H433.065ZM436.511 526V508.545H447.863V511.196H439.673V515.935H447.275V518.585H439.673V523.349H447.931V526H436.511Z" fill="#FFE587"/>
<path d="M46.3949 360L41.4688 342.545H44.8693L48.0142 355.372H48.1761L51.5341 342.545H54.6278L57.9943 355.381H58.1477L61.2926 342.545H64.6932L59.767 360H56.6477L53.1534 347.753H53.017L49.5142 360H46.3949ZM65.6925 342.545H69.2635L73.5334 350.267H73.7038L77.9737 342.545H81.5447L75.1953 353.489V360H72.0419V353.489L65.6925 342.545Z" fill="#FFE587"/>
<path d="M42.7216 138.545H46.5909L51.7727 151.193H51.9773L57.1591 138.545H61.0284V156H57.9943V144.009H57.8324L53.0085 155.949H50.7415L45.9176 143.983H45.7557V156H42.7216V138.545ZM63.7045 141.196V138.545H77.6307V141.196H72.2358V156H69.0994V141.196H63.7045Z" fill="#FFE587"/>
<circle cx="453.511" cy="300.511" r="9.01136" fill="#FF8F87" stroke="black"/>
<path d="M127.202 370V351.818H133.345C134.766 351.818 135.932 352.061 136.843 352.546C137.754 353.026 138.429 353.685 138.867 354.526C139.305 355.366 139.524 356.322 139.524 357.393C139.524 358.465 139.305 359.415 138.867 360.243C138.429 361.072 137.757 361.723 136.852 362.196C135.946 362.664 134.789 362.898 133.381 362.898H128.409V360.909H133.31C134.28 360.909 135.062 360.767 135.653 360.483C136.251 360.199 136.683 359.796 136.95 359.276C137.222 358.749 137.358 358.121 137.358 357.393C137.358 356.665 137.222 356.029 136.95 355.485C136.677 354.94 136.242 354.52 135.645 354.224C135.047 353.922 134.257 353.771 133.274 353.771H129.403V370H127.202ZM135.76 361.832L140.234 370H137.678L133.274 361.832H135.76ZM146.922 370.32C146.057 370.32 145.273 370.157 144.569 369.831C143.865 369.5 143.305 369.023 142.891 368.402C142.477 367.775 142.27 367.017 142.27 366.129C142.27 365.348 142.424 364.715 142.731 364.229C143.039 363.738 143.45 363.353 143.965 363.075C144.48 362.797 145.048 362.59 145.67 362.454C146.297 362.312 146.928 362.199 147.561 362.116C148.389 362.01 149.061 361.93 149.576 361.877C150.097 361.818 150.476 361.72 150.712 361.584C150.955 361.448 151.076 361.211 151.076 360.874V360.803C151.076 359.927 150.837 359.246 150.357 358.761C149.884 358.275 149.165 358.033 148.2 358.033C147.2 358.033 146.416 358.252 145.847 358.69C145.279 359.128 144.88 359.595 144.649 360.092L142.66 359.382C143.015 358.554 143.489 357.908 144.081 357.447C144.678 356.979 145.33 356.654 146.034 356.47C146.744 356.281 147.442 356.186 148.129 356.186C148.567 356.186 149.07 356.239 149.638 356.346C150.212 356.446 150.766 356.657 151.298 356.976C151.837 357.296 152.284 357.778 152.639 358.423C152.994 359.068 153.172 359.933 153.172 361.016V370H151.076V368.153H150.97C150.828 368.449 150.591 368.766 150.26 369.103C149.928 369.441 149.487 369.728 148.937 369.964C148.386 370.201 147.715 370.32 146.922 370.32ZM147.241 368.438C148.07 368.438 148.768 368.275 149.336 367.949C149.91 367.624 150.343 367.203 150.633 366.689C150.928 366.174 151.076 365.632 151.076 365.064V363.146C150.988 363.253 150.792 363.35 150.491 363.439C150.195 363.522 149.851 363.596 149.461 363.661C149.076 363.72 148.7 363.774 148.333 363.821C147.972 363.862 147.679 363.898 147.454 363.928C146.91 363.999 146.401 364.114 145.927 364.274C145.46 364.428 145.081 364.661 144.791 364.975C144.507 365.283 144.365 365.703 144.365 366.236C144.365 366.964 144.634 367.514 145.173 367.887C145.717 368.254 146.407 368.438 147.241 368.438ZM156.996 375.114V356.364H159.02V358.53H159.268C159.422 358.293 159.635 357.991 159.908 357.624C160.186 357.251 160.582 356.92 161.097 356.63C161.618 356.334 162.322 356.186 163.21 356.186C164.358 356.186 165.371 356.473 166.246 357.047C167.122 357.621 167.806 358.435 168.297 359.489C168.788 360.542 169.034 361.785 169.034 363.217C169.034 364.661 168.788 365.913 168.297 366.973C167.806 368.026 167.125 368.843 166.255 369.423C165.385 369.997 164.382 370.284 163.246 370.284C162.37 370.284 161.668 370.139 161.142 369.849C160.615 369.553 160.21 369.219 159.925 368.846C159.641 368.467 159.422 368.153 159.268 367.905H159.091V375.114H156.996ZM159.055 363.182C159.055 364.212 159.206 365.12 159.508 365.907C159.81 366.689 160.251 367.301 160.831 367.745C161.411 368.183 162.121 368.402 162.962 368.402C163.838 368.402 164.569 368.171 165.154 367.71C165.746 367.242 166.19 366.615 166.486 365.827C166.788 365.034 166.939 364.152 166.939 363.182C166.939 362.223 166.791 361.359 166.495 360.589C166.205 359.814 165.764 359.202 165.172 358.752C164.586 358.296 163.849 358.068 162.962 358.068C162.109 358.068 161.393 358.284 160.813 358.716C160.233 359.142 159.795 359.74 159.499 360.51C159.203 361.273 159.055 362.164 159.055 363.182ZM172.23 370V356.364H174.325V370H172.23ZM173.295 354.091C172.887 354.091 172.535 353.952 172.239 353.674C171.949 353.395 171.804 353.061 171.804 352.67C171.804 352.28 171.949 351.945 172.239 351.667C172.535 351.389 172.887 351.25 173.295 351.25C173.704 351.25 174.053 351.389 174.343 351.667C174.639 351.945 174.787 352.28 174.787 352.67C174.787 353.061 174.639 353.395 174.343 353.674C174.053 353.952 173.704 354.091 173.295 354.091ZM183.312 370.284C182.176 370.284 181.172 369.997 180.302 369.423C179.432 368.843 178.752 368.026 178.26 366.973C177.769 365.913 177.524 364.661 177.524 363.217C177.524 361.785 177.769 360.542 178.26 359.489C178.752 358.435 179.435 357.621 180.311 357.047C181.187 356.473 182.199 356.186 183.347 356.186C184.235 356.186 184.937 356.334 185.451 356.63C185.972 356.92 186.369 357.251 186.641 357.624C186.919 357.991 187.135 358.293 187.289 358.53H187.467V351.818H189.562V370H187.538V367.905H187.289C187.135 368.153 186.916 368.467 186.632 368.846C186.348 369.219 185.943 369.553 185.416 369.849C184.889 370.139 184.188 370.284 183.312 370.284ZM183.596 368.402C184.436 368.402 185.147 368.183 185.727 367.745C186.307 367.301 186.748 366.689 187.049 365.907C187.351 365.12 187.502 364.212 187.502 363.182C187.502 362.164 187.354 361.273 187.058 360.51C186.762 359.74 186.324 359.142 185.744 358.716C185.164 358.284 184.448 358.068 183.596 358.068C182.708 358.068 181.968 358.296 181.377 358.752C180.791 359.202 180.35 359.814 180.054 360.589C179.764 361.359 179.619 362.223 179.619 363.182C179.619 364.152 179.767 365.034 180.063 365.827C180.364 366.615 180.808 367.242 181.394 367.71C181.986 368.171 182.72 368.402 183.596 368.402ZM215.636 357.5H213.434C213.304 356.867 213.076 356.31 212.751 355.831C212.431 355.352 212.041 354.949 211.579 354.624C211.123 354.292 210.617 354.044 210.061 353.878C209.504 353.712 208.924 353.629 208.321 353.629C207.22 353.629 206.223 353.907 205.329 354.464C204.441 355.02 203.734 355.84 203.207 356.923C202.686 358.006 202.426 359.335 202.426 360.909C202.426 362.483 202.686 363.812 203.207 364.895C203.734 365.978 204.441 366.798 205.329 367.354C206.223 367.911 207.22 368.189 208.321 368.189C208.924 368.189 209.504 368.106 210.061 367.94C210.617 367.775 211.123 367.529 211.579 367.203C212.041 366.872 212.431 366.467 212.751 365.987C213.076 365.502 213.304 364.946 213.434 364.318H215.636C215.47 365.247 215.169 366.079 214.731 366.813C214.293 367.547 213.748 368.171 213.097 368.686C212.446 369.195 211.715 369.583 210.904 369.849C210.099 370.115 209.238 370.249 208.321 370.249C206.77 370.249 205.391 369.87 204.184 369.112C202.976 368.355 202.026 367.277 201.334 365.881C200.641 364.484 200.295 362.827 200.295 360.909C200.295 358.991 200.641 357.334 201.334 355.938C202.026 354.541 202.976 353.464 204.184 352.706C205.391 351.948 206.77 351.57 208.321 351.57C209.238 351.57 210.099 351.703 210.904 351.969C211.715 352.235 212.446 352.626 213.097 353.141C213.748 353.65 214.293 354.271 214.731 355.005C215.169 355.733 215.47 356.565 215.636 357.5ZM218.91 370V356.364H221.005V370H218.91ZM219.975 354.091C219.567 354.091 219.215 353.952 218.919 353.674C218.629 353.395 218.484 353.061 218.484 352.67C218.484 352.28 218.629 351.945 218.919 351.667C219.215 351.389 219.567 351.25 219.975 351.25C220.384 351.25 220.733 351.389 221.023 351.667C221.319 351.945 221.467 352.28 221.467 352.67C221.467 353.061 221.319 353.395 221.023 353.674C220.733 353.952 220.384 354.091 219.975 354.091ZM230.773 356.364V358.139H223.706V356.364H230.773ZM225.766 353.097H227.861V366.094C227.861 366.686 227.947 367.129 228.118 367.425C228.296 367.715 228.521 367.911 228.793 368.011C229.071 368.106 229.364 368.153 229.672 368.153C229.903 368.153 230.092 368.142 230.24 368.118C230.388 368.088 230.506 368.065 230.595 368.047L231.021 369.929C230.879 369.982 230.681 370.036 230.427 370.089C230.172 370.148 229.85 370.178 229.459 370.178C228.867 370.178 228.287 370.05 227.719 369.796C227.157 369.541 226.689 369.154 226.316 368.633C225.949 368.112 225.766 367.455 225.766 366.662V353.097ZM235.274 375.114C234.919 375.114 234.602 375.084 234.324 375.025C234.046 374.972 233.853 374.918 233.747 374.865L234.28 373.018C234.789 373.149 235.238 373.196 235.629 373.161C236.02 373.125 236.366 372.95 236.668 372.637C236.975 372.329 237.257 371.829 237.511 371.136L237.902 370.071L232.859 356.364H235.132L238.896 367.23H239.038L242.802 356.364H245.075L239.287 371.989C239.026 372.693 238.704 373.276 238.319 373.738C237.934 374.205 237.487 374.551 236.978 374.776C236.475 375.001 235.907 375.114 235.274 375.114Z" fill="black"/>
<path d="M126.202 457V438.818H128.403V446.915H138.098V438.818H140.3V457H138.098V448.868H128.403V457H126.202ZM149.963 457.284C148.732 457.284 147.652 456.991 146.723 456.405C145.8 455.819 145.077 455 144.557 453.946C144.042 452.893 143.784 451.661 143.784 450.253C143.784 448.832 144.042 447.592 144.557 446.533C145.077 445.474 145.8 444.651 146.723 444.065C147.652 443.479 148.732 443.186 149.963 443.186C151.194 443.186 152.271 443.479 153.195 444.065C154.124 444.651 154.846 445.474 155.361 446.533C155.882 447.592 156.142 448.832 156.142 450.253C156.142 451.661 155.882 452.893 155.361 453.946C154.846 455 154.124 455.819 153.195 456.405C152.271 456.991 151.194 457.284 149.963 457.284ZM149.963 455.402C150.898 455.402 151.668 455.162 152.271 454.683C152.875 454.203 153.322 453.573 153.612 452.792C153.902 452.011 154.047 451.164 154.047 450.253C154.047 449.341 153.902 448.492 153.612 447.705C153.322 446.918 152.875 446.281 152.271 445.796C151.668 445.311 150.898 445.068 149.963 445.068C149.028 445.068 148.259 445.311 147.655 445.796C147.051 446.281 146.604 446.918 146.314 447.705C146.024 448.492 145.879 449.341 145.879 450.253C145.879 451.164 146.024 452.011 146.314 452.792C146.604 453.573 147.051 454.203 147.655 454.683C148.259 455.162 149.028 455.402 149.963 455.402ZM165.271 443.364V445.139H158.204V443.364H165.271ZM160.264 440.097H162.359V453.094C162.359 453.686 162.445 454.129 162.616 454.425C162.794 454.715 163.019 454.911 163.291 455.011C163.569 455.106 163.862 455.153 164.17 455.153C164.401 455.153 164.59 455.142 164.738 455.118C164.886 455.088 165.005 455.065 165.093 455.047L165.519 456.929C165.377 456.982 165.179 457.036 164.925 457.089C164.67 457.148 164.348 457.178 163.957 457.178C163.365 457.178 162.785 457.05 162.217 456.796C161.655 456.541 161.187 456.154 160.814 455.633C160.447 455.112 160.264 454.455 160.264 453.662V440.097ZM185.681 443.364C185.574 442.464 185.142 441.766 184.385 441.268C183.627 440.771 182.698 440.523 181.597 440.523C180.792 440.523 180.088 440.653 179.484 440.913C178.887 441.174 178.419 441.532 178.082 441.988C177.75 442.443 177.584 442.961 177.584 443.541C177.584 444.027 177.7 444.444 177.931 444.793C178.167 445.136 178.469 445.423 178.836 445.654C179.203 445.879 179.588 446.065 179.99 446.213C180.393 446.355 180.763 446.471 181.1 446.56L182.947 447.057C183.42 447.181 183.947 447.353 184.527 447.572C185.113 447.791 185.672 448.09 186.205 448.468C186.743 448.841 187.187 449.321 187.536 449.907C187.886 450.493 188.06 451.212 188.06 452.064C188.06 453.046 187.803 453.934 187.288 454.727C186.779 455.52 186.033 456.151 185.051 456.618C184.074 457.086 182.887 457.32 181.491 457.32C180.189 457.32 179.061 457.109 178.108 456.689C177.161 456.269 176.416 455.683 175.871 454.931C175.332 454.18 175.028 453.307 174.957 452.312H177.229C177.289 452.999 177.519 453.567 177.922 454.017C178.33 454.461 178.845 454.792 179.467 455.011C180.094 455.224 180.769 455.331 181.491 455.331C182.331 455.331 183.086 455.195 183.755 454.923C184.423 454.644 184.953 454.26 185.344 453.768C185.734 453.271 185.93 452.691 185.93 452.028C185.93 451.425 185.761 450.933 185.424 450.555C185.086 450.176 184.642 449.868 184.092 449.631C183.541 449.395 182.947 449.187 182.307 449.01L180.07 448.371C178.65 447.962 177.525 447.379 176.697 446.622C175.868 445.864 175.454 444.873 175.454 443.648C175.454 442.63 175.729 441.742 176.279 440.984C176.836 440.221 177.581 439.629 178.517 439.209C179.458 438.783 180.508 438.57 181.668 438.57C182.84 438.57 183.882 438.78 184.793 439.2C185.705 439.614 186.427 440.182 186.959 440.904C187.498 441.627 187.782 442.446 187.812 443.364H185.681ZM191.396 462.114V443.364H193.42V445.53H193.669C193.823 445.293 194.036 444.991 194.308 444.624C194.586 444.251 194.983 443.92 195.498 443.63C196.019 443.334 196.723 443.186 197.611 443.186C198.759 443.186 199.771 443.473 200.647 444.047C201.523 444.621 202.206 445.435 202.698 446.489C203.189 447.542 203.434 448.785 203.434 450.217C203.434 451.661 203.189 452.913 202.698 453.973C202.206 455.026 201.526 455.843 200.656 456.423C199.786 456.997 198.782 457.284 197.646 457.284C196.77 457.284 196.069 457.139 195.542 456.849C195.015 456.553 194.61 456.219 194.326 455.846C194.042 455.467 193.823 455.153 193.669 454.905H193.491V462.114H191.396ZM193.456 450.182C193.456 451.212 193.607 452.12 193.909 452.907C194.21 453.689 194.651 454.301 195.231 454.745C195.811 455.183 196.522 455.402 197.362 455.402C198.238 455.402 198.969 455.171 199.555 454.71C200.147 454.242 200.591 453.615 200.887 452.827C201.188 452.034 201.339 451.152 201.339 450.182C201.339 449.223 201.191 448.359 200.895 447.589C200.605 446.814 200.164 446.202 199.573 445.752C198.987 445.296 198.25 445.068 197.362 445.068C196.51 445.068 195.794 445.284 195.214 445.716C194.634 446.142 194.196 446.74 193.9 447.51C193.604 448.273 193.456 449.164 193.456 450.182ZM206.631 457V443.364H208.655V445.423H208.797C209.045 444.749 209.495 444.201 210.146 443.781C210.797 443.361 211.531 443.151 212.348 443.151C212.502 443.151 212.694 443.154 212.925 443.159C213.156 443.165 213.33 443.174 213.449 443.186V445.317C213.378 445.299 213.215 445.272 212.96 445.237C212.712 445.195 212.448 445.175 212.17 445.175C211.507 445.175 210.916 445.314 210.395 445.592C209.88 445.864 209.471 446.243 209.17 446.728C208.874 447.208 208.726 447.755 208.726 448.371V457H206.631ZM215.932 457V443.364H218.027V457H215.932ZM216.998 441.091C216.589 441.091 216.237 440.952 215.941 440.674C215.651 440.395 215.506 440.061 215.506 439.67C215.506 439.28 215.651 438.945 215.941 438.667C216.237 438.389 216.589 438.25 216.998 438.25C217.406 438.25 217.755 438.389 218.045 438.667C218.341 438.945 218.489 439.28 218.489 439.67C218.489 440.061 218.341 440.395 218.045 440.674C217.755 440.952 217.406 441.091 216.998 441.091ZM223.96 448.797V457H221.865V443.364H223.889V445.494H224.067C224.386 444.802 224.872 444.246 225.523 443.825C226.174 443.399 227.014 443.186 228.044 443.186C228.967 443.186 229.775 443.375 230.468 443.754C231.16 444.127 231.699 444.695 232.083 445.459C232.468 446.216 232.66 447.175 232.66 448.335V457H230.565V448.477C230.565 447.406 230.287 446.571 229.731 445.974C229.174 445.37 228.411 445.068 227.44 445.068C226.771 445.068 226.174 445.213 225.647 445.503C225.126 445.793 224.715 446.216 224.413 446.773C224.111 447.329 223.96 448.004 223.96 448.797ZM241.993 462.398C240.981 462.398 240.111 462.268 239.383 462.007C238.655 461.753 238.048 461.415 237.563 460.995C237.084 460.581 236.702 460.137 236.418 459.663L238.087 458.491C238.276 458.74 238.516 459.024 238.806 459.344C239.096 459.669 239.493 459.95 239.996 460.187C240.505 460.43 241.17 460.551 241.993 460.551C243.094 460.551 244.003 460.285 244.719 459.752C245.435 459.219 245.793 458.385 245.793 457.249V454.479H245.615C245.461 454.727 245.242 455.035 244.958 455.402C244.68 455.763 244.278 456.086 243.751 456.37C243.23 456.648 242.526 456.787 241.638 456.787C240.537 456.787 239.549 456.527 238.673 456.006C237.803 455.485 237.113 454.727 236.604 453.733C236.101 452.739 235.85 451.531 235.85 450.111C235.85 448.714 236.095 447.498 236.587 446.462C237.078 445.42 237.761 444.615 238.637 444.047C239.513 443.473 240.525 443.186 241.674 443.186C242.561 443.186 243.266 443.334 243.786 443.63C244.313 443.92 244.716 444.251 244.994 444.624C245.278 444.991 245.497 445.293 245.651 445.53H245.864V443.364H247.888V457.391C247.888 458.562 247.622 459.515 247.089 460.249C246.562 460.989 245.852 461.531 244.958 461.874C244.071 462.223 243.082 462.398 241.993 462.398ZM241.922 454.905C242.763 454.905 243.473 454.712 244.053 454.328C244.633 453.943 245.074 453.39 245.376 452.668C245.677 451.946 245.828 451.081 245.828 450.075C245.828 449.093 245.68 448.226 245.384 447.474C245.089 446.722 244.651 446.134 244.071 445.707C243.491 445.281 242.774 445.068 241.922 445.068C241.034 445.068 240.295 445.293 239.703 445.743C239.117 446.193 238.676 446.796 238.38 447.554C238.09 448.312 237.945 449.152 237.945 450.075C237.945 451.022 238.093 451.86 238.389 452.588C238.691 453.31 239.134 453.878 239.72 454.292C240.312 454.701 241.046 454.905 241.922 454.905ZM261.382 446.418L259.5 446.95C259.382 446.637 259.207 446.332 258.976 446.036C258.752 445.734 258.444 445.485 258.053 445.29C257.663 445.095 257.162 444.997 256.553 444.997C255.718 444.997 255.023 445.19 254.467 445.574C253.916 445.953 253.641 446.435 253.641 447.021C253.641 447.542 253.83 447.953 254.209 448.255C254.588 448.557 255.18 448.809 255.985 449.01L258.009 449.507C259.228 449.803 260.137 450.256 260.734 450.865C261.332 451.469 261.631 452.247 261.631 453.2C261.631 453.982 261.406 454.68 260.956 455.295C260.512 455.911 259.891 456.396 259.092 456.751C258.293 457.107 257.364 457.284 256.304 457.284C254.913 457.284 253.762 456.982 252.851 456.379C251.939 455.775 251.362 454.893 251.12 453.733L253.108 453.236C253.298 453.97 253.656 454.52 254.182 454.887C254.715 455.254 255.411 455.438 256.269 455.438C257.245 455.438 258.021 455.23 258.595 454.816C259.175 454.396 259.465 453.893 259.465 453.307C259.465 452.833 259.299 452.437 258.968 452.117C258.636 451.792 258.127 451.549 257.441 451.389L255.168 450.857C253.919 450.561 253.002 450.102 252.416 449.48C251.836 448.853 251.546 448.069 251.546 447.128C251.546 446.358 251.762 445.678 252.194 445.086C252.632 444.494 253.227 444.029 253.978 443.692C254.736 443.355 255.594 443.186 256.553 443.186C257.902 443.186 258.962 443.482 259.731 444.074C260.506 444.666 261.057 445.447 261.382 446.418Z" fill="black"/>
<path d="M417.58 330V311.818H424.754C426.133 311.818 427.307 312.082 428.278 312.608C429.249 313.129 429.989 313.854 430.498 314.783C431.012 315.707 431.27 316.772 431.27 317.979C431.27 319.187 431.009 320.252 430.489 321.175C429.968 322.099 429.213 322.818 428.225 323.333C427.242 323.848 426.053 324.105 424.656 324.105H420.084V321.025H424.034C424.774 321.025 425.384 320.897 425.863 320.643C426.349 320.382 426.71 320.024 426.946 319.569C427.189 319.107 427.31 318.577 427.31 317.979C427.31 317.376 427.189 316.849 426.946 316.399C426.71 315.943 426.349 315.591 425.863 315.343C425.378 315.088 424.762 314.961 424.017 314.961H421.424V330H417.58ZM433.696 330V316.364H437.478V330H433.696ZM435.596 314.606C435.033 314.606 434.551 314.419 434.149 314.047C433.752 313.668 433.554 313.215 433.554 312.688C433.554 312.167 433.752 311.721 434.149 311.348C434.551 310.969 435.033 310.779 435.596 310.779C436.158 310.779 436.637 310.969 437.034 311.348C437.436 311.721 437.638 312.167 437.638 312.688C437.638 313.215 437.436 313.668 437.034 314.047C436.637 314.419 436.158 314.606 435.596 314.606ZM446.722 330.266C445.319 330.266 444.112 329.982 443.1 329.414C442.093 328.84 441.318 328.029 440.774 326.982C440.229 325.928 439.957 324.682 439.957 323.244C439.957 321.841 440.229 320.61 440.774 319.551C441.318 318.491 442.085 317.666 443.073 317.074C444.067 316.482 445.233 316.186 446.571 316.186C447.47 316.186 448.308 316.331 449.083 316.621C449.865 316.905 450.545 317.334 451.125 317.908C451.711 318.482 452.167 319.205 452.492 320.075C452.818 320.939 452.981 321.951 452.981 323.111V324.15H441.466V321.806H449.421C449.421 321.261 449.302 320.779 449.066 320.359C448.829 319.938 448.5 319.61 448.08 319.373C447.666 319.131 447.183 319.009 446.633 319.009C446.059 319.009 445.55 319.142 445.106 319.409C444.668 319.669 444.325 320.021 444.076 320.465C443.828 320.903 443.7 321.391 443.694 321.93V324.158C443.694 324.833 443.819 325.416 444.067 325.907C444.322 326.399 444.68 326.777 445.142 327.044C445.603 327.31 446.151 327.443 446.784 327.443C447.204 327.443 447.589 327.384 447.938 327.266C448.287 327.147 448.586 326.97 448.835 326.733C449.083 326.496 449.273 326.206 449.403 325.863L452.901 326.094C452.723 326.934 452.359 327.668 451.809 328.295C451.264 328.917 450.56 329.402 449.696 329.751C448.838 330.095 447.846 330.266 446.722 330.266ZM455.449 330V316.364H459.115V318.743H459.257C459.506 317.897 459.923 317.257 460.509 316.825C461.095 316.387 461.77 316.168 462.533 316.168C462.723 316.168 462.927 316.18 463.146 316.204C463.365 316.228 463.557 316.26 463.723 316.301V319.657C463.545 319.604 463.3 319.557 462.986 319.515C462.672 319.474 462.385 319.453 462.125 319.453C461.568 319.453 461.071 319.574 460.633 319.817C460.201 320.054 459.858 320.385 459.604 320.811C459.355 321.238 459.231 321.729 459.231 322.285V330H455.449ZM465.678 330V316.364H469.345V318.743H469.487C469.735 317.897 470.153 317.257 470.739 316.825C471.324 316.387 471.999 316.168 472.763 316.168C472.952 316.168 473.156 316.18 473.375 316.204C473.594 316.228 473.787 316.26 473.952 316.301V319.657C473.775 319.604 473.529 319.557 473.215 319.515C472.902 319.474 472.615 319.453 472.354 319.453C471.798 319.453 471.301 319.574 470.863 319.817C470.431 320.054 470.088 320.385 469.833 320.811C469.584 321.238 469.46 321.729 469.46 322.285V330H465.678ZM481.487 330.266C480.085 330.266 478.877 329.982 477.865 329.414C476.859 328.84 476.084 328.029 475.539 326.982C474.995 325.928 474.722 324.682 474.722 323.244C474.722 321.841 474.995 320.61 475.539 319.551C476.084 318.491 476.85 317.666 477.839 317.074C478.833 316.482 479.999 316.186 481.336 316.186C482.236 316.186 483.074 316.331 483.849 316.621C484.63 316.905 485.311 317.334 485.891 317.908C486.477 318.482 486.932 319.205 487.258 320.075C487.584 320.939 487.746 321.951 487.746 323.111V324.15H476.232V321.806H484.186C484.186 321.261 484.068 320.779 483.831 320.359C483.594 319.938 483.266 319.61 482.846 319.373C482.431 319.131 481.949 319.009 481.399 319.009C480.825 319.009 480.316 319.142 479.872 319.409C479.434 319.669 479.09 320.021 478.842 320.465C478.593 320.903 478.466 321.391 478.46 321.93V324.158C478.46 324.833 478.584 325.416 478.833 325.907C479.087 326.399 479.445 326.777 479.907 327.044C480.369 327.31 480.916 327.443 481.55 327.443C481.97 327.443 482.354 327.384 482.704 327.266C483.053 327.147 483.352 326.97 483.6 326.733C483.849 326.496 484.038 326.206 484.169 325.863L487.666 326.094C487.489 326.934 487.125 327.668 486.574 328.295C486.03 328.917 485.326 329.402 484.461 329.751C483.603 330.095 482.612 330.266 481.487 330.266Z" fill="black"/>
<path d="M689.145 422.364C689.038 421.464 688.606 420.766 687.849 420.268C687.091 419.771 686.162 419.523 685.061 419.523C684.256 419.523 683.552 419.653 682.948 419.913C682.35 420.174 681.883 420.532 681.545 420.988C681.214 421.443 681.048 421.961 681.048 422.541C681.048 423.027 681.164 423.444 681.395 423.793C681.631 424.136 681.933 424.423 682.3 424.654C682.667 424.879 683.052 425.065 683.454 425.213C683.857 425.355 684.227 425.471 684.564 425.56L686.411 426.057C686.884 426.181 687.411 426.353 687.991 426.572C688.577 426.791 689.136 427.09 689.669 427.468C690.207 427.841 690.651 428.321 691 428.907C691.35 429.493 691.524 430.212 691.524 431.064C691.524 432.046 691.267 432.934 690.752 433.727C690.243 434.52 689.497 435.151 688.515 435.618C687.538 436.086 686.351 436.32 684.955 436.32C683.652 436.32 682.525 436.109 681.572 435.689C680.625 435.269 679.879 434.683 679.335 433.931C678.796 433.18 678.491 432.307 678.42 431.312H680.693C680.752 431.999 680.983 432.567 681.386 433.017C681.794 433.461 682.309 433.792 682.93 434.011C683.558 434.224 684.232 434.331 684.955 434.331C685.795 434.331 686.55 434.195 687.218 433.923C687.887 433.644 688.417 433.26 688.808 432.768C689.198 432.271 689.393 431.691 689.393 431.028C689.393 430.425 689.225 429.933 688.887 429.555C688.55 429.176 688.106 428.868 687.556 428.631C687.005 428.395 686.411 428.187 685.771 428.01L683.534 427.371C682.114 426.962 680.989 426.379 680.161 425.622C679.332 424.864 678.918 423.873 678.918 422.648C678.918 421.63 679.193 420.742 679.743 419.984C680.3 419.221 681.045 418.629 681.98 418.209C682.922 417.783 683.972 417.57 685.132 417.57C686.304 417.57 687.346 417.78 688.257 418.2C689.169 418.614 689.891 419.182 690.423 419.904C690.962 420.627 691.246 421.446 691.276 422.364H689.145ZM694.86 436V422.364H696.955V436H694.86ZM695.925 420.091C695.517 420.091 695.165 419.952 694.869 419.674C694.579 419.395 694.434 419.061 694.434 418.67C694.434 418.28 694.579 417.945 694.869 417.667C695.165 417.389 695.517 417.25 695.925 417.25C696.334 417.25 696.683 417.389 696.973 417.667C697.269 417.945 697.417 418.28 697.417 418.67C697.417 419.061 697.269 419.395 696.973 419.674C696.683 419.952 696.334 420.091 695.925 420.091ZM706.332 436.284C705.101 436.284 704.021 435.991 703.092 435.405C702.169 434.819 701.447 434 700.926 432.946C700.411 431.893 700.153 430.661 700.153 429.253C700.153 427.832 700.411 426.592 700.926 425.533C701.447 424.474 702.169 423.651 703.092 423.065C704.021 422.479 705.101 422.186 706.332 422.186C707.563 422.186 708.641 422.479 709.564 423.065C710.493 423.651 711.215 424.474 711.73 425.533C712.251 426.592 712.511 427.832 712.511 429.253C712.511 430.661 712.251 431.893 711.73 432.946C711.215 434 710.493 434.819 709.564 435.405C708.641 435.991 707.563 436.284 706.332 436.284ZM706.332 434.402C707.268 434.402 708.037 434.162 708.641 433.683C709.244 433.203 709.691 432.573 709.981 431.792C710.271 431.011 710.416 430.164 710.416 429.253C710.416 428.341 710.271 427.492 709.981 426.705C709.691 425.918 709.244 425.281 708.641 424.796C708.037 424.311 707.268 424.068 706.332 424.068C705.397 424.068 704.628 424.311 704.024 424.796C703.42 425.281 702.974 425.918 702.684 426.705C702.394 427.492 702.249 428.341 702.249 429.253C702.249 430.164 702.394 431.011 702.684 431.792C702.974 432.573 703.42 433.203 704.024 433.683C704.628 434.162 705.397 434.402 706.332 434.402ZM724.303 430.425V422.364H726.399V436H724.303V433.692H724.161C723.842 434.384 723.345 434.973 722.67 435.458C721.995 435.938 721.143 436.178 720.113 436.178C719.261 436.178 718.503 435.991 717.84 435.618C717.177 435.239 716.657 434.671 716.278 433.914C715.899 433.15 715.71 432.188 715.71 431.028V422.364H717.805V430.886C717.805 431.881 718.083 432.674 718.639 433.266C719.202 433.857 719.918 434.153 720.788 434.153C721.309 434.153 721.838 434.02 722.377 433.754C722.921 433.488 723.377 433.079 723.744 432.529C724.117 431.978 724.303 431.277 724.303 430.425ZM731.798 422.364L735.066 427.939L738.333 422.364H740.747L736.344 429.182L740.747 436H738.333L735.066 430.709L731.798 436H729.384L733.716 429.182L729.384 422.364H731.798ZM751.052 436V417.818H761.954V419.771H753.254V425.915H761.138V427.868H753.254V436H751.052ZM769.454 436.32C768.59 436.32 767.806 436.157 767.101 435.831C766.397 435.5 765.838 435.023 765.423 434.402C765.009 433.775 764.802 433.017 764.802 432.129C764.802 431.348 764.956 430.715 765.263 430.229C765.571 429.738 765.983 429.353 766.498 429.075C767.012 428.797 767.581 428.59 768.202 428.454C768.829 428.312 769.46 428.199 770.093 428.116C770.922 428.01 771.593 427.93 772.108 427.877C772.629 427.818 773.008 427.72 773.245 427.584C773.487 427.448 773.609 427.211 773.609 426.874V426.803C773.609 425.927 773.369 425.246 772.89 424.761C772.416 424.275 771.697 424.033 770.732 424.033C769.732 424.033 768.948 424.252 768.38 424.69C767.811 425.128 767.412 425.595 767.181 426.092L765.192 425.382C765.548 424.554 766.021 423.908 766.613 423.447C767.211 422.979 767.862 422.654 768.566 422.47C769.276 422.281 769.975 422.186 770.661 422.186C771.099 422.186 771.602 422.239 772.17 422.346C772.745 422.446 773.298 422.657 773.831 422.976C774.369 423.296 774.816 423.778 775.171 424.423C775.526 425.068 775.704 425.933 775.704 427.016V436H773.609V434.153H773.502C773.36 434.449 773.123 434.766 772.792 435.103C772.46 435.441 772.02 435.728 771.469 435.964C770.919 436.201 770.247 436.32 769.454 436.32ZM769.773 434.438C770.602 434.438 771.3 434.275 771.869 433.949C772.443 433.624 772.875 433.203 773.165 432.689C773.461 432.174 773.609 431.632 773.609 431.064V429.146C773.52 429.253 773.325 429.35 773.023 429.439C772.727 429.522 772.384 429.596 771.993 429.661C771.608 429.72 771.232 429.774 770.865 429.821C770.504 429.862 770.211 429.898 769.987 429.928C769.442 429.999 768.933 430.114 768.46 430.274C767.992 430.428 767.613 430.661 767.323 430.975C767.039 431.283 766.897 431.703 766.897 432.236C766.897 432.964 767.166 433.514 767.705 433.887C768.249 434.254 768.939 434.438 769.773 434.438ZM781.623 417.818V436H779.528V417.818H781.623ZM787.556 417.818V436H785.461V417.818H787.556ZM801.052 425.418L799.17 425.95C799.052 425.637 798.877 425.332 798.646 425.036C798.421 424.734 798.114 424.485 797.723 424.29C797.332 424.095 796.832 423.997 796.223 423.997C795.388 423.997 794.693 424.19 794.136 424.574C793.586 424.953 793.311 425.435 793.311 426.021C793.311 426.542 793.5 426.953 793.879 427.255C794.258 427.557 794.85 427.809 795.655 428.01L797.679 428.507C798.898 428.803 799.806 429.256 800.404 429.865C801.002 430.469 801.301 431.247 801.301 432.2C801.301 432.982 801.076 433.68 800.626 434.295C800.182 434.911 799.561 435.396 798.762 435.751C797.963 436.107 797.034 436.284 795.974 436.284C794.583 436.284 793.432 435.982 792.521 435.379C791.609 434.775 791.032 433.893 790.79 432.733L792.778 432.236C792.968 432.97 793.326 433.52 793.852 433.887C794.385 434.254 795.08 434.438 795.939 434.438C796.915 434.438 797.691 434.23 798.265 433.816C798.845 433.396 799.135 432.893 799.135 432.307C799.135 431.833 798.969 431.437 798.638 431.117C798.306 430.792 797.797 430.549 797.111 430.389L794.838 429.857C793.589 429.561 792.672 429.102 792.086 428.48C791.506 427.853 791.216 427.069 791.216 426.128C791.216 425.358 791.432 424.678 791.864 424.086C792.302 423.494 792.897 423.029 793.648 422.692C794.406 422.355 795.264 422.186 796.223 422.186C797.572 422.186 798.632 422.482 799.401 423.074C800.176 423.666 800.727 424.447 801.052 425.418Z" fill="black"/>
<path d="M686.202 341V322.818H692.558C693.825 322.818 694.869 323.037 695.692 323.475C696.515 323.907 697.127 324.49 697.53 325.224C697.932 325.952 698.134 326.76 698.134 327.648C698.134 328.429 697.994 329.074 697.716 329.583C697.444 330.092 697.083 330.495 696.633 330.79C696.189 331.086 695.707 331.305 695.186 331.447V331.625C695.742 331.661 696.302 331.856 696.864 332.211C697.426 332.566 697.897 333.075 698.276 333.738C698.654 334.401 698.844 335.212 698.844 336.17C698.844 337.082 698.637 337.902 698.222 338.63C697.808 339.358 697.154 339.935 696.26 340.361C695.367 340.787 694.204 341 692.771 341H686.202ZM688.403 339.047H692.771C694.21 339.047 695.23 338.769 695.834 338.212C696.444 337.65 696.749 336.969 696.749 336.17C696.749 335.555 696.592 334.987 696.278 334.466C695.964 333.939 695.518 333.519 694.938 333.205C694.357 332.886 693.671 332.726 692.878 332.726H688.403V339.047ZM688.403 330.808H692.487C693.15 330.808 693.748 330.678 694.281 330.418C694.819 330.157 695.245 329.79 695.559 329.317C695.879 328.843 696.038 328.287 696.038 327.648C696.038 326.849 695.76 326.171 695.204 325.615C694.647 325.052 693.766 324.771 692.558 324.771H688.403V330.808ZM702.177 341V327.364H704.202V329.423H704.344C704.592 328.749 705.042 328.201 705.693 327.781C706.344 327.361 707.078 327.151 707.895 327.151C708.049 327.151 708.241 327.154 708.472 327.159C708.703 327.165 708.877 327.174 708.996 327.186V329.317C708.925 329.299 708.762 329.272 708.507 329.237C708.259 329.195 707.995 329.175 707.717 329.175C707.054 329.175 706.462 329.314 705.942 329.592C705.427 329.864 705.018 330.243 704.716 330.728C704.421 331.208 704.273 331.755 704.273 332.371V341H702.177ZM716.604 341.284C715.373 341.284 714.293 340.991 713.363 340.405C712.44 339.819 711.718 339 711.197 337.946C710.682 336.893 710.425 335.661 710.425 334.253C710.425 332.832 710.682 331.592 711.197 330.533C711.718 329.474 712.44 328.651 713.363 328.065C714.293 327.479 715.373 327.186 716.604 327.186C717.835 327.186 718.912 327.479 719.835 328.065C720.765 328.651 721.487 329.474 722.002 330.533C722.522 331.592 722.783 332.832 722.783 334.253C722.783 335.661 722.522 336.893 722.002 337.946C721.487 339 720.765 339.819 719.835 340.405C718.912 340.991 717.835 341.284 716.604 341.284ZM716.604 339.402C717.539 339.402 718.308 339.162 718.912 338.683C719.516 338.203 719.963 337.573 720.253 336.792C720.543 336.011 720.688 335.164 720.688 334.253C720.688 333.341 720.543 332.492 720.253 331.705C719.963 330.918 719.516 330.281 718.912 329.796C718.308 329.311 717.539 329.068 716.604 329.068C715.669 329.068 714.899 329.311 714.296 329.796C713.692 330.281 713.245 330.918 712.955 331.705C712.665 332.492 712.52 333.341 712.52 334.253C712.52 335.164 712.665 336.011 712.955 336.792C713.245 337.573 713.692 338.203 714.296 338.683C714.899 339.162 715.669 339.402 716.604 339.402ZM731.521 341.284C730.29 341.284 729.21 340.991 728.28 340.405C727.357 339.819 726.635 339 726.114 337.946C725.599 336.893 725.342 335.661 725.342 334.253C725.342 332.832 725.599 331.592 726.114 330.533C726.635 329.474 727.357 328.651 728.28 328.065C729.21 327.479 730.29 327.186 731.521 327.186C732.752 327.186 733.829 327.479 734.752 328.065C735.682 328.651 736.404 329.474 736.919 330.533C737.439 331.592 737.7 332.832 737.7 334.253C737.7 335.661 737.439 336.893 736.919 337.946C736.404 339 735.682 339.819 734.752 340.405C733.829 340.991 732.752 341.284 731.521 341.284ZM731.521 339.402C732.456 339.402 733.225 339.162 733.829 338.683C734.433 338.203 734.88 337.573 735.17 336.792C735.46 336.011 735.605 335.164 735.605 334.253C735.605 333.341 735.46 332.492 735.17 331.705C734.88 330.918 734.433 330.281 733.829 329.796C733.225 329.311 732.456 329.068 731.521 329.068C730.586 329.068 729.816 329.311 729.213 329.796C728.609 330.281 728.162 330.918 727.872 331.705C727.582 332.492 727.437 333.341 727.437 334.253C727.437 335.164 727.582 336.011 727.872 336.792C728.162 337.573 728.609 338.203 729.213 338.683C729.816 339.162 730.586 339.402 731.521 339.402ZM742.851 336.028L742.816 333.436H743.242L749.208 327.364H751.8L745.444 333.791H745.266L742.851 336.028ZM740.898 341V322.818H742.993V341H740.898ZM749.563 341L744.236 334.253L745.728 332.797L752.226 341H749.563ZM754.497 341V327.364H756.592V341H754.497ZM755.562 325.091C755.154 325.091 754.802 324.952 754.506 324.674C754.216 324.395 754.071 324.061 754.071 323.67C754.071 323.28 754.216 322.945 754.506 322.667C754.802 322.389 755.154 322.25 755.562 322.25C755.97 322.25 756.32 322.389 756.61 322.667C756.906 322.945 757.054 323.28 757.054 323.67C757.054 324.061 756.906 324.395 756.61 324.674C756.32 324.952 755.97 325.091 755.562 325.091ZM762.525 332.797V341H760.429V327.364H762.453V329.494H762.631C762.951 328.802 763.436 328.246 764.087 327.825C764.738 327.399 765.578 327.186 766.608 327.186C767.532 327.186 768.339 327.375 769.032 327.754C769.724 328.127 770.263 328.695 770.648 329.459C771.032 330.216 771.225 331.175 771.225 332.335V341H769.13V332.477C769.13 331.406 768.851 330.571 768.295 329.974C767.739 329.37 766.975 329.068 766.005 329.068C765.336 329.068 764.738 329.213 764.211 329.503C763.69 329.793 763.279 330.216 762.977 330.773C762.675 331.329 762.525 332.004 762.525 332.797ZM780.558 346.398C779.546 346.398 778.676 346.268 777.948 346.007C777.22 345.753 776.613 345.415 776.128 344.995C775.648 344.581 775.266 344.137 774.982 343.663L776.651 342.491C776.841 342.74 777.08 343.024 777.37 343.344C777.66 343.669 778.057 343.95 778.56 344.187C779.069 344.43 779.735 344.551 780.558 344.551C781.658 344.551 782.567 344.285 783.283 343.752C783.999 343.219 784.357 342.385 784.357 341.249V338.479H784.18C784.026 338.727 783.807 339.035 783.523 339.402C783.245 339.763 782.842 340.086 782.315 340.37C781.795 340.648 781.09 340.787 780.203 340.787C779.102 340.787 778.113 340.527 777.237 340.006C776.367 339.485 775.678 338.727 775.169 337.733C774.666 336.739 774.414 335.531 774.414 334.111C774.414 332.714 774.66 331.498 775.151 330.462C775.642 329.42 776.326 328.615 777.202 328.047C778.078 327.473 779.09 327.186 780.238 327.186C781.126 327.186 781.83 327.334 782.351 327.63C782.878 327.92 783.28 328.251 783.558 328.624C783.842 328.991 784.061 329.293 784.215 329.53H784.428V327.364H786.453V341.391C786.453 342.562 786.186 343.515 785.653 344.249C785.127 344.989 784.417 345.531 783.523 345.874C782.635 346.223 781.647 346.398 780.558 346.398ZM780.487 338.905C781.327 338.905 782.037 338.712 782.617 338.328C783.197 337.943 783.638 337.39 783.94 336.668C784.242 335.946 784.393 335.081 784.393 334.075C784.393 333.093 784.245 332.226 783.949 331.474C783.653 330.722 783.215 330.134 782.635 329.707C782.055 329.281 781.339 329.068 780.487 329.068C779.599 329.068 778.859 329.293 778.267 329.743C777.681 330.193 777.24 330.796 776.944 331.554C776.654 332.312 776.509 333.152 776.509 334.075C776.509 335.022 776.657 335.86 776.953 336.588C777.255 337.31 777.699 337.878 778.285 338.292C778.877 338.701 779.611 338.905 780.487 338.905ZM799.947 330.418L798.065 330.95C797.946 330.637 797.772 330.332 797.541 330.036C797.316 329.734 797.008 329.485 796.618 329.29C796.227 329.095 795.727 328.997 795.117 328.997C794.283 328.997 793.587 329.19 793.031 329.574C792.481 329.953 792.205 330.435 792.205 331.021C792.205 331.542 792.395 331.953 792.774 332.255C793.152 332.557 793.744 332.809 794.549 333.01L796.573 333.507C797.792 333.803 798.701 334.256 799.299 334.865C799.897 335.469 800.195 336.247 800.195 337.2C800.195 337.982 799.97 338.68 799.521 339.295C799.077 339.911 798.455 340.396 797.656 340.751C796.857 341.107 795.928 341.284 794.869 341.284C793.478 341.284 792.327 340.982 791.415 340.379C790.504 339.775 789.927 338.893 789.684 337.733L791.673 337.236C791.862 337.97 792.22 338.52 792.747 338.887C793.28 339.254 793.975 339.438 794.833 339.438C795.81 339.438 796.585 339.23 797.159 338.816C797.739 338.396 798.029 337.893 798.029 337.307C798.029 336.833 797.863 336.437 797.532 336.117C797.201 335.792 796.692 335.549 796.005 335.389L793.732 334.857C792.484 334.561 791.566 334.102 790.98 333.48C790.4 332.853 790.11 332.069 790.11 331.128C790.11 330.358 790.326 329.678 790.758 329.086C791.196 328.494 791.791 328.029 792.543 327.692C793.3 327.355 794.158 327.186 795.117 327.186C796.467 327.186 797.526 327.482 798.296 328.074C799.071 328.666 799.621 329.447 799.947 330.418Z" fill="black"/>
<path d="M673.504 263L668.533 244.818H670.77L674.57 259.626H674.747L678.618 244.818H681.104L684.974 259.626H685.152L688.952 244.818H691.189L686.217 263H683.945L679.932 248.511H679.79L675.777 263H673.504ZM696.391 263.32C695.527 263.32 694.743 263.157 694.039 262.831C693.334 262.5 692.775 262.023 692.361 261.402C691.946 260.775 691.739 260.017 691.739 259.129C691.739 258.348 691.893 257.715 692.201 257.229C692.509 256.738 692.92 256.353 693.435 256.075C693.95 255.797 694.518 255.59 695.14 255.454C695.767 255.312 696.397 255.199 697.031 255.116C697.859 255.01 698.531 254.93 699.046 254.877C699.567 254.818 699.945 254.72 700.182 254.584C700.425 254.448 700.546 254.211 700.546 253.874V253.803C700.546 252.927 700.306 252.246 699.827 251.761C699.354 251.275 698.634 251.033 697.67 251.033C696.67 251.033 695.885 251.252 695.317 251.69C694.749 252.128 694.349 252.595 694.119 253.092L692.13 252.382C692.485 251.554 692.959 250.908 693.55 250.447C694.148 249.979 694.799 249.654 695.504 249.47C696.214 249.281 696.912 249.186 697.599 249.186C698.037 249.186 698.54 249.239 699.108 249.346C699.682 249.446 700.235 249.657 700.768 249.976C701.307 250.296 701.754 250.778 702.109 251.423C702.464 252.068 702.641 252.933 702.641 254.016V263H700.546V261.153H700.44C700.298 261.449 700.061 261.766 699.729 262.103C699.398 262.441 698.957 262.728 698.407 262.964C697.856 263.201 697.184 263.32 696.391 263.32ZM696.711 261.438C697.54 261.438 698.238 261.275 698.806 260.949C699.38 260.624 699.812 260.203 700.102 259.689C700.398 259.174 700.546 258.632 700.546 258.064V256.146C700.457 256.253 700.262 256.35 699.96 256.439C699.664 256.522 699.321 256.596 698.93 256.661C698.546 256.72 698.17 256.774 697.803 256.821C697.442 256.862 697.149 256.898 696.924 256.928C696.379 256.999 695.871 257.114 695.397 257.274C694.929 257.428 694.551 257.661 694.261 257.975C693.977 258.283 693.835 258.703 693.835 259.236C693.835 259.964 694.104 260.514 694.642 260.887C695.187 261.254 695.876 261.438 696.711 261.438ZM712.396 249.364V251.139H705.329V249.364H712.396ZM707.389 246.097H709.484V259.094C709.484 259.686 709.57 260.129 709.741 260.425C709.919 260.715 710.144 260.911 710.416 261.011C710.694 261.106 710.987 261.153 711.295 261.153C711.526 261.153 711.715 261.142 711.863 261.118C712.011 261.088 712.13 261.065 712.218 261.047L712.644 262.929C712.502 262.982 712.304 263.036 712.05 263.089C711.795 263.148 711.473 263.178 711.082 263.178C710.49 263.178 709.91 263.05 709.342 262.796C708.78 262.541 708.312 262.154 707.939 261.633C707.572 261.112 707.389 260.455 707.389 259.662V246.097ZM721.118 263.284C719.804 263.284 718.671 262.994 717.718 262.414C716.771 261.828 716.04 261.011 715.525 259.964C715.016 258.91 714.762 257.685 714.762 256.288C714.762 254.892 715.016 253.661 715.525 252.595C716.04 251.524 716.756 250.689 717.674 250.092C718.597 249.488 719.674 249.186 720.905 249.186C721.616 249.186 722.317 249.304 723.009 249.541C723.702 249.778 724.332 250.163 724.9 250.695C725.468 251.222 725.921 251.92 726.259 252.79C726.596 253.661 726.765 254.732 726.765 256.004V256.892H716.253V255.081H724.634C724.634 254.312 724.48 253.625 724.172 253.021C723.87 252.418 723.438 251.941 722.876 251.592C722.32 251.243 721.663 251.068 720.905 251.068C720.071 251.068 719.349 251.275 718.739 251.69C718.135 252.098 717.671 252.631 717.345 253.288C717.02 253.945 716.857 254.649 716.857 255.401V256.608C716.857 257.638 717.035 258.511 717.39 259.227C717.751 259.937 718.251 260.479 718.89 260.852C719.529 261.219 720.272 261.402 721.118 261.402C721.669 261.402 722.166 261.325 722.61 261.171C723.06 261.011 723.447 260.775 723.773 260.461C724.098 260.141 724.35 259.745 724.527 259.271L726.552 259.839C726.339 260.526 725.98 261.13 725.477 261.651C724.974 262.165 724.353 262.568 723.613 262.858C722.873 263.142 722.042 263.284 721.118 263.284ZM729.952 263V249.364H731.976V251.423H732.118C732.367 250.749 732.816 250.201 733.467 249.781C734.118 249.361 734.852 249.151 735.669 249.151C735.823 249.151 736.015 249.154 736.246 249.159C736.477 249.165 736.652 249.174 736.77 249.186V251.317C736.699 251.299 736.536 251.272 736.282 251.237C736.033 251.195 735.77 251.175 735.492 251.175C734.829 251.175 734.237 251.314 733.716 251.592C733.201 251.864 732.793 252.243 732.491 252.728C732.195 253.208 732.047 253.755 732.047 254.371V263H729.952ZM746.038 249.364V251.139H738.972V249.364H746.038ZM741.031 246.097H743.127V259.094C743.127 259.686 743.212 260.129 743.384 260.425C743.562 260.715 743.786 260.911 744.059 261.011C744.337 261.106 744.63 261.153 744.938 261.153C745.168 261.153 745.358 261.142 745.506 261.118C745.654 261.088 745.772 261.065 745.861 261.047L746.287 262.929C746.145 262.982 745.947 263.036 745.692 263.089C745.438 263.148 745.115 263.178 744.725 263.178C744.133 263.178 743.553 263.05 742.984 262.796C742.422 262.541 741.955 262.154 741.582 261.633C741.215 261.112 741.031 260.455 741.031 259.662V246.097ZM754.583 263.284C753.352 263.284 752.272 262.991 751.343 262.405C750.42 261.819 749.698 261 749.177 259.946C748.662 258.893 748.404 257.661 748.404 256.253C748.404 254.832 748.662 253.592 749.177 252.533C749.698 251.474 750.42 250.651 751.343 250.065C752.272 249.479 753.352 249.186 754.583 249.186C755.814 249.186 756.892 249.479 757.815 250.065C758.744 250.651 759.466 251.474 759.981 252.533C760.502 253.592 760.762 254.832 760.762 256.253C760.762 257.661 760.502 258.893 759.981 259.946C759.466 261 758.744 261.819 757.815 262.405C756.892 262.991 755.814 263.284 754.583 263.284ZM754.583 261.402C755.518 261.402 756.288 261.162 756.892 260.683C757.495 260.203 757.942 259.573 758.232 258.792C758.522 258.011 758.667 257.164 758.667 256.253C758.667 255.341 758.522 254.492 758.232 253.705C757.942 252.918 757.495 252.281 756.892 251.796C756.288 251.311 755.518 251.068 754.583 251.068C753.648 251.068 752.879 251.311 752.275 251.796C751.671 252.281 751.225 252.918 750.935 253.705C750.645 254.492 750.5 255.341 750.5 256.253C750.5 257.164 750.645 258.011 750.935 258.792C751.225 259.573 751.671 260.203 752.275 260.683C752.879 261.162 753.648 261.402 754.583 261.402ZM766.586 263L762.431 249.364H764.633L767.581 259.804H767.723L770.634 249.364H772.872L775.748 259.768H775.89L778.838 249.364H781.039L776.884 263H774.825L771.842 252.524H771.629L768.646 263H766.586ZM785.904 254.797V263H783.809V249.364H785.833V251.494H786.011C786.331 250.802 786.816 250.246 787.467 249.825C788.118 249.399 788.958 249.186 789.988 249.186C790.911 249.186 791.719 249.375 792.412 249.754C793.104 250.127 793.643 250.695 794.028 251.459C794.412 252.216 794.605 253.175 794.605 254.335V263H792.509V254.477C792.509 253.406 792.231 252.571 791.675 251.974C791.119 251.37 790.355 251.068 789.384 251.068C788.716 251.068 788.118 251.213 787.591 251.503C787.07 251.793 786.659 252.216 786.357 252.773C786.055 253.329 785.904 254.004 785.904 254.797Z" fill="black"/>
<path d="M565.947 194H563.639L570.315 175.818H572.588L579.264 194H576.956L571.523 178.695H571.381L565.947 194ZM566.8 186.898H576.104V188.851H566.8V186.898ZM582.096 194V175.818H584.191V182.53H584.369C584.523 182.293 584.736 181.991 585.008 181.624C585.286 181.251 585.683 180.92 586.198 180.63C586.719 180.334 587.423 180.186 588.311 180.186C589.459 180.186 590.471 180.473 591.347 181.047C592.223 181.621 592.906 182.435 593.398 183.489C593.889 184.542 594.135 185.785 594.135 187.217C594.135 188.661 593.889 189.913 593.398 190.973C592.906 192.026 592.226 192.843 591.356 193.423C590.486 193.997 589.483 194.284 588.346 194.284C587.47 194.284 586.769 194.139 586.242 193.849C585.715 193.553 585.31 193.219 585.026 192.846C584.742 192.467 584.523 192.153 584.369 191.905H584.12V194H582.096ZM584.156 187.182C584.156 188.212 584.307 189.12 584.609 189.907C584.911 190.689 585.351 191.301 585.931 191.745C586.511 192.183 587.222 192.402 588.062 192.402C588.938 192.402 589.669 192.171 590.255 191.71C590.847 191.242 591.291 190.615 591.587 189.827C591.888 189.034 592.039 188.152 592.039 187.182C592.039 186.223 591.891 185.359 591.596 184.589C591.306 183.814 590.865 183.202 590.273 182.752C589.687 182.296 588.95 182.068 588.062 182.068C587.21 182.068 586.494 182.284 585.914 182.716C585.334 183.142 584.896 183.74 584.6 184.51C584.304 185.273 584.156 186.164 584.156 187.182ZM603.057 194.284C601.743 194.284 600.609 193.994 599.657 193.414C598.71 192.828 597.979 192.011 597.464 190.964C596.955 189.91 596.7 188.685 596.7 187.288C596.7 185.892 596.955 184.661 597.464 183.595C597.979 182.524 598.695 181.689 599.612 181.092C600.536 180.488 601.613 180.186 602.844 180.186C603.554 180.186 604.255 180.304 604.948 180.541C605.64 180.778 606.271 181.163 606.839 181.695C607.407 182.222 607.86 182.92 608.197 183.79C608.534 184.661 608.703 185.732 608.703 187.004V187.892H598.192V186.081H606.572C606.572 185.312 606.419 184.625 606.111 184.021C605.809 183.418 605.377 182.941 604.815 182.592C604.258 182.243 603.601 182.068 602.844 182.068C602.009 182.068 601.287 182.275 600.678 182.69C600.074 183.098 599.609 183.631 599.284 184.288C598.958 184.945 598.795 185.649 598.795 186.401V187.608C598.795 188.638 598.973 189.511 599.328 190.227C599.689 190.937 600.189 191.479 600.828 191.852C601.468 192.219 602.21 192.402 603.057 192.402C603.607 192.402 604.104 192.325 604.548 192.171C604.998 192.011 605.386 191.775 605.711 191.461C606.037 191.141 606.288 190.745 606.466 190.271L608.49 190.839C608.277 191.526 607.919 192.13 607.416 192.651C606.913 193.165 606.291 193.568 605.551 193.858C604.812 194.142 603.98 194.284 603.057 194.284ZM611.89 194V180.364H613.914V182.423H614.056C614.305 181.749 614.755 181.201 615.406 180.781C616.057 180.361 616.791 180.151 617.608 180.151C617.761 180.151 617.954 180.154 618.185 180.159C618.415 180.165 618.59 180.174 618.708 180.186V182.317C618.637 182.299 618.475 182.272 618.22 182.237C617.972 182.195 617.708 182.175 617.43 182.175C616.767 182.175 616.175 182.314 615.654 182.592C615.14 182.864 614.731 183.243 614.429 183.728C614.133 184.208 613.985 184.755 613.985 185.371V194H611.89ZM625.926 194.284C624.79 194.284 623.787 193.997 622.917 193.423C622.047 192.843 621.366 192.026 620.875 190.973C620.383 189.913 620.138 188.661 620.138 187.217C620.138 185.785 620.383 184.542 620.875 183.489C621.366 182.435 622.049 181.621 622.925 181.047C623.801 180.473 624.813 180.186 625.962 180.186C626.849 180.186 627.551 180.334 628.066 180.63C628.587 180.92 628.983 181.251 629.255 181.624C629.533 181.991 629.75 182.293 629.903 182.53H630.081V175.818H632.176V194H630.152V191.905H629.903C629.75 192.153 629.531 192.467 629.246 192.846C628.962 193.219 628.557 193.553 628.03 193.849C627.503 194.139 626.802 194.284 625.926 194.284ZM626.21 192.402C627.051 192.402 627.761 192.183 628.341 191.745C628.921 191.301 629.362 190.689 629.664 189.907C629.966 189.12 630.116 188.212 630.116 187.182C630.116 186.164 629.969 185.273 629.673 184.51C629.377 183.74 628.939 183.142 628.359 182.716C627.779 182.284 627.063 182.068 626.21 182.068C625.322 182.068 624.583 182.296 623.991 182.752C623.405 183.202 622.964 183.814 622.668 184.589C622.378 185.359 622.233 186.223 622.233 187.182C622.233 188.152 622.381 189.034 622.677 189.827C622.979 190.615 623.423 191.242 624.009 191.71C624.6 192.171 625.334 192.402 626.21 192.402ZM642.022 194.284C640.708 194.284 639.574 193.994 638.621 193.414C637.674 192.828 636.944 192.011 636.429 190.964C635.92 189.91 635.665 188.685 635.665 187.288C635.665 185.892 635.92 184.661 636.429 183.595C636.944 182.524 637.66 181.689 638.577 181.092C639.5 180.488 640.578 180.186 641.809 180.186C642.519 180.186 643.22 180.304 643.913 180.541C644.605 180.778 645.235 181.163 645.804 181.695C646.372 182.222 646.825 182.92 647.162 183.79C647.499 184.661 647.668 185.732 647.668 187.004V187.892H637.157V186.081H645.537C645.537 185.312 645.383 184.625 645.076 184.021C644.774 183.418 644.342 182.941 643.779 182.592C643.223 182.243 642.566 182.068 641.809 182.068C640.974 182.068 640.252 182.275 639.642 182.69C639.039 183.098 638.574 183.631 638.249 184.288C637.923 184.945 637.76 185.649 637.76 186.401V187.608C637.76 188.638 637.938 189.511 638.293 190.227C638.654 190.937 639.154 191.479 639.793 191.852C640.433 192.219 641.175 192.402 642.022 192.402C642.572 192.402 643.069 192.325 643.513 192.171C643.963 192.011 644.351 191.775 644.676 191.461C645.002 191.141 645.253 190.745 645.431 190.271L647.455 190.839C647.242 191.526 646.884 192.13 646.381 192.651C645.878 193.165 645.256 193.568 644.516 193.858C643.777 194.142 642.945 194.284 642.022 194.284ZM656.572 194.284C655.259 194.284 654.125 193.994 653.172 193.414C652.225 192.828 651.494 192.011 650.979 190.964C650.47 189.91 650.216 188.685 650.216 187.288C650.216 185.892 650.47 184.661 650.979 183.595C651.494 182.524 652.21 181.689 653.128 181.092C654.051 180.488 655.128 180.186 656.359 180.186C657.07 180.186 657.771 180.304 658.463 180.541C659.156 180.778 659.786 181.163 660.354 181.695C660.923 182.222 661.375 182.92 661.713 183.79C662.05 184.661 662.219 185.732 662.219 187.004V187.892H651.707V186.081H660.088C660.088 185.312 659.934 184.625 659.626 184.021C659.325 183.418 658.893 182.941 658.33 182.592C657.774 182.243 657.117 182.068 656.359 182.068C655.525 182.068 654.803 182.275 654.193 182.69C653.589 183.098 653.125 183.631 652.799 184.288C652.474 184.945 652.311 185.649 652.311 186.401V187.608C652.311 188.638 652.489 189.511 652.844 190.227C653.205 190.937 653.705 191.479 654.344 191.852C654.983 192.219 655.726 192.402 656.572 192.402C657.123 192.402 657.62 192.325 658.064 192.171C658.514 192.011 658.901 191.775 659.227 191.461C659.552 191.141 659.804 190.745 659.982 190.271L662.006 190.839C661.793 191.526 661.435 192.13 660.931 192.651C660.428 193.165 659.807 193.568 659.067 193.858C658.327 194.142 657.496 194.284 656.572 194.284ZM667.501 185.797V194H665.406V180.364H667.43V182.494H667.608C667.927 181.802 668.413 181.246 669.064 180.825C669.715 180.399 670.555 180.186 671.585 180.186C672.508 180.186 673.316 180.375 674.009 180.754C674.701 181.127 675.24 181.695 675.624 182.459C676.009 183.216 676.201 184.175 676.201 185.335V194H674.106V185.477C674.106 184.406 673.828 183.571 673.272 182.974C672.715 182.37 671.952 182.068 670.981 182.068C670.312 182.068 669.715 182.213 669.188 182.503C668.667 182.793 668.256 183.216 667.954 183.773C667.652 184.329 667.501 185.004 667.501 185.797Z" fill="black"/>
<circle cx="793.511" cy="405.511" r="9.01136" fill="#FFE587" stroke="black"/>
<circle cx="789.511" cy="307.511" r="9.01136" fill="#FFE587" stroke="black"/>
<circle cx="757.511" cy="229.511" r="9.01136" fill="#FFE587" stroke="black"/>
<circle cx="185.511" cy="336.511" r="9.01136" fill="#FFE587" stroke="black"/>
<circle cx="161.511" cy="420.511" r="9.01136" fill="#FFE587" stroke="black"/>
<circle cx="626.511" cy="156.511" r="9.01136" fill="#FFE587" stroke="black"/>
</svg>
