<svg width="891" height="808" viewBox="0 0 891 808" fill="none" xmlns="http://www.w3.org/2000/svg">
<rect x="0.5" y="0.5" width="890" height="807" rx="19.5" fill="#3B96CE" stroke="black"/>
<g filter="url(#filter0_d_194_80)">
<path d="M793.5 379L781 364.5V256L779.5 253L776.5 254.545L771.5 253L762.937 254.545L755.5 249.5L738.583 242.381L716.934 226.162L710.5 226.5L708 231.5L700.697 232.92L694 231.568L691.226 227.514L680 230L676.343 234.271L670.5 231.5L666 232.92L658.5 234.271L654.5 239H648L644 244.5L640.5 239H635.5L629.5 234.271V231.5L626.5 229.5L622 234L613.5 232.5L611.5 226L607 226.5L606.5 231.5L600.5 234.271L601 242H596.513L594 238L596.513 232.92L594 230L586 233.5L580.5 236L577.5 229.5L571.5 230L571 225.5L567.173 223.459L557.701 231.568L549.5 231.5L549 223.5L541.038 222V212.647L534.273 213.998L526.155 211.295L519.39 218.053L512.624 211.295L501.8 212.647L495.5 212L490.976 207.24L476.092 206.5V200.483L473.386 195.077L466.621 191.022L463 196.428L455 193.5L446.5 196.428L428.736 177.443V41H249.192L247.428 365.372C177.07 364.921 35 364.033 35 364.083V372.129L43.1183 380.239L46 381L53.5 385L62 402.5L75.5 407.5L87.5 422.5L97.5 428.5L100.5 435L110 443L115 447L120 448L137 460.5L143.5 477L150.009 489.714L153 510.5L161.5 526.5L167.5 531.5L176 535.667L181.5 543L188 547.831L205 553L213 560H219L222.5 565L234.692 571.005L244.5 572.159L246 567L252 558L259 554.5L256.899 547.831L260.958 545.128L262.311 535.667L267 528L269.077 520.8L281 517L286.666 519.448L292 510.5L308 517L312 515L315.5 517L319 515L332.5 519.448L334.5 518.097L338 515V519.448L340.5 517L343 519.448H345.5L347.5 525.5L351 526.5V531.5L355 528V535.667L361 538.5L366 540L371 546.5L382.5 553.5V558.643L389 563.5L391 576L396 582L399 590.5L407 605L411 619L415.5 621.5L417.323 624.407L423.5 628L428.5 637L432 638.5V641.5L434.5 643.5L433.5 646L437.5 652L440 653.5L444 659L455.5 664L457.15 684L461.5 688L463 697L461.5 700.5V704H464.5L465.5 708.5L471.5 713.5L476 723L477.5 734L482 738.5L480.5 743L489 744L491 746H494H500L507.5 755L510.5 753.266L518 757L521 756L523 759.5H527L528 763L532 764.5L544 767.5L555.922 765.703L568 769.485L580.5 781L582 779L584.5 781L585.5 774L598 773V769.485L588.395 763L587.042 753.266L582 742L580.5 727.5L576.5 719L574.864 716.5V706L579.5 704L580.5 689H578.5L574.864 690L569.5 688V686L577.57 680.5V686L581.63 684L582.983 681.5L585.689 676.5L587.042 671L589.748 662.712V659L581.63 652L577.57 646H585.689L592 649H598L599.5 644H602L605 635.681V631L594 634L596.513 630L605 624L606 628.5L610 630L612.75 628.5L618.5 623V614L616.5 610.5L624.5 611.5L625.5 614H631.5L640 609.5V611.5L637.5 615.408L631.5 618.5L627.5 622L623 624L618.5 628.5L614.5 631L608.69 635.681L606 642L607.5 644L612.75 639.5L614.5 635.681L620.868 631L625.5 627L630 622L641.163 615.408L643 607.5L636.5 601.5L628.986 596.5L627.5 589.5L631.5 590.5V595.135L641.163 596.5L643 591.5L648 595.135L653 591.5L652 597.838L655 599.189L662 595.135L664.5 597.838H670V591.5L676.5 589.5L683 586.5H689L695.285 583L705 577.5L712.5 571.5L717.5 566.5L716 563.5V560L719.5 557L724.5 554.588L729 550.5L733.17 545L730.5 537.5L724.5 533.5L726.5 532L727.758 525L732 528.5L734.523 527.5L733.17 522.5L739.936 517.5L743.5 521.5L737.23 531L739.936 534.315L743.5 533.5L746.701 533H751L752.5 534.315L755 535.667H758.5L767.5 531L780.5 525L793.5 524L788.5 516L800.5 496.5L802 493V485.5L798.5 478.5L800.5 471.5V465L810 446V442.5L811 438.5L810 434L813 431L810 422.5L804 413V407.5L800.5 399L793.5 391.5L795 384L793.5 379Z" fill="#FFC49D"/>
<path d="M793.5 379L781 364.5V256L779.5 253L776.5 254.545L771.5 253L762.937 254.545L755.5 249.5L738.583 242.381L716.934 226.162L710.5 226.5L708 231.5L700.697 232.92L694 231.568L691.226 227.514L680 230L676.343 234.271L670.5 231.5L666 232.92L658.5 234.271L654.5 239H648L644 244.5L640.5 239H635.5L629.5 234.271V231.5L626.5 229.5L622 234L613.5 232.5L611.5 226L607 226.5L606.5 231.5L600.5 234.271L601 242H596.513L594 238L596.513 232.92L594 230L586 233.5L580.5 236L577.5 229.5L571.5 230L571 225.5L567.173 223.459L557.701 231.568L549.5 231.5L549 223.5L541.038 222V212.647L534.273 213.998L526.155 211.295L519.39 218.053L512.624 211.295L501.8 212.647L495.5 212L490.976 207.24L476.092 206.5V200.483L473.386 195.077L466.621 191.022L463 196.428L455 193.5L446.5 196.428L428.736 177.443V41H249.192L247.428 365.372C177.07 364.921 35 364.033 35 364.083V372.129L43.1183 380.239L46 381L53.5 385L62 402.5L75.5 407.5L87.5 422.5L97.5 428.5L100.5 435L110 443L115 447L120 448L137 460.5L143.5 477L150.009 489.714L153 510.5L161.5 526.5L167.5 531.5L176 535.667L181.5 543L188 547.831L205 553L213 560H219L222.5 565L234.692 571.005L244.5 572.159L246 567L252 558L259 554.5L256.899 547.831L260.958 545.128L262.311 535.667L267 528L269.077 520.8L281 517L286.666 519.448L292 510.5L308 517L312 515L315.5 517L319 515L332.5 519.448L334.5 518.097L338 515V519.448L340.5 517L343 519.448H345.5L347.5 525.5L351 526.5V531.5L355 528V535.667L361 538.5L366 540L371 546.5L382.5 553.5V558.643L389 563.5L391 576L396 582L399 590.5L407 605L411 619L415.5 621.5L417.323 624.407L423.5 628L428.5 637L432 638.5V641.5L434.5 643.5L433.5 646L437.5 652L440 653.5L444 659L455.5 664L457.15 684L461.5 688L463 697L461.5 700.5V704H464.5L465.5 708.5L471.5 713.5L476 723L477.5 734L482 738.5L480.5 743L489 744L491 746H494H500L507.5 755L510.5 753.266L518 757L521 756L523 759.5H527L528 763L532 764.5L544 767.5L555.922 765.703L568 769.485L580.5 781L582 779L584.5 781L585.5 774L598 773V769.485L588.395 763L587.042 753.266L582 742L580.5 727.5L576.5 719L574.864 716.5V706L579.5 704L580.5 689H578.5L574.864 690L569.5 688V686L577.57 680.5V686L581.63 684L582.983 681.5L585.689 676.5L587.042 671L589.748 662.712V659L581.63 652L577.57 646H585.689L592 649H598L599.5 644H602L605 635.681V631L594 634L596.513 630L605 624L606 628.5L610 630L612.75 628.5L618.5 623V614L616.5 610.5L624.5 611.5L625.5 614H631.5L640 609.5V611.5L637.5 615.408L631.5 618.5L627.5 622L623 624L618.5 628.5L614.5 631L608.69 635.681L606 642L607.5 644L612.75 639.5L614.5 635.681L620.868 631L625.5 627L630 622L641.163 615.408L643 607.5L636.5 601.5L628.986 596.5L627.5 589.5L631.5 590.5V595.135L641.163 596.5L643 591.5L648 595.135L653 591.5L652 597.838L655 599.189L662 595.135L664.5 597.838H670V591.5L676.5 589.5L683 586.5H689L695.285 583L705 577.5L712.5 571.5L717.5 566.5L716 563.5V560L719.5 557L724.5 554.588L729 550.5L733.17 545L730.5 537.5L724.5 533.5L726.5 532L727.758 525L732 528.5L734.523 527.5L733.17 522.5L739.936 517.5L743.5 521.5L737.23 531L739.936 534.315L743.5 533.5L746.701 533H751L752.5 534.315L755 535.667H758.5L767.5 531L780.5 525L793.5 524L788.5 516L800.5 496.5L802 493V485.5L798.5 478.5L800.5 471.5V465L810 446V442.5L811 438.5L810 434L813 431L810 422.5L804 413V407.5L800.5 399L793.5 391.5L795 384L793.5 379Z" stroke="black"/>
</g>
<path d="M163.88 630.818H167.209L170.671 644.952H170.884L178.999 630.818H182.328L179.309 649H176.699L178.892 635.843H178.723L171.177 648.973H169.002L165.842 635.834H165.673L163.471 649H160.861L163.88 630.818ZM188.926 649.275C187.589 649.275 186.482 648.988 185.606 648.414C184.736 647.834 184.126 647.02 183.777 645.973C183.428 644.919 183.372 643.685 183.608 642.271C183.839 640.874 184.304 639.643 185.002 638.577C185.701 637.512 186.571 636.681 187.612 636.083C188.66 635.485 189.817 635.186 191.084 635.186C191.853 635.186 192.578 635.313 193.259 635.568C193.945 635.822 194.528 636.222 195.008 636.766C195.487 637.311 195.818 638.018 196.002 638.888C196.191 639.752 196.185 640.803 195.984 642.04L195.833 642.981H184.984L185.295 640.992H193.534C193.658 640.294 193.626 639.675 193.436 639.137C193.247 638.592 192.921 638.163 192.46 637.849C192.004 637.536 191.43 637.379 190.737 637.379C190.027 637.379 189.364 637.565 188.749 637.938C188.133 638.311 187.618 638.788 187.204 639.368C186.796 639.942 186.538 640.533 186.432 641.143L186.121 642.963C185.967 643.957 185.994 644.756 186.201 645.36C186.414 645.964 186.787 646.402 187.319 646.674C187.852 646.946 188.518 647.082 189.317 647.082C189.832 647.082 190.308 647.011 190.746 646.869C191.19 646.721 191.584 646.505 191.927 646.221C192.27 645.931 192.557 645.57 192.788 645.138L195.221 645.591C194.895 646.331 194.428 646.979 193.818 647.535C193.208 648.086 192.489 648.515 191.661 648.822C190.838 649.124 189.926 649.275 188.926 649.275ZM201.857 635.364L203.987 640.673L207.903 635.364H210.806L205.417 642.182L208.568 649H205.665L203.446 643.904L199.531 649H196.619L201.999 642.182L198.945 635.364H201.857ZM211.258 649L213.531 635.364H216.186L213.913 649H211.258ZM215.413 633.233C214.952 633.233 214.561 633.079 214.241 632.771C213.928 632.458 213.783 632.085 213.806 631.653C213.83 631.215 214.014 630.842 214.357 630.534C214.7 630.22 215.1 630.064 215.555 630.064C216.017 630.064 216.405 630.22 216.718 630.534C217.032 630.842 217.18 631.215 217.162 631.653C217.139 632.085 216.955 632.458 216.612 632.771C216.274 633.079 215.875 633.233 215.413 633.233ZM223.192 649.275C221.867 649.275 220.781 648.976 219.934 648.379C219.088 647.775 218.499 646.943 218.168 645.884C217.836 644.824 217.783 643.611 218.008 642.244C218.233 640.859 218.691 639.637 219.384 638.577C220.082 637.512 220.955 636.681 222.003 636.083C223.056 635.485 224.225 635.186 225.51 635.186C226.545 635.186 227.436 635.378 228.182 635.763C228.928 636.142 229.493 636.675 229.877 637.361C230.262 638.048 230.428 638.85 230.375 639.767H227.791C227.75 639.128 227.513 638.577 227.081 638.116C226.649 637.654 226.013 637.423 225.172 637.423C224.432 637.423 223.752 637.619 223.13 638.009C222.509 638.394 221.985 638.944 221.559 639.661C221.133 640.371 220.843 641.211 220.689 642.182C220.523 643.176 220.532 644.034 220.716 644.756C220.899 645.478 221.236 646.038 221.728 646.434C222.219 646.831 222.837 647.029 223.583 647.029C224.092 647.029 224.566 646.937 225.004 646.754C225.447 646.565 225.838 646.295 226.175 645.946C226.519 645.597 226.785 645.177 226.974 644.685H229.567C229.312 645.567 228.886 646.354 228.288 647.047C227.696 647.739 226.969 648.284 226.104 648.68C225.24 649.077 224.27 649.275 223.192 649.275ZM237.475 649.275C236.179 649.275 235.095 648.979 234.225 648.387C233.355 647.79 232.743 646.955 232.388 645.884C232.039 644.807 231.979 643.555 232.21 642.129C232.435 640.732 232.888 639.513 233.568 638.471C234.255 637.429 235.113 636.621 236.143 636.047C237.179 635.473 238.33 635.186 239.597 635.186C240.893 635.186 241.973 635.485 242.837 636.083C243.707 636.681 244.32 637.518 244.675 638.595C245.03 639.672 245.092 640.927 244.861 642.359C244.636 643.744 244.177 644.958 243.485 645.999C242.798 647.035 241.94 647.84 240.91 648.414C239.881 648.988 238.735 649.275 237.475 649.275ZM237.626 647.047C238.478 647.047 239.221 646.822 239.854 646.372C240.493 645.922 241.014 645.325 241.416 644.579C241.819 643.833 242.094 643.016 242.242 642.129C242.378 641.27 242.375 640.486 242.233 639.776C242.097 639.06 241.801 638.486 241.345 638.054C240.89 637.622 240.256 637.406 239.446 637.406C238.593 637.406 237.845 637.633 237.199 638.089C236.56 638.539 236.039 639.14 235.637 639.891C235.24 640.643 234.971 641.463 234.829 642.35C234.693 643.203 234.693 643.987 234.829 644.703C234.965 645.413 235.261 645.982 235.717 646.408C236.173 646.834 236.809 647.047 237.626 647.047Z" fill="white"/>
<path d="M724.029 639C723.958 638.522 723.835 638.093 723.66 637.714C723.489 637.331 723.262 637.007 722.978 636.741C722.694 636.472 722.351 636.266 721.948 636.124C721.55 635.977 721.089 635.903 720.563 635.903C719.701 635.903 718.868 636.126 718.063 636.571C717.263 637.016 716.569 637.672 715.982 638.538C715.4 639.405 715.004 640.468 714.796 641.727C714.588 642.987 714.609 644.05 714.86 644.916C715.116 645.783 715.554 646.438 716.174 646.884C716.799 647.329 717.561 647.551 718.461 647.551C719.294 647.551 720.071 647.374 720.79 647.018C721.51 646.659 722.114 646.152 722.602 645.499C723.089 644.84 723.404 644.066 723.546 643.176L724.058 643.29H719.683L719.967 641.727H725.506L725.222 643.29C725.033 644.492 724.612 645.536 723.958 646.422C723.305 647.307 722.49 647.991 721.515 648.474C720.54 648.957 719.474 649.199 718.319 649.199C717.031 649.199 715.951 648.896 715.08 648.29C714.209 647.684 713.596 646.822 713.241 645.705C712.886 644.587 712.836 643.261 713.092 641.727C713.276 640.577 713.598 639.542 714.058 638.624C714.522 637.7 715.09 636.914 715.762 636.266C716.439 635.617 717.194 635.12 718.028 634.774C718.866 634.429 719.749 634.256 720.677 634.256C721.444 634.256 722.14 634.372 722.765 634.604C723.395 634.831 723.937 635.155 724.391 635.577C724.846 635.993 725.199 636.493 725.45 637.075C725.701 637.653 725.833 638.295 725.847 639H724.029ZM734.688 644.54L735.767 638.091H737.444L735.625 649H733.949L734.262 647.153H734.148C733.807 647.707 733.331 648.179 732.721 648.567C732.11 648.95 731.392 649.142 730.569 649.142C729.887 649.142 729.304 648.993 728.821 648.695C728.343 648.392 728.002 647.937 727.799 647.331C727.6 646.72 727.576 645.951 727.728 645.023L728.892 638.091H730.569L729.432 644.909C729.304 645.705 729.425 646.339 729.794 646.812C730.164 647.286 730.696 647.523 731.392 647.523C731.809 647.523 732.249 647.416 732.713 647.203C733.182 646.99 733.599 646.663 733.963 646.223C734.333 645.783 734.574 645.222 734.688 644.54ZM742.786 634.455L740.371 649H738.695L741.11 634.455H742.786ZM750.118 638.091L749.89 639.511H744.01L744.237 638.091H750.118ZM744.18 649L746.254 636.585C746.349 635.96 746.576 635.439 746.936 635.023C747.3 634.606 747.734 634.294 748.235 634.085C748.742 633.877 749.256 633.773 749.777 633.773C750.189 633.773 750.518 633.806 750.764 633.872C751.015 633.938 751.197 634 751.311 634.057L750.6 635.506C750.515 635.477 750.402 635.442 750.26 635.399C750.122 635.357 749.933 635.335 749.691 635.335C749.137 635.335 748.716 635.475 748.427 635.754C748.138 636.034 747.944 636.443 747.845 636.983L745.856 649H744.18ZM760.776 649.227C759.772 649.227 758.932 648.988 758.255 648.51C757.578 648.032 757.1 647.362 756.82 646.5C756.546 645.638 756.501 644.634 756.685 643.489C756.865 642.371 757.223 641.398 757.758 640.57C758.298 639.736 758.968 639.092 759.768 638.638C760.573 638.179 761.458 637.949 762.424 637.949C763.428 637.949 764.266 638.19 764.938 638.673C765.615 639.152 766.094 639.824 766.373 640.69C766.652 641.552 766.7 642.561 766.515 643.716C766.335 644.824 765.973 645.792 765.428 646.621C764.888 647.445 764.219 648.086 763.418 648.545C762.623 649 761.742 649.227 760.776 649.227ZM760.805 647.722C761.572 647.722 762.237 647.525 762.8 647.132C763.369 646.739 763.828 646.221 764.178 645.577C764.533 644.933 764.772 644.237 764.896 643.489C765.009 642.778 765.004 642.118 764.881 641.507C764.758 640.892 764.496 640.397 764.093 640.023C763.691 639.644 763.125 639.455 762.396 639.455C761.629 639.455 760.959 639.653 760.386 640.051C759.817 640.449 759.358 640.972 759.008 641.621C758.657 642.269 758.423 642.968 758.305 643.716C758.191 644.426 758.193 645.087 758.312 645.697C758.435 646.304 758.698 646.794 759.1 647.168C759.507 647.537 760.076 647.722 760.805 647.722ZM774.883 638.091L774.656 639.511H768.775L769.002 638.091H774.883ZM768.946 649L771.02 636.585C771.114 635.96 771.342 635.439 771.701 635.023C772.066 634.606 772.499 634.294 773.001 634.085C773.508 633.877 774.021 633.773 774.542 633.773C774.954 633.773 775.283 633.806 775.529 633.872C775.78 633.938 775.963 634 776.076 634.057L775.366 635.506C775.281 635.477 775.167 635.442 775.025 635.399C774.888 635.357 774.699 635.335 774.457 635.335C773.903 635.335 773.482 635.475 773.193 635.754C772.904 636.034 772.71 636.443 772.61 636.983L770.622 649H768.946ZM667.539 658.455H669.641L672.595 670.528H672.766L679.698 658.455H681.8L679.385 673H677.737L679.584 661.949H679.442L673.05 673H671.459L668.76 661.949H668.618L666.771 673H665.124L667.539 658.455ZM687.235 673.227C686.189 673.227 685.324 672.995 684.643 672.531C683.961 672.062 683.485 671.409 683.215 670.571C682.945 669.728 682.903 668.748 683.087 667.631C683.272 666.513 683.639 665.528 684.188 664.676C684.737 663.819 685.421 663.152 686.241 662.673C687.06 662.19 687.959 661.949 688.939 661.949C689.508 661.949 690.055 662.044 690.58 662.233C691.106 662.422 691.56 662.73 691.944 663.156C692.327 663.578 692.595 664.136 692.746 664.832C692.898 665.528 692.888 666.385 692.718 667.403L692.604 668.114H684.195L684.422 666.665H691.127C691.236 666.049 691.207 665.5 691.042 665.017C690.881 664.534 690.599 664.153 690.197 663.874C689.799 663.594 689.295 663.455 688.684 663.455C688.054 663.455 687.467 663.625 686.922 663.966C686.378 664.302 685.923 664.728 685.559 665.244C685.194 665.756 684.967 666.277 684.877 666.807L684.678 668.057C684.536 668.961 684.557 669.681 684.742 670.216C684.931 670.751 685.26 671.137 685.729 671.374C686.198 671.606 686.785 671.722 687.491 671.722C687.94 671.722 688.355 671.66 688.733 671.537C689.112 671.409 689.451 671.22 689.749 670.969C690.047 670.713 690.298 670.396 690.502 670.017L692.036 670.472C691.776 671.021 691.409 671.504 690.935 671.92C690.466 672.332 689.917 672.654 689.287 672.886C688.662 673.114 687.978 673.227 687.235 673.227ZM697.144 662.091L699.019 666.551L702.372 662.091H704.303L699.872 667.545L702.485 673H700.553L698.65 668.767L695.326 673H693.394L697.769 667.545L695.213 662.091H697.144ZM704.877 673L706.695 662.091H708.371L706.553 673H704.877ZM708.045 660.244C707.718 660.244 707.436 660.133 707.199 659.911C706.967 659.688 706.851 659.42 706.851 659.108C706.851 658.795 706.967 658.528 707.199 658.305C707.436 658.083 707.718 657.972 708.045 657.972C708.371 657.972 708.651 658.083 708.883 658.305C709.119 658.528 709.238 658.795 709.238 659.108C709.238 659.42 709.119 659.688 708.883 659.911C708.651 660.133 708.371 660.244 708.045 660.244ZM714.026 673.227C712.999 673.227 712.156 672.986 711.498 672.503C710.845 672.02 710.39 671.355 710.134 670.507C709.879 669.66 709.841 668.691 710.021 667.602C710.201 666.494 710.565 665.517 711.115 664.669C711.664 663.817 712.348 663.152 713.167 662.673C713.986 662.19 714.888 661.949 715.873 661.949C716.64 661.949 717.308 662.091 717.876 662.375C718.444 662.659 718.882 663.057 719.19 663.568C719.498 664.08 719.642 664.676 719.623 665.358H717.947C717.9 664.861 717.686 664.42 717.308 664.037C716.934 663.649 716.38 663.455 715.646 663.455C714.992 663.455 714.391 663.625 713.842 663.966C713.293 664.302 712.831 664.778 712.457 665.393C712.083 666.004 711.829 666.722 711.697 667.545C711.555 668.388 711.567 669.122 711.732 669.747C711.898 670.372 712.199 670.857 712.634 671.203C713.07 671.549 713.619 671.722 714.282 671.722C714.718 671.722 715.125 671.646 715.504 671.494C715.883 671.343 716.219 671.125 716.512 670.841C716.806 670.557 717.038 670.216 717.208 669.818H718.884C718.676 670.462 718.342 671.042 717.883 671.558C717.424 672.07 716.867 672.477 716.214 672.78C715.561 673.078 714.831 673.227 714.026 673.227ZM725.298 673.227C724.294 673.227 723.454 672.988 722.776 672.51C722.099 672.032 721.621 671.362 721.342 670.5C721.067 669.638 721.022 668.634 721.207 667.489C721.387 666.371 721.744 665.398 722.279 664.57C722.819 663.736 723.489 663.092 724.289 662.638C725.094 662.179 725.98 661.949 726.945 661.949C727.949 661.949 728.787 662.19 729.46 662.673C730.137 663.152 730.615 663.824 730.894 664.69C731.174 665.552 731.221 666.561 731.036 667.716C730.856 668.824 730.494 669.792 729.95 670.621C729.41 671.445 728.74 672.086 727.94 672.545C727.144 673 726.264 673.227 725.298 673.227ZM725.326 671.722C726.093 671.722 726.758 671.525 727.322 671.132C727.89 670.739 728.349 670.221 728.7 669.577C729.055 668.933 729.294 668.237 729.417 667.489C729.531 666.778 729.526 666.118 729.403 665.507C729.28 664.892 729.017 664.397 728.615 664.023C728.212 663.644 727.646 663.455 726.917 663.455C726.15 663.455 725.48 663.653 724.907 664.051C724.339 664.449 723.88 664.972 723.529 665.621C723.179 666.269 722.945 666.968 722.826 667.716C722.713 668.426 722.715 669.087 722.833 669.697C722.956 670.304 723.219 670.794 723.622 671.168C724.029 671.537 724.597 671.722 725.326 671.722ZM746.024 657.773L738.467 675.188H736.933L744.49 657.773H746.024ZM751.931 673H750.085L757.84 658.455H759.659L762.585 673H760.738L758.437 660.756H758.323L751.931 673ZM753.551 667.318H760.994L760.738 668.881H753.295L753.551 667.318ZM764.623 673L766.441 662.091H768.061L767.776 663.795H767.919C768.245 663.213 768.688 662.761 769.247 662.439C769.81 662.112 770.447 661.949 771.157 661.949C771.867 661.949 772.438 662.112 772.869 662.439C773.3 662.761 773.6 663.213 773.771 663.795H773.884C774.254 663.227 774.746 662.777 775.362 662.446C775.982 662.115 776.683 661.949 777.464 661.949C778.43 661.949 779.173 662.254 779.694 662.865C780.22 663.476 780.376 664.42 780.163 665.699L778.941 673H777.265L778.487 665.699C778.615 664.889 778.487 664.314 778.103 663.973C777.724 663.627 777.237 663.455 776.64 663.455C775.873 663.455 775.241 663.684 774.744 664.143C774.247 664.603 773.941 665.187 773.828 665.898L772.634 673H770.93L772.18 665.528C772.279 664.903 772.161 664.402 771.825 664.023C771.489 663.644 771.001 663.455 770.362 663.455C769.926 663.455 769.5 663.573 769.083 663.81C768.667 664.042 768.309 664.364 768.011 664.776C767.713 665.183 767.521 665.652 767.436 666.182L766.299 673H764.623ZM786.551 673.227C785.505 673.227 784.641 672.995 783.959 672.531C783.277 672.062 782.801 671.409 782.531 670.571C782.262 669.728 782.219 668.748 782.404 667.631C782.588 666.513 782.955 665.528 783.504 664.676C784.054 663.819 784.738 663.152 785.557 662.673C786.376 662.19 787.276 661.949 788.256 661.949C788.824 661.949 789.371 662.044 789.896 662.233C790.422 662.422 790.877 662.73 791.26 663.156C791.644 663.578 791.911 664.136 792.063 664.832C792.214 665.528 792.205 666.385 792.034 667.403L791.921 668.114H783.512L783.739 666.665H790.443C790.552 666.049 790.524 665.5 790.358 665.017C790.197 664.534 789.915 664.153 789.513 663.874C789.115 663.594 788.611 663.455 788 663.455C787.37 663.455 786.783 663.625 786.239 663.966C785.694 664.302 785.24 664.728 784.875 665.244C784.511 665.756 784.283 666.277 784.193 666.807L783.994 668.057C783.852 668.961 783.874 669.681 784.058 670.216C784.248 670.751 784.577 671.137 785.046 671.374C785.514 671.606 786.102 671.722 786.807 671.722C787.257 671.722 787.671 671.66 788.05 671.537C788.429 671.409 788.767 671.22 789.066 670.969C789.364 670.713 789.615 670.396 789.818 670.017L791.352 670.472C791.092 671.021 790.725 671.504 790.252 671.92C789.783 672.332 789.234 672.654 788.604 672.886C787.979 673.114 787.295 673.227 786.551 673.227ZM793.686 673L795.504 662.091H797.123L796.839 663.739H796.953C797.237 663.199 797.67 662.761 798.252 662.425C798.835 662.089 799.453 661.92 800.106 661.92C800.234 661.92 800.388 661.923 800.568 661.928C800.748 661.928 800.887 661.935 800.987 661.949L800.703 663.653C800.646 663.639 800.518 663.618 800.319 663.589C800.12 663.556 799.907 663.54 799.68 663.54C799.15 663.54 798.66 663.651 798.21 663.874C797.76 664.091 797.383 664.394 797.08 664.783C796.777 665.166 796.583 665.604 796.498 666.097L795.362 673H793.686ZM801.166 673L802.984 662.091H804.66L802.842 673H801.166ZM804.334 660.244C804.007 660.244 803.725 660.133 803.488 659.911C803.256 659.688 803.14 659.42 803.14 659.108C803.14 658.795 803.256 658.528 803.488 658.305C803.725 658.083 804.007 657.972 804.334 657.972C804.66 657.972 804.94 658.083 805.172 658.305C805.408 658.528 805.527 658.795 805.527 659.108C805.527 659.42 805.408 659.688 805.172 659.911C804.94 660.133 804.66 660.244 804.334 660.244ZM810.316 673.227C809.288 673.227 808.445 672.986 807.787 672.503C807.134 672.02 806.679 671.355 806.423 670.507C806.168 669.66 806.13 668.691 806.31 667.602C806.49 666.494 806.854 665.517 807.404 664.669C807.953 663.817 808.637 663.152 809.456 662.673C810.275 662.19 811.177 661.949 812.162 661.949C812.929 661.949 813.597 662.091 814.165 662.375C814.733 662.659 815.171 663.057 815.479 663.568C815.787 664.08 815.931 664.676 815.912 665.358H814.236C814.189 664.861 813.976 664.42 813.597 664.037C813.223 663.649 812.669 663.455 811.935 663.455C811.281 663.455 810.68 663.625 810.131 663.966C809.582 664.302 809.12 664.778 808.746 665.393C808.372 666.004 808.119 666.722 807.986 667.545C807.844 668.388 807.856 669.122 808.021 669.747C808.187 670.372 808.488 670.857 808.923 671.203C809.359 671.549 809.908 671.722 810.571 671.722C811.007 671.722 811.414 671.646 811.793 671.494C812.172 671.343 812.508 671.125 812.801 670.841C813.095 670.557 813.327 670.216 813.497 669.818H815.173C814.965 670.462 814.631 671.042 814.172 671.558C813.713 672.07 813.156 672.477 812.503 672.78C811.85 673.078 811.12 673.227 810.316 673.227ZM820.266 673.256C819.575 673.256 818.968 673.125 818.448 672.865C817.927 672.6 817.541 672.219 817.29 671.722C817.039 671.22 816.97 670.614 817.084 669.903C817.193 669.278 817.404 668.772 817.716 668.384C818.029 667.991 818.407 667.683 818.852 667.46C819.302 667.233 819.785 667.065 820.301 666.956C820.822 666.842 821.341 666.755 821.857 666.693C822.529 666.608 823.076 666.542 823.497 666.494C823.919 666.447 824.236 666.369 824.449 666.26C824.662 666.151 824.792 665.964 824.84 665.699V665.642C824.953 664.946 824.861 664.404 824.563 664.016C824.264 663.623 823.732 663.426 822.965 663.426C822.169 663.426 821.504 663.601 820.969 663.952C820.434 664.302 820.039 664.676 819.783 665.074L818.306 664.506C818.694 663.843 819.158 663.327 819.698 662.957C820.237 662.583 820.803 662.323 821.395 662.176C821.987 662.025 822.557 661.949 823.107 661.949C823.457 661.949 823.852 661.991 824.293 662.077C824.733 662.157 825.145 662.325 825.529 662.581C825.917 662.837 826.208 663.223 826.402 663.739C826.601 664.255 826.629 664.946 826.487 665.812L825.294 673H823.618L823.874 671.523H823.789C823.637 671.759 823.405 672.013 823.093 672.283C822.785 672.553 822.394 672.782 821.921 672.972C821.452 673.161 820.9 673.256 820.266 673.256ZM820.749 671.75C821.412 671.75 821.992 671.62 822.489 671.359C822.991 671.099 823.393 670.763 823.696 670.351C824.004 669.939 824.196 669.506 824.271 669.051L824.527 667.517C824.442 667.602 824.274 667.68 824.023 667.751C823.772 667.818 823.488 667.877 823.171 667.929C822.858 667.976 822.553 668.019 822.254 668.057C821.961 668.09 821.724 668.118 821.544 668.142C821.099 668.199 820.675 668.291 820.273 668.419C819.875 668.542 819.539 668.729 819.264 668.98C818.994 669.226 818.826 669.562 818.76 669.989C818.661 670.571 818.8 671.011 819.179 671.31C819.558 671.603 820.081 671.75 820.749 671.75Z" fill="white"/>
<path d="M807.392 274H804.597L810.878 256.545H813.92L820.202 274H817.406L812.472 259.716H812.335L807.392 274ZM807.861 267.165H816.929V269.381H807.861V267.165ZM822.722 274V256.545H828.944C830.296 256.545 831.418 256.778 832.31 257.244C833.208 257.71 833.879 258.355 834.322 259.179C834.765 259.997 834.987 260.943 834.987 262.017C834.987 263.085 834.762 264.026 834.313 264.838C833.87 265.645 833.2 266.273 832.302 266.722C831.41 267.17 830.288 267.395 828.935 267.395H824.222V265.128H828.697C829.549 265.128 830.242 265.006 830.776 264.761C831.316 264.517 831.711 264.162 831.961 263.696C832.211 263.23 832.336 262.67 832.336 262.017C832.336 261.358 832.208 260.787 831.952 260.304C831.702 259.821 831.308 259.452 830.768 259.196C830.234 258.935 829.532 258.804 828.663 258.804H825.356V274H822.722ZM831.339 266.125L835.651 274H832.651L828.424 266.125H831.339Z" fill="white"/>
<path d="M824.918 465V447.545H827.551V462.733H835.46V465H824.918ZM840.83 465H838.034L844.315 447.545H847.358L853.639 465H850.844L845.909 450.716H845.773L840.83 465ZM841.298 458.165H850.366V460.381H841.298V458.165Z" fill="white"/>
<path d="M598 654.5L601 650L603 648.5H605L603 653L599.5 656.5L596.5 661.5L593.5 669L590.5 675.5L588.5 682.5L586.5 690.5L584.5 689L585.5 680.5L590.5 669L593.5 663.5L596.5 658.5L598 654.5Z" fill="#FFBB8D" stroke="black"/>
<circle cx="701.511" cy="517.511" r="9.01136" fill="#FFEEB3" stroke="black"/>
<path d="M671.202 500V481.818H673.403V489.915H683.098V481.818H685.3V500H683.098V491.868H673.403V500H671.202ZM694.963 500.284C693.732 500.284 692.652 499.991 691.723 499.405C690.8 498.819 690.077 498 689.557 496.946C689.042 495.893 688.784 494.661 688.784 493.253C688.784 491.832 689.042 490.592 689.557 489.533C690.077 488.474 690.8 487.651 691.723 487.065C692.652 486.479 693.732 486.186 694.963 486.186C696.194 486.186 697.271 486.479 698.195 487.065C699.124 487.651 699.846 488.474 700.361 489.533C700.882 490.592 701.142 491.832 701.142 493.253C701.142 494.661 700.882 495.893 700.361 496.946C699.846 498 699.124 498.819 698.195 499.405C697.271 499.991 696.194 500.284 694.963 500.284ZM694.963 498.402C695.898 498.402 696.668 498.162 697.271 497.683C697.875 497.203 698.322 496.573 698.612 495.792C698.902 495.011 699.047 494.164 699.047 493.253C699.047 492.341 698.902 491.492 698.612 490.705C698.322 489.918 697.875 489.281 697.271 488.796C696.668 488.311 695.898 488.068 694.963 488.068C694.028 488.068 693.259 488.311 692.655 488.796C692.051 489.281 691.604 489.918 691.314 490.705C691.024 491.492 690.879 492.341 690.879 493.253C690.879 494.164 691.024 495.011 691.314 495.792C691.604 496.573 692.051 497.203 692.655 497.683C693.259 498.162 694.028 498.402 694.963 498.402ZM712.934 494.425V486.364H715.029V500H712.934V497.692H712.792C712.473 498.384 711.975 498.973 711.301 499.458C710.626 499.938 709.774 500.178 708.744 500.178C707.892 500.178 707.134 499.991 706.471 499.618C705.808 499.239 705.287 498.671 704.909 497.914C704.53 497.15 704.34 496.188 704.34 495.028V486.364H706.436V494.886C706.436 495.881 706.714 496.674 707.27 497.266C707.832 497.857 708.549 498.153 709.419 498.153C709.939 498.153 710.469 498.02 711.008 497.754C711.552 497.488 712.008 497.079 712.375 496.529C712.748 495.978 712.934 495.277 712.934 494.425ZM728.526 489.418L726.644 489.95C726.525 489.637 726.351 489.332 726.12 489.036C725.895 488.734 725.587 488.485 725.197 488.29C724.806 488.095 724.306 487.997 723.696 487.997C722.862 487.997 722.166 488.19 721.61 488.574C721.06 488.953 720.784 489.435 720.784 490.021C720.784 490.542 720.974 490.953 721.353 491.255C721.731 491.557 722.323 491.809 723.128 492.01L725.152 492.507C726.372 492.803 727.28 493.256 727.878 493.865C728.476 494.469 728.775 495.247 728.775 496.2C728.775 496.982 728.55 497.68 728.1 498.295C727.656 498.911 727.034 499.396 726.235 499.751C725.436 500.107 724.507 500.284 723.448 500.284C722.057 500.284 720.906 499.982 719.994 499.379C719.083 498.775 718.506 497.893 718.263 496.733L720.252 496.236C720.441 496.97 720.799 497.52 721.326 497.887C721.859 498.254 722.554 498.438 723.412 498.438C724.389 498.438 725.164 498.23 725.738 497.816C726.318 497.396 726.608 496.893 726.608 496.307C726.608 495.833 726.443 495.437 726.111 495.117C725.78 494.792 725.271 494.549 724.584 494.389L722.311 493.857C721.063 493.561 720.145 493.102 719.559 492.48C718.979 491.853 718.689 491.069 718.689 490.128C718.689 489.358 718.905 488.678 719.337 488.086C719.775 487.494 720.37 487.029 721.122 486.692C721.879 486.355 722.738 486.186 723.696 486.186C725.046 486.186 726.105 486.482 726.875 487.074C727.65 487.666 728.2 488.447 728.526 489.418ZM737.859 486.364V488.139H730.792V486.364H737.859ZM732.852 483.097H734.947V496.094C734.947 496.686 735.033 497.129 735.204 497.425C735.382 497.715 735.607 497.911 735.879 498.011C736.157 498.106 736.45 498.153 736.758 498.153C736.989 498.153 737.178 498.142 737.326 498.118C737.474 498.088 737.592 498.065 737.681 498.047L738.107 499.929C737.965 499.982 737.767 500.036 737.513 500.089C737.258 500.148 736.935 500.178 736.545 500.178C735.953 500.178 735.373 500.05 734.805 499.796C734.243 499.541 733.775 499.154 733.402 498.633C733.035 498.112 732.852 497.455 732.852 496.662V483.097ZM746.404 500.284C745.173 500.284 744.092 499.991 743.163 499.405C742.24 498.819 741.518 498 740.997 496.946C740.482 495.893 740.225 494.661 740.225 493.253C740.225 491.832 740.482 490.592 740.997 489.533C741.518 488.474 742.24 487.651 743.163 487.065C744.092 486.479 745.173 486.186 746.404 486.186C747.635 486.186 748.712 486.479 749.635 487.065C750.564 487.651 751.286 488.474 751.801 489.533C752.322 490.592 752.583 491.832 752.583 493.253C752.583 494.661 752.322 495.893 751.801 496.946C751.286 498 750.564 498.819 749.635 499.405C748.712 499.991 747.635 500.284 746.404 500.284ZM746.404 498.402C747.339 498.402 748.108 498.162 748.712 497.683C749.316 497.203 749.762 496.573 750.052 495.792C750.342 495.011 750.487 494.164 750.487 493.253C750.487 492.341 750.342 491.492 750.052 490.705C749.762 489.918 749.316 489.281 748.712 488.796C748.108 488.311 747.339 488.068 746.404 488.068C745.469 488.068 744.699 488.311 744.095 488.796C743.492 489.281 743.045 489.918 742.755 490.705C742.465 491.492 742.32 492.341 742.32 493.253C742.32 494.164 742.465 495.011 742.755 495.792C743.045 496.573 743.492 497.203 744.095 497.683C744.699 498.162 745.469 498.402 746.404 498.402ZM757.876 491.797V500H755.781V486.364H757.805V488.494H757.983C758.302 487.802 758.788 487.246 759.439 486.825C760.09 486.399 760.93 486.186 761.96 486.186C762.883 486.186 763.691 486.375 764.384 486.754C765.076 487.127 765.615 487.695 765.999 488.459C766.384 489.216 766.576 490.175 766.576 491.335V500H764.481V491.477C764.481 490.406 764.203 489.571 763.647 488.974C763.09 488.37 762.327 488.068 761.356 488.068C760.687 488.068 760.09 488.213 759.563 488.503C759.042 488.793 758.631 489.216 758.329 489.773C758.027 490.329 757.876 491.004 757.876 491.797Z" fill="black"/>
<circle cx="616.511" cy="309.511" r="9.01136" fill="#FFEEB3" stroke="black"/>
<path d="M614.812 344H609.202V325.818H615.061C616.825 325.818 618.334 326.182 619.589 326.91C620.844 327.632 621.805 328.671 622.474 330.026C623.143 331.376 623.477 332.991 623.477 334.874C623.477 336.768 623.14 338.398 622.465 339.765C621.79 341.127 620.808 342.174 619.518 342.908C618.228 343.636 616.659 344 614.812 344ZM611.403 342.047H614.67C616.174 342.047 617.42 341.757 618.408 341.177C619.396 340.597 620.133 339.771 620.619 338.7C621.104 337.629 621.347 336.353 621.347 334.874C621.347 333.406 621.107 332.142 620.627 331.083C620.148 330.017 619.432 329.201 618.479 328.632C617.526 328.058 616.339 327.771 614.919 327.771H611.403V342.047ZM630.899 344.32C630.035 344.32 629.251 344.157 628.547 343.831C627.842 343.5 627.283 343.023 626.869 342.402C626.454 341.775 626.247 341.017 626.247 340.129C626.247 339.348 626.401 338.715 626.709 338.229C627.017 337.738 627.428 337.353 627.943 337.075C628.458 336.797 629.026 336.59 629.647 336.454C630.275 336.312 630.905 336.199 631.538 336.116C632.367 336.01 633.039 335.93 633.554 335.877C634.074 335.818 634.453 335.72 634.69 335.584C634.933 335.448 635.054 335.211 635.054 334.874V334.803C635.054 333.927 634.814 333.246 634.335 332.761C633.861 332.275 633.142 332.033 632.178 332.033C631.177 332.033 630.393 332.252 629.825 332.69C629.257 333.128 628.857 333.595 628.626 334.092L626.638 333.382C626.993 332.554 627.466 331.908 628.058 331.447C628.656 330.979 629.307 330.654 630.011 330.47C630.722 330.281 631.42 330.186 632.107 330.186C632.545 330.186 633.048 330.239 633.616 330.346C634.19 330.446 634.743 330.657 635.276 330.976C635.815 331.296 636.261 331.778 636.616 332.423C636.972 333.068 637.149 333.933 637.149 335.016V344H635.054V342.153H634.947C634.805 342.449 634.569 342.766 634.237 343.103C633.906 343.441 633.465 343.728 632.914 343.964C632.364 344.201 631.692 344.32 630.899 344.32ZM631.219 342.438C632.047 342.438 632.746 342.275 633.314 341.949C633.888 341.624 634.32 341.203 634.61 340.689C634.906 340.174 635.054 339.632 635.054 339.064V337.146C634.965 337.253 634.77 337.35 634.468 337.439C634.172 337.522 633.829 337.596 633.438 337.661C633.054 337.72 632.678 337.774 632.311 337.821C631.95 337.862 631.657 337.898 631.432 337.928C630.887 337.999 630.378 338.114 629.905 338.274C629.437 338.428 629.058 338.661 628.768 338.975C628.484 339.283 628.342 339.703 628.342 340.236C628.342 340.964 628.612 341.514 629.15 341.887C629.695 342.254 630.384 342.438 631.219 342.438ZM643.068 325.818V344H640.973V325.818H643.068ZM649.001 325.818V344H646.906V325.818H649.001ZM656.851 344.32C655.987 344.32 655.203 344.157 654.499 343.831C653.794 343.5 653.235 343.023 652.821 342.402C652.406 341.775 652.199 341.017 652.199 340.129C652.199 339.348 652.353 338.715 652.661 338.229C652.969 337.738 653.38 337.353 653.895 337.075C654.41 336.797 654.978 336.59 655.6 336.454C656.227 336.312 656.857 336.199 657.491 336.116C658.319 336.01 658.991 335.93 659.506 335.877C660.027 335.818 660.405 335.72 660.642 335.584C660.885 335.448 661.006 335.211 661.006 334.874V334.803C661.006 333.927 660.766 333.246 660.287 332.761C659.814 332.275 659.094 332.033 658.13 332.033C657.129 332.033 656.345 332.252 655.777 332.69C655.209 333.128 654.809 333.595 654.579 334.092L652.59 333.382C652.945 332.554 653.419 331.908 654.01 331.447C654.608 330.979 655.259 330.654 655.964 330.47C656.674 330.281 657.372 330.186 658.059 330.186C658.497 330.186 659 330.239 659.568 330.346C660.142 330.446 660.695 330.657 661.228 330.976C661.767 331.296 662.214 331.778 662.569 332.423C662.924 333.068 663.101 333.933 663.101 335.016V344H661.006V342.153H660.9C660.758 342.449 660.521 342.766 660.189 343.103C659.858 343.441 659.417 343.728 658.867 343.964C658.316 344.201 657.644 344.32 656.851 344.32ZM657.171 342.438C657.999 342.438 658.698 342.275 659.266 341.949C659.84 341.624 660.272 341.203 660.562 340.689C660.858 340.174 661.006 339.632 661.006 339.064V337.146C660.917 337.253 660.722 337.35 660.42 337.439C660.124 337.522 659.781 337.596 659.39 337.661C659.006 337.72 658.63 337.774 658.263 337.821C657.902 337.862 657.609 337.898 657.384 337.928C656.839 337.999 656.33 338.114 655.857 338.274C655.389 338.428 655.011 338.661 654.721 338.975C654.437 339.283 654.294 339.703 654.294 340.236C654.294 340.964 654.564 341.514 655.102 341.887C655.647 342.254 656.336 342.438 657.171 342.438ZM676.585 333.418L674.702 333.95C674.584 333.637 674.409 333.332 674.179 333.036C673.954 332.734 673.646 332.485 673.255 332.29C672.865 332.095 672.365 331.997 671.755 331.997C670.92 331.997 670.225 332.19 669.669 332.574C669.118 332.953 668.843 333.435 668.843 334.021C668.843 334.542 669.032 334.953 669.411 335.255C669.79 335.557 670.382 335.809 671.187 336.01L673.211 336.507C674.43 336.803 675.339 337.256 675.936 337.865C676.534 338.469 676.833 339.247 676.833 340.2C676.833 340.982 676.608 341.68 676.158 342.295C675.714 342.911 675.093 343.396 674.294 343.751C673.495 344.107 672.566 344.284 671.506 344.284C670.116 344.284 668.964 343.982 668.053 343.379C667.141 342.775 666.564 341.893 666.322 340.733L668.31 340.236C668.5 340.97 668.858 341.52 669.385 341.887C669.917 342.254 670.613 342.438 671.471 342.438C672.447 342.438 673.223 342.23 673.797 341.816C674.377 341.396 674.667 340.893 674.667 340.307C674.667 339.833 674.501 339.437 674.17 339.117C673.838 338.792 673.329 338.549 672.643 338.389L670.37 337.857C669.121 337.561 668.204 337.102 667.618 336.48C667.038 335.853 666.748 335.069 666.748 334.128C666.748 333.358 666.964 332.678 667.396 332.086C667.834 331.494 668.429 331.029 669.18 330.692C669.938 330.355 670.796 330.186 671.755 330.186C673.104 330.186 674.164 330.482 674.933 331.074C675.709 331.666 676.259 332.447 676.585 333.418Z" fill="black"/>
<circle cx="516.511" cy="542.511" r="9.01136" fill="#FFEEB3" stroke="black"/>
<path d="M482.145 567.364C482.038 566.464 481.606 565.766 480.849 565.268C480.091 564.771 479.162 564.523 478.061 564.523C477.256 564.523 476.552 564.653 475.948 564.913C475.35 565.174 474.883 565.532 474.545 565.988C474.214 566.443 474.048 566.961 474.048 567.541C474.048 568.027 474.164 568.444 474.395 568.793C474.631 569.136 474.933 569.423 475.3 569.654C475.667 569.879 476.052 570.065 476.454 570.213C476.857 570.355 477.227 570.471 477.564 570.56L479.411 571.057C479.884 571.181 480.411 571.353 480.991 571.572C481.577 571.791 482.136 572.09 482.669 572.468C483.207 572.841 483.651 573.321 484 573.907C484.35 574.493 484.524 575.212 484.524 576.064C484.524 577.046 484.267 577.934 483.752 578.727C483.243 579.52 482.497 580.151 481.515 580.618C480.538 581.086 479.351 581.32 477.955 581.32C476.652 581.32 475.525 581.109 474.572 580.689C473.625 580.269 472.879 579.683 472.335 578.931C471.796 578.18 471.491 577.307 471.42 576.312H473.693C473.752 576.999 473.983 577.567 474.386 578.017C474.794 578.461 475.309 578.792 475.93 579.011C476.558 579.224 477.232 579.331 477.955 579.331C478.795 579.331 479.55 579.195 480.218 578.923C480.887 578.644 481.417 578.26 481.808 577.768C482.198 577.271 482.393 576.691 482.393 576.028C482.393 575.425 482.225 574.933 481.887 574.555C481.55 574.176 481.106 573.868 480.556 573.631C480.005 573.395 479.411 573.187 478.771 573.01L476.534 572.371C475.114 571.962 473.989 571.379 473.161 570.622C472.332 569.864 471.918 568.873 471.918 567.648C471.918 566.63 472.193 565.742 472.743 564.984C473.3 564.221 474.045 563.629 474.98 563.209C475.922 562.783 476.972 562.57 478.132 562.57C479.304 562.57 480.346 562.78 481.257 563.2C482.169 563.614 482.891 564.182 483.423 564.904C483.962 565.627 484.246 566.446 484.276 567.364H482.145ZM491.873 581.32C491.009 581.32 490.224 581.157 489.52 580.831C488.816 580.5 488.257 580.023 487.842 579.402C487.428 578.775 487.221 578.017 487.221 577.129C487.221 576.348 487.375 575.715 487.682 575.229C487.99 574.738 488.402 574.353 488.916 574.075C489.431 573.797 490 573.59 490.621 573.454C491.248 573.312 491.879 573.199 492.512 573.116C493.341 573.01 494.012 572.93 494.527 572.877C495.048 572.818 495.427 572.72 495.664 572.584C495.906 572.448 496.028 572.211 496.028 571.874V571.803C496.028 570.927 495.788 570.246 495.309 569.761C494.835 569.275 494.116 569.033 493.151 569.033C492.151 569.033 491.367 569.252 490.799 569.69C490.23 570.128 489.831 570.595 489.6 571.092L487.611 570.382C487.967 569.554 488.44 568.908 489.032 568.447C489.63 567.979 490.281 567.654 490.985 567.47C491.695 567.281 492.394 567.186 493.08 567.186C493.518 567.186 494.021 567.239 494.589 567.346C495.164 567.446 495.717 567.657 496.25 567.976C496.788 568.296 497.235 568.778 497.59 569.423C497.945 570.068 498.123 570.933 498.123 572.016V581H496.028V579.153H495.921C495.779 579.449 495.542 579.766 495.211 580.103C494.879 580.441 494.438 580.728 493.888 580.964C493.338 581.201 492.666 581.32 491.873 581.32ZM492.192 579.438C493.021 579.438 493.719 579.275 494.288 578.949C494.862 578.624 495.294 578.203 495.584 577.689C495.88 577.174 496.028 576.632 496.028 576.064V574.146C495.939 574.253 495.744 574.35 495.442 574.439C495.146 574.522 494.802 574.596 494.412 574.661C494.027 574.72 493.651 574.774 493.284 574.821C492.923 574.862 492.63 574.898 492.405 574.928C491.861 574.999 491.352 575.114 490.878 575.274C490.411 575.428 490.032 575.661 489.742 575.975C489.458 576.283 489.316 576.703 489.316 577.236C489.316 577.964 489.585 578.514 490.124 578.887C490.668 579.254 491.358 579.438 492.192 579.438ZM504.042 572.797V581H501.947V567.364H503.971V569.494H504.149C504.468 568.802 504.954 568.246 505.605 567.825C506.256 567.399 507.096 567.186 508.126 567.186C509.049 567.186 509.857 567.375 510.55 567.754C511.242 568.127 511.781 568.695 512.165 569.459C512.55 570.216 512.742 571.175 512.742 572.335V581H510.647V572.477C510.647 571.406 510.369 570.571 509.813 569.974C509.256 569.37 508.493 569.068 507.522 569.068C506.853 569.068 506.256 569.213 505.729 569.503C505.208 569.793 504.797 570.216 504.495 570.773C504.193 571.329 504.042 572.004 504.042 572.797ZM524.632 581H522.324L529 562.818H531.273L537.949 581H535.641L530.207 565.695H530.065L524.632 581ZM525.484 573.898H534.788V575.851H525.484V573.898ZM542.592 572.797V581H540.497V567.364H542.521V569.494H542.698C543.018 568.802 543.503 568.246 544.154 567.825C544.805 567.399 545.646 567.186 546.676 567.186C547.599 567.186 548.407 567.375 549.099 567.754C549.792 568.127 550.33 568.695 550.715 569.459C551.1 570.216 551.292 571.175 551.292 572.335V581H549.197V572.477C549.197 571.406 548.919 570.571 548.362 569.974C547.806 569.37 547.043 569.068 546.072 569.068C545.403 569.068 544.805 569.213 544.279 569.503C543.758 569.793 543.347 570.216 543.045 570.773C542.743 571.329 542.592 572.004 542.592 572.797ZM561.051 567.364V569.139H553.984V567.364H561.051ZM556.044 564.097H558.139V577.094C558.139 577.686 558.225 578.129 558.397 578.425C558.574 578.715 558.799 578.911 559.071 579.011C559.35 579.106 559.643 579.153 559.95 579.153C560.181 579.153 560.371 579.142 560.518 579.118C560.666 579.088 560.785 579.065 560.874 579.047L561.3 580.929C561.158 580.982 560.959 581.036 560.705 581.089C560.45 581.148 560.128 581.178 559.737 581.178C559.145 581.178 558.565 581.05 557.997 580.796C557.435 580.541 556.967 580.154 556.594 579.633C556.228 579.112 556.044 578.455 556.044 577.662V564.097ZM569.596 581.284C568.365 581.284 567.285 580.991 566.356 580.405C565.432 579.819 564.71 579 564.189 577.946C563.675 576.893 563.417 575.661 563.417 574.253C563.417 572.832 563.675 571.592 564.189 570.533C564.71 569.474 565.432 568.651 566.356 568.065C567.285 567.479 568.365 567.186 569.596 567.186C570.827 567.186 571.904 567.479 572.828 568.065C573.757 568.651 574.479 569.474 574.994 570.533C575.515 571.592 575.775 572.832 575.775 574.253C575.775 575.661 575.515 576.893 574.994 577.946C574.479 579 573.757 579.819 572.828 580.405C571.904 580.991 570.827 581.284 569.596 581.284ZM569.596 579.402C570.531 579.402 571.301 579.162 571.904 578.683C572.508 578.203 572.955 577.573 573.245 576.792C573.535 576.011 573.68 575.164 573.68 574.253C573.68 573.341 573.535 572.492 573.245 571.705C572.955 570.918 572.508 570.281 571.904 569.796C571.301 569.311 570.531 569.068 569.596 569.068C568.661 569.068 567.892 569.311 567.288 569.796C566.684 570.281 566.237 570.918 565.947 571.705C565.657 572.492 565.512 573.341 565.512 574.253C565.512 575.164 565.657 576.011 565.947 576.792C566.237 577.573 566.684 578.203 567.288 578.683C567.892 579.162 568.661 579.402 569.596 579.402ZM581.068 572.797V581H578.973V567.364H580.997V569.494H581.175C581.495 568.802 581.98 568.246 582.631 567.825C583.282 567.399 584.122 567.186 585.152 567.186C586.076 567.186 586.883 567.375 587.576 567.754C588.268 568.127 588.807 568.695 589.192 569.459C589.576 570.216 589.769 571.175 589.769 572.335V581H587.674V572.477C587.674 571.406 587.395 570.571 586.839 569.974C586.283 569.37 585.519 569.068 584.549 569.068C583.88 569.068 583.282 569.213 582.755 569.503C582.234 569.793 581.823 570.216 581.521 570.773C581.219 571.329 581.068 572.004 581.068 572.797ZM593.597 581V567.364H595.692V581H593.597ZM594.663 565.091C594.254 565.091 593.902 564.952 593.606 564.674C593.316 564.395 593.171 564.061 593.171 563.67C593.171 563.28 593.316 562.945 593.606 562.667C593.902 562.389 594.254 562.25 594.663 562.25C595.071 562.25 595.42 562.389 595.71 562.667C596.006 562.945 596.154 563.28 596.154 563.67C596.154 564.061 596.006 564.395 595.71 564.674C595.42 564.952 595.071 565.091 594.663 565.091ZM605.07 581.284C603.839 581.284 602.758 580.991 601.829 580.405C600.906 579.819 600.184 579 599.663 577.946C599.148 576.893 598.891 575.661 598.891 574.253C598.891 572.832 599.148 571.592 599.663 570.533C600.184 569.474 600.906 568.651 601.829 568.065C602.758 567.479 603.839 567.186 605.07 567.186C606.301 567.186 607.378 567.479 608.301 568.065C609.23 568.651 609.953 569.474 610.467 570.533C610.988 571.592 611.249 572.832 611.249 574.253C611.249 575.661 610.988 576.893 610.467 577.946C609.953 579 609.23 579.819 608.301 580.405C607.378 580.991 606.301 581.284 605.07 581.284ZM605.07 579.402C606.005 579.402 606.774 579.162 607.378 578.683C607.982 578.203 608.428 577.573 608.718 576.792C609.008 576.011 609.153 575.164 609.153 574.253C609.153 573.341 609.008 572.492 608.718 571.705C608.428 570.918 607.982 570.281 607.378 569.796C606.774 569.311 606.005 569.068 605.07 569.068C604.135 569.068 603.365 569.311 602.761 569.796C602.158 570.281 601.711 570.918 601.421 571.705C601.131 572.492 600.986 573.341 600.986 574.253C600.986 575.164 601.131 576.011 601.421 576.792C601.711 577.573 602.158 578.203 602.761 578.683C603.365 579.162 604.135 579.402 605.07 579.402Z" fill="black"/>
<circle cx="561.148" cy="483.511" r="9.01136" fill="#FF766C" stroke="black"/>
<path d="M525.128 466H521.613L528.013 447.818H532.08L538.489 466H534.974L530.118 451.547H529.975L525.128 466ZM525.244 458.871H534.832V461.517H525.244V458.871ZM549.434 460.265V452.364H552.647V466H549.531V463.576H549.389C549.081 464.34 548.575 464.964 547.871 465.45C547.173 465.935 546.311 466.178 545.288 466.178C544.394 466.178 543.604 465.979 542.917 465.583C542.237 465.18 541.704 464.597 541.319 463.834C540.934 463.064 540.742 462.135 540.742 461.046V452.364H543.956V460.549C543.956 461.413 544.193 462.1 544.666 462.609C545.14 463.118 545.761 463.372 546.53 463.372C547.004 463.372 547.463 463.257 547.907 463.026C548.35 462.795 548.714 462.452 548.998 461.996C549.289 461.534 549.434 460.957 549.434 460.265ZM566.73 455.968L563.8 456.288C563.717 455.992 563.572 455.714 563.365 455.453C563.164 455.193 562.892 454.983 562.548 454.823C562.205 454.663 561.785 454.583 561.288 454.583C560.619 454.583 560.057 454.728 559.601 455.018C559.151 455.308 558.929 455.684 558.935 456.146C558.929 456.542 559.074 456.865 559.37 457.113C559.672 457.362 560.169 457.566 560.862 457.726L563.188 458.223C564.478 458.501 565.437 458.942 566.064 459.546C566.697 460.15 567.017 460.94 567.023 461.916C567.017 462.774 566.765 463.532 566.268 464.189C565.777 464.84 565.093 465.349 564.217 465.716C563.341 466.083 562.335 466.266 561.199 466.266C559.53 466.266 558.186 465.917 557.168 465.219C556.15 464.514 555.544 463.535 555.348 462.28L558.482 461.978C558.624 462.594 558.926 463.058 559.388 463.372C559.849 463.686 560.45 463.843 561.19 463.843C561.953 463.843 562.566 463.686 563.028 463.372C563.495 463.058 563.729 462.671 563.729 462.209C563.729 461.819 563.578 461.496 563.276 461.241C562.98 460.987 562.519 460.792 561.891 460.656L559.565 460.167C558.257 459.895 557.29 459.436 556.662 458.791C556.035 458.14 555.724 457.317 555.73 456.323C555.724 455.483 555.952 454.755 556.414 454.139C556.881 453.518 557.529 453.038 558.358 452.701C559.192 452.358 560.154 452.186 561.243 452.186C562.841 452.186 564.099 452.526 565.016 453.207C565.94 453.888 566.511 454.808 566.73 455.968ZM576.482 452.364V454.849H568.643V452.364H576.482ZM570.578 449.097H573.792V461.898C573.792 462.33 573.857 462.662 573.987 462.893C574.124 463.118 574.301 463.272 574.52 463.354C574.739 463.437 574.982 463.479 575.248 463.479C575.449 463.479 575.633 463.464 575.798 463.434C575.97 463.405 576.1 463.378 576.189 463.354L576.731 465.867C576.559 465.926 576.313 465.991 575.994 466.062C575.68 466.133 575.295 466.175 574.84 466.186C574.035 466.21 573.31 466.089 572.665 465.822C572.019 465.55 571.508 465.13 571.129 464.562C570.756 463.994 570.572 463.283 570.578 462.431V449.097ZM579.17 466V452.364H582.384V466H579.17ZM580.786 450.428C580.277 450.428 579.839 450.26 579.472 449.922C579.105 449.579 578.921 449.168 578.921 448.688C578.921 448.203 579.105 447.792 579.472 447.454C579.839 447.111 580.277 446.939 580.786 446.939C581.301 446.939 581.738 447.111 582.1 447.454C582.466 447.792 582.65 448.203 582.65 448.688C582.65 449.168 582.466 449.579 582.1 449.922C581.738 450.26 581.301 450.428 580.786 450.428ZM588.902 458.01V466H585.688V452.364H588.76V454.681H588.92C589.234 453.917 589.734 453.311 590.42 452.861C591.113 452.411 591.968 452.186 592.986 452.186C593.927 452.186 594.747 452.387 595.445 452.79C596.149 453.192 596.694 453.775 597.079 454.539C597.469 455.302 597.662 456.228 597.656 457.317V466H594.442V457.815C594.442 456.903 594.205 456.19 593.732 455.675C593.264 455.16 592.616 454.903 591.787 454.903C591.225 454.903 590.725 455.027 590.287 455.276C589.855 455.518 589.515 455.87 589.266 456.332C589.023 456.794 588.902 457.353 588.902 458.01Z" fill="black"/>
<circle cx="581.511" cy="309.511" r="9.01136" fill="#FFEEB3" stroke="black"/>
<path d="M458.202 288V269.818H469.104V271.771H460.403V277.915H468.287V279.868H460.403V288H458.202ZM477.129 288.284C475.898 288.284 474.818 287.991 473.889 287.405C472.966 286.819 472.243 286 471.723 284.946C471.208 283.893 470.95 282.661 470.95 281.253C470.95 279.832 471.208 278.592 471.723 277.533C472.243 276.474 472.966 275.651 473.889 275.065C474.818 274.479 475.898 274.186 477.129 274.186C478.36 274.186 479.438 274.479 480.361 275.065C481.29 275.651 482.012 276.474 482.527 277.533C483.048 278.592 483.308 279.832 483.308 281.253C483.308 282.661 483.048 283.893 482.527 284.946C482.012 286 481.29 286.819 480.361 287.405C479.438 287.991 478.36 288.284 477.129 288.284ZM477.129 286.402C478.064 286.402 478.834 286.162 479.438 285.683C480.041 285.203 480.488 284.573 480.778 283.792C481.068 283.011 481.213 282.164 481.213 281.253C481.213 280.341 481.068 279.492 480.778 278.705C480.488 277.918 480.041 277.281 479.438 276.796C478.834 276.311 478.064 276.068 477.129 276.068C476.194 276.068 475.425 276.311 474.821 276.796C474.217 277.281 473.77 277.918 473.48 278.705C473.19 279.492 473.045 280.341 473.045 281.253C473.045 282.164 473.19 283.011 473.48 283.792C473.77 284.573 474.217 285.203 474.821 285.683C475.425 286.162 476.194 286.402 477.129 286.402ZM486.506 288V274.364H488.531V276.423H488.673C488.921 275.749 489.371 275.201 490.022 274.781C490.673 274.361 491.407 274.151 492.224 274.151C492.378 274.151 492.57 274.154 492.801 274.159C493.032 274.165 493.206 274.174 493.325 274.186V276.317C493.254 276.299 493.091 276.272 492.836 276.237C492.588 276.195 492.324 276.175 492.046 276.175C491.383 276.175 490.792 276.314 490.271 276.592C489.756 276.864 489.347 277.243 489.046 277.728C488.75 278.208 488.602 278.755 488.602 279.371V288H486.506ZM502.593 274.364V276.139H495.526V274.364H502.593ZM497.586 271.097H499.681V284.094C499.681 284.686 499.767 285.129 499.939 285.425C500.116 285.715 500.341 285.911 500.613 286.011C500.892 286.106 501.185 286.153 501.492 286.153C501.723 286.153 501.912 286.142 502.06 286.118C502.208 286.088 502.327 286.065 502.416 286.047L502.842 287.929C502.7 287.982 502.501 288.036 502.247 288.089C501.992 288.148 501.67 288.178 501.279 288.178C500.687 288.178 500.107 288.05 499.539 287.796C498.977 287.541 498.509 287.154 498.136 286.633C497.77 286.112 497.586 285.455 497.586 284.662V271.097ZM516.363 288L511.391 269.818H513.628L517.428 284.626H517.606L521.476 269.818H523.962L527.833 284.626H528.01L531.81 269.818H534.047L529.076 288H526.803L522.79 273.511H522.648L518.635 288H516.363ZM540.777 288.284C539.546 288.284 538.466 287.991 537.536 287.405C536.613 286.819 535.891 286 535.37 284.946C534.855 283.893 534.598 282.661 534.598 281.253C534.598 279.832 534.855 278.592 535.37 277.533C535.891 276.474 536.613 275.651 537.536 275.065C538.466 274.479 539.546 274.186 540.777 274.186C542.008 274.186 543.085 274.479 544.008 275.065C544.937 275.651 545.66 276.474 546.174 277.533C546.695 278.592 546.956 279.832 546.956 281.253C546.956 282.661 546.695 283.893 546.174 284.946C545.66 286 544.937 286.819 544.008 287.405C543.085 287.991 542.008 288.284 540.777 288.284ZM540.777 286.402C541.712 286.402 542.481 286.162 543.085 285.683C543.689 285.203 544.136 284.573 544.426 283.792C544.716 283.011 544.861 282.164 544.861 281.253C544.861 280.341 544.716 279.492 544.426 278.705C544.136 277.918 543.689 277.281 543.085 276.796C542.481 276.311 541.712 276.068 540.777 276.068C539.842 276.068 539.072 276.311 538.468 276.796C537.865 277.281 537.418 277.918 537.128 278.705C536.838 279.492 536.693 280.341 536.693 281.253C536.693 282.164 536.838 283.011 537.128 283.792C537.418 284.573 537.865 285.203 538.468 285.683C539.072 286.162 539.842 286.402 540.777 286.402ZM550.154 288V274.364H552.178V276.423H552.32C552.569 275.749 553.019 275.201 553.67 274.781C554.321 274.361 555.055 274.151 555.871 274.151C556.025 274.151 556.218 274.154 556.448 274.159C556.679 274.165 556.854 274.174 556.972 274.186V276.317C556.901 276.299 556.738 276.272 556.484 276.237C556.235 276.195 555.972 276.175 555.694 276.175C555.031 276.175 554.439 276.314 553.918 276.592C553.403 276.864 552.995 277.243 552.693 277.728C552.397 278.208 552.249 278.755 552.249 279.371V288H550.154ZM566.241 274.364V276.139H559.174V274.364H566.241ZM561.233 271.097H563.329V284.094C563.329 284.686 563.414 285.129 563.586 285.425C563.764 285.715 563.989 285.911 564.261 286.011C564.539 286.106 564.832 286.153 565.14 286.153C565.371 286.153 565.56 286.142 565.708 286.118C565.856 286.088 565.974 286.065 566.063 286.047L566.489 287.929C566.347 287.982 566.149 288.036 565.894 288.089C565.64 288.148 565.317 288.178 564.927 288.178C564.335 288.178 563.755 288.05 563.187 287.796C562.624 287.541 562.157 287.154 561.784 286.633C561.417 286.112 561.233 285.455 561.233 284.662V271.097ZM571.78 279.797V288H569.685V269.818H571.78V276.494H571.958C572.278 275.79 572.757 275.231 573.396 274.816C574.041 274.396 574.899 274.186 575.971 274.186C576.9 274.186 577.714 274.373 578.412 274.745C579.11 275.112 579.652 275.678 580.037 276.441C580.427 277.199 580.623 278.163 580.623 279.335V288H578.528V279.477C578.528 278.394 578.246 277.557 577.684 276.965C577.128 276.367 576.355 276.068 575.367 276.068C574.68 276.068 574.065 276.213 573.52 276.503C572.982 276.793 572.556 277.216 572.242 277.773C571.934 278.329 571.78 279.004 571.78 279.797Z" fill="black"/>
<circle cx="316.511" cy="137.511" r="9.01136" fill="#FFEEB3" stroke="black"/>
<path d="M281.947 120H279.639L286.315 101.818H288.588L295.264 120H292.956L287.523 104.695H287.381L281.947 120ZM282.8 112.898H292.104V114.851H282.8V112.898ZM297.812 120V106.364H299.836V108.494H300.014C300.298 107.766 300.757 107.201 301.39 106.799C302.023 106.39 302.784 106.186 303.672 106.186C304.571 106.186 305.32 106.39 305.918 106.799C306.521 107.201 306.992 107.766 307.329 108.494H307.471C307.82 107.79 308.344 107.231 309.043 106.816C309.741 106.396 310.578 106.186 311.555 106.186C312.774 106.186 313.772 106.568 314.547 107.331C315.322 108.089 315.71 109.27 315.71 110.874V120H313.615V110.874C313.615 109.867 313.339 109.148 312.789 108.716C312.239 108.284 311.591 108.068 310.845 108.068C309.886 108.068 309.143 108.358 308.616 108.938C308.09 109.512 307.826 110.24 307.826 111.122V120H305.696V110.661C305.696 109.885 305.444 109.261 304.941 108.787C304.438 108.308 303.79 108.068 302.997 108.068C302.452 108.068 301.943 108.213 301.47 108.503C301.002 108.793 300.623 109.196 300.333 109.711C300.049 110.22 299.907 110.808 299.907 111.477V120H297.812ZM323.553 120.32C322.689 120.32 321.905 120.157 321.201 119.831C320.497 119.5 319.937 119.023 319.523 118.402C319.109 117.775 318.901 117.017 318.901 116.129C318.901 115.348 319.055 114.715 319.363 114.229C319.671 113.738 320.082 113.353 320.597 113.075C321.112 112.797 321.68 112.59 322.302 112.454C322.929 112.312 323.559 112.199 324.193 112.116C325.021 112.01 325.693 111.93 326.208 111.877C326.729 111.818 327.108 111.72 327.344 111.584C327.587 111.448 327.708 111.211 327.708 110.874V110.803C327.708 109.927 327.469 109.246 326.989 108.761C326.516 108.275 325.797 108.033 324.832 108.033C323.832 108.033 323.047 108.252 322.479 108.69C321.911 109.128 321.512 109.595 321.281 110.092L319.292 109.382C319.647 108.554 320.121 107.908 320.713 107.447C321.31 106.979 321.961 106.654 322.666 106.47C323.376 106.281 324.074 106.186 324.761 106.186C325.199 106.186 325.702 106.239 326.27 106.346C326.844 106.446 327.398 106.657 327.93 106.976C328.469 107.296 328.916 107.778 329.271 108.423C329.626 109.068 329.803 109.933 329.803 111.016V120H327.708V118.153H327.602C327.46 118.449 327.223 118.766 326.892 119.103C326.56 119.441 326.119 119.728 325.569 119.964C325.018 120.201 324.347 120.32 323.553 120.32ZM323.873 118.438C324.702 118.438 325.4 118.275 325.968 117.949C326.542 117.624 326.974 117.203 327.264 116.689C327.56 116.174 327.708 115.632 327.708 115.064V113.146C327.619 113.253 327.424 113.35 327.122 113.439C326.826 113.522 326.483 113.596 326.093 113.661C325.708 113.72 325.332 113.774 324.965 113.821C324.604 113.862 324.311 113.898 324.086 113.928C323.542 113.999 323.033 114.114 322.559 114.274C322.092 114.428 321.713 114.661 321.423 114.975C321.139 115.283 320.997 115.703 320.997 116.236C320.997 116.964 321.266 117.514 321.805 117.887C322.349 118.254 323.039 118.438 323.873 118.438ZM333.628 120V106.364H335.652V108.423H335.794C336.042 107.749 336.492 107.201 337.143 106.781C337.794 106.361 338.528 106.151 339.345 106.151C339.499 106.151 339.691 106.154 339.922 106.159C340.153 106.165 340.327 106.174 340.446 106.186V108.317C340.375 108.299 340.212 108.272 339.957 108.237C339.709 108.195 339.446 108.175 339.167 108.175C338.504 108.175 337.913 108.314 337.392 108.592C336.877 108.864 336.468 109.243 336.167 109.728C335.871 110.208 335.723 110.755 335.723 111.371V120H333.628ZM342.929 120V106.364H345.025V120H342.929ZM343.995 104.091C343.586 104.091 343.234 103.952 342.938 103.674C342.648 103.395 342.503 103.061 342.503 102.67C342.503 102.28 342.648 101.945 342.938 101.667C343.234 101.389 343.586 101.25 343.995 101.25C344.403 101.25 344.752 101.389 345.042 101.667C345.338 101.945 345.486 102.28 345.486 102.67C345.486 103.061 345.338 103.395 345.042 103.674C344.752 103.952 344.403 104.091 343.995 104.091ZM350.957 101.818V120H348.862V101.818H350.957ZM356.89 101.818V120H354.795V101.818H356.89ZM366.267 120.284C365.036 120.284 363.956 119.991 363.027 119.405C362.103 118.819 361.381 118 360.86 116.946C360.345 115.893 360.088 114.661 360.088 113.253C360.088 111.832 360.345 110.592 360.86 109.533C361.381 108.474 362.103 107.651 363.027 107.065C363.956 106.479 365.036 106.186 366.267 106.186C367.498 106.186 368.575 106.479 369.498 107.065C370.428 107.651 371.15 108.474 371.665 109.533C372.186 110.592 372.446 111.832 372.446 113.253C372.446 114.661 372.186 115.893 371.665 116.946C371.15 118 370.428 118.819 369.498 119.405C368.575 119.991 367.498 120.284 366.267 120.284ZM366.267 118.402C367.202 118.402 367.972 118.162 368.575 117.683C369.179 117.203 369.626 116.573 369.916 115.792C370.206 115.011 370.351 114.164 370.351 113.253C370.351 112.341 370.206 111.492 369.916 110.705C369.626 109.918 369.179 109.281 368.575 108.796C367.972 108.311 367.202 108.068 366.267 108.068C365.332 108.068 364.562 108.311 363.959 108.796C363.355 109.281 362.908 109.918 362.618 110.705C362.328 111.492 362.183 112.341 362.183 113.253C362.183 114.164 362.328 115.011 362.618 115.792C362.908 116.573 363.355 117.203 363.959 117.683C364.562 118.162 365.332 118.402 366.267 118.402Z" fill="black"/>
<circle cx="321.511" cy="254.511" r="9.01136" fill="#FFEEB3" stroke="black"/>
<path d="M275.202 237V218.818H277.403V235.047H285.855V237H275.202ZM297.574 231.425V223.364H299.669V237H297.574V234.692H297.432C297.112 235.384 296.615 235.973 295.94 236.458C295.266 236.938 294.413 237.178 293.384 237.178C292.531 237.178 291.774 236.991 291.111 236.618C290.448 236.239 289.927 235.671 289.548 234.914C289.17 234.15 288.98 233.188 288.98 232.028V223.364H291.075V231.886C291.075 232.881 291.353 233.674 291.91 234.266C292.472 234.857 293.188 235.153 294.058 235.153C294.579 235.153 295.109 235.02 295.647 234.754C296.192 234.488 296.648 234.079 297.015 233.529C297.387 232.978 297.574 232.277 297.574 231.425ZM303.791 237V218.818H305.886V225.53H306.063C306.217 225.293 306.43 224.991 306.703 224.624C306.981 224.251 307.377 223.92 307.892 223.63C308.413 223.334 309.117 223.186 310.005 223.186C311.153 223.186 312.165 223.473 313.041 224.047C313.917 224.621 314.601 225.435 315.092 226.489C315.583 227.542 315.829 228.785 315.829 230.217C315.829 231.661 315.583 232.913 315.092 233.973C314.601 235.026 313.92 235.843 313.05 236.423C312.18 236.997 311.177 237.284 310.041 237.284C309.165 237.284 308.463 237.139 307.937 236.849C307.41 236.553 307.004 236.219 306.72 235.846C306.436 235.467 306.217 235.153 306.063 234.905H305.815V237H303.791ZM305.85 230.182C305.85 231.212 306.001 232.12 306.303 232.907C306.605 233.689 307.046 234.301 307.626 234.745C308.206 235.183 308.916 235.402 309.756 235.402C310.632 235.402 311.363 235.171 311.949 234.71C312.541 234.242 312.985 233.615 313.281 232.827C313.583 232.034 313.734 231.152 313.734 230.182C313.734 229.223 313.586 228.359 313.29 227.589C313 226.814 312.559 226.202 311.967 225.752C311.381 225.296 310.644 225.068 309.756 225.068C308.904 225.068 308.188 225.284 307.608 225.716C307.028 226.142 306.59 226.74 306.294 227.51C305.998 228.273 305.85 229.164 305.85 230.182ZM319.318 237V218.818H321.413V225.53H321.591C321.745 225.293 321.958 224.991 322.23 224.624C322.508 224.251 322.905 223.92 323.419 223.63C323.94 223.334 324.645 223.186 325.532 223.186C326.681 223.186 327.693 223.473 328.569 224.047C329.445 224.621 330.128 225.435 330.619 226.489C331.111 227.542 331.356 228.785 331.356 230.217C331.356 231.661 331.111 232.913 330.619 233.973C330.128 235.026 329.448 235.843 328.578 236.423C327.707 236.997 326.704 237.284 325.568 237.284C324.692 237.284 323.991 237.139 323.464 236.849C322.937 236.553 322.532 236.219 322.248 235.846C321.964 235.467 321.745 235.153 321.591 234.905H321.342V237H319.318ZM321.378 230.182C321.378 231.212 321.528 232.12 321.83 232.907C322.132 233.689 322.573 234.301 323.153 234.745C323.733 235.183 324.443 235.402 325.284 235.402C326.16 235.402 326.891 235.171 327.477 234.71C328.069 234.242 328.512 233.615 328.808 232.827C329.11 232.034 329.261 231.152 329.261 230.182C329.261 229.223 329.113 228.359 328.817 227.589C328.527 226.814 328.086 226.202 327.494 225.752C326.908 225.296 326.172 225.068 325.284 225.068C324.432 225.068 323.715 225.284 323.135 225.716C322.555 226.142 322.117 226.74 321.821 227.51C321.526 228.273 321.378 229.164 321.378 230.182ZM340.101 237.284C338.87 237.284 337.79 236.991 336.861 236.405C335.937 235.819 335.215 235 334.694 233.946C334.179 232.893 333.922 231.661 333.922 230.253C333.922 228.832 334.179 227.592 334.694 226.533C335.215 225.474 335.937 224.651 336.861 224.065C337.79 223.479 338.87 223.186 340.101 223.186C341.332 223.186 342.409 223.479 343.332 224.065C344.262 224.651 344.984 225.474 345.499 226.533C346.02 227.592 346.28 228.832 346.28 230.253C346.28 231.661 346.02 232.893 345.499 233.946C344.984 235 344.262 235.819 343.332 236.405C342.409 236.991 341.332 237.284 340.101 237.284ZM340.101 235.402C341.036 235.402 341.805 235.162 342.409 234.683C343.013 234.203 343.46 233.573 343.75 232.792C344.04 232.011 344.185 231.164 344.185 230.253C344.185 229.341 344.04 228.492 343.75 227.705C343.46 226.918 343.013 226.281 342.409 225.796C341.805 225.311 341.036 225.068 340.101 225.068C339.166 225.068 338.396 225.311 337.793 225.796C337.189 226.281 336.742 226.918 336.452 227.705C336.162 228.492 336.017 229.341 336.017 230.253C336.017 231.164 336.162 232.011 336.452 232.792C336.742 233.573 337.189 234.203 337.793 234.683C338.396 235.162 339.166 235.402 340.101 235.402ZM355.018 237.284C353.74 237.284 352.639 236.982 351.715 236.379C350.792 235.775 350.082 234.943 349.585 233.884C349.088 232.824 348.839 231.614 348.839 230.253C348.839 228.868 349.093 227.646 349.602 226.586C350.117 225.521 350.834 224.689 351.751 224.092C352.674 223.488 353.751 223.186 354.982 223.186C355.941 223.186 356.805 223.364 357.575 223.719C358.344 224.074 358.974 224.571 359.466 225.21C359.957 225.849 360.262 226.595 360.38 227.447H358.285C358.125 226.826 357.77 226.276 357.22 225.796C356.675 225.311 355.941 225.068 355.018 225.068C354.201 225.068 353.485 225.281 352.869 225.707C352.26 226.128 351.783 226.722 351.44 227.492C351.103 228.255 350.934 229.152 350.934 230.182C350.934 231.235 351.1 232.153 351.431 232.934C351.769 233.715 352.242 234.322 352.852 234.754C353.467 235.186 354.189 235.402 355.018 235.402C355.562 235.402 356.057 235.307 356.501 235.118C356.944 234.929 357.32 234.656 357.628 234.301C357.936 233.946 358.155 233.52 358.285 233.023H360.38C360.262 233.828 359.969 234.553 359.501 235.198C359.04 235.837 358.427 236.346 357.664 236.725C356.906 237.098 356.024 237.284 355.018 237.284ZM365.396 232.028L365.361 229.436H365.787L371.753 223.364H374.345L367.988 229.791H367.811L365.396 232.028ZM363.443 237V218.818H365.538V237H363.443ZM372.108 237L366.781 230.253L368.273 228.797L374.771 237H372.108Z" fill="black"/>
<circle cx="301.511" cy="361.511" r="9.01136" fill="#FFEEB3" stroke="black"/>
<path d="M260.202 377.818H262.83L269.009 392.911H269.222L275.401 377.818H278.028V396H275.969V382.186H275.791L270.109 396H268.121L262.439 382.186H262.261V396H260.202V377.818ZM282.159 396V382.364H284.254V396H282.159ZM283.224 380.091C282.816 380.091 282.464 379.952 282.168 379.674C281.878 379.395 281.733 379.061 281.733 378.67C281.733 378.28 281.878 377.945 282.168 377.667C282.464 377.389 282.816 377.25 283.224 377.25C283.633 377.25 283.982 377.389 284.272 377.667C284.568 377.945 284.716 378.28 284.716 378.67C284.716 379.061 284.568 379.395 284.272 379.674C283.982 379.952 283.633 380.091 283.224 380.091ZM293.241 396.284C292.104 396.284 291.101 395.997 290.231 395.423C289.361 394.843 288.68 394.026 288.189 392.973C287.698 391.913 287.452 390.661 287.452 389.217C287.452 387.785 287.698 386.542 288.189 385.489C288.68 384.435 289.364 383.621 290.24 383.047C291.116 382.473 292.128 382.186 293.276 382.186C294.164 382.186 294.865 382.334 295.38 382.63C295.901 382.92 296.298 383.251 296.57 383.624C296.848 383.991 297.064 384.293 297.218 384.53H297.395V377.818H299.491V396H297.466V393.905H297.218C297.064 394.153 296.845 394.467 296.561 394.846C296.277 395.219 295.871 395.553 295.345 395.849C294.818 396.139 294.117 396.284 293.241 396.284ZM293.525 394.402C294.365 394.402 295.075 394.183 295.655 393.745C296.235 393.301 296.676 392.689 296.978 391.907C297.28 391.12 297.431 390.212 297.431 389.182C297.431 388.164 297.283 387.273 296.987 386.51C296.691 385.74 296.253 385.142 295.673 384.716C295.093 384.284 294.377 384.068 293.525 384.068C292.637 384.068 291.897 384.296 291.305 384.752C290.719 385.202 290.278 385.814 289.982 386.589C289.692 387.359 289.547 388.223 289.547 389.182C289.547 390.152 289.695 391.034 289.991 391.827C290.293 392.615 290.737 393.242 291.323 393.71C291.915 394.171 292.649 394.402 293.525 394.402ZM305.714 377.818V396H303.619V377.818H305.714ZM313.564 396.32C312.7 396.32 311.916 396.157 311.212 395.831C310.507 395.5 309.948 395.023 309.534 394.402C309.119 393.775 308.912 393.017 308.912 392.129C308.912 391.348 309.066 390.715 309.374 390.229C309.682 389.738 310.093 389.353 310.608 389.075C311.123 388.797 311.691 388.59 312.312 388.454C312.94 388.312 313.57 388.199 314.203 388.116C315.032 388.01 315.704 387.93 316.219 387.877C316.739 387.818 317.118 387.72 317.355 387.584C317.598 387.448 317.719 387.211 317.719 386.874V386.803C317.719 385.927 317.479 385.246 317 384.761C316.526 384.275 315.807 384.033 314.843 384.033C313.842 384.033 313.058 384.252 312.49 384.69C311.922 385.128 311.522 385.595 311.291 386.092L309.303 385.382C309.658 384.554 310.131 383.908 310.723 383.447C311.321 382.979 311.972 382.654 312.676 382.47C313.387 382.281 314.085 382.186 314.772 382.186C315.21 382.186 315.713 382.239 316.281 382.346C316.855 382.446 317.408 382.657 317.941 382.976C318.48 383.296 318.926 383.778 319.282 384.423C319.637 385.068 319.814 385.933 319.814 387.016V396H317.719V394.153H317.612C317.47 394.449 317.234 394.766 316.902 395.103C316.571 395.441 316.13 395.728 315.579 395.964C315.029 396.201 314.357 396.32 313.564 396.32ZM313.884 394.438C314.712 394.438 315.411 394.275 315.979 393.949C316.553 393.624 316.985 393.203 317.275 392.689C317.571 392.174 317.719 391.632 317.719 391.064V389.146C317.63 389.253 317.435 389.35 317.133 389.439C316.837 389.522 316.494 389.596 316.103 389.661C315.719 389.72 315.343 389.774 314.976 389.821C314.615 389.862 314.322 389.898 314.097 389.928C313.552 389.999 313.043 390.114 312.57 390.274C312.102 390.428 311.724 390.661 311.434 390.975C311.149 391.283 311.007 391.703 311.007 392.236C311.007 392.964 311.277 393.514 311.815 393.887C312.36 394.254 313.049 394.438 313.884 394.438ZM325.733 387.797V396H323.638V382.364H325.662V384.494H325.84C326.16 383.802 326.645 383.246 327.296 382.825C327.947 382.399 328.787 382.186 329.817 382.186C330.741 382.186 331.548 382.375 332.241 382.754C332.933 383.127 333.472 383.695 333.857 384.459C334.241 385.216 334.434 386.175 334.434 387.335V396H332.339V387.477C332.339 386.406 332.06 385.571 331.504 384.974C330.948 384.37 330.184 384.068 329.214 384.068C328.545 384.068 327.947 384.213 327.42 384.503C326.899 384.793 326.488 385.216 326.186 385.773C325.884 386.329 325.733 387.004 325.733 387.797ZM343.411 396.284C342.275 396.284 341.272 395.997 340.402 395.423C339.532 394.843 338.851 394.026 338.36 392.973C337.869 391.913 337.623 390.661 337.623 389.217C337.623 387.785 337.869 386.542 338.36 385.489C338.851 384.435 339.535 383.621 340.411 383.047C341.287 382.473 342.299 382.186 343.447 382.186C344.335 382.186 345.036 382.334 345.551 382.63C346.072 382.92 346.468 383.251 346.741 383.624C347.019 383.991 347.235 384.293 347.389 384.53H347.566V377.818H349.661V396H347.637V393.905H347.389C347.235 394.153 347.016 394.467 346.732 394.846C346.448 395.219 346.042 395.553 345.516 395.849C344.989 396.139 344.287 396.284 343.411 396.284ZM343.696 394.402C344.536 394.402 345.246 394.183 345.826 393.745C346.406 393.301 346.847 392.689 347.149 391.907C347.451 391.12 347.602 390.212 347.602 389.182C347.602 388.164 347.454 387.273 347.158 386.51C346.862 385.74 346.424 385.142 345.844 384.716C345.264 384.284 344.548 384.068 343.696 384.068C342.808 384.068 342.068 384.296 341.476 384.752C340.89 385.202 340.449 385.814 340.153 386.589C339.863 387.359 339.718 388.223 339.718 389.182C339.718 390.152 339.866 391.034 340.162 391.827C340.464 392.615 340.908 393.242 341.494 393.71C342.086 394.171 342.82 394.402 343.696 394.402Z" fill="black"/>
<path d="M155.006 269.545V287H152.585L143.713 274.199H143.551V287H140.918V269.545H143.355L152.236 282.364H152.398V269.545H155.006ZM158.847 269.545H162.043L167.6 283.114H167.805L173.362 269.545H176.558V287H174.052V274.369H173.89L168.742 286.974H166.663L161.515 274.361H161.353V287H158.847V269.545Z" fill="white"/>
<path d="M546.08 142.273C546.08 144.136 545.739 145.739 545.057 147.08C544.375 148.415 543.44 149.443 542.253 150.165C541.071 150.881 539.727 151.239 538.222 151.239C536.71 151.239 535.361 150.881 534.173 150.165C532.991 149.443 532.06 148.412 531.378 147.071C530.696 145.73 530.355 144.131 530.355 142.273C530.355 140.409 530.696 138.81 531.378 137.474C532.06 136.134 532.991 135.105 534.173 134.389C535.361 133.668 536.71 133.307 538.222 133.307C539.727 133.307 541.071 133.668 542.253 134.389C543.44 135.105 544.375 136.134 545.057 137.474C545.739 138.81 546.08 140.409 546.08 142.273ZM543.472 142.273C543.472 140.852 543.241 139.656 542.781 138.685C542.327 137.707 541.702 136.969 540.906 136.469C540.116 135.963 539.222 135.71 538.222 135.71C537.216 135.71 536.318 135.963 535.528 136.469C534.739 136.969 534.114 137.707 533.653 138.685C533.199 139.656 532.972 140.852 532.972 142.273C532.972 143.693 533.199 144.892 533.653 145.869C534.114 146.841 534.739 147.58 535.528 148.085C536.318 148.585 537.216 148.835 538.222 148.835C539.222 148.835 540.116 148.585 540.906 148.085C541.702 147.58 542.327 146.841 542.781 145.869C543.241 144.892 543.472 143.693 543.472 142.273ZM549.363 151V133.545H551.996V141.881H552.21L559.531 133.545H562.846L555.806 141.403L562.871 151H559.701L554.059 143.202L551.996 145.571V151H549.363Z" fill="white"/>
<defs>
<filter id="filter0_d_194_80" x="32.5" y="40.5" width="787.076" height="749.438" filterUnits="userSpaceOnUse" color-interpolation-filters="sRGB">
<feFlood flood-opacity="0" result="BackgroundImageFix"/>
<feColorMatrix in="SourceAlpha" type="matrix" values="0 0 0 0 0 0 0 0 0 0 0 0 0 0 0 0 0 0 127 0" result="hardAlpha"/>
<feOffset dx="2" dy="4"/>
<feGaussianBlur stdDeviation="2"/>
<feComposite in2="hardAlpha" operator="out"/>
<feColorMatrix type="matrix" values="0 0 0 0 0 0 0 0 0 0 0 0 0 0 0 0 0 0 0.25 0"/>
<feBlend mode="normal" in2="BackgroundImageFix" result="effect1_dropShadow_194_80"/>
<feBlend mode="normal" in="SourceGraphic" in2="effect1_dropShadow_194_80" result="shape"/>
</filter>
</defs>
</svg>
