<svg width="814" height="752" viewBox="0 0 814 752" fill="none" xmlns="http://www.w3.org/2000/svg">
<path d="M135.065 186.545V204H132.253L124.028 192.111H123.884V204H120.722V186.545H123.551L131.767 198.443H131.92V186.545H135.065ZM138.511 186.545H142.38L147.562 199.193H147.766L152.948 186.545H156.817V204H153.783V192.009H153.621L148.798 203.949H146.531L141.707 191.983H141.545V204H138.511V186.545Z" fill="#FFE587"/>
<path d="M156.722 611.545H160.591L165.773 624.193H165.977L171.159 611.545H175.028V629H171.994V617.009H171.832L167.009 628.949H164.741L159.918 616.983H159.756V629H156.722V611.545ZM184.131 629.256C182.818 629.256 181.685 628.983 180.73 628.438C179.781 627.886 179.051 627.108 178.54 626.102C178.028 625.091 177.773 623.901 177.773 622.531C177.773 621.185 178.028 620.003 178.54 618.986C179.057 617.963 179.778 617.168 180.705 616.599C181.631 616.026 182.719 615.739 183.969 615.739C184.776 615.739 185.537 615.869 186.253 616.131C186.974 616.386 187.611 616.784 188.162 617.324C188.719 617.864 189.156 618.551 189.474 619.386C189.793 620.216 189.952 621.205 189.952 622.352V623.298H179.222V621.219H186.994C186.989 620.628 186.861 620.102 186.611 619.642C186.361 619.176 186.011 618.81 185.562 618.543C185.119 618.276 184.602 618.142 184.011 618.142C183.381 618.142 182.827 618.295 182.349 618.602C181.872 618.903 181.5 619.301 181.233 619.795C180.972 620.284 180.838 620.821 180.832 621.406V623.222C180.832 623.983 180.972 624.636 181.25 625.182C181.528 625.722 181.918 626.136 182.418 626.426C182.918 626.71 183.503 626.852 184.173 626.852C184.622 626.852 185.028 626.79 185.392 626.665C185.756 626.534 186.071 626.344 186.338 626.094C186.605 625.844 186.807 625.534 186.943 625.165L189.824 625.489C189.642 626.25 189.295 626.915 188.784 627.483C188.278 628.045 187.631 628.483 186.841 628.795C186.051 629.102 185.148 629.256 184.131 629.256ZM194.803 615.909L197.445 620.741L200.13 615.909H203.394L199.448 622.455L203.462 629H200.215L197.445 624.287L194.701 629H191.428L195.417 622.455L191.531 615.909H194.803ZM205.781 629V615.909H208.866V629H205.781ZM207.332 614.051C206.843 614.051 206.423 613.889 206.07 613.565C205.718 613.236 205.542 612.841 205.542 612.381C205.542 611.915 205.718 611.52 206.07 611.196C206.423 610.866 206.843 610.702 207.332 610.702C207.826 610.702 208.246 610.866 208.593 611.196C208.945 611.52 209.121 611.915 209.121 612.381C209.121 612.841 208.945 613.236 208.593 613.565C208.246 613.889 207.826 614.051 207.332 614.051ZM217.749 629.256C216.442 629.256 215.32 628.969 214.382 628.395C213.45 627.821 212.732 627.028 212.226 626.017C211.726 625 211.476 623.83 211.476 622.506C211.476 621.176 211.732 620.003 212.243 618.986C212.754 617.963 213.476 617.168 214.408 616.599C215.345 616.026 216.453 615.739 217.732 615.739C218.794 615.739 219.734 615.935 220.553 616.327C221.376 616.713 222.033 617.261 222.521 617.972C223.01 618.676 223.288 619.5 223.357 620.443H220.408C220.288 619.812 220.004 619.287 219.555 618.866C219.112 618.44 218.518 618.227 217.774 618.227C217.143 618.227 216.589 618.398 216.112 618.739C215.635 619.074 215.263 619.557 214.996 620.188C214.734 620.818 214.604 621.574 214.604 622.455C214.604 623.347 214.734 624.114 214.996 624.756C215.257 625.392 215.624 625.884 216.095 626.23C216.572 626.571 217.132 626.741 217.774 626.741C218.229 626.741 218.635 626.656 218.993 626.486C219.357 626.31 219.661 626.057 219.905 625.727C220.149 625.398 220.317 624.997 220.408 624.526H223.357C223.283 625.452 223.01 626.273 222.538 626.989C222.067 627.699 221.425 628.256 220.612 628.659C219.8 629.057 218.845 629.256 217.749 629.256ZM231.6 629.256C230.322 629.256 229.214 628.974 228.276 628.412C227.339 627.849 226.612 627.062 226.094 626.051C225.583 625.04 225.327 623.858 225.327 622.506C225.327 621.153 225.583 619.969 226.094 618.952C226.612 617.935 227.339 617.145 228.276 616.582C229.214 616.02 230.322 615.739 231.6 615.739C232.879 615.739 233.987 616.02 234.924 616.582C235.862 617.145 236.586 617.935 237.097 618.952C237.614 619.969 237.873 621.153 237.873 622.506C237.873 623.858 237.614 625.04 237.097 626.051C236.586 627.062 235.862 627.849 234.924 628.412C233.987 628.974 232.879 629.256 231.6 629.256ZM231.617 626.784C232.31 626.784 232.89 626.594 233.356 626.213C233.822 625.827 234.168 625.31 234.396 624.662C234.629 624.014 234.745 623.293 234.745 622.497C234.745 621.696 234.629 620.972 234.396 620.324C234.168 619.67 233.822 619.151 233.356 618.764C232.89 618.378 232.31 618.185 231.617 618.185C230.907 618.185 230.316 618.378 229.844 618.764C229.379 619.151 229.029 619.67 228.796 620.324C228.569 620.972 228.455 621.696 228.455 622.497C228.455 623.293 228.569 624.014 228.796 624.662C229.029 625.31 229.379 625.827 229.844 626.213C230.316 626.594 230.907 626.784 231.617 626.784Z" fill="#00E45F"/>
<path d="M642.415 620.119C642.273 619.659 642.077 619.247 641.827 618.884C641.582 618.514 641.287 618.199 640.94 617.938C640.599 617.676 640.207 617.48 639.764 617.349C639.321 617.213 638.838 617.145 638.315 617.145C637.378 617.145 636.543 617.381 635.81 617.852C635.077 618.324 634.5 619.017 634.08 619.932C633.665 620.841 633.457 621.949 633.457 623.256C633.457 624.574 633.665 625.69 634.08 626.605C634.494 627.52 635.071 628.216 635.81 628.693C636.548 629.165 637.406 629.401 638.384 629.401C639.27 629.401 640.037 629.23 640.685 628.889C641.338 628.548 641.841 628.065 642.193 627.44C642.546 626.81 642.722 626.071 642.722 625.224L643.438 625.335H638.699V622.864H645.781V624.96C645.781 626.455 645.463 627.747 644.827 628.838C644.19 629.929 643.315 630.77 642.202 631.361C641.088 631.946 639.81 632.239 638.367 632.239C636.759 632.239 635.347 631.878 634.131 631.156C632.921 630.429 631.974 629.398 631.293 628.062C630.617 626.722 630.278 625.131 630.278 623.29C630.278 621.881 630.477 620.622 630.875 619.514C631.278 618.406 631.841 617.466 632.563 616.693C633.284 615.915 634.131 615.324 635.102 614.92C636.074 614.511 637.131 614.307 638.273 614.307C639.239 614.307 640.139 614.449 640.974 614.733C641.81 615.011 642.551 615.409 643.199 615.926C643.852 616.443 644.389 617.057 644.81 617.767C645.23 618.477 645.506 619.261 645.636 620.119H642.415ZM657.046 626.494V618.909H660.131V632H657.14V629.673H657.004C656.708 630.406 656.222 631.006 655.546 631.472C654.876 631.937 654.049 632.17 653.066 632.17C652.208 632.17 651.45 631.98 650.791 631.599C650.137 631.213 649.626 630.653 649.256 629.92C648.887 629.182 648.702 628.29 648.702 627.244V618.909H651.788V626.767C651.788 627.597 652.015 628.256 652.47 628.744C652.924 629.233 653.521 629.477 654.259 629.477C654.714 629.477 655.154 629.366 655.58 629.145C656.006 628.923 656.356 628.594 656.629 628.156C656.907 627.713 657.046 627.159 657.046 626.494ZM666.389 614.545V632H663.304V614.545H666.389ZM676.193 618.909V621.295H668.454V618.909H676.193ZM670.389 632V617.673C670.389 616.793 670.57 616.06 670.934 615.474C671.303 614.889 671.798 614.452 672.417 614.162C673.036 613.872 673.724 613.727 674.479 613.727C675.014 613.727 675.488 613.77 675.903 613.855C676.318 613.94 676.624 614.017 676.823 614.085L676.21 616.472C676.079 616.432 675.914 616.392 675.715 616.352C675.516 616.307 675.295 616.284 675.05 616.284C674.477 616.284 674.07 616.423 673.832 616.702C673.599 616.974 673.482 617.366 673.482 617.878V632H670.389ZM690.272 632.256C688.994 632.256 687.886 631.974 686.948 631.412C686.011 630.849 685.283 630.062 684.766 629.051C684.255 628.04 683.999 626.858 683.999 625.506C683.999 624.153 684.255 622.969 684.766 621.952C685.283 620.935 686.011 620.145 686.948 619.582C687.886 619.02 688.994 618.739 690.272 618.739C691.55 618.739 692.658 619.02 693.596 619.582C694.533 620.145 695.258 620.935 695.769 621.952C696.286 622.969 696.545 624.153 696.545 625.506C696.545 626.858 696.286 628.04 695.769 629.051C695.258 630.062 694.533 630.849 693.596 631.412C692.658 631.974 691.55 632.256 690.272 632.256ZM690.289 629.784C690.982 629.784 691.562 629.594 692.028 629.213C692.494 628.827 692.84 628.31 693.068 627.662C693.3 627.014 693.417 626.293 693.417 625.497C693.417 624.696 693.3 623.972 693.068 623.324C692.84 622.67 692.494 622.151 692.028 621.764C691.562 621.378 690.982 621.185 690.289 621.185C689.579 621.185 688.988 621.378 688.516 621.764C688.05 622.151 687.701 622.67 687.468 623.324C687.241 623.972 687.127 624.696 687.127 625.497C687.127 626.293 687.241 627.014 687.468 627.662C687.701 628.31 688.05 628.827 688.516 629.213C688.988 629.594 689.579 629.784 690.289 629.784ZM705.794 618.909V621.295H698.055V618.909H705.794ZM699.99 632V617.673C699.99 616.793 700.172 616.06 700.536 615.474C700.905 614.889 701.399 614.452 702.019 614.162C702.638 613.872 703.325 613.727 704.081 613.727C704.615 613.727 705.09 613.77 705.504 613.855C705.919 613.94 706.226 614.017 706.425 614.085L705.811 616.472C705.68 616.432 705.516 616.392 705.317 616.352C705.118 616.307 704.896 616.284 704.652 616.284C704.078 616.284 703.672 616.423 703.433 616.702C703.2 616.974 703.084 617.366 703.084 617.878V632H699.99ZM630.722 643.545H634.591L639.773 656.193H639.977L645.159 643.545H649.028V661H645.994V649.009H645.832L641.009 660.949H638.742L633.918 648.983H633.756V661H630.722V643.545ZM658.131 661.256C656.818 661.256 655.685 660.983 654.73 660.438C653.781 659.886 653.051 659.108 652.54 658.102C652.028 657.091 651.773 655.901 651.773 654.531C651.773 653.185 652.028 652.003 652.54 650.986C653.057 649.963 653.778 649.168 654.705 648.599C655.631 648.026 656.719 647.739 657.969 647.739C658.776 647.739 659.537 647.869 660.253 648.131C660.974 648.386 661.611 648.784 662.162 649.324C662.719 649.864 663.156 650.551 663.474 651.386C663.793 652.216 663.952 653.205 663.952 654.352V655.298H653.222V653.219H660.994C660.989 652.628 660.861 652.102 660.611 651.642C660.361 651.176 660.011 650.81 659.563 650.543C659.119 650.276 658.602 650.142 658.011 650.142C657.381 650.142 656.827 650.295 656.349 650.602C655.872 650.903 655.5 651.301 655.233 651.795C654.972 652.284 654.838 652.821 654.832 653.406V655.222C654.832 655.983 654.972 656.636 655.25 657.182C655.528 657.722 655.918 658.136 656.418 658.426C656.918 658.71 657.503 658.852 658.173 658.852C658.622 658.852 659.028 658.79 659.392 658.665C659.756 658.534 660.071 658.344 660.338 658.094C660.605 657.844 660.807 657.534 660.943 657.165L663.824 657.489C663.642 658.25 663.296 658.915 662.784 659.483C662.278 660.045 661.631 660.483 660.841 660.795C660.051 661.102 659.148 661.256 658.131 661.256ZM668.803 647.909L671.445 652.741L674.13 647.909H677.394L673.448 654.455L677.462 661H674.215L671.445 656.287L668.701 661H665.428L669.417 654.455L665.531 647.909H668.803ZM679.781 661V647.909H682.866V661H679.781ZM681.332 646.051C680.843 646.051 680.423 645.889 680.07 645.565C679.718 645.236 679.542 644.841 679.542 644.381C679.542 643.915 679.718 643.52 680.07 643.196C680.423 642.866 680.843 642.702 681.332 642.702C681.826 642.702 682.247 642.866 682.593 643.196C682.945 643.52 683.122 643.915 683.122 644.381C683.122 644.841 682.945 645.236 682.593 645.565C682.247 645.889 681.826 646.051 681.332 646.051ZM691.749 661.256C690.442 661.256 689.32 660.969 688.382 660.395C687.45 659.821 686.732 659.028 686.226 658.017C685.726 657 685.476 655.83 685.476 654.506C685.476 653.176 685.732 652.003 686.243 650.986C686.754 649.963 687.476 649.168 688.408 648.599C689.345 648.026 690.453 647.739 691.732 647.739C692.794 647.739 693.734 647.935 694.553 648.327C695.376 648.713 696.033 649.261 696.521 649.972C697.01 650.676 697.288 651.5 697.357 652.443H694.408C694.288 651.812 694.004 651.287 693.555 650.866C693.112 650.44 692.519 650.227 691.774 650.227C691.144 650.227 690.59 650.398 690.112 650.739C689.635 651.074 689.263 651.557 688.996 652.188C688.734 652.818 688.604 653.574 688.604 654.455C688.604 655.347 688.734 656.114 688.996 656.756C689.257 657.392 689.624 657.884 690.095 658.23C690.573 658.571 691.132 658.741 691.774 658.741C692.229 658.741 692.635 658.656 692.993 658.486C693.357 658.31 693.661 658.057 693.905 657.727C694.149 657.398 694.317 656.997 694.408 656.526H697.357C697.283 657.452 697.01 658.273 696.538 658.989C696.067 659.699 695.425 660.256 694.612 660.659C693.8 661.057 692.845 661.256 691.749 661.256ZM705.6 661.256C704.322 661.256 703.214 660.974 702.276 660.412C701.339 659.849 700.612 659.062 700.095 658.051C699.583 657.04 699.327 655.858 699.327 654.506C699.327 653.153 699.583 651.969 700.095 650.952C700.612 649.935 701.339 649.145 702.276 648.582C703.214 648.02 704.322 647.739 705.6 647.739C706.879 647.739 707.987 648.02 708.924 648.582C709.862 649.145 710.586 649.935 711.097 650.952C711.614 651.969 711.873 653.153 711.873 654.506C711.873 655.858 711.614 657.04 711.097 658.051C710.586 659.062 709.862 659.849 708.924 660.412C707.987 660.974 706.879 661.256 705.6 661.256ZM705.617 658.784C706.31 658.784 706.89 658.594 707.356 658.213C707.822 657.827 708.168 657.31 708.396 656.662C708.629 656.014 708.745 655.293 708.745 654.497C708.745 653.696 708.629 652.972 708.396 652.324C708.168 651.67 707.822 651.151 707.356 650.764C706.89 650.378 706.31 650.185 705.617 650.185C704.907 650.185 704.316 650.378 703.845 650.764C703.379 651.151 703.029 651.67 702.796 652.324C702.569 652.972 702.455 653.696 702.455 654.497C702.455 655.293 702.569 656.014 702.796 656.662C703.029 657.31 703.379 657.827 703.845 658.213C704.316 658.594 704.907 658.784 705.617 658.784Z" fill="#00D9E4"/>
<path d="M544.318 112.273C544.318 114.153 543.966 115.764 543.261 117.105C542.563 118.44 541.608 119.463 540.398 120.173C539.193 120.884 537.827 121.239 536.298 121.239C534.77 121.239 533.401 120.884 532.19 120.173C530.986 119.457 530.031 118.432 529.327 117.097C528.628 115.756 528.278 114.148 528.278 112.273C528.278 110.392 528.628 108.784 529.327 107.449C530.031 106.108 530.986 105.082 532.19 104.372C533.401 103.662 534.77 103.307 536.298 103.307C537.827 103.307 539.193 103.662 540.398 104.372C541.608 105.082 542.563 106.108 543.261 107.449C543.966 108.784 544.318 110.392 544.318 112.273ZM541.139 112.273C541.139 110.949 540.932 109.832 540.517 108.923C540.108 108.009 539.54 107.318 538.812 106.852C538.085 106.381 537.247 106.145 536.298 106.145C535.349 106.145 534.511 106.381 533.784 106.852C533.057 107.318 532.486 108.009 532.071 108.923C531.662 109.832 531.457 110.949 531.457 112.273C531.457 113.597 531.662 114.716 532.071 115.631C532.486 116.54 533.057 117.23 533.784 117.702C534.511 118.168 535.349 118.401 536.298 118.401C537.247 118.401 538.085 118.168 538.812 117.702C539.54 117.23 540.108 116.54 540.517 115.631C540.932 114.716 541.139 113.597 541.139 112.273ZM547.308 121V103.545H550.469V111.565H550.683L557.492 103.545H561.353L554.603 111.378L561.413 121H557.612L552.404 113.517L550.469 115.801V121H547.308Z" fill="#FFE587"/>
<path d="M771.963 209H768.588L774.733 191.545H778.636L784.79 209H781.415L776.753 195.125H776.617L771.963 209ZM772.074 202.156H781.278V204.696H772.074V202.156ZM787.089 209V191.545H793.634C794.975 191.545 796.1 191.778 797.009 192.244C797.924 192.71 798.614 193.364 799.08 194.205C799.552 195.04 799.788 196.014 799.788 197.128C799.788 198.247 799.549 199.219 799.072 200.043C798.6 200.861 797.904 201.494 796.984 201.943C796.063 202.386 794.933 202.608 793.592 202.608H788.93V199.983H793.166C793.95 199.983 794.592 199.875 795.092 199.659C795.592 199.437 795.961 199.116 796.2 198.696C796.444 198.27 796.566 197.747 796.566 197.128C796.566 196.509 796.444 195.98 796.2 195.543C795.955 195.099 795.583 194.764 795.083 194.537C794.583 194.304 793.938 194.188 793.148 194.188H790.251V209H787.089ZM796.106 201.091L800.427 209H796.898L792.654 201.091H796.106Z" fill="#FFE587"/>
<path d="M774.722 330V312.545H777.884V327.349H785.571V330H774.722ZM791.213 330H787.838L793.983 312.545H797.886L804.04 330H800.665L796.003 316.125H795.867L791.213 330ZM791.324 323.156H800.528V325.696H791.324V323.156Z" fill="#FFE587"/>
<line x1="735" y1="187" x2="735" y2="210" stroke="#FFE587" stroke-width="2"/>
<line x1="785" y1="253" x2="762" y2="253" stroke="#FFE587" stroke-width="2"/>
<line x1="793.233" y1="479.972" x2="773.233" y2="484.772" stroke="#FFE587" stroke-width="2"/>
<line x1="21" y1="339" x2="-8.74228e-08" y2="339" stroke="#00E45F" stroke-width="2"/>
<path d="M773.5 339L761 324.5V216L759.5 213L756.5 214.545L751.5 213L742.937 214.545L735.5 209.5L718.583 202.381L696.934 186.162L690.5 186.5L688 191.5L680.697 192.92L674 191.568L671.226 187.514L660 190L656.343 194.271L650.5 191.5L646 192.92L638.5 194.271L634.5 199H628L624 204.5L620.5 199H615.5L609.5 194.271V191.5L606.5 189.5L602 194L593.5 192.5L591.5 186L587 186.5L586.5 191.5L580.5 194.271L581 202H576.513L574 198L576.513 192.92L574 190L566 193.5L560.5 196L557.5 189.5L551.5 190L551 185.5L547.173 183.459L537.701 191.568L529.5 191.5L529 183.5L521.038 182V172.647L514.273 173.998L506.155 171.295L499.39 178.053L492.624 171.295L481.8 172.647L475.5 172L470.976 167.24L456.092 166.5V160.483L453.386 155.077L446.621 151.022L443 156.428L435 153.5L426.5 156.428L408.736 137.443V1H229.192L227.428 325.372C157.07 324.921 15 324.033 15 324.083V332.129L23.1183 340.239L26 341L33.5 345L42 362.5L55.5 367.5L67.5 382.5L77.5 388.5L80.5 395L90 403L95 407L100 408L117 420.5L123.5 437L130.009 449.714L133 470.5L141.5 486.5L147.5 491.5L156 495.667L161.5 503L168 507.831L185 513L193 520H199L202.5 525L214.692 531.005L224.5 532.159L226 527L232 518L239 514.5L236.899 507.831L240.958 505.128L242.311 495.667L247 488L249.077 480.8L261 477L266.666 479.448L272 470.5L288 477L292 475L295.5 477L299 475L312.5 479.448L314.5 478.097L318 475V479.448L320.5 477L323 479.448H325.5L327.5 485.5L331 486.5V491.5L335 488V495.667L341 498.5L346 500L351 506.5L362.5 513.5V518.643L369 523.5L371 536L376 542L379 550.5L387 565L391 579L395.5 581.5L397.323 584.407L403.5 588L408.5 597L412 598.5V601.5L414.5 603.5L413.5 606L417.5 612L420 613.5L424 619L435.5 624L437.15 644L441.5 648L443 657L441.5 660.5V664H444.5L445.5 668.5L451.5 673.5L456 683L457.5 694L462 698.5L460.5 703L469 704L471 706H474H480L487.5 715L490.5 713.266L498 717L501 716L503 719.5H507L508 723L512 724.5L524 727.5L535.922 725.703L548 729.485L560.5 741L562 739L564.5 741L565.5 734L578 733V729.485L568.395 723L567.042 713.266L562 702L560.5 687.5L556.5 679L554.864 676.5V666L559.5 664L560.5 649H558.5L554.864 650L549.5 648V646L557.57 640.5V646L561.63 644L562.983 641.5L565.689 636.5L567.042 631L569.748 622.712V619L561.63 612L557.57 606H565.689L572 609H578L579.5 604H582L585 595.681V591L574 594L576.513 590L585 584L586 588.5L590 590L592.75 588.5L598.5 583V574L596.5 570.5L604.5 571.5L605.5 574H611.5L620 569.5V571.5L617.5 575.408L611.5 578.5L607.5 582L603 584L598.5 588.5L594.5 591L588.69 595.681L586 602L587.5 604L592.75 599.5L594.5 595.681L600.868 591L605.5 587L610 582L621.163 575.408L623 567.5L616.5 561.5L608.986 556.5L607.5 549.5L611.5 550.5V555.135L621.163 556.5L623 551.5L628 555.135L633 551.5L632 557.838L635 559.189L642 555.135L644.5 557.838H650V551.5L656.5 549.5L663 546.5H669L675.285 543L685 537.5L692.5 531.5L697.5 526.5L696 523.5V520L699.5 517L704.5 514.588L709 510.5L713.17 505L710.5 497.5L704.5 493.5L706.5 492L707.758 485L712 488.5L714.523 487.5L713.17 482.5L719.936 477.5L723.5 481.5L717.23 491L719.936 494.315L723.5 493.5L726.701 493H731L732.5 494.315L735 495.667H738.5L747.5 491L760.5 485L773.5 484L768.5 476L780.5 456.5L782 453V445.5L778.5 438.5L780.5 431.5V425L790 406V402.5L791 398.5L790 394L793 391L790 382.5L784 373V367.5L780.5 359L773.5 351.5L775 344L773.5 339Z" fill="#97DCFF" stroke="white" stroke-width="2"/>
<path d="M578 614.5L581 610L583 608.5H585L583 613L579.5 616.5L576.5 621.5L573.5 629L570.5 635.5L568.5 642.5L566.5 650.5L564.5 649L565.5 640.5L570.5 629L573.5 623.5L576.5 618.5L578 614.5Z" fill="#97DCFF" stroke="white" stroke-width="2"/>
<circle cx="681.511" cy="477.511" r="9.01136" fill="#FFE587" stroke="black"/>
<path d="M651.202 460V441.818H653.403V449.915H663.098V441.818H665.3V460H663.098V451.868H653.403V460H651.202ZM674.963 460.284C673.732 460.284 672.652 459.991 671.723 459.405C670.8 458.819 670.077 458 669.557 456.946C669.042 455.893 668.784 454.661 668.784 453.253C668.784 451.832 669.042 450.592 669.557 449.533C670.077 448.474 670.8 447.651 671.723 447.065C672.652 446.479 673.732 446.186 674.963 446.186C676.194 446.186 677.271 446.479 678.195 447.065C679.124 447.651 679.846 448.474 680.361 449.533C680.882 450.592 681.142 451.832 681.142 453.253C681.142 454.661 680.882 455.893 680.361 456.946C679.846 458 679.124 458.819 678.195 459.405C677.271 459.991 676.194 460.284 674.963 460.284ZM674.963 458.402C675.898 458.402 676.668 458.162 677.271 457.683C677.875 457.203 678.322 456.573 678.612 455.792C678.902 455.011 679.047 454.164 679.047 453.253C679.047 452.341 678.902 451.492 678.612 450.705C678.322 449.918 677.875 449.281 677.271 448.796C676.668 448.311 675.898 448.068 674.963 448.068C674.028 448.068 673.259 448.311 672.655 448.796C672.051 449.281 671.604 449.918 671.314 450.705C671.024 451.492 670.879 452.341 670.879 453.253C670.879 454.164 671.024 455.011 671.314 455.792C671.604 456.573 672.051 457.203 672.655 457.683C673.259 458.162 674.028 458.402 674.963 458.402ZM692.934 454.425V446.364H695.029V460H692.934V457.692H692.792C692.473 458.384 691.975 458.973 691.301 459.458C690.626 459.938 689.774 460.178 688.744 460.178C687.892 460.178 687.134 459.991 686.471 459.618C685.808 459.239 685.287 458.671 684.909 457.914C684.53 457.15 684.34 456.188 684.34 455.028V446.364H686.436V454.886C686.436 455.881 686.714 456.674 687.27 457.266C687.832 457.857 688.549 458.153 689.419 458.153C689.939 458.153 690.469 458.02 691.008 457.754C691.552 457.488 692.008 457.079 692.375 456.529C692.748 455.978 692.934 455.277 692.934 454.425ZM708.526 449.418L706.644 449.95C706.525 449.637 706.351 449.332 706.12 449.036C705.895 448.734 705.587 448.485 705.197 448.29C704.806 448.095 704.306 447.997 703.696 447.997C702.862 447.997 702.166 448.19 701.61 448.574C701.06 448.953 700.784 449.435 700.784 450.021C700.784 450.542 700.974 450.953 701.353 451.255C701.731 451.557 702.323 451.809 703.128 452.01L705.152 452.507C706.372 452.803 707.28 453.256 707.878 453.865C708.476 454.469 708.775 455.247 708.775 456.2C708.775 456.982 708.55 457.68 708.1 458.295C707.656 458.911 707.034 459.396 706.235 459.751C705.436 460.107 704.507 460.284 703.448 460.284C702.057 460.284 700.906 459.982 699.994 459.379C699.083 458.775 698.506 457.893 698.263 456.733L700.252 456.236C700.441 456.97 700.799 457.52 701.326 457.887C701.859 458.254 702.554 458.438 703.412 458.438C704.389 458.438 705.164 458.23 705.738 457.816C706.318 457.396 706.608 456.893 706.608 456.307C706.608 455.833 706.443 455.437 706.111 455.117C705.78 454.792 705.271 454.549 704.584 454.389L702.311 453.857C701.063 453.561 700.145 453.102 699.559 452.48C698.979 451.853 698.689 451.069 698.689 450.128C698.689 449.358 698.905 448.678 699.337 448.086C699.775 447.494 700.37 447.029 701.122 446.692C701.879 446.355 702.738 446.186 703.696 446.186C705.046 446.186 706.105 446.482 706.875 447.074C707.65 447.666 708.2 448.447 708.526 449.418ZM717.859 446.364V448.139H710.792V446.364H717.859ZM712.852 443.097H714.947V456.094C714.947 456.686 715.033 457.129 715.204 457.425C715.382 457.715 715.607 457.911 715.879 458.011C716.157 458.106 716.45 458.153 716.758 458.153C716.989 458.153 717.178 458.142 717.326 458.118C717.474 458.088 717.592 458.065 717.681 458.047L718.107 459.929C717.965 459.982 717.767 460.036 717.513 460.089C717.258 460.148 716.935 460.178 716.545 460.178C715.953 460.178 715.373 460.05 714.805 459.796C714.243 459.541 713.775 459.154 713.402 458.633C713.035 458.112 712.852 457.455 712.852 456.662V443.097ZM726.404 460.284C725.173 460.284 724.092 459.991 723.163 459.405C722.24 458.819 721.518 458 720.997 456.946C720.482 455.893 720.225 454.661 720.225 453.253C720.225 451.832 720.482 450.592 720.997 449.533C721.518 448.474 722.24 447.651 723.163 447.065C724.092 446.479 725.173 446.186 726.404 446.186C727.635 446.186 728.712 446.479 729.635 447.065C730.564 447.651 731.286 448.474 731.801 449.533C732.322 450.592 732.583 451.832 732.583 453.253C732.583 454.661 732.322 455.893 731.801 456.946C731.286 458 730.564 458.819 729.635 459.405C728.712 459.991 727.635 460.284 726.404 460.284ZM726.404 458.402C727.339 458.402 728.108 458.162 728.712 457.683C729.316 457.203 729.762 456.573 730.052 455.792C730.342 455.011 730.487 454.164 730.487 453.253C730.487 452.341 730.342 451.492 730.052 450.705C729.762 449.918 729.316 449.281 728.712 448.796C728.108 448.311 727.339 448.068 726.404 448.068C725.469 448.068 724.699 448.311 724.095 448.796C723.492 449.281 723.045 449.918 722.755 450.705C722.465 451.492 722.32 452.341 722.32 453.253C722.32 454.164 722.465 455.011 722.755 455.792C723.045 456.573 723.492 457.203 724.095 457.683C724.699 458.162 725.469 458.402 726.404 458.402ZM737.876 451.797V460H735.781V446.364H737.805V448.494H737.983C738.302 447.802 738.788 447.246 739.439 446.825C740.09 446.399 740.93 446.186 741.96 446.186C742.883 446.186 743.691 446.375 744.384 446.754C745.076 447.127 745.615 447.695 745.999 448.459C746.384 449.216 746.576 450.175 746.576 451.335V460H744.481V451.477C744.481 450.406 744.203 449.571 743.647 448.974C743.09 448.37 742.327 448.068 741.356 448.068C740.687 448.068 740.09 448.213 739.563 448.503C739.042 448.793 738.631 449.216 738.329 449.773C738.027 450.329 737.876 451.004 737.876 451.797Z" fill="black"/>
<circle cx="596.511" cy="269.511" r="9.01136" fill="#FFE587" stroke="black"/>
<path d="M589.812 304H584.202V285.818H590.061C591.825 285.818 593.334 286.182 594.589 286.91C595.844 287.632 596.805 288.671 597.474 290.026C598.143 291.376 598.477 292.991 598.477 294.874C598.477 296.768 598.14 298.398 597.465 299.765C596.79 301.127 595.808 302.174 594.518 302.908C593.228 303.636 591.659 304 589.812 304ZM586.403 302.047H589.67C591.174 302.047 592.42 301.757 593.408 301.177C594.396 300.597 595.133 299.771 595.619 298.7C596.104 297.629 596.347 296.353 596.347 294.874C596.347 293.406 596.107 292.142 595.627 291.083C595.148 290.017 594.432 289.201 593.479 288.632C592.526 288.058 591.339 287.771 589.919 287.771H586.403V302.047ZM605.899 304.32C605.035 304.32 604.251 304.157 603.547 303.831C602.842 303.5 602.283 303.023 601.869 302.402C601.454 301.775 601.247 301.017 601.247 300.129C601.247 299.348 601.401 298.715 601.709 298.229C602.017 297.738 602.428 297.353 602.943 297.075C603.458 296.797 604.026 296.59 604.647 296.454C605.275 296.312 605.905 296.199 606.538 296.116C607.367 296.01 608.039 295.93 608.554 295.877C609.074 295.818 609.453 295.72 609.69 295.584C609.933 295.448 610.054 295.211 610.054 294.874V294.803C610.054 293.927 609.814 293.246 609.335 292.761C608.861 292.275 608.142 292.033 607.178 292.033C606.177 292.033 605.393 292.252 604.825 292.69C604.257 293.128 603.857 293.595 603.626 294.092L601.638 293.382C601.993 292.554 602.466 291.908 603.058 291.447C603.656 290.979 604.307 290.654 605.011 290.47C605.722 290.281 606.42 290.186 607.107 290.186C607.545 290.186 608.048 290.239 608.616 290.346C609.19 290.446 609.743 290.657 610.276 290.976C610.815 291.296 611.261 291.778 611.616 292.423C611.972 293.068 612.149 293.933 612.149 295.016V304H610.054V302.153H609.947C609.805 302.449 609.569 302.766 609.237 303.103C608.906 303.441 608.465 303.728 607.914 303.964C607.364 304.201 606.692 304.32 605.899 304.32ZM606.219 302.438C607.047 302.438 607.746 302.275 608.314 301.949C608.888 301.624 609.32 301.203 609.61 300.689C609.906 300.174 610.054 299.632 610.054 299.064V297.146C609.965 297.253 609.77 297.35 609.468 297.439C609.172 297.522 608.829 297.596 608.438 297.661C608.054 297.72 607.678 297.774 607.311 297.821C606.95 297.862 606.657 297.898 606.432 297.928C605.887 297.999 605.378 298.114 604.905 298.274C604.437 298.428 604.058 298.661 603.768 298.975C603.484 299.283 603.342 299.703 603.342 300.236C603.342 300.964 603.612 301.514 604.15 301.887C604.695 302.254 605.384 302.438 606.219 302.438ZM618.068 285.818V304H615.973V285.818H618.068ZM624.001 285.818V304H621.906V285.818H624.001ZM631.851 304.32C630.987 304.32 630.203 304.157 629.499 303.831C628.794 303.5 628.235 303.023 627.821 302.402C627.406 301.775 627.199 301.017 627.199 300.129C627.199 299.348 627.353 298.715 627.661 298.229C627.969 297.738 628.38 297.353 628.895 297.075C629.41 296.797 629.978 296.59 630.6 296.454C631.227 296.312 631.857 296.199 632.491 296.116C633.319 296.01 633.991 295.93 634.506 295.877C635.027 295.818 635.405 295.72 635.642 295.584C635.885 295.448 636.006 295.211 636.006 294.874V294.803C636.006 293.927 635.766 293.246 635.287 292.761C634.814 292.275 634.094 292.033 633.13 292.033C632.129 292.033 631.345 292.252 630.777 292.69C630.209 293.128 629.809 293.595 629.579 294.092L627.59 293.382C627.945 292.554 628.419 291.908 629.01 291.447C629.608 290.979 630.259 290.654 630.964 290.47C631.674 290.281 632.372 290.186 633.059 290.186C633.497 290.186 634 290.239 634.568 290.346C635.142 290.446 635.695 290.657 636.228 290.976C636.767 291.296 637.214 291.778 637.569 292.423C637.924 293.068 638.101 293.933 638.101 295.016V304H636.006V302.153H635.9C635.758 302.449 635.521 302.766 635.189 303.103C634.858 303.441 634.417 303.728 633.867 303.964C633.316 304.201 632.644 304.32 631.851 304.32ZM632.171 302.438C632.999 302.438 633.698 302.275 634.266 301.949C634.84 301.624 635.272 301.203 635.562 300.689C635.858 300.174 636.006 299.632 636.006 299.064V297.146C635.917 297.253 635.722 297.35 635.42 297.439C635.124 297.522 634.781 297.596 634.39 297.661C634.006 297.72 633.63 297.774 633.263 297.821C632.902 297.862 632.609 297.898 632.384 297.928C631.839 297.999 631.33 298.114 630.857 298.274C630.389 298.428 630.011 298.661 629.721 298.975C629.437 299.283 629.294 299.703 629.294 300.236C629.294 300.964 629.564 301.514 630.102 301.887C630.647 302.254 631.336 302.438 632.171 302.438ZM651.585 293.418L649.702 293.95C649.584 293.637 649.409 293.332 649.179 293.036C648.954 292.734 648.646 292.485 648.255 292.29C647.865 292.095 647.365 291.997 646.755 291.997C645.92 291.997 645.225 292.19 644.669 292.574C644.118 292.953 643.843 293.435 643.843 294.021C643.843 294.542 644.032 294.953 644.411 295.255C644.79 295.557 645.382 295.809 646.187 296.01L648.211 296.507C649.43 296.803 650.339 297.256 650.936 297.865C651.534 298.469 651.833 299.247 651.833 300.2C651.833 300.982 651.608 301.68 651.158 302.295C650.714 302.911 650.093 303.396 649.294 303.751C648.495 304.107 647.566 304.284 646.506 304.284C645.116 304.284 643.964 303.982 643.053 303.379C642.141 302.775 641.564 301.893 641.322 300.733L643.31 300.236C643.5 300.97 643.858 301.52 644.385 301.887C644.917 302.254 645.613 302.438 646.471 302.438C647.447 302.438 648.223 302.23 648.797 301.816C649.377 301.396 649.667 300.893 649.667 300.307C649.667 299.833 649.501 299.437 649.17 299.117C648.838 298.792 648.329 298.549 647.643 298.389L645.37 297.857C644.121 297.561 643.204 297.102 642.618 296.48C642.038 295.853 641.748 295.069 641.748 294.128C641.748 293.358 641.964 292.678 642.396 292.086C642.834 291.494 643.429 291.029 644.18 290.692C644.938 290.355 645.796 290.186 646.755 290.186C648.104 290.186 649.164 290.482 649.933 291.074C650.709 291.666 651.259 292.447 651.585 293.418Z" fill="black"/>
<circle cx="496.511" cy="502.511" r="9.01136" fill="#FFE587" stroke="black"/>
<path d="M462.145 527.364C462.038 526.464 461.606 525.766 460.849 525.268C460.091 524.771 459.162 524.523 458.061 524.523C457.256 524.523 456.552 524.653 455.948 524.913C455.35 525.174 454.883 525.532 454.545 525.988C454.214 526.443 454.048 526.961 454.048 527.541C454.048 528.027 454.164 528.444 454.395 528.793C454.631 529.136 454.933 529.423 455.3 529.654C455.667 529.879 456.052 530.065 456.454 530.213C456.857 530.355 457.227 530.471 457.564 530.56L459.411 531.057C459.884 531.181 460.411 531.353 460.991 531.572C461.577 531.791 462.136 532.09 462.669 532.468C463.207 532.841 463.651 533.321 464 533.907C464.35 534.493 464.524 535.212 464.524 536.064C464.524 537.046 464.267 537.934 463.752 538.727C463.243 539.52 462.497 540.151 461.515 540.618C460.538 541.086 459.351 541.32 457.955 541.32C456.652 541.32 455.525 541.109 454.572 540.689C453.625 540.269 452.879 539.683 452.335 538.931C451.796 538.18 451.491 537.307 451.42 536.312H453.693C453.752 536.999 453.983 537.567 454.386 538.017C454.794 538.461 455.309 538.792 455.93 539.011C456.558 539.224 457.232 539.331 457.955 539.331C458.795 539.331 459.55 539.195 460.218 538.923C460.887 538.644 461.417 538.26 461.808 537.768C462.198 537.271 462.393 536.691 462.393 536.028C462.393 535.425 462.225 534.933 461.887 534.555C461.55 534.176 461.106 533.868 460.556 533.631C460.005 533.395 459.411 533.187 458.771 533.01L456.534 532.371C455.114 531.962 453.989 531.379 453.161 530.622C452.332 529.864 451.918 528.873 451.918 527.648C451.918 526.63 452.193 525.742 452.743 524.984C453.3 524.221 454.045 523.629 454.98 523.209C455.922 522.783 456.972 522.57 458.132 522.57C459.304 522.57 460.346 522.78 461.257 523.2C462.169 523.614 462.891 524.182 463.423 524.904C463.962 525.627 464.246 526.446 464.276 527.364H462.145ZM471.873 541.32C471.009 541.32 470.224 541.157 469.52 540.831C468.816 540.5 468.257 540.023 467.842 539.402C467.428 538.775 467.221 538.017 467.221 537.129C467.221 536.348 467.375 535.715 467.682 535.229C467.99 534.738 468.402 534.353 468.916 534.075C469.431 533.797 470 533.59 470.621 533.454C471.248 533.312 471.879 533.199 472.512 533.116C473.341 533.01 474.012 532.93 474.527 532.877C475.048 532.818 475.427 532.72 475.664 532.584C475.906 532.448 476.028 532.211 476.028 531.874V531.803C476.028 530.927 475.788 530.246 475.309 529.761C474.835 529.275 474.116 529.033 473.151 529.033C472.151 529.033 471.367 529.252 470.799 529.69C470.23 530.128 469.831 530.595 469.6 531.092L467.611 530.382C467.967 529.554 468.44 528.908 469.032 528.447C469.63 527.979 470.281 527.654 470.985 527.47C471.695 527.281 472.394 527.186 473.08 527.186C473.518 527.186 474.021 527.239 474.589 527.346C475.164 527.446 475.717 527.657 476.25 527.976C476.788 528.296 477.235 528.778 477.59 529.423C477.945 530.068 478.123 530.933 478.123 532.016V541H476.028V539.153H475.921C475.779 539.449 475.542 539.766 475.211 540.103C474.879 540.441 474.438 540.728 473.888 540.964C473.338 541.201 472.666 541.32 471.873 541.32ZM472.192 539.438C473.021 539.438 473.719 539.275 474.288 538.949C474.862 538.624 475.294 538.203 475.584 537.689C475.88 537.174 476.028 536.632 476.028 536.064V534.146C475.939 534.253 475.744 534.35 475.442 534.439C475.146 534.522 474.802 534.596 474.412 534.661C474.027 534.72 473.651 534.774 473.284 534.821C472.923 534.862 472.63 534.898 472.405 534.928C471.861 534.999 471.352 535.114 470.878 535.274C470.411 535.428 470.032 535.661 469.742 535.975C469.458 536.283 469.316 536.703 469.316 537.236C469.316 537.964 469.585 538.514 470.124 538.887C470.668 539.254 471.358 539.438 472.192 539.438ZM484.042 532.797V541H481.947V527.364H483.971V529.494H484.149C484.468 528.802 484.954 528.246 485.605 527.825C486.256 527.399 487.096 527.186 488.126 527.186C489.049 527.186 489.857 527.375 490.55 527.754C491.242 528.127 491.781 528.695 492.165 529.459C492.55 530.216 492.742 531.175 492.742 532.335V541H490.647V532.477C490.647 531.406 490.369 530.571 489.813 529.974C489.256 529.37 488.493 529.068 487.522 529.068C486.853 529.068 486.256 529.213 485.729 529.503C485.208 529.793 484.797 530.216 484.495 530.773C484.193 531.329 484.042 532.004 484.042 532.797ZM504.632 541H502.324L509 522.818H511.273L517.949 541H515.641L510.207 525.695H510.065L504.632 541ZM505.484 533.898H514.788V535.851H505.484V533.898ZM522.592 532.797V541H520.497V527.364H522.521V529.494H522.698C523.018 528.802 523.503 528.246 524.154 527.825C524.805 527.399 525.646 527.186 526.676 527.186C527.599 527.186 528.407 527.375 529.099 527.754C529.792 528.127 530.33 528.695 530.715 529.459C531.1 530.216 531.292 531.175 531.292 532.335V541H529.197V532.477C529.197 531.406 528.919 530.571 528.362 529.974C527.806 529.37 527.043 529.068 526.072 529.068C525.403 529.068 524.805 529.213 524.279 529.503C523.758 529.793 523.347 530.216 523.045 530.773C522.743 531.329 522.592 532.004 522.592 532.797ZM541.051 527.364V529.139H533.984V527.364H541.051ZM536.044 524.097H538.139V537.094C538.139 537.686 538.225 538.129 538.397 538.425C538.574 538.715 538.799 538.911 539.071 539.011C539.35 539.106 539.643 539.153 539.95 539.153C540.181 539.153 540.371 539.142 540.518 539.118C540.666 539.088 540.785 539.065 540.874 539.047L541.3 540.929C541.158 540.982 540.959 541.036 540.705 541.089C540.45 541.148 540.128 541.178 539.737 541.178C539.145 541.178 538.565 541.05 537.997 540.796C537.435 540.541 536.967 540.154 536.594 539.633C536.228 539.112 536.044 538.455 536.044 537.662V524.097ZM549.596 541.284C548.365 541.284 547.285 540.991 546.356 540.405C545.432 539.819 544.71 539 544.189 537.946C543.675 536.893 543.417 535.661 543.417 534.253C543.417 532.832 543.675 531.592 544.189 530.533C544.71 529.474 545.432 528.651 546.356 528.065C547.285 527.479 548.365 527.186 549.596 527.186C550.827 527.186 551.904 527.479 552.828 528.065C553.757 528.651 554.479 529.474 554.994 530.533C555.515 531.592 555.775 532.832 555.775 534.253C555.775 535.661 555.515 536.893 554.994 537.946C554.479 539 553.757 539.819 552.828 540.405C551.904 540.991 550.827 541.284 549.596 541.284ZM549.596 539.402C550.531 539.402 551.301 539.162 551.904 538.683C552.508 538.203 552.955 537.573 553.245 536.792C553.535 536.011 553.68 535.164 553.68 534.253C553.68 533.341 553.535 532.492 553.245 531.705C552.955 530.918 552.508 530.281 551.904 529.796C551.301 529.311 550.531 529.068 549.596 529.068C548.661 529.068 547.892 529.311 547.288 529.796C546.684 530.281 546.237 530.918 545.947 531.705C545.657 532.492 545.512 533.341 545.512 534.253C545.512 535.164 545.657 536.011 545.947 536.792C546.237 537.573 546.684 538.203 547.288 538.683C547.892 539.162 548.661 539.402 549.596 539.402ZM561.068 532.797V541H558.973V527.364H560.997V529.494H561.175C561.495 528.802 561.98 528.246 562.631 527.825C563.282 527.399 564.122 527.186 565.152 527.186C566.076 527.186 566.883 527.375 567.576 527.754C568.268 528.127 568.807 528.695 569.192 529.459C569.576 530.216 569.769 531.175 569.769 532.335V541H567.674V532.477C567.674 531.406 567.395 530.571 566.839 529.974C566.283 529.37 565.519 529.068 564.549 529.068C563.88 529.068 563.282 529.213 562.755 529.503C562.234 529.793 561.823 530.216 561.521 530.773C561.219 531.329 561.068 532.004 561.068 532.797ZM573.597 541V527.364H575.692V541H573.597ZM574.663 525.091C574.254 525.091 573.902 524.952 573.606 524.674C573.316 524.395 573.171 524.061 573.171 523.67C573.171 523.28 573.316 522.945 573.606 522.667C573.902 522.389 574.254 522.25 574.663 522.25C575.071 522.25 575.42 522.389 575.71 522.667C576.006 522.945 576.154 523.28 576.154 523.67C576.154 524.061 576.006 524.395 575.71 524.674C575.42 524.952 575.071 525.091 574.663 525.091ZM585.07 541.284C583.839 541.284 582.758 540.991 581.829 540.405C580.906 539.819 580.184 539 579.663 537.946C579.148 536.893 578.891 535.661 578.891 534.253C578.891 532.832 579.148 531.592 579.663 530.533C580.184 529.474 580.906 528.651 581.829 528.065C582.758 527.479 583.839 527.186 585.07 527.186C586.301 527.186 587.378 527.479 588.301 528.065C589.23 528.651 589.953 529.474 590.467 530.533C590.988 531.592 591.249 532.832 591.249 534.253C591.249 535.661 590.988 536.893 590.467 537.946C589.953 539 589.23 539.819 588.301 540.405C587.378 540.991 586.301 541.284 585.07 541.284ZM585.07 539.402C586.005 539.402 586.774 539.162 587.378 538.683C587.982 538.203 588.428 537.573 588.718 536.792C589.008 536.011 589.153 535.164 589.153 534.253C589.153 533.341 589.008 532.492 588.718 531.705C588.428 530.918 587.982 530.281 587.378 529.796C586.774 529.311 586.005 529.068 585.07 529.068C584.135 529.068 583.365 529.311 582.761 529.796C582.158 530.281 581.711 530.918 581.421 531.705C581.131 532.492 580.986 533.341 580.986 534.253C580.986 535.164 581.131 536.011 581.421 536.792C581.711 537.573 582.158 538.203 582.761 538.683C583.365 539.162 584.135 539.402 585.07 539.402Z" fill="black"/>
<circle cx="541.148" cy="443.511" r="9.01136" fill="#FF8F87" stroke="black"/>
<path d="M505.714 426H501.595L507.871 407.818H512.825L519.093 426H514.974L510.419 411.973H510.277L505.714 426ZM505.457 418.853H515.187V421.854H505.457V418.853ZM529.955 420.194V412.364H533.737V426H530.106V423.523H529.964C529.656 424.322 529.144 424.964 528.428 425.45C527.718 425.935 526.851 426.178 525.827 426.178C524.915 426.178 524.113 425.97 523.421 425.556C522.729 425.142 522.187 424.553 521.796 423.789C521.412 423.026 521.216 422.112 521.21 421.046V412.364H524.992V420.371C524.998 421.176 525.214 421.813 525.64 422.28C526.067 422.748 526.638 422.982 527.354 422.982C527.81 422.982 528.236 422.878 528.632 422.671C529.029 422.458 529.348 422.144 529.591 421.73C529.84 421.315 529.961 420.804 529.955 420.194ZM548.108 416.252L544.646 416.465C544.586 416.169 544.459 415.903 544.264 415.666C544.069 415.424 543.811 415.231 543.492 415.089C543.178 414.941 542.802 414.867 542.364 414.867C541.778 414.867 541.284 414.991 540.881 415.24C540.479 415.483 540.278 415.808 540.278 416.217C540.278 416.542 540.408 416.817 540.668 417.042C540.929 417.267 541.376 417.448 542.009 417.584L544.477 418.081C545.803 418.353 546.791 418.791 547.442 419.395C548.093 419.999 548.419 420.792 548.419 421.774C548.419 422.668 548.155 423.452 547.629 424.127C547.108 424.801 546.392 425.328 545.48 425.707C544.575 426.08 543.53 426.266 542.346 426.266C540.541 426.266 539.103 425.891 538.032 425.139C536.966 424.381 536.342 423.351 536.158 422.049L539.878 421.854C539.991 422.404 540.263 422.825 540.695 423.115C541.127 423.399 541.68 423.541 542.355 423.541C543.018 423.541 543.551 423.414 543.953 423.159C544.362 422.899 544.569 422.564 544.575 422.156C544.569 421.813 544.424 421.531 544.14 421.312C543.856 421.088 543.418 420.916 542.826 420.798L540.464 420.327C539.133 420.061 538.141 419.599 537.49 418.942C536.845 418.285 536.522 417.448 536.522 416.43C536.522 415.554 536.759 414.799 537.233 414.166C537.712 413.533 538.384 413.044 539.248 412.701C540.118 412.358 541.136 412.186 542.302 412.186C544.024 412.186 545.38 412.55 546.368 413.278C547.362 414.006 547.942 414.997 548.108 416.252ZM558.053 412.364V415.205H549.841V412.364H558.053ZM551.706 409.097H555.488V421.81C555.488 422.159 555.541 422.431 555.648 422.626C555.754 422.816 555.902 422.949 556.091 423.026C556.287 423.103 556.512 423.141 556.766 423.141C556.944 423.141 557.121 423.127 557.299 423.097C557.476 423.061 557.613 423.035 557.707 423.017L558.302 425.831C558.113 425.891 557.846 425.959 557.503 426.036C557.16 426.118 556.742 426.169 556.251 426.186C555.34 426.222 554.541 426.101 553.854 425.822C553.174 425.544 552.644 425.112 552.265 424.526C551.886 423.94 551.7 423.201 551.706 422.307V409.097ZM560.517 426V412.364H564.299V426H560.517ZM562.417 410.606C561.855 410.606 561.372 410.419 560.97 410.047C560.573 409.668 560.375 409.215 560.375 408.688C560.375 408.167 560.573 407.721 560.97 407.348C561.372 406.969 561.855 406.779 562.417 406.779C562.979 406.779 563.459 406.969 563.855 407.348C564.258 407.721 564.459 408.167 564.459 408.688C564.459 409.215 564.258 409.668 563.855 410.047C563.459 410.419 562.979 410.606 562.417 410.606ZM571.111 418.116V426H567.329V412.364H570.933V414.77H571.093C571.395 413.976 571.901 413.349 572.611 412.887C573.321 412.42 574.182 412.186 575.194 412.186C576.141 412.186 576.967 412.393 577.671 412.808C578.376 413.222 578.923 413.814 579.314 414.583C579.704 415.347 579.9 416.258 579.9 417.317V426H576.118V417.992C576.124 417.158 575.91 416.507 575.478 416.039C575.046 415.566 574.452 415.329 573.694 415.329C573.185 415.329 572.735 415.438 572.345 415.657C571.96 415.876 571.658 416.196 571.439 416.616C571.226 417.03 571.116 417.531 571.111 418.116Z" fill="black"/>
<circle cx="561.511" cy="269.511" r="9.01136" fill="#FFE587" stroke="black"/>
<path d="M418.202 278V259.818H429.104V261.771H420.403V267.915H428.287V269.868H420.403V278H418.202ZM437.129 278.284C435.898 278.284 434.818 277.991 433.889 277.405C432.966 276.819 432.243 276 431.723 274.946C431.208 273.893 430.95 272.661 430.95 271.253C430.95 269.832 431.208 268.592 431.723 267.533C432.243 266.474 432.966 265.651 433.889 265.065C434.818 264.479 435.898 264.186 437.129 264.186C438.36 264.186 439.438 264.479 440.361 265.065C441.29 265.651 442.012 266.474 442.527 267.533C443.048 268.592 443.308 269.832 443.308 271.253C443.308 272.661 443.048 273.893 442.527 274.946C442.012 276 441.29 276.819 440.361 277.405C439.438 277.991 438.36 278.284 437.129 278.284ZM437.129 276.402C438.064 276.402 438.834 276.162 439.438 275.683C440.041 275.203 440.488 274.573 440.778 273.792C441.068 273.011 441.213 272.164 441.213 271.253C441.213 270.341 441.068 269.492 440.778 268.705C440.488 267.918 440.041 267.281 439.438 266.796C438.834 266.311 438.064 266.068 437.129 266.068C436.194 266.068 435.425 266.311 434.821 266.796C434.217 267.281 433.77 267.918 433.48 268.705C433.19 269.492 433.045 270.341 433.045 271.253C433.045 272.164 433.19 273.011 433.48 273.792C433.77 274.573 434.217 275.203 434.821 275.683C435.425 276.162 436.194 276.402 437.129 276.402ZM446.506 278V264.364H448.531V266.423H448.673C448.921 265.749 449.371 265.201 450.022 264.781C450.673 264.361 451.407 264.151 452.224 264.151C452.378 264.151 452.57 264.154 452.801 264.159C453.032 264.165 453.206 264.174 453.325 264.186V266.317C453.254 266.299 453.091 266.272 452.836 266.237C452.588 266.195 452.324 266.175 452.046 266.175C451.383 266.175 450.792 266.314 450.271 266.592C449.756 266.864 449.347 267.243 449.046 267.728C448.75 268.208 448.602 268.755 448.602 269.371V278H446.506ZM462.593 264.364V266.139H455.526V264.364H462.593ZM457.586 261.097H459.681V274.094C459.681 274.686 459.767 275.129 459.939 275.425C460.116 275.715 460.341 275.911 460.613 276.011C460.892 276.106 461.185 276.153 461.492 276.153C461.723 276.153 461.912 276.142 462.06 276.118C462.208 276.088 462.327 276.065 462.416 276.047L462.842 277.929C462.7 277.982 462.501 278.036 462.247 278.089C461.992 278.148 461.67 278.178 461.279 278.178C460.687 278.178 460.107 278.05 459.539 277.796C458.977 277.541 458.509 277.154 458.136 276.633C457.77 276.112 457.586 275.455 457.586 274.662V261.097ZM476.363 278L471.391 259.818H473.628L477.428 274.626H477.606L481.476 259.818H483.962L487.833 274.626H488.01L491.81 259.818H494.047L489.076 278H486.803L482.79 263.511H482.648L478.635 278H476.363ZM500.777 278.284C499.546 278.284 498.466 277.991 497.536 277.405C496.613 276.819 495.891 276 495.37 274.946C494.855 273.893 494.598 272.661 494.598 271.253C494.598 269.832 494.855 268.592 495.37 267.533C495.891 266.474 496.613 265.651 497.536 265.065C498.466 264.479 499.546 264.186 500.777 264.186C502.008 264.186 503.085 264.479 504.008 265.065C504.937 265.651 505.66 266.474 506.174 267.533C506.695 268.592 506.956 269.832 506.956 271.253C506.956 272.661 506.695 273.893 506.174 274.946C505.66 276 504.937 276.819 504.008 277.405C503.085 277.991 502.008 278.284 500.777 278.284ZM500.777 276.402C501.712 276.402 502.481 276.162 503.085 275.683C503.689 275.203 504.136 274.573 504.426 273.792C504.716 273.011 504.861 272.164 504.861 271.253C504.861 270.341 504.716 269.492 504.426 268.705C504.136 267.918 503.689 267.281 503.085 266.796C502.481 266.311 501.712 266.068 500.777 266.068C499.842 266.068 499.072 266.311 498.468 266.796C497.865 267.281 497.418 267.918 497.128 268.705C496.838 269.492 496.693 270.341 496.693 271.253C496.693 272.164 496.838 273.011 497.128 273.792C497.418 274.573 497.865 275.203 498.468 275.683C499.072 276.162 499.842 276.402 500.777 276.402ZM510.154 278V264.364H512.178V266.423H512.32C512.569 265.749 513.019 265.201 513.67 264.781C514.321 264.361 515.055 264.151 515.871 264.151C516.025 264.151 516.218 264.154 516.448 264.159C516.679 264.165 516.854 264.174 516.972 264.186V266.317C516.901 266.299 516.738 266.272 516.484 266.237C516.235 266.195 515.972 266.175 515.694 266.175C515.031 266.175 514.439 266.314 513.918 266.592C513.403 266.864 512.995 267.243 512.693 267.728C512.397 268.208 512.249 268.755 512.249 269.371V278H510.154ZM526.241 264.364V266.139H519.174V264.364H526.241ZM521.233 261.097H523.329V274.094C523.329 274.686 523.414 275.129 523.586 275.425C523.764 275.715 523.989 275.911 524.261 276.011C524.539 276.106 524.832 276.153 525.14 276.153C525.371 276.153 525.56 276.142 525.708 276.118C525.856 276.088 525.974 276.065 526.063 276.047L526.489 277.929C526.347 277.982 526.149 278.036 525.894 278.089C525.64 278.148 525.317 278.178 524.927 278.178C524.335 278.178 523.755 278.05 523.187 277.796C522.624 277.541 522.157 277.154 521.784 276.633C521.417 276.112 521.233 275.455 521.233 274.662V261.097ZM531.78 269.797V278H529.685V259.818H531.78V266.494H531.958C532.278 265.79 532.757 265.231 533.396 264.816C534.041 264.396 534.899 264.186 535.971 264.186C536.9 264.186 537.714 264.373 538.412 264.745C539.11 265.112 539.652 265.678 540.037 266.441C540.427 267.199 540.623 268.163 540.623 269.335V278H538.528V269.477C538.528 268.394 538.246 267.557 537.684 266.965C537.128 266.367 536.355 266.068 535.367 266.068C534.68 266.068 534.065 266.213 533.52 266.503C532.982 266.793 532.556 267.216 532.242 267.773C531.934 268.329 531.78 269.004 531.78 269.797Z" fill="black"/>
<circle cx="296.511" cy="97.5114" r="9.01136" fill="#FFE587" stroke="black"/>
<path d="M261.947 80H259.639L266.315 61.8182H268.588L275.264 80H272.956L267.523 64.6946H267.381L261.947 80ZM262.8 72.8977H272.104V74.8509H262.8V72.8977ZM277.812 80V66.3636H279.836V68.4943H280.014C280.298 67.7663 280.757 67.2011 281.39 66.7987C282.023 66.3903 282.784 66.1861 283.672 66.1861C284.571 66.1861 285.32 66.3903 285.918 66.7987C286.521 67.2011 286.992 67.7663 287.329 68.4943H287.471C287.82 67.79 288.344 67.2307 289.043 66.8164C289.741 66.3962 290.578 66.1861 291.555 66.1861C292.774 66.1861 293.772 66.5678 294.547 67.3313C295.322 68.0889 295.71 69.2696 295.71 70.8736V80H293.615V70.8736C293.615 69.8674 293.339 69.1483 292.789 68.7163C292.239 68.2842 291.591 68.0682 290.845 68.0682C289.886 68.0682 289.143 68.3582 288.616 68.9382C288.09 69.5123 287.826 70.2403 287.826 71.1222V80H285.696V70.6605C285.696 69.8852 285.444 69.2608 284.941 68.7873C284.438 68.3079 283.79 68.0682 282.997 68.0682C282.452 68.0682 281.943 68.2132 281.47 68.5032C281.002 68.7932 280.623 69.1957 280.333 69.7106C280.049 70.2196 279.907 70.8085 279.907 71.4773V80H277.812ZM303.553 80.3196C302.689 80.3196 301.905 80.1568 301.201 79.8313C300.497 79.4999 299.937 79.0234 299.523 78.402C299.109 77.7746 298.901 77.017 298.901 76.1293C298.901 75.348 299.055 74.7147 299.363 74.2294C299.671 73.7382 300.082 73.3535 300.597 73.0753C301.112 72.7971 301.68 72.59 302.302 72.4538C302.929 72.3118 303.559 72.1993 304.193 72.1165C305.021 72.0099 305.693 71.93 306.208 71.8768C306.729 71.8176 307.108 71.7199 307.344 71.5838C307.587 71.4477 307.708 71.2109 307.708 70.8736V70.8026C307.708 69.9266 307.469 69.246 306.989 68.7607C306.516 68.2753 305.797 68.0327 304.832 68.0327C303.832 68.0327 303.047 68.2517 302.479 68.6896C301.911 69.1276 301.512 69.5952 301.281 70.0923L299.292 69.3821C299.647 68.5535 300.121 67.9084 300.713 67.4467C301.31 66.9792 301.961 66.6536 302.666 66.4702C303.376 66.2808 304.074 66.1861 304.761 66.1861C305.199 66.1861 305.702 66.2393 306.27 66.3459C306.844 66.4465 307.398 66.6566 307.93 66.9762C308.469 67.2958 308.916 67.7782 309.271 68.4233C309.626 69.0684 309.803 69.9325 309.803 71.0156V80H307.708V78.1534H307.602C307.46 78.4493 307.223 78.766 306.892 79.1033C306.56 79.4407 306.119 79.7277 305.569 79.9645C305.018 80.2012 304.347 80.3196 303.553 80.3196ZM303.873 78.4375C304.702 78.4375 305.4 78.2747 305.968 77.9492C306.542 77.6237 306.974 77.2035 307.264 76.6886C307.56 76.1737 307.708 75.6321 307.708 75.0639V73.1463C307.619 73.2528 307.424 73.3505 307.122 73.4393C306.826 73.5221 306.483 73.5961 306.093 73.6612C305.708 73.7204 305.332 73.7737 304.965 73.821C304.604 73.8625 304.311 73.898 304.086 73.9276C303.542 73.9986 303.033 74.114 302.559 74.2738C302.092 74.4277 301.713 74.6615 301.423 74.9751C301.139 75.2829 300.997 75.7031 300.997 76.2358C300.997 76.9638 301.266 77.5142 301.805 77.8871C302.349 78.254 303.039 78.4375 303.873 78.4375ZM313.628 80V66.3636H315.652V68.4233H315.794C316.042 67.7486 316.492 67.2011 317.143 66.7809C317.794 66.3607 318.528 66.1506 319.345 66.1506C319.499 66.1506 319.691 66.1535 319.922 66.1594C320.153 66.1654 320.327 66.1742 320.446 66.1861V68.3168C320.375 68.299 320.212 68.2724 319.957 68.2369C319.709 68.1954 319.446 68.1747 319.167 68.1747C318.504 68.1747 317.913 68.3138 317.392 68.592C316.877 68.8642 316.468 69.243 316.167 69.7283C315.871 70.2077 315.723 70.7552 315.723 71.3707V80H313.628ZM322.929 80V66.3636H325.025V80H322.929ZM323.995 64.0909C323.586 64.0909 323.234 63.9518 322.938 63.6737C322.648 63.3955 322.503 63.0611 322.503 62.6705C322.503 62.2798 322.648 61.9454 322.938 61.6673C323.234 61.3891 323.586 61.25 323.995 61.25C324.403 61.25 324.752 61.3891 325.042 61.6673C325.338 61.9454 325.486 62.2798 325.486 62.6705C325.486 63.0611 325.338 63.3955 325.042 63.6737C324.752 63.9518 324.403 64.0909 323.995 64.0909ZM330.957 61.8182V80H328.862V61.8182H330.957ZM336.89 61.8182V80H334.795V61.8182H336.89ZM346.267 80.2841C345.036 80.2841 343.956 79.9911 343.027 79.4052C342.103 78.8192 341.381 77.9995 340.86 76.946C340.345 75.8925 340.088 74.6615 340.088 73.2528C340.088 71.8324 340.345 70.5924 340.86 69.533C341.381 68.4736 342.103 67.6509 343.027 67.065C343.956 66.479 345.036 66.1861 346.267 66.1861C347.498 66.1861 348.575 66.479 349.498 67.065C350.428 67.6509 351.15 68.4736 351.665 69.533C352.186 70.5924 352.446 71.8324 352.446 73.2528C352.446 74.6615 352.186 75.8925 351.665 76.946C351.15 77.9995 350.428 78.8192 349.498 79.4052C348.575 79.9911 347.498 80.2841 346.267 80.2841ZM346.267 78.402C347.202 78.402 347.972 78.1623 348.575 77.6829C349.179 77.2035 349.626 76.5732 349.916 75.7919C350.206 75.0107 350.351 74.1643 350.351 73.2528C350.351 72.3414 350.206 71.4921 349.916 70.7049C349.626 69.9177 349.179 69.2815 348.575 68.7962C347.972 68.3108 347.202 68.0682 346.267 68.0682C345.332 68.0682 344.562 68.3108 343.959 68.7962C343.355 69.2815 342.908 69.9177 342.618 70.7049C342.328 71.4921 342.183 72.3414 342.183 73.2528C342.183 74.1643 342.328 75.0107 342.618 75.7919C342.908 76.5732 343.355 77.2035 343.959 77.6829C344.562 78.1623 345.332 78.402 346.267 78.402Z" fill="black"/>
<circle cx="301.511" cy="214.511" r="9.01136" fill="#FFE587" stroke="black"/>
<path d="M255.202 197V178.818H257.403V195.047H265.855V197H255.202ZM277.574 191.425V183.364H279.669V197H277.574V194.692H277.432C277.112 195.384 276.615 195.973 275.94 196.458C275.266 196.938 274.413 197.178 273.384 197.178C272.531 197.178 271.774 196.991 271.111 196.618C270.448 196.239 269.927 195.671 269.548 194.914C269.17 194.15 268.98 193.188 268.98 192.028V183.364H271.075V191.886C271.075 192.881 271.353 193.674 271.91 194.266C272.472 194.857 273.188 195.153 274.058 195.153C274.579 195.153 275.109 195.02 275.647 194.754C276.192 194.488 276.648 194.079 277.015 193.529C277.387 192.978 277.574 192.277 277.574 191.425ZM283.791 197V178.818H285.886V185.53H286.063C286.217 185.293 286.43 184.991 286.703 184.624C286.981 184.251 287.377 183.92 287.892 183.63C288.413 183.334 289.117 183.186 290.005 183.186C291.153 183.186 292.165 183.473 293.041 184.047C293.917 184.621 294.601 185.435 295.092 186.489C295.583 187.542 295.829 188.785 295.829 190.217C295.829 191.661 295.583 192.913 295.092 193.973C294.601 195.026 293.92 195.843 293.05 196.423C292.18 196.997 291.177 197.284 290.041 197.284C289.165 197.284 288.463 197.139 287.937 196.849C287.41 196.553 287.004 196.219 286.72 195.846C286.436 195.467 286.217 195.153 286.063 194.905H285.815V197H283.791ZM285.85 190.182C285.85 191.212 286.001 192.12 286.303 192.907C286.605 193.689 287.046 194.301 287.626 194.745C288.206 195.183 288.916 195.402 289.756 195.402C290.632 195.402 291.363 195.171 291.949 194.71C292.541 194.242 292.985 193.615 293.281 192.827C293.583 192.034 293.734 191.152 293.734 190.182C293.734 189.223 293.586 188.359 293.29 187.589C293 186.814 292.559 186.202 291.967 185.752C291.381 185.296 290.644 185.068 289.756 185.068C288.904 185.068 288.188 185.284 287.608 185.716C287.028 186.142 286.59 186.74 286.294 187.51C285.998 188.273 285.85 189.164 285.85 190.182ZM299.318 197V178.818H301.413V185.53H301.591C301.745 185.293 301.958 184.991 302.23 184.624C302.508 184.251 302.905 183.92 303.419 183.63C303.94 183.334 304.645 183.186 305.532 183.186C306.681 183.186 307.693 183.473 308.569 184.047C309.445 184.621 310.128 185.435 310.619 186.489C311.111 187.542 311.356 188.785 311.356 190.217C311.356 191.661 311.111 192.913 310.619 193.973C310.128 195.026 309.448 195.843 308.578 196.423C307.707 196.997 306.704 197.284 305.568 197.284C304.692 197.284 303.991 197.139 303.464 196.849C302.937 196.553 302.532 196.219 302.248 195.846C301.964 195.467 301.745 195.153 301.591 194.905H301.342V197H299.318ZM301.378 190.182C301.378 191.212 301.528 192.12 301.83 192.907C302.132 193.689 302.573 194.301 303.153 194.745C303.733 195.183 304.443 195.402 305.284 195.402C306.16 195.402 306.891 195.171 307.477 194.71C308.069 194.242 308.512 193.615 308.808 192.827C309.11 192.034 309.261 191.152 309.261 190.182C309.261 189.223 309.113 188.359 308.817 187.589C308.527 186.814 308.086 186.202 307.494 185.752C306.908 185.296 306.172 185.068 305.284 185.068C304.432 185.068 303.715 185.284 303.135 185.716C302.555 186.142 302.117 186.74 301.821 187.51C301.526 188.273 301.378 189.164 301.378 190.182ZM320.101 197.284C318.87 197.284 317.79 196.991 316.861 196.405C315.937 195.819 315.215 195 314.694 193.946C314.179 192.893 313.922 191.661 313.922 190.253C313.922 188.832 314.179 187.592 314.694 186.533C315.215 185.474 315.937 184.651 316.861 184.065C317.79 183.479 318.87 183.186 320.101 183.186C321.332 183.186 322.409 183.479 323.332 184.065C324.262 184.651 324.984 185.474 325.499 186.533C326.02 187.592 326.28 188.832 326.28 190.253C326.28 191.661 326.02 192.893 325.499 193.946C324.984 195 324.262 195.819 323.332 196.405C322.409 196.991 321.332 197.284 320.101 197.284ZM320.101 195.402C321.036 195.402 321.805 195.162 322.409 194.683C323.013 194.203 323.46 193.573 323.75 192.792C324.04 192.011 324.185 191.164 324.185 190.253C324.185 189.341 324.04 188.492 323.75 187.705C323.46 186.918 323.013 186.281 322.409 185.796C321.805 185.311 321.036 185.068 320.101 185.068C319.166 185.068 318.396 185.311 317.793 185.796C317.189 186.281 316.742 186.918 316.452 187.705C316.162 188.492 316.017 189.341 316.017 190.253C316.017 191.164 316.162 192.011 316.452 192.792C316.742 193.573 317.189 194.203 317.793 194.683C318.396 195.162 319.166 195.402 320.101 195.402ZM335.018 197.284C333.74 197.284 332.639 196.982 331.715 196.379C330.792 195.775 330.082 194.943 329.585 193.884C329.088 192.824 328.839 191.614 328.839 190.253C328.839 188.868 329.093 187.646 329.602 186.586C330.117 185.521 330.834 184.689 331.751 184.092C332.674 183.488 333.751 183.186 334.982 183.186C335.941 183.186 336.805 183.364 337.575 183.719C338.344 184.074 338.974 184.571 339.466 185.21C339.957 185.849 340.262 186.595 340.38 187.447H338.285C338.125 186.826 337.77 186.276 337.22 185.796C336.675 185.311 335.941 185.068 335.018 185.068C334.201 185.068 333.485 185.281 332.869 185.707C332.26 186.128 331.783 186.722 331.44 187.492C331.103 188.255 330.934 189.152 330.934 190.182C330.934 191.235 331.1 192.153 331.431 192.934C331.769 193.715 332.242 194.322 332.852 194.754C333.467 195.186 334.189 195.402 335.018 195.402C335.562 195.402 336.057 195.307 336.501 195.118C336.944 194.929 337.32 194.656 337.628 194.301C337.936 193.946 338.155 193.52 338.285 193.023H340.38C340.262 193.828 339.969 194.553 339.501 195.198C339.04 195.837 338.427 196.346 337.664 196.725C336.906 197.098 336.024 197.284 335.018 197.284ZM345.396 192.028L345.361 189.436H345.787L351.753 183.364H354.345L347.988 189.791H347.811L345.396 192.028ZM343.443 197V178.818H345.538V197H343.443ZM352.108 197L346.781 190.253L348.273 188.797L354.771 197H352.108Z" fill="black"/>
<circle cx="281.511" cy="321.511" r="9.01136" fill="#FFE587" stroke="black"/>
<path d="M241.202 336.818H243.83L250.009 351.911H250.222L256.401 336.818H259.028V355H256.969V341.186H256.791L251.109 355H249.121L243.439 341.186H243.261V355H241.202V336.818ZM263.159 355V341.364H265.254V355H263.159ZM264.224 339.091C263.816 339.091 263.464 338.952 263.168 338.674C262.878 338.395 262.733 338.061 262.733 337.67C262.733 337.28 262.878 336.945 263.168 336.667C263.464 336.389 263.816 336.25 264.224 336.25C264.633 336.25 264.982 336.389 265.272 336.667C265.568 336.945 265.716 337.28 265.716 337.67C265.716 338.061 265.568 338.395 265.272 338.674C264.982 338.952 264.633 339.091 264.224 339.091ZM274.241 355.284C273.104 355.284 272.101 354.997 271.231 354.423C270.361 353.843 269.68 353.026 269.189 351.973C268.698 350.913 268.452 349.661 268.452 348.217C268.452 346.785 268.698 345.542 269.189 344.489C269.68 343.435 270.364 342.621 271.24 342.047C272.116 341.473 273.128 341.186 274.276 341.186C275.164 341.186 275.865 341.334 276.38 341.63C276.901 341.92 277.298 342.251 277.57 342.624C277.848 342.991 278.064 343.293 278.218 343.53H278.395V336.818H280.491V355H278.466V352.905H278.218C278.064 353.153 277.845 353.467 277.561 353.846C277.277 354.219 276.871 354.553 276.345 354.849C275.818 355.139 275.117 355.284 274.241 355.284ZM274.525 353.402C275.365 353.402 276.075 353.183 276.655 352.745C277.235 352.301 277.676 351.689 277.978 350.907C278.28 350.12 278.431 349.212 278.431 348.182C278.431 347.164 278.283 346.273 277.987 345.51C277.691 344.74 277.253 344.142 276.673 343.716C276.093 343.284 275.377 343.068 274.525 343.068C273.637 343.068 272.897 343.296 272.305 343.752C271.719 344.202 271.278 344.814 270.982 345.589C270.692 346.359 270.547 347.223 270.547 348.182C270.547 349.152 270.695 350.034 270.991 350.827C271.293 351.615 271.737 352.242 272.323 352.71C272.915 353.171 273.649 353.402 274.525 353.402ZM286.714 336.818V355H284.619V336.818H286.714ZM294.564 355.32C293.7 355.32 292.916 355.157 292.212 354.831C291.507 354.5 290.948 354.023 290.534 353.402C290.119 352.775 289.912 352.017 289.912 351.129C289.912 350.348 290.066 349.715 290.374 349.229C290.682 348.738 291.093 348.353 291.608 348.075C292.123 347.797 292.691 347.59 293.312 347.454C293.94 347.312 294.57 347.199 295.203 347.116C296.032 347.01 296.704 346.93 297.219 346.877C297.739 346.818 298.118 346.72 298.355 346.584C298.598 346.448 298.719 346.211 298.719 345.874V345.803C298.719 344.927 298.479 344.246 298 343.761C297.526 343.275 296.807 343.033 295.843 343.033C294.842 343.033 294.058 343.252 293.49 343.69C292.922 344.128 292.522 344.595 292.291 345.092L290.303 344.382C290.658 343.554 291.131 342.908 291.723 342.447C292.321 341.979 292.972 341.654 293.676 341.47C294.387 341.281 295.085 341.186 295.772 341.186C296.21 341.186 296.713 341.239 297.281 341.346C297.855 341.446 298.408 341.657 298.941 341.976C299.48 342.296 299.926 342.778 300.282 343.423C300.637 344.068 300.814 344.933 300.814 346.016V355H298.719V353.153H298.612C298.47 353.449 298.234 353.766 297.902 354.103C297.571 354.441 297.13 354.728 296.579 354.964C296.029 355.201 295.357 355.32 294.564 355.32ZM294.884 353.438C295.712 353.438 296.411 353.275 296.979 352.949C297.553 352.624 297.985 352.203 298.275 351.689C298.571 351.174 298.719 350.632 298.719 350.064V348.146C298.63 348.253 298.435 348.35 298.133 348.439C297.837 348.522 297.494 348.596 297.103 348.661C296.719 348.72 296.343 348.774 295.976 348.821C295.615 348.862 295.322 348.898 295.097 348.928C294.552 348.999 294.043 349.114 293.57 349.274C293.102 349.428 292.724 349.661 292.434 349.975C292.149 350.283 292.007 350.703 292.007 351.236C292.007 351.964 292.277 352.514 292.815 352.887C293.36 353.254 294.049 353.438 294.884 353.438ZM306.733 346.797V355H304.638V341.364H306.662V343.494H306.84C307.16 342.802 307.645 342.246 308.296 341.825C308.947 341.399 309.787 341.186 310.817 341.186C311.741 341.186 312.548 341.375 313.241 341.754C313.933 342.127 314.472 342.695 314.857 343.459C315.241 344.216 315.434 345.175 315.434 346.335V355H313.339V346.477C313.339 345.406 313.06 344.571 312.504 343.974C311.948 343.37 311.184 343.068 310.214 343.068C309.545 343.068 308.947 343.213 308.42 343.503C307.899 343.793 307.488 344.216 307.186 344.773C306.884 345.329 306.733 346.004 306.733 346.797ZM324.411 355.284C323.275 355.284 322.272 354.997 321.402 354.423C320.532 353.843 319.851 353.026 319.36 351.973C318.869 350.913 318.623 349.661 318.623 348.217C318.623 346.785 318.869 345.542 319.36 344.489C319.851 343.435 320.535 342.621 321.411 342.047C322.287 341.473 323.299 341.186 324.447 341.186C325.335 341.186 326.036 341.334 326.551 341.63C327.072 341.92 327.468 342.251 327.741 342.624C328.019 342.991 328.235 343.293 328.389 343.53H328.566V336.818H330.661V355H328.637V352.905H328.389C328.235 353.153 328.016 353.467 327.732 353.846C327.448 354.219 327.042 354.553 326.516 354.849C325.989 355.139 325.287 355.284 324.411 355.284ZM324.696 353.402C325.536 353.402 326.246 353.183 326.826 352.745C327.406 352.301 327.847 351.689 328.149 350.907C328.451 350.12 328.602 349.212 328.602 348.182C328.602 347.164 328.454 346.273 328.158 345.51C327.862 344.74 327.424 344.142 326.844 343.716C326.264 343.284 325.548 343.068 324.696 343.068C323.808 343.068 323.068 343.296 322.476 343.752C321.89 344.202 321.449 344.814 321.153 345.589C320.863 346.359 320.718 347.223 320.718 348.182C320.718 349.152 320.866 350.034 321.162 350.827C321.464 351.615 321.908 352.242 322.494 352.71C323.086 353.171 323.82 353.402 324.696 353.402Z" fill="black"/>
<line x1="574.021" y1="751.794" x2="578.021" y2="732.794" stroke="#00E45F" stroke-width="2"/>
</svg>
