<svg width="957" height="608" viewBox="0 0 957 608" fill="none" xmlns="http://www.w3.org/2000/svg">
<rect x="0.5" y="0.5" width="956" height="607" rx="35.5" fill="#97DCFF" stroke="#717171"/>
<g filter="url(#filter0_d_275_19)">
<path d="M839.09 262.27L836.477 272.72L839.09 275.332L843.01 277.945L846.93 280.557L850.85 281.863L853.464 280.557L856.077 277.945L861.304 281.863L866.531 283.17L871.757 281.863L876.984 279.251L880.904 274.026L879.598 270.107L882.211 267.495V263.576L876.984 258.351L873.064 255.739L869.144 257.045L866.531 254.433L861.304 251.82L854.77 253.126L845.623 255.739L839.09 262.27Z" fill="#FFD597"/>
<path d="M839.09 262.27L836.477 272.72L839.09 275.332L843.01 277.945L846.93 280.557L850.85 281.863L853.464 280.557L856.077 277.945L861.304 281.863L866.531 283.17L871.757 281.863L876.984 279.251L880.904 274.026L879.598 270.107L882.211 267.495V263.576L876.984 258.351L873.064 255.739L869.144 257.045L866.531 254.433L861.304 251.82L854.77 253.126L845.623 255.739L839.09 262.27Z" stroke="black"/>
</g>
<g filter="url(#filter1_d_275_19)">
<mask id="path-3-inside-1_275_19" fill="white">
<path d="M213.18 459.51V479.104L222.327 483.023L232.781 485.635L240.621 494.779H245.848L251.075 497.391L258.915 502.616V497.391L262.835 492.166H271.982L285.049 494.779L281.129 502.616L277.209 506.535V509.147L281.129 515.678V522.209L285.049 526.128L288.969 522.209V519.597L295.503 513.066L299.423 506.535L302.036 500.003L299.423 494.779V489.554L305.956 486.941L307.263 485.635H315.103L320.33 492.166L325.557 497.391L333.397 502.616H338.624L343.851 492.166C345.157 490.424 348.032 486.157 349.077 483.023C350.123 479.888 353.868 478.234 355.611 477.798L360.838 475.185L366.064 472.573V460.817H371.291L376.518 450.367C377.388 450.803 380.438 451.412 385.665 450.367C390.892 449.322 389.585 448.191 388.278 447.754L393.505 442.529C393.505 441.223 392.982 438.35 390.892 437.305C388.801 436.26 390.021 430.773 390.892 428.161L403.959 422.936L411.799 419.017C413.89 417.972 416.156 414.229 417.026 412.486C417.896 409.437 419.639 402.82 419.639 400.73V395.505L417.026 386.362L414.412 378.524L411.799 373.299L406.572 369.381L403.959 364.156L413.106 365.462L414.412 361.543V358.931L420.946 361.543L423.559 357.625L419.639 353.706H432.706V348.481L436.626 347.175L444.466 355.012V369.381V373.299H439.24L434.013 375.912L436.626 378.524H444.466L456.227 347.175L466.68 340.644V338.031L470.601 331.5H475.827L482.361 327.581V322.356L488.894 319.744H495.428V314.519L499.348 311.907L505.881 314.519L512.415 309.294L516.335 301.457L515.028 297.538L505.881 293.619L499.348 291.007L501.961 285.782C504.138 284.912 508.495 282.908 508.495 281.863C508.495 280.818 512.851 279.687 515.028 279.251L521.562 274.026V270.107L516.335 268.801L512.415 264.882H505.881L499.348 259.657L501.961 251.82L508.495 249.208L505.881 246.595H498.041H488.894L482.361 249.208L473.214 243.983L466.68 238.758H456.227L452.307 237.452V232.227L460.147 230.92L473.214 232.227H491.508L494.121 227.002L505.881 224.389L521.562 221.777L533.322 229.614L546.389 230.92L550.309 238.758L543.776 249.208L550.309 255.739L549.003 262.27V267.495L550.309 275.332L552.923 281.863L549.003 285.782L552.923 289.701L558.149 285.782L562.07 283.17L575.137 285.782L581.67 281.863H586.897H592.124L602.577 276.638H615.644L618.258 272.72C619.564 270.544 622.178 264.621 622.178 258.351C622.178 252.081 625.661 255.739 627.405 258.351H635.245L640.472 260.964L647.005 258.351L652.232 255.739L654.845 249.208L656.152 243.983L663.992 241.37V237.452L666.606 233.533L674.446 232.227L684.899 229.614L690.126 221.777L696.66 224.389L701.887 229.614L703.193 227.002H711.034L708.42 230.92L712.34 233.533L717.567 237.452L720.18 247.901L711.034 255.739L724.101 267.495L729.327 266.189L741.088 255.739H754.155C755.898 254.869 759.381 252.604 759.381 250.514C759.381 248.424 761.125 247.901 761.995 247.901L768.528 249.208L767.222 243.983L777.675 237.452H778.982L785.516 241.37H793.356C794.662 240.934 797.276 239.542 797.276 237.452C797.276 235.362 799.889 233.097 801.196 232.227H806.423L818.183 229.614L829.943 227.002V220.471L832.557 211.327L839.09 195.652L835.17 191.734C833.427 190.427 830.466 187.815 832.557 187.815C835.17 187.815 829.943 178.671 829.943 176.059C829.943 173.969 828.2 169.963 827.33 168.221L832.557 161.69L840.397 156.465H835.17L827.33 160.384L822.103 164.303L816.876 165.609H803.809L793.356 160.384L789.436 165.609L782.902 173.446L777.675 176.059L772.448 173.446V177.365L768.528 183.896L767.222 189.121L772.448 198.265L767.222 200.877L760.688 206.102L754.155 203.49V191.734L747.621 194.346C743.701 192.169 735.338 187.292 733.247 185.202C731.157 183.112 730.634 186.073 730.634 187.815L725.407 185.202L717.567 182.59L716.26 194.346H713.647C711.904 192.169 708.159 187.292 707.113 185.202C706.068 183.112 704.064 184.332 703.193 185.202H694.046L690.126 177.365L684.899 182.59H677.059L671.832 191.734H663.992C661.379 191.734 654.845 194.346 652.232 191.734C649.619 189.121 647.005 191.734 644.392 189.121C642.301 187.031 642.649 185.638 643.085 185.202L647.005 177.365L654.845 176.059L658.765 173.446L656.152 168.221H649.619L647.005 173.446H641.778L637.858 168.221L635.245 164.303H632.631L627.405 170.834H622.178L618.258 160.384L615.644 161.69V168.221L618.258 176.059L611.724 179.978L606.497 176.059L610.418 170.834L605.191 168.221L602.577 170.834L605.191 178.671L603.884 182.59L599.964 187.815H592.124L586.897 194.346H581.67L579.057 187.815L581.67 177.365L585.59 168.221L581.67 164.303L575.137 173.446H569.91L565.99 177.365L560.763 170.834V160.384V155.159L558.149 157.772L552.923 161.69L549.003 164.303H542.469L535.936 168.221L529.402 173.446H524.175L518.948 168.221L521.562 164.303L528.095 155.159L532.015 149.934V140.791L529.402 138.178L515.028 149.934L505.881 157.772L498.041 153.853V157.772L495.428 164.303H491.508L483.668 160.384L482.361 165.609L477.134 164.303V168.221L483.668 177.365V182.59L477.134 181.284L470.601 173.446H466.68L462.76 182.59H456.227H447.08V187.815L443.16 191.734L441.853 198.265L439.24 203.49L434.013 206.102H430.093L427.479 200.877H423.559V203.49H417.026V211.327H413.106V213.939V217.858H406.572V220.471L402.652 229.614L393.505 232.227L388.278 238.758L385.665 241.37L388.278 242.676V255.739L383.052 262.27L393.505 267.495V274.026L390.892 279.251H385.665L383.052 274.026L379.131 270.107H371.291L363.451 262.27L359.531 264.882V270.107H355.611L351.691 274.026H345.157L343.851 277.945L339.93 279.251L343.851 287.088L337.317 289.701L332.09 288.394L328.17 291.007L322.943 292.313L316.41 289.701L312.49 293.619L303.343 298.844V304.069L296.809 296.232L295.503 289.701L290.276 291.007L283.742 292.313L277.209 288.394L282.436 284.476V279.251H277.209L271.982 284.476L264.142 283.17L262.835 284.476H260.222L257.608 287.088H252.381V289.701H248.461L245.848 296.232L240.621 288.394L238.008 291.007H231.474V301.457L223.634 298.844V288.394L219.714 281.863L221.021 279.251H217.101L213.18 284.476L206.647 288.394H201.42L196.193 284.476L193.58 293.619L190.966 294.926L187.046 293.619L185.74 289.701L183.126 291.007L179.206 287.088L176.593 283.17L171.366 284.476L173.979 289.701L168.753 291.007V296.232H166.139L162.219 294.926H156.992H153.072L149.152 296.232V298.844L146.539 301.457L140.005 298.844L138.698 301.457L146.539 306.682L143.925 310.6H137.392V313.213L128.245 317.132L130.858 322.356L125.631 324.969H121.711L117.791 319.744L113.871 313.213L111.258 322.356H104.724L102.111 326.275L98.1907 334.112L90.3505 336.725V340.644L82.5103 343.256L79.8969 348.481L77.2835 360.237L70.75 369.381H68.1366L57.683 373.299H49.8428L55.0696 382.443H60.2964L65.5232 385.055L73.3634 387.668H79.8969L86.4304 388.974L89.0438 395.505L90.3505 402.036L96.884 398.118L111.258 402.036L120.405 407.261L125.631 405.955L130.858 398.118L138.698 391.587L146.539 387.668L151.765 391.587V398.118L156.992 402.036L154.379 404.649L159.606 407.261L168.753 405.955L175.286 411.18L180.513 402.036L185.74 404.649V411.18L190.966 413.792L193.58 411.18L200.113 413.792V420.324L207.954 417.711L206.647 422.936L213.18 428.161L206.647 446.448L209.914 452.979L213.18 459.51Z"/>
</mask>
<path d="M213.18 459.51V479.104L222.327 483.023L232.781 485.635L240.621 494.779H245.848L251.075 497.391L258.915 502.616V497.391L262.835 492.166H271.982L285.049 494.779L281.129 502.616L277.209 506.535V509.147L281.129 515.678V522.209L285.049 526.128L288.969 522.209V519.597L295.503 513.066L299.423 506.535L302.036 500.003L299.423 494.779V489.554L305.956 486.941L307.263 485.635H315.103L320.33 492.166L325.557 497.391L333.397 502.616H338.624L343.851 492.166C345.157 490.424 348.032 486.157 349.077 483.023C350.123 479.888 353.868 478.234 355.611 477.798L360.838 475.185L366.064 472.573V460.817H371.291L376.518 450.367C377.388 450.803 380.438 451.412 385.665 450.367C390.892 449.322 389.585 448.191 388.278 447.754L393.505 442.529C393.505 441.223 392.982 438.35 390.892 437.305C388.801 436.26 390.021 430.773 390.892 428.161L403.959 422.936L411.799 419.017C413.89 417.972 416.156 414.229 417.026 412.486C417.896 409.437 419.639 402.82 419.639 400.73V395.505L417.026 386.362L414.412 378.524L411.799 373.299L406.572 369.381L403.959 364.156L413.106 365.462L414.412 361.543V358.931L420.946 361.543L423.559 357.625L419.639 353.706H432.706V348.481L436.626 347.175L444.466 355.012V369.381V373.299H439.24L434.013 375.912L436.626 378.524H444.466L456.227 347.175L466.68 340.644V338.031L470.601 331.5H475.827L482.361 327.581V322.356L488.894 319.744H495.428V314.519L499.348 311.907L505.881 314.519L512.415 309.294L516.335 301.457L515.028 297.538L505.881 293.619L499.348 291.007L501.961 285.782C504.138 284.912 508.495 282.908 508.495 281.863C508.495 280.818 512.851 279.687 515.028 279.251L521.562 274.026V270.107L516.335 268.801L512.415 264.882H505.881L499.348 259.657L501.961 251.82L508.495 249.208L505.881 246.595H498.041H488.894L482.361 249.208L473.214 243.983L466.68 238.758H456.227L452.307 237.452V232.227L460.147 230.92L473.214 232.227H491.508L494.121 227.002L505.881 224.389L521.562 221.777L533.322 229.614L546.389 230.92L550.309 238.758L543.776 249.208L550.309 255.739L549.003 262.27V267.495L550.309 275.332L552.923 281.863L549.003 285.782L552.923 289.701L558.149 285.782L562.07 283.17L575.137 285.782L581.67 281.863H586.897H592.124L602.577 276.638H615.644L618.258 272.72C619.564 270.544 622.178 264.621 622.178 258.351C622.178 252.081 625.661 255.739 627.405 258.351H635.245L640.472 260.964L647.005 258.351L652.232 255.739L654.845 249.208L656.152 243.983L663.992 241.37V237.452L666.606 233.533L674.446 232.227L684.899 229.614L690.126 221.777L696.66 224.389L701.887 229.614L703.193 227.002H711.034L708.42 230.92L712.34 233.533L717.567 237.452L720.18 247.901L711.034 255.739L724.101 267.495L729.327 266.189L741.088 255.739H754.155C755.898 254.869 759.381 252.604 759.381 250.514C759.381 248.424 761.125 247.901 761.995 247.901L768.528 249.208L767.222 243.983L777.675 237.452H778.982L785.516 241.37H793.356C794.662 240.934 797.276 239.542 797.276 237.452C797.276 235.362 799.889 233.097 801.196 232.227H806.423L818.183 229.614L829.943 227.002V220.471L832.557 211.327L839.09 195.652L835.17 191.734C833.427 190.427 830.466 187.815 832.557 187.815C835.17 187.815 829.943 178.671 829.943 176.059C829.943 173.969 828.2 169.963 827.33 168.221L832.557 161.69L840.397 156.465H835.17L827.33 160.384L822.103 164.303L816.876 165.609H803.809L793.356 160.384L789.436 165.609L782.902 173.446L777.675 176.059L772.448 173.446V177.365L768.528 183.896L767.222 189.121L772.448 198.265L767.222 200.877L760.688 206.102L754.155 203.49V191.734L747.621 194.346C743.701 192.169 735.338 187.292 733.247 185.202C731.157 183.112 730.634 186.073 730.634 187.815L725.407 185.202L717.567 182.59L716.26 194.346H713.647C711.904 192.169 708.159 187.292 707.113 185.202C706.068 183.112 704.064 184.332 703.193 185.202H694.046L690.126 177.365L684.899 182.59H677.059L671.832 191.734H663.992C661.379 191.734 654.845 194.346 652.232 191.734C649.619 189.121 647.005 191.734 644.392 189.121C642.301 187.031 642.649 185.638 643.085 185.202L647.005 177.365L654.845 176.059L658.765 173.446L656.152 168.221H649.619L647.005 173.446H641.778L637.858 168.221L635.245 164.303H632.631L627.405 170.834H622.178L618.258 160.384L615.644 161.69V168.221L618.258 176.059L611.724 179.978L606.497 176.059L610.418 170.834L605.191 168.221L602.577 170.834L605.191 178.671L603.884 182.59L599.964 187.815H592.124L586.897 194.346H581.67L579.057 187.815L581.67 177.365L585.59 168.221L581.67 164.303L575.137 173.446H569.91L565.99 177.365L560.763 170.834V160.384V155.159L558.149 157.772L552.923 161.69L549.003 164.303H542.469L535.936 168.221L529.402 173.446H524.175L518.948 168.221L521.562 164.303L528.095 155.159L532.015 149.934V140.791L529.402 138.178L515.028 149.934L505.881 157.772L498.041 153.853V157.772L495.428 164.303H491.508L483.668 160.384L482.361 165.609L477.134 164.303V168.221L483.668 177.365V182.59L477.134 181.284L470.601 173.446H466.68L462.76 182.59H456.227H447.08V187.815L443.16 191.734L441.853 198.265L439.24 203.49L434.013 206.102H430.093L427.479 200.877H423.559V203.49H417.026V211.327H413.106V213.939V217.858H406.572V220.471L402.652 229.614L393.505 232.227L388.278 238.758L385.665 241.37L388.278 242.676V255.739L383.052 262.27L393.505 267.495V274.026L390.892 279.251H385.665L383.052 274.026L379.131 270.107H371.291L363.451 262.27L359.531 264.882V270.107H355.611L351.691 274.026H345.157L343.851 277.945L339.93 279.251L343.851 287.088L337.317 289.701L332.09 288.394L328.17 291.007L322.943 292.313L316.41 289.701L312.49 293.619L303.343 298.844V304.069L296.809 296.232L295.503 289.701L290.276 291.007L283.742 292.313L277.209 288.394L282.436 284.476V279.251H277.209L271.982 284.476L264.142 283.17L262.835 284.476H260.222L257.608 287.088H252.381V289.701H248.461L245.848 296.232L240.621 288.394L238.008 291.007H231.474V301.457L223.634 298.844V288.394L219.714 281.863L221.021 279.251H217.101L213.18 284.476L206.647 288.394H201.42L196.193 284.476L193.58 293.619L190.966 294.926L187.046 293.619L185.74 289.701L183.126 291.007L179.206 287.088L176.593 283.17L171.366 284.476L173.979 289.701L168.753 291.007V296.232H166.139L162.219 294.926H156.992H153.072L149.152 296.232V298.844L146.539 301.457L140.005 298.844L138.698 301.457L146.539 306.682L143.925 310.6H137.392V313.213L128.245 317.132L130.858 322.356L125.631 324.969H121.711L117.791 319.744L113.871 313.213L111.258 322.356H104.724L102.111 326.275L98.1907 334.112L90.3505 336.725V340.644L82.5103 343.256L79.8969 348.481L77.2835 360.237L70.75 369.381H68.1366L57.683 373.299H49.8428L55.0696 382.443H60.2964L65.5232 385.055L73.3634 387.668H79.8969L86.4304 388.974L89.0438 395.505L90.3505 402.036L96.884 398.118L111.258 402.036L120.405 407.261L125.631 405.955L130.858 398.118L138.698 391.587L146.539 387.668L151.765 391.587V398.118L156.992 402.036L154.379 404.649L159.606 407.261L168.753 405.955L175.286 411.18L180.513 402.036L185.74 404.649V411.18L190.966 413.792L193.58 411.18L200.113 413.792V420.324L207.954 417.711L206.647 422.936L213.18 428.161L206.647 446.448L209.914 452.979L213.18 459.51Z" fill="#FFD597"/>
<path d="M213.18 459.51V479.104L222.327 483.023L232.781 485.635L240.621 494.779H245.848L251.075 497.391L258.915 502.616V497.391L262.835 492.166H271.982L285.049 494.779L281.129 502.616L277.209 506.535V509.147L281.129 515.678V522.209L285.049 526.128L288.969 522.209V519.597L295.503 513.066L299.423 506.535L302.036 500.003L299.423 494.779V489.554L305.956 486.941L307.263 485.635H315.103L320.33 492.166L325.557 497.391L333.397 502.616H338.624L343.851 492.166C345.157 490.424 348.032 486.157 349.077 483.023C350.123 479.888 353.868 478.234 355.611 477.798L360.838 475.185L366.064 472.573V460.817H371.291L376.518 450.367C377.388 450.803 380.438 451.412 385.665 450.367C390.892 449.322 389.585 448.191 388.278 447.754L393.505 442.529C393.505 441.223 392.982 438.35 390.892 437.305C388.801 436.26 390.021 430.773 390.892 428.161L403.959 422.936L411.799 419.017C413.89 417.972 416.156 414.229 417.026 412.486C417.896 409.437 419.639 402.82 419.639 400.73V395.505L417.026 386.362L414.412 378.524L411.799 373.299L406.572 369.381L403.959 364.156L413.106 365.462L414.412 361.543V358.931L420.946 361.543L423.559 357.625L419.639 353.706H432.706V348.481L436.626 347.175L444.466 355.012V369.381V373.299H439.24L434.013 375.912L436.626 378.524H444.466L456.227 347.175L466.68 340.644V338.031L470.601 331.5H475.827L482.361 327.581V322.356L488.894 319.744H495.428V314.519L499.348 311.907L505.881 314.519L512.415 309.294L516.335 301.457L515.028 297.538L505.881 293.619L499.348 291.007L501.961 285.782C504.138 284.912 508.495 282.908 508.495 281.863C508.495 280.818 512.851 279.687 515.028 279.251L521.562 274.026V270.107L516.335 268.801L512.415 264.882H505.881L499.348 259.657L501.961 251.82L508.495 249.208L505.881 246.595H498.041H488.894L482.361 249.208L473.214 243.983L466.68 238.758H456.227L452.307 237.452V232.227L460.147 230.92L473.214 232.227H491.508L494.121 227.002L505.881 224.389L521.562 221.777L533.322 229.614L546.389 230.92L550.309 238.758L543.776 249.208L550.309 255.739L549.003 262.27V267.495L550.309 275.332L552.923 281.863L549.003 285.782L552.923 289.701L558.149 285.782L562.07 283.17L575.137 285.782L581.67 281.863H586.897H592.124L602.577 276.638H615.644L618.258 272.72C619.564 270.544 622.178 264.621 622.178 258.351C622.178 252.081 625.661 255.739 627.405 258.351H635.245L640.472 260.964L647.005 258.351L652.232 255.739L654.845 249.208L656.152 243.983L663.992 241.37V237.452L666.606 233.533L674.446 232.227L684.899 229.614L690.126 221.777L696.66 224.389L701.887 229.614L703.193 227.002H711.034L708.42 230.92L712.34 233.533L717.567 237.452L720.18 247.901L711.034 255.739L724.101 267.495L729.327 266.189L741.088 255.739H754.155C755.898 254.869 759.381 252.604 759.381 250.514C759.381 248.424 761.125 247.901 761.995 247.901L768.528 249.208L767.222 243.983L777.675 237.452H778.982L785.516 241.37H793.356C794.662 240.934 797.276 239.542 797.276 237.452C797.276 235.362 799.889 233.097 801.196 232.227H806.423L818.183 229.614L829.943 227.002V220.471L832.557 211.327L839.09 195.652L835.17 191.734C833.427 190.427 830.466 187.815 832.557 187.815C835.17 187.815 829.943 178.671 829.943 176.059C829.943 173.969 828.2 169.963 827.33 168.221L832.557 161.69L840.397 156.465H835.17L827.33 160.384L822.103 164.303L816.876 165.609H803.809L793.356 160.384L789.436 165.609L782.902 173.446L777.675 176.059L772.448 173.446V177.365L768.528 183.896L767.222 189.121L772.448 198.265L767.222 200.877L760.688 206.102L754.155 203.49V191.734L747.621 194.346C743.701 192.169 735.338 187.292 733.247 185.202C731.157 183.112 730.634 186.073 730.634 187.815L725.407 185.202L717.567 182.59L716.26 194.346H713.647C711.904 192.169 708.159 187.292 707.113 185.202C706.068 183.112 704.064 184.332 703.193 185.202H694.046L690.126 177.365L684.899 182.59H677.059L671.832 191.734H663.992C661.379 191.734 654.845 194.346 652.232 191.734C649.619 189.121 647.005 191.734 644.392 189.121C642.301 187.031 642.649 185.638 643.085 185.202L647.005 177.365L654.845 176.059L658.765 173.446L656.152 168.221H649.619L647.005 173.446H641.778L637.858 168.221L635.245 164.303H632.631L627.405 170.834H622.178L618.258 160.384L615.644 161.69V168.221L618.258 176.059L611.724 179.978L606.497 176.059L610.418 170.834L605.191 168.221L602.577 170.834L605.191 178.671L603.884 182.59L599.964 187.815H592.124L586.897 194.346H581.67L579.057 187.815L581.67 177.365L585.59 168.221L581.67 164.303L575.137 173.446H569.91L565.99 177.365L560.763 170.834V160.384V155.159L558.149 157.772L552.923 161.69L549.003 164.303H542.469L535.936 168.221L529.402 173.446H524.175L518.948 168.221L521.562 164.303L528.095 155.159L532.015 149.934V140.791L529.402 138.178L515.028 149.934L505.881 157.772L498.041 153.853V157.772L495.428 164.303H491.508L483.668 160.384L482.361 165.609L477.134 164.303V168.221L483.668 177.365V182.59L477.134 181.284L470.601 173.446H466.68L462.76 182.59H456.227H447.08V187.815L443.16 191.734L441.853 198.265L439.24 203.49L434.013 206.102H430.093L427.479 200.877H423.559V203.49H417.026V211.327H413.106V213.939V217.858H406.572V220.471L402.652 229.614L393.505 232.227L388.278 238.758L385.665 241.37L388.278 242.676V255.739L383.052 262.27L393.505 267.495V274.026L390.892 279.251H385.665L383.052 274.026L379.131 270.107H371.291L363.451 262.27L359.531 264.882V270.107H355.611L351.691 274.026H345.157L343.851 277.945L339.93 279.251L343.851 287.088L337.317 289.701L332.09 288.394L328.17 291.007L322.943 292.313L316.41 289.701L312.49 293.619L303.343 298.844V304.069L296.809 296.232L295.503 289.701L290.276 291.007L283.742 292.313L277.209 288.394L282.436 284.476V279.251H277.209L271.982 284.476L264.142 283.17L262.835 284.476H260.222L257.608 287.088H252.381V289.701H248.461L245.848 296.232L240.621 288.394L238.008 291.007H231.474V301.457L223.634 298.844V288.394L219.714 281.863L221.021 279.251H217.101L213.18 284.476L206.647 288.394H201.42L196.193 284.476L193.58 293.619L190.966 294.926L187.046 293.619L185.74 289.701L183.126 291.007L179.206 287.088L176.593 283.17L171.366 284.476L173.979 289.701L168.753 291.007V296.232H166.139L162.219 294.926H156.992H153.072L149.152 296.232V298.844L146.539 301.457L140.005 298.844L138.698 301.457L146.539 306.682L143.925 310.6H137.392V313.213L128.245 317.132L130.858 322.356L125.631 324.969H121.711L117.791 319.744L113.871 313.213L111.258 322.356H104.724L102.111 326.275L98.1907 334.112L90.3505 336.725V340.644L82.5103 343.256L79.8969 348.481L77.2835 360.237L70.75 369.381H68.1366L57.683 373.299H49.8428L55.0696 382.443H60.2964L65.5232 385.055L73.3634 387.668H79.8969L86.4304 388.974L89.0438 395.505L90.3505 402.036L96.884 398.118L111.258 402.036L120.405 407.261L125.631 405.955L130.858 398.118L138.698 391.587L146.539 387.668L151.765 391.587V398.118L156.992 402.036L154.379 404.649L159.606 407.261L168.753 405.955L175.286 411.18L180.513 402.036L185.74 404.649V411.18L190.966 413.792L193.58 411.18L200.113 413.792V420.324L207.954 417.711L206.647 422.936L213.18 428.161L206.647 446.448L209.914 452.979L213.18 459.51Z" stroke="black" stroke-width="2" mask="url(#path-3-inside-1_275_19)"/>
</g>
<defs>
<filter id="filter0_d_275_19" x="831.923" y="251.296" width="54.7883" height="40.3887" filterUnits="userSpaceOnUse" color-interpolation-filters="sRGB">
<feFlood flood-opacity="0" result="BackgroundImageFix"/>
<feColorMatrix in="SourceAlpha" type="matrix" values="0 0 0 0 0 0 0 0 0 0 0 0 0 0 0 0 0 0 127 0" result="hardAlpha"/>
<feOffset dy="4"/>
<feGaussianBlur stdDeviation="2"/>
<feComposite in2="hardAlpha" operator="out"/>
<feColorMatrix type="matrix" values="0 0 0 0 0 0 0 0 0 0 0 0 0 0 0 0 0 0 0.25 0"/>
<feBlend mode="normal" in2="BackgroundImageFix" result="effect1_dropShadow_275_19"/>
<feBlend mode="normal" in="SourceGraphic" in2="effect1_dropShadow_275_19" result="shape"/>
</filter>
<filter id="filter1_d_275_19" x="45.8428" y="138.178" width="798.554" height="395.95" filterUnits="userSpaceOnUse" color-interpolation-filters="sRGB">
<feFlood flood-opacity="0" result="BackgroundImageFix"/>
<feColorMatrix in="SourceAlpha" type="matrix" values="0 0 0 0 0 0 0 0 0 0 0 0 0 0 0 0 0 0 127 0" result="hardAlpha"/>
<feOffset dy="4"/>
<feGaussianBlur stdDeviation="2"/>
<feComposite in2="hardAlpha" operator="out"/>
<feColorMatrix type="matrix" values="0 0 0 0 0 0 0 0 0 0 0 0 0 0 0 0 0 0 0.25 0"/>
<feBlend mode="normal" in2="BackgroundImageFix" result="effect1_dropShadow_275_19"/>
<feBlend mode="normal" in="SourceGraphic" in2="effect1_dropShadow_275_19" result="shape"/>
</filter>
</defs>
</svg>
