<svg width="1197" height="722" viewBox="0 0 1197 722" fill="none" xmlns="http://www.w3.org/2000/svg">
<rect x="0.5" y="0.5" width="1196" height="721" rx="35.5" fill="#97DCFF" stroke="#717171"/>
<g filter="url(#filter0_d_275_34)">
<path d="M335 338.5L341.5 351L346 354L357.5 356L359 358.5L361.5 366.5L366 375L367.5 382L374 389.5L370.5 399L361.5 409.5L366 414.5L361.5 421L364 436L359 438.5H357.5V446.5H359L361.5 448L357.5 450V458L355 462.5L361.5 466L367.5 468.5L366 474.5L355 478.5L353.5 481L350.5 487.5L352 498L359 500V507H364L361.5 504V500V496L364 495L369 493.5L372.5 498H380.5L388 500H395.5L399 498L400.5 493.5L406.5 489.5H421L430.5 492L437 495L436 492H441.5L443 496L447.5 500L455 507L459.5 505.5C461.5 506.833 465.8 509.5 467 509.5C468.2 509.5 467.5 506.833 467 505.5L464 502.5L473 498V496L476.5 500L488 498L489.5 502.5L492.5 498H500.5H507.5C508.7 498 511.333 495 512.5 493.5L522.5 489.5V484.5L517.5 489.5L514 487.5V484.5H517.5V481H520L528.5 476.5L534.5 478.5V487.5L537 483H549L554 487.5L566 489.5L569 492L578.5 487.5L584 486L588.5 489.5V492L591 493.5L593 492H599.5L602.5 493.5L612.5 492L616 489.5H621.5L636 483H639.5H644H651L657 487.5L664.5 495.5H668.5L674 500.5L680.5 504.5L687 498L699.5 489.5L708.5 487.5L713.5 493.5L720.5 495.5V502.5L724 500.5L728.5 502.5L736 506L753 495.5L764.5 500.5L760 504.5L751 502.5L753 509.5L757.5 506H762L774 508L785.5 500.5H791L797.5 495.5L802 493.5H805.5L815.5 498L819.5 495.5C821.833 493.5 826.5 489.1 826.5 487.5C826.5 485.9 833.5 486.833 837 487.5L845.5 491H847H852.5L869 487.5L879 483H881.5L887 476H892L897.5 471.5L902 464V455.5L907.5 452.5L910 455.5L917 452.5L915.5 447.5L919 442.5V438.5L923.5 428.5C925 424.5 928.1 416.3 928.5 415.5C928.9 414.7 935.667 409.833 939 407.5L945.5 400.5L958.5 404L956.5 398L970 392L977 395L985 392L980.5 388.456L989 389L993 384L998 382L993 377.5L996 375L1000 372L993 369L987.5 372L983 369L985 362.5L983 356.5L985 353V343.5L983 333.5L987.5 323L989 317H985L980.5 323L977 320L972 326H964L961.5 323H956.5C954.333 322 949.7 320 948.5 320C947.3 320 940.667 318 937.5 317L926.5 309.5V304.5L919 306.5V302L913.5 306.5L907.5 304.5L903 299L894 296.5L884.5 294.5L874.5 288.5L869 290L864.5 291L854 289.5L845 285.5H839.5L838.5 288.5L834 291L827.5 292.5L822.5 291L819.5 287H809.5C808.3 287 804 285.333 802 284.5L800.5 283L787.5 282L789.5 285.5H795.5L793.5 287L796.5 288.5L803 292.5C801.333 293.667 797.9 296.1 797.5 296.5C797.1 296.9 793 294.333 791 293L781 288.5L779 284.5L772 288.5H767L762 285.5V280L754.5 283C750.833 282.667 743.3 282 742.5 282C741.7 282 738.167 280 736.5 279L732 278H725L721.5 280L717.5 278L711.5 279L700.5 275L685 273.5L683 276L680.5 273.5L676 272L659.5 275L655.5 281L652 282L635 279L626 275L620.5 276L617 274L602 275L587 271.5H580.5L578.5 272.5H567.5L561 276H557L550 283.5L522 272.5H498.5L476 275C473.167 275.167 467.1 274.9 465.5 272.5C463.9 270.1 452.833 271.5 447.5 272.5L434 263.5H406H383.5L375 272.5L370.5 277.5V283.5L375 300L363 311L349.5 317.5L329 324V327.5L335 338.5Z" fill="#FFD597"/>
<path d="M64 432.5L62 439.5V445.5L67 448.5L78.5 456L89 453.5L92.5 448.5L96 445.5L100.5 439.5L97.5 430.5L92.5 427.5L86.5 430.5L77 429L72.5 427.5L64 432.5Z" fill="#FFD597"/>
<path d="M1004 428.5V435.5L1006 438.5L1009.5 441.5L1015 443L1022 444.5L1035 439.5L1043.5 438.5L1052.5 439.5L1054.5 441.5L1059 438L1060 439.5L1066.5 437L1062.5 434V433L1068.5 435L1078 431.5L1081.5 431L1084.5 434L1088.5 427H1095L1093 431H1097.5L1099 428.5L1107 425.5L1112 424V422L1117.5 424L1125.5 422L1119 416.5L1113.5 419.5L1104 416.5L1093 413L1083 411.5H1077H1069.5L1064.5 413L1061 411.5L1057.5 413L1055.5 416.5L1043.5 419.5L1037.5 422H1029.5V424L1016 428.5H1004Z" fill="#FFD597"/>
<path d="M1109 349.5L1119 359H1121V355L1115 351V348H1119C1120.5 348.5 1123.9 349.8 1125.5 351C1127.5 352.5 1129.5 353 1131.5 353C1133.1 353 1132.17 349.667 1131.5 348C1132.17 348.5 1134.4 349.2 1138 348C1139.2 346.8 1140.5 347.5 1141 348L1138 343.5L1133.5 339L1129.5 341.5L1125.5 339H1107L1101 332L1098 333.5L1101 337L1102.5 341.5L1099.5 343.5H1093L1098 345.5L1102.5 353L1104 349.5V345.5L1109 349.5Z" fill="#FFD597"/>
<path d="M335 338.5L341.5 351L346 354L357.5 356L359 358.5L361.5 366.5L366 375L367.5 382L374 389.5L370.5 399L361.5 409.5L366 414.5L361.5 421L364 436L359 438.5H357.5V446.5H359L361.5 448L357.5 450V458L355 462.5L361.5 466L367.5 468.5L366 474.5L355 478.5L353.5 481L350.5 487.5L352 498L359 500V507H364L361.5 504V500V496L364 495L369 493.5L372.5 498H380.5L388 500H395.5L399 498L400.5 493.5L406.5 489.5H421L430.5 492L437 495L436 492H441.5L443 496L447.5 500L455 507L459.5 505.5C461.5 506.833 465.8 509.5 467 509.5C468.2 509.5 467.5 506.833 467 505.5L464 502.5L473 498V496L476.5 500L488 498L489.5 502.5L492.5 498H500.5H507.5C508.7 498 511.333 495 512.5 493.5L522.5 489.5V484.5L517.5 489.5L514 487.5V484.5H517.5V481H520L528.5 476.5L534.5 478.5V487.5L537 483H549L554 487.5L566 489.5L569 492L578.5 487.5L584 486L588.5 489.5V492L591 493.5L593 492H599.5L602.5 493.5L612.5 492L616 489.5H621.5L636 483H639.5H644H651L657 487.5L664.5 495.5H668.5L674 500.5L680.5 504.5L687 498L699.5 489.5L708.5 487.5L713.5 493.5L720.5 495.5V502.5L724 500.5L728.5 502.5L736 506L753 495.5L764.5 500.5L760 504.5L751 502.5L753 509.5L757.5 506H762L774 508L785.5 500.5H791L797.5 495.5L802 493.5H805.5L815.5 498L819.5 495.5C821.833 493.5 826.5 489.1 826.5 487.5C826.5 485.9 833.5 486.833 837 487.5L845.5 491H847H852.5L869 487.5L879 483H881.5L887 476H892L897.5 471.5L902 464V455.5L907.5 452.5L910 455.5L917 452.5L915.5 447.5L919 442.5V438.5L923.5 428.5C925 424.5 928.1 416.3 928.5 415.5C928.9 414.7 935.667 409.833 939 407.5L945.5 400.5L958.5 404L956.5 398L970 392L977 395L985 392L980.5 388.456L989 389L993 384L998 382L993 377.5L996 375L1000 372L993 369L987.5 372L983 369L985 362.5L983 356.5L985 353V343.5L983 333.5L987.5 323L989 317H985L980.5 323L977 320L972 326H964L961.5 323H956.5C954.333 322 949.7 320 948.5 320C947.3 320 940.667 318 937.5 317L926.5 309.5V304.5L919 306.5V302L913.5 306.5L907.5 304.5L903 299L894 296.5L884.5 294.5L874.5 288.5L869 290L864.5 291L854 289.5L845 285.5H839.5L838.5 288.5L834 291L827.5 292.5L822.5 291L819.5 287H809.5C808.3 287 804 285.333 802 284.5L800.5 283L787.5 282L789.5 285.5H795.5L793.5 287L796.5 288.5L803 292.5C801.333 293.667 797.9 296.1 797.5 296.5C797.1 296.9 793 294.333 791 293L781 288.5L779 284.5L772 288.5H767L762 285.5V280L754.5 283C750.833 282.667 743.3 282 742.5 282C741.7 282 738.167 280 736.5 279L732 278H725L721.5 280L717.5 278L711.5 279L700.5 275L685 273.5L683 276L680.5 273.5L676 272L659.5 275L655.5 281L652 282L635 279L626 275L620.5 276L617 274L602 275L587 271.5H580.5L578.5 272.5H567.5L561 276H557L550 283.5L522 272.5H498.5L476 275C473.167 275.167 467.1 274.9 465.5 272.5C463.9 270.1 452.833 271.5 447.5 272.5L434 263.5H406H383.5L375 272.5L370.5 277.5V283.5L375 300L363 311L349.5 317.5L329 324V327.5L335 338.5Z" stroke="black"/>
<path d="M64 432.5L62 439.5V445.5L67 448.5L78.5 456L89 453.5L92.5 448.5L96 445.5L100.5 439.5L97.5 430.5L92.5 427.5L86.5 430.5L77 429L72.5 427.5L64 432.5Z" stroke="black"/>
<path d="M1004 428.5V435.5L1006 438.5L1009.5 441.5L1015 443L1022 444.5L1035 439.5L1043.5 438.5L1052.5 439.5L1054.5 441.5L1059 438L1060 439.5L1066.5 437L1062.5 434V433L1068.5 435L1078 431.5L1081.5 431L1084.5 434L1088.5 427H1095L1093 431H1097.5L1099 428.5L1107 425.5L1112 424V422L1117.5 424L1125.5 422L1119 416.5L1113.5 419.5L1104 416.5L1093 413L1083 411.5H1077H1069.5L1064.5 413L1061 411.5L1057.5 413L1055.5 416.5L1043.5 419.5L1037.5 422H1029.5V424L1016 428.5H1004Z" stroke="black"/>
<path d="M1109 349.5L1119 359H1121V355L1115 351V348H1119C1120.5 348.5 1123.9 349.8 1125.5 351C1127.5 352.5 1129.5 353 1131.5 353C1133.1 353 1132.17 349.667 1131.5 348C1132.17 348.5 1134.4 349.2 1138 348C1139.2 346.8 1140.5 347.5 1141 348L1138 343.5L1133.5 339L1129.5 341.5L1125.5 339H1107L1101 332L1098 333.5L1101 337L1102.5 341.5L1099.5 343.5H1093L1098 345.5L1102.5 353L1104 349.5V345.5L1109 349.5Z" stroke="black"/>
</g>
<defs>
<filter id="filter0_d_275_34" x="57.5" y="263" width="1087.92" height="255.349" filterUnits="userSpaceOnUse" color-interpolation-filters="sRGB">
<feFlood flood-opacity="0" result="BackgroundImageFix"/>
<feColorMatrix in="SourceAlpha" type="matrix" values="0 0 0 0 0 0 0 0 0 0 0 0 0 0 0 0 0 0 127 0" result="hardAlpha"/>
<feOffset dy="4"/>
<feGaussianBlur stdDeviation="2"/>
<feComposite in2="hardAlpha" operator="out"/>
<feColorMatrix type="matrix" values="0 0 0 0 0 0 0 0 0 0 0 0 0 0 0 0 0 0 0.25 0"/>
<feBlend mode="normal" in2="BackgroundImageFix" result="effect1_dropShadow_275_34"/>
<feBlend mode="normal" in="SourceGraphic" in2="effect1_dropShadow_275_34" result="shape"/>
</filter>
</defs>
</svg>
