<svg width="726" height="918" viewBox="0 0 726 918" fill="none" xmlns="http://www.w3.org/2000/svg">
<rect x="0.5" y="0.5" width="725" height="917" rx="35.5" fill="#97DCFF" stroke="#717171"/>
<g filter="url(#filter0_d_282_46)">
<path d="M261.186 591.57C266.249 597.351 277.892 608.913 283.966 608.913C287.944 627.339 298.936 664.191 311.085 664.191C323.234 664.191 329.887 644.681 331.695 634.926L343.627 578.564V542.795L325.186 525.453L311.085 488.601L325.186 459.336V417.064L311.085 404.057L295.898 417.064L225.39 496.188V542.795V564.473H251.424L261.186 591.57Z" fill="#FFD597"/>
<path d="M197.186 754.154L182 778H203.695L217.797 764.993L197.186 754.154Z" fill="#FFD597"/>
<path d="M429.322 404.057L448.847 417.064L467.288 404.057V369.372L456.441 348.779L448.847 330.352L467.288 321.681C476.689 322.404 499.397 325.15 515.017 330.352C530.637 335.555 521.525 321.681 515.017 314.094V282.661L495.492 256.648L526.949 221.963L552.983 195.95L566 173.188V150.426L544.305 132L526.949 150.426L503.085 173.188L473.797 186.195L448.847 205.705L429.322 221.963L413.051 239.305V282.661L388.102 301.087L381.593 357.45L388.102 388.883L429.322 404.057Z" fill="#FFD597"/>
<path d="M261.186 591.57C266.249 597.351 277.892 608.913 283.966 608.913C287.944 627.339 298.936 664.191 311.085 664.191C323.234 664.191 329.887 644.681 331.695 634.926L343.627 578.564V542.795L325.186 525.453L311.085 488.601L325.186 459.336V417.064L311.085 404.057L295.898 417.064L225.39 496.188V542.795V564.473H251.424L261.186 591.57Z" stroke="black"/>
<path d="M197.186 754.154L182 778H203.695L217.797 764.993L197.186 754.154Z" stroke="black"/>
<path d="M429.322 404.057L448.847 417.064L467.288 404.057V369.372L456.441 348.779L448.847 330.352L467.288 321.681C476.689 322.404 499.397 325.15 515.017 330.352C530.637 335.555 521.525 321.681 515.017 314.094V282.661L495.492 256.648L526.949 221.963L552.983 195.95L566 173.188V150.426L544.305 132L526.949 150.426L503.085 173.188L473.797 186.195L448.847 205.705L429.322 221.963L413.051 239.305V282.661L388.102 301.087L381.593 357.45L388.102 388.883L429.322 404.057Z" stroke="black"/>
</g>
<defs>
<filter id="filter0_d_282_46" x="177.089" y="131.311" width="393.411" height="655.189" filterUnits="userSpaceOnUse" color-interpolation-filters="sRGB">
<feFlood flood-opacity="0" result="BackgroundImageFix"/>
<feColorMatrix in="SourceAlpha" type="matrix" values="0 0 0 0 0 0 0 0 0 0 0 0 0 0 0 0 0 0 127 0" result="hardAlpha"/>
<feOffset dy="4"/>
<feGaussianBlur stdDeviation="2"/>
<feComposite in2="hardAlpha" operator="out"/>
<feColorMatrix type="matrix" values="0 0 0 0 0 0 0 0 0 0 0 0 0 0 0 0 0 0 0.25 0"/>
<feBlend mode="normal" in2="BackgroundImageFix" result="effect1_dropShadow_282_46"/>
<feBlend mode="normal" in="SourceGraphic" in2="effect1_dropShadow_282_46" result="shape"/>
</filter>
</defs>
</svg>
