<svg width="1971" height="1026" viewBox="0 0 1971 1026" fill="none" xmlns="http://www.w3.org/2000/svg">
<rect x="0.5" y="0.5" width="1970" height="1025" rx="35.5" fill="#97DCFF" stroke="#717171"/>
<g filter="url(#filter0_d_287_9)">
<path d="M726.5 485L758.5 502.5L750.5 513.5H739.5L737 521L739.5 528L750.5 547.5V569L763.5 566L771.5 574.5L778.5 576.5L786 582L795 589L807.5 591L814 606C816.333 605.167 821.4 603 823 601C824.6 599 828.333 603.5 830 606H844.5H852.5V596L860 603.5L866 601L877.5 598.5L881 606L896.5 614L918 629L928 643L936.5 632.5H945L952.5 634.5L958.5 629L952.5 614L945 603.5V622H931.5L936.5 611.5L931.5 606L928 598.5H915L912.5 591V582L936.5 584.5C939.333 586.667 945 592 945 596C945 600 950 594.333 952.5 591L958.5 579L952.5 576.5L976.5 566V582L994 574.5L1008 572.5H1016C1019.17 572.833 1026.4 573.3 1030 572.5C1033.6 571.7 1030.17 580.167 1028 584.5C1031.83 586.167 1040 589.8 1042 591C1044.5 592.5 1056.5 601 1059 603.5C1061 605.5 1064.5 599.333 1066 596C1063.67 592.667 1059.3 585.7 1060.5 584.5C1062 583 1068 581.5 1073 579C1077 577 1080.33 582.833 1081.5 586H1096.5C1095.83 584.167 1094.1 580.2 1092.5 579C1090.9 577.8 1085.83 571.833 1083.5 569L1071 562.5L1066 550L1056.5 554L1046 544L1039.5 550L1028 554V547.5L1046 540L1056.5 532.5L1059 521L1046 510L1042 502.5L1033 496.5L1039.5 489.5L1037.5 485L1028 481.5C1024.17 483.667 1015.9 488.3 1013.5 489.5C1011.1 490.7 1003.83 480 1000.5 474.5C993.5 469.333 979.5 458.6 979.5 457C979.5 455.4 972.5 452.667 969 451.5L979.5 448.5L985 444H969L967 437L940.5 433.5L931.5 437L920.5 421.5L896.5 416.5L884.5 421.5L877.5 412L881 402.5L875 389.5H863L858 392.5L844.5 389.5C840 386.333 830.8 379.3 830 376.5C829 373 813 372 811.5 372H780.5L775 361.5L754.5 355.5L737 335L724.5 332.5L704 318.5L695 311L686 303H674.5C677.5 305.5 684 310.6 686 311C688 311.4 689.167 318.5 689.5 322C693.5 325.5 702 332.5 704 332.5C706 332.5 711.833 338.833 714.5 342C717.667 345.167 724.5 351.5 726.5 351.5C728.5 351.5 734.333 356.167 737 358.5L748.5 372C746 377.5 740.7 388.7 739.5 389.5C738.3 390.3 730.333 398.5 726.5 402.5L719 398L708.5 395.5L689.5 385.5L668 366.5C666.667 363.167 663.7 356.3 662.5 355.5C661 354.5 645 349 643 346C641 343 635.5 337 634 332.5C632.8 328.9 629.5 331 628 332.5V342V349L624 358.5H603.5C601.9 358.5 596.167 353.833 593.5 351.5L589.5 358.5C587.333 356.5 582.6 351.8 581 349C579.4 346.2 571 354.167 567 358.5C557.167 355.333 536.9 348.4 534.5 346C532.1 343.6 506.167 347 493.5 349H466V372L452 395.5L442 385.5L414.5 366.5L405.5 380L376.5 395.5H363.5L341.5 390L300.5 395.5V405.5L289.5 434H273L308.5 464L317 475H331.5H349H363.5L376.5 464L386.5 475L405.5 464L436.5 450.5L458.5 440.5H482.5L493.5 464H521.5V475L509 485L501.5 502.5L534.5 509L554.5 524.5V517L572 502.5V517V535.5L583 549L589.5 524.5L610.5 535.5L624 509L649.5 502.5L668 509L674.5 494.5C680.5 491.333 693.6 485 698 485H726.5Z" fill="#FFD597" stroke="black"/>
<path d="M626.5 596L620.5 619L615.5 625.5H608.5L604 622.5H596V609H612L615.5 605V599.5L592.5 596L596 587.5L608.5 584C607.333 578.833 604.8 568.5 604 568.5C603.2 568.5 614.667 564.833 620.5 563L638.5 547.5V539L657.5 528L668.5 539V553L675 568.5L668.5 581L662.5 568.5L649.5 563L631.5 573L626.5 596Z" fill="#FFD597"/>
<path d="M695.5 549L700 555.5L704 554.5C707 551.5 713.3 545.5 714.5 545.5C715.7 545.5 713.333 540.5 712 538L707.5 529L704 526.5L695.5 525L698.5 516V506L683.5 502L678.5 508.5L685 516L690 525C690.333 529.667 690.8 539.2 690 540C689.2 540.8 693.333 546.333 695.5 549Z" fill="#FFD597"/>
<path d="M1075.5 548L1070 551.5L1073 553.5C1075 552.833 1079.2 551.5 1080 551.5C1080.8 551.5 1086 549.167 1088.5 548L1094 550H1102.5L1103.5 540L1091.5 538.5H1075.5L1076.5 543L1070 546L1075.5 548Z" fill="#FFD597"/>
<path d="M538.5 297L540.5 304.5C540.5 306 540.9 309.3 542.5 310.5C544.1 311.7 548.167 312 550 312L553 314L561 316.5L571.5 326V314L563 309V297C564 295.833 566 293.2 566 292C566 290.8 553 291.5 546.5 292V287.5L540.5 283.5L534.5 285.5L529.5 287.5L538.5 297Z" fill="#FFD597"/>
<path d="M823 265L816.5 278.5L806 280.5L802 267.5L797 265L791 259L785 246.5V227.5C785.667 226.667 787.3 225 788.5 225C789.7 225 786.667 223.333 785 222.5L773.5 218.5L768.5 209L773.5 207H795L804 214L814.5 218.5L823 225L829 231V236L835 241L839 250.5V261.5H829L823 265Z" fill="#FFD597"/>
<path d="M1018.5 397.5L1024 389.5V386L1034 389.5L1042 401.5L1048 408L1042 410.5L1034 418L1028 410.5H1010.5L1003 408L981.5 410.5L965 397.5V401.5H942L937 395H959V392.5H973.5V395H986.5V397.5H1018.5Z" fill="#FFD597"/>
<path d="M1105.5 397.5L1083.5 410.5H1102.5L1110.5 406L1128.5 399L1105.5 397.5Z" fill="#FFD597"/>
<path d="M1178.5 395H1143.5L1149.5 404H1165.5L1178.5 406V395Z" fill="#FFD597"/>
<path d="M1210.5 389.5H1187L1196.5 399L1201 401.5L1208 404V397.5L1210.5 395H1235.5L1237 392.5L1245.5 388L1248 381.5L1244 379L1240 376L1235.5 374.5L1229 383H1224L1220.5 386H1213L1210.5 389.5Z" fill="#FFD597"/>
<path d="M799 181.5V188L800.5 191L802 194L806 198L809.5 200.5H820.5L823 194L826.5 188L819 179H812.5L809.5 176.5L800.5 175L797 179L799 181.5Z" fill="#FFD597"/>
<path d="M554.5 257L546.5 259L544 260L538.5 256V252.5L534.5 250L535.5 246.5L540.5 241L537 239.5V223L540 223.5L542 228L544 233L549 239.5C549.667 241.5 551.1 245.5 551.5 245.5C551.9 245.5 557 250.167 559.5 252.5L565.5 257.5L561 259L554.5 257Z" fill="#FFD597"/>
<path d="M256.5 401V416L253 418.5L249.5 416L247 414V406.5L249.5 401H256.5Z" fill="#FFD597"/>
<path d="M232.5 389.5L230.5 383L227.5 381H220.5L216.5 386.5H208.5L206 388L213.5 392.5L219 394.5L225 401L232.5 398V389.5Z" fill="#FFD597"/>
<path d="M129.5 468V455H127L118.5 463.5C117 463.667 113.7 463.9 112.5 463.5C111.3 463.1 100 476 94.5 482.5L92.5 488L90 493L88 497.5V503L92.5 500.5H98.5V497.5H118.5L133 485L136 477.5L129.5 468Z" fill="#FFD597"/>
<path d="M432.5 625.5L424 630.5L426.5 636.5H432.5L441 630.5L432.5 625.5Z" fill="#FFD597"/>
<path d="M852 745V760L862 754.5L873 753V746.5L870.5 741.5H859.5L856 746.5L852 745Z" fill="#FFD597"/>
<path d="M894.5 753L880.5 754.5L882 758.5L887 760L894.5 764.5V758.5V753Z" fill="#FFD597"/>
<path d="M984.5 622.5H970.5L969 625H971.5L973.5 627.5H979L980 626H982.5L984.5 622.5Z" fill="#FFD597"/>
<path d="M1112.5 622L1104.5 629V632L1106 633L1108.5 631H1134.5V627.5L1129.5 625L1130.5 622L1127.5 620C1127.17 619.333 1126.7 617.8 1127.5 617C1128.3 616.2 1129.83 614.333 1130.5 613.5L1138.5 606.5L1147.5 605.5C1147.67 604.5 1147.9 602.3 1147.5 601.5C1147.1 600.7 1145.67 598.833 1145 598H1140.5L1137 600L1134.5 598L1131.5 597L1130.5 594.5L1134.5 591.5L1135 586L1130.5 588L1112.5 589L1115 592V597L1118.5 598L1117 613.5L1112.5 618V622Z" fill="#FFD597"/>
<path d="M1136.5 647.5H1127.5V661L1133 662L1135.5 660L1138.5 659L1141.5 661C1143.5 661.333 1147.7 662 1148.5 662C1149.3 662 1149.5 663.667 1149.5 664.5L1154 663L1152.5 661L1149.5 658L1148.5 648L1146 646.5V641L1145 639.5L1136.5 647.5Z" fill="#FFD597"/>
<path d="M1174.5 669.5L1174 667.5L1171 667V669.5L1173 670.5L1174.5 675L1184.5 675.5V672H1180L1178.5 670L1174.5 669.5Z" fill="#FFD597"/>
<path d="M1284.5 478L1248 499L1249.5 502L1252.5 507.5L1263 508.5L1267 512L1265.5 517.5L1261.5 522.5H1254L1248 521.5L1246 525.5L1245.5 536L1242.5 541C1244.33 541.5 1248.3 542.6 1249.5 543C1250.7 543.4 1252 540.167 1252.5 538.5H1259.5C1260.5 537.167 1262.6 534.4 1263 534C1263.5 533.5 1266.5 536 1267 536C1267.4 536 1266.83 539.333 1266.5 541L1258.5 546.5L1259.5 551L1261.5 559.5L1265.5 565L1270 566.5L1274 561.5L1279 558L1282 560.5L1284.5 558L1288.5 557C1290.17 558.333 1293.6 561.1 1294 561.5C1294.4 561.9 1292.5 565.333 1291.5 567L1282 573L1278 578L1277 581L1278 583.5L1279 586.5L1281 590.5L1289.5 592L1295 586.5L1300 581L1306 579.5L1310 581.5L1310.5 585L1307 588L1304.5 592L1303.5 597L1308.5 597.5C1309.17 598.333 1310.5 600.2 1310.5 601C1310.5 601.8 1312.17 602.667 1313 603H1318V605L1323.5 606L1323 599L1322.5 597L1321 595.5L1318 593.5L1321 589.5L1324.5 589L1330 586.5L1333.5 583.5L1343 583L1345 581V575L1348 572.5L1349.5 569L1352.5 564.5L1356 567.5L1360.5 571.5L1363.5 572.5L1366.5 570.5H1369L1373 572.5L1373.5 576L1375.5 578V590.5L1373.5 592V601L1375.5 603L1379 605V569.5L1381 566L1383 561L1385.5 556L1387 558L1389.5 558.5L1390.5 561L1394.5 562L1395.5 580H1405L1407.5 583H1418V582C1418.67 581.333 1420.1 580 1420.5 580C1420.9 580 1429.67 570.667 1434 566L1441 559.5L1446.5 553.5C1447.33 552.667 1449.3 551 1450.5 551C1451.7 551 1453 549.667 1453.5 549L1457 548V551L1460.5 554.5L1462.5 560L1467.5 566L1472 566.5L1480.5 575L1484.5 576.5L1488 580L1492 581L1493 582.5L1500.5 583.5L1501 585L1505 586L1506 588L1512.5 588.5L1515.5 591L1519 588L1519.5 582.5L1522.5 575L1526 580L1531.5 581V576.5L1534.5 575L1534 571L1536 566.5L1545 575.5L1547.5 576.5C1547.83 575.5 1548.5 573.3 1548.5 572.5C1548.5 571.7 1550.17 571.833 1551 572L1554.5 574L1565 575.5L1562.5 578.5L1561 593L1557 596.5V613L1558.5 612.5C1558.5 613.833 1558.6 616.8 1559 618C1559.4 619.2 1560.5 618.5 1561 618L1565 614.5L1569.5 613L1568 607.5L1570.5 604.5H1575L1578.5 606.5L1575 611L1577.5 613.5L1585.5 616L1596 615L1598.5 614.5V624L1602.5 624.5L1604.5 622.5C1605.83 621.667 1608.6 620 1609 620C1609.4 620 1611.17 618.667 1612 618C1614 617.5 1618.1 616.5 1618.5 616.5C1619 616.5 1620.5 614.5 1621 614.5C1621.4 614.5 1620.83 618.5 1620.5 620.5L1623 622V628L1625 629L1627 634.5L1630 635L1634.5 640V657H1638V653.5L1641 651.5L1640 648.5L1643 646.5V642.5L1645 641.5L1645.5 636L1643.5 634.5L1643 625.5L1641 623L1640 616.5L1637.5 615L1639 606L1641 597.5L1645.5 596.5C1645.17 595.667 1644.3 593.9 1643.5 593.5C1642.7 593.1 1642.83 590 1643 588.5H1641L1638.5 583L1637.5 580.5L1646.5 573L1650 572L1655.5 567.5L1656 564L1645.5 554.5V524.5H1632.5L1630.5 527.5L1619 514.5L1618.5 509L1614 502C1609.33 501.833 1599.8 501.4 1599 501C1598.2 500.6 1598 494.833 1598 492L1596.5 491C1596.33 487.5 1595.9 480.5 1595.5 480.5C1595.1 480.5 1593.67 478.5 1593 477.5L1590.5 474V470L1586 468L1581.5 460.5L1585 456.5L1592 453.5C1593.67 453.833 1597.2 454.6 1598 455C1599 455.5 1601.5 460 1601 460C1600.6 460 1607.83 461 1611.5 461.5L1612.5 476L1614.5 479.5C1616.67 479.833 1621.2 480.5 1622 480.5C1622.8 480.5 1624.33 478.833 1625 478L1628.5 477.5L1630.5 475L1633.5 474L1637.5 471.5L1637 458.5L1632.5 455L1628.5 447.5V441L1631 438L1631.5 431L1629.5 429.5L1628.5 426L1630.5 423L1635.5 422.5L1637.5 419.5L1642.5 420L1647.5 417L1649 421.5L1651.5 427.5L1654 424.5L1660 423L1664 419L1669.5 417L1676.5 414.5L1683.5 417.5L1673.5 427.5L1672.5 430.5H1677.5L1679.5 432L1684 434L1682 440L1679.5 444.5L1675.5 447.5L1678.5 448L1682.5 444.5H1687L1682 450C1681.5 453 1680.6 459.2 1681 460C1681.4 460.8 1676.17 460.333 1673.5 460V464.5C1675.5 466.833 1679.6 471.6 1680 472C1680.4 472.4 1681.5 475.833 1682 477.5C1683.33 476 1686.1 472.9 1686.5 472.5C1686.9 472.1 1690.33 471 1692 470.5L1696.5 466.5C1697.83 464.667 1700.8 460.8 1702 460C1703.2 459.2 1704.17 454.667 1704.5 452.5H1721.5C1722.17 453.333 1723.6 455.3 1724 456.5C1724.5 458 1724.5 460.5 1725 461.5C1725.4 462.3 1727.17 463.167 1728 463.5L1734 468.5L1743 470.5L1750 472L1749 476.5L1747.5 498C1746 499.667 1742.8 503 1742 503C1741.2 503 1741.33 505.667 1741.5 507L1737 512L1742 514L1751 524.5H1758.5L1759.5 522H1770C1771 521.667 1773.1 521 1773.5 521C1773.9 521 1773.33 511.333 1773 506.5L1776.5 503L1777.5 500L1781.5 495H1784.5C1786.83 497.833 1791.7 503.6 1792.5 504C1793.3 504.4 1797.83 504.5 1800 504.5L1798.5 502L1797.5 497.5C1797 496.833 1796 495.4 1796 495C1796 494.5 1794.5 490 1794.5 489C1794.5 488.2 1793.17 487 1792.5 486.5L1793.5 484L1796 481L1800.5 477C1800.67 476.167 1801 474.3 1801 473.5C1801 472.7 1802.33 472.167 1803 472C1803.33 470.833 1804.1 468.4 1804.5 468C1804.9 467.6 1802 464.833 1800.5 463.5L1797 460.5C1796 460.5 1794 460.4 1794 460C1794 459.6 1792.33 461.5 1791.5 462.5H1773V456.5L1770 452.5L1765.5 446.5L1762 444.5L1756.5 440H1749L1747 446.5L1745 452.5H1733L1730.5 444.5L1728.5 440L1726 429.5C1721.67 429.667 1712.6 429.9 1711 429.5C1709.4 429.1 1707.33 427.333 1706.5 426.5L1699 420.5C1698.83 415 1698.6 403.8 1699 403C1699.5 402 1696 401.5 1696 400.5C1696 399.5 1691 398.5 1690 398.5C1689.2 398.5 1685 394.833 1683 393L1677.5 391L1672 388.5H1661.5C1660.5 389.333 1658.2 391 1657 391H1637.5L1633 388.5L1630 391C1627.67 391.5 1622.7 392.6 1621.5 393C1620.3 393.4 1619.67 388.833 1619.5 386.5L1617 379L1610.5 373.5L1603.5 371L1597.5 366.5H1591C1589.5 367.667 1586.3 370 1585.5 370C1584.5 370 1579 372 1577 372C1575.4 372 1571 367.667 1569 365.5L1561.5 365L1560.5 373.5V379L1551.5 385L1540 382L1514 383.5L1493.5 382L1485 375.5L1486 372H1501.5L1507.5 357.5C1506.5 356.167 1503.9 353.5 1501.5 353.5C1498.5 353.5 1479 344 1478 344H1441V347L1434 355.5L1439 363L1451 365.5C1453.17 366.333 1458.8 368.4 1464 370C1470.5 372 1467 376 1467 379C1467 382 1467 386 1464 386C1461.6 386 1463 392 1464 395L1467 404L1457.5 412L1441 406L1434 412L1420.5 424.5C1417.83 425.667 1411.8 428 1409 428C1406.2 428 1403.5 430 1402.5 431L1393.5 421.5H1384H1368L1366 428L1364 435.5L1347 433L1340.5 428L1333.5 431L1328 435.5L1336 445.5L1324.5 457.5L1319 454L1306.5 448L1301 440L1303 435.5V424.5L1290.5 435.5L1294 448L1288.5 457.5L1294 472L1284.5 478Z" fill="#FFD597"/>
<path d="M1686.5 578.5V583L1683.5 585.5L1686.5 586L1692 588.5L1699 588L1696.5 580L1692 576.5L1686.5 578.5Z" fill="#FFD597"/>
<path d="M1844.5 538.5L1842.5 542.5L1846 545.5L1849 544V538.5L1852 536.5L1849 533L1844.5 538.5Z" fill="#FFD597"/>
<path d="M190.5 311.5L187 318L186 319.5H179L177.5 318L175.5 311.5V308.5L180 311.5L183 305H190.5V311.5Z" fill="#FFD597"/>
<path d="M185 206V210.5L192 211.5L193 213.5L197.5 214L197 210.5L193 206.5L185 206Z" fill="#FFD597"/>
<path d="M626.5 596L620.5 619L615.5 625.5H608.5L604 622.5H596V609H612L615.5 605V599.5L592.5 596L596 587.5L608.5 584C607.333 578.833 604.8 568.5 604 568.5C603.2 568.5 614.667 564.833 620.5 563L638.5 547.5V539L657.5 528L668.5 539V553L675 568.5L668.5 581L662.5 568.5L649.5 563L631.5 573L626.5 596Z" stroke="black"/>
<path d="M695.5 549L700 555.5L704 554.5C707 551.5 713.3 545.5 714.5 545.5C715.7 545.5 713.333 540.5 712 538L707.5 529L704 526.5L695.5 525L698.5 516V506L683.5 502L678.5 508.5L685 516L690 525C690.333 529.667 690.8 539.2 690 540C689.2 540.8 693.333 546.333 695.5 549Z" stroke="black"/>
<path d="M1075.5 548L1070 551.5L1073 553.5C1075 552.833 1079.2 551.5 1080 551.5C1080.8 551.5 1086 549.167 1088.5 548L1094 550H1102.5L1103.5 540L1091.5 538.5H1075.5L1076.5 543L1070 546L1075.5 548Z" stroke="black"/>
<path d="M538.5 297L540.5 304.5C540.5 306 540.9 309.3 542.5 310.5C544.1 311.7 548.167 312 550 312L553 314L561 316.5L571.5 326V314L563 309V297C564 295.833 566 293.2 566 292C566 290.8 553 291.5 546.5 292V287.5L540.5 283.5L534.5 285.5L529.5 287.5L538.5 297Z" stroke="black"/>
<path d="M823 265L816.5 278.5L806 280.5L802 267.5L797 265L791 259L785 246.5V227.5C785.667 226.667 787.3 225 788.5 225C789.7 225 786.667 223.333 785 222.5L773.5 218.5L768.5 209L773.5 207H795L804 214L814.5 218.5L823 225L829 231V236L835 241L839 250.5V261.5H829L823 265Z" stroke="black"/>
<path d="M1018.5 397.5L1024 389.5V386L1034 389.5L1042 401.5L1048 408L1042 410.5L1034 418L1028 410.5H1010.5L1003 408L981.5 410.5L965 397.5V401.5H942L937 395H959V392.5H973.5V395H986.5V397.5H1018.5Z" stroke="black"/>
<path d="M1105.5 397.5L1083.5 410.5H1102.5L1110.5 406L1128.5 399L1105.5 397.5Z" stroke="black"/>
<path d="M1178.5 395H1143.5L1149.5 404H1165.5L1178.5 406V395Z" stroke="black"/>
<path d="M1210.5 389.5H1187L1196.5 399L1201 401.5L1208 404V397.5L1210.5 395H1235.5L1237 392.5L1245.5 388L1248 381.5L1244 379L1240 376L1235.5 374.5L1229 383H1224L1220.5 386H1213L1210.5 389.5Z" stroke="black"/>
<path d="M799 181.5V188L800.5 191L802 194L806 198L809.5 200.5H820.5L823 194L826.5 188L819 179H812.5L809.5 176.5L800.5 175L797 179L799 181.5Z" stroke="black"/>
<path d="M554.5 257L546.5 259L544 260L538.5 256V252.5L534.5 250L535.5 246.5L540.5 241L537 239.5V223L540 223.5L542 228L544 233L549 239.5C549.667 241.5 551.1 245.5 551.5 245.5C551.9 245.5 557 250.167 559.5 252.5L565.5 257.5L561 259L554.5 257Z" stroke="black"/>
<path d="M256.5 401V416L253 418.5L249.5 416L247 414V406.5L249.5 401H256.5Z" stroke="black"/>
<path d="M232.5 389.5L230.5 383L227.5 381H220.5L216.5 386.5H208.5L206 388L213.5 392.5L219 394.5L225 401L232.5 398V389.5Z" stroke="black"/>
<path d="M129.5 468V455H127L118.5 463.5C117 463.667 113.7 463.9 112.5 463.5C111.3 463.1 100 476 94.5 482.5L92.5 488L90 493L88 497.5V503L92.5 500.5H98.5V497.5H118.5L133 485L136 477.5L129.5 468Z" stroke="black"/>
<path d="M432.5 625.5L424 630.5L426.5 636.5H432.5L441 630.5L432.5 625.5Z" stroke="black"/>
<path d="M852 745V760L862 754.5L873 753V746.5L870.5 741.5H859.5L856 746.5L852 745Z" stroke="black"/>
<path d="M894.5 753L880.5 754.5L882 758.5L887 760L894.5 764.5V758.5V753Z" stroke="black"/>
<path d="M984.5 622.5H970.5L969 625H971.5L973.5 627.5H979L980 626H982.5L984.5 622.5Z" stroke="black"/>
<path d="M1112.5 622L1104.5 629V632L1106 633L1108.5 631H1134.5V627.5L1129.5 625L1130.5 622L1127.5 620C1127.17 619.333 1126.7 617.8 1127.5 617C1128.3 616.2 1129.83 614.333 1130.5 613.5L1138.5 606.5L1147.5 605.5C1147.67 604.5 1147.9 602.3 1147.5 601.5C1147.1 600.7 1145.67 598.833 1145 598H1140.5L1137 600L1134.5 598L1131.5 597L1130.5 594.5L1134.5 591.5L1135 586L1130.5 588L1112.5 589L1115 592V597L1118.5 598L1117 613.5L1112.5 618V622Z" stroke="black"/>
<path d="M1136.5 647.5H1127.5V661L1133 662L1135.5 660L1138.5 659L1141.5 661C1143.5 661.333 1147.7 662 1148.5 662C1149.3 662 1149.5 663.667 1149.5 664.5L1154 663L1152.5 661L1149.5 658L1148.5 648L1146 646.5V641L1145 639.5L1136.5 647.5Z" stroke="black"/>
<path d="M1174.5 669.5L1174 667.5L1171 667V669.5L1173 670.5L1174.5 675L1184.5 675.5V672H1180L1178.5 670L1174.5 669.5Z" stroke="black"/>
<path d="M1284.5 478L1248 499L1249.5 502L1252.5 507.5L1263 508.5L1267 512L1265.5 517.5L1261.5 522.5H1254L1248 521.5L1246 525.5L1245.5 536L1242.5 541C1244.33 541.5 1248.3 542.6 1249.5 543C1250.7 543.4 1252 540.167 1252.5 538.5H1259.5C1260.5 537.167 1262.6 534.4 1263 534C1263.5 533.5 1266.5 536 1267 536C1267.4 536 1266.83 539.333 1266.5 541L1258.5 546.5L1259.5 551L1261.5 559.5L1265.5 565L1270 566.5L1274 561.5L1279 558L1282 560.5L1284.5 558L1288.5 557C1290.17 558.333 1293.6 561.1 1294 561.5C1294.4 561.9 1292.5 565.333 1291.5 567L1282 573L1278 578L1277 581L1278 583.5L1279 586.5L1281 590.5L1289.5 592L1295 586.5L1300 581L1306 579.5L1310 581.5L1310.5 585L1307 588L1304.5 592L1303.5 597L1308.5 597.5C1309.17 598.333 1310.5 600.2 1310.5 601C1310.5 601.8 1312.17 602.667 1313 603H1318V605L1323.5 606L1323 599L1322.5 597L1321 595.5L1318 593.5L1321 589.5L1324.5 589L1330 586.5L1333.5 583.5L1343 583L1345 581V575L1348 572.5L1349.5 569L1352.5 564.5L1356 567.5L1360.5 571.5L1363.5 572.5L1366.5 570.5H1369L1373 572.5L1373.5 576L1375.5 578V590.5L1373.5 592V601L1375.5 603L1379 605V569.5L1381 566L1383 561L1385.5 556L1387 558L1389.5 558.5L1390.5 561L1394.5 562L1395.5 580H1405L1407.5 583H1418V582C1418.67 581.333 1420.1 580 1420.5 580C1420.9 580 1429.67 570.667 1434 566L1441 559.5L1446.5 553.5C1447.33 552.667 1449.3 551 1450.5 551C1451.7 551 1453 549.667 1453.5 549L1457 548V551L1460.5 554.5L1462.5 560L1467.5 566L1472 566.5L1480.5 575L1484.5 576.5L1488 580L1492 581L1493 582.5L1500.5 583.5L1501 585L1505 586L1506 588L1512.5 588.5L1515.5 591L1519 588L1519.5 582.5L1522.5 575L1526 580L1531.5 581V576.5L1534.5 575L1534 571L1536 566.5L1545 575.5L1547.5 576.5C1547.83 575.5 1548.5 573.3 1548.5 572.5C1548.5 571.7 1550.17 571.833 1551 572L1554.5 574L1565 575.5L1562.5 578.5L1561 593L1557 596.5V613L1558.5 612.5C1558.5 613.833 1558.6 616.8 1559 618C1559.4 619.2 1560.5 618.5 1561 618L1565 614.5L1569.5 613L1568 607.5L1570.5 604.5H1575L1578.5 606.5L1575 611L1577.5 613.5L1585.5 616L1596 615L1598.5 614.5V624L1602.5 624.5L1604.5 622.5C1605.83 621.667 1608.6 620 1609 620C1609.4 620 1611.17 618.667 1612 618C1614 617.5 1618.1 616.5 1618.5 616.5C1619 616.5 1620.5 614.5 1621 614.5C1621.4 614.5 1620.83 618.5 1620.5 620.5L1623 622V628L1625 629L1627 634.5L1630 635L1634.5 640V657H1638V653.5L1641 651.5L1640 648.5L1643 646.5V642.5L1645 641.5L1645.5 636L1643.5 634.5L1643 625.5L1641 623L1640 616.5L1637.5 615L1639 606L1641 597.5L1645.5 596.5C1645.17 595.667 1644.3 593.9 1643.5 593.5C1642.7 593.1 1642.83 590 1643 588.5H1641L1638.5 583L1637.5 580.5L1646.5 573L1650 572L1655.5 567.5L1656 564L1645.5 554.5V524.5H1632.5L1630.5 527.5L1619 514.5L1618.5 509L1614 502C1609.33 501.833 1599.8 501.4 1599 501C1598.2 500.6 1598 494.833 1598 492L1596.5 491C1596.33 487.5 1595.9 480.5 1595.5 480.5C1595.1 480.5 1593.67 478.5 1593 477.5L1590.5 474V470L1586 468L1581.5 460.5L1585 456.5L1592 453.5C1593.67 453.833 1597.2 454.6 1598 455C1599 455.5 1601.5 460 1601 460C1600.6 460 1607.83 461 1611.5 461.5L1612.5 476L1614.5 479.5C1616.67 479.833 1621.2 480.5 1622 480.5C1622.8 480.5 1624.33 478.833 1625 478L1628.5 477.5L1630.5 475L1633.5 474L1637.5 471.5L1637 458.5L1632.5 455L1628.5 447.5V441L1631 438L1631.5 431L1629.5 429.5L1628.5 426L1630.5 423L1635.5 422.5L1637.5 419.5L1642.5 420L1647.5 417L1649 421.5L1651.5 427.5L1654 424.5L1660 423L1664 419L1669.5 417L1676.5 414.5L1683.5 417.5L1673.5 427.5L1672.5 430.5H1677.5L1679.5 432L1684 434L1682 440L1679.5 444.5L1675.5 447.5L1678.5 448L1682.5 444.5H1687L1682 450C1681.5 453 1680.6 459.2 1681 460C1681.4 460.8 1676.17 460.333 1673.5 460V464.5C1675.5 466.833 1679.6 471.6 1680 472C1680.4 472.4 1681.5 475.833 1682 477.5C1683.33 476 1686.1 472.9 1686.5 472.5C1686.9 472.1 1690.33 471 1692 470.5L1696.5 466.5C1697.83 464.667 1700.8 460.8 1702 460C1703.2 459.2 1704.17 454.667 1704.5 452.5H1721.5C1722.17 453.333 1723.6 455.3 1724 456.5C1724.5 458 1724.5 460.5 1725 461.5C1725.4 462.3 1727.17 463.167 1728 463.5L1734 468.5L1743 470.5L1750 472L1749 476.5L1747.5 498C1746 499.667 1742.8 503 1742 503C1741.2 503 1741.33 505.667 1741.5 507L1737 512L1742 514L1751 524.5H1758.5L1759.5 522H1770C1771 521.667 1773.1 521 1773.5 521C1773.9 521 1773.33 511.333 1773 506.5L1776.5 503L1777.5 500L1781.5 495H1784.5C1786.83 497.833 1791.7 503.6 1792.5 504C1793.3 504.4 1797.83 504.5 1800 504.5L1798.5 502L1797.5 497.5C1797 496.833 1796 495.4 1796 495C1796 494.5 1794.5 490 1794.5 489C1794.5 488.2 1793.17 487 1792.5 486.5L1793.5 484L1796 481L1800.5 477C1800.67 476.167 1801 474.3 1801 473.5C1801 472.7 1802.33 472.167 1803 472C1803.33 470.833 1804.1 468.4 1804.5 468C1804.9 467.6 1802 464.833 1800.5 463.5L1797 460.5C1796 460.5 1794 460.4 1794 460C1794 459.6 1792.33 461.5 1791.5 462.5H1773V456.5L1770 452.5L1765.5 446.5L1762 444.5L1756.5 440H1749L1747 446.5L1745 452.5H1733L1730.5 444.5L1728.5 440L1726 429.5C1721.67 429.667 1712.6 429.9 1711 429.5C1709.4 429.1 1707.33 427.333 1706.5 426.5L1699 420.5C1698.83 415 1698.6 403.8 1699 403C1699.5 402 1696 401.5 1696 400.5C1696 399.5 1691 398.5 1690 398.5C1689.2 398.5 1685 394.833 1683 393L1677.5 391L1672 388.5H1661.5C1660.5 389.333 1658.2 391 1657 391H1637.5L1633 388.5L1630 391C1627.67 391.5 1622.7 392.6 1621.5 393C1620.3 393.4 1619.67 388.833 1619.5 386.5L1617 379L1610.5 373.5L1603.5 371L1597.5 366.5H1591C1589.5 367.667 1586.3 370 1585.5 370C1584.5 370 1579 372 1577 372C1575.4 372 1571 367.667 1569 365.5L1561.5 365L1560.5 373.5V379L1551.5 385L1540 382L1514 383.5L1493.5 382L1485 375.5L1486 372H1501.5L1507.5 357.5C1506.5 356.167 1503.9 353.5 1501.5 353.5C1498.5 353.5 1479 344 1478 344H1441V347L1434 355.5L1439 363L1451 365.5C1453.17 366.333 1458.8 368.4 1464 370C1470.5 372 1467 376 1467 379C1467 382 1467 386 1464 386C1461.6 386 1463 392 1464 395L1467 404L1457.5 412L1441 406L1434 412L1420.5 424.5C1417.83 425.667 1411.8 428 1409 428C1406.2 428 1403.5 430 1402.5 431L1393.5 421.5H1384H1368L1366 428L1364 435.5L1347 433L1340.5 428L1333.5 431L1328 435.5L1336 445.5L1324.5 457.5L1319 454L1306.5 448L1301 440L1303 435.5V424.5L1290.5 435.5L1294 448L1288.5 457.5L1294 472L1284.5 478Z" stroke="black"/>
<path d="M1686.5 578.5V583L1683.5 585.5L1686.5 586L1692 588.5L1699 588L1696.5 580L1692 576.5L1686.5 578.5Z" stroke="black"/>
<path d="M1844.5 538.5L1842.5 542.5L1846 545.5L1849 544V538.5L1852 536.5L1849 533L1844.5 538.5Z" stroke="black"/>
<path d="M190.5 311.5L187 318L186 319.5H179L177.5 318L175.5 311.5V308.5L180 311.5L183 305H190.5V311.5Z" stroke="black"/>
<path d="M185 206V210.5L192 211.5L193 213.5L197.5 214L197 210.5L193 206.5L185 206Z" stroke="black"/>
</g>
<defs>
<filter id="filter0_d_287_9" x="83.5" y="174.461" width="1773.25" height="598.922" filterUnits="userSpaceOnUse" color-interpolation-filters="sRGB">
<feFlood flood-opacity="0" result="BackgroundImageFix"/>
<feColorMatrix in="SourceAlpha" type="matrix" values="0 0 0 0 0 0 0 0 0 0 0 0 0 0 0 0 0 0 127 0" result="hardAlpha"/>
<feOffset dy="4"/>
<feGaussianBlur stdDeviation="2"/>
<feComposite in2="hardAlpha" operator="out"/>
<feColorMatrix type="matrix" values="0 0 0 0 0 0 0 0 0 0 0 0 0 0 0 0 0 0 0.25 0"/>
<feBlend mode="normal" in2="BackgroundImageFix" result="effect1_dropShadow_287_9"/>
<feBlend mode="normal" in="SourceGraphic" in2="effect1_dropShadow_287_9" result="shape"/>
</filter>
</defs>
</svg>
