<svg width="576" height="642" viewBox="0 0 576 642" fill="none" xmlns="http://www.w3.org/2000/svg">
<rect x="0.5" y="0.5" width="575" height="641" rx="35.5" fill="#97DCFF" stroke="#717171"/>
<g filter="url(#filter0_d_275_59)">
<path d="M103.02 447.837L112.572 437.33L118.302 421.093L122.123 403.901V397.215L134.54 384.798V379.067L138.36 369.516L134.54 365.695L129.764 357.099L125.943 354.233H118.302V349.458H112.572H106.841V335.131L98.2445 329.4L87.738 324.624L83.9175 318.893V313.163V310.297L92.5137 313.163L103.02 318.893H112.572H122.123H134.54V324.624V329.4L132.629 337.996L143.136 349.458V344.682L149.822 337.996V329.4V324.624H143.136V318.893V313.163L155.553 318.893L160.328 313.163V310.297V303.611L155.553 299.791L149.822 303.611H143.136L138.36 299.791H143.136H155.553H160.328V294.06H149.822H143.136H134.54V289.284H149.822L164.149 285.464L172.745 289.284L187.072 285.464L192.803 280.688V276.868L203.309 280.688L211.906 273.047H218.592V268.271L231.008 273.047H243.425L256.797 268.271H270.169L275.9 261.585V253.944L272.079 251.079L270.169 245.348L272.079 237.707L285.451 234.842H291.182L296.913 237.707H303.599L316.015 223.38L312.195 216.694V197.591V192.816L316.015 188.995V183.264H322.701V174.668L328.432 168.937L334.163 158.431L338.939 148.879L347.535 143.149V134.552L356.131 122.136L351.355 103.033L356.131 82.9751L365.682 69.6032L370.458 58.1415L376.189 47.6351L385.74 42.8594L401.978 51.4556L414.394 65.7826L430.632 82.9751L437.318 94.4367L442.093 109.719L469.792 115.45L473.613 112.584L478.388 114.495H494.626L498.446 113.539L502.267 115.45L505.132 117.36V120.225L503.222 124.046L499.401 128.822L497.491 136.463L496.536 144.104L491.76 150.79L483.164 157.476L481.254 167.982L484.119 176.578L473.613 193.771V201.412L468.837 209.053L466.927 213.829L462.151 219.559H458.331C457.566 219.559 452.918 222.743 450.689 224.335H445.914L441.138 227.2H436.362L432.542 231.021H430.632L428.721 235.797H424.901C424.582 235.797 423.755 235.988 422.991 236.752C422.226 237.516 422.035 240.254 422.035 241.528V247.258L421.08 249.169L417.26 252.034L413.439 255.855H408.664L404.843 256.81L402.933 258.72L396.247 262.54L395.292 264.451L390.516 269.226L383.83 277.823L380.965 280.688L377.144 284.509L371.413 291.195L366.638 293.105L362.817 295.015L358.996 295.97L358.041 298.836L355.176 299.791L351.355 304.566L348.49 310.297L343.714 314.118H341.804L338.939 318.893H330.342L323.656 326.535L319.836 332.265L317.926 337.041L315.06 338.951H311.24L304.554 336.086L299.778 339.906L292.137 340.862L288.316 344.682V349.458L291.182 353.278L292.137 354.233L293.092 356.144L292.137 358.054L288.316 359.964L286.406 363.785L284.496 367.605V373.336L278.765 379.067L274.945 380.022L273.034 380.977L273.989 383.843L275.9 384.798L277.81 389.573L276.855 394.349L273.989 401.035V406.766L273.034 410.586L270.169 416.317L271.124 419.183L273.034 422.048L272.079 432.555L273.034 444.971V448.792L272.079 452.612H269.214L264.438 451.657H261.573L260.618 453.568L261.573 455.478H266.348L270.169 457.388L272.079 458.343V462.164L273.034 465.029C273.353 468.531 273.989 475.727 273.989 476.491C273.989 477.255 272.716 479.993 272.079 481.266V486.042C272.398 488.271 273.034 492.919 273.034 493.683V498.459C273.034 499.223 271.124 502.598 270.169 504.19C270.487 505.463 270.933 508.01 270.169 508.01C269.405 508.01 264.756 512.468 262.528 514.696V520.427L260.618 523.292L258.707 524.248H255.842L256.797 526.158V529.023L255.842 530.934C254.25 532.207 250.875 534.754 250.111 534.754C249.347 534.754 246.609 532.207 245.335 530.934L243.425 529.978L242.47 530.934V531.889L244.38 533.799C245.144 534.563 245.972 536.028 246.29 536.664C245.654 536.664 244.38 536.855 244.38 537.619C244.38 538.384 240.56 539.848 238.649 540.485C237.694 541.122 235.593 542.395 234.829 542.395C233.874 542.395 229.098 542.395 230.053 543.35C230.817 544.114 232.282 544.305 232.919 544.305L235.784 545.261V547.171C235.784 548.126 233.874 548.126 233.874 549.081C233.874 549.845 231.327 551.31 230.053 551.946L228.143 554.812L225.278 559.588L222.412 564.363L218.592 566.273L214.771 571.049H210.95L209.04 569.139L207.13 566.273L204.265 567.229L201.399 570.094L195.668 571.049H190.893H184.207L178.476 569.139L171.79 565.318H167.969L166.059 563.408L164.149 559.588L161.283 560.543L160.328 561.498L154.597 560.543L150.777 557.677L149.822 555.767L148.867 551.946L145.046 549.081L137.405 543.35L135.495 541.44V537.619L136.45 532.844L135.495 529.023L134.54 527.113V521.382L131.674 519.472L129.764 512.786V509.921L134.54 507.055L136.45 503.235L135.495 500.369L133.585 494.638C131.674 493.683 128.427 490.627 126.899 489.863C125.37 489.099 123.078 487.634 122.123 486.997L124.033 483.177L127.854 482.222L124.988 479.356L120.213 474.581L122.123 470.76V466.939L119.257 464.074L115.437 458.343L111.616 452.612L107.796 451.657L103.02 450.702L102.065 448.792L103.02 447.837Z" fill="#FFD597"/>
<path d="M103.02 447.837L112.572 437.33L118.302 421.093L122.123 403.901V397.215L134.54 384.798V379.067L138.36 369.516L134.54 365.695L129.764 357.099L125.943 354.233H118.302V349.458H112.572H106.841V335.131L98.2445 329.4L87.738 324.624L83.9175 318.893V313.163V310.297L92.5137 313.163L103.02 318.893H112.572H122.123H134.54V324.624V329.4L132.629 337.996L143.136 349.458V344.682L149.822 337.996V329.4V324.624H143.136V318.893V313.163L155.553 318.893L160.328 313.163V310.297V303.611L155.553 299.791L149.822 303.611H143.136L138.36 299.791H143.136H155.553H160.328V294.06H149.822H143.136H134.54V289.284H149.822L164.149 285.464L172.745 289.284L187.072 285.464L192.803 280.688V276.868L203.309 280.688L211.906 273.047H218.592V268.271L231.008 273.047H243.425L256.797 268.271H270.169L275.9 261.585V253.944L272.079 251.079L270.169 245.348L272.079 237.707L285.451 234.842H291.182L296.913 237.707H303.599L316.015 223.38L312.195 216.694V197.591V192.816L316.015 188.995V183.264H322.701V174.668L328.432 168.937L334.163 158.431L338.939 148.879L347.535 143.149V134.552L356.131 122.136L351.355 103.033L356.131 82.9751L365.682 69.6032L370.458 58.1415L376.189 47.6351L385.74 42.8594L401.978 51.4556L414.394 65.7826L430.632 82.9751L437.318 94.4367L442.093 109.719L469.792 115.45L473.613 112.584L478.388 114.495H494.626L498.446 113.539L502.267 115.45L505.132 117.36V120.225L503.222 124.046L499.401 128.822L497.491 136.463L496.536 144.104L491.76 150.79L483.164 157.476L481.254 167.982L484.119 176.578L473.613 193.771V201.412L468.837 209.053L466.927 213.829L462.151 219.559H458.331C457.566 219.559 452.918 222.743 450.689 224.335H445.914L441.138 227.2H436.362L432.542 231.021H430.632L428.721 235.797H424.901C424.582 235.797 423.755 235.988 422.991 236.752C422.226 237.516 422.035 240.254 422.035 241.528V247.258L421.08 249.169L417.26 252.034L413.439 255.855H408.664L404.843 256.81L402.933 258.72L396.247 262.54L395.292 264.451L390.516 269.226L383.83 277.823L380.965 280.688L377.144 284.509L371.413 291.195L366.638 293.105L362.817 295.015L358.996 295.97L358.041 298.836L355.176 299.791L351.355 304.566L348.49 310.297L343.714 314.118H341.804L338.939 318.893H330.342L323.656 326.535L319.836 332.265L317.926 337.041L315.06 338.951H311.24L304.554 336.086L299.778 339.906L292.137 340.862L288.316 344.682V349.458L291.182 353.278L292.137 354.233L293.092 356.144L292.137 358.054L288.316 359.964L286.406 363.785L284.496 367.605V373.336L278.765 379.067L274.945 380.022L273.034 380.977L273.989 383.843L275.9 384.798L277.81 389.573L276.855 394.349L273.989 401.035V406.766L273.034 410.586L270.169 416.317L271.124 419.183L273.034 422.048L272.079 432.555L273.034 444.971V448.792L272.079 452.612H269.214L264.438 451.657H261.573L260.618 453.568L261.573 455.478H266.348L270.169 457.388L272.079 458.343V462.164L273.034 465.029C273.353 468.531 273.989 475.727 273.989 476.491C273.989 477.255 272.716 479.993 272.079 481.266V486.042C272.398 488.271 273.034 492.919 273.034 493.683V498.459C273.034 499.223 271.124 502.598 270.169 504.19C270.487 505.463 270.933 508.01 270.169 508.01C269.405 508.01 264.756 512.468 262.528 514.696V520.427L260.618 523.292L258.707 524.248H255.842L256.797 526.158V529.023L255.842 530.934C254.25 532.207 250.875 534.754 250.111 534.754C249.347 534.754 246.609 532.207 245.335 530.934L243.425 529.978L242.47 530.934V531.889L244.38 533.799C245.144 534.563 245.972 536.028 246.29 536.664C245.654 536.664 244.38 536.855 244.38 537.619C244.38 538.384 240.56 539.848 238.649 540.485C237.694 541.122 235.593 542.395 234.829 542.395C233.874 542.395 229.098 542.395 230.053 543.35C230.817 544.114 232.282 544.305 232.919 544.305L235.784 545.261V547.171C235.784 548.126 233.874 548.126 233.874 549.081C233.874 549.845 231.327 551.31 230.053 551.946L228.143 554.812L225.278 559.588L222.412 564.363L218.592 566.273L214.771 571.049H210.95L209.04 569.139L207.13 566.273L204.265 567.229L201.399 570.094L195.668 571.049H190.893H184.207L178.476 569.139L171.79 565.318H167.969L166.059 563.408L164.149 559.588L161.283 560.543L160.328 561.498L154.597 560.543L150.777 557.677L149.822 555.767L148.867 551.946L145.046 549.081L137.405 543.35L135.495 541.44V537.619L136.45 532.844L135.495 529.023L134.54 527.113V521.382L131.674 519.472L129.764 512.786V509.921L134.54 507.055L136.45 503.235L135.495 500.369L133.585 494.638C131.674 493.683 128.427 490.627 126.899 489.863C125.37 489.099 123.078 487.634 122.123 486.997L124.033 483.177L127.854 482.222L124.988 479.356L120.213 474.581L122.123 470.76V466.939L119.257 464.074L115.437 458.343L111.616 452.612L107.796 451.657L103.02 450.702L102.065 448.792L103.02 447.837Z" stroke="black"/>
</g>
<defs>
<filter id="filter0_d_275_59" x="79.4175" y="42.2971" width="430.215" height="537.252" filterUnits="userSpaceOnUse" color-interpolation-filters="sRGB">
<feFlood flood-opacity="0" result="BackgroundImageFix"/>
<feColorMatrix in="SourceAlpha" type="matrix" values="0 0 0 0 0 0 0 0 0 0 0 0 0 0 0 0 0 0 127 0" result="hardAlpha"/>
<feOffset dy="4"/>
<feGaussianBlur stdDeviation="2"/>
<feComposite in2="hardAlpha" operator="out"/>
<feColorMatrix type="matrix" values="0 0 0 0 0 0 0 0 0 0 0 0 0 0 0 0 0 0 0.25 0"/>
<feBlend mode="normal" in2="BackgroundImageFix" result="effect1_dropShadow_275_59"/>
<feBlend mode="normal" in="SourceGraphic" in2="effect1_dropShadow_275_59" result="shape"/>
</filter>
</defs>
</svg>
