<svg width="506" height="796" viewBox="0 0 506 796" fill="none" xmlns="http://www.w3.org/2000/svg">
<path d="M16.0653 307.545V325H13.2528L5.02841 313.111H4.88352V325H1.72159V307.545H4.55114L12.767 319.443H12.9205V307.545H16.0653ZM18.3175 307.545H21.8885L26.1584 315.267H26.3288L30.5987 307.545H34.1697L27.8203 318.489V325H24.6669V318.489L18.3175 307.545Z" fill="#FFE587"/>
<path d="M332.065 492.545V510H329.253L321.028 498.111H320.884V510H317.722V492.545H320.551L328.767 504.443H328.92V492.545H332.065ZM335.511 510V492.545H338.673V499.935H346.761V492.545H349.931V510H346.761V502.585H338.673V510H335.511Z" fill="#FFE587"/>
<line x1="272" y1="770" x2="289.49" y2="770" stroke="#FFE587" stroke-width="2"/>
<line x1="85.4927" y1="763.259" x2="80.9659" y2="780.153" stroke="#FFE587" stroke-width="2"/>
<line x1="495.014" y1="33.7668" x2="497.014" y2="21.8347" stroke="#00E45F" stroke-width="2"/>
<line x1="127.051" y1="33.1133" x2="131.848" y2="18.6845" stroke="#00E45F" stroke-width="2"/>
<path d="M274.662 11.4347H271.474C271.384 10.9119 271.216 10.4489 270.972 10.0455C270.727 9.63636 270.423 9.28977 270.06 9.00568C269.696 8.72159 269.281 8.50852 268.815 8.36648C268.355 8.21875 267.858 8.14489 267.324 8.14489C266.375 8.14489 265.534 8.38352 264.801 8.86079C264.068 9.33239 263.494 10.0256 263.08 10.9403C262.665 11.8494 262.457 12.9602 262.457 14.2727C262.457 15.608 262.665 16.733 263.08 17.6477C263.5 18.5568 264.074 19.2443 264.801 19.7102C265.534 20.1705 266.372 20.4006 267.315 20.4006C267.838 20.4006 268.327 20.3324 268.781 20.196C269.241 20.054 269.653 19.8466 270.017 19.5739C270.386 19.3011 270.696 18.9659 270.946 18.5682C271.202 18.1705 271.378 17.7159 271.474 17.2045L274.662 17.2216C274.543 18.0511 274.284 18.8295 273.886 19.5568C273.494 20.2841 272.98 20.9261 272.344 21.483C271.707 22.0341 270.963 22.4659 270.111 22.7784C269.259 23.0852 268.313 23.2386 267.273 23.2386C265.739 23.2386 264.369 22.8835 263.165 22.1733C261.96 21.4631 261.011 20.4375 260.318 19.0966C259.625 17.7557 259.278 16.1477 259.278 14.2727C259.278 12.392 259.628 10.7841 260.327 9.44886C261.026 8.10795 261.977 7.08239 263.182 6.37216C264.386 5.66193 265.75 5.30682 267.273 5.30682C268.244 5.30682 269.148 5.44318 269.983 5.71591C270.818 5.98864 271.563 6.3892 272.216 6.91761C272.869 7.44034 273.406 8.08239 273.827 8.84375C274.253 9.59943 274.531 10.4631 274.662 11.4347ZM281.188 23.2642C280.359 23.2642 279.612 23.1165 278.947 22.821C278.288 22.5199 277.765 22.0767 277.379 21.4915C276.998 20.9062 276.808 20.1847 276.808 19.3267C276.808 18.5881 276.944 17.9773 277.217 17.4943C277.489 17.0114 277.862 16.625 278.333 16.3352C278.805 16.0455 279.336 15.8267 279.927 15.679C280.523 15.5256 281.14 15.4148 281.776 15.3466C282.543 15.267 283.165 15.196 283.643 15.1335C284.12 15.0653 284.467 14.9631 284.683 14.8267C284.904 14.6847 285.015 14.4659 285.015 14.1705V14.1193C285.015 13.4773 284.825 12.9801 284.444 12.6278C284.063 12.2756 283.515 12.0994 282.799 12.0994C282.043 12.0994 281.444 12.2642 281.001 12.5938C280.563 12.9233 280.268 13.3125 280.114 13.7614L277.234 13.3523C277.461 12.5568 277.836 11.892 278.359 11.358C278.881 10.8182 279.521 10.4148 280.276 10.1477C281.032 9.875 281.867 9.73864 282.782 9.73864C283.413 9.73864 284.04 9.8125 284.665 9.96023C285.29 10.108 285.862 10.3523 286.379 10.6932C286.896 11.0284 287.31 11.4858 287.623 12.0653C287.941 12.6449 288.1 13.3693 288.1 14.2386V23H285.134V21.2017H285.032C284.844 21.5653 284.58 21.9062 284.239 22.2244C283.904 22.5369 283.481 22.7898 282.969 22.983C282.464 23.1705 281.87 23.2642 281.188 23.2642ZM281.989 20.9972C282.609 20.9972 283.146 20.875 283.6 20.6307C284.055 20.3807 284.404 20.0511 284.648 19.642C284.898 19.233 285.023 18.7869 285.023 18.304V16.7614C284.927 16.8409 284.762 16.9148 284.529 16.983C284.302 17.0511 284.046 17.1108 283.762 17.1619C283.478 17.2131 283.197 17.2585 282.918 17.2983C282.64 17.3381 282.398 17.3722 282.194 17.4006C281.734 17.4631 281.322 17.5653 280.958 17.7074C280.594 17.8494 280.308 18.0483 280.097 18.304C279.887 18.554 279.782 18.8778 279.782 19.2756C279.782 19.8438 279.989 20.2727 280.404 20.5625C280.819 20.8523 281.347 20.9972 281.989 20.9972ZM294.288 15.3295V23H291.202V9.90909H294.151V12.1335H294.305C294.606 11.4006 295.086 10.8182 295.745 10.3864C296.41 9.95455 297.231 9.73864 298.208 9.73864C299.112 9.73864 299.898 9.93182 300.569 10.3182C301.245 10.7045 301.768 11.2642 302.137 11.9972C302.512 12.7301 302.697 13.6193 302.691 14.6648V23H299.606V15.142C299.606 14.267 299.379 13.5824 298.924 13.0881C298.475 12.5937 297.853 12.3466 297.058 12.3466C296.518 12.3466 296.038 12.4659 295.617 12.7045C295.202 12.9375 294.876 13.2756 294.637 13.7188C294.404 14.1619 294.288 14.6989 294.288 15.3295ZM309.594 23.2642C308.765 23.2642 308.018 23.1165 307.353 22.821C306.694 22.5199 306.171 22.0767 305.785 21.4915C305.404 20.9062 305.214 20.1847 305.214 19.3267C305.214 18.5881 305.35 17.9773 305.623 17.4943C305.896 17.0114 306.268 16.625 306.739 16.3352C307.211 16.0455 307.742 15.8267 308.333 15.679C308.93 15.5256 309.546 15.4148 310.183 15.3466C310.95 15.267 311.572 15.196 312.049 15.1335C312.526 15.0653 312.873 14.9631 313.089 14.8267C313.31 14.6847 313.421 14.4659 313.421 14.1705V14.1193C313.421 13.4773 313.231 12.9801 312.85 12.6278C312.469 12.2756 311.921 12.0994 311.205 12.0994C310.45 12.0994 309.85 12.2642 309.407 12.5938C308.969 12.9233 308.674 13.3125 308.521 13.7614L305.64 13.3523C305.867 12.5568 306.242 11.892 306.765 11.358C307.288 10.8182 307.927 10.4148 308.683 10.1477C309.438 9.875 310.273 9.73864 311.188 9.73864C311.819 9.73864 312.447 9.8125 313.072 9.96023C313.697 10.108 314.268 10.3523 314.785 10.6932C315.302 11.0284 315.717 11.4858 316.029 12.0653C316.347 12.6449 316.506 13.3693 316.506 14.2386V23H313.54V21.2017H313.438C313.251 21.5653 312.987 21.9062 312.646 22.2244C312.31 22.5369 311.887 22.7898 311.376 22.983C310.87 23.1705 310.276 23.2642 309.594 23.2642ZM310.396 20.9972C311.015 20.9972 311.552 20.875 312.006 20.6307C312.461 20.3807 312.81 20.0511 313.055 19.642C313.305 19.233 313.43 18.7869 313.43 18.304V16.7614C313.333 16.8409 313.168 16.9148 312.935 16.983C312.708 17.0511 312.452 17.1108 312.168 17.1619C311.884 17.2131 311.603 17.2585 311.325 17.2983C311.046 17.3381 310.805 17.3722 310.6 17.4006C310.14 17.4631 309.728 17.5653 309.364 17.7074C309.001 17.8494 308.714 18.0483 308.504 18.304C308.293 18.554 308.188 18.8778 308.188 19.2756C308.188 19.8438 308.396 20.2727 308.81 20.5625C309.225 20.8523 309.754 20.9972 310.396 20.9972ZM324.467 23.2301C323.438 23.2301 322.518 22.9659 321.705 22.4375C320.893 21.9091 320.251 21.142 319.779 20.1364C319.308 19.1307 319.072 17.9091 319.072 16.4716C319.072 15.017 319.31 13.7898 319.788 12.7898C320.271 11.7841 320.921 11.0256 321.739 10.5142C322.558 9.99716 323.469 9.73864 324.475 9.73864C325.242 9.73864 325.873 9.86932 326.367 10.1307C326.862 10.3864 327.254 10.696 327.543 11.0597C327.833 11.4176 328.058 11.7557 328.217 12.0739H328.344V5.54545H331.438V23H328.404V20.9375H328.217C328.058 21.2557 327.827 21.5937 327.526 21.9517C327.225 22.304 326.827 22.6051 326.333 22.8551C325.839 23.1051 325.217 23.2301 324.467 23.2301ZM325.327 20.6989C325.981 20.6989 326.538 20.5227 326.998 20.1705C327.458 19.8125 327.808 19.3153 328.046 18.679C328.285 18.0426 328.404 17.3011 328.404 16.4545C328.404 15.608 328.285 14.8722 328.046 14.2472C327.813 13.6222 327.467 13.1364 327.006 12.7898C326.552 12.4432 325.992 12.2699 325.327 12.2699C324.64 12.2699 324.066 12.4489 323.606 12.8068C323.146 13.1648 322.799 13.6591 322.566 14.2898C322.333 14.9205 322.217 15.642 322.217 16.4545C322.217 17.2727 322.333 18.0028 322.566 18.6449C322.805 19.2812 323.154 19.7841 323.614 20.1534C324.08 20.517 324.651 20.6989 325.327 20.6989ZM338.493 23.2642C337.663 23.2642 336.916 23.1165 336.251 22.821C335.592 22.5199 335.07 22.0767 334.683 21.4915C334.303 20.9062 334.112 20.1847 334.112 19.3267C334.112 18.5881 334.249 17.9773 334.521 17.4943C334.794 17.0114 335.166 16.625 335.638 16.3352C336.109 16.0455 336.641 15.8267 337.232 15.679C337.828 15.5256 338.445 15.4148 339.081 15.3466C339.848 15.267 340.47 15.196 340.947 15.1335C341.425 15.0653 341.771 14.9631 341.987 14.8267C342.209 14.6847 342.32 14.4659 342.32 14.1705V14.1193C342.32 13.4773 342.129 12.9801 341.749 12.6278C341.368 12.2756 340.82 12.0994 340.104 12.0994C339.348 12.0994 338.749 12.2642 338.305 12.5938C337.868 12.9233 337.572 13.3125 337.419 13.7614L334.538 13.3523C334.766 12.5568 335.141 11.892 335.663 11.358C336.186 10.8182 336.825 10.4148 337.581 10.1477C338.337 9.875 339.172 9.73864 340.087 9.73864C340.717 9.73864 341.345 9.8125 341.97 9.96023C342.595 10.108 343.166 10.3523 343.683 10.6932C344.2 11.0284 344.615 11.4858 344.928 12.0653C345.246 12.6449 345.405 13.3693 345.405 14.2386V23H342.439V21.2017H342.337C342.149 21.5653 341.885 21.9062 341.544 22.2244C341.209 22.5369 340.786 22.7898 340.274 22.983C339.768 23.1705 339.175 23.2642 338.493 23.2642ZM339.294 20.9972C339.913 20.9972 340.45 20.875 340.905 20.6307C341.359 20.3807 341.709 20.0511 341.953 19.642C342.203 19.233 342.328 18.7869 342.328 18.304V16.7614C342.232 16.8409 342.067 16.9148 341.834 16.983C341.607 17.0511 341.351 17.1108 341.067 17.1619C340.783 17.2131 340.501 17.2585 340.223 17.2983C339.945 17.3381 339.703 17.3722 339.499 17.4006C339.038 17.4631 338.626 17.5653 338.263 17.7074C337.899 17.8494 337.612 18.0483 337.402 18.304C337.192 18.554 337.087 18.8778 337.087 19.2756C337.087 19.8438 337.294 20.2727 337.709 20.5625C338.124 20.8523 338.652 20.9972 339.294 20.9972Z" fill="#00E45F"/>
<path d="M180.5 767L272 770.5L266.5 756L260.5 752.5L252.5 738.5L250.5 725L257 712.5L255.5 699L270.5 692L275.5 681.5L272 675L270.5 667L278.5 657V643L274.5 639V622.5L277.5 620.5V604L282.5 597L286.5 586.5L288 570.5L282.5 568V563L285 560L287 540.5L290 527.5L287 518L291.5 510L290 501L302 492.5V480.5H306.5L311.5 457.5L315.5 450.5L325 446L331.5 437L336 424V410.5L341.5 399.5L350.5 390.5L354.5 376V366L370.5 336L367 326.5L370.5 323V313.5L364 303L367 288L364 273.5L375.5 260.5L385 255L395.155 253.594L410 255L422 249V239L431.5 232.5H445L455.5 223.5L463.5 208L472.5 206L477.5 200.5L474 195.5L479 190.5L474 185.5V181.5H481.5L486 174L480.5 169L484.5 158.5L466.5 127V121L483.5 100.5V84.5L495.5 71L492 64L491.5 49L486.5 45L489 38.5L494 37.5L499 38.5L503 34L285.5 36.5L200 33H127.5L122.5 47L114 50.5L109 42.5L98.4881 47L95.5 58L98.4881 63.5L106 60.5L109 63.5L103 96V110L109 101.5L114.5 103.5L103 120.5L98.4881 138.5V157L93 162V175.5H106L103 186L93 181.5L81 186L84 199L95.5 208.5V217V233L87.5 229L84 237V249.5L77.5 266L84 276.5V284.5L75 288L63.5 302L61 320.5L58 326.5V334L51.5 338V351.5L55.5 360L51.5 378.5L55.5 392.5L61 405.5L58 420L63.5 431L67.5 440L61 448.5L58 456.5L51.5 471.5L48 479.5V497.5L55.5 502.457L63.5 486L75 483.5L77.5 497.5L90 508L82 740.5L79 750.5L82 763.5L180.5 767Z" fill="#97DCFF" stroke="white" stroke-width="2"/>
<path d="M120.202 523V504.818H126.345C127.766 504.818 128.932 505.061 129.843 505.546C130.754 506.026 131.429 506.685 131.867 507.526C132.305 508.366 132.524 509.322 132.524 510.393C132.524 511.465 132.305 512.415 131.867 513.243C131.429 514.072 130.757 514.723 129.852 515.196C128.946 515.664 127.789 515.898 126.381 515.898H121.409V513.909H126.31C127.28 513.909 128.062 513.767 128.653 513.483C129.251 513.199 129.683 512.796 129.95 512.276C130.222 511.749 130.358 511.121 130.358 510.393C130.358 509.665 130.222 509.029 129.95 508.485C129.677 507.94 129.242 507.52 128.645 507.224C128.047 506.922 127.257 506.771 126.274 506.771H122.403V523H120.202ZM128.76 514.832L133.234 523H130.678L126.274 514.832H128.76ZM144.503 517.425V509.364H146.598V523H144.503V520.692H144.361C144.041 521.384 143.544 521.973 142.869 522.458C142.194 522.938 141.342 523.178 140.312 523.178C139.46 523.178 138.702 522.991 138.04 522.618C137.377 522.239 136.856 521.671 136.477 520.914C136.098 520.15 135.909 519.188 135.909 518.028V509.364H138.004V517.886C138.004 518.881 138.282 519.674 138.839 520.266C139.401 520.857 140.117 521.153 140.987 521.153C141.508 521.153 142.037 521.02 142.576 520.754C143.121 520.488 143.576 520.079 143.943 519.529C144.316 518.978 144.503 518.277 144.503 517.425ZM156.366 509.364V511.139H149.299V509.364H156.366ZM151.358 506.097H153.454V519.094C153.454 519.686 153.539 520.129 153.711 520.425C153.889 520.715 154.114 520.911 154.386 521.011C154.664 521.106 154.957 521.153 155.265 521.153C155.496 521.153 155.685 521.142 155.833 521.118C155.981 521.088 156.099 521.065 156.188 521.047L156.614 522.929C156.472 522.982 156.274 523.036 156.019 523.089C155.765 523.148 155.442 523.178 155.052 523.178C154.46 523.178 153.88 523.05 153.312 522.796C152.749 522.541 152.282 522.154 151.909 521.633C151.542 521.112 151.358 520.455 151.358 519.662V506.097ZM161.905 504.818V523H159.81V504.818H161.905ZM169.756 523.32C168.891 523.32 168.107 523.157 167.403 522.831C166.699 522.5 166.139 522.023 165.725 521.402C165.311 520.775 165.104 520.017 165.104 519.129C165.104 518.348 165.257 517.715 165.565 517.229C165.873 516.738 166.284 516.353 166.799 516.075C167.314 515.797 167.882 515.59 168.504 515.454C169.131 515.312 169.762 515.199 170.395 515.116C171.223 515.01 171.895 514.93 172.41 514.877C172.931 514.818 173.31 514.72 173.546 514.584C173.789 514.448 173.91 514.211 173.91 513.874V513.803C173.91 512.927 173.671 512.246 173.191 511.761C172.718 511.275 171.999 511.033 171.034 511.033C170.034 511.033 169.25 511.252 168.681 511.69C168.113 512.128 167.714 512.595 167.483 513.092L165.494 512.382C165.849 511.554 166.323 510.908 166.915 510.447C167.512 509.979 168.164 509.654 168.868 509.47C169.578 509.281 170.276 509.186 170.963 509.186C171.401 509.186 171.904 509.239 172.472 509.346C173.046 509.446 173.6 509.657 174.132 509.976C174.671 510.296 175.118 510.778 175.473 511.423C175.828 512.068 176.006 512.933 176.006 514.016V523H173.91V521.153H173.804C173.662 521.449 173.425 521.766 173.094 522.103C172.762 522.441 172.321 522.728 171.771 522.964C171.22 523.201 170.549 523.32 169.756 523.32ZM170.075 521.438C170.904 521.438 171.602 521.275 172.17 520.949C172.744 520.624 173.177 520.203 173.467 519.689C173.762 519.174 173.91 518.632 173.91 518.064V516.146C173.822 516.253 173.626 516.35 173.324 516.439C173.029 516.522 172.685 516.596 172.295 516.661C171.91 516.72 171.534 516.774 171.167 516.821C170.806 516.862 170.513 516.898 170.288 516.928C169.744 516.999 169.235 517.114 168.761 517.274C168.294 517.428 167.915 517.661 167.625 517.975C167.341 518.283 167.199 518.703 167.199 519.236C167.199 519.964 167.468 520.514 168.007 520.887C168.551 521.254 169.241 521.438 170.075 521.438ZM181.925 514.797V523H179.83V509.364H181.854V511.494H182.031C182.351 510.802 182.836 510.246 183.487 509.825C184.138 509.399 184.979 509.186 186.009 509.186C186.932 509.186 187.74 509.375 188.432 509.754C189.125 510.127 189.663 510.695 190.048 511.459C190.433 512.216 190.625 513.175 190.625 514.335V523H188.53V514.477C188.53 513.406 188.252 512.571 187.695 511.974C187.139 511.37 186.376 511.068 185.405 511.068C184.736 511.068 184.138 511.213 183.612 511.503C183.091 511.793 182.68 512.216 182.378 512.773C182.076 513.329 181.925 514.004 181.925 514.797ZM199.603 523.284C198.467 523.284 197.463 522.997 196.593 522.423C195.723 521.843 195.043 521.026 194.551 519.973C194.06 518.913 193.815 517.661 193.815 516.217C193.815 514.785 194.06 513.542 194.551 512.489C195.043 511.435 195.726 510.621 196.602 510.047C197.478 509.473 198.49 509.186 199.638 509.186C200.526 509.186 201.228 509.334 201.742 509.63C202.263 509.92 202.66 510.251 202.932 510.624C203.21 510.991 203.426 511.293 203.58 511.53H203.758V504.818H205.853V523H203.829V520.905H203.58C203.426 521.153 203.207 521.467 202.923 521.846C202.639 522.219 202.234 522.553 201.707 522.849C201.18 523.139 200.479 523.284 199.603 523.284ZM199.887 521.402C200.727 521.402 201.438 521.183 202.018 520.745C202.598 520.301 203.039 519.689 203.34 518.907C203.642 518.12 203.793 517.212 203.793 516.182C203.793 515.164 203.645 514.273 203.349 513.51C203.053 512.74 202.615 512.142 202.035 511.716C201.455 511.284 200.739 511.068 199.887 511.068C198.999 511.068 198.259 511.296 197.668 511.752C197.082 512.202 196.641 512.814 196.345 513.589C196.055 514.359 195.91 515.223 195.91 516.182C195.91 517.152 196.058 518.034 196.354 518.827C196.655 519.615 197.099 520.242 197.685 520.71C198.277 521.171 199.011 521.402 199.887 521.402Z" fill="black"/>
<circle cx="99.5114" cy="722.511" r="9.01136" fill="#FFE587" stroke="black"/>
<path d="M296.619 71.8182V90H294.489L284.581 75.7244H284.403V90H282.202V71.8182H284.332L294.276 86.1293H294.453V71.8182H296.619ZM306.458 90.2841C305.144 90.2841 304.011 89.9941 303.058 89.4141C302.111 88.8281 301.38 88.0114 300.865 86.9638C300.356 85.9103 300.102 84.6851 300.102 83.2884C300.102 81.8916 300.356 80.6605 300.865 79.5952C301.38 78.5239 302.096 77.6894 303.014 77.0916C303.937 76.4879 305.014 76.1861 306.245 76.1861C306.955 76.1861 307.657 76.3045 308.349 76.5412C309.042 76.7779 309.672 77.1626 310.24 77.6953C310.808 78.2221 311.261 78.9205 311.598 79.7905C311.936 80.6605 312.104 81.7318 312.104 83.0043V83.892H301.593V82.081H309.974C309.974 81.3116 309.82 80.625 309.512 80.0213C309.21 79.4176 308.778 78.9412 308.216 78.592C307.66 78.2428 307.003 78.0682 306.245 78.0682C305.411 78.0682 304.689 78.2753 304.079 78.6896C303.475 79.098 303.011 79.6307 302.685 80.2876C302.36 80.9446 302.197 81.6489 302.197 82.4006V83.608C302.197 84.6378 302.374 85.5108 302.729 86.2269C303.091 86.9371 303.591 87.4787 304.23 87.8516C304.869 88.2185 305.612 88.402 306.458 88.402C307.009 88.402 307.506 88.325 307.95 88.1712C308.399 88.0114 308.787 87.7746 309.113 87.4609C309.438 87.1413 309.69 86.7448 309.867 86.2713L311.891 86.8395C311.678 87.526 311.32 88.1297 310.817 88.6506C310.314 89.1655 309.693 89.5679 308.953 89.858C308.213 90.142 307.381 90.2841 306.458 90.2841ZM318.381 90L314.226 76.3636H316.428L319.375 86.804H319.517L322.429 76.3636H324.667L327.543 86.7685H327.685L330.633 76.3636H332.834L328.679 90H326.62L323.637 79.5241H323.424L320.441 90H318.381ZM335.604 95.1136V76.3636H337.628V78.5298H337.877C338.031 78.2931 338.244 77.9912 338.516 77.6243C338.794 77.2514 339.191 76.92 339.706 76.63C340.227 76.334 340.931 76.1861 341.819 76.1861C342.967 76.1861 343.979 76.4731 344.855 77.0472C345.731 77.6213 346.414 78.4351 346.906 79.4886C347.397 80.5421 347.642 81.785 347.642 83.2173C347.642 84.6615 347.397 85.9132 346.906 86.9727C346.414 88.0262 345.734 88.8429 344.864 89.4229C343.994 89.997 342.991 90.2841 341.854 90.2841C340.978 90.2841 340.277 90.1391 339.75 89.8491C339.223 89.5531 338.818 89.2187 338.534 88.8459C338.25 88.4671 338.031 88.1534 337.877 87.9048H337.699V95.1136H335.604ZM337.664 83.1818C337.664 84.2116 337.815 85.1201 338.117 85.9073C338.418 86.6886 338.859 87.3011 339.439 87.745C340.019 88.183 340.73 88.402 341.57 88.402C342.446 88.402 343.177 88.1712 343.763 87.7095C344.355 87.242 344.799 86.6146 345.095 85.8274C345.396 85.0343 345.547 84.1525 345.547 83.1818C345.547 82.223 345.399 81.3589 345.103 80.5895C344.813 79.8142 344.372 79.2016 343.781 78.7518C343.195 78.296 342.458 78.0682 341.57 78.0682C340.718 78.0682 340.002 78.2842 339.422 78.7163C338.842 79.1424 338.404 79.7402 338.108 80.5096C337.812 81.2731 337.664 82.1638 337.664 83.1818ZM356.378 90.2841C355.147 90.2841 354.067 89.9911 353.138 89.4052C352.215 88.8192 351.493 87.9995 350.972 86.946C350.457 85.8925 350.199 84.6615 350.199 83.2528C350.199 81.8324 350.457 80.5924 350.972 79.533C351.493 78.4736 352.215 77.6509 353.138 77.065C354.067 76.479 355.147 76.1861 356.378 76.1861C357.609 76.1861 358.687 76.479 359.61 77.065C360.539 77.6509 361.261 78.4736 361.776 79.533C362.297 80.5924 362.557 81.8324 362.557 83.2528C362.557 84.6615 362.297 85.8925 361.776 86.946C361.261 87.9995 360.539 88.8192 359.61 89.4052C358.687 89.9911 357.609 90.2841 356.378 90.2841ZM356.378 88.402C357.313 88.402 358.083 88.1623 358.687 87.6829C359.29 87.2035 359.737 86.5732 360.027 85.7919C360.317 85.0107 360.462 84.1643 360.462 83.2528C360.462 82.3414 360.317 81.4921 360.027 80.7049C359.737 79.9177 359.29 79.2815 358.687 78.7962C358.083 78.3108 357.313 78.0682 356.378 78.0682C355.443 78.0682 354.674 78.3108 354.07 78.7962C353.466 79.2815 353.02 79.9177 352.729 80.7049C352.439 81.4921 352.294 82.3414 352.294 83.2528C352.294 84.1643 352.439 85.0107 352.729 85.7919C353.02 86.5732 353.466 87.2035 354.07 87.6829C354.674 88.1623 355.443 88.402 356.378 88.402ZM365.756 90V76.3636H367.78V78.4233H367.922C368.17 77.7486 368.62 77.2011 369.271 76.7809C369.922 76.3607 370.656 76.1506 371.473 76.1506C371.627 76.1506 371.819 76.1535 372.05 76.1594C372.281 76.1654 372.455 76.1742 372.574 76.1861V78.3168C372.503 78.299 372.34 78.2724 372.085 78.2369C371.837 78.1954 371.573 78.1747 371.295 78.1747C370.632 78.1747 370.041 78.3138 369.52 78.592C369.005 78.8642 368.596 79.243 368.295 79.7283C367.999 80.2077 367.851 80.7552 367.851 81.3707V90H365.756ZM381.842 76.3636V78.1392H374.775V76.3636H381.842ZM376.835 73.0966H378.93V86.0938C378.93 86.6856 379.016 87.1295 379.188 87.4254C379.365 87.7154 379.59 87.9107 379.862 88.0114C380.141 88.1061 380.434 88.1534 380.741 88.1534C380.972 88.1534 381.162 88.1416 381.309 88.1179C381.457 88.0883 381.576 88.0646 381.665 88.0469L382.091 89.929C381.949 89.9822 381.75 90.0355 381.496 90.0888C381.241 90.148 380.919 90.1776 380.528 90.1776C379.936 90.1776 379.356 90.0503 378.788 89.7958C378.226 89.5413 377.758 89.1536 377.385 88.6328C377.019 88.112 376.835 87.455 376.835 86.6619V73.0966Z" fill="black"/>
<path d="M310.145 188.364C310.038 187.464 309.606 186.766 308.849 186.268C308.091 185.771 307.162 185.523 306.061 185.523C305.256 185.523 304.552 185.653 303.948 185.913C303.35 186.174 302.883 186.532 302.545 186.988C302.214 187.443 302.048 187.961 302.048 188.541C302.048 189.027 302.164 189.444 302.395 189.793C302.631 190.136 302.933 190.423 303.3 190.654C303.667 190.879 304.052 191.065 304.454 191.213C304.857 191.355 305.227 191.471 305.564 191.56L307.411 192.057C307.884 192.181 308.411 192.353 308.991 192.572C309.577 192.791 310.136 193.09 310.669 193.468C311.207 193.841 311.651 194.321 312 194.907C312.35 195.493 312.524 196.212 312.524 197.064C312.524 198.046 312.267 198.934 311.752 199.727C311.243 200.52 310.497 201.151 309.515 201.618C308.538 202.086 307.351 202.32 305.955 202.32C304.652 202.32 303.525 202.109 302.572 201.689C301.625 201.269 300.879 200.683 300.335 199.931C299.796 199.18 299.491 198.307 299.42 197.312H301.693C301.752 197.999 301.983 198.567 302.386 199.017C302.794 199.461 303.309 199.792 303.93 200.011C304.558 200.224 305.232 200.331 305.955 200.331C306.795 200.331 307.55 200.195 308.218 199.923C308.887 199.644 309.417 199.26 309.808 198.768C310.198 198.271 310.393 197.691 310.393 197.028C310.393 196.425 310.225 195.933 309.887 195.555C309.55 195.176 309.106 194.868 308.556 194.631C308.005 194.395 307.411 194.187 306.771 194.01L304.534 193.371C303.114 192.962 301.989 192.379 301.161 191.622C300.332 190.864 299.918 189.873 299.918 188.648C299.918 187.63 300.193 186.742 300.743 185.984C301.3 185.221 302.045 184.629 302.98 184.209C303.922 183.783 304.972 183.57 306.132 183.57C307.304 183.57 308.346 183.78 309.257 184.2C310.169 184.614 310.891 185.182 311.423 185.904C311.962 186.627 312.246 187.446 312.276 188.364H310.145ZM321.79 188.364V190.139H314.724V188.364H321.79ZM316.783 185.097H318.878V198.094C318.878 198.686 318.964 199.129 319.136 199.425C319.313 199.715 319.538 199.911 319.811 200.011C320.089 200.106 320.382 200.153 320.69 200.153C320.92 200.153 321.11 200.142 321.258 200.118C321.406 200.088 321.524 200.065 321.613 200.047L322.039 201.929C321.897 201.982 321.699 202.036 321.444 202.089C321.19 202.148 320.867 202.178 320.476 202.178C319.885 202.178 319.305 202.05 318.736 201.796C318.174 201.541 317.707 201.154 317.334 200.633C316.967 200.112 316.783 199.455 316.783 198.662V185.097ZM326.469 202.142C326.031 202.142 325.655 201.985 325.342 201.672C325.028 201.358 324.871 200.982 324.871 200.544C324.871 200.106 325.028 199.73 325.342 199.417C325.655 199.103 326.031 198.946 326.469 198.946C326.907 198.946 327.283 199.103 327.597 199.417C327.91 199.73 328.067 200.106 328.067 200.544C328.067 200.834 327.993 201.1 327.845 201.343C327.703 201.586 327.511 201.781 327.268 201.929C327.031 202.071 326.765 202.142 326.469 202.142ZM346.102 183.818H348.304V196.815C348.304 197.975 348.091 198.961 347.665 199.772C347.239 200.583 346.638 201.198 345.863 201.618C345.087 202.038 344.173 202.249 343.119 202.249C342.125 202.249 341.24 202.068 340.465 201.707C339.69 201.34 339.08 200.819 338.636 200.145C338.192 199.47 337.97 198.668 337.97 197.739H340.136C340.136 198.254 340.264 198.703 340.518 199.088C340.779 199.467 341.134 199.763 341.584 199.976C342.033 200.189 342.545 200.295 343.119 200.295C343.753 200.295 344.291 200.162 344.735 199.896C345.179 199.63 345.516 199.239 345.747 198.724C345.984 198.203 346.102 197.567 346.102 196.815V183.818ZM357.972 202.284C356.741 202.284 355.661 201.991 354.732 201.405C353.808 200.819 353.086 200 352.565 198.946C352.051 197.893 351.793 196.661 351.793 195.253C351.793 193.832 352.051 192.592 352.565 191.533C353.086 190.474 353.808 189.651 354.732 189.065C355.661 188.479 356.741 188.186 357.972 188.186C359.203 188.186 360.28 188.479 361.204 189.065C362.133 189.651 362.855 190.474 363.37 191.533C363.891 192.592 364.151 193.832 364.151 195.253C364.151 196.661 363.891 197.893 363.37 198.946C362.855 200 362.133 200.819 361.204 201.405C360.28 201.991 359.203 202.284 357.972 202.284ZM357.972 200.402C358.907 200.402 359.677 200.162 360.28 199.683C360.884 199.203 361.331 198.573 361.621 197.792C361.911 197.011 362.056 196.164 362.056 195.253C362.056 194.341 361.911 193.492 361.621 192.705C361.331 191.918 360.884 191.281 360.28 190.796C359.677 190.311 358.907 190.068 357.972 190.068C357.037 190.068 356.267 190.311 355.664 190.796C355.06 191.281 354.613 191.918 354.323 192.705C354.033 193.492 353.888 194.341 353.888 195.253C353.888 196.164 354.033 197.011 354.323 197.792C354.613 198.573 355.06 199.203 355.664 199.683C356.267 200.162 357.037 200.402 357.972 200.402ZM369.444 193.797V202H367.349V183.818H369.444V190.494H369.622C369.942 189.79 370.421 189.231 371.06 188.816C371.705 188.396 372.564 188.186 373.635 188.186C374.564 188.186 375.378 188.373 376.076 188.745C376.775 189.112 377.316 189.678 377.701 190.441C378.091 191.199 378.287 192.163 378.287 193.335V202H376.192V193.477C376.192 192.394 375.91 191.557 375.348 190.965C374.792 190.367 374.019 190.068 373.031 190.068C372.345 190.068 371.729 190.213 371.184 190.503C370.646 190.793 370.22 191.216 369.906 191.773C369.598 192.329 369.444 193.004 369.444 193.797ZM384.215 193.797V202H382.12V188.364H384.144V190.494H384.321C384.641 189.802 385.126 189.246 385.777 188.825C386.428 188.399 387.269 188.186 388.299 188.186C389.222 188.186 390.03 188.375 390.722 188.754C391.415 189.127 391.953 189.695 392.338 190.459C392.723 191.216 392.915 192.175 392.915 193.335V202H390.82V193.477C390.82 192.406 390.542 191.571 389.986 190.974C389.429 190.37 388.666 190.068 387.695 190.068C387.026 190.068 386.428 190.213 385.902 190.503C385.381 190.793 384.97 191.216 384.668 191.773C384.366 192.329 384.215 193.004 384.215 193.797ZM397.028 202V183.818H399.123V190.53H399.301C399.454 190.293 399.668 189.991 399.94 189.624C400.218 189.251 400.615 188.92 401.129 188.63C401.65 188.334 402.355 188.186 403.242 188.186C404.391 188.186 405.403 188.473 406.279 189.047C407.155 189.621 407.838 190.435 408.329 191.489C408.821 192.542 409.066 193.785 409.066 195.217C409.066 196.661 408.821 197.913 408.329 198.973C407.838 200.026 407.157 200.843 406.287 201.423C405.417 201.997 404.414 202.284 403.278 202.284C402.402 202.284 401.701 202.139 401.174 201.849C400.647 201.553 400.242 201.219 399.958 200.846C399.673 200.467 399.454 200.153 399.301 199.905H399.052V202H397.028ZM399.088 195.182C399.088 196.212 399.238 197.12 399.54 197.907C399.842 198.689 400.283 199.301 400.863 199.745C401.443 200.183 402.153 200.402 402.994 200.402C403.87 200.402 404.601 200.171 405.187 199.71C405.778 199.242 406.222 198.615 406.518 197.827C406.82 197.034 406.971 196.152 406.971 195.182C406.971 194.223 406.823 193.359 406.527 192.589C406.237 191.814 405.796 191.202 405.204 190.752C404.618 190.296 403.882 190.068 402.994 190.068C402.142 190.068 401.425 190.284 400.845 190.716C400.265 191.142 399.827 191.74 399.531 192.51C399.235 193.273 399.088 194.164 399.088 195.182ZM420.865 196.425V188.364H422.96V202H420.865V199.692H420.723C420.403 200.384 419.906 200.973 419.231 201.458C418.557 201.938 417.704 202.178 416.675 202.178C415.822 202.178 415.065 201.991 414.402 201.618C413.739 201.239 413.218 200.671 412.839 199.914C412.461 199.15 412.271 198.188 412.271 197.028V188.364H414.366V196.886C414.366 197.881 414.644 198.674 415.201 199.266C415.763 199.857 416.479 200.153 417.349 200.153C417.87 200.153 418.4 200.02 418.938 199.754C419.483 199.488 419.939 199.079 420.306 198.529C420.678 197.978 420.865 197.277 420.865 196.425ZM426.797 202V188.364H428.822V190.423H428.964C429.212 189.749 429.662 189.201 430.313 188.781C430.964 188.361 431.698 188.151 432.515 188.151C432.669 188.151 432.861 188.154 433.092 188.159C433.323 188.165 433.497 188.174 433.616 188.186V190.317C433.545 190.299 433.382 190.272 433.127 190.237C432.879 190.195 432.615 190.175 432.337 190.175C431.674 190.175 431.083 190.314 430.562 190.592C430.047 190.864 429.638 191.243 429.337 191.728C429.041 192.208 428.893 192.755 428.893 193.371V202H426.797ZM437.864 207.114C437.509 207.114 437.192 207.084 436.914 207.025C436.636 206.972 436.443 206.918 436.337 206.865L436.869 205.018C437.378 205.149 437.828 205.196 438.219 205.161C438.609 205.125 438.956 204.95 439.258 204.637C439.565 204.329 439.846 203.829 440.101 203.136L440.492 202.071L435.449 188.364H437.722L441.486 199.23H441.628L445.392 188.364H447.665L441.877 203.989C441.616 204.693 441.294 205.276 440.909 205.738C440.524 206.205 440.077 206.551 439.568 206.776C439.065 207.001 438.497 207.114 437.864 207.114Z" fill="black"/>
<circle cx="330.511" cy="59.5114" r="9.01136" fill="#FFE587" stroke="black"/>
<circle cx="374.511" cy="225.511" r="9.01136" fill="#FFE587" stroke="black"/>
<circle cx="98.5114" cy="209.511" r="9.01136" fill="#FFE587" stroke="black"/>
<path d="M98.5 34.5H69.5V39L75.5 45.5L76.5 49L74.5 61L72 66H68L64 70.5V82V91.5H69.5L72 82L74.5 73L75.5 76.5L76.5 82L79 88.5L84.5 91.5L87.5 85L92 78L94.5 70.5L90 66L84.5 73.5V70.5V63L86 54L90 51L94.5 45.5L98.5 34.5Z" fill="#97DCFF"/>
<path d="M79 131.5L90 126L83.5 116L77.5 111.5L76.5 105L81.5 99L84.5 93.5L81.5 91.5L74.5 93.5V100.5L75.5 107.5L69.5 112L74.5 114.5L79 117V119H75.5L72 123.5L65.5 134.5V154.5V161.5H68L74.5 169.5L84.5 163.5V152.5L81.5 147L76.5 150H74.5V147L79 144V138V131.5Z" fill="#97DCFF"/>
<path d="M84.5 117L90 126M90 126L79 131.5V138V144L74.5 147V150H76.5L81.5 147L84.5 152.5V163.5L74.5 169.5L68 161.5H65.5V154.5V134.5L72 123.5L75.5 119H79V117L74.5 114.5L69.5 112L75.5 107.5L74.5 100.5V93.5L81.5 91.5L84.5 93.5L81.5 99L76.5 105L77.5 111.5L83.5 116L90 126ZM69.5 34.5H98.5L94.5 45.5L90 51L86 54L84.5 63V70.5V73.5L90 66L94.5 70.5L92 78L87.5 85L84.5 91.5L79 88.5L76.5 82L75.5 76.5L74.5 73L72 82L69.5 91.5H64V82V70.5L68 66H72L74.5 61L76.5 49L75.5 45.5L69.5 39V34.5Z" stroke="white" stroke-width="2"/>
<circle cx="153.511" cy="486.511" r="9.01136" fill="#FFE587" stroke="black"/>
<path d="M120.202 523V504.818H126.345C127.766 504.818 128.932 505.061 129.843 505.546C130.754 506.026 131.429 506.685 131.867 507.526C132.305 508.366 132.524 509.322 132.524 510.393C132.524 511.465 132.305 512.415 131.867 513.243C131.429 514.072 130.757 514.723 129.852 515.196C128.946 515.664 127.789 515.898 126.381 515.898H121.409V513.909H126.31C127.28 513.909 128.062 513.767 128.653 513.483C129.251 513.199 129.683 512.796 129.95 512.276C130.222 511.749 130.358 511.121 130.358 510.393C130.358 509.665 130.222 509.029 129.95 508.485C129.677 507.94 129.242 507.52 128.645 507.224C128.047 506.922 127.257 506.771 126.274 506.771H122.403V523H120.202ZM128.76 514.832L133.234 523H130.678L126.274 514.832H128.76ZM144.503 517.425V509.364H146.598V523H144.503V520.692H144.361C144.041 521.384 143.544 521.973 142.869 522.458C142.194 522.938 141.342 523.178 140.312 523.178C139.46 523.178 138.702 522.991 138.04 522.618C137.377 522.239 136.856 521.671 136.477 520.914C136.098 520.15 135.909 519.188 135.909 518.028V509.364H138.004V517.886C138.004 518.881 138.282 519.674 138.839 520.266C139.401 520.857 140.117 521.153 140.987 521.153C141.508 521.153 142.037 521.02 142.576 520.754C143.121 520.488 143.576 520.079 143.943 519.529C144.316 518.978 144.503 518.277 144.503 517.425ZM156.366 509.364V511.139H149.299V509.364H156.366ZM151.358 506.097H153.454V519.094C153.454 519.686 153.539 520.129 153.711 520.425C153.889 520.715 154.114 520.911 154.386 521.011C154.664 521.106 154.957 521.153 155.265 521.153C155.496 521.153 155.685 521.142 155.833 521.118C155.981 521.088 156.099 521.065 156.188 521.047L156.614 522.929C156.472 522.982 156.274 523.036 156.019 523.089C155.765 523.148 155.442 523.178 155.052 523.178C154.46 523.178 153.88 523.05 153.312 522.796C152.749 522.541 152.282 522.154 151.909 521.633C151.542 521.112 151.358 520.455 151.358 519.662V506.097ZM161.905 504.818V523H159.81V504.818H161.905ZM169.756 523.32C168.891 523.32 168.107 523.157 167.403 522.831C166.699 522.5 166.139 522.023 165.725 521.402C165.311 520.775 165.104 520.017 165.104 519.129C165.104 518.348 165.257 517.715 165.565 517.229C165.873 516.738 166.284 516.353 166.799 516.075C167.314 515.797 167.882 515.59 168.504 515.454C169.131 515.312 169.762 515.199 170.395 515.116C171.223 515.01 171.895 514.93 172.41 514.877C172.931 514.818 173.31 514.72 173.546 514.584C173.789 514.448 173.91 514.211 173.91 513.874V513.803C173.91 512.927 173.671 512.246 173.191 511.761C172.718 511.275 171.999 511.033 171.034 511.033C170.034 511.033 169.25 511.252 168.681 511.69C168.113 512.128 167.714 512.595 167.483 513.092L165.494 512.382C165.849 511.554 166.323 510.908 166.915 510.447C167.512 509.979 168.164 509.654 168.868 509.47C169.578 509.281 170.276 509.186 170.963 509.186C171.401 509.186 171.904 509.239 172.472 509.346C173.046 509.446 173.6 509.657 174.132 509.976C174.671 510.296 175.118 510.778 175.473 511.423C175.828 512.068 176.006 512.933 176.006 514.016V523H173.91V521.153H173.804C173.662 521.449 173.425 521.766 173.094 522.103C172.762 522.441 172.321 522.728 171.771 522.964C171.22 523.201 170.549 523.32 169.756 523.32ZM170.075 521.438C170.904 521.438 171.602 521.275 172.17 520.949C172.744 520.624 173.177 520.203 173.467 519.689C173.762 519.174 173.91 518.632 173.91 518.064V516.146C173.822 516.253 173.626 516.35 173.324 516.439C173.029 516.522 172.685 516.596 172.295 516.661C171.91 516.72 171.534 516.774 171.167 516.821C170.806 516.862 170.513 516.898 170.288 516.928C169.744 516.999 169.235 517.114 168.761 517.274C168.294 517.428 167.915 517.661 167.625 517.975C167.341 518.283 167.199 518.703 167.199 519.236C167.199 519.964 167.468 520.514 168.007 520.887C168.551 521.254 169.241 521.438 170.075 521.438ZM181.925 514.797V523H179.83V509.364H181.854V511.494H182.031C182.351 510.802 182.836 510.246 183.487 509.825C184.138 509.399 184.979 509.186 186.009 509.186C186.932 509.186 187.74 509.375 188.432 509.754C189.125 510.127 189.663 510.695 190.048 511.459C190.433 512.216 190.625 513.175 190.625 514.335V523H188.53V514.477C188.53 513.406 188.252 512.571 187.695 511.974C187.139 511.37 186.376 511.068 185.405 511.068C184.736 511.068 184.138 511.213 183.612 511.503C183.091 511.793 182.68 512.216 182.378 512.773C182.076 513.329 181.925 514.004 181.925 514.797ZM199.603 523.284C198.467 523.284 197.463 522.997 196.593 522.423C195.723 521.843 195.043 521.026 194.551 519.973C194.06 518.913 193.815 517.661 193.815 516.217C193.815 514.785 194.06 513.542 194.551 512.489C195.043 511.435 195.726 510.621 196.602 510.047C197.478 509.473 198.49 509.186 199.638 509.186C200.526 509.186 201.228 509.334 201.742 509.63C202.263 509.92 202.66 510.251 202.932 510.624C203.21 510.991 203.426 511.293 203.58 511.53H203.758V504.818H205.853V523H203.829V520.905H203.58C203.426 521.153 203.207 521.467 202.923 521.846C202.639 522.219 202.234 522.553 201.707 522.849C201.18 523.139 200.479 523.284 199.603 523.284ZM199.887 521.402C200.727 521.402 201.438 521.183 202.018 520.745C202.598 520.301 203.039 519.689 203.34 518.907C203.642 518.12 203.793 517.212 203.793 516.182C203.793 515.164 203.645 514.273 203.349 513.51C203.053 512.74 202.615 512.142 202.035 511.716C201.455 511.284 200.739 511.068 199.887 511.068C198.999 511.068 198.259 511.296 197.668 511.752C197.082 512.202 196.641 512.814 196.345 513.589C196.055 514.359 195.91 515.223 195.91 516.182C195.91 517.152 196.058 518.034 196.354 518.827C196.655 519.615 197.099 520.242 197.685 520.71C198.277 521.171 199.011 521.402 199.887 521.402Z" fill="black"/>
<path d="M102.202 705V686.818H108.558C109.825 686.818 110.869 687.037 111.692 687.475C112.515 687.907 113.127 688.49 113.53 689.224C113.932 689.952 114.134 690.76 114.134 691.648C114.134 692.429 113.994 693.074 113.716 693.583C113.444 694.092 113.083 694.495 112.633 694.79C112.189 695.086 111.707 695.305 111.186 695.447V695.625C111.742 695.661 112.302 695.856 112.864 696.211C113.426 696.566 113.897 697.075 114.276 697.738C114.654 698.401 114.844 699.212 114.844 700.17C114.844 701.082 114.637 701.902 114.222 702.63C113.808 703.358 113.154 703.935 112.26 704.361C111.367 704.787 110.204 705 108.771 705H102.202ZM104.403 703.047H108.771C110.21 703.047 111.23 702.769 111.834 702.212C112.444 701.65 112.749 700.969 112.749 700.17C112.749 699.555 112.592 698.987 112.278 698.466C111.964 697.939 111.518 697.519 110.938 697.205C110.357 696.886 109.671 696.726 108.878 696.726H104.403V703.047ZM104.403 694.808H108.487C109.15 694.808 109.748 694.678 110.281 694.418C110.819 694.157 111.245 693.79 111.559 693.317C111.879 692.843 112.038 692.287 112.038 691.648C112.038 690.849 111.76 690.171 111.204 689.615C110.647 689.052 109.766 688.771 108.558 688.771H104.403V694.808ZM123.895 705.284C122.581 705.284 121.447 704.994 120.494 704.414C119.548 703.828 118.817 703.011 118.302 701.964C117.793 700.91 117.538 699.685 117.538 698.288C117.538 696.892 117.793 695.661 118.302 694.595C118.817 693.524 119.533 692.689 120.45 692.092C121.373 691.488 122.451 691.186 123.682 691.186C124.392 691.186 125.093 691.304 125.786 691.541C126.478 691.778 127.108 692.163 127.677 692.695C128.245 693.222 128.698 693.92 129.035 694.79C129.372 695.661 129.541 696.732 129.541 698.004V698.892H119.03V697.081H127.41C127.41 696.312 127.256 695.625 126.949 695.021C126.647 694.418 126.215 693.941 125.653 693.592C125.096 693.243 124.439 693.068 123.682 693.068C122.847 693.068 122.125 693.275 121.515 693.69C120.912 694.098 120.447 694.631 120.122 695.288C119.796 695.945 119.633 696.649 119.633 697.401V698.608C119.633 699.638 119.811 700.511 120.166 701.227C120.527 701.937 121.027 702.479 121.666 702.852C122.306 703.219 123.048 703.402 123.895 703.402C124.445 703.402 124.942 703.325 125.386 703.171C125.836 703.011 126.224 702.775 126.549 702.461C126.875 702.141 127.126 701.745 127.304 701.271L129.328 701.839C129.115 702.526 128.757 703.13 128.254 703.651C127.751 704.165 127.129 704.568 126.389 704.858C125.65 705.142 124.818 705.284 123.895 705.284ZM134.823 696.797V705H132.728V691.364H134.752V693.494H134.93C135.249 692.802 135.735 692.246 136.386 691.825C137.037 691.399 137.877 691.186 138.907 691.186C139.83 691.186 140.638 691.375 141.331 691.754C142.023 692.127 142.562 692.695 142.947 693.459C143.331 694.216 143.524 695.175 143.524 696.335V705H141.428V696.477C141.428 695.406 141.15 694.571 140.594 693.974C140.038 693.37 139.274 693.068 138.303 693.068C137.635 693.068 137.037 693.213 136.51 693.503C135.989 693.793 135.578 694.216 135.276 694.773C134.974 695.329 134.823 696.004 134.823 696.797ZM149.447 696.797V705H147.352V691.364H149.376V693.494H149.554C149.873 692.802 150.359 692.246 151.01 691.825C151.661 691.399 152.501 691.186 153.531 691.186C154.454 691.186 155.262 691.375 155.955 691.754C156.647 692.127 157.186 692.695 157.571 693.459C157.955 694.216 158.148 695.175 158.148 696.335V705H156.052V696.477C156.052 695.406 155.774 694.571 155.218 693.974C154.662 693.37 153.898 693.068 152.927 693.068C152.259 693.068 151.661 693.213 151.134 693.503C150.613 693.793 150.202 694.216 149.9 694.773C149.598 695.329 149.447 696.004 149.447 696.797ZM161.976 705V691.364H164.071V705H161.976ZM163.042 689.091C162.633 689.091 162.281 688.952 161.985 688.674C161.695 688.395 161.55 688.061 161.55 687.67C161.55 687.28 161.695 686.945 161.985 686.667C162.281 686.389 162.633 686.25 163.042 686.25C163.45 686.25 163.799 686.389 164.089 686.667C164.385 686.945 164.533 687.28 164.533 687.67C164.533 688.061 164.385 688.395 164.089 688.674C163.799 688.952 163.45 689.091 163.042 689.091ZM170.004 696.797V705H167.909V691.364H169.933V693.494H170.111C170.43 692.802 170.915 692.246 171.566 691.825C172.218 691.399 173.058 691.186 174.088 691.186C175.011 691.186 175.819 691.375 176.511 691.754C177.204 692.127 177.743 692.695 178.127 693.459C178.512 694.216 178.704 695.175 178.704 696.335V705H176.609V696.477C176.609 695.406 176.331 694.571 175.775 693.974C175.218 693.37 174.455 693.068 173.484 693.068C172.815 693.068 172.218 693.213 171.691 693.503C171.17 693.793 170.759 694.216 170.457 694.773C170.155 695.329 170.004 696.004 170.004 696.797ZM188.037 710.398C187.025 710.398 186.155 710.268 185.427 710.007C184.699 709.753 184.092 709.415 183.607 708.995C183.128 708.581 182.746 708.137 182.462 707.663L184.131 706.491C184.32 706.74 184.56 707.024 184.85 707.344C185.14 707.669 185.537 707.95 186.04 708.187C186.549 708.43 187.214 708.551 188.037 708.551C189.138 708.551 190.046 708.285 190.763 707.752C191.479 707.219 191.837 706.385 191.837 705.249V702.479H191.659C191.505 702.727 191.286 703.035 191.002 703.402C190.724 703.763 190.322 704.086 189.795 704.37C189.274 704.648 188.57 704.787 187.682 704.787C186.581 704.787 185.593 704.527 184.717 704.006C183.847 703.485 183.157 702.727 182.648 701.733C182.145 700.739 181.894 699.531 181.894 698.111C181.894 696.714 182.139 695.498 182.631 694.462C183.122 693.42 183.805 692.615 184.681 692.047C185.557 691.473 186.569 691.186 187.718 691.186C188.605 691.186 189.31 691.334 189.83 691.63C190.357 691.92 190.76 692.251 191.038 692.624C191.322 692.991 191.541 693.293 191.695 693.53H191.908V691.364H193.932V705.391C193.932 706.562 193.666 707.515 193.133 708.249C192.606 708.989 191.896 709.531 191.002 709.874C190.115 710.223 189.126 710.398 188.037 710.398ZM187.966 702.905C188.807 702.905 189.517 702.712 190.097 702.328C190.677 701.943 191.118 701.39 191.42 700.668C191.721 699.946 191.872 699.081 191.872 698.075C191.872 697.093 191.724 696.226 191.428 695.474C191.133 694.722 190.695 694.134 190.115 693.707C189.535 693.281 188.818 693.068 187.966 693.068C187.078 693.068 186.338 693.293 185.747 693.743C185.161 694.193 184.72 694.796 184.424 695.554C184.134 696.312 183.989 697.152 183.989 698.075C183.989 699.022 184.137 699.86 184.433 700.588C184.735 701.31 185.178 701.878 185.764 702.292C186.356 702.701 187.09 702.905 187.966 702.905ZM203.698 691.364V693.139H196.631V691.364H203.698ZM198.691 688.097H200.786V701.094C200.786 701.686 200.872 702.129 201.043 702.425C201.221 702.715 201.446 702.911 201.718 703.011C201.996 703.106 202.289 703.153 202.597 703.153C202.828 703.153 203.017 703.142 203.165 703.118C203.313 703.088 203.431 703.065 203.52 703.047L203.946 704.929C203.804 704.982 203.606 705.036 203.351 705.089C203.097 705.148 202.774 705.178 202.384 705.178C201.792 705.178 201.212 705.05 200.644 704.796C200.081 704.541 199.614 704.154 199.241 703.633C198.874 703.112 198.691 702.455 198.691 701.662V688.097ZM212.243 705.284C211.011 705.284 209.931 704.991 209.002 704.405C208.079 703.819 207.357 703 206.836 701.946C206.321 700.893 206.064 699.661 206.064 698.253C206.064 696.832 206.321 695.592 206.836 694.533C207.357 693.474 208.079 692.651 209.002 692.065C209.931 691.479 211.011 691.186 212.243 691.186C213.474 691.186 214.551 691.479 215.474 692.065C216.403 692.651 217.125 693.474 217.64 694.533C218.161 695.592 218.422 696.832 218.422 698.253C218.422 699.661 218.161 700.893 217.64 701.946C217.125 703 216.403 703.819 215.474 704.405C214.551 704.991 213.474 705.284 212.243 705.284ZM212.243 703.402C213.178 703.402 213.947 703.162 214.551 702.683C215.154 702.203 215.601 701.573 215.891 700.792C216.181 700.011 216.326 699.164 216.326 698.253C216.326 697.341 216.181 696.492 215.891 695.705C215.601 694.918 215.154 694.281 214.551 693.796C213.947 693.311 213.178 693.068 212.243 693.068C211.307 693.068 210.538 693.311 209.934 693.796C209.331 694.281 208.884 694.918 208.594 695.705C208.304 696.492 208.159 697.341 208.159 698.253C208.159 699.164 208.304 700.011 208.594 700.792C208.884 701.573 209.331 702.203 209.934 702.683C210.538 703.162 211.307 703.402 212.243 703.402ZM223.715 696.797V705H221.62V691.364H223.644V693.494H223.821C224.141 692.802 224.626 692.246 225.277 691.825C225.928 691.399 226.769 691.186 227.799 691.186C228.722 691.186 229.53 691.375 230.222 691.754C230.915 692.127 231.453 692.695 231.838 693.459C232.223 694.216 232.415 695.175 232.415 696.335V705H230.32V696.477C230.32 695.406 230.042 694.571 229.486 693.974C228.929 693.37 228.166 693.068 227.195 693.068C226.526 693.068 225.928 693.213 225.402 693.503C224.881 693.793 224.47 694.216 224.168 694.773C223.866 695.329 223.715 696.004 223.715 696.797Z" fill="black"/>
<path d="M103.202 243V224.818H109.558C110.825 224.818 111.869 225.037 112.692 225.475C113.515 225.907 114.127 226.49 114.53 227.224C114.932 227.952 115.134 228.76 115.134 229.648C115.134 230.429 114.994 231.074 114.716 231.583C114.444 232.092 114.083 232.495 113.633 232.79C113.189 233.086 112.707 233.305 112.186 233.447V233.625C112.742 233.661 113.302 233.856 113.864 234.211C114.426 234.566 114.897 235.075 115.276 235.738C115.654 236.401 115.844 237.212 115.844 238.17C115.844 239.082 115.637 239.902 115.222 240.63C114.808 241.358 114.154 241.935 113.26 242.361C112.367 242.787 111.204 243 109.771 243H103.202ZM105.403 241.047H109.771C111.21 241.047 112.23 240.769 112.834 240.212C113.444 239.65 113.749 238.969 113.749 238.17C113.749 237.555 113.592 236.987 113.278 236.466C112.964 235.939 112.518 235.519 111.938 235.205C111.357 234.886 110.671 234.726 109.878 234.726H105.403V241.047ZM105.403 232.808H109.487C110.15 232.808 110.748 232.678 111.281 232.418C111.819 232.157 112.245 231.79 112.559 231.317C112.879 230.843 113.038 230.287 113.038 229.648C113.038 228.849 112.76 228.171 112.204 227.615C111.647 227.052 110.766 226.771 109.558 226.771H105.403V232.808ZM127.771 237.425V229.364H129.866V243H127.771V240.692H127.629C127.309 241.384 126.812 241.973 126.138 242.458C125.463 242.938 124.611 243.178 123.581 243.178C122.729 243.178 121.971 242.991 121.308 242.618C120.645 242.239 120.124 241.671 119.746 240.914C119.367 240.15 119.177 239.188 119.177 238.028V229.364H121.273V237.886C121.273 238.881 121.551 239.674 122.107 240.266C122.669 240.857 123.385 241.153 124.256 241.153C124.776 241.153 125.306 241.02 125.845 240.754C126.389 240.488 126.845 240.079 127.212 239.529C127.585 238.978 127.771 238.277 127.771 237.425ZM133.704 243V229.364H135.728V231.423H135.87C136.119 230.749 136.568 230.201 137.219 229.781C137.87 229.361 138.604 229.151 139.421 229.151C139.575 229.151 139.767 229.154 139.998 229.159C140.229 229.165 140.404 229.174 140.522 229.186V231.317C140.451 231.299 140.288 231.272 140.034 231.237C139.785 231.195 139.522 231.175 139.244 231.175C138.581 231.175 137.989 231.314 137.468 231.592C136.953 231.864 136.545 232.243 136.243 232.728C135.947 233.208 135.799 233.755 135.799 234.371V243H133.704ZM145.101 224.818V243H143.006V224.818H145.101ZM148.938 243V229.364H151.033V243H148.938ZM150.003 227.091C149.595 227.091 149.243 226.952 148.947 226.674C148.657 226.395 148.512 226.061 148.512 225.67C148.512 225.28 148.657 224.945 148.947 224.667C149.243 224.389 149.595 224.25 150.003 224.25C150.412 224.25 150.761 224.389 151.051 224.667C151.347 224.945 151.495 225.28 151.495 225.67C151.495 226.061 151.347 226.395 151.051 226.674C150.761 226.952 150.412 227.091 150.003 227.091ZM156.966 234.797V243H154.871V229.364H156.895V231.494H157.072C157.392 230.802 157.877 230.246 158.528 229.825C159.179 229.399 160.02 229.186 161.05 229.186C161.973 229.186 162.781 229.375 163.473 229.754C164.166 230.127 164.704 230.695 165.089 231.459C165.474 232.216 165.666 233.175 165.666 234.335V243H163.571V234.477C163.571 233.406 163.293 232.571 162.737 231.974C162.18 231.37 161.417 231.068 160.446 231.068C159.777 231.068 159.179 231.213 158.653 231.503C158.132 231.793 157.721 232.216 157.419 232.773C157.117 233.329 156.966 234.004 156.966 234.797ZM174.999 248.398C173.987 248.398 173.117 248.268 172.389 248.007C171.661 247.753 171.054 247.415 170.569 246.995C170.09 246.581 169.708 246.137 169.424 245.663L171.093 244.491C171.282 244.74 171.522 245.024 171.812 245.344C172.102 245.669 172.498 245.95 173.002 246.187C173.511 246.43 174.176 246.551 174.999 246.551C176.1 246.551 177.008 246.285 177.725 245.752C178.441 245.219 178.799 244.385 178.799 243.249V240.479H178.621C178.467 240.727 178.248 241.035 177.964 241.402C177.686 241.763 177.284 242.086 176.757 242.37C176.236 242.648 175.532 242.787 174.644 242.787C173.543 242.787 172.555 242.527 171.679 242.006C170.809 241.485 170.119 240.727 169.61 239.733C169.107 238.739 168.856 237.531 168.856 236.111C168.856 234.714 169.101 233.498 169.592 232.462C170.084 231.42 170.767 230.615 171.643 230.047C172.519 229.473 173.531 229.186 174.679 229.186C175.567 229.186 176.272 229.334 176.792 229.63C177.319 229.92 177.722 230.251 178 230.624C178.284 230.991 178.503 231.293 178.657 231.53H178.87V229.364H180.894V243.391C180.894 244.562 180.628 245.515 180.095 246.249C179.568 246.989 178.858 247.531 177.964 247.874C177.076 248.223 176.088 248.398 174.999 248.398ZM174.928 240.905C175.768 240.905 176.479 240.712 177.059 240.328C177.639 239.943 178.08 239.39 178.381 238.668C178.683 237.946 178.834 237.081 178.834 236.075C178.834 235.093 178.686 234.226 178.39 233.474C178.094 232.722 177.656 232.134 177.076 231.707C176.496 231.281 175.78 231.068 174.928 231.068C174.04 231.068 173.3 231.293 172.709 231.743C172.123 232.193 171.682 232.796 171.386 233.554C171.096 234.312 170.951 235.152 170.951 236.075C170.951 237.022 171.099 237.86 171.395 238.588C171.696 239.31 172.14 239.878 172.726 240.292C173.318 240.701 174.052 240.905 174.928 240.905ZM190.66 229.364V231.139H183.593V229.364H190.66ZM185.652 226.097H187.748V239.094C187.748 239.686 187.833 240.129 188.005 240.425C188.183 240.715 188.408 240.911 188.68 241.011C188.958 241.106 189.251 241.153 189.559 241.153C189.79 241.153 189.979 241.142 190.127 241.118C190.275 241.088 190.393 241.065 190.482 241.047L190.908 242.929C190.766 242.982 190.568 243.036 190.313 243.089C190.059 243.148 189.736 243.178 189.346 243.178C188.754 243.178 188.174 243.05 187.606 242.796C187.043 242.541 186.576 242.154 186.203 241.633C185.836 241.112 185.652 240.455 185.652 239.662V226.097ZM199.204 243.284C197.973 243.284 196.893 242.991 195.964 242.405C195.041 241.819 194.319 241 193.798 239.946C193.283 238.893 193.025 237.661 193.025 236.253C193.025 234.832 193.283 233.592 193.798 232.533C194.319 231.474 195.041 230.651 195.964 230.065C196.893 229.479 197.973 229.186 199.204 229.186C200.436 229.186 201.513 229.479 202.436 230.065C203.365 230.651 204.087 231.474 204.602 232.533C205.123 233.592 205.383 234.832 205.383 236.253C205.383 237.661 205.123 238.893 204.602 239.946C204.087 241 203.365 241.819 202.436 242.405C201.513 242.991 200.436 243.284 199.204 243.284ZM199.204 241.402C200.14 241.402 200.909 241.162 201.513 240.683C202.116 240.203 202.563 239.573 202.853 238.792C203.143 238.011 203.288 237.164 203.288 236.253C203.288 235.341 203.143 234.492 202.853 233.705C202.563 232.918 202.116 232.281 201.513 231.796C200.909 231.311 200.14 231.068 199.204 231.068C198.269 231.068 197.5 231.311 196.896 231.796C196.293 232.281 195.846 232.918 195.556 233.705C195.266 234.492 195.121 235.341 195.121 236.253C195.121 237.164 195.266 238.011 195.556 238.792C195.846 239.573 196.293 240.203 196.896 240.683C197.5 241.162 198.269 241.402 199.204 241.402ZM210.677 234.797V243H208.582V229.364H210.606V231.494H210.783C211.103 230.802 211.588 230.246 212.239 229.825C212.89 229.399 213.731 229.186 214.761 229.186C215.684 229.186 216.492 229.375 217.184 229.754C217.877 230.127 218.415 230.695 218.8 231.459C219.185 232.216 219.377 233.175 219.377 234.335V243H217.282V234.477C217.282 233.406 217.004 232.571 216.447 231.974C215.891 231.37 215.128 231.068 214.157 231.068C213.488 231.068 212.89 231.213 212.364 231.503C211.843 231.793 211.431 232.216 211.13 232.773C210.828 233.329 210.677 234.004 210.677 234.797Z" fill="black"/>
<circle cx="244.511" cy="280.511" r="9.01136" fill="#FF8F87" stroke="black"/>
<path d="M181.58 295.818H186.321L191.328 308.034H191.541L196.548 295.818H201.289V314H197.56V302.166H197.409L192.704 313.911H190.165L185.46 302.121H185.309V314H181.58V295.818ZM210.546 314.266C209.167 314.266 207.975 313.973 206.969 313.387C205.968 312.796 205.196 311.973 204.652 310.919C204.107 309.86 203.835 308.632 203.835 307.235C203.835 305.826 204.107 304.595 204.652 303.542C205.196 302.482 205.968 301.66 206.969 301.074C207.975 300.482 209.167 300.186 210.546 300.186C211.925 300.186 213.115 300.482 214.115 301.074C215.121 301.66 215.897 302.482 216.441 303.542C216.986 304.595 217.258 305.826 217.258 307.235C217.258 308.632 216.986 309.86 216.441 310.919C215.897 311.973 215.121 312.796 214.115 313.387C213.115 313.973 211.925 314.266 210.546 314.266ZM210.564 311.337C211.192 311.337 211.715 311.159 212.136 310.804C212.556 310.443 212.872 309.952 213.085 309.33C213.304 308.709 213.414 308.002 213.414 307.208C213.414 306.415 213.304 305.708 213.085 305.087C212.872 304.465 212.556 303.974 212.136 303.613C211.715 303.252 211.192 303.071 210.564 303.071C209.931 303.071 209.398 303.252 208.966 303.613C208.54 303.974 208.217 304.465 207.998 305.087C207.785 305.708 207.679 306.415 207.679 307.208C207.679 308.002 207.785 308.709 207.998 309.33C208.217 309.952 208.54 310.443 208.966 310.804C209.398 311.159 209.931 311.337 210.564 311.337ZM223.499 306.116V314H219.717V300.364H223.322V302.77H223.481C223.783 301.976 224.289 301.349 225 300.887C225.71 300.42 226.571 300.186 227.583 300.186C228.53 300.186 229.356 300.393 230.06 300.808C230.764 301.222 231.312 301.814 231.702 302.583C232.093 303.347 232.288 304.258 232.288 305.317V314H228.506V305.992C228.512 305.158 228.299 304.507 227.867 304.039C227.435 303.566 226.84 303.329 226.083 303.329C225.574 303.329 225.124 303.438 224.733 303.657C224.349 303.876 224.047 304.196 223.828 304.616C223.615 305.03 223.505 305.531 223.499 306.116ZM242.522 300.364V303.205H234.31V300.364H242.522ZM236.175 297.097H239.956V309.81C239.956 310.159 240.01 310.431 240.116 310.626C240.223 310.816 240.371 310.949 240.56 311.026C240.756 311.103 240.98 311.141 241.235 311.141C241.412 311.141 241.59 311.127 241.768 311.097C241.945 311.061 242.081 311.035 242.176 311.017L242.771 313.831C242.581 313.891 242.315 313.959 241.972 314.036C241.628 314.118 241.211 314.169 240.72 314.186C239.809 314.222 239.01 314.101 238.323 313.822C237.642 313.544 237.113 313.112 236.734 312.526C236.355 311.94 236.169 311.201 236.175 310.307V297.097ZM244.986 319.114V300.364H248.714V302.654H248.883C249.049 302.287 249.289 301.914 249.602 301.536C249.922 301.151 250.336 300.831 250.845 300.577C251.36 300.316 251.999 300.186 252.763 300.186C253.757 300.186 254.674 300.446 255.515 300.967C256.355 301.482 257.027 302.261 257.53 303.302C258.033 304.338 258.285 305.637 258.285 307.2C258.285 308.721 258.039 310.005 257.548 311.053C257.063 312.094 256.4 312.884 255.559 313.423C254.725 313.956 253.79 314.222 252.754 314.222C252.02 314.222 251.396 314.101 250.881 313.858C250.372 313.615 249.954 313.31 249.629 312.944C249.303 312.571 249.055 312.195 248.883 311.816H248.768V319.114H244.986ZM248.688 307.182C248.688 307.993 248.8 308.7 249.025 309.304C249.25 309.907 249.576 310.378 250.002 310.715C250.428 311.047 250.946 311.212 251.555 311.212C252.171 311.212 252.692 311.044 253.118 310.706C253.544 310.363 253.867 309.89 254.086 309.286C254.31 308.676 254.423 307.975 254.423 307.182C254.423 306.395 254.313 305.702 254.094 305.104C253.875 304.507 253.553 304.039 253.127 303.702C252.701 303.364 252.177 303.196 251.555 303.196C250.94 303.196 250.419 303.358 249.993 303.684C249.573 304.009 249.25 304.471 249.025 305.069C248.8 305.667 248.688 306.371 248.688 307.182ZM267.021 314.266C265.618 314.266 264.411 313.982 263.398 313.414C262.392 312.84 261.617 312.029 261.072 310.982C260.528 309.928 260.256 308.682 260.256 307.244C260.256 305.841 260.528 304.61 261.072 303.551C261.617 302.491 262.383 301.666 263.372 301.074C264.366 300.482 265.532 300.186 266.87 300.186C267.769 300.186 268.607 300.331 269.382 300.621C270.163 300.905 270.844 301.334 271.424 301.908C272.01 302.482 272.466 303.205 272.791 304.075C273.117 304.939 273.279 305.951 273.279 307.111V308.15H261.765V305.806H269.719C269.719 305.261 269.601 304.779 269.364 304.359C269.128 303.938 268.799 303.61 268.379 303.373C267.965 303.131 267.482 303.009 266.932 303.009C266.358 303.009 265.849 303.142 265.405 303.409C264.967 303.669 264.624 304.021 264.375 304.465C264.126 304.903 263.999 305.391 263.993 305.93V308.158C263.993 308.833 264.118 309.416 264.366 309.907C264.621 310.399 264.979 310.777 265.44 311.044C265.902 311.31 266.449 311.443 267.083 311.443C267.503 311.443 267.888 311.384 268.237 311.266C268.586 311.147 268.885 310.97 269.134 310.733C269.382 310.496 269.571 310.206 269.702 309.863L273.2 310.094C273.022 310.934 272.658 311.668 272.108 312.295C271.563 312.917 270.859 313.402 269.995 313.751C269.136 314.095 268.145 314.266 267.021 314.266ZM279.529 295.818V314H275.748V295.818H279.529ZM282.559 314V300.364H286.341V314H282.559ZM284.459 298.606C283.897 298.606 283.414 298.419 283.012 298.047C282.615 297.668 282.417 297.215 282.417 296.688C282.417 296.167 282.615 295.721 283.012 295.348C283.414 294.969 283.897 294.779 284.459 294.779C285.021 294.779 285.501 294.969 285.897 295.348C286.3 295.721 286.501 296.167 286.501 296.688C286.501 297.215 286.3 297.668 285.897 298.047C285.501 298.419 285.021 298.606 284.459 298.606ZM295.585 314.266C294.182 314.266 292.975 313.982 291.963 313.414C290.957 312.84 290.181 312.029 289.637 310.982C289.092 309.928 288.82 308.682 288.82 307.244C288.82 305.841 289.092 304.61 289.637 303.551C290.181 302.491 290.948 301.666 291.936 301.074C292.931 300.482 294.097 300.186 295.434 300.186C296.334 300.186 297.171 300.331 297.947 300.621C298.728 300.905 299.408 301.334 299.988 301.908C300.574 302.482 301.03 303.205 301.356 304.075C301.681 304.939 301.844 305.951 301.844 307.111V308.15H290.329V305.806H298.284C298.284 305.261 298.166 304.779 297.929 304.359C297.692 303.938 297.364 303.61 296.943 303.373C296.529 303.131 296.047 303.009 295.496 303.009C294.922 303.009 294.413 303.142 293.969 303.409C293.531 303.669 293.188 304.021 292.939 304.465C292.691 304.903 292.564 305.391 292.558 305.93V308.158C292.558 308.833 292.682 309.416 292.931 309.907C293.185 310.399 293.543 310.777 294.005 311.044C294.466 311.31 295.014 311.443 295.647 311.443C296.067 311.443 296.452 311.384 296.801 311.266C297.151 311.147 297.449 310.97 297.698 310.733C297.947 310.496 298.136 310.206 298.266 309.863L301.764 310.094C301.586 310.934 301.222 311.668 300.672 312.295C300.128 312.917 299.423 313.402 298.559 313.751C297.701 314.095 296.71 314.266 295.585 314.266ZM304.312 314V300.364H307.979V302.743H308.121C308.369 301.897 308.786 301.257 309.372 300.825C309.958 300.387 310.633 300.168 311.396 300.168C311.586 300.168 311.79 300.18 312.009 300.204C312.228 300.228 312.42 300.26 312.586 300.301V303.657C312.409 303.604 312.163 303.557 311.849 303.515C311.536 303.474 311.249 303.453 310.988 303.453C310.432 303.453 309.935 303.574 309.497 303.817C309.065 304.054 308.721 304.385 308.467 304.811C308.218 305.238 308.094 305.729 308.094 306.285V314H304.312Z" fill="black"/>
<path d="M166.722 777.545H170.591L175.773 790.193H175.977L181.159 777.545H185.028V795H181.994V783.009H181.832L177.009 794.949H174.741L169.918 782.983H169.756V795H166.722V777.545ZM190.713 795H187.338L193.483 777.545H197.386L203.54 795H200.165L195.503 781.125H195.366L190.713 795ZM190.824 788.156H200.028V790.696H190.824V788.156Z" fill="#FFE587"/>
</svg>
