<svg width="1086" height="576" viewBox="0 0 1086 576" fill="none" xmlns="http://www.w3.org/2000/svg">
<rect x="0.5" y="0.5" width="1085" height="575" rx="35.5" fill="#202637" stroke="#717171"/>
<path d="M960.963 419H957.588L963.733 401.545H967.636L973.79 419H970.415L965.753 405.125H965.616L960.963 419ZM961.074 412.156H970.278V414.696H961.074V412.156ZM981.669 405.909V408.295H974.143V405.909H981.669ZM976.001 402.773H979.087V415.062C979.087 415.477 979.149 415.795 979.274 416.017C979.405 416.233 979.575 416.381 979.786 416.46C979.996 416.54 980.229 416.58 980.484 416.58C980.678 416.58 980.854 416.565 981.013 416.537C981.178 416.509 981.303 416.483 981.388 416.46L981.908 418.872C981.743 418.929 981.507 418.991 981.2 419.06C980.899 419.128 980.53 419.168 980.092 419.179C979.32 419.202 978.624 419.085 978.004 418.83C977.385 418.568 976.893 418.165 976.53 417.619C976.172 417.074 975.996 416.392 976.001 415.574V402.773ZM987.616 401.545V419H984.531V401.545H987.616ZM994.555 419.264C993.726 419.264 992.979 419.116 992.314 418.821C991.655 418.52 991.132 418.077 990.746 417.491C990.365 416.906 990.175 416.185 990.175 415.327C990.175 414.588 990.311 413.977 990.584 413.494C990.857 413.011 991.229 412.625 991.7 412.335C992.172 412.045 992.703 411.827 993.294 411.679C993.891 411.526 994.507 411.415 995.143 411.347C995.911 411.267 996.533 411.196 997.01 411.134C997.487 411.065 997.834 410.963 998.05 410.827C998.271 410.685 998.382 410.466 998.382 410.17V410.119C998.382 409.477 998.192 408.98 997.811 408.628C997.43 408.276 996.882 408.099 996.166 408.099C995.411 408.099 994.811 408.264 994.368 408.594C993.93 408.923 993.635 409.312 993.482 409.761L990.601 409.352C990.828 408.557 991.203 407.892 991.726 407.358C992.249 406.818 992.888 406.415 993.643 406.148C994.399 405.875 995.234 405.739 996.149 405.739C996.78 405.739 997.408 405.812 998.033 405.96C998.658 406.108 999.229 406.352 999.746 406.693C1000.26 407.028 1000.68 407.486 1000.99 408.065C1001.31 408.645 1001.47 409.369 1001.47 410.239V419H998.501V417.202H998.399C998.212 417.565 997.947 417.906 997.607 418.224C997.271 418.537 996.848 418.79 996.337 418.983C995.831 419.17 995.237 419.264 994.555 419.264ZM995.357 416.997C995.976 416.997 996.513 416.875 996.967 416.631C997.422 416.381 997.771 416.051 998.016 415.642C998.266 415.233 998.391 414.787 998.391 414.304V412.761C998.294 412.841 998.129 412.915 997.896 412.983C997.669 413.051 997.413 413.111 997.129 413.162C996.845 413.213 996.564 413.259 996.286 413.298C996.007 413.338 995.766 413.372 995.561 413.401C995.101 413.463 994.689 413.565 994.325 413.707C993.962 413.849 993.675 414.048 993.464 414.304C993.254 414.554 993.149 414.878 993.149 415.276C993.149 415.844 993.357 416.273 993.771 416.562C994.186 416.852 994.714 416.997 995.357 416.997ZM1007.65 411.33V419H1004.57V405.909H1007.52V408.134H1007.67C1007.97 407.401 1008.45 406.818 1009.11 406.386C1009.78 405.955 1010.6 405.739 1011.58 405.739C1012.48 405.739 1013.27 405.932 1013.94 406.318C1014.61 406.705 1015.13 407.264 1015.5 407.997C1015.88 408.73 1016.06 409.619 1016.06 410.665V419H1012.97V411.142C1012.97 410.267 1012.75 409.582 1012.29 409.088C1011.84 408.594 1011.22 408.347 1010.42 408.347C1009.88 408.347 1009.4 408.466 1008.98 408.705C1008.57 408.937 1008.24 409.276 1008 409.719C1007.77 410.162 1007.65 410.699 1007.65 411.33ZM1025.73 405.909V408.295H1018.21V405.909H1025.73ZM1020.06 402.773H1023.15V415.062C1023.15 415.477 1023.21 415.795 1023.34 416.017C1023.47 416.233 1023.64 416.381 1023.85 416.46C1024.06 416.54 1024.29 416.58 1024.55 416.58C1024.74 416.58 1024.92 416.565 1025.08 416.537C1025.24 416.509 1025.37 416.483 1025.45 416.46L1025.97 418.872C1025.81 418.929 1025.57 418.991 1025.26 419.06C1024.96 419.128 1024.59 419.168 1024.15 419.179C1023.38 419.202 1022.69 419.085 1022.07 418.83C1021.45 418.568 1020.96 418.165 1020.59 417.619C1020.23 417.074 1020.06 416.392 1020.06 415.574V402.773ZM1028.31 419V405.909H1031.4V419H1028.31ZM1029.86 404.051C1029.37 404.051 1028.95 403.889 1028.6 403.565C1028.25 403.236 1028.07 402.841 1028.07 402.381C1028.07 401.915 1028.25 401.52 1028.6 401.196C1028.95 400.866 1029.37 400.702 1029.86 400.702C1030.36 400.702 1030.78 400.866 1031.12 401.196C1031.48 401.52 1031.65 401.915 1031.65 402.381C1031.65 402.841 1031.48 403.236 1031.12 403.565C1030.78 403.889 1030.36 404.051 1029.86 404.051ZM1040.28 419.256C1038.97 419.256 1037.85 418.969 1036.91 418.395C1035.98 417.821 1035.26 417.028 1034.76 416.017C1034.26 415 1034.01 413.83 1034.01 412.506C1034.01 411.176 1034.26 410.003 1034.77 408.986C1035.29 407.963 1036.01 407.168 1036.94 406.599C1037.88 406.026 1038.98 405.739 1040.26 405.739C1041.33 405.739 1042.27 405.935 1043.08 406.327C1043.91 406.713 1044.56 407.261 1045.05 407.972C1045.54 408.676 1045.82 409.5 1045.89 410.443H1042.94C1042.82 409.812 1042.54 409.287 1042.09 408.866C1041.64 408.44 1041.05 408.227 1040.31 408.227C1039.67 408.227 1039.12 408.398 1038.64 408.739C1038.17 409.074 1037.79 409.557 1037.53 410.188C1037.27 410.818 1037.13 411.574 1037.13 412.455C1037.13 413.347 1037.27 414.114 1037.53 414.756C1037.79 415.392 1038.15 415.884 1038.63 416.23C1039.1 416.571 1039.66 416.741 1040.31 416.741C1040.76 416.741 1041.17 416.656 1041.52 416.486C1041.89 416.31 1042.19 416.057 1042.44 415.727C1042.68 415.398 1042.85 414.997 1042.94 414.526H1045.89C1045.81 415.452 1045.54 416.273 1045.07 416.989C1044.6 417.699 1043.96 418.256 1043.14 418.659C1042.33 419.057 1041.38 419.256 1040.28 419.256ZM974.318 439.273C974.318 441.153 973.966 442.764 973.261 444.105C972.563 445.44 971.608 446.463 970.398 447.173C969.193 447.884 967.827 448.239 966.298 448.239C964.77 448.239 963.401 447.884 962.19 447.173C960.986 446.457 960.031 445.432 959.327 444.097C958.628 442.756 958.278 441.148 958.278 439.273C958.278 437.392 958.628 435.784 959.327 434.449C960.031 433.108 960.986 432.082 962.19 431.372C963.401 430.662 964.77 430.307 966.298 430.307C967.827 430.307 969.193 430.662 970.398 431.372C971.608 432.082 972.563 433.108 973.261 434.449C973.966 435.784 974.318 437.392 974.318 439.273ZM971.139 439.273C971.139 437.949 970.932 436.832 970.517 435.923C970.108 435.009 969.54 434.318 968.812 433.852C968.085 433.381 967.247 433.145 966.298 433.145C965.349 433.145 964.511 433.381 963.784 433.852C963.057 434.318 962.486 435.009 962.071 435.923C961.662 436.832 961.457 437.949 961.457 439.273C961.457 440.597 961.662 441.716 962.071 442.631C962.486 443.54 963.057 444.23 963.784 444.702C964.511 445.168 965.349 445.401 966.298 445.401C967.247 445.401 968.085 445.168 968.812 444.702C969.54 444.23 970.108 443.54 970.517 442.631C970.932 441.716 971.139 440.597 971.139 439.273ZM982.881 448.256C981.575 448.256 980.452 447.969 979.515 447.395C978.583 446.821 977.864 446.028 977.359 445.017C976.859 444 976.609 442.83 976.609 441.506C976.609 440.176 976.864 439.003 977.376 437.986C977.887 436.963 978.609 436.168 979.54 435.599C980.478 435.026 981.586 434.739 982.864 434.739C983.927 434.739 984.867 434.935 985.685 435.327C986.509 435.713 987.165 436.261 987.654 436.972C988.143 437.676 988.421 438.5 988.489 439.443H985.54C985.421 438.812 985.137 438.287 984.688 437.866C984.245 437.44 983.651 437.227 982.907 437.227C982.276 437.227 981.722 437.398 981.245 437.739C980.768 438.074 980.396 438.557 980.129 439.188C979.867 439.818 979.737 440.574 979.737 441.455C979.737 442.347 979.867 443.114 980.129 443.756C980.39 444.392 980.756 444.884 981.228 445.23C981.705 445.571 982.265 445.741 982.907 445.741C983.362 445.741 983.768 445.656 984.126 445.486C984.489 445.31 984.793 445.057 985.038 444.727C985.282 444.398 985.45 443.997 985.54 443.526H988.489C988.415 444.452 988.143 445.273 987.671 445.989C987.2 446.699 986.558 447.256 985.745 447.659C984.933 448.057 983.978 448.256 982.881 448.256ZM996.818 448.256C995.506 448.256 994.372 447.983 993.418 447.438C992.469 446.886 991.739 446.108 991.227 445.102C990.716 444.091 990.46 442.901 990.46 441.531C990.46 440.185 990.716 439.003 991.227 437.986C991.744 436.963 992.466 436.168 993.392 435.599C994.318 435.026 995.406 434.739 996.656 434.739C997.463 434.739 998.224 434.869 998.94 435.131C999.662 435.386 1000.3 435.784 1000.85 436.324C1001.41 436.864 1001.84 437.551 1002.16 438.386C1002.48 439.216 1002.64 440.205 1002.64 441.352V442.298H991.909V440.219H999.682C999.676 439.628 999.548 439.102 999.298 438.642C999.048 438.176 998.699 437.81 998.25 437.543C997.807 437.276 997.29 437.142 996.699 437.142C996.068 437.142 995.514 437.295 995.037 437.602C994.56 437.903 994.188 438.301 993.92 438.795C993.659 439.284 993.526 439.821 993.52 440.406V442.222C993.52 442.983 993.659 443.636 993.938 444.182C994.216 444.722 994.605 445.136 995.105 445.426C995.605 445.71 996.19 445.852 996.861 445.852C997.31 445.852 997.716 445.79 998.08 445.665C998.443 445.534 998.759 445.344 999.026 445.094C999.293 444.844 999.494 444.534 999.631 444.165L1002.51 444.489C1002.33 445.25 1001.98 445.915 1001.47 446.483C1000.97 447.045 1000.32 447.483 999.528 447.795C998.739 448.102 997.835 448.256 996.818 448.256ZM1009.02 448.264C1008.19 448.264 1007.44 448.116 1006.77 447.821C1006.12 447.52 1005.59 447.077 1005.21 446.491C1004.83 445.906 1004.64 445.185 1004.64 444.327C1004.64 443.588 1004.77 442.977 1005.04 442.494C1005.32 442.011 1005.69 441.625 1006.16 441.335C1006.63 441.045 1007.16 440.827 1007.75 440.679C1008.35 440.526 1008.97 440.415 1009.6 440.347C1010.37 440.267 1010.99 440.196 1011.47 440.134C1011.95 440.065 1012.29 439.963 1012.51 439.827C1012.73 439.685 1012.84 439.466 1012.84 439.17V439.119C1012.84 438.477 1012.65 437.98 1012.27 437.628C1011.89 437.276 1011.34 437.099 1010.63 437.099C1009.87 437.099 1009.27 437.264 1008.83 437.594C1008.39 437.923 1008.1 438.312 1007.94 438.761L1005.06 438.352C1005.29 437.557 1005.66 436.892 1006.19 436.358C1006.71 435.818 1007.35 435.415 1008.1 435.148C1008.86 434.875 1009.7 434.739 1010.61 434.739C1011.24 434.739 1011.87 434.812 1012.49 434.96C1013.12 435.108 1013.69 435.352 1014.21 435.693C1014.72 436.028 1015.14 436.486 1015.45 437.065C1015.77 437.645 1015.93 438.369 1015.93 439.239V448H1012.96V446.202H1012.86C1012.67 446.565 1012.41 446.906 1012.07 447.224C1011.73 447.537 1011.31 447.79 1010.8 447.983C1010.29 448.17 1009.7 448.264 1009.02 448.264ZM1009.82 445.997C1010.44 445.997 1010.97 445.875 1011.43 445.631C1011.88 445.381 1012.23 445.051 1012.48 444.642C1012.73 444.233 1012.85 443.787 1012.85 443.304V441.761C1012.75 441.841 1012.59 441.915 1012.36 441.983C1012.13 442.051 1011.87 442.111 1011.59 442.162C1011.31 442.213 1011.02 442.259 1010.75 442.298C1010.47 442.338 1010.23 442.372 1010.02 442.401C1009.56 442.463 1009.15 442.565 1008.79 442.707C1008.42 442.849 1008.14 443.048 1007.93 443.304C1007.72 443.554 1007.61 443.878 1007.61 444.276C1007.61 444.844 1007.82 445.273 1008.23 445.562C1008.65 445.852 1009.18 445.997 1009.82 445.997ZM1022.12 440.33V448H1019.03V434.909H1021.98V437.134H1022.13C1022.43 436.401 1022.91 435.818 1023.57 435.386C1024.24 434.955 1025.06 434.739 1026.04 434.739C1026.94 434.739 1027.73 434.932 1028.4 435.318C1029.07 435.705 1029.6 436.264 1029.97 436.997C1030.34 437.73 1030.52 438.619 1030.52 439.665V448H1027.43V440.142C1027.43 439.267 1027.21 438.582 1026.75 438.088C1026.3 437.594 1025.68 437.347 1024.89 437.347C1024.35 437.347 1023.87 437.466 1023.45 437.705C1023.03 437.937 1022.7 438.276 1022.47 438.719C1022.23 439.162 1022.12 439.699 1022.12 440.33Z" fill="#00D9E4"/>
<line x1="940.293" y1="473.707" x2="931.293" y2="464.707" stroke="#FFE587" stroke-width="2"/>
<path d="M939.5 447.5L938 444L937.5 446L938 448.5L939 451.5V453.5L940.5 455.5L941 459L940.5 462L942 464L943.5 464.5L944.5 462L943.5 459L942 453.5L940 450L939.5 447.5Z" fill="#97DCFF" stroke="white" stroke-width="2"/>
<path d="M942 370.5L944 372L945 373.5L946.5 373L947.5 370.5V368.5L950.5 369L951 370.5L949 371.5L950.5 372L949.5 374L946.5 378L943.5 382L940.5 384.5L939 385L938 384.5L939 383.5H940V382C940 381.6 940.667 381.5 941 381.5L943 380.5L944 379V377.5L945.5 377L947 376L947.5 374.5L945.5 375.5L944 373.5L943 377L939 375.5V369L941 367L942 362L940 359.5L942 357L944 356V353.5V351L945.5 348.5V351V355V357L944 359.5L943 362L945.5 363L943 365L942 370.5Z" fill="#97DCFF" stroke="white" stroke-width="2"/>
<path d="M812 212.5L814.5 209V203L811 200.046L809 201L805 204.546L800 205L796.5 207.5L794 208L788.5 209L784 208L781.5 208.5L774.54 208L777.5 206L780.5 207L783 206.5V205.5L782.5 204.5L780 200.5L776 198.304L775 194L779.5 198.304V195L780.5 185.5L784.5 179.5L786 174.5L787.5 171.5L785 170.5V169L787 170L788.5 166.5L790 163L791 162L793.5 163.5L793 164.5L791.5 165L792 166.5L793 168L796.5 167L801 165L800.5 163.5L797 159.5L798 157.5L800.5 160L801.5 159.5V156.5L802 155.5L803 156.5L805 156L807 154.5H810L810.5 146L812 139.5V134.5L810.5 131.5L807.5 126.5L804.5 125L798.5 117L789 115.5L787 112.5V108.5L778 103H771.5L763.5 101L761.5 97.0002L758.62 95.4818L756 93.0002L757.5 87.0002L761 84.0002L763.761 79.5002L761 76.5002L754 72.5002L750.5 67.5002L743.5 67.0002L738.5 65.0002L732 67.0002L721.5 92.0002L695 70.5002L662.7 44V49L661.5 51.0002L663 55.5002L660.5 59.5002L663 61.0002L662 65.0002L658.5 69.0002L654.5 75.0002L657.5 77.0002L652.5 83.0002L656 88.0002L650 96.0002H647.5L637 107.5L639.5 109.5L634 117L631.5 115L630 116L624 124.5L621 125.5V121.5L618.5 123L612.5 130L603.5 146L589.5 134L585.5 141.5L583.5 143L581.5 147L578.5 155L579 158.5L578 162H574.5L570 173.5L566 182L562 189.5L554 198L535 191L528 177L515 172.5L513.5 174.5L513 181.5L510.5 185V194.5L507.5 198.5L505.5 202V206.5H502L497 212.5L498.5 219L492.5 223L485 230V235.5L482 238L483 242.5L480 246L475 258.5L466 266L457.77 275.445L453 281.5L449 288L446 292.5L447 296.5L441.642 301.5L442.5 304.5L445 308.5L450 310.5L448 314L438.5 319.5V324.5H440.5H443.5L442.5 326.5L437 330.5L430 334L422 340L419.5 339V335L417.5 332L412.5 333L388.5 347L385.5 344L382 341L377.5 339V342L375 345.5L379.5 351L368.5 357.5L355 358.5L342.5 362.5L336.5 367L328 360L321.626 352.537L316.5 356L314.5 361H311.5L305.5 364L303.5 367L299.5 368.5L298 371H284.5L278.5 366L274 360H266.5L264.5 356L259 351.5L255.5 347L257.5 342L255.5 340.5V337.5L250 335.5L248.5 332.5L256.5 327.5L252 323.5L207.5 362.5L190.5 368.5L182.5 373L176 378.5L170 380.5L166 384.5V392L164.804 393.731L160.5 398.5L154.5 399.5L149.5 404L151 409.5L148.5 413V415.5L143 418.5L134.5 421H127.5L123 425V427.5L120 431L119 436.5L111 437.5L103.129 439.936L94.5 443L87.5 447.5H75L66 452.5L62 453.5L60.5 454.5L59 456L60 457.5L172.5 458L214.5 457L256 458L257 455H287.5L285 458.5L314.5 460L345 461L374.5 462H404L445.5 464.5L488.5 465H573.5L750 464.5L788 465H825.5V464H919.5H931.5L930.5 462.5L931 461V452.5L932.5 449L933 445L934 443.5L933.5 441.5L934.5 440.5H936V438.5V435L934 429L930.5 412.5L928.5 410.5H925L918 413L907.5 409.5L899 406L896.5 408L892.5 406L892 412L890.5 414L889.5 413.5L888.5 411H886L885.5 412.5L885 416.5L880 416L874.5 416.5L872 419.5L869.5 424L865.5 427L860.5 428.5L858.5 429L858 427.5H860L858.5 425L861 425.5L868.5 422.5L870 418.5V414.5L871 412.5L873.5 410L871.5 407.5L874 408V406L870 403.5L866.5 400.5H864V401.5L859 401L859.5 399.5L862 400H864V397.5L862.5 396.5L860.5 395.5H858L855.5 394.5L854 394V392.5L854.5 385L854 384V381.5H852.5L853.5 379.5L853 374L851.5 372.5L848.5 379H844.5L840.5 374L838.5 373.5L838 372L837 371.5L829.5 371L827 372L825.5 371L821.5 368L817.5 366.5L816.5 363.5V360L817 359.5L818 361.5L820 363.5L820.5 365L821.5 366L825.5 367.5L827.5 365.5L829 365V360.5L829.5 360V357.5H829L829.5 354V348.5L826.5 350.5L826 349L825 346L826.5 345L827 346.5L828.5 347.5L831 348L830.5 357L832.5 358L830.5 359.5V361.5L831 363.5V365.5L831.5 366L838 366.5L840.5 369.5L842.5 369L843 370H849L851 369H854L856.5 369.5V370L860.5 376.5L859 382.5L866 389V388.5L864.5 385L865.5 384L868.5 388L869.5 391.5L875.5 395.5L883 405.5L886.5 401L890.83 398.338L894 398L894.5 396.5L896.5 397.5L897.5 392.5L899 387.5L898 386.5H896L892.5 387.5L890 390.5L889.5 390L890 389.5L891 387.5V387L890 386.5L889 386H887.5L889 385L891 386L892 385L893.5 384.5L894 383.384V380.5L886.5 379.5L885.5 377.5L884 378L883.5 379.5L882 380.5L881.5 379L882.5 378V375L880.5 374.5L882 374L884.5 375.5L885.5 375L885 373L880 369.5L878 370L875.5 369.5L865.5 362L862.5 361.5V360L859.5 358L857 353H855.5L854 348.5L844.5 338L843 332L838 329.5V324.5H839.5L840.5 320.5L841.5 321L841 327.5L845 331L847.5 334.5L851.5 341L855 342L855.5 344.5L866.5 357.5L868.5 358.5L871.724 362.5L875 365L877.5 365.5L879 364.5L880 366.5L881.5 367L880.5 364L881.5 362.5H884.5L886 361L885.5 358H884L883.5 356.24L881.5 357.5L880 358.5L878.756 358L876 357.5V357L877.5 356.5L878.756 356.24L879 355.5H877V354.5L879 352.5L881.5 354.5L882.5 352.5L878.756 348.758H875.141L876.5 346.5L877.5 344.5L878.5 346H880L884 344L886 345.5H888V347.5L889 348L890 347.5L891.5 344.5L892 345L891 349L895.5 355L897.5 354L898 356L901 346.5V338L898.5 335L896 333.5V331.5H898V330L896.5 327.5L893 331.5L891.5 329L887 326L883.5 325.5L883 328L882.006 329L880 328.5L878 327.5L877.5 326.5L876.5 326L874.5 325.5L870.5 322L871 321L873.5 323.5L875.5 323L879 326.5L880.5 325.5L881.5 326.5H882.5L883 323.5L885 324.5L887 323.5L888 324.5L893 322L891.5 321.5L889 319L885.5 319.5L878.5 316.5L880.5 315L877.5 313.5L867.5 312.5L860 303.5H863L861.5 298L859.5 297.5L859 294L853 292L852 289L847.5 288L841 277L840.5 275L838.5 272L835.5 271.5V269.5L832 268.5L829 264.5L829.5 262L824 260L823.5 252.5L824 249L825 248L828.025 259.5L829.5 260.5L832.5 261L835 267.709L838.5 268.5L841.5 272L843 275L844.5 275.5L845.5 278.5L848.5 282.5L853 283.132L855.5 287L858.5 284.5H861.5L859 286L859.5 288L864 292L864.5 296L869 301V305L870 306.5H873L874 302.5L875 301L870.5 297.5L871.724 295.5L873.5 297.5L875.5 298.5H878.5L877.5 300.5L878.5 303.5L876.5 305.5L878.5 307L880.5 305.5V308L885 311L890 311.5L888 309L891.5 311L893.5 312H896.5L891.5 310V306.5L888 303.5L891.5 304L894.5 302.5L895 300L893 296L894.5 295.5V293L895 290.5V288.5L893.5 289L892.5 288.5L894 287L894.5 284.5L895 283.132L893.5 282.5L892 280.5L892.5 279.5L896 282.5L897 281.5L899 284L899.5 283.132L902.5 274L896.5 273.5L900 271.5L892.5 266.5L885 264L879.5 260H877L875 259V256.5L870.5 254L868.5 256.5L865.5 257.5L867.5 254.856V252H870V250.5L868.5 246L861.442 241.5L859 237L855 238L850.5 234.292L847.5 237V239.5L844 237L841.5 232.5L833 234.292L826 229.5L820.5 225.5V220L812 212.5Z" fill="#97DCFF" stroke="white" stroke-width="2"/>
<path d="M809.619 411.818V430H807.489L797.581 415.724H797.403V430H795.202V411.818H797.332L807.276 426.129H807.453V411.818H809.619ZM819.281 430.284C818.05 430.284 816.969 429.991 816.04 429.405C815.117 428.819 814.395 428 813.874 426.946C813.359 425.893 813.102 424.661 813.102 423.253C813.102 421.832 813.359 420.592 813.874 419.533C814.395 418.474 815.117 417.651 816.04 417.065C816.969 416.479 818.05 416.186 819.281 416.186C820.512 416.186 821.589 416.479 822.512 417.065C823.441 417.651 824.163 418.474 824.678 419.533C825.199 420.592 825.46 421.832 825.46 423.253C825.46 424.661 825.199 425.893 824.678 426.946C824.163 428 823.441 428.819 822.512 429.405C821.589 429.991 820.512 430.284 819.281 430.284ZM819.281 428.402C820.216 428.402 820.985 428.162 821.589 427.683C822.193 427.203 822.639 426.573 822.929 425.792C823.219 425.011 823.364 424.164 823.364 423.253C823.364 422.341 823.219 421.492 822.929 420.705C822.639 419.918 822.193 419.281 821.589 418.796C820.985 418.311 820.216 418.068 819.281 418.068C818.345 418.068 817.576 418.311 816.972 418.796C816.369 419.281 815.922 419.918 815.632 420.705C815.342 421.492 815.197 422.341 815.197 423.253C815.197 424.164 815.342 425.011 815.632 425.792C815.922 426.573 816.369 427.203 816.972 427.683C817.576 428.162 818.345 428.402 819.281 428.402ZM828.658 430V416.364H830.682V418.423H830.824C831.073 417.749 831.522 417.201 832.173 416.781C832.825 416.361 833.558 416.151 834.375 416.151C834.529 416.151 834.721 416.154 834.952 416.159C835.183 416.165 835.358 416.174 835.476 416.186V418.317C835.405 418.299 835.242 418.272 834.988 418.237C834.739 418.195 834.476 418.175 834.198 418.175C833.535 418.175 832.943 418.314 832.422 418.592C831.907 418.864 831.499 419.243 831.197 419.728C830.901 420.208 830.753 420.755 830.753 421.371V430H828.658ZM844.887 416.364V418.139H837.536V416.364H844.887ZM839.737 430V414.482C839.737 413.7 839.921 413.049 840.288 412.528C840.655 412.008 841.131 411.617 841.717 411.357C842.303 411.096 842.922 410.966 843.573 410.966C844.088 410.966 844.508 411.007 844.833 411.09C845.159 411.173 845.401 411.25 845.561 411.321L844.958 413.132C844.851 413.097 844.703 413.052 844.514 412.999C844.33 412.946 844.088 412.919 843.786 412.919C843.093 412.919 842.593 413.094 842.285 413.443C841.983 413.792 841.833 414.304 841.833 414.979V430H839.737ZM852.801 430.284C851.57 430.284 850.49 429.991 849.561 429.405C848.637 428.819 847.915 428 847.395 426.946C846.88 425.893 846.622 424.661 846.622 423.253C846.622 421.832 846.88 420.592 847.395 419.533C847.915 418.474 848.637 417.651 849.561 417.065C850.49 416.479 851.57 416.186 852.801 416.186C854.032 416.186 855.109 416.479 856.033 417.065C856.962 417.651 857.684 418.474 858.199 419.533C858.72 420.592 858.98 421.832 858.98 423.253C858.98 424.661 858.72 425.893 858.199 426.946C857.684 428 856.962 428.819 856.033 429.405C855.109 429.991 854.032 430.284 852.801 430.284ZM852.801 428.402C853.736 428.402 854.506 428.162 855.109 427.683C855.713 427.203 856.16 426.573 856.45 425.792C856.74 425.011 856.885 424.164 856.885 423.253C856.885 422.341 856.74 421.492 856.45 420.705C856.16 419.918 855.713 419.281 855.109 418.796C854.506 418.311 853.736 418.068 852.801 418.068C851.866 418.068 851.097 418.311 850.493 418.796C849.889 419.281 849.442 419.918 849.152 420.705C848.862 421.492 848.717 422.341 848.717 423.253C848.717 424.164 848.862 425.011 849.152 425.792C849.442 426.573 849.889 427.203 850.493 427.683C851.097 428.162 851.866 428.402 852.801 428.402ZM864.274 411.818V430H862.178V411.818H864.274ZM870.064 425.028L870.029 422.436H870.455L876.421 416.364H879.013L872.656 422.791H872.479L870.064 425.028ZM868.111 430V411.818H870.206V430H868.111ZM876.776 430L871.449 423.253L872.941 421.797L879.439 430H876.776Z" fill="black"/>
<path d="M771.832 445.5H769.631C769.5 444.867 769.273 444.31 768.947 443.831C768.627 443.352 768.237 442.949 767.775 442.624C767.319 442.292 766.813 442.044 766.257 441.878C765.701 441.712 765.121 441.629 764.517 441.629C763.416 441.629 762.419 441.907 761.525 442.464C760.637 443.02 759.93 443.84 759.403 444.923C758.883 446.006 758.622 447.335 758.622 448.909C758.622 450.483 758.883 451.812 759.403 452.895C759.93 453.978 760.637 454.798 761.525 455.354C762.419 455.911 763.416 456.189 764.517 456.189C765.121 456.189 765.701 456.106 766.257 455.94C766.813 455.775 767.319 455.529 767.775 455.203C768.237 454.872 768.627 454.467 768.947 453.987C769.273 453.502 769.5 452.946 769.631 452.318H771.832C771.667 453.247 771.365 454.079 770.927 454.813C770.489 455.547 769.944 456.171 769.293 456.686C768.642 457.195 767.911 457.583 767.1 457.849C766.296 458.115 765.434 458.249 764.517 458.249C762.966 458.249 761.587 457.87 760.38 457.112C759.173 456.355 758.223 455.277 757.53 453.881C756.838 452.484 756.491 450.827 756.491 448.909C756.491 446.991 756.838 445.334 757.53 443.938C758.223 442.541 759.173 441.464 760.38 440.706C761.587 439.948 762.966 439.57 764.517 439.57C765.434 439.57 766.296 439.703 767.1 439.969C767.911 440.235 768.642 440.626 769.293 441.141C769.944 441.65 770.489 442.271 770.927 443.005C771.365 443.733 771.667 444.565 771.832 445.5ZM777.201 449.797V458H775.106V439.818H777.201V446.494H777.379C777.698 445.79 778.178 445.231 778.817 444.816C779.462 444.396 780.32 444.186 781.392 444.186C782.321 444.186 783.135 444.373 783.833 444.745C784.531 445.112 785.073 445.678 785.458 446.441C785.848 447.199 786.044 448.163 786.044 449.335V458H783.948V449.477C783.948 448.394 783.667 447.557 783.105 446.965C782.549 446.367 781.776 446.068 780.788 446.068C780.101 446.068 779.486 446.213 778.941 446.503C778.403 446.793 777.977 447.216 777.663 447.773C777.355 448.329 777.201 449.004 777.201 449.797ZM795.594 458.284C794.28 458.284 793.147 457.994 792.194 457.414C791.247 456.828 790.516 456.011 790.001 454.964C789.492 453.91 789.237 452.685 789.237 451.288C789.237 449.892 789.492 448.661 790.001 447.595C790.516 446.524 791.232 445.689 792.149 445.092C793.073 444.488 794.15 444.186 795.381 444.186C796.091 444.186 796.792 444.304 797.485 444.541C798.177 444.778 798.808 445.163 799.376 445.695C799.944 446.222 800.397 446.92 800.734 447.79C801.072 448.661 801.24 449.732 801.24 451.004V451.892H790.729V450.081H799.11C799.11 449.312 798.956 448.625 798.648 448.021C798.346 447.418 797.914 446.941 797.352 446.592C796.795 446.243 796.138 446.068 795.381 446.068C794.546 446.068 793.824 446.275 793.215 446.69C792.611 447.098 792.146 447.631 791.821 448.288C791.495 448.945 791.333 449.649 791.333 450.401V451.608C791.333 452.638 791.51 453.511 791.865 454.227C792.226 454.937 792.726 455.479 793.366 455.852C794.005 456.219 794.748 456.402 795.594 456.402C796.144 456.402 796.642 456.325 797.085 456.171C797.535 456.011 797.923 455.775 798.248 455.461C798.574 455.141 798.825 454.745 799.003 454.271L801.027 454.839C800.814 455.526 800.456 456.13 799.953 456.651C799.45 457.165 798.828 457.568 798.089 457.858C797.349 458.142 796.517 458.284 795.594 458.284ZM814.086 447.418L812.204 447.95C812.086 447.637 811.911 447.332 811.681 447.036C811.456 446.734 811.148 446.485 810.757 446.29C810.367 446.095 809.867 445.997 809.257 445.997C808.422 445.997 807.727 446.19 807.171 446.574C806.62 446.953 806.345 447.435 806.345 448.021C806.345 448.542 806.534 448.953 806.913 449.255C807.292 449.557 807.884 449.809 808.689 450.01L810.713 450.507C811.932 450.803 812.841 451.256 813.438 451.865C814.036 452.469 814.335 453.247 814.335 454.2C814.335 454.982 814.11 455.68 813.66 456.295C813.216 456.911 812.595 457.396 811.796 457.751C810.997 458.107 810.068 458.284 809.008 458.284C807.617 458.284 806.466 457.982 805.555 457.379C804.643 456.775 804.066 455.893 803.824 454.733L805.812 454.236C806.002 454.97 806.36 455.52 806.887 455.887C807.419 456.254 808.115 456.438 808.973 456.438C809.949 456.438 810.725 456.23 811.299 455.816C811.879 455.396 812.169 454.893 812.169 454.307C812.169 453.833 812.003 453.437 811.672 453.117C811.34 452.792 810.831 452.549 810.145 452.389L807.872 451.857C806.623 451.561 805.706 451.102 805.12 450.48C804.54 449.853 804.25 449.069 804.25 448.128C804.25 447.358 804.466 446.678 804.898 446.086C805.336 445.494 805.931 445.029 806.682 444.692C807.44 444.355 808.298 444.186 809.257 444.186C810.606 444.186 811.666 444.482 812.435 445.074C813.211 445.666 813.761 446.447 814.086 447.418ZM821.502 458.32C820.638 458.32 819.853 458.157 819.149 457.831C818.445 457.5 817.885 457.023 817.471 456.402C817.057 455.775 816.85 455.017 816.85 454.129C816.85 453.348 817.004 452.715 817.311 452.229C817.619 451.738 818.03 451.353 818.545 451.075C819.06 450.797 819.628 450.59 820.25 450.454C820.877 450.312 821.508 450.199 822.141 450.116C822.969 450.01 823.641 449.93 824.156 449.877C824.677 449.818 825.056 449.72 825.293 449.584C825.535 449.448 825.657 449.211 825.657 448.874V448.803C825.657 447.927 825.417 447.246 824.937 446.761C824.464 446.275 823.745 446.033 822.78 446.033C821.78 446.033 820.996 446.252 820.427 446.69C819.859 447.128 819.46 447.595 819.229 448.092L817.24 447.382C817.595 446.554 818.069 445.908 818.661 445.447C819.259 444.979 819.91 444.654 820.614 444.47C821.324 444.281 822.023 444.186 822.709 444.186C823.147 444.186 823.65 444.239 824.218 444.346C824.792 444.446 825.346 444.657 825.878 444.976C826.417 445.296 826.864 445.778 827.219 446.423C827.574 447.068 827.752 447.933 827.752 449.016V458H825.657V456.153H825.55C825.408 456.449 825.171 456.766 824.84 457.103C824.508 457.441 824.067 457.728 823.517 457.964C822.967 458.201 822.295 458.32 821.502 458.32ZM821.821 456.438C822.65 456.438 823.348 456.275 823.916 455.949C824.491 455.624 824.923 455.203 825.213 454.689C825.509 454.174 825.657 453.632 825.657 453.064V451.146C825.568 451.253 825.372 451.35 825.071 451.439C824.775 451.522 824.431 451.596 824.041 451.661C823.656 451.72 823.28 451.774 822.913 451.821C822.552 451.862 822.259 451.898 822.034 451.928C821.49 451.999 820.981 452.114 820.507 452.274C820.04 452.428 819.661 452.661 819.371 452.975C819.087 453.283 818.945 453.703 818.945 454.236C818.945 454.964 819.214 455.514 819.753 455.887C820.297 456.254 820.987 456.438 821.821 456.438ZM831.576 463.114V444.364H833.6V446.53H833.849C834.002 446.293 834.215 445.991 834.488 445.624C834.766 445.251 835.162 444.92 835.677 444.63C836.198 444.334 836.903 444.186 837.79 444.186C838.939 444.186 839.951 444.473 840.827 445.047C841.702 445.621 842.386 446.435 842.877 447.489C843.369 448.542 843.614 449.785 843.614 451.217C843.614 452.661 843.369 453.913 842.877 454.973C842.386 456.026 841.705 456.843 840.835 457.423C839.965 457.997 838.962 458.284 837.826 458.284C836.95 458.284 836.249 458.139 835.722 457.849C835.195 457.553 834.79 457.219 834.506 456.846C834.221 456.467 834.002 456.153 833.849 455.905H833.671V463.114H831.576ZM833.635 451.182C833.635 452.212 833.786 453.12 834.088 453.907C834.39 454.689 834.831 455.301 835.411 455.745C835.991 456.183 836.701 456.402 837.542 456.402C838.418 456.402 839.149 456.171 839.735 455.71C840.326 455.242 840.77 454.615 841.066 453.827C841.368 453.034 841.519 452.152 841.519 451.182C841.519 450.223 841.371 449.359 841.075 448.589C840.785 447.814 840.344 447.202 839.752 446.752C839.166 446.296 838.43 446.068 837.542 446.068C836.689 446.068 835.973 446.284 835.393 446.716C834.813 447.142 834.375 447.74 834.079 448.51C833.783 449.273 833.635 450.164 833.635 451.182ZM852.528 458.284C851.214 458.284 850.08 457.994 849.127 457.414C848.18 456.828 847.449 456.011 846.934 454.964C846.425 453.91 846.171 452.685 846.171 451.288C846.171 449.892 846.425 448.661 846.934 447.595C847.449 446.524 848.166 445.689 849.083 445.092C850.006 444.488 851.083 444.186 852.314 444.186C853.025 444.186 853.726 444.304 854.419 444.541C855.111 444.778 855.741 445.163 856.309 445.695C856.878 446.222 857.33 446.92 857.668 447.79C858.005 448.661 858.174 449.732 858.174 451.004V451.892H847.662V450.081H856.043C856.043 449.312 855.889 448.625 855.581 448.021C855.28 447.418 854.848 446.941 854.285 446.592C853.729 446.243 853.072 446.068 852.314 446.068C851.48 446.068 850.758 446.275 850.148 446.69C849.545 447.098 849.08 447.631 848.754 448.288C848.429 448.945 848.266 449.649 848.266 450.401V451.608C848.266 452.638 848.444 453.511 848.799 454.227C849.16 454.937 849.66 455.479 850.299 455.852C850.938 456.219 851.681 456.402 852.528 456.402C853.078 456.402 853.575 456.325 854.019 456.171C854.469 456.011 854.856 455.775 855.182 455.461C855.508 455.141 855.759 454.745 855.937 454.271L857.961 454.839C857.748 455.526 857.39 456.13 856.887 456.651C856.383 457.165 855.762 457.568 855.022 457.858C854.282 458.142 853.451 458.284 852.528 458.284ZM865.374 458.32C864.51 458.32 863.725 458.157 863.021 457.831C862.317 457.5 861.758 457.023 861.343 456.402C860.929 455.775 860.722 455.017 860.722 454.129C860.722 453.348 860.876 452.715 861.183 452.229C861.491 451.738 861.903 451.353 862.417 451.075C862.932 450.797 863.501 450.59 864.122 450.454C864.749 450.312 865.38 450.199 866.013 450.116C866.842 450.01 867.513 449.93 868.028 449.877C868.549 449.818 868.928 449.72 869.165 449.584C869.407 449.448 869.529 449.211 869.529 448.874V448.803C869.529 447.927 869.289 447.246 868.809 446.761C868.336 446.275 867.617 446.033 866.652 446.033C865.652 446.033 864.868 446.252 864.3 446.69C863.731 447.128 863.332 447.595 863.101 448.092L861.112 447.382C861.468 446.554 861.941 445.908 862.533 445.447C863.131 444.979 863.782 444.654 864.486 444.47C865.196 444.281 865.895 444.186 866.581 444.186C867.019 444.186 867.522 444.239 868.09 444.346C868.664 444.446 869.218 444.657 869.751 444.976C870.289 445.296 870.736 445.778 871.091 446.423C871.446 447.068 871.624 447.933 871.624 449.016V458H869.529V456.153H869.422C869.28 456.449 869.043 456.766 868.712 457.103C868.38 457.441 867.939 457.728 867.389 457.964C866.839 458.201 866.167 458.32 865.374 458.32ZM865.693 456.438C866.522 456.438 867.22 456.275 867.789 455.949C868.363 455.624 868.795 455.203 869.085 454.689C869.381 454.174 869.529 453.632 869.529 453.064V451.146C869.44 451.253 869.244 451.35 868.943 451.439C868.647 451.522 868.303 451.596 867.913 451.661C867.528 451.72 867.152 451.774 866.785 451.821C866.424 451.862 866.131 451.898 865.906 451.928C865.362 451.999 864.853 452.114 864.379 452.274C863.912 452.428 863.533 452.661 863.243 452.975C862.959 453.283 862.817 453.703 862.817 454.236C862.817 454.964 863.086 455.514 863.625 455.887C864.169 456.254 864.859 456.438 865.693 456.438ZM877.401 453.028L877.366 450.436H877.792L883.758 444.364H886.35L879.993 450.791H879.816L877.401 453.028ZM875.448 458V439.818H877.543V458H875.448ZM884.113 458L878.786 451.253L880.277 449.797L886.776 458H884.113Z" fill="black"/>
<path d="M718.619 369.818V388H716.489L706.581 373.724H706.403V388H704.202V369.818H706.332L716.276 384.129H716.453V369.818H718.619ZM728.458 388.284C727.144 388.284 726.011 387.994 725.058 387.414C724.111 386.828 723.38 386.011 722.865 384.964C722.356 383.91 722.102 382.685 722.102 381.288C722.102 379.892 722.356 378.661 722.865 377.595C723.38 376.524 724.096 375.689 725.014 375.092C725.937 374.488 727.014 374.186 728.245 374.186C728.955 374.186 729.657 374.304 730.349 374.541C731.042 374.778 731.672 375.163 732.24 375.695C732.808 376.222 733.261 376.92 733.598 377.79C733.936 378.661 734.104 379.732 734.104 381.004V381.892H723.593V380.081H731.974C731.974 379.312 731.82 378.625 731.512 378.021C731.21 377.418 730.778 376.941 730.216 376.592C729.66 376.243 729.003 376.068 728.245 376.068C727.411 376.068 726.689 376.275 726.079 376.69C725.475 377.098 725.011 377.631 724.685 378.288C724.36 378.945 724.197 379.649 724.197 380.401V381.608C724.197 382.638 724.374 383.511 724.729 384.227C725.091 384.937 725.591 385.479 726.23 385.852C726.869 386.219 727.612 386.402 728.458 386.402C729.009 386.402 729.506 386.325 729.95 386.171C730.399 386.011 730.787 385.775 731.113 385.461C731.438 385.141 731.69 384.745 731.867 384.271L733.891 384.839C733.678 385.526 733.32 386.13 732.817 386.651C732.314 387.165 731.693 387.568 730.953 387.858C730.213 388.142 729.381 388.284 728.458 388.284ZM740.381 388L736.226 374.364H738.428L741.375 384.804H741.517L744.429 374.364H746.667L749.543 384.768H749.685L752.633 374.364H754.834L750.679 388H748.62L745.637 377.524H745.424L742.441 388H740.381ZM757.604 393.114V374.364H759.628V376.53H759.877C760.031 376.293 760.244 375.991 760.516 375.624C760.794 375.251 761.191 374.92 761.706 374.63C762.227 374.334 762.931 374.186 763.819 374.186C764.967 374.186 765.979 374.473 766.855 375.047C767.731 375.621 768.414 376.435 768.906 377.489C769.397 378.542 769.642 379.785 769.642 381.217C769.642 382.661 769.397 383.913 768.906 384.973C768.414 386.026 767.734 386.843 766.864 387.423C765.994 387.997 764.991 388.284 763.854 388.284C762.978 388.284 762.277 388.139 761.75 387.849C761.223 387.553 760.818 387.219 760.534 386.846C760.25 386.467 760.031 386.153 759.877 385.905H759.699V393.114H757.604ZM759.664 381.182C759.664 382.212 759.815 383.12 760.117 383.907C760.418 384.689 760.859 385.301 761.439 385.745C762.019 386.183 762.73 386.402 763.57 386.402C764.446 386.402 765.177 386.171 765.763 385.71C766.355 385.242 766.799 384.615 767.095 383.827C767.396 383.034 767.547 382.152 767.547 381.182C767.547 380.223 767.399 379.359 767.103 378.589C766.813 377.814 766.372 377.202 765.781 376.752C765.195 376.296 764.458 376.068 763.57 376.068C762.718 376.068 762.002 376.284 761.422 376.716C760.842 377.142 760.404 377.74 760.108 378.51C759.812 379.273 759.664 380.164 759.664 381.182ZM778.378 388.284C777.147 388.284 776.067 387.991 775.138 387.405C774.215 386.819 773.493 386 772.972 384.946C772.457 383.893 772.199 382.661 772.199 381.253C772.199 379.832 772.457 378.592 772.972 377.533C773.493 376.474 774.215 375.651 775.138 375.065C776.067 374.479 777.147 374.186 778.378 374.186C779.609 374.186 780.687 374.479 781.61 375.065C782.539 375.651 783.261 376.474 783.776 377.533C784.297 378.592 784.557 379.832 784.557 381.253C784.557 382.661 784.297 383.893 783.776 384.946C783.261 386 782.539 386.819 781.61 387.405C780.687 387.991 779.609 388.284 778.378 388.284ZM778.378 386.402C779.313 386.402 780.083 386.162 780.687 385.683C781.29 385.203 781.737 384.573 782.027 383.792C782.317 383.011 782.462 382.164 782.462 381.253C782.462 380.341 782.317 379.492 782.027 378.705C781.737 377.918 781.29 377.281 780.687 376.796C780.083 376.311 779.313 376.068 778.378 376.068C777.443 376.068 776.674 376.311 776.07 376.796C775.466 377.281 775.02 377.918 774.729 378.705C774.439 379.492 774.294 380.341 774.294 381.253C774.294 382.164 774.439 383.011 774.729 383.792C775.02 384.573 775.466 385.203 776.07 385.683C776.674 386.162 777.443 386.402 778.378 386.402ZM793.686 374.364V376.139H786.619V374.364H793.686ZM788.679 371.097H790.774V384.094C790.774 384.686 790.86 385.129 791.031 385.425C791.209 385.715 791.434 385.911 791.706 386.011C791.984 386.106 792.277 386.153 792.585 386.153C792.816 386.153 793.005 386.142 793.153 386.118C793.301 386.088 793.42 386.065 793.508 386.047L793.934 387.929C793.792 387.982 793.594 388.036 793.34 388.089C793.085 388.148 792.763 388.178 792.372 388.178C791.78 388.178 791.2 388.05 790.632 387.796C790.07 387.541 789.602 387.154 789.229 386.633C788.862 386.112 788.679 385.455 788.679 384.662V371.097ZM818.57 369.818V388H816.44L806.532 373.724H806.355V388H804.153V369.818H806.284L816.227 384.129H816.404V369.818H818.57ZM828.409 388.284C827.095 388.284 825.962 387.994 825.009 387.414C824.062 386.828 823.331 386.011 822.816 384.964C822.307 383.91 822.053 382.685 822.053 381.288C822.053 379.892 822.307 378.661 822.816 377.595C823.331 376.524 824.047 375.689 824.965 375.092C825.888 374.488 826.965 374.186 828.196 374.186C828.907 374.186 829.608 374.304 830.3 374.541C830.993 374.778 831.623 375.163 832.191 375.695C832.759 376.222 833.212 376.92 833.55 377.79C833.887 378.661 834.056 379.732 834.056 381.004V381.892H823.544V380.081H831.925C831.925 379.312 831.771 378.625 831.463 378.021C831.161 377.418 830.729 376.941 830.167 376.592C829.611 376.243 828.954 376.068 828.196 376.068C827.362 376.068 826.64 376.275 826.03 376.69C825.426 377.098 824.962 377.631 824.636 378.288C824.311 378.945 824.148 379.649 824.148 380.401V381.608C824.148 382.638 824.326 383.511 824.681 384.227C825.042 384.937 825.542 385.479 826.181 385.852C826.82 386.219 827.563 386.402 828.409 386.402C828.96 386.402 829.457 386.325 829.901 386.171C830.351 386.011 830.738 385.775 831.064 385.461C831.389 385.141 831.641 384.745 831.818 384.271L833.843 384.839C833.63 385.526 833.271 386.13 832.768 386.651C832.265 387.165 831.644 387.568 830.904 387.858C830.164 388.142 829.333 388.284 828.409 388.284ZM840.332 388L836.177 374.364H838.379L841.327 384.804H841.469L844.381 374.364H846.618L849.494 384.768H849.636L852.584 374.364H854.785L850.631 388H848.571L845.588 377.524H845.375L842.392 388H840.332ZM867.214 377.418L865.332 377.95C865.214 377.637 865.039 377.332 864.809 377.036C864.584 376.734 864.276 376.485 863.885 376.29C863.495 376.095 862.994 375.997 862.385 375.997C861.55 375.997 860.855 376.19 860.299 376.574C859.748 376.953 859.473 377.435 859.473 378.021C859.473 378.542 859.662 378.953 860.041 379.255C860.42 379.557 861.012 379.809 861.817 380.01L863.841 380.507C865.06 380.803 865.969 381.256 866.566 381.865C867.164 382.469 867.463 383.247 867.463 384.2C867.463 384.982 867.238 385.68 866.788 386.295C866.344 386.911 865.723 387.396 864.924 387.751C864.125 388.107 863.196 388.284 862.136 388.284C860.745 388.284 859.594 387.982 858.683 387.379C857.771 386.775 857.194 385.893 856.952 384.733L858.94 384.236C859.13 384.97 859.488 385.52 860.014 385.887C860.547 386.254 861.243 386.438 862.101 386.438C863.077 386.438 863.853 386.23 864.427 385.816C865.007 385.396 865.297 384.893 865.297 384.307C865.297 383.833 865.131 383.437 864.8 383.117C864.468 382.792 863.959 382.549 863.273 382.389L861 381.857C859.751 381.561 858.834 381.102 858.248 380.48C857.668 379.853 857.378 379.069 857.378 378.128C857.378 377.358 857.594 376.678 858.026 376.086C858.464 375.494 859.059 375.029 859.81 374.692C860.568 374.355 861.426 374.186 862.385 374.186C863.734 374.186 864.794 374.482 865.563 375.074C866.338 375.666 866.889 376.447 867.214 377.418Z" fill="black"/>
<circle cx="896.511" cy="421.511" r="9.01136" fill="#FFE587" stroke="black"/>
<circle cx="901.511" cy="443.511" r="9.01136" fill="#FFE587" stroke="black"/>
<circle cx="879.511" cy="390.511" r="9.01136" fill="#FFE587" stroke="black"/>
<path d="M998.5 255.5L971.976 258.5L969.5 263L970.5 266.5H966.834L961.5 267.5L959.123 270V273.35L961.5 273L964 272L967 271.5L964.5 273.5L966 276L964.5 278L966 279L965 280.5H963.5L962.5 281.5V284L961.5 285L962.5 286.5L959.123 289.5L958 291.5L957.5 288.5L956 289.5H954.5L956.5 292L951.5 294.5L953 297.5L948.5 299.5L946 304L942.5 308L943 313.5L941.5 314.5L939.5 312L937 318.5V321H943L944 322.5L940.5 323L937 322L935.5 323.5L933.5 335L931.5 341.5L933 344.5L931.5 346L929.5 350L927.5 355.5L929 358L926.5 365L928 367.5V372.5L932 379.5L932.5 387.5L936 388L937 384.5C936 379.5 937.42 378.259 936.5 375.5C936 374 937.5 366 938.5 361.5L939.5 355.5L942.5 349L946.5 344.5L948 343L950.5 342L950 337L952 333.5L954 331L956.5 330.5L961 331.5V332.5V333.5L961.5 335.5L965 336.5V338L963.5 341L960.5 348H961.5L968 337L967 335.5H965.5L965 333.5L962.5 332.5L960.5 329L957.5 326L959.5 323.5L961 322.5H963L964 324.5L965.5 326L966 330.5H968L973.5 322.5L974 321V319L973 319.5L972 321L970 322V324.5L966 326V323.5L965 320.5L964 318.5L965.5 315.5L967.553 319.62H971L972.5 317L970 316L967 312.5L970 308.5L972.5 312.5L974.5 311.5L975.5 305L977.117 293.914L978.5 296L981 293L982.5 287.5L987.5 283L991.5 278L995.5 275L991.5 274L989 277.5L988 278.5L986.5 278L986 276.5L992.5 265.5L994 262L998.5 255.5Z" fill="#97DCFF" stroke="white" stroke-width="2"/>
<path d="M832.722 119.545H836.591L841.773 132.193H841.977L847.159 119.545H851.028V137H847.994V125.009H847.832L843.009 136.949H840.741L835.918 124.983H835.756V137H832.722V119.545ZM860.386 137H854.472V119.545H860.506C862.239 119.545 863.727 119.895 864.972 120.594C866.222 121.287 867.182 122.284 867.852 123.585C868.523 124.886 868.858 126.443 868.858 128.256C868.858 130.074 868.52 131.636 867.844 132.943C867.173 134.25 866.205 135.253 864.938 135.952C863.676 136.651 862.159 137 860.386 137ZM857.634 134.264H860.233C861.449 134.264 862.463 134.043 863.276 133.599C864.088 133.151 864.699 132.483 865.108 131.597C865.517 130.705 865.722 129.591 865.722 128.256C865.722 126.92 865.517 125.812 865.108 124.932C864.699 124.045 864.094 123.384 863.293 122.946C862.497 122.503 861.509 122.281 860.327 122.281H857.634V134.264Z" fill="#FFE587"/>
<path d="M352.395 262L347.469 244.545H350.869L354.014 257.372H354.176L357.534 244.545H360.628L363.994 257.381H364.148L367.293 244.545H370.693L365.767 262H362.648L359.153 249.753H359.017L355.514 262H352.395ZM375.221 244.545L379.763 258.284H379.942L384.477 244.545H387.954L381.8 262H377.897L371.752 244.545H375.221Z" fill="#FFE587"/>
<path d="M132.955 490.196V487.545H146.881V490.196H141.486V505H138.349V490.196H132.955ZM163.909 487.545V505H161.097L152.872 493.111H152.727V505H149.565V487.545H152.395L160.611 499.443H160.764V487.545H163.909Z" fill="#FFE587"/>
<path d="M90.7216 381V363.545H93.8835V371.565H94.0966L100.906 363.545H104.767L98.017 371.378L104.827 381H101.026L95.8182 373.517L93.8835 375.801V381H90.7216ZM105.771 363.545H109.342L113.612 371.267H113.782L118.052 363.545H121.623L115.273 374.489V381H112.12V374.489L105.771 363.545Z" fill="#FFE587"/>
<path d="M649.065 499.545V517H646.253L638.028 505.111H637.884V517H634.722V499.545H637.551L645.767 511.443H645.92V499.545H649.065ZM667.451 505.435H664.263C664.173 504.912 664.005 504.449 663.761 504.045C663.516 503.636 663.212 503.29 662.849 503.006C662.485 502.722 662.07 502.509 661.604 502.366C661.144 502.219 660.647 502.145 660.113 502.145C659.164 502.145 658.323 502.384 657.59 502.861C656.857 503.332 656.283 504.026 655.869 504.94C655.454 505.849 655.246 506.96 655.246 508.273C655.246 509.608 655.454 510.733 655.869 511.648C656.289 512.557 656.863 513.244 657.59 513.71C658.323 514.17 659.161 514.401 660.104 514.401C660.627 514.401 661.116 514.332 661.57 514.196C662.031 514.054 662.442 513.847 662.806 513.574C663.175 513.301 663.485 512.966 663.735 512.568C663.991 512.17 664.167 511.716 664.263 511.205L667.451 511.222C667.332 512.051 667.073 512.83 666.675 513.557C666.283 514.284 665.769 514.926 665.133 515.483C664.496 516.034 663.752 516.466 662.9 516.778C662.048 517.085 661.102 517.239 660.062 517.239C658.528 517.239 657.158 516.884 655.954 516.173C654.749 515.463 653.8 514.438 653.107 513.097C652.414 511.756 652.067 510.148 652.067 508.273C652.067 506.392 652.417 504.784 653.116 503.449C653.815 502.108 654.766 501.082 655.971 500.372C657.175 499.662 658.539 499.307 660.062 499.307C661.033 499.307 661.937 499.443 662.772 499.716C663.607 499.989 664.352 500.389 665.005 500.918C665.658 501.44 666.195 502.082 666.616 502.844C667.042 503.599 667.32 504.463 667.451 505.435Z" fill="#FFE587"/>
<circle cx="766.511" cy="323.511" r="9.01136" fill="#FF8F87" stroke="black"/>
<path d="M705.58 306V287.818H712.754C714.127 287.818 715.299 288.064 716.269 288.555C717.246 289.04 717.989 289.73 718.498 290.624C719.012 291.511 719.27 292.556 719.27 293.757C719.27 294.965 719.009 296.004 718.489 296.874C717.968 297.738 717.213 298.401 716.225 298.862C715.242 299.324 714.053 299.555 712.656 299.555H707.853V296.465H712.034C712.768 296.465 713.378 296.365 713.863 296.163C714.349 295.962 714.71 295.66 714.946 295.258C715.189 294.855 715.31 294.355 715.31 293.757C715.31 293.154 715.189 292.645 714.946 292.23C714.71 291.816 714.346 291.502 713.854 291.289C713.369 291.07 712.757 290.961 712.017 290.961H709.424V306H705.58ZM715.399 297.726L719.918 306H715.674L711.253 297.726H715.399ZM721.915 306V292.364H725.697V306H721.915ZM723.815 290.606C723.253 290.606 722.771 290.419 722.368 290.047C721.972 289.668 721.773 289.215 721.773 288.688C721.773 288.167 721.972 287.721 722.368 287.348C722.771 286.969 723.253 286.779 723.815 286.779C724.378 286.779 724.857 286.969 725.254 287.348C725.656 287.721 725.857 288.167 725.857 288.688C725.857 289.215 725.656 289.668 725.254 290.047C724.857 290.419 724.378 290.606 723.815 290.606ZM734.888 306.266C733.491 306.266 732.29 305.97 731.284 305.379C730.284 304.781 729.514 303.952 728.976 302.893C728.443 301.833 728.177 300.614 728.177 299.235C728.177 297.838 728.446 296.613 728.984 295.56C729.529 294.5 730.301 293.675 731.302 293.083C732.302 292.485 733.491 292.186 734.87 292.186C736.06 292.186 737.102 292.402 737.995 292.834C738.889 293.266 739.596 293.873 740.117 294.654C740.638 295.435 740.925 296.353 740.978 297.406H737.41C737.309 296.726 737.043 296.178 736.611 295.764C736.184 295.344 735.625 295.134 734.933 295.134C734.347 295.134 733.835 295.293 733.397 295.613C732.965 295.927 732.627 296.385 732.385 296.989C732.142 297.593 732.021 298.324 732.021 299.182C732.021 300.052 732.139 300.792 732.376 301.401C732.618 302.011 732.959 302.475 733.397 302.795C733.835 303.115 734.347 303.275 734.933 303.275C735.365 303.275 735.752 303.186 736.096 303.008C736.445 302.831 736.732 302.573 736.957 302.236C737.188 301.893 737.339 301.481 737.41 301.002H740.978C740.919 302.043 740.635 302.961 740.126 303.754C739.623 304.541 738.928 305.157 738.04 305.6C737.152 306.044 736.102 306.266 734.888 306.266ZM747.182 298.116V306H743.4V287.818H747.075V294.77H747.235C747.543 293.965 748.04 293.334 748.727 292.879C749.413 292.417 750.274 292.186 751.31 292.186C752.257 292.186 753.083 292.393 753.787 292.808C754.497 293.216 755.048 293.805 755.438 294.574C755.835 295.338 756.03 296.252 756.024 297.317V306H752.242V297.992C752.248 297.152 752.035 296.498 751.603 296.03C751.177 295.563 750.579 295.329 749.81 295.329C749.295 295.329 748.839 295.438 748.442 295.657C748.052 295.876 747.744 296.196 747.519 296.616C747.3 297.03 747.188 297.531 747.182 298.116ZM759 306V292.364H762.605V294.77H762.765C763.049 293.971 763.522 293.34 764.185 292.879C764.848 292.417 765.641 292.186 766.564 292.186C767.499 292.186 768.296 292.42 768.953 292.887C769.609 293.349 770.047 293.976 770.266 294.77H770.408C770.687 293.988 771.19 293.364 771.918 292.896C772.652 292.423 773.519 292.186 774.519 292.186C775.791 292.186 776.824 292.592 777.617 293.402C778.416 294.207 778.816 295.35 778.816 296.829V306H775.043V297.575C775.043 296.817 774.841 296.249 774.439 295.87C774.037 295.492 773.533 295.302 772.93 295.302C772.243 295.302 771.708 295.521 771.323 295.959C770.938 296.391 770.746 296.962 770.746 297.673V306H767.079V297.495C767.079 296.826 766.887 296.294 766.502 295.897C766.123 295.5 765.623 295.302 765.002 295.302C764.582 295.302 764.203 295.409 763.866 295.622C763.534 295.829 763.271 296.122 763.075 296.501C762.88 296.874 762.782 297.312 762.782 297.815V306H759ZM787.964 306.266C786.585 306.266 785.393 305.973 784.387 305.387C783.386 304.796 782.614 303.973 782.07 302.919C781.525 301.86 781.253 300.632 781.253 299.235C781.253 297.826 781.525 296.595 782.07 295.542C782.614 294.482 783.386 293.66 784.387 293.074C785.393 292.482 786.585 292.186 787.964 292.186C789.343 292.186 790.533 292.482 791.533 293.074C792.539 293.66 793.315 294.482 793.859 295.542C794.404 296.595 794.676 297.826 794.676 299.235C794.676 300.632 794.404 301.86 793.859 302.919C793.315 303.973 792.539 304.796 791.533 305.387C790.533 305.973 789.343 306.266 787.964 306.266ZM787.982 303.337C788.61 303.337 789.133 303.159 789.554 302.804C789.974 302.443 790.29 301.952 790.503 301.33C790.722 300.709 790.832 300.002 790.832 299.208C790.832 298.415 790.722 297.708 790.503 297.087C790.29 296.465 789.974 295.974 789.554 295.613C789.133 295.252 788.61 295.071 787.982 295.071C787.349 295.071 786.816 295.252 786.384 295.613C785.958 295.974 785.635 296.465 785.416 297.087C785.203 297.708 785.097 298.415 785.097 299.208C785.097 300.002 785.203 300.709 785.416 301.33C785.635 301.952 785.958 302.443 786.384 302.804C786.816 303.159 787.349 303.337 787.982 303.337ZM800.917 298.116V306H797.135V292.364H800.74V294.77H800.899C801.201 293.976 801.707 293.349 802.418 292.887C803.128 292.42 803.989 292.186 805.001 292.186C805.948 292.186 806.774 292.393 807.478 292.808C808.182 293.222 808.73 293.814 809.12 294.583C809.511 295.347 809.706 296.258 809.706 297.317V306H805.924V297.992C805.93 297.158 805.717 296.507 805.285 296.039C804.853 295.566 804.258 295.329 803.501 295.329C802.992 295.329 802.542 295.438 802.151 295.657C801.766 295.876 801.465 296.196 801.246 296.616C801.033 297.03 800.923 297.531 800.917 298.116ZM817.712 306.222C816.676 306.222 815.738 305.956 814.898 305.423C814.063 304.884 813.4 304.094 812.909 303.053C812.424 302.005 812.181 300.721 812.181 299.2C812.181 297.637 812.432 296.338 812.936 295.302C813.439 294.261 814.107 293.482 814.942 292.967C815.782 292.446 816.703 292.186 817.703 292.186C818.466 292.186 819.103 292.316 819.612 292.577C820.127 292.831 820.541 293.151 820.855 293.536C821.174 293.914 821.417 294.287 821.583 294.654H821.698V287.818H825.471V306H821.742V303.816H821.583C821.405 304.195 821.153 304.571 820.828 304.944C820.508 305.31 820.091 305.615 819.576 305.858C819.067 306.101 818.446 306.222 817.712 306.222ZM818.91 303.212C819.52 303.212 820.035 303.047 820.455 302.715C820.881 302.378 821.207 301.907 821.432 301.304C821.662 300.7 821.778 299.993 821.778 299.182C821.778 298.371 821.665 297.667 821.441 297.069C821.216 296.471 820.89 296.009 820.464 295.684C820.038 295.358 819.52 295.196 818.91 295.196C818.289 295.196 817.765 295.364 817.339 295.702C816.913 296.039 816.59 296.507 816.371 297.104C816.152 297.702 816.043 298.395 816.043 299.182C816.043 299.975 816.152 300.676 816.371 301.286C816.596 301.89 816.919 302.363 817.339 302.706C817.765 303.044 818.289 303.212 818.91 303.212Z" fill="black"/>
<path d="M430.202 394V375.818H436.345C437.766 375.818 438.932 376.061 439.843 376.546C440.754 377.026 441.429 377.685 441.867 378.526C442.305 379.366 442.524 380.322 442.524 381.393C442.524 382.465 442.305 383.415 441.867 384.243C441.429 385.072 440.757 385.723 439.852 386.196C438.946 386.664 437.789 386.898 436.381 386.898H431.409V384.909H436.31C437.28 384.909 438.062 384.767 438.653 384.483C439.251 384.199 439.683 383.796 439.95 383.276C440.222 382.749 440.358 382.121 440.358 381.393C440.358 380.665 440.222 380.029 439.95 379.485C439.677 378.94 439.242 378.52 438.645 378.224C438.047 377.922 437.257 377.771 436.274 377.771H432.403V394H430.202ZM438.76 385.832L443.234 394H440.678L436.274 385.832H438.76ZM451.302 394.284C450.071 394.284 448.991 393.991 448.062 393.405C447.138 392.819 446.416 392 445.896 390.946C445.381 389.893 445.123 388.661 445.123 387.253C445.123 385.832 445.381 384.592 445.896 383.533C446.416 382.474 447.138 381.651 448.062 381.065C448.991 380.479 450.071 380.186 451.302 380.186C452.533 380.186 453.61 380.479 454.534 381.065C455.463 381.651 456.185 382.474 456.7 383.533C457.221 384.592 457.481 385.832 457.481 387.253C457.481 388.661 457.221 389.893 456.7 390.946C456.185 392 455.463 392.819 454.534 393.405C453.61 393.991 452.533 394.284 451.302 394.284ZM451.302 392.402C452.237 392.402 453.007 392.162 453.61 391.683C454.214 391.203 454.661 390.573 454.951 389.792C455.241 389.011 455.386 388.164 455.386 387.253C455.386 386.341 455.241 385.492 454.951 384.705C454.661 383.918 454.214 383.281 453.61 382.796C453.007 382.311 452.237 382.068 451.302 382.068C450.367 382.068 449.598 382.311 448.994 382.796C448.39 383.281 447.943 383.918 447.653 384.705C447.363 385.492 447.218 386.341 447.218 387.253C447.218 388.164 447.363 389.011 447.653 389.792C447.943 390.573 448.39 391.203 448.994 391.683C449.598 392.162 450.367 392.402 451.302 392.402ZM464.692 394.32C463.828 394.32 463.044 394.157 462.339 393.831C461.635 393.5 461.076 393.023 460.662 392.402C460.247 391.775 460.04 391.017 460.04 390.129C460.04 389.348 460.194 388.715 460.502 388.229C460.81 387.738 461.221 387.353 461.736 387.075C462.251 386.797 462.819 386.59 463.44 386.454C464.068 386.312 464.698 386.199 465.331 386.116C466.16 386.01 466.832 385.93 467.347 385.877C467.867 385.818 468.246 385.72 468.483 385.584C468.726 385.448 468.847 385.211 468.847 384.874V384.803C468.847 383.927 468.607 383.246 468.128 382.761C467.654 382.275 466.935 382.033 465.971 382.033C464.97 382.033 464.186 382.252 463.618 382.69C463.05 383.128 462.65 383.595 462.419 384.092L460.431 383.382C460.786 382.554 461.259 381.908 461.851 381.447C462.449 380.979 463.1 380.654 463.804 380.47C464.515 380.281 465.213 380.186 465.9 380.186C466.337 380.186 466.841 380.239 467.409 380.346C467.983 380.446 468.536 380.657 469.069 380.976C469.607 381.296 470.054 381.778 470.409 382.423C470.765 383.068 470.942 383.933 470.942 385.016V394H468.847V392.153H468.74C468.598 392.449 468.362 392.766 468.03 393.103C467.699 393.441 467.258 393.728 466.707 393.964C466.157 394.201 465.485 394.32 464.692 394.32ZM465.012 392.438C465.84 392.438 466.539 392.275 467.107 391.949C467.681 391.624 468.113 391.203 468.403 390.689C468.699 390.174 468.847 389.632 468.847 389.064V387.146C468.758 387.253 468.563 387.35 468.261 387.439C467.965 387.522 467.622 387.596 467.231 387.661C466.846 387.72 466.471 387.774 466.104 387.821C465.743 387.862 465.45 387.898 465.225 387.928C464.68 387.999 464.171 388.114 463.698 388.274C463.23 388.428 462.851 388.661 462.561 388.975C462.277 389.283 462.135 389.703 462.135 390.236C462.135 390.964 462.405 391.514 462.943 391.887C463.488 392.254 464.177 392.438 465.012 392.438ZM476.861 385.797V394H474.766V380.364H476.79V382.494H476.968C477.288 381.802 477.773 381.246 478.424 380.825C479.075 380.399 479.915 380.186 480.945 380.186C481.869 380.186 482.676 380.375 483.369 380.754C484.061 381.127 484.6 381.695 484.985 382.459C485.369 383.216 485.562 384.175 485.562 385.335V394H483.467V385.477C483.467 384.406 483.188 383.571 482.632 382.974C482.076 382.37 481.312 382.068 480.342 382.068C479.673 382.068 479.075 382.213 478.548 382.503C478.027 382.793 477.616 383.216 477.314 383.773C477.012 384.329 476.861 385.004 476.861 385.797ZM494.93 394.284C493.699 394.284 492.619 393.991 491.69 393.405C490.766 392.819 490.044 392 489.523 390.946C489.009 389.893 488.751 388.661 488.751 387.253C488.751 385.832 489.009 384.592 489.523 383.533C490.044 382.474 490.766 381.651 491.69 381.065C492.619 380.479 493.699 380.186 494.93 380.186C496.161 380.186 497.238 380.479 498.162 381.065C499.091 381.651 499.813 382.474 500.328 383.533C500.849 384.592 501.109 385.832 501.109 387.253C501.109 388.661 500.849 389.893 500.328 390.946C499.813 392 499.091 392.819 498.162 393.405C497.238 393.991 496.161 394.284 494.93 394.284ZM494.93 392.402C495.865 392.402 496.635 392.162 497.238 391.683C497.842 391.203 498.289 390.573 498.579 389.792C498.869 389.011 499.014 388.164 499.014 387.253C499.014 386.341 498.869 385.492 498.579 384.705C498.289 383.918 497.842 383.281 497.238 382.796C496.635 382.311 495.865 382.068 494.93 382.068C493.995 382.068 493.225 382.311 492.622 382.796C492.018 383.281 491.571 383.918 491.281 384.705C490.991 385.492 490.846 386.341 490.846 387.253C490.846 388.164 490.991 389.011 491.281 389.792C491.571 390.573 492.018 391.203 492.622 391.683C493.225 392.162 493.995 392.402 494.93 392.402ZM506.26 389.028L506.225 386.436H506.651L512.617 380.364H515.209L508.853 386.791H508.675L506.26 389.028ZM504.307 394V375.818H506.402V394H504.307ZM512.972 394L507.645 387.253L509.137 385.797L515.635 394H512.972ZM523.062 394.284C521.748 394.284 520.614 393.994 519.661 393.414C518.715 392.828 517.984 392.011 517.469 390.964C516.96 389.91 516.705 388.685 516.705 387.288C516.705 385.892 516.96 384.661 517.469 383.595C517.984 382.524 518.7 381.689 519.617 381.092C520.54 380.488 521.618 380.186 522.849 380.186C523.559 380.186 524.26 380.304 524.953 380.541C525.645 380.778 526.275 381.163 526.844 381.695C527.412 382.222 527.865 382.92 528.202 383.79C528.539 384.661 528.708 385.732 528.708 387.004V387.892H518.197V386.081H526.577C526.577 385.312 526.423 384.625 526.116 384.021C525.814 383.418 525.382 382.941 524.82 382.592C524.263 382.243 523.606 382.068 522.849 382.068C522.014 382.068 521.292 382.275 520.682 382.69C520.079 383.098 519.614 383.631 519.289 384.288C518.963 384.945 518.8 385.649 518.8 386.401V387.608C518.8 388.638 518.978 389.511 519.333 390.227C519.694 390.937 520.194 391.479 520.833 391.852C521.473 392.219 522.215 392.402 523.062 392.402C523.612 392.402 524.109 392.325 524.553 392.171C525.003 392.011 525.391 391.775 525.716 391.461C526.042 391.141 526.293 390.745 526.471 390.271L528.495 390.839C528.282 391.526 527.924 392.13 527.421 392.651C526.918 393.165 526.296 393.568 525.556 393.858C524.817 394.142 523.985 394.284 523.062 394.284Z" fill="black"/>
<path d="M552.145 211.364C552.038 210.464 551.606 209.766 550.849 209.268C550.091 208.771 549.162 208.523 548.061 208.523C547.256 208.523 546.552 208.653 545.948 208.913C545.35 209.174 544.883 209.532 544.545 209.988C544.214 210.443 544.048 210.961 544.048 211.541C544.048 212.027 544.164 212.444 544.395 212.793C544.631 213.136 544.933 213.423 545.3 213.654C545.667 213.879 546.052 214.065 546.454 214.213C546.857 214.355 547.227 214.471 547.564 214.56L549.411 215.057C549.884 215.181 550.411 215.353 550.991 215.572C551.577 215.791 552.136 216.09 552.669 216.468C553.207 216.841 553.651 217.321 554 217.907C554.35 218.493 554.524 219.212 554.524 220.064C554.524 221.046 554.267 221.934 553.752 222.727C553.243 223.52 552.497 224.151 551.515 224.618C550.538 225.086 549.351 225.32 547.955 225.32C546.652 225.32 545.525 225.109 544.572 224.689C543.625 224.269 542.879 223.683 542.335 222.931C541.796 222.18 541.491 221.307 541.42 220.312H543.693C543.752 220.999 543.983 221.567 544.386 222.017C544.794 222.461 545.309 222.792 545.93 223.011C546.558 223.224 547.232 223.331 547.955 223.331C548.795 223.331 549.55 223.195 550.218 222.923C550.887 222.644 551.417 222.26 551.808 221.768C552.198 221.271 552.393 220.691 552.393 220.028C552.393 219.425 552.225 218.933 551.887 218.555C551.55 218.176 551.106 217.868 550.556 217.631C550.005 217.395 549.411 217.187 548.771 217.01L546.534 216.371C545.114 215.962 543.989 215.379 543.161 214.622C542.332 213.864 541.918 212.873 541.918 211.648C541.918 210.63 542.193 209.742 542.743 208.984C543.3 208.221 544.045 207.629 544.98 207.209C545.922 206.783 546.972 206.57 548.132 206.57C549.304 206.57 550.346 206.78 551.257 207.2C552.169 207.614 552.891 208.182 553.423 208.904C553.962 209.627 554.246 210.446 554.276 211.364H552.145ZM563.79 211.364V213.139H556.724V211.364H563.79ZM558.783 208.097H560.878V221.094C560.878 221.686 560.964 222.129 561.136 222.425C561.313 222.715 561.538 222.911 561.811 223.011C562.089 223.106 562.382 223.153 562.69 223.153C562.92 223.153 563.11 223.142 563.258 223.118C563.406 223.088 563.524 223.065 563.613 223.047L564.039 224.929C563.897 224.982 563.699 225.036 563.444 225.089C563.19 225.148 562.867 225.178 562.476 225.178C561.885 225.178 561.305 225.05 560.736 224.796C560.174 224.541 559.707 224.154 559.334 223.633C558.967 223.112 558.783 222.455 558.783 221.662V208.097ZM570.955 225.32C570.091 225.32 569.306 225.157 568.602 224.831C567.898 224.5 567.339 224.023 566.924 223.402C566.51 222.775 566.303 222.017 566.303 221.129C566.303 220.348 566.457 219.715 566.764 219.229C567.072 218.738 567.484 218.353 567.998 218.075C568.513 217.797 569.082 217.59 569.703 217.454C570.33 217.312 570.961 217.199 571.594 217.116C572.423 217.01 573.094 216.93 573.609 216.877C574.13 216.818 574.509 216.72 574.746 216.584C574.988 216.448 575.11 216.211 575.11 215.874V215.803C575.11 214.927 574.87 214.246 574.391 213.761C573.917 213.275 573.198 213.033 572.233 213.033C571.233 213.033 570.449 213.252 569.881 213.69C569.312 214.128 568.913 214.595 568.682 215.092L566.693 214.382C567.049 213.554 567.522 212.908 568.114 212.447C568.712 211.979 569.363 211.654 570.067 211.47C570.777 211.281 571.476 211.186 572.162 211.186C572.6 211.186 573.103 211.239 573.671 211.346C574.246 211.446 574.799 211.657 575.332 211.976C575.87 212.296 576.317 212.778 576.672 213.423C577.027 214.068 577.205 214.933 577.205 216.016V225H575.11V223.153H575.003C574.861 223.449 574.624 223.766 574.293 224.103C573.961 224.441 573.521 224.728 572.97 224.964C572.42 225.201 571.748 225.32 570.955 225.32ZM571.274 223.438C572.103 223.438 572.801 223.275 573.37 222.949C573.944 222.624 574.376 222.203 574.666 221.689C574.962 221.174 575.11 220.632 575.11 220.064V218.146C575.021 218.253 574.826 218.35 574.524 218.439C574.228 218.522 573.884 218.596 573.494 218.661C573.109 218.72 572.733 218.774 572.366 218.821C572.005 218.862 571.712 218.898 571.487 218.928C570.943 218.999 570.434 219.114 569.96 219.274C569.493 219.428 569.114 219.661 568.824 219.975C568.54 220.283 568.398 220.703 568.398 221.236C568.398 221.964 568.667 222.514 569.206 222.887C569.75 223.254 570.44 223.438 571.274 223.438ZM589.623 219.425V211.364H591.718V225H589.623V222.692H589.481C589.161 223.384 588.664 223.973 587.989 224.458C587.314 224.938 586.462 225.178 585.432 225.178C584.58 225.178 583.823 224.991 583.16 224.618C582.497 224.239 581.976 223.671 581.597 222.914C581.218 222.15 581.029 221.188 581.029 220.028V211.364H583.124V219.886C583.124 220.881 583.402 221.674 583.959 222.266C584.521 222.857 585.237 223.153 586.107 223.153C586.628 223.153 587.158 223.02 587.696 222.754C588.241 222.488 588.696 222.079 589.063 221.529C589.436 220.978 589.623 220.277 589.623 219.425ZM597.65 216.797V225H595.555V211.364H597.579V213.494H597.757C598.077 212.802 598.562 212.246 599.213 211.825C599.864 211.399 600.704 211.186 601.734 211.186C602.658 211.186 603.465 211.375 604.158 211.754C604.85 212.127 605.389 212.695 605.774 213.459C606.158 214.216 606.351 215.175 606.351 216.335V225H604.256V216.477C604.256 215.406 603.977 214.571 603.421 213.974C602.865 213.37 602.101 213.068 601.131 213.068C600.462 213.068 599.864 213.213 599.337 213.503C598.816 213.793 598.405 214.216 598.103 214.773C597.801 215.329 597.65 216.004 597.65 216.797ZM616.11 211.364V213.139H609.043V211.364H616.11ZM611.103 208.097H613.198V221.094C613.198 221.686 613.284 222.129 613.455 222.425C613.633 222.715 613.858 222.911 614.13 223.011C614.408 223.106 614.701 223.153 615.009 223.153C615.24 223.153 615.429 223.142 615.577 223.118C615.725 223.088 615.843 223.065 615.932 223.047L616.358 224.929C616.216 224.982 616.018 225.036 615.763 225.089C615.509 225.148 615.186 225.178 614.796 225.178C614.204 225.178 613.624 225.05 613.056 224.796C612.493 224.541 612.026 224.154 611.653 223.633C611.286 223.112 611.103 222.455 611.103 221.662V208.097ZM624.655 225.284C623.424 225.284 622.343 224.991 621.414 224.405C620.491 223.819 619.769 223 619.248 221.946C618.733 220.893 618.476 219.661 618.476 218.253C618.476 216.832 618.733 215.592 619.248 214.533C619.769 213.474 620.491 212.651 621.414 212.065C622.343 211.479 623.424 211.186 624.655 211.186C625.886 211.186 626.963 211.479 627.886 212.065C628.815 212.651 629.537 213.474 630.052 214.533C630.573 215.592 630.834 216.832 630.834 218.253C630.834 219.661 630.573 220.893 630.052 221.946C629.537 223 628.815 223.819 627.886 224.405C626.963 224.991 625.886 225.284 624.655 225.284ZM624.655 223.402C625.59 223.402 626.359 223.162 626.963 222.683C627.567 222.203 628.013 221.573 628.303 220.792C628.593 220.011 628.738 219.164 628.738 218.253C628.738 217.341 628.593 216.492 628.303 215.705C628.013 214.918 627.567 214.281 626.963 213.796C626.359 213.311 625.59 213.068 624.655 213.068C623.72 213.068 622.95 213.311 622.346 213.796C621.743 214.281 621.296 214.918 621.006 215.705C620.716 216.492 620.571 217.341 620.571 218.253C620.571 219.164 620.716 220.011 621.006 220.792C621.296 221.573 621.743 222.203 622.346 222.683C622.95 223.162 623.72 223.402 624.655 223.402ZM636.127 216.797V225H634.032V211.364H636.056V213.494H636.234C636.553 212.802 637.039 212.246 637.69 211.825C638.341 211.399 639.181 211.186 640.211 211.186C641.134 211.186 641.942 211.375 642.634 211.754C643.327 212.127 643.866 212.695 644.25 213.459C644.635 214.216 644.827 215.175 644.827 216.335V225H642.732V216.477C642.732 215.406 642.454 214.571 641.898 213.974C641.341 213.37 640.578 213.068 639.607 213.068C638.938 213.068 638.341 213.213 637.814 213.503C637.293 213.793 636.882 214.216 636.58 214.773C636.278 215.329 636.127 216.004 636.127 216.797Z" fill="black"/>
<path d="M662.947 150H660.639L667.315 131.818H669.588L676.264 150H673.956L668.523 134.695H668.381L662.947 150ZM663.8 142.898H673.104V144.851H663.8V142.898ZM680.907 131.818V150H678.812V131.818H680.907ZM690.462 150.284C689.148 150.284 688.015 149.994 687.062 149.414C686.115 148.828 685.384 148.011 684.869 146.964C684.36 145.91 684.106 144.685 684.106 143.288C684.106 141.892 684.36 140.661 684.869 139.595C685.384 138.524 686.1 137.689 687.017 137.092C687.941 136.488 689.018 136.186 690.249 136.186C690.959 136.186 691.661 136.304 692.353 136.541C693.046 136.778 693.676 137.163 694.244 137.695C694.812 138.222 695.265 138.92 695.602 139.79C695.94 140.661 696.108 141.732 696.108 143.004V143.892H685.597V142.081H693.978C693.978 141.312 693.824 140.625 693.516 140.021C693.214 139.418 692.782 138.941 692.22 138.592C691.664 138.243 691.007 138.068 690.249 138.068C689.415 138.068 688.692 138.275 688.083 138.69C687.479 139.098 687.015 139.631 686.689 140.288C686.363 140.945 686.201 141.649 686.201 142.401V143.608C686.201 144.638 686.378 145.511 686.733 146.227C687.094 146.937 687.595 147.479 688.234 147.852C688.873 148.219 689.616 148.402 690.462 148.402C691.013 148.402 691.51 148.325 691.954 148.171C692.403 148.011 692.791 147.775 693.117 147.461C693.442 147.141 693.694 146.745 693.871 146.271L695.895 146.839C695.682 147.526 695.324 148.13 694.821 148.651C694.318 149.165 693.697 149.568 692.957 149.858C692.217 150.142 691.385 150.284 690.462 150.284ZM700.492 136.364L703.759 141.939L707.026 136.364H709.441L705.037 143.182L709.441 150H707.026L703.759 144.709L700.492 150H698.077L702.409 143.182L698.077 136.364H700.492ZM716.443 150.32C715.579 150.32 714.795 150.157 714.09 149.831C713.386 149.5 712.827 149.023 712.413 148.402C711.998 147.775 711.791 147.017 711.791 146.129C711.791 145.348 711.945 144.715 712.253 144.229C712.561 143.738 712.972 143.353 713.487 143.075C714.002 142.797 714.57 142.59 715.191 142.454C715.819 142.312 716.449 142.199 717.082 142.116C717.911 142.01 718.583 141.93 719.098 141.877C719.618 141.818 719.997 141.72 720.234 141.584C720.477 141.448 720.598 141.211 720.598 140.874V140.803C720.598 139.927 720.358 139.246 719.879 138.761C719.405 138.275 718.686 138.033 717.722 138.033C716.721 138.033 715.937 138.252 715.369 138.69C714.801 139.128 714.401 139.595 714.17 140.092L712.182 139.382C712.537 138.554 713.01 137.908 713.602 137.447C714.2 136.979 714.851 136.654 715.555 136.47C716.266 136.281 716.964 136.186 717.65 136.186C718.088 136.186 718.592 136.239 719.16 136.346C719.734 136.446 720.287 136.657 720.82 136.976C721.358 137.296 721.805 137.778 722.16 138.423C722.516 139.068 722.693 139.933 722.693 141.016V150H720.598V148.153H720.491C720.349 148.449 720.113 148.766 719.781 149.103C719.45 149.441 719.009 149.728 718.458 149.964C717.908 150.201 717.236 150.32 716.443 150.32ZM716.763 148.438C717.591 148.438 718.29 148.275 718.858 147.949C719.432 147.624 719.864 147.203 720.154 146.689C720.45 146.174 720.598 145.632 720.598 145.064V143.146C720.509 143.253 720.314 143.35 720.012 143.439C719.716 143.522 719.373 143.596 718.982 143.661C718.597 143.72 718.222 143.774 717.855 143.821C717.494 143.862 717.201 143.898 716.976 143.928C716.431 143.999 715.922 144.114 715.449 144.274C714.981 144.428 714.602 144.661 714.312 144.975C714.028 145.283 713.886 145.703 713.886 146.236C713.886 146.964 714.156 147.514 714.694 147.887C715.239 148.254 715.928 148.438 716.763 148.438ZM728.612 141.797V150H726.517V136.364H728.541V138.494H728.719C729.039 137.802 729.524 137.246 730.175 136.825C730.826 136.399 731.666 136.186 732.696 136.186C733.619 136.186 734.427 136.375 735.12 136.754C735.812 137.127 736.351 137.695 736.736 138.459C737.12 139.216 737.313 140.175 737.313 141.335V150H735.218V141.477C735.218 140.406 734.939 139.571 734.383 138.974C733.827 138.37 733.063 138.068 732.093 138.068C731.424 138.068 730.826 138.213 730.299 138.503C729.778 138.793 729.367 139.216 729.065 139.773C728.763 140.329 728.612 141.004 728.612 141.797ZM746.29 150.284C745.154 150.284 744.151 149.997 743.281 149.423C742.411 148.843 741.73 148.026 741.239 146.973C740.748 145.913 740.502 144.661 740.502 143.217C740.502 141.785 740.748 140.542 741.239 139.489C741.73 138.435 742.414 137.621 743.29 137.047C744.166 136.473 745.178 136.186 746.326 136.186C747.214 136.186 747.915 136.334 748.43 136.63C748.951 136.92 749.347 137.251 749.62 137.624C749.898 137.991 750.114 138.293 750.268 138.53H750.445V131.818H752.54V150H750.516V147.905H750.268C750.114 148.153 749.895 148.467 749.611 148.846C749.327 149.219 748.921 149.553 748.394 149.849C747.868 150.139 747.166 150.284 746.29 150.284ZM746.574 148.402C747.415 148.402 748.125 148.183 748.705 147.745C749.285 147.301 749.726 146.689 750.028 145.907C750.33 145.12 750.481 144.212 750.481 143.182C750.481 142.164 750.333 141.273 750.037 140.51C749.741 139.74 749.303 139.142 748.723 138.716C748.143 138.284 747.427 138.068 746.574 138.068C745.687 138.068 744.947 138.296 744.355 138.752C743.769 139.202 743.328 139.814 743.032 140.589C742.742 141.359 742.597 142.223 742.597 143.182C742.597 144.152 742.745 145.034 743.041 145.827C743.343 146.615 743.787 147.242 744.373 147.71C744.965 148.171 745.699 148.402 746.574 148.402ZM756.669 150V136.364H758.693V138.423H758.835C759.083 137.749 759.533 137.201 760.184 136.781C760.835 136.361 761.569 136.151 762.386 136.151C762.54 136.151 762.732 136.154 762.963 136.159C763.194 136.165 763.368 136.174 763.487 136.186V138.317C763.416 138.299 763.253 138.272 762.998 138.237C762.75 138.195 762.487 138.175 762.208 138.175C761.545 138.175 760.954 138.314 760.433 138.592C759.918 138.864 759.509 139.243 759.208 139.728C758.912 140.208 758.764 140.755 758.764 141.371V150H756.669ZM765.97 150V136.364H768.066V150H765.97ZM767.036 134.091C766.627 134.091 766.275 133.952 765.979 133.674C765.689 133.395 765.544 133.061 765.544 132.67C765.544 132.28 765.689 131.945 765.979 131.667C766.275 131.389 766.627 131.25 767.036 131.25C767.444 131.25 767.793 131.389 768.083 131.667C768.379 131.945 768.527 132.28 768.527 132.67C768.527 133.061 768.379 133.395 768.083 133.674C767.793 133.952 767.444 134.091 767.036 134.091ZM775.916 150.32C775.052 150.32 774.267 150.157 773.563 149.831C772.859 149.5 772.3 149.023 771.885 148.402C771.471 147.775 771.264 147.017 771.264 146.129C771.264 145.348 771.418 144.715 771.725 144.229C772.033 143.738 772.445 143.353 772.959 143.075C773.474 142.797 774.043 142.59 774.664 142.454C775.291 142.312 775.922 142.199 776.555 142.116C777.384 142.01 778.055 141.93 778.57 141.877C779.091 141.818 779.47 141.72 779.707 141.584C779.949 141.448 780.071 141.211 780.071 140.874V140.803C780.071 139.927 779.831 139.246 779.351 138.761C778.878 138.275 778.159 138.033 777.194 138.033C776.194 138.033 775.41 138.252 774.842 138.69C774.273 139.128 773.874 139.595 773.643 140.092L771.654 139.382C772.009 138.554 772.483 137.908 773.075 137.447C773.673 136.979 774.324 136.654 775.028 136.47C775.738 136.281 776.437 136.186 777.123 136.186C777.561 136.186 778.064 136.239 778.632 136.346C779.206 136.446 779.76 136.657 780.293 136.976C780.831 137.296 781.278 137.778 781.633 138.423C781.988 139.068 782.166 139.933 782.166 141.016V150H780.071V148.153H779.964C779.822 148.449 779.585 148.766 779.254 149.103C778.922 149.441 778.481 149.728 777.931 149.964C777.381 150.201 776.709 150.32 775.916 150.32ZM776.235 148.438C777.064 148.438 777.762 148.275 778.331 147.949C778.905 147.624 779.337 147.203 779.627 146.689C779.923 146.174 780.071 145.632 780.071 145.064V143.146C779.982 143.253 779.786 143.35 779.485 143.439C779.189 143.522 778.845 143.596 778.455 143.661C778.07 143.72 777.694 143.774 777.327 143.821C776.966 143.862 776.673 143.898 776.448 143.928C775.904 143.999 775.395 144.114 774.921 144.274C774.454 144.428 774.075 144.661 773.785 144.975C773.501 145.283 773.359 145.703 773.359 146.236C773.359 146.964 773.628 147.514 774.167 147.887C774.711 148.254 775.401 148.438 776.235 148.438Z" fill="black"/>
<path d="M520.202 330V311.818H522.403V328.047H530.855V330H520.202ZM533.621 335.114C533.265 335.114 532.949 335.084 532.671 335.025C532.392 334.972 532.2 334.918 532.094 334.865L532.626 333.018C533.135 333.149 533.585 333.196 533.976 333.161C534.366 333.125 534.713 332.95 535.014 332.637C535.322 332.329 535.603 331.829 535.858 331.136L536.248 330.071L531.206 316.364H533.479L537.243 327.23H537.385L541.149 316.364H543.422L537.633 331.989C537.373 332.693 537.05 333.276 536.666 333.738C536.281 334.205 535.834 334.551 535.325 334.776C534.822 335.001 534.254 335.114 533.621 335.114ZM548.282 321.797V330H546.187V316.364H548.211V318.494H548.389C548.708 317.802 549.194 317.246 549.845 316.825C550.496 316.399 551.336 316.186 552.366 316.186C553.289 316.186 554.097 316.375 554.79 316.754C555.482 317.127 556.021 317.695 556.406 318.459C556.79 319.216 556.983 320.175 556.983 321.335V330H554.887V321.477C554.887 320.406 554.609 319.571 554.053 318.974C553.497 318.37 552.733 318.068 551.762 318.068C551.094 318.068 550.496 318.213 549.969 318.503C549.448 318.793 549.037 319.216 548.735 319.773C548.433 320.329 548.282 321.004 548.282 321.797ZM566.351 330.284C565.073 330.284 563.972 329.982 563.048 329.379C562.125 328.775 561.415 327.943 560.918 326.884C560.421 325.824 560.172 324.614 560.172 323.253C560.172 321.868 560.426 320.646 560.935 319.586C561.45 318.521 562.167 317.689 563.084 317.092C564.007 316.488 565.084 316.186 566.315 316.186C567.274 316.186 568.138 316.364 568.908 316.719C569.677 317.074 570.307 317.571 570.799 318.21C571.29 318.849 571.595 319.595 571.713 320.447H569.618C569.458 319.826 569.103 319.276 568.553 318.796C568.008 318.311 567.274 318.068 566.351 318.068C565.534 318.068 564.818 318.281 564.203 318.707C563.593 319.128 563.116 319.722 562.773 320.492C562.436 321.255 562.267 322.152 562.267 323.182C562.267 324.235 562.433 325.153 562.764 325.934C563.102 326.715 563.575 327.322 564.185 327.754C564.8 328.186 565.522 328.402 566.351 328.402C566.895 328.402 567.39 328.307 567.834 328.118C568.277 327.929 568.653 327.656 568.961 327.301C569.269 326.946 569.488 326.52 569.618 326.023H571.713C571.595 326.828 571.302 327.553 570.834 328.198C570.373 328.837 569.76 329.346 568.997 329.725C568.239 330.098 567.357 330.284 566.351 330.284ZM576.871 321.797V330H574.776V311.818H576.871V318.494H577.049C577.368 317.79 577.848 317.231 578.487 316.816C579.132 316.396 579.99 316.186 581.062 316.186C581.991 316.186 582.805 316.373 583.503 316.745C584.201 317.112 584.743 317.678 585.128 318.441C585.518 319.199 585.714 320.163 585.714 321.335V330H583.618V321.477C583.618 320.394 583.337 319.557 582.775 318.965C582.219 318.367 581.446 318.068 580.458 318.068C579.771 318.068 579.156 318.213 578.611 318.503C578.073 318.793 577.647 319.216 577.333 319.773C577.025 320.329 576.871 321.004 576.871 321.797ZM589.831 330V311.818H591.926V318.53H592.103C592.257 318.293 592.47 317.991 592.743 317.624C593.021 317.251 593.417 316.92 593.932 316.63C594.453 316.334 595.157 316.186 596.045 316.186C597.193 316.186 598.205 316.473 599.081 317.047C599.957 317.621 600.641 318.435 601.132 319.489C601.623 320.542 601.869 321.785 601.869 323.217C601.869 324.661 601.623 325.913 601.132 326.973C600.641 328.026 599.96 328.843 599.09 329.423C598.22 329.997 597.217 330.284 596.081 330.284C595.205 330.284 594.503 330.139 593.977 329.849C593.45 329.553 593.044 329.219 592.76 328.846C592.476 328.467 592.257 328.153 592.103 327.905H591.855V330H589.831ZM591.89 323.182C591.89 324.212 592.041 325.12 592.343 325.907C592.645 326.689 593.086 327.301 593.666 327.745C594.246 328.183 594.956 328.402 595.797 328.402C596.672 328.402 597.403 328.171 597.989 327.71C598.581 327.242 599.025 326.615 599.321 325.827C599.623 325.034 599.774 324.152 599.774 323.182C599.774 322.223 599.626 321.359 599.33 320.589C599.04 319.814 598.599 319.202 598.007 318.752C597.421 318.296 596.684 318.068 595.797 318.068C594.944 318.068 594.228 318.284 593.648 318.716C593.068 319.142 592.63 319.74 592.334 320.51C592.038 321.273 591.89 322.164 591.89 323.182ZM613.668 324.425V316.364H615.763V330H613.668V327.692H613.526C613.206 328.384 612.709 328.973 612.034 329.458C611.359 329.938 610.507 330.178 609.477 330.178C608.625 330.178 607.867 329.991 607.205 329.618C606.542 329.239 606.021 328.671 605.642 327.914C605.263 327.15 605.074 326.188 605.074 325.028V316.364H607.169V324.886C607.169 325.881 607.447 326.674 608.004 327.266C608.566 327.857 609.282 328.153 610.152 328.153C610.673 328.153 611.203 328.02 611.741 327.754C612.286 327.488 612.741 327.079 613.108 326.529C613.481 325.978 613.668 325.277 613.668 324.425ZM619.6 330V316.364H621.624V318.423H621.766C622.015 317.749 622.465 317.201 623.116 316.781C623.767 316.361 624.501 316.151 625.318 316.151C625.471 316.151 625.664 316.154 625.895 316.159C626.125 316.165 626.3 316.174 626.418 316.186V318.317C626.347 318.299 626.185 318.272 625.93 318.237C625.682 318.195 625.418 318.175 625.14 318.175C624.477 318.175 623.885 318.314 623.364 318.592C622.85 318.864 622.441 319.243 622.139 319.728C621.843 320.208 621.695 320.755 621.695 321.371V330H619.6ZM633.991 335.398C632.979 335.398 632.109 335.268 631.381 335.007C630.653 334.753 630.046 334.415 629.561 333.995C629.082 333.581 628.7 333.137 628.416 332.663L630.085 331.491C630.274 331.74 630.514 332.024 630.804 332.344C631.094 332.669 631.491 332.95 631.994 333.187C632.503 333.43 633.169 333.551 633.991 333.551C635.092 333.551 636.001 333.285 636.717 332.752C637.433 332.219 637.791 331.385 637.791 330.249V327.479H637.613C637.459 327.727 637.241 328.035 636.956 328.402C636.678 328.763 636.276 329.086 635.749 329.37C635.228 329.648 634.524 329.787 633.636 329.787C632.535 329.787 631.547 329.527 630.671 329.006C629.801 328.485 629.111 327.727 628.602 326.733C628.099 325.739 627.848 324.531 627.848 323.111C627.848 321.714 628.093 320.498 628.585 319.462C629.076 318.42 629.759 317.615 630.635 317.047C631.511 316.473 632.523 316.186 633.672 316.186C634.559 316.186 635.264 316.334 635.785 316.63C636.311 316.92 636.714 317.251 636.992 317.624C637.276 317.991 637.495 318.293 637.649 318.53H637.862V316.364H639.886V330.391C639.886 331.562 639.62 332.515 639.087 333.249C638.56 333.989 637.85 334.531 636.956 334.874C636.069 335.223 635.08 335.398 633.991 335.398ZM633.92 327.905C634.761 327.905 635.471 327.712 636.051 327.328C636.631 326.943 637.072 326.39 637.374 325.668C637.676 324.946 637.826 324.081 637.826 323.075C637.826 322.093 637.678 321.226 637.383 320.474C637.087 319.722 636.649 319.134 636.069 318.707C635.489 318.281 634.772 318.068 633.92 318.068C633.032 318.068 632.293 318.293 631.701 318.743C631.115 319.193 630.674 319.796 630.378 320.554C630.088 321.312 629.943 322.152 629.943 323.075C629.943 324.022 630.091 324.86 630.387 325.588C630.689 326.31 631.133 326.878 631.718 327.292C632.31 327.701 633.044 327.905 633.92 327.905Z" fill="black"/>
<circle cx="479.511" cy="360.511" r="9.01136" fill="#FFE587" stroke="black"/>
<circle cx="581.511" cy="238.511" r="9.01136" fill="#FFE587" stroke="black"/>
<circle cx="801.511" cy="141.511" r="9.01136" fill="#FFE587" stroke="black"/>
<circle cx="572.511" cy="342.511" r="9.01136" fill="#FFE587" stroke="black"/>
<line x1="729.441" y1="63.1026" x2="734.219" y2="65.4523" stroke="#FFE587" stroke-width="2"/>
<line x1="729.134" y1="64.1113" x2="731.796" y2="59.5" stroke="#FFE587" stroke-width="2"/>
<line x1="44" y1="458" x2="59.2643" y2="458" stroke="#FFE587" stroke-width="2"/>
<line x1="281.034" y1="473.485" x2="284.985" y2="458.741" stroke="#FFE587" stroke-width="2"/>
<line x1="240" y1="323" x2="252" y2="323" stroke="#FFE587" stroke-width="2"/>
</svg>
