<svg width="672" height="722" viewBox="0 0 672 722" fill="none" xmlns="http://www.w3.org/2000/svg">
<rect x="0.5" y="0.5" width="671" height="721" rx="35.5" fill="#97DCFF" stroke="#717171"/>
<g filter="url(#filter0_d_262_54)">
<path d="M276 46.5L82 240L73 248.5L82 260L90.5 279L105.5 296L117 320.5L130 335.5L151.5 348C155.833 349.667 165.3 353.4 168.5 355C171.7 356.6 182.833 357 188 357L202.5 359L208.5 370L218 389.5V399L224.5 416L233.5 426H239L247 435L257 450.5L265.5 444.5L280.5 459.5L291 495L299 517V530.5L293 560.5L284.5 594L279.5 622L286 644.5V661L322 661.5L325.5 661L340 662.5L614.5 386L276 46.5Z" fill="#FFD597"/>
<path d="M276 46.5L82 240L73 248.5L82 260L90.5 279L105.5 296L117 320.5L130 335.5L151.5 348C155.833 349.667 165.3 353.4 168.5 355C171.7 356.6 182.833 357 188 357L202.5 359L208.5 370L218 389.5V399L224.5 416L233.5 426H239L247 435L257 450.5L265.5 444.5L280.5 459.5L291 495L299 517V530.5L293 560.5L284.5 594L279.5 622L286 644.5V661L322 661.5L325.5 661L340 662.5L614.5 386L276 46.5Z" stroke="black"/>
</g>
<path d="M518.722 153.545H522.591L527.773 166.193H527.977L533.159 153.545H537.028V171H533.994V159.009H533.832L529.009 170.949H526.741L521.918 158.983H521.756V171H518.722V153.545ZM546.386 171H540.472V153.545H546.506C548.239 153.545 549.727 153.895 550.972 154.594C552.222 155.287 553.182 156.284 553.852 157.585C554.523 158.886 554.858 160.443 554.858 162.256C554.858 164.074 554.52 165.636 553.844 166.943C553.173 168.25 552.205 169.253 550.938 169.952C549.676 170.651 548.159 171 546.386 171ZM543.634 168.264H546.233C547.449 168.264 548.463 168.043 549.276 167.599C550.088 167.151 550.699 166.483 551.108 165.597C551.517 164.705 551.722 163.591 551.722 162.256C551.722 160.92 551.517 159.812 551.108 158.932C550.699 158.045 550.094 157.384 549.293 156.946C548.497 156.503 547.509 156.281 546.327 156.281H543.634V168.264Z" fill="#005A5E"/>
<path d="M140.057 501.545L144.599 515.284H144.778L149.312 501.545H152.79L146.636 519H142.733L136.588 501.545H140.057ZM155.291 519H151.916L158.061 501.545H161.964L168.118 519H164.743L160.081 505.125H159.945L155.291 519ZM155.402 512.156H164.607V514.696H155.402V512.156Z" fill="#005A5E"/>
<circle cx="359.511" cy="396.511" r="9.01136" fill="#00DE73" stroke="black"/>
<path d="M285.673 378L280.471 359.818H284.67L287.679 372.451H287.83L291.151 359.818H294.746L298.058 372.478H298.217L301.227 359.818H305.426L300.224 378H296.477L293.015 366.113H292.873L289.419 378H285.673ZM311.195 370.116V378H307.413V359.818H311.088V366.77H311.248C311.556 365.965 312.053 365.334 312.739 364.879C313.426 364.417 314.287 364.186 315.323 364.186C316.27 364.186 317.095 364.393 317.8 364.808C318.51 365.216 319.06 365.805 319.451 366.574C319.847 367.338 320.043 368.252 320.037 369.317V378H316.255V369.992C316.261 369.152 316.048 368.498 315.616 368.03C315.19 367.563 314.592 367.329 313.822 367.329C313.307 367.329 312.852 367.438 312.455 367.657C312.065 367.876 311.757 368.196 311.532 368.616C311.313 369.03 311.2 369.531 311.195 370.116ZM323.013 378V364.364H326.795V378H323.013ZM324.913 362.606C324.351 362.606 323.868 362.419 323.466 362.047C323.069 361.668 322.871 361.215 322.871 360.688C322.871 360.167 323.069 359.721 323.466 359.348C323.868 358.969 324.351 358.779 324.913 358.779C325.475 358.779 325.955 358.969 326.351 359.348C326.754 359.721 326.955 360.167 326.955 360.688C326.955 361.215 326.754 361.668 326.351 362.047C325.955 362.419 325.475 362.606 324.913 362.606ZM337.078 364.364V367.205H328.866V364.364H337.078ZM330.73 361.097H334.512V373.81C334.512 374.159 334.565 374.431 334.672 374.626C334.778 374.816 334.926 374.949 335.116 375.026C335.311 375.103 335.536 375.141 335.791 375.141C335.968 375.141 336.146 375.127 336.323 375.097C336.501 375.061 336.637 375.035 336.732 375.017L337.326 377.831C337.137 377.891 336.871 377.959 336.527 378.036C336.184 378.118 335.767 378.169 335.276 378.186C334.364 378.222 333.565 378.101 332.879 377.822C332.198 377.544 331.668 377.112 331.29 376.526C330.911 375.94 330.724 375.201 330.73 374.307V361.097ZM345.609 378.266C344.207 378.266 342.999 377.982 341.987 377.414C340.981 376.84 340.206 376.029 339.661 374.982C339.117 373.928 338.845 372.682 338.845 371.244C338.845 369.841 339.117 368.61 339.661 367.551C340.206 366.491 340.972 365.666 341.961 365.074C342.955 364.482 344.121 364.186 345.459 364.186C346.358 364.186 347.196 364.331 347.971 364.621C348.752 364.905 349.433 365.334 350.013 365.908C350.599 366.482 351.055 367.205 351.38 368.075C351.706 368.939 351.868 369.951 351.868 371.111V372.15H340.354V369.806H348.308C348.308 369.261 348.19 368.779 347.953 368.359C347.716 367.938 347.388 367.61 346.968 367.373C346.553 367.131 346.071 367.009 345.521 367.009C344.947 367.009 344.438 367.142 343.994 367.409C343.556 367.669 343.212 368.021 342.964 368.465C342.715 368.903 342.588 369.391 342.582 369.93V372.158C342.582 372.833 342.706 373.416 342.955 373.907C343.209 374.399 343.568 374.777 344.029 375.044C344.491 375.31 345.038 375.443 345.672 375.443C346.092 375.443 346.477 375.384 346.826 375.266C347.175 375.147 347.474 374.97 347.722 374.733C347.971 374.496 348.16 374.206 348.291 373.863L351.788 374.094C351.611 374.934 351.247 375.668 350.696 376.295C350.152 376.917 349.448 377.402 348.584 377.751C347.725 378.095 346.734 378.266 345.609 378.266ZM360.194 378V359.818H364.038V367.32H371.841V359.818H375.676V378H371.841V370.489H364.038V378H360.194ZM384.936 378.266C383.557 378.266 382.364 377.973 381.358 377.387C380.358 376.796 379.586 375.973 379.041 374.919C378.497 373.86 378.224 372.632 378.224 371.235C378.224 369.826 378.497 368.595 379.041 367.542C379.586 366.482 380.358 365.66 381.358 365.074C382.364 364.482 383.557 364.186 384.936 364.186C386.315 364.186 387.505 364.482 388.505 365.074C389.511 365.66 390.286 366.482 390.831 367.542C391.375 368.595 391.648 369.826 391.648 371.235C391.648 372.632 391.375 373.86 390.831 374.919C390.286 375.973 389.511 376.796 388.505 377.387C387.505 377.973 386.315 378.266 384.936 378.266ZM384.954 375.337C385.581 375.337 386.105 375.159 386.525 374.804C386.945 374.443 387.262 373.952 387.475 373.33C387.694 372.709 387.804 372.002 387.804 371.208C387.804 370.415 387.694 369.708 387.475 369.087C387.262 368.465 386.945 367.974 386.525 367.613C386.105 367.252 385.581 367.071 384.954 367.071C384.321 367.071 383.788 367.252 383.356 367.613C382.93 367.974 382.607 368.465 382.388 369.087C382.175 369.708 382.069 370.415 382.069 371.208C382.069 372.002 382.175 372.709 382.388 373.33C382.607 373.952 382.93 374.443 383.356 374.804C383.788 375.159 384.321 375.337 384.954 375.337ZM402.852 372.194V364.364H406.634V378H403.002V375.523H402.86C402.553 376.322 402.041 376.964 401.325 377.45C400.614 377.935 399.747 378.178 398.723 378.178C397.812 378.178 397.01 377.97 396.317 377.556C395.625 377.142 395.083 376.553 394.693 375.789C394.308 375.026 394.113 374.112 394.107 373.046V364.364H397.889V372.371C397.895 373.176 398.111 373.813 398.537 374.28C398.963 374.748 399.534 374.982 400.25 374.982C400.706 374.982 401.132 374.878 401.529 374.671C401.925 374.458 402.245 374.144 402.488 373.73C402.736 373.315 402.857 372.804 402.852 372.194ZM421.005 368.252L417.542 368.465C417.483 368.169 417.356 367.903 417.16 367.666C416.965 367.424 416.708 367.231 416.388 367.089C416.074 366.941 415.699 366.867 415.261 366.867C414.675 366.867 414.18 366.991 413.778 367.24C413.376 367.483 413.174 367.808 413.174 368.217C413.174 368.542 413.304 368.817 413.565 369.042C413.825 369.267 414.272 369.448 414.905 369.584L417.373 370.081C418.699 370.353 419.688 370.791 420.339 371.395C420.99 371.999 421.315 372.792 421.315 373.774C421.315 374.668 421.052 375.452 420.525 376.127C420.004 376.801 419.288 377.328 418.377 377.707C417.471 378.08 416.427 378.266 415.243 378.266C413.438 378.266 411.999 377.891 410.928 377.139C409.863 376.381 409.238 375.351 409.055 374.049L412.775 373.854C412.887 374.404 413.159 374.825 413.592 375.115C414.024 375.399 414.577 375.541 415.252 375.541C415.915 375.541 416.447 375.414 416.85 375.159C417.258 374.899 417.465 374.564 417.471 374.156C417.465 373.813 417.32 373.531 417.036 373.312C416.752 373.088 416.314 372.916 415.722 372.798L413.361 372.327C412.029 372.061 411.038 371.599 410.387 370.942C409.742 370.285 409.419 369.448 409.419 368.43C409.419 367.554 409.656 366.799 410.129 366.166C410.609 365.533 411.28 365.044 412.144 364.701C413.014 364.358 414.032 364.186 415.198 364.186C416.921 364.186 418.276 364.55 419.264 365.278C420.259 366.006 420.839 366.997 421.005 368.252ZM429.911 378.266C428.509 378.266 427.301 377.982 426.289 377.414C425.283 376.84 424.508 376.029 423.963 374.982C423.419 373.928 423.146 372.682 423.146 371.244C423.146 369.841 423.419 368.61 423.963 367.551C424.508 366.491 425.274 365.666 426.262 365.074C427.257 364.482 428.423 364.186 429.76 364.186C430.66 364.186 431.497 364.331 432.273 364.621C433.054 364.905 433.735 365.334 434.315 365.908C434.901 366.482 435.356 367.205 435.682 368.075C436.007 368.939 436.17 369.951 436.17 371.111V372.15H424.656V369.806H432.61C432.61 369.261 432.492 368.779 432.255 368.359C432.018 367.938 431.69 367.61 431.27 367.373C430.855 367.131 430.373 367.009 429.822 367.009C429.248 367.009 428.739 367.142 428.295 367.409C427.857 367.669 427.514 368.021 427.266 368.465C427.017 368.903 426.89 369.391 426.884 369.93V372.158C426.884 372.833 427.008 373.416 427.257 373.907C427.511 374.399 427.869 374.777 428.331 375.044C428.793 375.31 429.34 375.443 429.973 375.443C430.394 375.443 430.778 375.384 431.127 375.266C431.477 375.147 431.776 374.97 432.024 374.733C432.273 374.496 432.462 374.206 432.592 373.863L436.09 374.094C435.913 374.934 435.549 375.668 434.998 376.295C434.454 376.917 433.749 377.402 432.885 377.751C432.027 378.095 431.036 378.266 429.911 378.266Z" fill="black"/>
<defs>
<filter id="filter0_d_262_54" x="68.3252" y="45.7928" width="550.88" height="625.229" filterUnits="userSpaceOnUse" color-interpolation-filters="sRGB">
<feFlood flood-opacity="0" result="BackgroundImageFix"/>
<feColorMatrix in="SourceAlpha" type="matrix" values="0 0 0 0 0 0 0 0 0 0 0 0 0 0 0 0 0 0 127 0" result="hardAlpha"/>
<feOffset dy="4"/>
<feGaussianBlur stdDeviation="2"/>
<feComposite in2="hardAlpha" operator="out"/>
<feColorMatrix type="matrix" values="0 0 0 0 0 0 0 0 0 0 0 0 0 0 0 0 0 0 0.25 0"/>
<feBlend mode="normal" in2="BackgroundImageFix" result="effect1_dropShadow_262_54"/>
<feBlend mode="normal" in="SourceGraphic" in2="effect1_dropShadow_262_54" result="shape"/>
</filter>
</defs>
</svg>
