<svg width="822" height="859" viewBox="0 0 822 859" fill="none" xmlns="http://www.w3.org/2000/svg">
<rect x="0.5" y="0.5" width="821" height="858" rx="35.5" fill="#202637" stroke="#717171"/>
<path d="M152.95 160.27V251.645L151.149 252.546L148.899 252.996L147.999 256.147L147.098 259.297L145.748 261.548L141.697 259.297H138.996L135.395 264.249L133.144 266.499H129.994H127.743L125.942 270.1L116.94 272.351L112.439 276.852L106.137 281.804L104.337 287.655L102.986 290.806V295.307L97.5847 302.959C95.7842 304.01 92.1832 306.2 92.1832 306.56C92.1832 306.92 90.6828 316.313 89.9326 320.964L92.1832 326.816L94.4338 328.616H102.986C104.427 328.616 105.687 331.017 106.137 332.217L107.938 338.069C108.538 339.119 109.918 341.49 110.638 342.57C111.539 343.921 113.789 347.522 116.04 349.322C117.84 350.762 115.29 353.823 113.789 355.174L109.738 360.575L107.938 365.076L102.986 370.928L104.337 378.58V383.982V387.583L106.137 395.685L99.8354 402.887V405.137L102.986 409.639V415.49L104.337 422.242L102.986 428.544V435.296L101.636 441.597L99.8354 445.198C99.5353 446.699 99.1152 450.06 99.8354 451.5C100.736 453.301 104.787 456.001 106.137 457.802C107.487 459.602 110.638 462.753 111.989 462.753C113.069 462.753 116.94 466.054 118.741 467.704V469.955L120.541 471.756L124.592 474.006L130.894 477.607L135.395 476.257C137.196 476.557 141.067 477.247 142.147 477.607C143.227 477.967 148.599 479.258 151.149 479.858C152.2 482.559 154.48 488.14 155.201 488.86C155.921 489.58 157.601 491.861 158.351 492.911L169.604 496.962L175.456 498.313V501.464L181.308 504.164L182.208 501.464L185.809 503.264L192.561 513.617L197.512 526.22C198.712 528.921 201.293 534.593 202.013 535.673C202.914 537.023 211.466 542.425 212.366 542.875C213.086 543.235 216.867 546.926 218.668 548.727C221.669 551.127 227.94 555.929 229.021 555.929C230.101 555.929 237.273 558.029 240.724 559.079L243.425 562.23L248.826 568.982L255.578 571.233L262.33 574.384L264.13 578.435H262.33V581.586V589.688L267.281 598.24L265.931 622.997L267.281 637.401V647.304C268.782 649.104 272.053 652.795 273.133 653.155C274.213 653.515 278.984 657.806 281.235 659.907L282.585 663.508V670.71L278.084 678.812L273.133 688.715L271.782 700.868L274.933 711.221V718.423L278.084 723.824L281.235 731.927L283.936 743.18C287.537 746.181 294.919 752.272 295.639 752.632C296.359 752.993 303.741 753.383 307.342 753.533L315.444 755.333C317.695 756.533 322.376 759.024 323.096 759.384C323.997 759.834 323.997 762.985 323.997 763.435C323.997 763.795 324.597 766.586 324.897 767.937L328.498 772.438V774.688L328.948 778.289L626.479 780.54V774.688C626.479 773.788 625.579 765.236 626.479 763.435C627.38 761.635 626.029 758.484 626.479 756.233C626.84 754.433 627.23 751.882 627.38 750.832L630.08 747.681C629.93 746.631 629.72 744.44 630.08 744.08C630.441 743.72 631.431 741.229 631.881 740.029C630.831 738.679 628.46 735.708 627.38 734.627C626.299 733.547 624.529 729.376 623.779 727.426V722.924C623.779 722.024 622.878 719.323 622.428 717.523C622.068 716.082 623.179 714.222 623.779 713.472L621.528 711.221C620.928 710.471 619.458 708.79 618.377 708.07C617.297 707.35 617.927 705.069 618.377 704.019V700.418C618.377 699.518 619.728 698.168 619.728 697.267V695.017C619.277 693.516 618.377 690.245 618.377 689.165V685.114V681.063C617.627 678.062 616.127 671.97 616.127 671.61C616.127 671.16 617.027 667.109 617.027 666.209C617.027 665.309 619.277 657.656 619.728 656.306C620.178 654.956 621.078 650.905 621.528 650.004C621.978 649.104 623.779 645.503 623.779 645.053C623.779 644.603 626.479 641.902 626.93 641.002C627.29 640.282 627.68 637.701 627.83 636.501L629.18 626.598L630.08 622.547C631.131 621.196 633.231 618.316 633.231 617.595C633.231 616.875 635.032 614.595 635.932 613.544C636.532 611.594 637.733 607.513 637.733 606.792V602.291C637.733 601.391 638.633 599.591 638.633 598.24C638.633 596.89 637.733 594.639 637.733 593.739C637.733 592.839 635.932 586.987 634.582 586.537C633.231 586.087 634.582 581.586 634.582 580.685C634.582 579.785 635.932 573.934 635.932 573.483C635.932 573.123 637.132 568.232 637.733 565.831L640.433 560.88C640.883 558.779 641.784 554.308 641.784 553.228C641.784 552.148 643.284 549.777 644.034 548.727L646.735 545.126L649.886 541.975C651.236 541.075 654.117 539.184 654.837 538.824C655.557 538.464 656.638 536.273 657.088 535.223L658.888 529.371L657.088 523.52L654.837 514.067L660.689 490.211C662.039 486.009 664.74 477.427 664.74 476.707C664.74 475.987 666.24 473.106 666.991 471.756L670.591 465.904L675.543 456.001C675.993 453.15 677.073 447.269 677.793 446.549C678.694 445.648 679.144 444.298 679.594 442.948C680.044 441.597 680.944 441.597 681.845 440.247C682.565 439.167 683.345 437.696 683.645 437.096L690.397 433.495V431.695L691.297 427.193L693.098 424.943C692.948 423.442 692.738 420.171 693.098 419.091C693.548 417.741 694.448 415.04 695.348 414.14C696.249 413.24 697.149 409.188 697.149 408.738C697.149 408.288 699.399 405.137 700.75 405.137C701.83 405.137 703.901 403.337 704.801 402.437L705.701 397.935C705.101 396.585 703.811 393.704 703.451 392.984C703 392.084 706.151 392.534 707.502 392.534C708.852 392.534 707.502 388.483 707.952 386.682C708.312 385.242 707.802 382.481 707.502 381.281C708.852 381.281 711.733 381.371 712.453 381.731C713.353 382.181 713.803 378.58 714.253 377.23C714.614 376.149 713.503 371.678 712.903 369.578H704.801L703.901 374.979L700.75 376.329L699.399 381.281L698.049 384.882L695.348 387.132L692.648 389.833L687.246 388.483L684.995 394.784L680.944 405.137L668.791 427.193L671.042 429.894C671.192 431.695 671.402 435.386 671.042 435.746C670.682 436.106 672.692 437.996 673.742 438.897L676.893 442.047H675.543C673.892 440.847 670.591 438.356 670.591 437.996C670.591 437.636 668.191 434.845 666.991 433.495L666.09 430.344L663.39 432.595C661.889 433.495 658.528 435.476 657.088 436.196C655.647 436.916 653.787 435.896 653.037 435.296L648.535 437.096L635.932 454.201V457.802C635.632 458.852 635.032 461.043 635.032 461.403C635.032 461.763 633.231 464.554 632.331 465.904L630.08 468.155C628.88 468.305 626.299 468.515 625.579 468.155C624.859 467.794 622.278 469.205 621.078 469.955L618.827 474.006C617.927 475.507 616.127 478.597 616.127 478.958C616.127 479.318 614.026 481.508 612.976 482.559C612.376 482.859 610.545 483.549 608.024 483.909C605.504 484.269 606.074 483.159 606.674 482.559L603.973 480.308L602.173 477.607C602.923 477.007 604.603 475.717 605.324 475.357C606.044 474.996 605.624 471.605 605.324 469.955C605.774 468.605 606.764 465.724 607.124 465.004C607.574 464.103 608.024 456.451 608.024 456.001C608.024 455.641 610.125 453.15 611.175 451.95L613.876 448.349L616.127 441.597L621.078 436.196L623.779 431.695L624.679 428.544C624.679 427.643 624.499 425.663 623.779 424.943C623.059 424.223 624.079 423.142 624.679 422.692C625.429 422.092 627.11 420.982 627.83 421.342C628.55 421.702 632.931 419.691 635.032 418.641L645.835 417.291V410.089L646.285 406.488L647.635 405.137L648.986 401.086C648.385 400.636 647.095 399.646 646.735 399.286C646.285 398.836 643.134 397.935 642.234 397.935C641.514 397.935 641.033 395.235 640.883 393.884L635.032 388.483L633.681 384.882L635.032 380.381C636.082 378.43 638.183 374.439 638.183 374.079C638.183 373.719 639.983 370.028 640.883 368.227L644.034 363.276L643.134 359.225L639.083 355.624L635.032 359.225L631.431 361.925H627.83H622.428L618.827 360.575L621.078 356.974L621.978 354.724V352.023L621.078 349.772C621.528 349.322 622.428 348.242 622.428 347.522C622.428 346.801 624.229 345.421 625.129 344.821L627.83 342.12V337.619C627.83 335.968 627.56 332.577 626.479 332.217C625.399 331.857 624.829 329.967 624.679 329.066L627.83 329.517L629.63 326.816V321.414L626.479 317.813L625.129 315.563L629.63 312.412L628.73 310.161L621.978 304.31L619.277 300.259H615.677L611.175 301.159L609.375 298.908L608.475 295.307L605.774 294.407L599.472 297.108L598.122 295.307L593.62 293.057C593.02 292.456 591.82 291.076 591.82 290.356C591.82 289.456 595.421 285.855 596.321 285.405C597.041 285.044 598.722 283.454 599.472 282.704L597.221 280.903L596.321 275.952C595.271 275.202 592.9 273.611 591.82 273.251C590.74 272.891 584.168 270.1 581.017 268.75C579.217 269.35 575.255 270.46 573.815 270.1C572.015 269.65 566.613 265.599 566.163 264.699C565.803 263.979 564.212 265.899 563.462 266.95L556.71 262.898L554.91 263.799L551.309 259.748L548.158 260.648L543.657 261.548L541.406 265.599H536.905L536.005 263.799L533.754 261.548L529.253 259.748L522.051 258.397L519.35 259.748L480.64 239.042L384.313 212.485L382.063 208.433C381.162 206.633 379.362 202.942 379.362 202.582C379.362 202.132 376.661 194.93 376.211 194.03C375.761 193.129 373.96 189.978 373.96 189.528C373.96 189.078 371.71 186.828 371.26 186.828C370.81 186.828 367.209 185.927 366.758 185.477C366.398 185.117 363.908 184.727 362.707 184.577C362.407 183.527 361.717 181.246 361.357 180.526C360.997 179.806 359.406 179.926 358.656 180.076L354.155 181.426C352.504 179.776 348.844 176.385 347.403 176.025C345.963 175.665 340.201 173.174 337.5 171.974L324.447 163.871L320.846 160.72L318.595 157.119L312.744 151.718L310.943 152.168L315.444 157.119L318.595 159.37L319.495 160.72L318.595 162.521L312.294 165.672L307.792 168.823L302.391 171.974L298.79 173.324H295.189L296.989 168.373L297.89 164.321L301.941 160.72L305.092 157.119L302.391 148.567L307.342 143.166L311.843 137.764V133.263L314.094 129.662L314.994 125.161L311.843 121.11L305.542 116.608H303.291L297.89 120.209L294.289 118.859L291.588 119.759L286.636 124.711L279.885 130.562L274.033 133.263L271.332 131.913L270.432 127.861L263.68 133.263L251.077 141.815L247.476 143.166L235.773 147.217H229.021L205.164 157.57H196.162L189.41 159.37L183.108 158.47L179.507 155.769L173.656 149.467H171.855L169.154 154.419L162.853 163.871H157.451L152.95 160.27Z" fill="#97DCFF" stroke="white"/>
<path d="M317.695 140.015L311.393 144.516L312.293 149.017C312.743 147.517 314.004 144.516 315.444 144.516C317.245 144.516 319.495 142.265 324.447 142.265C326.247 142.265 325.197 140.765 324.447 140.015L323.546 137.764C326.247 137.164 331.649 135.694 331.649 134.613C331.649 133.533 333.449 132.363 334.349 131.913L331.649 129.662L323.546 134.613L317.695 140.015Z" fill="#97DCFF" fill-opacity="0.91"/>
<path d="M326.697 118.859V121.56V123.36H328.948C329.848 123.36 332.009 123.18 333.449 122.46C334.889 121.74 336.15 122.76 336.6 123.36H338.851V118.859C339.301 117.959 340.471 116.158 341.551 116.158C342.632 116.158 340.201 114.958 338.851 114.358L334.349 116.158L326.697 118.859Z" fill="#97DCFF" fill-opacity="0.91"/>
<path d="M346.053 108.056L347.853 99.9538L350.554 97.7032L352.804 99.9538V108.056H347.853H346.053Z" fill="#97DCFF" fill-opacity="0.91"/>
<path d="M319.945 118.859C318.145 118.859 317.695 117.959 317.695 117.509H315.444L314.544 119.309L317.695 123.36L323.546 121.56C323.096 120.659 321.746 118.859 319.945 118.859Z" fill="#97DCFF" fill-opacity="0.91"/>
<path d="M716.504 359.675L718.304 352.473H721.455H724.606C725.656 352.923 728.117 354.183 729.557 355.624C730.998 357.064 728.957 358.925 727.757 359.675L724.606 365.076L716.504 359.675Z" fill="#97DCFF" fill-opacity="0.91"/>
<path d="M317.695 140.015L311.393 144.516L312.293 149.017C312.743 147.517 314.004 144.516 315.444 144.516C317.245 144.516 319.495 142.265 324.447 142.265C326.247 142.265 325.197 140.765 324.447 140.015L323.546 137.764C326.247 137.164 331.649 135.694 331.649 134.613C331.649 133.533 333.449 132.363 334.349 131.913L331.649 129.662L323.546 134.613L317.695 140.015Z" stroke="white"/>
<path d="M326.697 118.859V121.56V123.36H328.948C329.848 123.36 332.009 123.18 333.449 122.46C334.889 121.74 336.15 122.76 336.6 123.36H338.851V118.859C339.301 117.959 340.471 116.158 341.551 116.158C342.632 116.158 340.201 114.958 338.851 114.358L334.349 116.158L326.697 118.859Z" stroke="white"/>
<path d="M346.053 108.056L347.853 99.9538L350.554 97.7032L352.804 99.9538V108.056H347.853H346.053Z" stroke="white"/>
<path d="M319.945 118.859C318.145 118.859 317.695 117.959 317.695 117.509H315.444L314.544 119.309L317.695 123.36L323.546 121.56C323.096 120.659 321.746 118.859 319.945 118.859Z" stroke="white"/>
<path d="M716.504 359.675L718.304 352.473H721.455H724.606C725.656 352.923 728.117 354.183 729.557 355.624C730.998 357.064 728.957 358.925 727.757 359.675L724.606 365.076L716.504 359.675Z" stroke="white"/>
<path d="M444.947 531H442.639L449.315 512.818H451.588L458.264 531H455.956L450.523 515.695H450.381L444.947 531ZM445.8 523.898H455.104V525.851H445.8V523.898ZM460.812 536.114V517.364H462.836V519.53H463.085C463.239 519.293 463.452 518.991 463.724 518.624C464.002 518.251 464.399 517.92 464.914 517.63C465.435 517.334 466.139 517.186 467.027 517.186C468.175 517.186 469.187 517.473 470.063 518.047C470.939 518.621 471.622 519.435 472.114 520.489C472.605 521.542 472.85 522.785 472.85 524.217C472.85 525.661 472.605 526.913 472.114 527.973C471.622 529.026 470.942 529.843 470.072 530.423C469.202 530.997 468.199 531.284 467.062 531.284C466.186 531.284 465.485 531.139 464.958 530.849C464.431 530.553 464.026 530.219 463.742 529.846C463.458 529.467 463.239 529.153 463.085 528.905H462.907V536.114H460.812ZM462.872 524.182C462.872 525.212 463.023 526.12 463.325 526.907C463.626 527.689 464.067 528.301 464.647 528.745C465.227 529.183 465.938 529.402 466.778 529.402C467.654 529.402 468.385 529.171 468.971 528.71C469.563 528.242 470.007 527.615 470.303 526.827C470.604 526.034 470.755 525.152 470.755 524.182C470.755 523.223 470.607 522.359 470.311 521.589C470.021 520.814 469.58 520.202 468.989 519.752C468.403 519.296 467.666 519.068 466.778 519.068C465.926 519.068 465.21 519.284 464.63 519.716C464.05 520.142 463.612 520.74 463.316 521.51C463.02 522.273 462.872 523.164 462.872 524.182ZM476.047 536.114V517.364H478.071V519.53H478.319C478.473 519.293 478.686 518.991 478.958 518.624C479.237 518.251 479.633 517.92 480.148 517.63C480.669 517.334 481.373 517.186 482.261 517.186C483.409 517.186 484.421 517.473 485.297 518.047C486.173 518.621 486.857 519.435 487.348 520.489C487.839 521.542 488.085 522.785 488.085 524.217C488.085 525.661 487.839 526.913 487.348 527.973C486.857 529.026 486.176 529.843 485.306 530.423C484.436 530.997 483.433 531.284 482.297 531.284C481.421 531.284 480.719 531.139 480.192 530.849C479.666 530.553 479.26 530.219 478.976 529.846C478.692 529.467 478.473 529.153 478.319 528.905H478.142V536.114H476.047ZM478.106 524.182C478.106 525.212 478.257 526.12 478.559 526.907C478.861 527.689 479.302 528.301 479.882 528.745C480.462 529.183 481.172 529.402 482.012 529.402C482.888 529.402 483.619 529.171 484.205 528.71C484.797 528.242 485.241 527.615 485.537 526.827C485.839 526.034 485.99 525.152 485.99 524.182C485.99 523.223 485.842 522.359 485.546 521.589C485.256 520.814 484.815 520.202 484.223 519.752C483.637 519.296 482.9 519.068 482.012 519.068C481.16 519.068 480.444 519.284 479.864 519.716C479.284 520.142 478.846 520.74 478.55 521.51C478.254 522.273 478.106 523.164 478.106 524.182ZM493.376 512.818V531H491.281V512.818H493.376ZM502.931 531.284C501.617 531.284 500.484 530.994 499.531 530.414C498.584 529.828 497.853 529.011 497.338 527.964C496.829 526.91 496.574 525.685 496.574 524.288C496.574 522.892 496.829 521.661 497.338 520.595C497.853 519.524 498.569 518.689 499.486 518.092C500.41 517.488 501.487 517.186 502.718 517.186C503.428 517.186 504.129 517.304 504.822 517.541C505.514 517.778 506.145 518.163 506.713 518.695C507.281 519.222 507.734 519.92 508.071 520.79C508.408 521.661 508.577 522.732 508.577 524.004V524.892H498.066V523.081H506.446C506.446 522.312 506.293 521.625 505.985 521.021C505.683 520.418 505.251 519.941 504.689 519.592C504.132 519.243 503.475 519.068 502.718 519.068C501.883 519.068 501.161 519.275 500.552 519.69C499.948 520.098 499.483 520.631 499.158 521.288C498.832 521.945 498.669 522.649 498.669 523.401V524.608C498.669 525.638 498.847 526.511 499.202 527.227C499.563 527.937 500.063 528.479 500.703 528.852C501.342 529.219 502.084 529.402 502.931 529.402C503.481 529.402 503.978 529.325 504.422 529.171C504.872 529.011 505.26 528.775 505.585 528.461C505.911 528.141 506.162 527.745 506.34 527.271L508.364 527.839C508.151 528.526 507.793 529.13 507.29 529.651C506.787 530.165 506.165 530.568 505.426 530.858C504.686 531.142 503.854 531.284 502.931 531.284ZM517.695 517.364V519.139H510.628V517.364H517.695ZM512.688 514.097H514.783V527.094C514.783 527.686 514.869 528.129 515.04 528.425C515.218 528.715 515.443 528.911 515.715 529.011C515.993 529.106 516.286 529.153 516.594 529.153C516.825 529.153 517.014 529.142 517.162 529.118C517.31 529.088 517.428 529.065 517.517 529.047L517.943 530.929C517.801 530.982 517.603 531.036 517.348 531.089C517.094 531.148 516.771 531.178 516.381 531.178C515.789 531.178 515.209 531.05 514.641 530.796C514.078 530.541 513.611 530.154 513.238 529.633C512.871 529.112 512.688 528.455 512.688 527.662V514.097ZM526.24 531.284C525.009 531.284 523.928 530.991 522.999 530.405C522.076 529.819 521.354 529 520.833 527.946C520.318 526.893 520.061 525.661 520.061 524.253C520.061 522.832 520.318 521.592 520.833 520.533C521.354 519.474 522.076 518.651 522.999 518.065C523.928 517.479 525.009 517.186 526.24 517.186C527.471 517.186 528.548 517.479 529.471 518.065C530.4 518.651 531.122 519.474 531.637 520.533C532.158 521.592 532.419 522.832 532.419 524.253C532.419 525.661 532.158 526.893 531.637 527.946C531.122 529 530.4 529.819 529.471 530.405C528.548 530.991 527.471 531.284 526.24 531.284ZM526.24 529.402C527.175 529.402 527.944 529.162 528.548 528.683C529.152 528.203 529.598 527.573 529.888 526.792C530.178 526.011 530.323 525.164 530.323 524.253C530.323 523.341 530.178 522.492 529.888 521.705C529.598 520.918 529.152 520.281 528.548 519.796C527.944 519.311 527.175 519.068 526.24 519.068C525.304 519.068 524.535 519.311 523.931 519.796C523.328 520.281 522.881 520.918 522.591 521.705C522.301 522.492 522.156 523.341 522.156 524.253C522.156 525.164 522.301 526.011 522.591 526.792C522.881 527.573 523.328 528.203 523.931 528.683C524.535 529.162 525.304 529.402 526.24 529.402ZM537.712 522.797V531H535.617V517.364H537.641V519.494H537.819C538.138 518.802 538.623 518.246 539.275 517.825C539.926 517.399 540.766 517.186 541.796 517.186C542.719 517.186 543.527 517.375 544.219 517.754C544.912 518.127 545.451 518.695 545.835 519.459C546.22 520.216 546.412 521.175 546.412 522.335V531H544.317V522.477C544.317 521.406 544.039 520.571 543.483 519.974C542.926 519.37 542.163 519.068 541.192 519.068C540.523 519.068 539.926 519.213 539.399 519.503C538.878 519.793 538.467 520.216 538.165 520.773C537.863 521.329 537.712 522.004 537.712 522.797Z" fill="black"/>
<circle cx="604.511" cy="485.511" r="9.01136" fill="#FFE587" stroke="black"/>
<circle cx="432.511" cy="420.511" r="9.01136" fill="#FFE587" stroke="black"/>
<circle cx="236.511" cy="441.511" r="9.01136" fill="#FFE587" stroke="black"/>
<path d="M94.7622 176.312L88.4604 180.813L89.3607 185.314C89.8108 183.814 91.0712 180.813 92.5116 180.813C94.312 180.813 96.5627 178.562 101.514 178.562C103.315 178.562 102.264 177.062 101.514 176.312L100.614 174.061C103.315 173.461 108.716 171.99 108.716 170.91C108.716 169.83 110.516 168.659 111.417 168.209L108.716 165.959L100.614 170.91L94.7622 176.312Z" fill="#97DCFF" fill-opacity="0.3"/>
<path d="M103.765 155.156V157.857V159.657H106.015C106.915 159.657 109.076 159.477 110.516 158.757C111.957 158.037 113.217 159.057 113.667 159.657H115.918V155.156C116.368 154.256 117.538 152.455 118.619 152.455C119.699 152.455 117.268 151.255 115.918 150.655L111.417 152.455L103.765 155.156Z" fill="#97DCFF" fill-opacity="0.3"/>
<path d="M123.12 144.353L124.92 136.251L127.621 134L129.872 136.251V144.353H124.92H123.12Z" fill="#97DCFF" fill-opacity="0.3"/>
<path d="M97.0128 155.156C95.2123 155.156 94.7622 154.256 94.7622 153.805H92.5116L91.6113 155.606L94.7622 159.657L100.614 157.857C100.164 156.956 98.8133 155.156 97.0128 155.156Z" fill="#97DCFF" fill-opacity="0.3"/>
<path d="M493.571 395.972L495.372 388.77H498.523H501.673C502.724 389.22 505.184 390.48 506.625 391.921C508.065 393.361 506.025 395.221 504.824 395.972L501.673 401.373L493.571 395.972Z" fill="#97DCFF" fill-opacity="0.3"/>
<path d="M94.7622 176.312L88.4604 180.813L89.3607 185.314C89.8108 183.814 91.0712 180.813 92.5116 180.813C94.312 180.813 96.5627 178.562 101.514 178.562C103.315 178.562 102.264 177.062 101.514 176.312L100.614 174.061C103.315 173.461 108.716 171.99 108.716 170.91C108.716 169.83 110.516 168.659 111.417 168.209L108.716 165.959L100.614 170.91L94.7622 176.312Z" stroke="white"/>
<path d="M103.765 155.156V157.857V159.657H106.015C106.915 159.657 109.076 159.477 110.516 158.757C111.957 158.037 113.217 159.057 113.667 159.657H115.918V155.156C116.368 154.256 117.538 152.455 118.619 152.455C119.699 152.455 117.268 151.255 115.918 150.655L111.417 152.455L103.765 155.156Z" stroke="white"/>
<path d="M123.12 144.353L124.92 136.251L127.621 134L129.872 136.251V144.353H124.92H123.12Z" stroke="white"/>
<path d="M97.0128 155.156C95.2123 155.156 94.7622 154.256 94.7622 153.805H92.5116L91.6113 155.606L94.7622 159.657L100.614 157.857C100.164 156.956 98.8133 155.156 97.0128 155.156Z" stroke="white"/>
<path d="M493.571 395.972L495.372 388.77H498.523H501.673C502.724 389.22 505.184 390.48 506.625 391.921C508.065 393.361 506.025 395.221 504.824 395.972L501.673 401.373L493.571 395.972Z" stroke="white"/>
<path d="M483.631 478.5C483.435 477.902 483.178 477.367 482.858 476.893C482.545 476.414 482.169 476.005 481.731 475.668C481.299 475.331 480.808 475.073 480.257 474.896C479.707 474.718 479.103 474.629 478.446 474.629C477.369 474.629 476.389 474.907 475.507 475.464C474.626 476.02 473.924 476.84 473.403 477.923C472.883 479.006 472.622 480.335 472.622 481.909C472.622 483.483 472.886 484.812 473.412 485.895C473.939 486.978 474.652 487.798 475.552 488.354C476.451 488.911 477.464 489.189 478.588 489.189C479.63 489.189 480.547 488.967 481.34 488.523C482.139 488.073 482.761 487.44 483.205 486.623C483.654 485.801 483.879 484.833 483.879 483.72L484.554 483.862H479.085V481.909H486.01V483.862C486.01 485.36 485.69 486.662 485.051 487.768C484.418 488.875 483.542 489.733 482.423 490.343C481.311 490.947 480.032 491.249 478.588 491.249C476.978 491.249 475.564 490.87 474.344 490.112C473.131 489.355 472.184 488.277 471.504 486.881C470.829 485.484 470.491 483.827 470.491 481.909C470.491 480.471 470.684 479.178 471.069 478.029C471.459 476.875 472.01 475.893 472.72 475.082C473.43 474.271 474.27 473.65 475.241 473.218C476.212 472.786 477.28 472.57 478.446 472.57C479.405 472.57 480.299 472.715 481.127 473.005C481.962 473.289 482.704 473.694 483.355 474.221C484.012 474.742 484.56 475.366 484.998 476.094C485.436 476.816 485.738 477.618 485.903 478.5H483.631ZM489.497 491V477.364H491.521V479.423H491.663C491.911 478.749 492.361 478.201 493.012 477.781C493.663 477.361 494.397 477.151 495.214 477.151C495.368 477.151 495.56 477.154 495.791 477.159C496.022 477.165 496.197 477.174 496.315 477.186V479.317C496.244 479.299 496.081 479.272 495.827 479.237C495.578 479.195 495.315 479.175 495.036 479.175C494.374 479.175 493.782 479.314 493.261 479.592C492.746 479.864 492.338 480.243 492.036 480.728C491.74 481.208 491.592 481.755 491.592 482.371V491H489.497ZM504.101 491.284C502.787 491.284 501.653 490.994 500.701 490.414C499.754 489.828 499.023 489.011 498.508 487.964C497.999 486.91 497.744 485.685 497.744 484.288C497.744 482.892 497.999 481.661 498.508 480.595C499.023 479.524 499.739 478.689 500.656 478.092C501.579 477.488 502.657 477.186 503.888 477.186C504.598 477.186 505.299 477.304 505.992 477.541C506.684 477.778 507.315 478.163 507.883 478.695C508.451 479.222 508.904 479.92 509.241 480.79C509.578 481.661 509.747 482.732 509.747 484.004V484.892H499.236V483.081H507.616C507.616 482.312 507.463 481.625 507.155 481.021C506.853 480.418 506.421 479.941 505.859 479.592C505.302 479.243 504.645 479.068 503.888 479.068C503.053 479.068 502.331 479.275 501.722 479.69C501.118 480.098 500.653 480.631 500.328 481.288C500.002 481.945 499.839 482.649 499.839 483.401V484.608C499.839 485.638 500.017 486.511 500.372 487.227C500.733 487.937 501.233 488.479 501.872 488.852C502.512 489.219 503.254 489.402 504.101 489.402C504.651 489.402 505.148 489.325 505.592 489.171C506.042 489.011 506.43 488.775 506.755 488.461C507.081 488.141 507.332 487.745 507.51 487.271L509.534 487.839C509.321 488.526 508.963 489.13 508.46 489.651C507.957 490.165 507.335 490.568 506.595 490.858C505.856 491.142 505.024 491.284 504.101 491.284ZM518.652 491.284C517.338 491.284 516.204 490.994 515.251 490.414C514.304 489.828 513.573 489.011 513.059 487.964C512.55 486.91 512.295 485.685 512.295 484.288C512.295 482.892 512.55 481.661 513.059 480.595C513.573 479.524 514.29 478.689 515.207 478.092C516.13 477.488 517.207 477.186 518.438 477.186C519.149 477.186 519.85 477.304 520.543 477.541C521.235 477.778 521.865 478.163 522.434 478.695C523.002 479.222 523.454 479.92 523.792 480.79C524.129 481.661 524.298 482.732 524.298 484.004V484.892H513.786V483.081H522.167C522.167 482.312 522.013 481.625 521.706 481.021C521.404 480.418 520.972 479.941 520.409 479.592C519.853 479.243 519.196 479.068 518.438 479.068C517.604 479.068 516.882 479.275 516.272 479.69C515.669 480.098 515.204 480.631 514.878 481.288C514.553 481.945 514.39 482.649 514.39 483.401V484.608C514.39 485.638 514.568 486.511 514.923 487.227C515.284 487.937 515.784 488.479 516.423 488.852C517.062 489.219 517.805 489.402 518.652 489.402C519.202 489.402 519.699 489.325 520.143 489.171C520.593 489.011 520.98 488.775 521.306 488.461C521.632 488.141 521.883 487.745 522.061 487.271L524.085 487.839C523.872 488.526 523.514 489.13 523.011 489.651C522.507 490.165 521.886 490.568 521.146 490.858C520.406 491.142 519.575 491.284 518.652 491.284ZM529.58 482.797V491H527.485V477.364H529.509V479.494H529.687C530.006 478.802 530.492 478.246 531.143 477.825C531.794 477.399 532.634 477.186 533.664 477.186C534.587 477.186 535.395 477.375 536.088 477.754C536.78 478.127 537.319 478.695 537.703 479.459C538.088 480.216 538.28 481.175 538.28 482.335V491H536.185V482.477C536.185 481.406 535.907 480.571 535.351 479.974C534.794 479.37 534.031 479.068 533.06 479.068C532.391 479.068 531.794 479.213 531.267 479.503C530.746 479.793 530.335 480.216 530.033 480.773C529.731 481.329 529.58 482.004 529.58 482.797ZM549.424 491V472.818H555.781C557.047 472.818 558.092 473.037 558.915 473.475C559.737 473.907 560.35 474.49 560.752 475.224C561.155 475.952 561.356 476.76 561.356 477.648C561.356 478.429 561.217 479.074 560.939 479.583C560.667 480.092 560.306 480.495 559.856 480.79C559.412 481.086 558.93 481.305 558.409 481.447V481.625C558.965 481.661 559.524 481.856 560.087 482.211C560.649 482.566 561.119 483.075 561.498 483.738C561.877 484.401 562.066 485.212 562.066 486.17C562.066 487.082 561.859 487.902 561.445 488.63C561.031 489.358 560.377 489.935 559.483 490.361C558.589 490.787 557.426 491 555.994 491H549.424ZM551.626 489.047H555.994C557.432 489.047 558.453 488.769 559.057 488.212C559.666 487.65 559.971 486.969 559.971 486.17C559.971 485.555 559.814 484.987 559.501 484.466C559.187 483.939 558.74 483.519 558.16 483.205C557.58 482.886 556.894 482.726 556.1 482.726H551.626V489.047ZM551.626 480.808H555.71C556.373 480.808 556.971 480.678 557.503 480.418C558.042 480.157 558.468 479.79 558.782 479.317C559.101 478.843 559.261 478.287 559.261 477.648C559.261 476.849 558.983 476.171 558.426 475.615C557.87 475.052 556.988 474.771 555.781 474.771H551.626V480.808ZM569.413 491.32C568.549 491.32 567.765 491.157 567.06 490.831C566.356 490.5 565.797 490.023 565.382 489.402C564.968 488.775 564.761 488.017 564.761 487.129C564.761 486.348 564.915 485.715 565.222 485.229C565.53 484.738 565.942 484.353 566.456 484.075C566.971 483.797 567.54 483.59 568.161 483.454C568.788 483.312 569.419 483.199 570.052 483.116C570.881 483.01 571.552 482.93 572.067 482.877C572.588 482.818 572.967 482.72 573.204 482.584C573.446 482.448 573.568 482.211 573.568 481.874V481.803C573.568 480.927 573.328 480.246 572.849 479.761C572.375 479.275 571.656 479.033 570.691 479.033C569.691 479.033 568.907 479.252 568.339 479.69C567.77 480.128 567.371 480.595 567.14 481.092L565.151 480.382C565.507 479.554 565.98 478.908 566.572 478.447C567.17 477.979 567.821 477.654 568.525 477.47C569.235 477.281 569.934 477.186 570.62 477.186C571.058 477.186 571.561 477.239 572.129 477.346C572.704 477.446 573.257 477.657 573.79 477.976C574.328 478.296 574.775 478.778 575.13 479.423C575.485 480.068 575.663 480.933 575.663 482.016V491H573.568V489.153H573.461C573.319 489.449 573.082 489.766 572.751 490.103C572.419 490.441 571.979 490.728 571.428 490.964C570.878 491.201 570.206 491.32 569.413 491.32ZM569.732 489.438C570.561 489.438 571.259 489.275 571.828 488.949C572.402 488.624 572.834 488.203 573.124 487.689C573.42 487.174 573.568 486.632 573.568 486.064V484.146C573.479 484.253 573.284 484.35 572.982 484.439C572.686 484.522 572.343 484.596 571.952 484.661C571.567 484.72 571.191 484.774 570.824 484.821C570.463 484.862 570.17 484.898 569.945 484.928C569.401 484.999 568.892 485.114 568.419 485.274C567.951 485.428 567.572 485.661 567.282 485.975C566.998 486.283 566.856 486.703 566.856 487.236C566.856 487.964 567.125 488.514 567.664 488.887C568.208 489.254 568.898 489.438 569.732 489.438ZM580.348 496.114C579.993 496.114 579.676 496.084 579.398 496.025C579.12 495.972 578.928 495.918 578.821 495.865L579.354 494.018C579.863 494.149 580.313 494.196 580.703 494.161C581.094 494.125 581.44 493.95 581.742 493.637C582.05 493.329 582.331 492.829 582.585 492.136L582.976 491.071L577.933 477.364H580.206L583.97 488.23H584.112L587.877 477.364H590.149L584.361 492.989C584.1 493.693 583.778 494.276 583.393 494.738C583.008 495.205 582.562 495.551 582.053 495.776C581.55 496.001 580.981 496.114 580.348 496.114Z" fill="black"/>
<path d="M391.504 403L386.533 384.818H388.77L392.57 399.626H392.747L396.618 384.818H399.104L402.974 399.626H403.152L406.952 384.818H409.189L404.217 403H401.945L397.932 388.511H397.79L393.777 403H391.504ZM414.391 403.32C413.527 403.32 412.743 403.157 412.039 402.831C411.334 402.5 410.775 402.023 410.361 401.402C409.946 400.775 409.739 400.017 409.739 399.129C409.739 398.348 409.893 397.715 410.201 397.229C410.509 396.738 410.92 396.353 411.435 396.075C411.95 395.797 412.518 395.59 413.14 395.454C413.767 395.312 414.397 395.199 415.031 395.116C415.859 395.01 416.531 394.93 417.046 394.877C417.567 394.818 417.945 394.72 418.182 394.584C418.425 394.448 418.546 394.211 418.546 393.874V393.803C418.546 392.927 418.306 392.246 417.827 391.761C417.354 391.275 416.634 391.033 415.67 391.033C414.67 391.033 413.885 391.252 413.317 391.69C412.749 392.128 412.349 392.595 412.119 393.092L410.13 392.382C410.485 391.554 410.959 390.908 411.55 390.447C412.148 389.979 412.799 389.654 413.504 389.47C414.214 389.281 414.912 389.186 415.599 389.186C416.037 389.186 416.54 389.239 417.108 389.346C417.682 389.446 418.235 389.657 418.768 389.976C419.307 390.296 419.754 390.778 420.109 391.423C420.464 392.068 420.641 392.933 420.641 394.016V403H418.546V401.153H418.44C418.298 401.449 418.061 401.766 417.729 402.103C417.398 402.441 416.957 402.728 416.407 402.964C415.856 403.201 415.184 403.32 414.391 403.32ZM414.711 401.438C415.54 401.438 416.238 401.275 416.806 400.949C417.38 400.624 417.812 400.203 418.102 399.689C418.398 399.174 418.546 398.632 418.546 398.064V396.146C418.457 396.253 418.262 396.35 417.96 396.439C417.664 396.522 417.321 396.596 416.93 396.661C416.546 396.72 416.17 396.774 415.803 396.821C415.442 396.862 415.149 396.898 414.924 396.928C414.379 396.999 413.871 397.114 413.397 397.274C412.929 397.428 412.551 397.661 412.261 397.975C411.977 398.283 411.835 398.703 411.835 399.236C411.835 399.964 412.104 400.514 412.642 400.887C413.187 401.254 413.876 401.438 414.711 401.438ZM433.059 397.425V389.364H435.154V403H433.059V400.692H432.917C432.598 401.384 432.1 401.973 431.426 402.458C430.751 402.938 429.899 403.178 428.869 403.178C428.017 403.178 427.259 402.991 426.596 402.618C425.933 402.239 425.412 401.671 425.034 400.914C424.655 400.15 424.465 399.188 424.465 398.028V389.364H426.561V397.886C426.561 398.881 426.839 399.674 427.395 400.266C427.957 400.857 428.674 401.153 429.544 401.153C430.064 401.153 430.594 401.02 431.133 400.754C431.677 400.488 432.133 400.079 432.5 399.529C432.873 398.978 433.059 398.277 433.059 397.425ZM448.651 392.418L446.769 392.95C446.65 392.637 446.476 392.332 446.245 392.036C446.02 391.734 445.712 391.485 445.322 391.29C444.931 391.095 444.431 390.997 443.821 390.997C442.987 390.997 442.291 391.19 441.735 391.574C441.185 391.953 440.909 392.435 440.909 393.021C440.909 393.542 441.099 393.953 441.478 394.255C441.856 394.557 442.448 394.809 443.253 395.01L445.277 395.507C446.497 395.803 447.405 396.256 448.003 396.865C448.601 397.469 448.9 398.247 448.9 399.2C448.9 399.982 448.675 400.68 448.225 401.295C447.781 401.911 447.159 402.396 446.36 402.751C445.561 403.107 444.632 403.284 443.573 403.284C442.182 403.284 441.031 402.982 440.119 402.379C439.208 401.775 438.631 400.893 438.388 399.733L440.377 399.236C440.566 399.97 440.924 400.52 441.451 400.887C441.984 401.254 442.679 401.438 443.537 401.438C444.514 401.438 445.289 401.23 445.863 400.816C446.443 400.396 446.733 399.893 446.733 399.307C446.733 398.833 446.568 398.437 446.236 398.117C445.905 397.792 445.396 397.549 444.709 397.389L442.436 396.857C441.188 396.561 440.27 396.102 439.684 395.48C439.104 394.853 438.814 394.069 438.814 393.128C438.814 392.358 439.03 391.678 439.462 391.086C439.9 390.494 440.495 390.029 441.247 389.692C442.004 389.355 442.863 389.186 443.821 389.186C445.171 389.186 446.23 389.482 447 390.074C447.775 390.666 448.325 391.447 448.651 392.418ZM456.066 403.32C455.202 403.32 454.418 403.157 453.714 402.831C453.009 402.5 452.45 402.023 452.036 401.402C451.621 400.775 451.414 400.017 451.414 399.129C451.414 398.348 451.568 397.715 451.876 397.229C452.184 396.738 452.595 396.353 453.11 396.075C453.625 395.797 454.193 395.59 454.814 395.454C455.442 395.312 456.072 395.199 456.705 395.116C457.534 395.01 458.206 394.93 458.721 394.877C459.241 394.818 459.62 394.72 459.857 394.584C460.1 394.448 460.221 394.211 460.221 393.874V393.803C460.221 392.927 459.981 392.246 459.502 391.761C459.028 391.275 458.309 391.033 457.345 391.033C456.344 391.033 455.56 391.252 454.992 391.69C454.424 392.128 454.024 392.595 453.793 393.092L451.805 392.382C452.16 391.554 452.633 390.908 453.225 390.447C453.823 389.979 454.474 389.654 455.178 389.47C455.889 389.281 456.587 389.186 457.274 389.186C457.711 389.186 458.215 389.239 458.783 389.346C459.357 389.446 459.91 389.657 460.443 389.976C460.982 390.296 461.428 390.778 461.783 391.423C462.139 392.068 462.316 392.933 462.316 394.016V403H460.221V401.153H460.114C459.972 401.449 459.736 401.766 459.404 402.103C459.073 402.441 458.632 402.728 458.081 402.964C457.531 403.201 456.859 403.32 456.066 403.32ZM456.386 401.438C457.214 401.438 457.913 401.275 458.481 400.949C459.055 400.624 459.487 400.203 459.777 399.689C460.073 399.174 460.221 398.632 460.221 398.064V396.146C460.132 396.253 459.937 396.35 459.635 396.439C459.339 396.522 458.996 396.596 458.605 396.661C458.22 396.72 457.845 396.774 457.478 396.821C457.117 396.862 456.824 396.898 456.599 396.928C456.054 396.999 455.545 397.114 455.072 397.274C454.604 397.428 454.225 397.661 453.935 397.975C453.651 398.283 453.509 398.703 453.509 399.236C453.509 399.964 453.779 400.514 454.317 400.887C454.862 401.254 455.551 401.438 456.386 401.438ZM474.734 397.425V389.364H476.829V403H474.734V400.692H474.592C474.272 401.384 473.775 401.973 473.1 402.458C472.426 402.938 471.574 403.178 470.544 403.178C469.691 403.178 468.934 402.991 468.271 402.618C467.608 402.239 467.087 401.671 466.708 400.914C466.33 400.15 466.14 399.188 466.14 398.028V389.364H468.235V397.886C468.235 398.881 468.514 399.674 469.07 400.266C469.632 400.857 470.348 401.153 471.218 401.153C471.739 401.153 472.269 401.02 472.808 400.754C473.352 400.488 473.808 400.079 474.175 399.529C474.548 398.978 474.734 398.277 474.734 397.425Z" fill="black"/>
<path d="M192.202 422V403.818H203.175V405.771H194.403V411.915H202.607V413.868H194.403V420.047H203.317V422H192.202ZM210.872 422.32C210.008 422.32 209.223 422.157 208.519 421.831C207.815 421.5 207.256 421.023 206.841 420.402C206.427 419.775 206.22 419.017 206.22 418.129C206.22 417.348 206.374 416.715 206.681 416.229C206.989 415.738 207.401 415.353 207.915 415.075C208.43 414.797 208.999 414.59 209.62 414.454C210.247 414.312 210.878 414.199 211.511 414.116C212.34 414.01 213.011 413.93 213.526 413.877C214.047 413.818 214.426 413.72 214.663 413.584C214.905 413.448 215.027 413.211 215.027 412.874V412.803C215.027 411.927 214.787 411.246 214.308 410.761C213.834 410.275 213.115 410.033 212.15 410.033C211.15 410.033 210.366 410.252 209.798 410.69C209.229 411.128 208.83 411.595 208.599 412.092L206.61 411.382C206.966 410.554 207.439 409.908 208.031 409.447C208.629 408.979 209.28 408.654 209.984 408.47C210.694 408.281 211.393 408.186 212.079 408.186C212.517 408.186 213.02 408.239 213.588 408.346C214.163 408.446 214.716 408.657 215.249 408.976C215.787 409.296 216.234 409.778 216.589 410.423C216.944 411.068 217.122 411.933 217.122 413.016V422H215.027V420.153H214.92C214.778 420.449 214.541 420.766 214.21 421.103C213.878 421.441 213.438 421.728 212.887 421.964C212.337 422.201 211.665 422.32 210.872 422.32ZM211.191 420.438C212.02 420.438 212.718 420.275 213.287 419.949C213.861 419.624 214.293 419.203 214.583 418.689C214.879 418.174 215.027 417.632 215.027 417.064V415.146C214.938 415.253 214.743 415.35 214.441 415.439C214.145 415.522 213.801 415.596 213.411 415.661C213.026 415.72 212.65 415.774 212.283 415.821C211.922 415.862 211.629 415.898 211.404 415.928C210.86 415.999 210.351 416.114 209.877 416.274C209.41 416.428 209.031 416.661 208.741 416.975C208.457 417.283 208.315 417.703 208.315 418.236C208.315 418.964 208.584 419.514 209.123 419.887C209.667 420.254 210.357 420.438 211.191 420.438ZM229.54 416.425V408.364H231.635V422H229.54V419.692H229.398C229.078 420.384 228.581 420.973 227.906 421.458C227.231 421.938 226.379 422.178 225.349 422.178C224.497 422.178 223.739 421.991 223.077 421.618C222.414 421.239 221.893 420.671 221.514 419.914C221.135 419.15 220.946 418.188 220.946 417.028V408.364H223.041V416.886C223.041 417.881 223.319 418.674 223.876 419.266C224.438 419.857 225.154 420.153 226.024 420.153C226.545 420.153 227.075 420.02 227.613 419.754C228.158 419.488 228.613 419.079 228.98 418.529C229.353 417.978 229.54 417.277 229.54 416.425ZM257.418 409.5H255.217C255.086 408.867 254.859 408.31 254.533 407.831C254.213 407.352 253.823 406.949 253.361 406.624C252.905 406.292 252.399 406.044 251.843 405.878C251.287 405.712 250.707 405.629 250.103 405.629C249.002 405.629 248.005 405.907 247.111 406.464C246.223 407.02 245.516 407.84 244.989 408.923C244.469 410.006 244.208 411.335 244.208 412.909C244.208 414.483 244.469 415.812 244.989 416.895C245.516 417.978 246.223 418.798 247.111 419.354C248.005 419.911 249.002 420.189 250.103 420.189C250.707 420.189 251.287 420.106 251.843 419.94C252.399 419.775 252.905 419.529 253.361 419.203C253.823 418.872 254.213 418.467 254.533 417.987C254.859 417.502 255.086 416.946 255.217 416.318H257.418C257.253 417.247 256.951 418.079 256.513 418.813C256.075 419.547 255.53 420.171 254.879 420.686C254.228 421.195 253.497 421.583 252.686 421.849C251.882 422.115 251.02 422.249 250.103 422.249C248.552 422.249 247.173 421.87 245.966 421.112C244.759 420.355 243.809 419.277 243.116 417.881C242.424 416.484 242.077 414.827 242.077 412.909C242.077 410.991 242.424 409.334 243.116 407.938C243.809 406.541 244.759 405.464 245.966 404.706C247.173 403.948 248.552 403.57 250.103 403.57C251.02 403.57 251.882 403.703 252.686 403.969C253.497 404.235 254.228 404.626 254.879 405.141C255.53 405.65 256.075 406.271 256.513 407.005C256.951 407.733 257.253 408.565 257.418 409.5ZM262.787 403.818V422H260.692V403.818H262.787ZM270.637 422.32C269.773 422.32 268.989 422.157 268.285 421.831C267.58 421.5 267.021 421.023 266.607 420.402C266.193 419.775 265.985 419.017 265.985 418.129C265.985 417.348 266.139 416.715 266.447 416.229C266.755 415.738 267.166 415.353 267.681 415.075C268.196 414.797 268.764 414.59 269.386 414.454C270.013 414.312 270.643 414.199 271.277 414.116C272.105 414.01 272.777 413.93 273.292 413.877C273.813 413.818 274.192 413.72 274.428 413.584C274.671 413.448 274.792 413.211 274.792 412.874V412.803C274.792 411.927 274.553 411.246 274.073 410.761C273.6 410.275 272.881 410.033 271.916 410.033C270.916 410.033 270.131 410.252 269.563 410.69C268.995 411.128 268.596 411.595 268.365 412.092L266.376 411.382C266.731 410.554 267.205 409.908 267.797 409.447C268.394 408.979 269.045 408.654 269.75 408.47C270.46 408.281 271.158 408.186 271.845 408.186C272.283 408.186 272.786 408.239 273.354 408.346C273.928 408.446 274.482 408.657 275.014 408.976C275.553 409.296 276 409.778 276.355 410.423C276.71 411.068 276.887 411.933 276.887 413.016V422H274.792V420.153H274.686C274.544 420.449 274.307 420.766 273.975 421.103C273.644 421.441 273.203 421.728 272.653 421.964C272.102 422.201 271.431 422.32 270.637 422.32ZM270.957 420.438C271.786 420.438 272.484 420.275 273.052 419.949C273.626 419.624 274.058 419.203 274.348 418.689C274.644 418.174 274.792 417.632 274.792 417.064V415.146C274.703 415.253 274.508 415.35 274.206 415.439C273.91 415.522 273.567 415.596 273.176 415.661C272.792 415.72 272.416 415.774 272.049 415.821C271.688 415.862 271.395 415.898 271.17 415.928C270.626 415.999 270.117 416.114 269.643 416.274C269.176 416.428 268.797 416.661 268.507 416.975C268.223 417.283 268.081 417.703 268.081 418.236C268.081 418.964 268.35 419.514 268.888 419.887C269.433 420.254 270.123 420.438 270.957 420.438ZM280.712 422V408.364H282.807V422H280.712ZM281.777 406.091C281.369 406.091 281.016 405.952 280.72 405.674C280.43 405.395 280.285 405.061 280.285 404.67C280.285 404.28 280.43 403.945 280.72 403.667C281.016 403.389 281.369 403.25 281.777 403.25C282.185 403.25 282.534 403.389 282.824 403.667C283.12 403.945 283.268 404.28 283.268 404.67C283.268 405.061 283.12 405.395 282.824 405.674C282.534 405.952 282.185 406.091 281.777 406.091ZM286.644 422V408.364H288.668V410.423H288.81C289.059 409.749 289.509 409.201 290.16 408.781C290.811 408.361 291.545 408.151 292.362 408.151C292.515 408.151 292.708 408.154 292.939 408.159C293.169 408.165 293.344 408.174 293.462 408.186V410.317C293.391 410.299 293.229 410.272 292.974 410.237C292.725 410.195 292.462 410.175 292.184 410.175C291.521 410.175 290.929 410.314 290.408 410.592C289.893 410.864 289.485 411.243 289.183 411.728C288.887 412.208 288.739 412.755 288.739 413.371V422H286.644ZM301.248 422.284C299.934 422.284 298.801 421.994 297.848 421.414C296.901 420.828 296.17 420.011 295.655 418.964C295.146 417.91 294.892 416.685 294.892 415.288C294.892 413.892 295.146 412.661 295.655 411.595C296.17 410.524 296.886 409.689 297.804 409.092C298.727 408.488 299.804 408.186 301.035 408.186C301.745 408.186 302.447 408.304 303.139 408.541C303.832 408.778 304.462 409.163 305.03 409.695C305.598 410.222 306.051 410.92 306.388 411.79C306.726 412.661 306.895 413.732 306.895 415.004V415.892H296.383V414.081H304.764C304.764 413.312 304.61 412.625 304.302 412.021C304 411.418 303.568 410.941 303.006 410.592C302.45 410.243 301.793 410.068 301.035 410.068C300.201 410.068 299.479 410.275 298.869 410.69C298.265 411.098 297.801 411.631 297.475 412.288C297.15 412.945 296.987 413.649 296.987 414.401V415.608C296.987 416.638 297.164 417.511 297.52 418.227C297.881 418.937 298.381 419.479 299.02 419.852C299.659 420.219 300.402 420.402 301.248 420.402C301.799 420.402 302.296 420.325 302.74 420.171C303.19 420.011 303.577 419.775 303.903 419.461C304.228 419.141 304.48 418.745 304.657 418.271L306.681 418.839C306.468 419.526 306.11 420.13 305.607 420.651C305.104 421.165 304.483 421.568 303.743 421.858C303.003 422.142 302.172 422.284 301.248 422.284Z" fill="black"/>
<path d="M493.543 575.909C493.543 577.827 493.196 579.484 492.504 580.881C491.811 582.277 490.862 583.355 489.654 584.112C488.447 584.87 487.068 585.249 485.517 585.249C483.966 585.249 482.587 584.87 481.38 584.112C480.173 583.355 479.223 582.277 478.53 580.881C477.838 579.484 477.491 577.827 477.491 575.909C477.491 573.991 477.838 572.334 478.53 570.938C479.223 569.541 480.173 568.464 481.38 567.706C482.587 566.948 483.966 566.57 485.517 566.57C487.068 566.57 488.447 566.948 489.654 567.706C490.862 568.464 491.811 569.541 492.504 570.938C493.196 572.334 493.543 573.991 493.543 575.909ZM491.412 575.909C491.412 574.335 491.149 573.006 490.622 571.923C490.101 570.84 489.394 570.02 488.5 569.464C487.612 568.907 486.618 568.629 485.517 568.629C484.416 568.629 483.419 568.907 482.525 569.464C481.637 570.02 480.93 570.84 480.403 571.923C479.883 573.006 479.622 574.335 479.622 575.909C479.622 577.483 479.883 578.812 480.403 579.895C480.93 580.978 481.637 581.798 482.525 582.354C483.419 582.911 484.416 583.189 485.517 583.189C486.618 583.189 487.612 582.911 488.5 582.354C489.394 581.798 490.101 580.978 490.622 579.895C491.149 578.812 491.412 577.483 491.412 575.909ZM506.62 574.418L504.738 574.95C504.619 574.637 504.445 574.332 504.214 574.036C503.989 573.734 503.681 573.485 503.29 573.29C502.9 573.095 502.4 572.997 501.79 572.997C500.956 572.997 500.26 573.19 499.704 573.574C499.153 573.953 498.878 574.435 498.878 575.021C498.878 575.542 499.068 575.953 499.446 576.255C499.825 576.557 500.417 576.809 501.222 577.01L503.246 577.507C504.465 577.803 505.374 578.256 505.972 578.865C506.569 579.469 506.868 580.247 506.868 581.2C506.868 581.982 506.643 582.68 506.194 583.295C505.75 583.911 505.128 584.396 504.329 584.751C503.53 585.107 502.601 585.284 501.542 585.284C500.151 585.284 499 584.982 498.088 584.379C497.177 583.775 496.6 582.893 496.357 581.733L498.346 581.236C498.535 581.97 498.893 582.52 499.42 582.887C499.952 583.254 500.648 583.438 501.506 583.438C502.483 583.438 503.258 583.23 503.832 582.816C504.412 582.396 504.702 581.893 504.702 581.307C504.702 580.833 504.536 580.437 504.205 580.117C503.873 579.792 503.364 579.549 502.678 579.389L500.405 578.857C499.156 578.561 498.239 578.102 497.653 577.48C497.073 576.853 496.783 576.069 496.783 575.128C496.783 574.358 496.999 573.678 497.431 573.086C497.869 572.494 498.464 572.029 499.216 571.692C499.973 571.355 500.831 571.186 501.79 571.186C503.14 571.186 504.199 571.482 504.968 572.074C505.744 572.666 506.294 573.447 506.62 574.418ZM512.117 576.797V585H510.022V566.818H512.117V573.494H512.295C512.614 572.79 513.094 572.231 513.733 571.816C514.378 571.396 515.236 571.186 516.308 571.186C517.237 571.186 518.051 571.373 518.749 571.745C519.447 572.112 519.989 572.678 520.374 573.441C520.764 574.199 520.96 575.163 520.96 576.335V585H518.864V576.477C518.864 575.394 518.583 574.557 518.021 573.965C517.465 573.367 516.692 573.068 515.704 573.068C515.017 573.068 514.402 573.213 513.857 573.503C513.319 573.793 512.893 574.216 512.579 574.773C512.271 575.329 512.117 576.004 512.117 576.797ZM526.746 580.028L526.71 577.436H527.136L533.102 571.364H535.695L529.338 577.791H529.161L526.746 580.028ZM524.793 585V566.818H526.888V585H524.793ZM533.457 585L528.131 578.253L529.622 576.797L536.121 585H533.457ZM543.369 585.284C542.138 585.284 541.058 584.991 540.129 584.405C539.206 583.819 538.484 583 537.963 581.946C537.448 580.893 537.191 579.661 537.191 578.253C537.191 576.832 537.448 575.592 537.963 574.533C538.484 573.474 539.206 572.651 540.129 572.065C541.058 571.479 542.138 571.186 543.369 571.186C544.601 571.186 545.678 571.479 546.601 572.065C547.53 572.651 548.252 573.474 548.767 574.533C549.288 575.592 549.548 576.832 549.548 578.253C549.548 579.661 549.288 580.893 548.767 581.946C548.252 583 547.53 583.819 546.601 584.405C545.678 584.991 544.601 585.284 543.369 585.284ZM543.369 583.402C544.305 583.402 545.074 583.162 545.678 582.683C546.281 582.203 546.728 581.573 547.018 580.792C547.308 580.011 547.453 579.164 547.453 578.253C547.453 577.341 547.308 576.492 547.018 575.705C546.728 574.918 546.281 574.281 545.678 573.796C545.074 573.311 544.305 573.068 543.369 573.068C542.434 573.068 541.665 573.311 541.061 573.796C540.458 574.281 540.011 574.918 539.721 575.705C539.431 576.492 539.286 577.341 539.286 578.253C539.286 579.164 539.431 580.011 539.721 580.792C540.011 581.573 540.458 582.203 541.061 582.683C541.665 583.162 542.434 583.402 543.369 583.402ZM562.406 574.418L560.524 574.95C560.405 574.637 560.231 574.332 560 574.036C559.775 573.734 559.467 573.485 559.077 573.29C558.686 573.095 558.186 572.997 557.576 572.997C556.742 572.997 556.046 573.19 555.49 573.574C554.94 573.953 554.664 574.435 554.664 575.021C554.664 575.542 554.854 575.953 555.233 576.255C555.611 576.557 556.203 576.809 557.008 577.01L559.032 577.507C560.251 577.803 561.16 578.256 561.758 578.865C562.355 579.469 562.654 580.247 562.654 581.2C562.654 581.982 562.429 582.68 561.98 583.295C561.536 583.911 560.914 584.396 560.115 584.751C559.316 585.107 558.387 585.284 557.328 585.284C555.937 585.284 554.786 584.982 553.874 584.379C552.963 583.775 552.386 582.893 552.143 581.733L554.132 581.236C554.321 581.97 554.679 582.52 555.206 582.887C555.739 583.254 556.434 583.438 557.292 583.438C558.269 583.438 559.044 583.23 559.618 582.816C560.198 582.396 560.488 581.893 560.488 581.307C560.488 580.833 560.322 580.437 559.991 580.117C559.66 579.792 559.151 579.549 558.464 579.389L556.191 578.857C554.943 578.561 554.025 578.102 553.439 577.48C552.859 576.853 552.569 576.069 552.569 575.128C552.569 574.358 552.785 573.678 553.217 573.086C553.655 572.494 554.25 572.029 555.002 571.692C555.759 571.355 556.617 571.186 557.576 571.186C558.926 571.186 559.985 571.482 560.755 572.074C561.53 572.666 562.08 573.447 562.406 574.418ZM567.903 576.797V585H565.808V566.818H567.903V573.494H568.081C568.401 572.79 568.88 572.231 569.519 571.816C570.164 571.396 571.022 571.186 572.094 571.186C573.023 571.186 573.837 571.373 574.535 571.745C575.234 572.112 575.775 572.678 576.16 573.441C576.55 574.199 576.746 575.163 576.746 576.335V585H574.651V576.477C574.651 575.394 574.369 574.557 573.807 573.965C573.251 573.367 572.478 573.068 571.49 573.068C570.804 573.068 570.188 573.213 569.643 573.503C569.105 573.793 568.679 574.216 568.365 574.773C568.057 575.329 567.903 576.004 567.903 576.797Z" fill="black"/>
<circle cx="563.511" cy="522.511" r="9.01136" fill="#FFE587" stroke="black"/>
<circle cx="544.511" cy="556.511" r="9.01136" fill="#FFE587" stroke="black"/>
<path d="M536.722 193.545H540.591L545.773 206.193H545.977L551.159 193.545H555.028V211H551.994V199.009H551.832L547.009 210.949H544.741L539.918 198.983H539.756V211H536.722V193.545ZM561.634 193.545V211H558.472V193.545H561.634Z" fill="#FFE587"/>
<path d="M36.7216 346.545H40.5909L45.7727 359.193H45.9773L51.1591 346.545H55.0284V364H51.9943V352.009H51.8324L47.0085 363.949H44.7415L39.9176 351.983H39.7557V364H36.7216V346.545ZM72.8153 346.545V364H70.0028L61.7784 352.111H61.6335V364H58.4716V346.545H61.3011L69.517 358.443H69.6705V346.545H72.8153Z" fill="#FFE587"/>
<path d="M167.884 638.545V656H164.722V638.545H167.884ZM173.549 656H170.174L176.319 638.545H180.222L186.376 656H183.001L178.339 642.125H178.202L173.549 656ZM173.66 649.156H182.864V651.696H173.66V649.156Z" fill="#FFE587"/>
<path d="M458.884 806.545V824H455.722V806.545H458.884ZM462.308 824V806.545H465.469V821.349H473.157V824H462.308Z" fill="#FFE587"/>
<circle cx="460.511" cy="697.511" r="9.01136" fill="#FF8F87" stroke="black"/>
<path d="M416.58 661.818H421.321L426.328 674.034H426.541L431.548 661.818H436.289V680H432.56V668.166H432.409L427.704 679.911H425.165L420.46 668.121H420.309V680H416.58V661.818ZM443.274 680.257C442.404 680.257 441.628 680.107 440.948 679.805C440.267 679.497 439.728 679.044 439.332 678.446C438.941 677.843 438.746 677.091 438.746 676.191C438.746 675.434 438.885 674.798 439.163 674.283C439.441 673.768 439.82 673.353 440.3 673.04C440.779 672.726 441.324 672.489 441.933 672.33C442.549 672.17 443.194 672.057 443.869 671.992C444.662 671.909 445.301 671.832 445.786 671.761C446.271 671.684 446.624 671.572 446.843 671.424C447.062 671.276 447.171 671.057 447.171 670.767V670.714C447.171 670.152 446.994 669.717 446.638 669.409C446.289 669.101 445.792 668.947 445.147 668.947C444.466 668.947 443.925 669.098 443.522 669.4C443.12 669.696 442.853 670.069 442.723 670.518L439.225 670.234C439.403 669.406 439.752 668.69 440.273 668.086C440.794 667.476 441.466 667.009 442.288 666.683C443.117 666.352 444.076 666.186 445.165 666.186C445.922 666.186 446.647 666.275 447.34 666.452C448.038 666.63 448.657 666.905 449.195 667.278C449.74 667.651 450.169 668.13 450.483 668.716C450.796 669.296 450.953 669.992 450.953 670.803V680H447.366V678.109H447.26C447.041 678.535 446.748 678.911 446.381 679.237C446.014 679.556 445.573 679.808 445.058 679.991C444.543 680.169 443.948 680.257 443.274 680.257ZM444.357 677.647C444.913 677.647 445.404 677.538 445.831 677.319C446.257 677.094 446.591 676.792 446.834 676.413C447.076 676.035 447.198 675.605 447.198 675.126V673.679C447.079 673.756 446.917 673.827 446.709 673.892C446.508 673.951 446.28 674.007 446.026 674.061C445.771 674.108 445.517 674.152 445.262 674.194C445.008 674.229 444.777 674.262 444.57 674.292C444.126 674.357 443.738 674.46 443.407 674.602C443.075 674.744 442.818 674.937 442.634 675.179C442.451 675.416 442.359 675.712 442.359 676.067C442.359 676.582 442.546 676.976 442.919 677.248C443.297 677.514 443.777 677.647 444.357 677.647ZM458.912 680.222C457.876 680.222 456.938 679.956 456.098 679.423C455.263 678.884 454.6 678.094 454.109 677.053C453.624 676.005 453.381 674.721 453.381 673.2C453.381 671.637 453.633 670.338 454.136 669.302C454.639 668.261 455.308 667.482 456.142 666.967C456.983 666.446 457.903 666.186 458.903 666.186C459.667 666.186 460.303 666.316 460.812 666.577C461.327 666.831 461.741 667.151 462.055 667.536C462.374 667.914 462.617 668.287 462.783 668.654H462.898V661.818H466.671V680H462.943V677.816H462.783C462.605 678.195 462.354 678.571 462.028 678.944C461.709 679.31 461.291 679.615 460.776 679.858C460.267 680.101 459.646 680.222 458.912 680.222ZM460.111 677.212C460.72 677.212 461.235 677.047 461.655 676.715C462.081 676.378 462.407 675.907 462.632 675.304C462.863 674.7 462.978 673.993 462.978 673.182C462.978 672.371 462.866 671.667 462.641 671.069C462.416 670.471 462.09 670.009 461.664 669.684C461.238 669.358 460.72 669.196 460.111 669.196C459.489 669.196 458.965 669.364 458.539 669.702C458.113 670.039 457.79 670.507 457.571 671.104C457.352 671.702 457.243 672.395 457.243 673.182C457.243 673.975 457.352 674.676 457.571 675.286C457.796 675.89 458.119 676.363 458.539 676.706C458.965 677.044 459.489 677.212 460.111 677.212ZM469.781 680V666.364H473.563V680H469.781ZM471.681 664.606C471.118 664.606 470.636 664.419 470.233 664.047C469.837 663.668 469.639 663.215 469.639 662.688C469.639 662.167 469.837 661.721 470.233 661.348C470.636 660.969 471.118 660.779 471.681 660.779C472.243 660.779 472.722 660.969 473.119 661.348C473.521 661.721 473.722 662.167 473.722 662.688C473.722 663.215 473.521 663.668 473.119 664.047C472.722 664.419 472.243 664.606 471.681 664.606ZM487.938 670.252L484.476 670.465C484.417 670.169 484.289 669.903 484.094 669.666C483.899 669.424 483.641 669.231 483.322 669.089C483.008 668.941 482.632 668.867 482.194 668.867C481.608 668.867 481.114 668.991 480.712 669.24C480.309 669.483 480.108 669.808 480.108 670.217C480.108 670.542 480.238 670.817 480.498 671.042C480.759 671.267 481.206 671.448 481.839 671.584L484.307 672.081C485.633 672.353 486.621 672.791 487.272 673.395C487.923 673.999 488.249 674.792 488.249 675.774C488.249 676.668 487.985 677.452 487.459 678.127C486.938 678.801 486.222 679.328 485.31 679.707C484.405 680.08 483.36 680.266 482.176 680.266C480.371 680.266 478.933 679.891 477.862 679.139C476.796 678.381 476.172 677.351 475.989 676.049L479.708 675.854C479.821 676.404 480.093 676.825 480.525 677.115C480.957 677.399 481.511 677.541 482.185 677.541C482.848 677.541 483.381 677.414 483.783 677.159C484.192 676.899 484.399 676.564 484.405 676.156C484.399 675.813 484.254 675.531 483.97 675.312C483.686 675.088 483.248 674.916 482.656 674.798L480.294 674.327C478.963 674.061 477.971 673.599 477.32 672.942C476.675 672.285 476.353 671.448 476.353 670.43C476.353 669.554 476.589 668.799 477.063 668.166C477.542 667.533 478.214 667.044 479.078 666.701C479.948 666.358 480.966 666.186 482.132 666.186C483.854 666.186 485.21 666.55 486.198 667.278C487.192 668.006 487.772 668.997 487.938 670.252ZM496.792 680.266C495.413 680.266 494.22 679.973 493.214 679.387C492.214 678.796 491.441 677.973 490.897 676.919C490.352 675.86 490.08 674.632 490.08 673.235C490.08 671.826 490.352 670.595 490.897 669.542C491.441 668.482 492.214 667.66 493.214 667.074C494.22 666.482 495.413 666.186 496.792 666.186C498.171 666.186 499.36 666.482 500.36 667.074C501.367 667.66 502.142 668.482 502.686 669.542C503.231 670.595 503.503 671.826 503.503 673.235C503.503 674.632 503.231 675.86 502.686 676.919C502.142 677.973 501.367 678.796 500.36 679.387C499.36 679.973 498.171 680.266 496.792 680.266ZM496.809 677.337C497.437 677.337 497.96 677.159 498.381 676.804C498.801 676.443 499.118 675.952 499.331 675.33C499.55 674.709 499.659 674.002 499.659 673.208C499.659 672.415 499.55 671.708 499.331 671.087C499.118 670.465 498.801 669.974 498.381 669.613C497.96 669.252 497.437 669.071 496.809 669.071C496.176 669.071 495.643 669.252 495.211 669.613C494.785 669.974 494.463 670.465 494.244 671.087C494.031 671.708 493.924 672.415 493.924 673.208C493.924 674.002 494.031 674.709 494.244 675.33C494.463 675.952 494.785 676.443 495.211 676.804C495.643 677.159 496.176 677.337 496.809 677.337ZM509.744 672.116V680H505.962V666.364H509.567V668.77H509.727C510.028 667.976 510.534 667.349 511.245 666.887C511.955 666.42 512.816 666.186 513.828 666.186C514.775 666.186 515.601 666.393 516.305 666.808C517.009 667.222 517.557 667.814 517.947 668.583C518.338 669.347 518.533 670.258 518.533 671.317V680H514.751V671.992C514.757 671.158 514.544 670.507 514.112 670.039C513.68 669.566 513.085 669.329 512.328 669.329C511.819 669.329 511.369 669.438 510.978 669.657C510.594 669.876 510.292 670.196 510.073 670.616C509.86 671.03 509.75 671.531 509.744 672.116Z" fill="black"/>
<path d="M491.202 712.818H493.83L500.009 727.911H500.222L506.401 712.818H509.028V731H506.969V717.186H506.791L501.109 731H499.121L493.439 717.186H493.261V731H491.202V712.818ZM513.159 731V717.364H515.254V731H513.159ZM514.224 715.091C513.816 715.091 513.464 714.952 513.168 714.674C512.878 714.395 512.733 714.061 512.733 713.67C512.733 713.28 512.878 712.945 513.168 712.667C513.464 712.389 513.816 712.25 514.224 712.25C514.633 712.25 514.982 712.389 515.272 712.667C515.568 712.945 515.716 713.28 515.716 713.67C515.716 714.061 515.568 714.395 515.272 714.674C514.982 714.952 514.633 715.091 514.224 715.091ZM521.187 712.818V731H519.091V712.818H521.187ZM528.114 731L523.959 717.364H526.16L529.108 727.804H529.25L532.162 717.364H534.399L537.275 727.768H537.418L540.365 717.364H542.567L538.412 731H536.352L533.369 720.524H533.156L530.173 731H528.114ZM549.349 731.32C548.485 731.32 547.701 731.157 546.997 730.831C546.292 730.5 545.733 730.023 545.319 729.402C544.905 728.775 544.697 728.017 544.697 727.129C544.697 726.348 544.851 725.715 545.159 725.229C545.467 724.738 545.878 724.353 546.393 724.075C546.908 723.797 547.476 723.59 548.098 723.454C548.725 723.312 549.355 723.199 549.989 723.116C550.817 723.01 551.489 722.93 552.004 722.877C552.525 722.818 552.903 722.72 553.14 722.584C553.383 722.448 553.504 722.211 553.504 721.874V721.803C553.504 720.927 553.264 720.246 552.785 719.761C552.312 719.275 551.592 719.033 550.628 719.033C549.628 719.033 548.843 719.252 548.275 719.69C547.707 720.128 547.307 720.595 547.077 721.092L545.088 720.382C545.443 719.554 545.917 718.908 546.508 718.447C547.106 717.979 547.757 717.654 548.462 717.47C549.172 717.281 549.87 717.186 550.557 717.186C550.995 717.186 551.498 717.239 552.066 717.346C552.64 717.446 553.193 717.657 553.726 717.976C554.265 718.296 554.712 718.778 555.067 719.423C555.422 720.068 555.599 720.933 555.599 722.016V731H553.504V729.153H553.398C553.256 729.449 553.019 729.766 552.687 730.103C552.356 730.441 551.915 730.728 551.365 730.964C550.814 731.201 550.142 731.32 549.349 731.32ZM549.669 729.438C550.498 729.438 551.196 729.275 551.764 728.949C552.338 728.624 552.77 728.203 553.06 727.689C553.356 727.174 553.504 726.632 553.504 726.064V724.146C553.415 724.253 553.22 724.35 552.918 724.439C552.622 724.522 552.279 724.596 551.888 724.661C551.504 724.72 551.128 724.774 550.761 724.821C550.4 724.862 550.107 724.898 549.882 724.928C549.338 724.999 548.829 725.114 548.355 725.274C547.887 725.428 547.509 725.661 547.219 725.975C546.935 726.283 546.793 726.703 546.793 727.236C546.793 727.964 547.062 728.514 547.6 728.887C548.145 729.254 548.834 729.438 549.669 729.438ZM568.017 725.425V717.364H570.112V731H568.017V728.692H567.875C567.556 729.384 567.058 729.973 566.384 730.458C565.709 730.938 564.857 731.178 563.827 731.178C562.975 731.178 562.217 730.991 561.554 730.618C560.891 730.239 560.37 729.671 559.992 728.914C559.613 728.15 559.423 727.188 559.423 726.028V717.364H561.519V725.886C561.519 726.881 561.797 727.674 562.353 728.266C562.915 728.857 563.632 729.153 564.502 729.153C565.022 729.153 565.552 729.02 566.091 728.754C566.635 728.488 567.091 728.079 567.458 727.529C567.831 726.978 568.017 726.277 568.017 725.425ZM575.903 726.028L575.867 723.436H576.294L582.259 717.364H584.852L578.495 723.791H578.318L575.903 726.028ZM573.95 731V712.818H576.045V731H573.95ZM582.615 731L577.288 724.253L578.779 722.797L585.278 731H582.615ZM592.704 731.284C591.39 731.284 590.257 730.994 589.304 730.414C588.357 729.828 587.626 729.011 587.111 727.964C586.602 726.91 586.348 725.685 586.348 724.288C586.348 722.892 586.602 721.661 587.111 720.595C587.626 719.524 588.342 718.689 589.26 718.092C590.183 717.488 591.26 717.186 592.491 717.186C593.201 717.186 593.903 717.304 594.595 717.541C595.288 717.778 595.918 718.163 596.486 718.695C597.054 719.222 597.507 719.92 597.845 720.79C598.182 721.661 598.351 722.732 598.351 724.004V724.892H587.839V723.081H596.22C596.22 722.312 596.066 721.625 595.758 721.021C595.456 720.418 595.024 719.941 594.462 719.592C593.906 719.243 593.249 719.068 592.491 719.068C591.657 719.068 590.935 719.275 590.325 719.69C589.721 720.098 589.257 720.631 588.931 721.288C588.606 721.945 588.443 722.649 588.443 723.401V724.608C588.443 725.638 588.62 726.511 588.976 727.227C589.337 727.937 589.837 728.479 590.476 728.852C591.115 729.219 591.858 729.402 592.704 729.402C593.255 729.402 593.752 729.325 594.196 729.171C594.646 729.011 595.033 728.775 595.359 728.461C595.684 728.141 595.936 727.745 596.113 727.271L598.138 727.839C597.924 728.526 597.566 729.13 597.063 729.651C596.56 730.165 595.939 730.568 595.199 730.858C594.459 731.142 593.628 731.284 592.704 731.284ZM607.255 731.284C605.941 731.284 604.808 730.994 603.855 730.414C602.908 729.828 602.177 729.011 601.662 727.964C601.153 726.91 600.899 725.685 600.899 724.288C600.899 722.892 601.153 721.661 601.662 720.595C602.177 719.524 602.893 718.689 603.81 718.092C604.734 717.488 605.811 717.186 607.042 717.186C607.752 717.186 608.454 717.304 609.146 717.541C609.839 717.778 610.469 718.163 611.037 718.695C611.605 719.222 612.058 719.92 612.395 720.79C612.733 721.661 612.901 722.732 612.901 724.004V724.892H602.39V723.081H610.771C610.771 722.312 610.617 721.625 610.309 721.021C610.007 720.418 609.575 719.941 609.013 719.592C608.457 719.243 607.8 719.068 607.042 719.068C606.207 719.068 605.485 719.275 604.876 719.69C604.272 720.098 603.807 720.631 603.482 721.288C603.156 721.945 602.994 722.649 602.994 723.401V724.608C602.994 725.638 603.171 726.511 603.526 727.227C603.887 727.937 604.388 728.479 605.027 728.852C605.666 729.219 606.409 729.402 607.255 729.402C607.805 729.402 608.303 729.325 608.747 729.171C609.196 729.011 609.584 728.775 609.91 728.461C610.235 728.141 610.487 727.745 610.664 727.271L612.688 727.839C612.475 728.526 612.117 729.13 611.614 729.651C611.111 730.165 610.49 730.568 609.75 730.858C609.01 731.142 608.178 731.284 607.255 731.284Z" fill="black"/>
<path d="M504.202 776V757.818H506.403V766.838H506.616L514.784 757.818H517.661L510.026 766.021L517.661 776H514.997L508.676 767.548L506.403 770.105V776H504.202ZM524.943 776.284C523.629 776.284 522.495 775.994 521.542 775.414C520.595 774.828 519.864 774.011 519.35 772.964C518.841 771.91 518.586 770.685 518.586 769.288C518.586 767.892 518.841 766.661 519.35 765.595C519.864 764.524 520.581 763.689 521.498 763.092C522.421 762.488 523.498 762.186 524.729 762.186C525.44 762.186 526.141 762.304 526.834 762.541C527.526 762.778 528.156 763.163 528.725 763.695C529.293 764.222 529.745 764.92 530.083 765.79C530.42 766.661 530.589 767.732 530.589 769.004V769.892H520.078V768.081H528.458C528.458 767.312 528.304 766.625 527.997 766.021C527.695 765.418 527.263 764.941 526.7 764.592C526.144 764.243 525.487 764.068 524.729 764.068C523.895 764.068 523.173 764.275 522.563 764.69C521.96 765.098 521.495 765.631 521.169 766.288C520.844 766.945 520.681 767.649 520.681 768.401V769.608C520.681 770.638 520.859 771.511 521.214 772.227C521.575 772.937 522.075 773.479 522.714 773.852C523.353 774.219 524.096 774.402 524.943 774.402C525.493 774.402 525.99 774.325 526.434 774.171C526.884 774.011 527.272 773.775 527.597 773.461C527.923 773.141 528.174 772.745 528.352 772.271L530.376 772.839C530.163 773.526 529.805 774.13 529.302 774.651C528.799 775.165 528.177 775.568 527.437 775.858C526.697 776.142 525.866 776.284 524.943 776.284ZM535.871 767.797V776H533.776V762.364H535.8V764.494H535.978C536.297 763.802 536.783 763.246 537.434 762.825C538.085 762.399 538.925 762.186 539.955 762.186C540.878 762.186 541.686 762.375 542.379 762.754C543.071 763.127 543.61 763.695 543.994 764.459C544.379 765.216 544.571 766.175 544.571 767.335V776H542.476V767.477C542.476 766.406 542.198 765.571 541.642 764.974C541.085 764.37 540.322 764.068 539.351 764.068C538.682 764.068 538.085 764.213 537.558 764.503C537.037 764.793 536.626 765.216 536.324 765.773C536.022 766.329 535.871 767.004 535.871 767.797ZM553.94 776.284C552.709 776.284 551.629 775.991 550.699 775.405C549.776 774.819 549.054 774 548.533 772.946C548.018 771.893 547.761 770.661 547.761 769.253C547.761 767.832 548.018 766.592 548.533 765.533C549.054 764.474 549.776 763.651 550.699 763.065C551.629 762.479 552.709 762.186 553.94 762.186C555.171 762.186 556.248 762.479 557.171 763.065C558.101 763.651 558.823 764.474 559.338 765.533C559.858 766.592 560.119 767.832 560.119 769.253C560.119 770.661 559.858 771.893 559.338 772.946C558.823 774 558.101 774.819 557.171 775.405C556.248 775.991 555.171 776.284 553.94 776.284ZM553.94 774.402C554.875 774.402 555.644 774.162 556.248 773.683C556.852 773.203 557.299 772.573 557.589 771.792C557.879 771.011 558.024 770.164 558.024 769.253C558.024 768.341 557.879 767.492 557.589 766.705C557.299 765.918 556.852 765.281 556.248 764.796C555.644 764.311 554.875 764.068 553.94 764.068C553.005 764.068 552.235 764.311 551.632 764.796C551.028 765.281 550.581 765.918 550.291 766.705C550.001 767.492 549.856 768.341 549.856 769.253C549.856 770.164 550.001 771.011 550.291 771.792C550.581 772.573 551.028 773.203 551.632 773.683C552.235 774.162 553.005 774.402 553.94 774.402ZM572.976 765.418L571.094 765.95C570.976 765.637 570.801 765.332 570.57 765.036C570.345 764.734 570.038 764.485 569.647 764.29C569.256 764.095 568.756 763.997 568.147 763.997C567.312 763.997 566.617 764.19 566.06 764.574C565.51 764.953 565.235 765.435 565.235 766.021C565.235 766.542 565.424 766.953 565.803 767.255C566.182 767.557 566.773 767.809 567.578 768.01L569.603 768.507C570.822 768.803 571.73 769.256 572.328 769.865C572.926 770.469 573.225 771.247 573.225 772.2C573.225 772.982 573 773.68 572.55 774.295C572.106 774.911 571.485 775.396 570.686 775.751C569.887 776.107 568.957 776.284 567.898 776.284C566.507 776.284 565.356 775.982 564.445 775.379C563.533 774.775 562.956 773.893 562.713 772.733L564.702 772.236C564.891 772.97 565.249 773.52 565.776 773.887C566.309 774.254 567.004 774.438 567.862 774.438C568.839 774.438 569.614 774.23 570.188 773.816C570.768 773.396 571.059 772.893 571.059 772.307C571.059 771.833 570.893 771.437 570.561 771.117C570.23 770.792 569.721 770.549 569.034 770.389L566.762 769.857C565.513 769.561 564.595 769.102 564.009 768.48C563.429 767.853 563.139 767.069 563.139 766.128C563.139 765.358 563.355 764.678 563.788 764.086C564.226 763.494 564.82 763.029 565.572 762.692C566.33 762.355 567.188 762.186 568.147 762.186C569.496 762.186 570.555 762.482 571.325 763.074C572.1 763.666 572.651 764.447 572.976 765.418ZM578.474 767.797V776H576.379V757.818H578.474V764.494H578.651C578.971 763.79 579.45 763.231 580.089 762.816C580.735 762.396 581.593 762.186 582.664 762.186C583.593 762.186 584.407 762.373 585.105 762.745C585.804 763.112 586.345 763.678 586.73 764.441C587.121 765.199 587.316 766.163 587.316 767.335V776H585.221V767.477C585.221 766.394 584.94 765.557 584.377 764.965C583.821 764.367 583.049 764.068 582.06 764.068C581.374 764.068 580.758 764.213 580.214 764.503C579.675 764.793 579.249 765.216 578.935 765.773C578.628 766.329 578.474 767.004 578.474 767.797ZM595.162 776.32C594.298 776.32 593.514 776.157 592.809 775.831C592.105 775.5 591.546 775.023 591.131 774.402C590.717 773.775 590.51 773.017 590.51 772.129C590.51 771.348 590.664 770.715 590.972 770.229C591.279 769.738 591.691 769.353 592.206 769.075C592.72 768.797 593.289 768.59 593.91 768.454C594.537 768.312 595.168 768.199 595.801 768.116C596.63 768.01 597.301 767.93 597.816 767.877C598.337 767.818 598.716 767.72 598.953 767.584C599.195 767.448 599.317 767.211 599.317 766.874V766.803C599.317 765.927 599.077 765.246 598.598 764.761C598.124 764.275 597.405 764.033 596.44 764.033C595.44 764.033 594.656 764.252 594.088 764.69C593.519 765.128 593.12 765.595 592.889 766.092L590.9 765.382C591.256 764.554 591.729 763.908 592.321 763.447C592.919 762.979 593.57 762.654 594.274 762.47C594.984 762.281 595.683 762.186 596.369 762.186C596.807 762.186 597.31 762.239 597.878 762.346C598.453 762.446 599.006 762.657 599.539 762.976C600.077 763.296 600.524 763.778 600.879 764.423C601.234 765.068 601.412 765.933 601.412 767.016V776H599.317V774.153H599.21C599.068 774.449 598.831 774.766 598.5 775.103C598.168 775.441 597.728 775.728 597.177 775.964C596.627 776.201 595.955 776.32 595.162 776.32ZM595.481 774.438C596.31 774.438 597.008 774.275 597.577 773.949C598.151 773.624 598.583 773.203 598.873 772.689C599.169 772.174 599.317 771.632 599.317 771.064V769.146C599.228 769.253 599.033 769.35 598.731 769.439C598.435 769.522 598.092 769.596 597.701 769.661C597.316 769.72 596.94 769.774 596.573 769.821C596.212 769.862 595.919 769.898 595.695 769.928C595.15 769.999 594.641 770.114 594.168 770.274C593.7 770.428 593.321 770.661 593.031 770.975C592.747 771.283 592.605 771.703 592.605 772.236C592.605 772.964 592.874 773.514 593.413 773.887C593.957 774.254 594.647 774.438 595.481 774.438Z" fill="black"/>
<circle cx="611.511" cy="702.511" r="9.01136" fill="#FFE587" stroke="black"/>
<circle cx="620.511" cy="767.511" r="9.01136" fill="#FFE587" stroke="black"/>
<path d="M704.358 504V486.545H707.52V501.349H715.208V504H704.358ZM721.583 504.264C720.753 504.264 720.006 504.116 719.341 503.821C718.682 503.52 718.159 503.077 717.773 502.491C717.392 501.906 717.202 501.185 717.202 500.327C717.202 499.588 717.338 498.977 717.611 498.494C717.884 498.011 718.256 497.625 718.728 497.335C719.199 497.045 719.73 496.827 720.321 496.679C720.918 496.526 721.534 496.415 722.171 496.347C722.938 496.267 723.56 496.196 724.037 496.134C724.515 496.065 724.861 495.963 725.077 495.827C725.299 495.685 725.409 495.466 725.409 495.17V495.119C725.409 494.477 725.219 493.98 724.838 493.628C724.458 493.276 723.909 493.099 723.194 493.099C722.438 493.099 721.838 493.264 721.395 493.594C720.958 493.923 720.662 494.312 720.509 494.761L717.628 494.352C717.855 493.557 718.23 492.892 718.753 492.358C719.276 491.818 719.915 491.415 720.671 491.148C721.426 490.875 722.262 490.739 723.176 490.739C723.807 490.739 724.435 490.812 725.06 490.96C725.685 491.108 726.256 491.352 726.773 491.693C727.29 492.028 727.705 492.486 728.017 493.065C728.336 493.645 728.495 494.369 728.495 495.239V504H725.529V502.202H725.426C725.239 502.565 724.975 502.906 724.634 503.224C724.299 503.537 723.875 503.79 723.364 503.983C722.858 504.17 722.265 504.264 721.583 504.264ZM722.384 501.997C723.003 501.997 723.54 501.875 723.995 501.631C724.449 501.381 724.799 501.051 725.043 500.642C725.293 500.233 725.418 499.787 725.418 499.304V497.761C725.321 497.841 725.157 497.915 724.924 497.983C724.696 498.051 724.441 498.111 724.157 498.162C723.873 498.213 723.591 498.259 723.313 498.298C723.034 498.338 722.793 498.372 722.588 498.401C722.128 498.463 721.716 498.565 721.353 498.707C720.989 498.849 720.702 499.048 720.492 499.304C720.282 499.554 720.176 499.878 720.176 500.276C720.176 500.844 720.384 501.273 720.799 501.562C721.213 501.852 721.742 501.997 722.384 501.997ZM734.409 499.892L734.401 496.168H734.895L739.6 490.909H743.205L737.418 497.352H736.779L734.409 499.892ZM731.597 504V486.545H734.682V504H731.597ZM739.813 504L735.551 498.043L737.631 495.869L743.503 504H739.813ZM750.517 504.256C749.205 504.256 748.071 503.983 747.117 503.438C746.168 502.886 745.438 502.108 744.926 501.102C744.415 500.091 744.159 498.901 744.159 497.531C744.159 496.185 744.415 495.003 744.926 493.986C745.444 492.963 746.165 492.168 747.091 491.599C748.017 491.026 749.105 490.739 750.355 490.739C751.162 490.739 751.924 490.869 752.64 491.131C753.361 491.386 753.998 491.784 754.549 492.324C755.105 492.864 755.543 493.551 755.861 494.386C756.179 495.216 756.338 496.205 756.338 497.352V498.298H745.608V496.219H753.381C753.375 495.628 753.248 495.102 752.998 494.642C752.748 494.176 752.398 493.81 751.949 493.543C751.506 493.276 750.989 493.142 750.398 493.142C749.767 493.142 749.213 493.295 748.736 493.602C748.259 493.903 747.887 494.301 747.62 494.795C747.358 495.284 747.225 495.821 747.219 496.406V498.222C747.219 498.983 747.358 499.636 747.637 500.182C747.915 500.722 748.304 501.136 748.804 501.426C749.304 501.71 749.89 501.852 750.56 501.852C751.009 501.852 751.415 501.79 751.779 501.665C752.142 501.534 752.458 501.344 752.725 501.094C752.992 500.844 753.194 500.534 753.33 500.165L756.211 500.489C756.029 501.25 755.682 501.915 755.171 502.483C754.665 503.045 754.017 503.483 753.228 503.795C752.438 504.102 751.534 504.256 750.517 504.256ZM678.6 515.545H682.47L687.652 528.193H687.856L693.038 515.545H696.907V533H693.873V521.009H693.711L688.887 532.949H686.62L681.797 520.983H681.635V533H678.6V515.545ZM700.214 533V519.909H703.299V533H700.214ZM701.765 518.051C701.277 518.051 700.856 517.889 700.504 517.565C700.152 517.236 699.975 516.841 699.975 516.381C699.975 515.915 700.152 515.52 700.504 515.196C700.856 514.866 701.277 514.702 701.765 514.702C702.26 514.702 702.68 514.866 703.027 515.196C703.379 515.52 703.555 515.915 703.555 516.381C703.555 516.841 703.379 517.236 703.027 517.565C702.68 517.889 702.26 518.051 701.765 518.051ZM712.182 533.256C710.875 533.256 709.753 532.969 708.816 532.395C707.884 531.821 707.165 531.028 706.659 530.017C706.159 529 705.909 527.83 705.909 526.506C705.909 525.176 706.165 524.003 706.676 522.986C707.188 521.963 707.909 521.168 708.841 520.599C709.779 520.026 710.887 519.739 712.165 519.739C713.228 519.739 714.168 519.935 714.986 520.327C715.81 520.713 716.466 521.261 716.955 521.972C717.444 522.676 717.722 523.5 717.79 524.443H714.841C714.722 523.812 714.438 523.287 713.989 522.866C713.546 522.44 712.952 522.227 712.208 522.227C711.577 522.227 711.023 522.398 710.546 522.739C710.069 523.074 709.696 523.557 709.429 524.188C709.168 524.818 709.037 525.574 709.037 526.455C709.037 527.347 709.168 528.114 709.429 528.756C709.691 529.392 710.057 529.884 710.529 530.23C711.006 530.571 711.566 530.741 712.208 530.741C712.662 530.741 713.069 530.656 713.426 530.486C713.79 530.31 714.094 530.057 714.338 529.727C714.583 529.398 714.75 528.997 714.841 528.526H717.79C717.716 529.452 717.444 530.273 716.972 530.989C716.5 531.699 715.858 532.256 715.046 532.659C714.233 533.057 713.279 533.256 712.182 533.256ZM723.409 525.33V533H720.324V515.545H723.341V522.134H723.494C723.801 521.395 724.275 520.812 724.917 520.386C725.565 519.955 726.389 519.739 727.389 519.739C728.298 519.739 729.091 519.929 729.767 520.31C730.443 520.69 730.966 521.247 731.335 521.98C731.71 522.713 731.897 523.608 731.897 524.665V533H728.812V525.142C728.812 524.261 728.585 523.577 728.13 523.088C727.681 522.594 727.051 522.347 726.238 522.347C725.693 522.347 725.204 522.466 724.772 522.705C724.346 522.937 724.011 523.276 723.767 523.719C723.528 524.162 723.409 524.699 723.409 525.33ZM735.042 533V519.909H738.127V533H735.042ZM736.593 518.051C736.105 518.051 735.684 517.889 735.332 517.565C734.98 517.236 734.804 516.841 734.804 516.381C734.804 515.915 734.98 515.52 735.332 515.196C735.684 514.866 736.105 514.702 736.593 514.702C737.088 514.702 737.508 514.866 737.855 515.196C738.207 515.52 738.383 515.915 738.383 516.381C738.383 516.841 738.207 517.236 737.855 517.565C737.508 517.889 737.088 518.051 736.593 518.051ZM746.993 538.182C745.885 538.182 744.934 538.031 744.138 537.73C743.343 537.435 742.703 537.037 742.221 536.537C741.738 536.037 741.402 535.483 741.215 534.875L743.993 534.202C744.118 534.457 744.3 534.71 744.539 534.96C744.777 535.216 745.098 535.426 745.502 535.591C745.911 535.761 746.425 535.847 747.044 535.847C747.919 535.847 748.644 535.634 749.218 535.207C749.792 534.787 750.078 534.094 750.078 533.128V530.648H749.925C749.766 530.966 749.533 531.293 749.226 531.628C748.925 531.963 748.525 532.244 748.025 532.472C747.53 532.699 746.908 532.812 746.158 532.812C745.152 532.812 744.24 532.577 743.422 532.105C742.61 531.628 741.962 530.918 741.479 529.974C741.002 529.026 740.763 527.838 740.763 526.412C740.763 524.974 741.002 523.761 741.479 522.773C741.962 521.778 742.613 521.026 743.431 520.514C744.249 519.997 745.161 519.739 746.167 519.739C746.934 519.739 747.564 519.869 748.059 520.131C748.559 520.386 748.956 520.696 749.252 521.06C749.547 521.418 749.772 521.756 749.925 522.074H750.096V519.909H753.138V533.213C753.138 534.332 752.871 535.259 752.337 535.991C751.803 536.724 751.073 537.273 750.147 537.636C749.221 538 748.169 538.182 746.993 538.182ZM747.019 530.392C747.672 530.392 748.229 530.233 748.689 529.915C749.15 529.597 749.499 529.139 749.738 528.543C749.976 527.946 750.096 527.23 750.096 526.395C750.096 525.571 749.976 524.849 749.738 524.23C749.505 523.611 749.158 523.131 748.698 522.79C748.243 522.443 747.684 522.27 747.019 522.27C746.331 522.27 745.757 522.449 745.297 522.807C744.837 523.165 744.49 523.656 744.257 524.281C744.025 524.901 743.908 525.605 743.908 526.395C743.908 527.196 744.025 527.898 744.257 528.5C744.496 529.097 744.846 529.562 745.306 529.898C745.772 530.227 746.343 530.392 747.019 530.392ZM760.067 533.264C759.238 533.264 758.49 533.116 757.826 532.821C757.167 532.52 756.644 532.077 756.257 531.491C755.877 530.906 755.686 530.185 755.686 529.327C755.686 528.588 755.823 527.977 756.096 527.494C756.368 527.011 756.74 526.625 757.212 526.335C757.684 526.045 758.215 525.827 758.806 525.679C759.402 525.526 760.019 525.415 760.655 525.347C761.422 525.267 762.044 525.196 762.522 525.134C762.999 525.065 763.346 524.963 763.561 524.827C763.783 524.685 763.894 524.466 763.894 524.17V524.119C763.894 523.477 763.703 522.98 763.323 522.628C762.942 522.276 762.394 522.099 761.678 522.099C760.922 522.099 760.323 522.264 759.88 522.594C759.442 522.923 759.147 523.312 758.993 523.761L756.113 523.352C756.34 522.557 756.715 521.892 757.238 521.358C757.76 520.818 758.4 520.415 759.155 520.148C759.911 519.875 760.746 519.739 761.661 519.739C762.292 519.739 762.919 519.812 763.544 519.96C764.169 520.108 764.74 520.352 765.257 520.693C765.775 521.028 766.189 521.486 766.502 522.065C766.82 522.645 766.979 523.369 766.979 524.239V533H764.013V531.202H763.911C763.723 531.565 763.459 531.906 763.118 532.224C762.783 532.537 762.36 532.79 761.848 532.983C761.343 533.17 760.749 533.264 760.067 533.264ZM760.868 530.997C761.488 530.997 762.025 530.875 762.479 530.631C762.934 530.381 763.283 530.051 763.527 529.642C763.777 529.233 763.902 528.787 763.902 528.304V526.761C763.806 526.841 763.641 526.915 763.408 526.983C763.181 527.051 762.925 527.111 762.641 527.162C762.357 527.213 762.076 527.259 761.797 527.298C761.519 527.338 761.277 527.372 761.073 527.401C760.613 527.463 760.201 527.565 759.837 527.707C759.473 527.849 759.186 528.048 758.976 528.304C758.766 528.554 758.661 528.878 758.661 529.276C758.661 529.844 758.868 530.273 759.283 530.562C759.698 530.852 760.226 530.997 760.868 530.997ZM773.167 525.33V533H770.081V519.909H773.03V522.134H773.184C773.485 521.401 773.965 520.818 774.624 520.386C775.289 519.955 776.11 519.739 777.087 519.739C777.99 519.739 778.777 519.932 779.448 520.318C780.124 520.705 780.647 521.264 781.016 521.997C781.391 522.73 781.576 523.619 781.57 524.665V533H778.485V525.142C778.485 524.267 778.257 523.582 777.803 523.088C777.354 522.594 776.732 522.347 775.936 522.347C775.397 522.347 774.917 522.466 774.496 522.705C774.081 522.937 773.755 523.276 773.516 523.719C773.283 524.162 773.167 524.699 773.167 525.33Z" fill="#00D9E4"/>
<path d="M352.358 63V45.5455H355.52V60.3494H363.208V63H352.358ZM369.583 63.2642C368.753 63.2642 368.006 63.1165 367.341 62.821C366.682 62.5199 366.159 62.0767 365.773 61.4915C365.392 60.9062 365.202 60.1847 365.202 59.3267C365.202 58.5881 365.338 57.9773 365.611 57.4943C365.884 57.0114 366.256 56.625 366.728 56.3352C367.199 56.0455 367.73 55.8267 368.321 55.679C368.918 55.5256 369.534 55.4148 370.171 55.3466C370.938 55.267 371.56 55.196 372.037 55.1335C372.515 55.0653 372.861 54.9631 373.077 54.8267C373.299 54.6847 373.409 54.4659 373.409 54.1705V54.1193C373.409 53.4773 373.219 52.9801 372.838 52.6278C372.458 52.2756 371.909 52.0994 371.194 52.0994C370.438 52.0994 369.838 52.2642 369.395 52.5938C368.958 52.9233 368.662 53.3125 368.509 53.7614L365.628 53.3523C365.855 52.5568 366.23 51.892 366.753 51.358C367.276 50.8182 367.915 50.4148 368.671 50.1477C369.426 49.875 370.262 49.7386 371.176 49.7386C371.807 49.7386 372.435 49.8125 373.06 49.9602C373.685 50.108 374.256 50.3523 374.773 50.6932C375.29 51.0284 375.705 51.4858 376.017 52.0653C376.336 52.6449 376.495 53.3693 376.495 54.2386V63H373.529V61.2017H373.426C373.239 61.5653 372.975 61.9062 372.634 62.2244C372.299 62.5369 371.875 62.7898 371.364 62.983C370.858 63.1705 370.265 63.2642 369.583 63.2642ZM370.384 60.9972C371.003 60.9972 371.54 60.875 371.995 60.6307C372.449 60.3807 372.799 60.0511 373.043 59.642C373.293 59.233 373.418 58.7869 373.418 58.304V56.7614C373.321 56.8409 373.157 56.9148 372.924 56.983C372.696 57.0511 372.441 57.1108 372.157 57.1619C371.873 57.2131 371.591 57.2585 371.313 57.2983C371.034 57.3381 370.793 57.3722 370.588 57.4006C370.128 57.4631 369.716 57.5653 369.353 57.7074C368.989 57.8494 368.702 58.0483 368.492 58.304C368.282 58.554 368.176 58.8778 368.176 59.2756C368.176 59.8438 368.384 60.2727 368.799 60.5625C369.213 60.8523 369.742 60.9972 370.384 60.9972ZM382.409 58.892L382.401 55.1676H382.895L387.6 49.9091H391.205L385.418 56.3523H384.779L382.409 58.892ZM379.597 63V45.5455H382.682V63H379.597ZM387.813 63L383.551 57.0426L385.631 54.8693L391.503 63H387.813ZM398.517 63.2557C397.205 63.2557 396.071 62.983 395.117 62.4375C394.168 61.8864 393.438 61.108 392.926 60.1023C392.415 59.0909 392.159 57.9006 392.159 56.5312C392.159 55.1847 392.415 54.0028 392.926 52.9858C393.444 51.9631 394.165 51.1676 395.091 50.5994C396.017 50.0256 397.105 49.7386 398.355 49.7386C399.162 49.7386 399.924 49.8693 400.64 50.1307C401.361 50.3864 401.998 50.7841 402.549 51.3239C403.105 51.8636 403.543 52.5511 403.861 53.3864C404.179 54.2159 404.338 55.2045 404.338 56.3523V57.2983H393.608V55.2188H401.381C401.375 54.6278 401.248 54.1023 400.998 53.642C400.748 53.1761 400.398 52.8097 399.949 52.5426C399.506 52.2756 398.989 52.142 398.398 52.142C397.767 52.142 397.213 52.2955 396.736 52.6023C396.259 52.9034 395.887 53.3011 395.62 53.7955C395.358 54.2841 395.225 54.821 395.219 55.4062V57.2216C395.219 57.983 395.358 58.6364 395.637 59.1818C395.915 59.7216 396.304 60.1364 396.804 60.4261C397.304 60.7102 397.89 60.8523 398.56 60.8523C399.009 60.8523 399.415 60.7898 399.779 60.6648C400.142 60.5341 400.458 60.3438 400.725 60.0938C400.992 59.8438 401.194 59.5341 401.33 59.1648L404.211 59.4886C404.029 60.25 403.682 60.9148 403.171 61.483C402.665 62.0455 402.017 62.483 401.228 62.7955C400.438 63.1023 399.534 63.2557 398.517 63.2557ZM339.555 79.3438C339.475 78.5994 339.14 78.0199 338.549 77.6051C337.964 77.1903 337.203 76.983 336.265 76.983C335.606 76.983 335.041 77.0824 334.569 77.2812C334.098 77.4801 333.737 77.75 333.487 78.0909C333.237 78.4318 333.109 78.821 333.103 79.2585C333.103 79.6222 333.186 79.9375 333.35 80.2045C333.521 80.4716 333.751 80.6989 334.041 80.8864C334.331 81.0682 334.652 81.2216 335.004 81.3466C335.356 81.4716 335.711 81.5767 336.069 81.6619L337.706 82.071C338.365 82.2244 338.998 82.4318 339.606 82.6932C340.22 82.9545 340.768 83.2841 341.251 83.6818C341.74 84.0795 342.126 84.5597 342.41 85.1222C342.694 85.6847 342.836 86.3437 342.836 87.0994C342.836 88.1222 342.575 89.0227 342.052 89.8011C341.529 90.5739 340.774 91.179 339.785 91.6165C338.802 92.0483 337.612 92.2642 336.214 92.2642C334.856 92.2642 333.677 92.054 332.677 91.6335C331.683 91.2131 330.904 90.5994 330.342 89.7926C329.785 88.9858 329.484 88.0028 329.439 86.8438H332.549C332.595 87.4517 332.782 87.9574 333.112 88.3608C333.441 88.7642 333.87 89.0653 334.399 89.2642C334.933 89.4631 335.529 89.5625 336.189 89.5625C336.876 89.5625 337.478 89.4602 337.995 89.2557C338.518 89.0455 338.927 88.7557 339.223 88.3864C339.518 88.0114 339.669 87.5739 339.674 87.0739C339.669 86.6193 339.535 86.2443 339.274 85.9489C339.012 85.6477 338.646 85.3977 338.174 85.1989C337.708 84.9943 337.163 84.8125 336.538 84.6534L334.552 84.142C333.115 83.7727 331.978 83.2131 331.143 82.4631C330.314 81.7074 329.899 80.7045 329.899 79.4545C329.899 78.4261 330.177 77.5256 330.734 76.7528C331.297 75.9801 332.061 75.3807 333.027 74.9545C333.993 74.5227 335.086 74.3068 336.308 74.3068C337.547 74.3068 338.632 74.5227 339.564 74.9545C340.501 75.3807 341.237 75.9744 341.771 76.7358C342.305 77.4915 342.581 78.3608 342.598 79.3438H339.555ZM353.863 86.4943V78.9091H356.948V92H353.956V89.6733H353.82C353.525 90.4062 353.039 91.0057 352.363 91.4716C351.692 91.9375 350.865 92.1705 349.882 92.1705C349.025 92.1705 348.266 91.9801 347.607 91.5994C346.953 91.2131 346.442 90.6534 346.073 89.9205C345.703 89.1818 345.519 88.2898 345.519 87.2443V78.9091H348.604V86.767C348.604 87.5966 348.831 88.2557 349.286 88.7443C349.74 89.233 350.337 89.4773 351.076 89.4773C351.53 89.4773 351.971 89.3665 352.397 89.1449C352.823 88.9233 353.172 88.5938 353.445 88.1562C353.723 87.7131 353.863 87.1591 353.863 86.4943ZM360.12 96.9091V78.9091H363.154V81.0739H363.333C363.493 80.7557 363.717 80.4176 364.007 80.0597C364.297 79.696 364.689 79.3864 365.183 79.1307C365.677 78.8693 366.308 78.7386 367.075 78.7386C368.086 78.7386 368.998 78.9972 369.811 79.5142C370.629 80.0256 371.277 80.7841 371.754 81.7898C372.237 82.7898 372.478 84.017 372.478 85.4716C372.478 86.9091 372.243 88.1307 371.771 89.1364C371.299 90.142 370.657 90.9091 369.845 91.4375C369.032 91.9659 368.112 92.2301 367.083 92.2301C366.333 92.2301 365.711 92.1051 365.217 91.8551C364.723 91.6051 364.325 91.304 364.024 90.9517C363.728 90.5937 363.498 90.2557 363.333 89.9375H363.206V96.9091H360.12ZM363.146 85.4545C363.146 86.3011 363.265 87.0426 363.504 87.679C363.748 88.3153 364.098 88.8125 364.552 89.1705C365.012 89.5227 365.569 89.6989 366.223 89.6989C366.904 89.6989 367.475 89.517 367.936 89.1534C368.396 88.7841 368.743 88.2812 368.975 87.6449C369.214 87.0028 369.333 86.2727 369.333 85.4545C369.333 84.642 369.217 83.9205 368.984 83.2898C368.751 82.6591 368.404 82.1648 367.944 81.8068C367.484 81.4489 366.91 81.2699 366.223 81.2699C365.564 81.2699 365.004 81.4432 364.544 81.7898C364.083 82.1364 363.734 82.6222 363.495 83.2472C363.262 83.8722 363.146 84.608 363.146 85.4545ZM380.916 92.2557C379.603 92.2557 378.47 91.983 377.515 91.4375C376.566 90.8864 375.836 90.108 375.325 89.1023C374.814 88.0909 374.558 86.9006 374.558 85.5312C374.558 84.1847 374.814 83.0028 375.325 81.9858C375.842 80.9631 376.564 80.1676 377.49 79.5994C378.416 79.0256 379.504 78.7386 380.754 78.7386C381.561 78.7386 382.322 78.8693 383.038 79.1307C383.76 79.3864 384.396 79.7841 384.947 80.3239C385.504 80.8636 385.941 81.5511 386.26 82.3864C386.578 83.2159 386.737 84.2045 386.737 85.3523V86.2983H376.007V84.2188H383.779C383.774 83.6278 383.646 83.1023 383.396 82.642C383.146 82.1761 382.797 81.8097 382.348 81.5426C381.904 81.2756 381.387 81.142 380.797 81.142C380.166 81.142 379.612 81.2955 379.135 81.6023C378.657 81.9034 378.285 82.3011 378.018 82.7955C377.757 83.2841 377.623 83.821 377.618 84.4062V86.2216C377.618 86.983 377.757 87.6364 378.035 88.1818C378.314 88.7216 378.703 89.1364 379.203 89.4261C379.703 89.7102 380.288 89.8523 380.958 89.8523C381.407 89.8523 381.814 89.7898 382.177 89.6648C382.541 89.5341 382.856 89.3438 383.123 89.0938C383.39 88.8438 383.592 88.5341 383.728 88.1648L386.609 88.4886C386.427 89.25 386.081 89.9148 385.569 90.483C385.064 91.0455 384.416 91.483 383.626 91.7955C382.836 92.1023 381.933 92.2557 380.916 92.2557ZM389.347 92V78.9091H392.338V81.0909H392.475C392.713 80.3352 393.123 79.7528 393.702 79.3438C394.287 78.929 394.955 78.7216 395.705 78.7216C395.875 78.7216 396.066 78.7301 396.276 78.7472C396.492 78.7585 396.671 78.7784 396.813 78.8068V81.6449C396.682 81.5994 396.475 81.5597 396.191 81.5256C395.912 81.4858 395.642 81.4659 395.381 81.4659C394.819 81.4659 394.313 81.5881 393.864 81.8324C393.421 82.071 393.071 82.4034 392.816 82.8295C392.56 83.2557 392.432 83.7472 392.432 84.304V92H389.347ZM398.863 92V78.9091H401.948V92H398.863ZM400.414 77.0511C399.925 77.0511 399.505 76.8892 399.152 76.5653C398.8 76.2358 398.624 75.8409 398.624 75.3807C398.624 74.9148 398.8 74.5199 399.152 74.196C399.505 73.8665 399.925 73.7017 400.414 73.7017C400.908 73.7017 401.328 73.8665 401.675 74.196C402.027 74.5199 402.203 74.9148 402.203 75.3807C402.203 75.8409 402.027 76.2358 401.675 76.5653C401.328 76.8892 400.908 77.0511 400.414 77.0511ZM410.831 92.2557C409.552 92.2557 408.444 91.9744 407.507 91.4119C406.569 90.8494 405.842 90.0625 405.325 89.0511C404.814 88.0398 404.558 86.858 404.558 85.5057C404.558 84.1534 404.814 82.9687 405.325 81.9517C405.842 80.9347 406.569 80.1449 407.507 79.5824C408.444 79.0199 409.552 78.7386 410.831 78.7386C412.109 78.7386 413.217 79.0199 414.154 79.5824C415.092 80.1449 415.816 80.9347 416.328 81.9517C416.845 82.9687 417.103 84.1534 417.103 85.5057C417.103 86.858 416.845 88.0398 416.328 89.0511C415.816 90.0625 415.092 90.8494 414.154 91.4119C413.217 91.9744 412.109 92.2557 410.831 92.2557ZM410.848 89.7841C411.541 89.7841 412.12 89.5937 412.586 89.2131C413.052 88.8267 413.399 88.3097 413.626 87.6619C413.859 87.0142 413.975 86.2926 413.975 85.4972C413.975 84.696 413.859 83.9716 413.626 83.3239C413.399 82.6705 413.052 82.1506 412.586 81.7642C412.12 81.3778 411.541 81.1847 410.848 81.1847C410.137 81.1847 409.547 81.3778 409.075 81.7642C408.609 82.1506 408.26 82.6705 408.027 83.3239C407.799 83.9716 407.686 84.696 407.686 85.4972C407.686 86.2926 407.799 87.0142 408.027 87.6619C408.26 88.3097 408.609 88.8267 409.075 89.2131C409.547 89.5937 410.137 89.7841 410.848 89.7841ZM419.722 92V78.9091H422.713V81.0909H422.85C423.088 80.3352 423.498 79.7528 424.077 79.3438C424.662 78.929 425.33 78.7216 426.08 78.7216C426.25 78.7216 426.441 78.7301 426.651 78.7472C426.867 78.7585 427.046 78.7784 427.188 78.8068V81.6449C427.057 81.5994 426.85 81.5597 426.566 81.5256C426.287 81.4858 426.017 81.4659 425.756 81.4659C425.194 81.4659 424.688 81.5881 424.239 81.8324C423.796 82.071 423.446 82.4034 423.191 82.8295C422.935 83.2557 422.807 83.7472 422.807 84.304V92H419.722Z" fill="#00D9E4"/>
</svg>
